<svg width="2516" height="1242" xmlns="http://www.w3.org/2000/svg" xmlns:xlink="http://www.w3.org/1999/xlink" xml:space="preserve" overflow="hidden"><g transform="translate(-73 -252)"><g><rect x="958.5" y="932.5" width="1446" height="469" stroke="#ED7000" stroke-width="4.58333" stroke-linecap="butt" stroke-linejoin="miter" stroke-miterlimit="8" stroke-opacity="1" fill="#FB9900" fill-opacity="0.2"/><rect x="958.5" y="434.5" width="1446" height="342" stroke="#8C4EFF" stroke-width="4.58333" stroke-linecap="butt" stroke-linejoin="miter" stroke-miterlimit="8" stroke-opacity="1" fill="#8C4EFF" fill-opacity="0.2"/><rect x="333.5" y="257.5" width="2251" height="1230" stroke="#8C4EFF" stroke-width="4.58333" stroke-linecap="butt" stroke-linejoin="miter" stroke-miterlimit="8" stroke-opacity="1" fill="none"/><text fill="#000000" fill-opacity="1" font-family="Arial,Arial_MSFontService,sans-serif" font-style="normal" font-variant="normal" font-weight="400" font-stretch="normal" font-size="55" text-anchor="start" direction="ltr" writing-mode="lr-tb" unicode-bidi="normal" text-decoration="none" transform="matrix(1 0 0 1 481.8 343)">VPC</text><g><g><g><path d="M1623.84 1108.49 1659.04 1108.49 1659.04 1073.29 1623.84 1073.29 1623.84 1108.49ZM1619.97 1114.61 1619.97 1120.95 1626.85 1120.95 1626.85 1115.37 1631.99 1115.37 1631.99 1120.95 1638.87 1120.95 1638.87 1115.37 1644.01 1115.37 1644.01 1120.95 1650.89 1120.95 1650.89 1115.37 1656.03 1115.37 1656.03 1120.95 1662.91 1120.95 1662.91 1114.61C1663.85 1114.08 1664.63 1113.31 1665.16 1112.36L1671.49 1112.36 1671.49 1105.49 1665.91 1105.49 1665.91 1100.34 1671.49 1100.34 1671.49 1093.47 1665.91 1093.47 1665.91 1088.32 1671.49 1088.32 1671.49 1081.44 1665.91 1081.44 1665.91 1076.3 1671.49 1076.3 1671.49 1069.42 1665.16 1069.42C1664.63 1068.48 1663.85 1067.7 1662.91 1067.17L1662.91 1060.84 1656.03 1060.84 1656.03 1066.42 1650.89 1066.42 1650.89 1060.84 1644.01 1060.84 1644.01 1066.42 1638.87 1066.42 1638.87 1060.84 1631.99 1060.84 1631.99 1066.42 1626.85 1066.42 1626.85 1060.84 1619.97 1060.84 1619.97 1067.17C1619.02 1067.7 1618.25 1068.48 1617.72 1069.42L1611.39 1069.42 1611.39 1076.3 1616.97 1076.3 1616.97 1081.44 1611.39 1081.44 1611.39 1088.32 1616.97 1088.32 1616.97 1093.47 1611.39 1093.47 1611.39 1100.34 1616.97 1100.34 1616.97 1105.49 1611.39 1105.49 1611.39 1112.36 1617.72 1112.36C1618.25 1113.31 1619.02 1114.08 1619.97 1114.61ZM1695.1 1123.95 1701.98 1123.95 1701.98 1057.84 1695.1 1057.84 1695.1 1123.95ZM1677.07 1123.95 1683.94 1123.95 1683.94 1057.84 1677.07 1057.84 1677.07 1123.95ZM1598.93 1123.95 1605.8 1123.95 1605.8 1057.84 1598.93 1057.84 1598.93 1123.95ZM1580.9 1123.95 1587.78 1123.95 1587.78 1057.84 1580.9 1057.84 1580.9 1123.95ZM1572.75 1132.53 1710.13 1132.53 1710.13 1049.25 1572.75 1049.25 1572.75 1132.53ZM1713.56 1042.37 1569.31 1042.37C1567.41 1042.37 1565.87 1043.91 1565.87 1045.81L1565.87 1135.97C1565.87 1137.87 1567.41 1139.41 1569.31 1139.41L1713.56 1139.41C1715.46 1139.41 1717 1137.87 1717 1135.97L1717 1045.81C1717 1043.91 1715.46 1042.37 1713.56 1042.37Z" fill="#FF9900" fill-rule="evenodd" fill-opacity="1"/></g></g></g><text fill="#000000" fill-opacity="1" font-family="Arial,Arial_MSFontService,sans-serif" font-style="normal" font-variant="normal" font-weight="400" font-stretch="normal" font-size="50" text-anchor="start" direction="ltr" writing-mode="lr-tb" unicode-bidi="normal" text-decoration="none" transform="matrix(1 0 0 1 1517.55 1205)">s</text><text fill="#000000" fill-opacity="1" font-family="Arial,Arial_MSFontService,sans-serif" font-style="normal" font-variant="normal" font-weight="400" font-stretch="normal" font-size="50" text-anchor="start" direction="ltr" writing-mode="lr-tb" unicode-bidi="normal" text-decoration="none" transform="matrix(1 0 0 1 1542.75 1205)">ervice</text><text fill="#000000" fill-opacity="1" font-family="Arial,Arial_MSFontService,sans-serif" font-style="normal" font-variant="normal" font-weight="400" font-stretch="normal" font-size="50" text-anchor="start" direction="ltr" writing-mode="lr-tb" unicode-bidi="normal" text-decoration="none" transform="matrix(1 0 0 1 1677.39 1205)">-</text><text fill="#000000" fill-opacity="1" font-family="Arial,Arial_MSFontService,sans-serif" font-style="normal" font-variant="normal" font-weight="400" font-stretch="normal" font-size="50" text-anchor="start" direction="ltr" writing-mode="lr-tb" unicode-bidi="normal" text-decoration="none" transform="matrix(1 0 0 1 1694 1205)">one</text><text fill="#000000" fill-opacity="1" font-family="Arial,Arial_MSFontService,sans-serif" font-style="normal" font-variant="normal" font-weight="400" font-stretch="normal" font-size="50" text-anchor="start" direction="ltr" writing-mode="lr-tb" unicode-bidi="normal" text-decoration="none" transform="matrix(1 0 0 1 385.37 808)">Internet gateway</text><g><g><g><path d="M608.402 693.588 603.097 693.588 603.097 630.985C603.097 629.594 602.279 628.329 601.011 627.759L600.685 627.61C593.57 624.398 586.206 621.072 575.624 621.072 564.563 621.072 556.446 624.646 548.42 628.63 547.216 629.229 546.455 630.458 546.455 631.804L546.455 693.588 541.273 693.588 541.273 626.771C549.894 619.762 562.321 615.767 575.659 615.767 588.059 615.767 599.881 619.298 608.402 625.499L608.402 693.588ZM575.659 608.684C559.987 608.684 545.311 613.709 535.387 622.478 534.626 623.148 534.19 624.115 534.19 625.131L534.19 697.13C534.19 699.088 535.773 700.671 537.732 700.671L549.996 700.671C551.955 700.671 553.538 699.088 553.538 697.13L553.538 634.01C560.335 630.727 566.922 628.156 575.624 628.156 583.894 628.156 589.908 630.546 596.013 633.277L596.013 697.13C596.013 699.088 597.596 700.671 599.555 700.671L611.944 700.671C613.902 700.671 615.485 699.088 615.485 697.13L615.485 623.746C615.485 622.67 614.993 621.65 614.147 620.973 604.322 613.164 590.294 608.684 575.659 608.684ZM574.838 724.51C535.872 724.51 504.164 692.805 504.164 653.836 504.164 614.867 535.872 583.166 574.838 583.166 613.807 583.166 645.512 614.867 645.512 653.836 645.512 692.805 613.807 724.51 574.838 724.51ZM574.838 576.083C531.962 576.083 497.08 610.964 497.08 653.836 497.08 696.715 531.962 731.594 574.838 731.594 617.713 731.594 652.595 696.715 652.595 653.836 652.595 610.964 617.713 576.083 574.838 576.083Z" fill="#8C4EFF" fill-rule="evenodd" fill-opacity="1"/></g></g></g><text fill="#000000" fill-opacity="1" font-family="Arial,Arial_MSFontService,sans-serif" font-style="normal" font-variant="normal" font-weight="400" font-stretch="normal" font-size="50" text-anchor="start" direction="ltr" writing-mode="lr-tb" unicode-bidi="normal" text-decoration="none" transform="matrix(1 0 0 1 1127.73 518)">Application Load Balancer (Public</text><text fill="#000000" fill-opacity="1" font-family="Arial,Arial_MSFontService,sans-serif" font-style="normal" font-variant="normal" font-weight="400" font-stretch="normal" font-size="50" text-anchor="start" direction="ltr" writing-mode="lr-tb" unicode-bidi="normal" text-decoration="none" transform="matrix(1 0 0 1 1896.59 518)">facin</text><text fill="#000000" fill-opacity="1" font-family="Arial,Arial_MSFontService,sans-serif" font-style="normal" font-variant="normal" font-weight="400" font-stretch="normal" font-size="50" text-anchor="start" direction="ltr" writing-mode="lr-tb" unicode-bidi="normal" text-decoration="none" transform="matrix(1 0 0 1 2003.15 518)">g</text><text fill="#000000" fill-opacity="1" font-family="Arial,Arial_MSFontService,sans-serif" font-style="normal" font-variant="normal" font-weight="400" font-stretch="normal" font-size="50" text-anchor="start" direction="ltr" writing-mode="lr-tb" unicode-bidi="normal" text-decoration="none" transform="matrix(1 0 0 1 2031.22 518)">)</text><path d="M101.5 648.771 445.765 648.771 445.765 660.229 101.5 660.229ZM440.036 637.313 474.411 654.5 440.036 671.688Z" fill="#BFBFBF" fill-rule="nonzero" fill-opacity="1"/><text fill="#000000" fill-opacity="1" font-family="Arial,Arial_MSFontService,sans-serif" font-style="normal" font-variant="normal" font-weight="400" font-stretch="normal" font-size="50" text-anchor="start" direction="ltr" writing-mode="lr-tb" unicode-bidi="normal" text-decoration="none" transform="matrix(1 0 0 1 123.006 627)">Traffic</text><text fill="#FF9902" fill-opacity="1" font-family="Arial,Arial_MSFontService,sans-serif" font-style="normal" font-variant="normal" font-weight="400" font-stretch="normal" font-size="55" text-anchor="start" direction="ltr" writing-mode="lr-tb" unicode-bidi="normal" text-decoration="none" transform="matrix(1 0 0 1 1130.62 1346)">AWS </text><text fill="#FF9902" fill-opacity="1" font-family="Arial,Arial_MSFontService,sans-serif" font-style="normal" font-variant="normal" font-weight="400" font-stretch="normal" font-size="55" text-anchor="start" direction="ltr" writing-mode="lr-tb" unicode-bidi="normal" text-decoration="none" transform="matrix(1 0 0 1 1269.52 1346)">Fargate</text><path d="M1501 1092.5C1501 1076.21 1514.21 1063 1530.5 1063 1546.79 1063 1560 1076.21 1560 1092.5 1560 1108.79 1546.79 1122 1530.5 1122 1514.21 1122 1501 1108.79 1501 1092.5Z" fill="#BFBFBF" fill-rule="evenodd" fill-opacity="1"/><path d="M1279 780.5C1279 764.208 1292.21 751 1308.5 751 1324.79 751 1338 764.208 1338 780.5 1338 796.792 1324.79 810 1308.5 810 1292.21 810 1279 796.792 1279 780.5Z" fill="#8C4EFF" fill-rule="evenodd" fill-opacity="1"/><path d="M932 655.5C932 639.208 945.208 626 961.5 626 977.792 626 991 639.208 991 655.5 991 671.792 977.792 685 961.5 685 945.208 685 932 671.792 932 655.5Z" fill="#8C4EFF" fill-rule="evenodd" fill-opacity="1"/><path d="M660.541 648.771 904.312 650.537 904.229 661.996 660.458 660.229ZM898.666 639.038 932.915 656.474 898.416 673.412Z" fill="#BFBFBF" fill-rule="nonzero" fill-opacity="1"/><text fill="#000000" fill-opacity="1" font-family="Arial,Arial_MSFontService,sans-serif" font-style="normal" font-variant="normal" font-weight="400" font-stretch="normal" font-size="50" text-anchor="start" direction="ltr" writing-mode="lr-tb" unicode-bidi="normal" text-decoration="none" transform="matrix(1 0 0 1 702.772 625)">Port 80</text><text fill="#000000" fill-opacity="1" font-family="Arial,Arial_MSFontService,sans-serif" font-style="normal" font-variant="normal" font-weight="400" font-stretch="normal" font-size="50" text-anchor="start" direction="ltr" writing-mode="lr-tb" unicode-bidi="normal" text-decoration="none" transform="matrix(1 0 0 1 1556.16 1009)">Port </text><text fill="#000000" fill-opacity="1" font-family="Arial,Arial_MSFontService,sans-serif" font-style="normal" font-variant="normal" font-weight="400" font-stretch="normal" font-size="50" text-anchor="start" direction="ltr" writing-mode="lr-tb" unicode-bidi="normal" text-decoration="none" transform="matrix(1 0 0 1 1662.15 1009)">8080</text><g><g><g><path d="M2092.84 1108.49 2128.04 1108.49 2128.04 1073.29 2092.84 1073.29 2092.84 1108.49ZM2088.97 1114.61 2088.97 1120.95 2095.85 1120.95 2095.85 1115.37 2100.99 1115.37 2100.99 1120.95 2107.87 1120.95 2107.87 1115.37 2113.01 1115.37 2113.01 1120.95 2119.89 1120.95 2119.89 1115.37 2125.03 1115.37 2125.03 1120.95 2131.91 1120.95 2131.91 1114.61C2132.85 1114.08 2133.63 1113.31 2134.16 1112.36L2140.49 1112.36 2140.49 1105.49 2134.91 1105.49 2134.91 1100.34 2140.49 1100.34 2140.49 1093.47 2134.91 1093.47 2134.91 1088.32 2140.49 1088.32 2140.49 1081.44 2134.91 1081.44 2134.91 1076.3 2140.49 1076.3 2140.49 1069.42 2134.16 1069.42C2133.63 1068.48 2132.85 1067.7 2131.91 1067.17L2131.91 1060.84 2125.03 1060.84 2125.03 1066.42 2119.89 1066.42 2119.89 1060.84 2113.01 1060.84 2113.01 1066.42 2107.87 1066.42 2107.87 1060.84 2100.99 1060.84 2100.99 1066.42 2095.85 1066.42 2095.85 1060.84 2088.97 1060.84 2088.97 1067.17C2088.02 1067.7 2087.25 1068.48 2086.72 1069.42L2080.39 1069.42 2080.39 1076.3 2085.97 1076.3 2085.97 1081.44 2080.39 1081.44 2080.39 1088.32 2085.97 1088.32 2085.97 1093.47 2080.39 1093.47 2080.39 1100.34 2085.97 1100.34 2085.97 1105.49 2080.39 1105.49 2080.39 1112.36 2086.72 1112.36C2087.25 1113.31 2088.02 1114.08 2088.97 1114.61ZM2164.1 1123.95 2170.98 1123.95 2170.98 1057.84 2164.1 1057.84 2164.1 1123.95ZM2146.07 1123.95 2152.94 1123.95 2152.94 1057.84 2146.07 1057.84 2146.07 1123.95ZM2067.93 1123.95 2074.81 1123.95 2074.81 1057.84 2067.93 1057.84 2067.93 1123.95ZM2049.9 1123.95 2056.78 1123.95 2056.78 1057.84 2049.9 1057.84 2049.9 1123.95ZM2041.75 1132.53 2179.13 1132.53 2179.13 1049.25 2041.75 1049.25 2041.75 1132.53ZM2182.56 1042.37 2038.31 1042.37C2036.42 1042.37 2034.88 1043.91 2034.88 1045.81L2034.88 1135.97C2034.88 1137.87 2036.42 1139.41 2038.31 1139.41L2182.56 1139.41C2184.46 1139.41 2186 1137.87 2186 1135.97L2186 1045.81C2186 1043.91 2184.46 1042.37 2182.56 1042.37Z" fill="#FF9900" fill-rule="evenodd" fill-opacity="1"/></g></g></g><text fill="#000000" fill-opacity="1" font-family="Arial,Arial_MSFontService,sans-serif" font-style="normal" font-variant="normal" font-weight="400" font-stretch="normal" font-size="50" text-anchor="start" direction="ltr" writing-mode="lr-tb" unicode-bidi="normal" text-decoration="none" transform="matrix(1 0 0 1 1995.74 1208)">s</text><text fill="#000000" fill-opacity="1" font-family="Arial,Arial_MSFontService,sans-serif" font-style="normal" font-variant="normal" font-weight="400" font-stretch="normal" font-size="50" text-anchor="start" direction="ltr" writing-mode="lr-tb" unicode-bidi="normal" text-decoration="none" transform="matrix(1 0 0 1 2020.95 1208)">ervice</text><text fill="#000000" fill-opacity="1" font-family="Arial,Arial_MSFontService,sans-serif" font-style="normal" font-variant="normal" font-weight="400" font-stretch="normal" font-size="50" text-anchor="start" direction="ltr" writing-mode="lr-tb" unicode-bidi="normal" text-decoration="none" transform="matrix(1 0 0 1 2155.58 1208)">-</text><text fill="#000000" fill-opacity="1" font-family="Arial,Arial_MSFontService,sans-serif" font-style="normal" font-variant="normal" font-weight="400" font-stretch="normal" font-size="50" text-anchor="start" direction="ltr" writing-mode="lr-tb" unicode-bidi="normal" text-decoration="none" transform="matrix(1 0 0 1 2172.2 1208)">two</text><path d="M2006.23 810.5 2006.23 1035.23 1994.77 1035.23 1994.77 810.5ZM2017.69 1029.5 2000.5 1063.87 1983.31 1029.5Z" fill="#BFBFBF" fill-rule="nonzero" fill-opacity="1"/><path d="M1970 1092.5C1970 1076.21 1983.21 1063 1999.5 1063 2015.79 1063 2029 1076.21 2029 1092.5 2029 1108.79 2015.79 1122 1999.5 1122 1983.21 1122 1970 1108.79 1970 1092.5Z" fill="#BFBFBF" fill-rule="evenodd" fill-opacity="1"/><path d="M1970 780.5C1970 764.208 1983.21 751 1999.5 751 2015.79 751 2029 764.208 2029 780.5 2029 796.792 2015.79 810 1999.5 810 1983.21 810 1970 796.792 1970 780.5Z" fill="#8C4EFF" fill-rule="evenodd" fill-opacity="1"/><text fill="#000000" fill-opacity="1" font-family="Arial,Arial_MSFontService,sans-serif" font-style="normal" font-variant="normal" font-weight="400" font-stretch="normal" font-size="50" text-anchor="start" direction="ltr" writing-mode="lr-tb" unicode-bidi="normal" text-decoration="none" transform="matrix(1 0 0 1 2038.89 1009)">Port </text><text fill="#000000" fill-opacity="1" font-family="Arial,Arial_MSFontService,sans-serif" font-style="normal" font-variant="normal" font-weight="400" font-stretch="normal" font-size="50" text-anchor="start" direction="ltr" writing-mode="lr-tb" unicode-bidi="normal" text-decoration="none" transform="matrix(1 0 0 1 2144.88 1009)">8080</text><text fill="#000000" fill-opacity="1" font-family="Arial,Arial_MSFontService,sans-serif" font-style="normal" font-variant="normal" font-weight="400" font-stretch="normal" font-size="55" text-anchor="start" direction="ltr" writing-mode="lr-tb" unicode-bidi="normal" text-decoration="none" transform="matrix(1 0 0 1 1168.05 649)">Path rule:</text><text fill="#000000" fill-opacity="1" font-family="Arial,Arial_MSFontService,sans-serif" font-style="normal" font-variant="normal" font-weight="400" font-stretch="normal" font-size="55" text-anchor="start" direction="ltr" writing-mode="lr-tb" unicode-bidi="normal" text-decoration="none" transform="matrix(1 0 0 1 1168.05 715)">/service</text><text fill="#000000" fill-opacity="1" font-family="Arial,Arial_MSFontService,sans-serif" font-style="normal" font-variant="normal" font-weight="400" font-stretch="normal" font-size="55" text-anchor="start" direction="ltr" writing-mode="lr-tb" unicode-bidi="normal" text-decoration="none" transform="matrix(1 0 0 1 1357.11 715)">-</text><text fill="#000000" fill-opacity="1" font-family="Arial,Arial_MSFontService,sans-serif" font-style="normal" font-variant="normal" font-weight="400" font-stretch="normal" font-size="55" text-anchor="start" direction="ltr" writing-mode="lr-tb" unicode-bidi="normal" text-decoration="none" transform="matrix(1 0 0 1 1375.45 715)">one*</text><text fill="#000000" fill-opacity="1" font-family="Arial,Arial_MSFontService,sans-serif" font-style="normal" font-variant="normal" font-weight="400" font-stretch="normal" font-size="55" text-anchor="start" direction="ltr" writing-mode="lr-tb" unicode-bidi="normal" text-decoration="none" transform="matrix(1 0 0 1 1857.78 647)">Path rule:</text><text fill="#000000" fill-opacity="1" font-family="Arial,Arial_MSFontService,sans-serif" font-style="normal" font-variant="normal" font-weight="400" font-stretch="normal" font-size="55" text-anchor="start" direction="ltr" writing-mode="lr-tb" unicode-bidi="normal" text-decoration="none" transform="matrix(1 0 0 1 1857.78 713)">/service</text><text fill="#000000" fill-opacity="1" font-family="Arial,Arial_MSFontService,sans-serif" font-style="normal" font-variant="normal" font-weight="400" font-stretch="normal" font-size="55" text-anchor="start" direction="ltr" writing-mode="lr-tb" unicode-bidi="normal" text-decoration="none" transform="matrix(1 0 0 1 2046.84 713)">-</text><text fill="#000000" fill-opacity="1" font-family="Arial,Arial_MSFontService,sans-serif" font-style="normal" font-variant="normal" font-weight="400" font-stretch="normal" font-size="55" text-anchor="start" direction="ltr" writing-mode="lr-tb" unicode-bidi="normal" text-decoration="none" transform="matrix(1 0 0 1 2065.17 713)">two*</text><g><g><g><path d="M1205.84 1108.49 1241.04 1108.49 1241.04 1073.29 1205.84 1073.29 1205.84 1108.49ZM1201.97 1114.61 1201.97 1120.95 1208.85 1120.95 1208.85 1115.37 1213.99 1115.37 1213.99 1120.95 1220.87 1120.95 1220.87 1115.37 1226.01 1115.37 1226.01 1120.95 1232.89 1120.95 1232.89 1115.37 1238.03 1115.37 1238.03 1120.95 1244.91 1120.95 1244.91 1114.61C1245.85 1114.08 1246.63 1113.31 1247.16 1112.36L1253.49 1112.36 1253.49 1105.49 1247.91 1105.49 1247.91 1100.34 1253.49 1100.34 1253.49 1093.47 1247.91 1093.47 1247.91 1088.32 1253.49 1088.32 1253.49 1081.44 1247.91 1081.44 1247.91 1076.3 1253.49 1076.3 1253.49 1069.42 1247.16 1069.42C1246.63 1068.48 1245.85 1067.7 1244.91 1067.17L1244.91 1060.84 1238.03 1060.84 1238.03 1066.42 1232.89 1066.42 1232.89 1060.84 1226.01 1060.84 1226.01 1066.42 1220.87 1066.42 1220.87 1060.84 1213.99 1060.84 1213.99 1066.42 1208.85 1066.42 1208.85 1060.84 1201.97 1060.84 1201.97 1067.17C1201.02 1067.7 1200.25 1068.48 1199.72 1069.42L1193.39 1069.42 1193.39 1076.3 1198.97 1076.3 1198.97 1081.44 1193.39 1081.44 1193.39 1088.32 1198.97 1088.32 1198.97 1093.47 1193.39 1093.47 1193.39 1100.34 1198.97 1100.34 1198.97 1105.49 1193.39 1105.49 1193.39 1112.36 1199.72 1112.36C1200.25 1113.31 1201.02 1114.08 1201.97 1114.61ZM1277.1 1123.95 1283.98 1123.95 1283.98 1057.84 1277.1 1057.84 1277.1 1123.95ZM1259.07 1123.95 1265.94 1123.95 1265.94 1057.84 1259.07 1057.84 1259.07 1123.95ZM1180.93 1123.95 1187.8 1123.95 1187.8 1057.84 1180.93 1057.84 1180.93 1123.95ZM1162.9 1123.95 1169.78 1123.95 1169.78 1057.84 1162.9 1057.84 1162.9 1123.95ZM1154.75 1132.53 1292.13 1132.53 1292.13 1049.25 1154.75 1049.25 1154.75 1132.53ZM1295.56 1042.37 1151.31 1042.37C1149.41 1042.37 1147.87 1043.91 1147.87 1045.81L1147.87 1135.97C1147.87 1137.87 1149.41 1139.41 1151.31 1139.41L1295.56 1139.41C1297.46 1139.41 1299 1137.87 1299 1135.97L1299 1045.81C1299 1043.91 1297.46 1042.37 1295.56 1042.37Z" fill="#FF9900" fill-rule="evenodd" fill-opacity="1"/></g></g></g><text fill="#000000" fill-opacity="1" font-family="Arial,Arial_MSFontService,sans-serif" font-style="normal" font-variant="normal" font-weight="400" font-stretch="normal" font-size="50" text-anchor="start" direction="ltr" writing-mode="lr-tb" unicode-bidi="normal" text-decoration="none" transform="matrix(1 0 0 1 1099.8 1205)">s</text><text fill="#000000" fill-opacity="1" font-family="Arial,Arial_MSFontService,sans-serif" font-style="normal" font-variant="normal" font-weight="400" font-stretch="normal" font-size="50" text-anchor="start" direction="ltr" writing-mode="lr-tb" unicode-bidi="normal" text-decoration="none" transform="matrix(1 0 0 1 1125.01 1205)">ervice</text><text fill="#000000" fill-opacity="1" font-family="Arial,Arial_MSFontService,sans-serif" font-style="normal" font-variant="normal" font-weight="400" font-stretch="normal" font-size="50" text-anchor="start" direction="ltr" writing-mode="lr-tb" unicode-bidi="normal" text-decoration="none" transform="matrix(1 0 0 1 1259.65 1205)">-</text><text fill="#000000" fill-opacity="1" font-family="Arial,Arial_MSFontService,sans-serif" font-style="normal" font-variant="normal" font-weight="400" font-stretch="normal" font-size="50" text-anchor="start" direction="ltr" writing-mode="lr-tb" unicode-bidi="normal" text-decoration="none" transform="matrix(1 0 0 1 1276.26 1205)">one</text><path d="M1083 1092.5C1083 1076.21 1096.21 1063 1112.5 1063 1128.79 1063 1142 1076.21 1142 1092.5 1142 1108.79 1128.79 1122 1112.5 1122 1096.21 1122 1083 1108.79 1083 1092.5Z" fill="#BFBFBF" fill-rule="evenodd" fill-opacity="1"/><text fill="#000000" fill-opacity="1" font-family="Arial,Arial_MSFontService,sans-serif" font-style="normal" font-variant="normal" font-weight="400" font-stretch="normal" font-size="50" text-anchor="start" direction="ltr" writing-mode="lr-tb" unicode-bidi="normal" text-decoration="none" transform="matrix(1 0 0 1 1138.42 1009)">Port </text><text fill="#000000" fill-opacity="1" font-family="Arial,Arial_MSFontService,sans-serif" font-style="normal" font-variant="normal" font-weight="400" font-stretch="normal" font-size="50" text-anchor="start" direction="ltr" writing-mode="lr-tb" unicode-bidi="normal" text-decoration="none" transform="matrix(1 0 0 1 1244.41 1009)">8080</text><path d="M0-5.72917 68.3224-5.72917 68.3224 222.316 62.5932 216.587 224.727 216.587 224.727 228.045 56.864 228.045 56.864 0 62.5932 5.72917 0 5.72917ZM218.998 205.129 253.373 222.316 218.998 239.504Z" fill="#BFBFBF" fill-rule="nonzero" fill-opacity="1" transform="matrix(1.83697e-16 1 1 -1.83697e-16 1308.5 810.5)"/><path d="M1314.66 810.5 1314.66 878.774 1113.5 878.774 1119.23 873.045 1119.23 1035.23 1107.77 1035.23 1107.77 867.316 1308.93 867.316 1303.2 873.045 1303.2 810.5ZM1130.69 1029.5 1113.5 1063.87 1096.31 1029.5Z" fill="#BFBFBF" fill-rule="nonzero" fill-opacity="1"/><g><g><g><path d="M0 0 137 0 137 137 0 137Z" fill="#ED7100" fill-rule="evenodd" fill-opacity="1" transform="matrix(1 0 0 1 961 1264)"/><path d="M89.0499 96.7955 89.0499 88.4967 94.1874 86.4417 94.1874 94.7405 89.0499 96.7955ZM80.4874 86.4417 85.6249 88.4967 85.6249 96.7955 80.4874 94.7405 80.4874 86.4417ZM70.2124 108.783 70.2124 100.484 75.3499 98.4292 75.3499 106.728 70.2124 108.783ZM61.6499 98.4292 66.7874 100.484 66.7874 108.783 61.6499 106.728 61.6499 98.4292ZM51.3749 96.7955 51.3749 88.4967 56.5124 86.4417 56.5124 94.7405 51.3749 96.7955ZM42.8124 86.4417 47.9499 88.4967 47.9499 96.7955 42.8124 94.7405 42.8124 86.4417ZM49.6624 82.3317 53.6149 83.9124 49.6624 85.493 45.71 83.9124 49.6624 82.3317ZM68.4999 94.3192 72.4523 95.8999 68.4999 97.4805 64.5475 95.8999 68.4999 94.3192ZM87.3374 82.3317 91.2898 83.9124 87.3374 85.493 83.3849 83.9124 87.3374 82.3317ZM96.5352 82.3215 87.9727 78.8965C87.5651 78.7355 87.1096 78.7355 86.702 78.8965L78.1396 82.3215C77.4888 82.5835 77.0624 83.212 77.0624 83.9124L77.0624 94.0555 69.1352 90.884C68.7277 90.723 68.2721 90.723 67.8646 90.884L59.9374 94.0555 59.9374 83.9124C59.9374 83.212 59.511 82.5835 58.8603 82.3215L50.2978 78.8965C49.8902 78.7355 49.4347 78.7355 49.0271 78.8965L40.4646 82.3215C39.8139 82.5835 39.3874 83.212 39.3874 83.9124L39.3874 95.8999C39.3874 96.6003 39.8139 97.2288 40.4646 97.4908L49.0271 100.916C49.2309 100.996 49.4467 101.037 49.6624 101.037 49.8782 101.037 50.094 100.996 50.2978 100.916L58.2249 97.7442 58.2249 107.887C58.2249 108.588 58.6513 109.216 59.3021 109.478L67.8646 112.903C68.0684 112.984 68.2841 113.025 68.4999 113.025 68.7157 113.025 68.9314 112.984 69.1352 112.903L77.6977 109.478C78.3485 109.216 78.7749 108.588 78.7749 107.887L78.7749 97.7442 86.702 100.916C86.9058 100.996 87.1216 101.037 87.3374 101.037 87.5532 101.037 87.7689 100.996 87.9727 100.916L96.5352 97.4908C97.186 97.2288 97.6124 96.6003 97.6124 95.8999L97.6124 83.9124C97.6124 83.212 97.186 82.5835 96.5352 82.3215ZM111.312 61.5437C111.312 71.5533 89.2537 76.9562 68.4999 76.9562 47.7461 76.9562 25.6875 71.5533 25.6875 61.5437 25.6875 56.7642 30.9876 52.5566 40.6119 49.695L41.588 52.9778C33.892 55.2657 29.1125 58.5486 29.1125 61.5437 29.1125 67.2138 45.287 73.5312 68.4999 73.5312 91.7128 73.5312 107.887 67.2138 107.887 61.5437 107.887 58.5486 103.108 55.2657 95.4118 52.9778L96.3879 49.695C106.012 52.5566 111.312 56.7642 111.312 61.5437ZM68.4999 29.234 85.9914 35.9624 68.4999 42.6909 51.0085 35.9624 68.4999 29.234ZM86.6181 63.0918C83.3884 64.5372 77.9666 66.2206 70.2124 66.4466L70.2124 45.7014 89.0499 38.4576 89.0499 59.3346C89.0499 60.9632 88.0977 62.4377 86.6181 63.0918ZM47.9499 59.3346 47.9499 38.4576 66.7874 45.7014 66.7874 66.4466C59.0332 66.2206 53.6115 64.5372 50.3748 63.0884 48.9021 62.4377 47.9499 60.9632 47.9499 59.3346ZM48.9843 66.2171C52.7535 67.904 59.1993 69.9161 68.4999 69.9161 77.8005 69.9161 84.2463 67.904 88.0104 66.2206 90.723 65.0201 92.4749 62.3178 92.4749 59.3346L92.4749 35.9624C92.4749 35.2535 92.0382 34.6181 91.3772 34.363L69.1147 25.8005C68.7174 25.6498 68.2824 25.6498 67.8851 25.8005L45.6227 34.363C44.9616 34.6181 44.5249 35.2535 44.5249 35.9624L44.5249 59.3346C44.5249 62.3178 46.2768 65.0201 48.9843 66.2171Z" fill="#FFFFFF" fill-rule="evenodd" fill-opacity="1" transform="matrix(1 0 0 1 961 1264)"/></g></g></g><g><g><g><path d="M0 0 136 0 136 136 0 136Z" fill="#8C4FFF" fill-rule="evenodd" fill-opacity="1" transform="matrix(1.00735 0 0 1 958 434)"/><path d="M50.9999 90.0999C38.8143 90.0999 28.9 80.1855 28.9 67.9999 28.9 55.8143 38.8143 45.8999 50.9999 45.8999 63.1855 45.8999 73.0999 55.8143 73.0999 67.9999 73.0999 80.1855 63.1855 90.0999 50.9999 90.0999M102 100.3C102 104.05 98.95 107.1 95.1998 107.1 91.4496 107.1 88.3999 104.05 88.3999 100.3 88.3999 96.5496 91.4496 93.4998 95.1998 93.4998 98.95 93.4998 102 96.5496 102 100.3M95.1998 28.9C98.95 28.9 102 31.9497 102 35.6999 102 39.4501 98.95 42.4999 95.1998 42.4999 91.4496 42.4999 88.3999 39.4501 88.3999 35.6999 88.3999 31.9497 91.4496 28.9 95.1998 28.9M100.3 61.1999C104.05 61.1999 107.1 64.2497 107.1 67.9999 107.1 71.7501 104.05 74.7999 100.3 74.7999 96.5496 74.7999 93.4998 71.7501 93.4998 67.9999 93.4998 64.2497 96.5496 61.1999 100.3 61.1999M76.4132 69.6999 90.2529 69.6999C91.0655 74.516 95.2559 78.1999 100.3 78.1999 105.925 78.1999 110.5 73.6252 110.5 67.9999 110.5 62.3746 105.925 57.7999 100.3 57.7999 95.2559 57.7999 91.0655 61.4838 90.2529 66.2999L76.4132 66.2999C76.199 63.0682 75.3847 60.0048 74.0723 57.2117L89.1581 43.899C90.8512 45.1502 92.9371 45.8999 95.1998 45.8999 100.825 45.8999 105.4 41.3252 105.4 35.6999 105.4 30.0746 100.825 25.5 95.1998 25.5 89.5746 25.5 84.9999 30.0746 84.9999 35.6999 84.9999 37.8351 85.6612 39.8156 86.7866 41.4561L72.3876 54.1602C67.8367 47.1545 59.9606 42.4999 50.9999 42.4999 36.9392 42.4999 25.5 53.9392 25.5 67.9999 25.5 82.0606 36.9392 93.4998 50.9999 93.4998 59.9606 93.4998 67.8367 88.8453 72.3876 81.8396L86.7866 94.5436C85.6612 96.1841 84.9999 98.1646 84.9999 100.3 84.9999 105.925 89.5746 110.5 95.1998 110.5 100.825 110.5 105.4 105.925 105.4 100.3 105.4 94.6745 100.825 90.0999 95.1998 90.0999 92.9371 90.0999 90.8512 90.8496 89.1581 92.1007L74.0723 78.7881C75.3847 75.995 76.199 72.9316 76.4132 69.6999" fill="#FFFFFF" fill-rule="evenodd" fill-opacity="1" transform="matrix(1.00735 0 0 1 958 434)"/></g></g></g><g><g><g><path d="M332 257 454 257 454 379 332 379Z" fill="#8C4FFF" fill-rule="evenodd" fill-opacity="1"/><path d="M426.461 321.14 417.482 317.288 417.482 349.279C425.244 348.206 426.424 340.227 426.473 339.864L426.461 321.14ZM414.432 349.322 414.432 317.266 405.175 321.149 405.175 340.062C405.214 340.227 406.532 348.501 414.432 349.322ZM415.365 313.57C415.743 313.408 416.176 313.411 416.557 313.573L428.587 318.733C429.148 318.974 429.511 319.523 429.511 320.133L429.511 340.062C428.953 344.475 425.372 352.454 415.703 352.454 406.325 352.454 402.729 344.488 402.137 340.272L402.125 320.133C402.125 319.52 402.494 318.965 403.058 318.727L415.365 313.57ZM432.597 315.513 415.941 308.174 399.075 315.272 399.075 337.012C399.072 337.14 398.91 345.759 404.129 351.112 406.925 353.982 410.82 355.44 415.703 355.44 420.589 355.44 424.509 353.979 427.351 351.103 432.643 345.741 432.597 337.119 432.597 337.033L432.597 315.513ZM429.538 353.229C426.101 356.718 421.443 358.49 415.703 358.49 409.957 358.49 405.321 356.718 401.927 353.223 395.811 346.931 396.013 337.372 396.025 336.969L396.025 314.259C396.025 313.646 396.391 313.091 396.955 312.853L415.362 305.106C415.749 304.947 416.188 304.944 416.57 305.118L434.735 313.124C435.29 313.368 435.647 313.914 435.647 314.518L435.647 337.012C435.653 337.393 435.73 346.94 429.538 353.229ZM365.525 330.921 389.925 330.921 389.925 333.971 365.525 333.971C356.951 333.971 350.851 327.822 350.339 318.672 350.302 318.334 350.299 317.925 350.299 317.516 350.299 309.864 354.319 304.636 361.941 302.33 361.883 301.638 361.843 300.909 361.843 300.357 361.843 291.463 366.653 283.75 374.095 280.7 384.154 276.588 395.573 277.973 401.869 284.067 404.141 286.275 405.907 288.77 407.237 291.646 409.094 290.274 411.507 289.63 414.401 289.774 419.83 290.048 424.005 294.998 424.872 301.995 429.441 302.373 432.451 304.688 434.052 309.034L431.194 310.09C429.889 306.561 427.51 304.987 423.475 304.987 422.667 304.987 421.999 304.359 421.95 303.553 421.529 296.423 417.661 292.991 414.245 292.821 411.363 292.659 409.228 293.488 407.905 295.233 407.566 295.675 407.035 295.895 406.462 295.822 405.913 295.736 405.449 295.361 405.257 294.837 404.025 291.472 402.222 288.666 399.746 286.254 394.292 280.977 384.221 279.852 375.251 283.524 368.959 286.101 364.893 292.708 364.893 300.357 364.893 301.19 365 302.48 365.095 303.282 365.186 304.048 364.695 304.758 363.948 304.941 356.915 306.686 353.349 310.916 353.349 317.516 353.349 317.824 353.346 318.129 353.377 318.438 353.807 326.047 358.571 330.921 365.525 330.921Z" fill="#FFFFFF" fill-rule="evenodd" fill-opacity="1"/></g></g></g></g></g></svg>