<svg width="3117" height="1082" xmlns="http://www.w3.org/2000/svg" xmlns:xlink="http://www.w3.org/1999/xlink" xml:space="preserve" overflow="hidden"><defs><clipPath id="clip0"><rect x="107" y="225" width="140" height="138"/></clipPath><clipPath id="clip1"><rect x="107" y="225" width="140" height="138"/></clipPath><clipPath id="clip2"><rect x="107" y="225" width="140" height="138"/></clipPath></defs><g transform="translate(-105 -82)"><g><rect x="108.5" y="225.5" width="3107" height="876" stroke="#70AD47" stroke-width="4.58333" stroke-linecap="butt" stroke-linejoin="miter" stroke-miterlimit="8" stroke-opacity="1" fill="none"/><text fill="#000000" fill-opacity="1" font-family="Arial,Arial_MSFontService,sans-serif" font-style="normal" font-variant="normal" font-weight="400" font-stretch="normal" font-size="55" text-anchor="start" direction="ltr" writing-mode="lr-tb" unicode-bidi="normal" text-decoration="none" transform="matrix(1 0 0 1 289.633 311)">VPC</text><rect x="530.5" y="86.5001" width="789" height="1074" stroke="#00A0C8" stroke-width="4.58333" stroke-linecap="butt" stroke-linejoin="miter" stroke-miterlimit="8" stroke-dasharray="18.3333 13.75" stroke-opacity="1" fill="none"/><text fill="#000000" fill-opacity="1" font-family="Arial,Arial_MSFontService,sans-serif" font-style="normal" font-variant="normal" font-weight="400" font-stretch="normal" font-size="55" text-anchor="start" direction="ltr" writing-mode="lr-tb" unicode-bidi="normal" text-decoration="none" transform="matrix(1 0 0 1 702.477 172)">Availability Zone 1</text><g clip-path="url(#clip0)"><g clip-path="url(#clip1)"><g clip-path="url(#clip2)"><path d="M0 0 138 0 138 138 0 138Z" fill="#6CAE3E" fill-rule="evenodd" fill-opacity="1" transform="matrix(1 0 0 1 108 225)"/><path d="M100.026 96.5826 39.6301 96.5171C31.4674 96.5102 24.6813 90.1449 24.1914 82.0237 24.1638 81.5993 24.15 81.1646 24.15 80.7196 24.15 70.0315 31.3639 66.5401 35.6626 65.4085 36.4906 65.1911 37.0357 64.3976 36.9391 63.5455 36.8322 62.614 36.7735 61.6687 36.7735 60.7061 36.7735 52.2053 42.4626 43.0629 49.7317 39.8923 52.9885 38.4675 56.0003 37.9017 58.7293 37.9017 66.5021 37.9017 71.9911 42.4867 74.3854 44.9638 77.035 47.6996 79.0981 51.191 80.5229 55.3448 80.7299 55.9555 81.2647 56.3971 81.9029 56.4902 82.517 56.5834 83.1759 56.3143 83.5555 55.7899 85.584 52.9574 88.8926 51.6878 91.9734 52.5745 95.8478 53.6819 98.3801 57.7081 98.7389 63.1591 98.594 64.0871 99.2184 64.96 100.143 65.1256 104.266 65.857 113.85 68.8516 113.85 80.8679 113.85 95.1819 100.443 96.5378 100.026 96.5826ZM102.099 62.0102C101.357 55.4311 97.9799 50.7011 92.9222 49.259 89.3514 48.2378 85.5979 49.1452 82.762 51.5774 81.2578 48.0791 79.2775 45.0569 76.8659 42.5661 69.0793 34.5172 58.4188 32.3334 48.3482 36.7287 39.7819 40.4685 33.3235 50.777 33.3235 60.7061 33.3235 61.3064 33.3442 61.9033 33.3822 62.4932 28.7005 64.0768 20.7 68.5687 20.7 80.7196 20.7 81.244 20.7138 81.7511 20.7483 82.241 21.3486 92.1701 29.6458 99.9567 39.6267 99.9671L100.167 100.026C100.34 100.012 117.3 98.3904 117.3 80.8679 117.3 67.2818 106.96 63.1832 102.099 62.0102ZM58.6499 86.2327 75.8999 86.2327 75.8999 72.4327 58.6499 72.4327 58.6499 86.2327ZM62.0999 67.2577C62.0999 64.4045 64.4218 62.0827 67.2749 62.0827 70.1281 62.0827 72.4499 64.4045 72.4499 67.2577L72.4499 68.9827 62.0999 68.9827 62.0999 67.2577ZM77.6249 68.9827 75.8999 68.9827 75.8999 67.2577C75.8999 62.5036 72.0325 58.6327 67.2749 58.6327 62.5174 58.6327 58.6499 62.5036 58.6499 67.2577L58.6499 68.9827 56.9249 68.9827C55.9693 68.9827 55.1999 69.7555 55.1999 70.7077L55.1999 87.9576C55.1999 88.9098 55.9693 89.6826 56.9249 89.6826L77.6249 89.6826C78.5771 89.6826 79.3499 88.9098 79.3499 87.9576L79.3499 70.7077C79.3499 69.7555 78.5771 68.9827 77.6249 68.9827Z" fill="#232F3E" fill-rule="evenodd" fill-opacity="1" transform="matrix(1 0 0 1 108 225)"/></g></g></g><rect x="561.5" y="273.5" width="2525" height="767" stroke="#D86613" stroke-width="4.58333" stroke-linecap="butt" stroke-linejoin="miter" stroke-miterlimit="8" stroke-dasharray="18.3333 13.75" stroke-opacity="1" fill="none"/><g><g><g><path d="M561 273 698 273 698 410 561 410Z" fill="#D45B07" fill-rule="evenodd" fill-opacity="1"/><path d="M622.722 339.771C622.722 339.241 622.479 338.754 622.078 338.432L611.961 328.318 609.539 330.74 616.862 338.059 584.975 338.059 584.975 341.484 616.875 341.484 609.539 348.82 611.961 351.242 622.129 341.073C622.499 340.751 622.722 340.278 622.722 339.771ZM677.402 338.059 645.512 338.059 652.835 330.74 650.413 328.318 640.244 338.487C639.878 338.806 639.652 339.278 639.652 339.785 639.652 340.316 639.898 340.806 640.299 341.124L650.413 351.242 652.835 348.82 645.498 341.484 677.402 341.484 677.402 338.059ZM632.911 380.286 632.911 348.385 629.486 348.385 629.486 380.272 622.164 372.953 619.742 375.374 629.911 385.536C630.23 385.91 630.706 386.136 631.213 386.136 631.747 386.136 632.24 385.886 632.559 385.482L642.666 375.374 640.244 372.953 632.911 380.286ZM622.164 306.693 619.742 304.271 629.853 294.164C630.476 293.369 631.839 293.342 632.504 294.106L642.666 304.271 640.244 306.693 632.911 299.36 632.911 331.26 629.486 331.26 629.486 299.373 622.164 306.693Z" fill="#FFFFFF" fill-rule="evenodd" fill-opacity="1"/></g></g></g><text fill="#D86613" fill-opacity="1" font-family="Arial,Arial_MSFontService,sans-serif" font-style="normal" font-variant="normal" font-weight="400" font-stretch="normal" font-size="55" text-anchor="start" direction="ltr" writing-mode="lr-tb" unicode-bidi="normal" text-decoration="none" transform="matrix(1 0 0 1 735.757 361)">Auto Scaling group</text><rect x="601.5" y="491.5" width="637" height="497" stroke="#D86613" stroke-width="4.58333" stroke-linecap="butt" stroke-linejoin="miter" stroke-miterlimit="8" stroke-opacity="1" fill="none"/><text fill="#D86613" fill-opacity="1" font-family="Arial,Arial_MSFontService,sans-serif" font-style="normal" font-variant="normal" font-weight="400" font-stretch="normal" font-size="55" text-anchor="start" direction="ltr" writing-mode="lr-tb" unicode-bidi="normal" text-decoration="none" transform="matrix(1 0 0 1 782.47 577)">EC2 instance</text><g><g><g><path d="M0 0 137 0 137 137 0 137Z" fill="#D45B07" fill-rule="evenodd" fill-opacity="1" transform="matrix(1 0 0 1.0073 601 491)"/><path d="M34.25 99.3251 99.3251 99.3251 99.3251 34.25 34.25 34.25 34.25 99.3251ZM113.025 41.1 113.025 37.675 102.75 37.675 102.75 32.5375C102.75 31.5922 101.983 30.825 101.038 30.825L95.9001 30.825 95.9001 20.55 92.4751 20.55 92.4751 30.825 82.2001 30.825 82.2001 20.55 78.7751 20.55 78.7751 30.825 68.5001 30.825 68.5001 20.55 65.0751 20.55 65.0751 30.825 54.8001 30.825 54.8001 20.55 51.3751 20.55 51.3751 30.825 41.1 30.825 41.1 20.55 37.675 20.55 37.675 30.825 32.5375 30.825C31.5922 30.825 30.825 31.5922 30.825 32.5375L30.825 37.675 20.55 37.675 20.55 41.1 30.825 41.1 30.825 51.3751 20.55 51.3751 20.55 54.8001 30.825 54.8001 30.825 65.0751 20.55 65.0751 20.55 68.5001 30.825 68.5001 30.825 78.7751 20.55 78.7751 20.55 82.2001 30.825 82.2001 30.825 92.4751 20.55 92.4751 20.55 95.9001 30.825 95.9001 30.825 101.038C30.825 101.983 31.5922 102.75 32.5375 102.75L37.675 102.75 37.675 113.025 41.1 113.025 41.1 102.75 51.3751 102.75 51.3751 113.025 54.8001 113.025 54.8001 102.75 65.0751 102.75 65.0751 113.025 68.5001 113.025 68.5001 102.75 78.7751 102.75 78.7751 113.025 82.2001 113.025 82.2001 102.75 92.4751 102.75 92.4751 113.025 95.9001 113.025 95.9001 102.75 101.038 102.75C101.983 102.75 102.75 101.983 102.75 101.038L102.75 95.9001 113.025 95.9001 113.025 92.4751 102.75 92.4751 102.75 82.2001 113.025 82.2001 113.025 78.7751 102.75 78.7751 102.75 68.5001 113.025 68.5001 113.025 65.0751 102.75 65.0751 102.75 54.8001 113.025 54.8001 113.025 51.3751 102.75 51.3751 102.75 41.1 113.025 41.1Z" fill="#FFFFFF" fill-rule="evenodd" fill-opacity="1" transform="matrix(1 0 0 1.0073 601 491)"/></g></g></g><rect x="1435.5" y="86.5001" width="790" height="1074" stroke="#00A0C8" stroke-width="4.58333" stroke-linecap="butt" stroke-linejoin="miter" stroke-miterlimit="8" stroke-dasharray="18.3333 13.75" stroke-opacity="1" fill="none"/><text fill="#000000" fill-opacity="1" font-family="Arial,Arial_MSFontService,sans-serif" font-style="normal" font-variant="normal" font-weight="400" font-stretch="normal" font-size="55" text-anchor="start" direction="ltr" writing-mode="lr-tb" unicode-bidi="normal" text-decoration="none" transform="matrix(1 0 0 1 1608.19 172)">Availability Zone 2</text><rect x="1507.5" y="491.5" width="637" height="497" stroke="#D86613" stroke-width="4.58333" stroke-linecap="butt" stroke-linejoin="miter" stroke-miterlimit="8" stroke-opacity="1" fill="none"/><text fill="#D86613" fill-opacity="1" font-family="Arial,Arial_MSFontService,sans-serif" font-style="normal" font-variant="normal" font-weight="400" font-stretch="normal" font-size="55" text-anchor="start" direction="ltr" writing-mode="lr-tb" unicode-bidi="normal" text-decoration="none" transform="matrix(1 0 0 1 1688.18 577)">EC2 instance</text><g><g><g><path d="M0 0 137 0 137 137 0 137Z" fill="#D45B07" fill-rule="evenodd" fill-opacity="1" transform="matrix(1 0 0 1.0073 1507 491)"/><path d="M34.25 99.3251 99.3251 99.3251 99.3251 34.25 34.25 34.25 34.25 99.3251ZM113.025 41.1 113.025 37.675 102.75 37.675 102.75 32.5375C102.75 31.5922 101.983 30.825 101.038 30.825L95.9001 30.825 95.9001 20.55 92.4751 20.55 92.4751 30.825 82.2001 30.825 82.2001 20.55 78.7751 20.55 78.7751 30.825 68.5001 30.825 68.5001 20.55 65.0751 20.55 65.0751 30.825 54.8001 30.825 54.8001 20.55 51.3751 20.55 51.3751 30.825 41.1 30.825 41.1 20.55 37.675 20.55 37.675 30.825 32.5375 30.825C31.5922 30.825 30.825 31.5922 30.825 32.5375L30.825 37.675 20.55 37.675 20.55 41.1 30.825 41.1 30.825 51.3751 20.55 51.3751 20.55 54.8001 30.825 54.8001 30.825 65.0751 20.55 65.0751 20.55 68.5001 30.825 68.5001 30.825 78.7751 20.55 78.7751 20.55 82.2001 30.825 82.2001 30.825 92.4751 20.55 92.4751 20.55 95.9001 30.825 95.9001 30.825 101.038C30.825 101.983 31.5922 102.75 32.5375 102.75L37.675 102.75 37.675 113.025 41.1 113.025 41.1 102.75 51.3751 102.75 51.3751 113.025 54.8001 113.025 54.8001 102.75 65.0751 102.75 65.0751 113.025 68.5001 113.025 68.5001 102.75 78.7751 102.75 78.7751 113.025 82.2001 113.025 82.2001 102.75 92.4751 102.75 92.4751 113.025 95.9001 113.025 95.9001 102.75 101.038 102.75C101.983 102.75 102.75 101.983 102.75 101.038L102.75 95.9001 113.025 95.9001 113.025 92.4751 102.75 92.4751 102.75 82.2001 113.025 82.2001 113.025 78.7751 102.75 78.7751 102.75 68.5001 113.025 68.5001 113.025 65.0751 102.75 65.0751 102.75 54.8001 113.025 54.8001 113.025 51.3751 102.75 51.3751 102.75 41.1 113.025 41.1Z" fill="#FFFFFF" fill-rule="evenodd" fill-opacity="1" transform="matrix(1 0 0 1.0073 1507 491)"/></g></g></g><rect x="2341.5" y="86.5001" width="789" height="1074" stroke="#00A0C8" stroke-width="4.58333" stroke-linecap="butt" stroke-linejoin="miter" stroke-miterlimit="8" stroke-dasharray="18.3333 13.75" stroke-opacity="1" fill="none"/><text fill="#000000" fill-opacity="1" font-family="Arial,Arial_MSFontService,sans-serif" font-style="normal" font-variant="normal" font-weight="400" font-stretch="normal" font-size="55" text-anchor="start" direction="ltr" writing-mode="lr-tb" unicode-bidi="normal" text-decoration="none" transform="matrix(1 0 0 1 2513.9 172)">Availability Zone 3</text><rect x="2412.5" y="491.5" width="637" height="497" stroke="#D86613" stroke-width="4.58333" stroke-linecap="butt" stroke-linejoin="miter" stroke-miterlimit="8" stroke-opacity="1" fill="none"/><text fill="#D86613" fill-opacity="1" font-family="Arial,Arial_MSFontService,sans-serif" font-style="normal" font-variant="normal" font-weight="400" font-stretch="normal" font-size="55" text-anchor="start" direction="ltr" writing-mode="lr-tb" unicode-bidi="normal" text-decoration="none" transform="matrix(1 0 0 1 2593.89 577)">EC2 instance</text><g><g><g><path d="M0 0 138 0 138 138 0 138Z" fill="#D45B07" fill-rule="evenodd" fill-opacity="1" transform="matrix(1 0 0 1 2412 491)"/><path d="M34.5 100.05 100.05 100.05 100.05 34.5 34.5 34.5 34.5 100.05ZM113.85 41.4 113.85 37.95 103.5 37.95 103.5 32.775C103.5 31.8228 102.727 31.05 101.775 31.05L96.5999 31.05 96.5999 20.7 93.1499 20.7 93.1499 31.05 82.7999 31.05 82.7999 20.7 79.3499 20.7 79.3499 31.05 68.9999 31.05 68.9999 20.7 65.5499 20.7 65.5499 31.05 55.1999 31.05 55.1999 20.7 51.7499 20.7 51.7499 31.05 41.4 31.05 41.4 20.7 37.95 20.7 37.95 31.05 32.775 31.05C31.8228 31.05 31.05 31.8228 31.05 32.775L31.05 37.95 20.7 37.95 20.7 41.4 31.05 41.4 31.05 51.7499 20.7 51.7499 20.7 55.1999 31.05 55.1999 31.05 65.5499 20.7 65.5499 20.7 68.9999 31.05 68.9999 31.05 79.3499 20.7 79.3499 20.7 82.7999 31.05 82.7999 31.05 93.1499 20.7 93.1499 20.7 96.5999 31.05 96.5999 31.05 101.775C31.05 102.727 31.8228 103.5 32.775 103.5L37.95 103.5 37.95 113.85 41.4 113.85 41.4 103.5 51.7499 103.5 51.7499 113.85 55.1999 113.85 55.1999 103.5 65.5499 103.5 65.5499 113.85 68.9999 113.85 68.9999 103.5 79.3499 103.5 79.3499 113.85 82.7999 113.85 82.7999 103.5 93.1499 103.5 93.1499 113.85 96.5999 113.85 96.5999 103.5 101.775 103.5C102.727 103.5 103.5 102.727 103.5 101.775L103.5 96.5999 113.85 96.5999 113.85 93.1499 103.5 93.1499 103.5 82.7999 113.85 82.7999 113.85 79.3499 103.5 79.3499 103.5 68.9999 113.85 68.9999 113.85 65.5499 103.5 65.5499 103.5 55.1999 113.85 55.1999 113.85 51.7499 103.5 51.7499 103.5 41.4 113.85 41.4Z" fill="#FFFFFF" fill-rule="evenodd" fill-opacity="1" transform="matrix(1 0 0 1 2412 491)"/></g></g></g><rect x="632" y="660" width="575" height="59.0001" fill="#548235" fill-opacity="1"/><text fill="#E7E6E6" fill-opacity="1" font-family="Arial,Arial_MSFontService,sans-serif" font-style="normal" font-variant="normal" font-weight="400" font-stretch="normal" font-size="37" text-anchor="start" direction="ltr" writing-mode="lr-tb" unicode-bidi="normal" text-decoration="none" transform="matrix(1 0 0 1 791.465 703)">Health Daemon</text><rect x="632" y="737" width="575" height="59.0001" fill="#2F5597" fill-opacity="1"/><text fill="#E7E6E6" fill-opacity="1" font-family="Arial,Arial_MSFontService,sans-serif" font-style="normal" font-variant="normal" font-weight="400" font-stretch="normal" font-size="37" text-anchor="start" direction="ltr" writing-mode="lr-tb" unicode-bidi="normal" text-decoration="none" transform="matrix(1 0 0 1 773.234 780)">Service Container</text><rect x="1531" y="662" width="576" height="58.0001" fill="#548235" fill-opacity="1"/><text fill="#E7E6E6" fill-opacity="1" font-family="Arial,Arial_MSFontService,sans-serif" font-style="normal" font-variant="normal" font-weight="400" font-stretch="normal" font-size="37" text-anchor="start" direction="ltr" writing-mode="lr-tb" unicode-bidi="normal" text-decoration="none" transform="matrix(1 0 0 1 1691.15 705)">Health Daemon</text><rect x="2442" y="660" width="576" height="59.0001" fill="#548235" fill-opacity="1"/><text fill="#E7E6E6" fill-opacity="1" font-family="Arial,Arial_MSFontService,sans-serif" font-style="normal" font-variant="normal" font-weight="400" font-stretch="normal" font-size="37" text-anchor="start" direction="ltr" writing-mode="lr-tb" unicode-bidi="normal" text-decoration="none" transform="matrix(1 0 0 1 2602.09 703)">Health Daemon</text><rect x="628" y="891" width="576" height="58.0001" fill="#404040" fill-opacity="1"/><text fill="#E7E6E6" fill-opacity="1" font-family="Arial,Arial_MSFontService,sans-serif" font-style="normal" font-variant="normal" font-weight="400" font-stretch="normal" font-size="37" text-anchor="start" direction="ltr" writing-mode="lr-tb" unicode-bidi="normal" text-decoration="none" transform="matrix(1 0 0 1 806.325 934)">Empty Space</text><rect x="1531" y="889" width="576" height="58.0001" fill="#404040" fill-opacity="1"/><text fill="#E7E6E6" fill-opacity="1" font-family="Arial,Arial_MSFontService,sans-serif" font-style="normal" font-variant="normal" font-weight="400" font-stretch="normal" font-size="37" text-anchor="start" direction="ltr" writing-mode="lr-tb" unicode-bidi="normal" text-decoration="none" transform="matrix(1 0 0 1 1709.48 932)">Empty Space</text><rect x="2441" y="891" width="575" height="59.0001" fill="#404040" fill-opacity="1"/><text fill="#E7E6E6" fill-opacity="1" font-family="Arial,Arial_MSFontService,sans-serif" font-style="normal" font-variant="normal" font-weight="400" font-stretch="normal" font-size="37" text-anchor="start" direction="ltr" writing-mode="lr-tb" unicode-bidi="normal" text-decoration="none" transform="matrix(1 0 0 1 2618.91 935)">Empty Space</text><rect x="1532" y="739" width="575" height="58.9998" fill="#2F5597" fill-opacity="1"/><text fill="#E7E6E6" fill-opacity="1" font-family="Arial,Arial_MSFontService,sans-serif" font-style="normal" font-variant="normal" font-weight="400" font-stretch="normal" font-size="37" text-anchor="start" direction="ltr" writing-mode="lr-tb" unicode-bidi="normal" text-decoration="none" transform="matrix(1 0 0 1 1672.92 782)">Service Container</text><rect x="2441" y="739" width="575" height="58.9998" fill="#2F5597" fill-opacity="1"/><text fill="#E7E6E6" fill-opacity="1" font-family="Arial,Arial_MSFontService,sans-serif" font-style="normal" font-variant="normal" font-weight="400" font-stretch="normal" font-size="37" text-anchor="start" direction="ltr" writing-mode="lr-tb" unicode-bidi="normal" text-decoration="none" transform="matrix(1 0 0 1 2582.14 783)">Service Container</text><rect x="632" y="816" width="575" height="58.0001" fill="#2F5597" fill-opacity="1"/><text fill="#E7E6E6" fill-opacity="1" font-family="Arial,Arial_MSFontService,sans-serif" font-style="normal" font-variant="normal" font-weight="400" font-stretch="normal" font-size="37" text-anchor="start" direction="ltr" writing-mode="lr-tb" unicode-bidi="normal" text-decoration="none" transform="matrix(1 0 0 1 773.234 859)">Service Container</text><rect x="1532" y="818" width="575" height="58.9998" fill="#2F5597" fill-opacity="1"/><text fill="#E7E6E6" fill-opacity="1" font-family="Arial,Arial_MSFontService,sans-serif" font-style="normal" font-variant="normal" font-weight="400" font-stretch="normal" font-size="37" text-anchor="start" direction="ltr" writing-mode="lr-tb" unicode-bidi="normal" text-decoration="none" transform="matrix(1 0 0 1 1672.92 861)">Service Container</text><rect x="2441" y="818" width="575" height="58.9998" fill="#2F5597" fill-opacity="1"/><text fill="#E7E6E6" fill-opacity="1" font-family="Arial,Arial_MSFontService,sans-serif" font-style="normal" font-variant="normal" font-weight="400" font-stretch="normal" font-size="37" text-anchor="start" direction="ltr" writing-mode="lr-tb" unicode-bidi="normal" text-decoration="none" transform="matrix(1 0 0 1 2582.14 861)">Service Container</text></g></g></svg>