<svg width="3012" height="1550" xmlns="http://www.w3.org/2000/svg" xmlns:xlink="http://www.w3.org/1999/xlink" xml:space="preserve" overflow="hidden"><g transform="translate(-132 -77)"><g><g><g><g><path d="M516 425 791 425 791 700 516 700Z" fill="#E7157B" fill-rule="evenodd" fill-opacity="1"/><path d="M698.187 562.373 715.375 562.373 715.375 555.488 698.187 555.488 698.187 562.373ZM612.25 603.687 629.437 603.687 629.437 596.801 612.25 596.801 612.25 603.687ZM577.875 603.687 601.937 603.687 601.937 596.801 577.875 596.801 577.875 603.687ZM577.875 583.03 619.125 583.03 619.125 576.144 577.875 576.144 577.875 583.03ZM577.875 541.717 608.812 541.717 608.812 534.831 577.875 534.831 577.875 541.717ZM577.875 562.373 691.312 562.373 691.312 555.488 577.875 555.488 577.875 562.373ZM643.187 638.114 564.125 638.114 564.125 521.06 643.187 521.06 643.187 548.602 650.062 548.602 650.062 517.617C650.062 515.717 648.522 514.174 646.625 514.174L560.687 514.174C558.786 514.174 557.25 515.717 557.25 517.617L557.25 641.557C557.25 643.457 558.786 645 560.687 645L646.625 645C648.522 645 650.062 643.457 650.062 641.557L650.062 572.702 643.187 572.702 643.187 638.114ZM749.75 552.045C749.75 574.292 729.72 582.032 719.129 583.016L663.812 583.03 663.812 576.144 718.812 576.144C719.483 576.065 742.875 573.542 742.875 552.045 742.875 532.47 725.216 528.496 721.679 527.898 719.916 527.598 718.675 526 718.826 524.217 718.83 524.152 718.836 524.09 718.843 524.028 718.654 512.966 711.872 509.51 708.933 508.532 703.447 506.707 697.331 508.453 694.097 512.791 693.344 513.81 692.1 514.33 690.835 514.137 689.583 513.947 688.535 513.087 688.109 511.889 685.974 505.905 682.877 502.028 678.57 497.715 667.797 487.008 653.173 484.05 639.492 489.807 632.315 492.833 626.041 499.691 622.294 508.625L615.956 505.953C620.397 495.381 628.007 487.18 636.828 483.462 653.173 476.58 670.588 480.088 683.42 492.836 687.098 496.524 690.144 500.114 692.516 504.762 697.648 500.961 704.571 499.825 711.102 501.997 719.462 504.779 724.749 512.04 725.602 521.694 737.31 524.648 749.75 534.008 749.75 552.045Z" fill="#FFFFFF" fill-rule="evenodd" fill-opacity="1"/></g></g></g><text fill="#000000" fill-opacity="1" font-family="Arial,Arial_MSFontService,sans-serif" font-style="normal" font-variant="normal" font-weight="400" font-stretch="normal" font-size="55" text-anchor="start" direction="ltr" writing-mode="lr-tb" unicode-bidi="normal" text-decoration="none" transform="matrix(1 0 0 1 393.481 770)">AWS CloudFormation</text><path d="M0-4.01042 378.053-4.01042 378.053 1914 370.032 1914 370.032 0 374.043 4.01042 0 4.01042ZM387.793 1909.41 374.043 1936.91 360.293 1909.41Z" fill="#000000" fill-rule="nonzero" fill-opacity="1" transform="matrix(-1.83697e-16 -1 -1 1.83697e-16 2727.91 937.043)"/><path d="M0-4.01042 378.053-4.01042 378.053 1229.51 370.032 1229.51 370.032 0 374.043 4.01042 0 4.01042ZM387.793 1224.93 374.043 1252.43 360.293 1224.93Z" fill="#000000" fill-rule="nonzero" fill-opacity="1" transform="matrix(-1.83697e-16 -1 -1 1.83697e-16 2043.43 937.043)"/><path d="M0-4.01042 378.053-4.01042 378.053 545.021 370.032 545.021 370.032 0 374.043 4.01042 0 4.01042ZM387.793 540.438 374.043 567.938 360.293 540.438Z" fill="#000000" fill-rule="nonzero" fill-opacity="1" transform="matrix(-1.83697e-16 -1 -1 1.83697e-16 1358.94 937.043)"/><text fill="#000000" fill-opacity="1" font-family="Arial,Arial_MSFontService,sans-serif" font-style="normal" font-variant="normal" font-weight="400" font-stretch="normal" font-size="55" text-anchor="start" direction="ltr" writing-mode="lr-tb" unicode-bidi="normal" text-decoration="none" transform="matrix(1 0 0 1 952.026 462)">Each EC2 instance sends a health signals to the AWS::EC2::</text><text fill="#000000" fill-opacity="1" font-family="Arial,Arial_MSFontService,sans-serif" font-style="normal" font-variant="normal" font-weight="400" font-stretch="normal" font-size="55" text-anchor="start" direction="ltr" writing-mode="lr-tb" unicode-bidi="normal" text-decoration="none" transform="matrix(1 0 0 1 2433.11 462)">AutoScalingGroup</text><text fill="#000000" fill-opacity="1" font-family="Arial,Arial_MSFontService,sans-serif" font-style="normal" font-variant="normal" font-weight="400" font-stretch="normal" font-size="55" text-anchor="start" direction="ltr" writing-mode="lr-tb" unicode-bidi="normal" text-decoration="none" transform="matrix(1 0 0 1 952.026 528)">resource whenever it sees the health daemon successfully start up</text><path d="M0-4.01042 756.806-4.01042 756.806 169.638 748.785 169.638 748.785 0 752.796 4.01042 0 4.01042ZM766.546 165.055 752.796 192.555 739.046 165.055Z" fill="#000000" fill-rule="nonzero" fill-opacity="1" transform="matrix(1.83697e-16 1 1 -1.83697e-16 658 800)"/><rect x="850.5" y="855.5" width="2287" height="768" stroke="#D86613" stroke-width="4.58333" stroke-linecap="butt" stroke-linejoin="miter" stroke-miterlimit="8" stroke-dasharray="18.3333 13.75" stroke-opacity="1" fill="none"/><g><g><g><path d="M0 0 138 0 138 138 0 138Z" fill="#D45B07" fill-rule="evenodd" fill-opacity="1" transform="matrix(1 0 0 1 850 1484)"/><path d="M62.1724 67.2587C62.1724 66.724 61.9274 66.2341 61.5238 65.9098L51.3325 55.7219 48.8933 58.1611 56.2694 65.5337 24.15 65.5337 24.15 68.9837 56.2832 68.9837 48.8933 76.3736 51.3325 78.8127 61.5755 68.5697C61.9481 68.2454 62.1724 67.7693 62.1724 67.2587ZM117.252 65.5337 85.1286 65.5337 92.5047 58.1611 90.0656 55.7219 79.8226 65.965C79.4534 66.2858 79.2257 66.7619 79.2257 67.2725 79.2257 67.8073 79.4741 68.3006 79.8778 68.6215L90.0656 78.8127 92.5047 76.3736 85.1149 68.9837 117.252 68.9837 117.252 65.5337ZM72.4361 108.069 72.4361 75.9354 68.9861 75.9354 68.9861 108.055 61.61 100.682 59.1709 103.121 69.4139 113.358C69.7348 113.734 70.2143 113.961 70.7249 113.961 71.2631 113.961 71.7599 113.709 72.0808 113.302L82.2617 103.121 79.8226 100.682 72.4361 108.069ZM61.61 33.9385 59.1709 31.4993 69.3553 21.3184C69.9832 20.518 71.3563 20.4904 72.0256 21.2597L82.2617 31.4993 79.8226 33.9385 72.4361 26.552 72.4361 58.6855 68.9861 58.6855 68.9861 26.5658 61.61 33.9385Z" fill="#FFFFFF" fill-rule="evenodd" fill-opacity="1" transform="matrix(1 0 0 1 850 1484)"/></g></g></g><text fill="#D86613" fill-opacity="1" font-family="Arial,Arial_MSFontService,sans-serif" font-style="normal" font-variant="normal" font-weight="400" font-stretch="normal" font-size="55" text-anchor="start" direction="ltr" writing-mode="lr-tb" unicode-bidi="normal" text-decoration="none" transform="matrix(1 0 0 1 1025.08 1572)">Auto Scaling group</text><rect x="1041.5" y="937.5" width="637" height="497" stroke="#D86613" stroke-width="4.58333" stroke-linecap="butt" stroke-linejoin="miter" stroke-miterlimit="8" stroke-opacity="1" fill="none"/><text fill="#D86613" fill-opacity="1" font-family="Arial,Arial_MSFontService,sans-serif" font-style="normal" font-variant="normal" font-weight="400" font-stretch="normal" font-size="55" text-anchor="start" direction="ltr" writing-mode="lr-tb" unicode-bidi="normal" text-decoration="none" transform="matrix(1 0 0 1 1222.11 1023)">EC2 instance</text><g><g><g><path d="M0 0 137 0 137 137 0 137Z" fill="#D45B07" fill-rule="evenodd" fill-opacity="1" transform="matrix(1 0 0 1 1041 937)"/><path d="M34.25 99.3249 99.3249 99.3249 99.3249 34.25 34.25 34.25 34.25 99.3249ZM113.025 41.0999 113.025 37.6749 102.75 37.6749 102.75 32.5375C102.75 31.5922 101.983 30.825 101.037 30.825L95.8999 30.825 95.8999 20.55 92.4749 20.55 92.4749 30.825 82.1999 30.825 82.1999 20.55 78.7749 20.55 78.7749 30.825 68.4999 30.825 68.4999 20.55 65.0749 20.55 65.0749 30.825 54.7999 30.825 54.7999 20.55 51.3749 20.55 51.3749 30.825 41.0999 30.825 41.0999 20.55 37.6749 20.55 37.6749 30.825 32.5375 30.825C31.5922 30.825 30.825 31.5922 30.825 32.5375L30.825 37.6749 20.55 37.6749 20.55 41.0999 30.825 41.0999 30.825 51.3749 20.55 51.3749 20.55 54.7999 30.825 54.7999 30.825 65.0749 20.55 65.0749 20.55 68.4999 30.825 68.4999 30.825 78.7749 20.55 78.7749 20.55 82.1999 30.825 82.1999 30.825 92.4749 20.55 92.4749 20.55 95.8999 30.825 95.8999 30.825 101.037C30.825 101.983 31.5922 102.75 32.5375 102.75L37.6749 102.75 37.6749 113.025 41.0999 113.025 41.0999 102.75 51.3749 102.75 51.3749 113.025 54.7999 113.025 54.7999 102.75 65.0749 102.75 65.0749 113.025 68.4999 113.025 68.4999 102.75 78.7749 102.75 78.7749 113.025 82.1999 113.025 82.1999 102.75 92.4749 102.75 92.4749 113.025 95.8999 113.025 95.8999 102.75 101.037 102.75C101.983 102.75 102.75 101.983 102.75 101.037L102.75 95.8999 113.025 95.8999 113.025 92.4749 102.75 92.4749 102.75 82.1999 113.025 82.1999 113.025 78.7749 102.75 78.7749 102.75 68.4999 113.025 68.4999 113.025 65.0749 102.75 65.0749 102.75 54.7999 113.025 54.7999 113.025 51.3749 102.75 51.3749 102.75 41.0999 113.025 41.0999Z" fill="#FFFFFF" fill-rule="evenodd" fill-opacity="1" transform="matrix(1 0 0 1 1041 937)"/></g></g></g><rect x="1725.5" y="937.5" width="637" height="497" stroke="#D86613" stroke-width="4.58333" stroke-linecap="butt" stroke-linejoin="miter" stroke-miterlimit="8" stroke-opacity="1" fill="none"/><text fill="#D86613" fill-opacity="1" font-family="Arial,Arial_MSFontService,sans-serif" font-style="normal" font-variant="normal" font-weight="400" font-stretch="normal" font-size="55" text-anchor="start" direction="ltr" writing-mode="lr-tb" unicode-bidi="normal" text-decoration="none" transform="matrix(1 0 0 1 1906.59 1023)">EC2 instance</text><g><g><g><path d="M0 0 137 0 137 137 0 137Z" fill="#D45B07" fill-rule="evenodd" fill-opacity="1" transform="matrix(1.0073 0 0 1 1725 937)"/><path d="M34.25 99.3249 99.3249 99.3249 99.3249 34.25 34.25 34.25 34.25 99.3249ZM113.025 41.0999 113.025 37.6749 102.75 37.6749 102.75 32.5375C102.75 31.5922 101.983 30.825 101.037 30.825L95.8999 30.825 95.8999 20.55 92.4749 20.55 92.4749 30.825 82.1999 30.825 82.1999 20.55 78.7749 20.55 78.7749 30.825 68.4999 30.825 68.4999 20.55 65.0749 20.55 65.0749 30.825 54.7999 30.825 54.7999 20.55 51.3749 20.55 51.3749 30.825 41.0999 30.825 41.0999 20.55 37.6749 20.55 37.6749 30.825 32.5375 30.825C31.5922 30.825 30.825 31.5922 30.825 32.5375L30.825 37.6749 20.55 37.6749 20.55 41.0999 30.825 41.0999 30.825 51.3749 20.55 51.3749 20.55 54.7999 30.825 54.7999 30.825 65.0749 20.55 65.0749 20.55 68.4999 30.825 68.4999 30.825 78.7749 20.55 78.7749 20.55 82.1999 30.825 82.1999 30.825 92.4749 20.55 92.4749 20.55 95.8999 30.825 95.8999 30.825 101.037C30.825 101.983 31.5922 102.75 32.5375 102.75L37.6749 102.75 37.6749 113.025 41.0999 113.025 41.0999 102.75 51.3749 102.75 51.3749 113.025 54.7999 113.025 54.7999 102.75 65.0749 102.75 65.0749 113.025 68.4999 113.025 68.4999 102.75 78.7749 102.75 78.7749 113.025 82.1999 113.025 82.1999 102.75 92.4749 102.75 92.4749 113.025 95.8999 113.025 95.8999 102.75 101.037 102.75C101.983 102.75 102.75 101.983 102.75 101.037L102.75 95.8999 113.025 95.8999 113.025 92.4749 102.75 92.4749 102.75 82.1999 113.025 82.1999 113.025 78.7749 102.75 78.7749 102.75 68.4999 113.025 68.4999 113.025 65.0749 102.75 65.0749 102.75 54.7999 113.025 54.7999 113.025 51.3749 102.75 51.3749 102.75 41.0999 113.025 41.0999Z" fill="#FFFFFF" fill-rule="evenodd" fill-opacity="1" transform="matrix(1.0073 0 0 1 1725 937)"/></g></g></g><rect x="2410.5" y="937.5" width="637" height="497" stroke="#D86613" stroke-width="4.58333" stroke-linecap="butt" stroke-linejoin="miter" stroke-miterlimit="8" stroke-opacity="1" fill="none"/><text fill="#D86613" fill-opacity="1" font-family="Arial,Arial_MSFontService,sans-serif" font-style="normal" font-variant="normal" font-weight="400" font-stretch="normal" font-size="55" text-anchor="start" direction="ltr" writing-mode="lr-tb" unicode-bidi="normal" text-decoration="none" transform="matrix(1 0 0 1 2591.08 1023)">EC2 instance</text><g><g><g><path d="M2410 937 2547 937 2547 1074 2410 1074Z" fill="#D45B07" fill-rule="evenodd" fill-opacity="1"/><path d="M2444.25 1036.32 2509.32 1036.32 2509.32 971.25 2444.25 971.25 2444.25 1036.32ZM2523.02 978.1 2523.02 974.675 2512.75 974.675 2512.75 969.538C2512.75 968.592 2511.98 967.825 2511.04 967.825L2505.9 967.825 2505.9 957.55 2502.47 957.55 2502.47 967.825 2492.2 967.825 2492.2 957.55 2488.77 957.55 2488.77 967.825 2478.5 967.825 2478.5 957.55 2475.07 957.55 2475.07 967.825 2464.8 967.825 2464.8 957.55 2461.38 957.55 2461.38 967.825 2451.1 967.825 2451.1 957.55 2447.68 957.55 2447.68 967.825 2442.54 967.825C2441.59 967.825 2440.82 968.592 2440.82 969.538L2440.82 974.675 2430.55 974.675 2430.55 978.1 2440.82 978.1 2440.82 988.375 2430.55 988.375 2430.55 991.8 2440.82 991.8 2440.82 1002.07 2430.55 1002.07 2430.55 1005.5 2440.82 1005.5 2440.82 1015.77 2430.55 1015.77 2430.55 1019.2 2440.82 1019.2 2440.82 1029.47 2430.55 1029.47 2430.55 1032.9 2440.82 1032.9 2440.82 1038.04C2440.82 1038.98 2441.59 1039.75 2442.54 1039.75L2447.68 1039.75 2447.68 1050.02 2451.1 1050.02 2451.1 1039.75 2461.38 1039.75 2461.38 1050.02 2464.8 1050.02 2464.8 1039.75 2475.07 1039.75 2475.07 1050.02 2478.5 1050.02 2478.5 1039.75 2488.77 1039.75 2488.77 1050.02 2492.2 1050.02 2492.2 1039.75 2502.47 1039.75 2502.47 1050.02 2505.9 1050.02 2505.9 1039.75 2511.04 1039.75C2511.98 1039.75 2512.75 1038.98 2512.75 1038.04L2512.75 1032.9 2523.02 1032.9 2523.02 1029.47 2512.75 1029.47 2512.75 1019.2 2523.02 1019.2 2523.02 1015.77 2512.75 1015.77 2512.75 1005.5 2523.02 1005.5 2523.02 1002.07 2512.75 1002.07 2512.75 991.8 2523.02 991.8 2523.02 988.375 2512.75 988.375 2512.75 978.1 2523.02 978.1Z" fill="#FFFFFF" fill-rule="evenodd" fill-opacity="1"/></g></g></g><rect x="1071" y="1106" width="576" height="58.0001" fill="#548235" fill-opacity="1"/><text fill="#E7E6E6" fill-opacity="1" font-family="Arial,Arial_MSFontService,sans-serif" font-style="normal" font-variant="normal" font-weight="400" font-stretch="normal" font-size="37" text-anchor="start" direction="ltr" writing-mode="lr-tb" unicode-bidi="normal" text-decoration="none" transform="matrix(1 0 0 1 1231.1 1149)">Health Daemon</text><rect x="1072" y="1183" width="575" height="58.0001" fill="#2F5597" fill-opacity="1"/><text fill="#E7E6E6" fill-opacity="1" font-family="Arial,Arial_MSFontService,sans-serif" font-style="normal" font-variant="normal" font-weight="400" font-stretch="normal" font-size="37" text-anchor="start" direction="ltr" writing-mode="lr-tb" unicode-bidi="normal" text-decoration="none" transform="matrix(1 0 0 1 1212.87 1226)">Service Container</text><rect x="1750" y="1107" width="575" height="59.0001" fill="#548235" fill-opacity="1"/><text fill="#E7E6E6" fill-opacity="1" font-family="Arial,Arial_MSFontService,sans-serif" font-style="normal" font-variant="normal" font-weight="400" font-stretch="normal" font-size="37" text-anchor="start" direction="ltr" writing-mode="lr-tb" unicode-bidi="normal" text-decoration="none" transform="matrix(1 0 0 1 1909.56 1150)">Health Daemon</text><rect x="2439" y="1106" width="576" height="58.0001" fill="#548235" fill-opacity="1"/><text fill="#E7E6E6" fill-opacity="1" font-family="Arial,Arial_MSFontService,sans-serif" font-style="normal" font-variant="normal" font-weight="400" font-stretch="normal" font-size="37" text-anchor="start" direction="ltr" writing-mode="lr-tb" unicode-bidi="normal" text-decoration="none" transform="matrix(1 0 0 1 2599.28 1149)">Health Daemon</text><rect x="1068" y="1336" width="576" height="58.9998" fill="#404040" fill-opacity="1"/><text fill="#E7E6E6" fill-opacity="1" font-family="Arial,Arial_MSFontService,sans-serif" font-style="normal" font-variant="normal" font-weight="400" font-stretch="normal" font-size="37" text-anchor="start" direction="ltr" writing-mode="lr-tb" unicode-bidi="normal" text-decoration="none" transform="matrix(1 0 0 1 1245.96 1380)">Empty Space</text><rect x="1750" y="1334" width="575" height="58.9998" fill="#404040" fill-opacity="1"/><text fill="#E7E6E6" fill-opacity="1" font-family="Arial,Arial_MSFontService,sans-serif" font-style="normal" font-variant="normal" font-weight="400" font-stretch="normal" font-size="37" text-anchor="start" direction="ltr" writing-mode="lr-tb" unicode-bidi="normal" text-decoration="none" transform="matrix(1 0 0 1 1927.9 1378)">Empty Space</text><rect x="2438" y="1337" width="576" height="59.0001" fill="#404040" fill-opacity="1"/><text fill="#E7E6E6" fill-opacity="1" font-family="Arial,Arial_MSFontService,sans-serif" font-style="normal" font-variant="normal" font-weight="400" font-stretch="normal" font-size="37" text-anchor="start" direction="ltr" writing-mode="lr-tb" unicode-bidi="normal" text-decoration="none" transform="matrix(1 0 0 1 2616.09 1380)">Empty Space</text><rect x="1750" y="1185" width="575" height="58.0001" fill="#2F5597" fill-opacity="1"/><text fill="#E7E6E6" fill-opacity="1" font-family="Arial,Arial_MSFontService,sans-serif" font-style="normal" font-variant="normal" font-weight="400" font-stretch="normal" font-size="37" text-anchor="start" direction="ltr" writing-mode="lr-tb" unicode-bidi="normal" text-decoration="none" transform="matrix(1 0 0 1 1891.33 1228)">Service Container</text><rect x="2438" y="1185" width="575" height="59.0001" fill="#2F5597" fill-opacity="1"/><text fill="#E7E6E6" fill-opacity="1" font-family="Arial,Arial_MSFontService,sans-serif" font-style="normal" font-variant="normal" font-weight="400" font-stretch="normal" font-size="37" text-anchor="start" direction="ltr" writing-mode="lr-tb" unicode-bidi="normal" text-decoration="none" transform="matrix(1 0 0 1 2579.32 1228)">Service Container</text><rect x="1072" y="1261" width="575" height="59.0001" fill="#2F5597" fill-opacity="1"/><text fill="#E7E6E6" fill-opacity="1" font-family="Arial,Arial_MSFontService,sans-serif" font-style="normal" font-variant="normal" font-weight="400" font-stretch="normal" font-size="37" text-anchor="start" direction="ltr" writing-mode="lr-tb" unicode-bidi="normal" text-decoration="none" transform="matrix(1 0 0 1 1212.87 1305)">Service Container</text><rect x="1750" y="1263" width="575" height="59.0001" fill="#2F5597" fill-opacity="1"/><text fill="#E7E6E6" fill-opacity="1" font-family="Arial,Arial_MSFontService,sans-serif" font-style="normal" font-variant="normal" font-weight="400" font-stretch="normal" font-size="37" text-anchor="start" direction="ltr" writing-mode="lr-tb" unicode-bidi="normal" text-decoration="none" transform="matrix(1 0 0 1 1891.33 1307)">Service Container</text><rect x="2438" y="1263" width="575" height="59.0001" fill="#2F5597" fill-opacity="1"/><text fill="#E7E6E6" fill-opacity="1" font-family="Arial,Arial_MSFontService,sans-serif" font-style="normal" font-variant="normal" font-weight="400" font-stretch="normal" font-size="37" text-anchor="start" direction="ltr" writing-mode="lr-tb" unicode-bidi="normal" text-decoration="none" transform="matrix(1 0 0 1 2579.32 1307)">Service Container</text><text fill="#000000" fill-opacity="1" font-family="Arial,Arial_MSFontService,sans-serif" font-style="normal" font-variant="normal" font-weight="400" font-stretch="normal" font-size="55" text-anchor="start" direction="ltr" writing-mode="lr-tb" unicode-bidi="normal" text-decoration="none" transform="matrix(1 0 0 1 166.98 1053)">CloudFormation </text><text fill="#000000" fill-opacity="1" font-family="Arial,Arial_MSFontService,sans-serif" font-style="normal" font-variant="normal" font-weight="400" font-stretch="normal" font-size="55" text-anchor="start" direction="ltr" writing-mode="lr-tb" unicode-bidi="normal" text-decoration="none" transform="matrix(1 0 0 1 166.98 1119)">initiates a rolling </text><text fill="#000000" fill-opacity="1" font-family="Arial,Arial_MSFontService,sans-serif" font-style="normal" font-variant="normal" font-weight="400" font-stretch="normal" font-size="55" text-anchor="start" direction="ltr" writing-mode="lr-tb" unicode-bidi="normal" text-decoration="none" transform="matrix(1 0 0 1 166.98 1185)">update to the Auto </text><text fill="#000000" fill-opacity="1" font-family="Arial,Arial_MSFontService,sans-serif" font-style="normal" font-variant="normal" font-weight="400" font-stretch="normal" font-size="55" text-anchor="start" direction="ltr" writing-mode="lr-tb" unicode-bidi="normal" text-decoration="none" transform="matrix(1 0 0 1 166.98 1251)">Scaling Group</text><path d="M658.011 185 658.011 402.566 649.99 402.566 649.99 185ZM667.75 397.983 654.001 425.483 640.25 397.983Z" fill="#000000" fill-rule="nonzero" fill-opacity="1"/><text fill="#000000" fill-opacity="1" font-family="Arial,Arial_MSFontService,sans-serif" font-style="normal" font-variant="normal" font-weight="400" font-stretch="normal" font-size="55" text-anchor="start" direction="ltr" writing-mode="lr-tb" unicode-bidi="normal" text-decoration="none" transform="matrix(1 0 0 1 168.898 150)">ECS Optimized Amazon Machine Image deployment</text><text fill="#000000" fill-opacity="1" font-family="Arial,Arial_MSFontService,sans-serif" font-style="normal" font-variant="normal" font-weight="400" font-stretch="normal" font-size="55" text-anchor="start" direction="ltr" writing-mode="lr-tb" unicode-bidi="normal" text-decoration="none" transform="matrix(1 0 0 1 1461.81 150)">via</text><text fill="#000000" fill-opacity="1" font-family="Arial,Arial_MSFontService,sans-serif" font-style="normal" font-variant="normal" font-weight="400" font-stretch="normal" font-size="55" text-anchor="start" direction="ltr" writing-mode="lr-tb" unicode-bidi="normal" text-decoration="none" transform="matrix(1 0 0 1 1544.15 150)">AWS CloudFormation stack</text><text fill="#000000" fill-opacity="1" font-family="Arial,Arial_MSFontService,sans-serif" font-style="normal" font-variant="normal" font-weight="400" font-stretch="normal" font-size="55" text-anchor="start" direction="ltr" writing-mode="lr-tb" unicode-bidi="normal" text-decoration="none" transform="matrix(1 0 0 1 2231.9 150)">updat</text><text fill="#000000" fill-opacity="1" font-family="Arial,Arial_MSFontService,sans-serif" font-style="normal" font-variant="normal" font-weight="400" font-stretch="normal" font-size="55" text-anchor="start" direction="ltr" writing-mode="lr-tb" unicode-bidi="normal" text-decoration="none" transform="matrix(1 0 0 1 2368.83 150)">e</text></g></g></svg>