<svg width="3080" height="1563" xmlns="http://www.w3.org/2000/svg" xmlns:xlink="http://www.w3.org/1999/xlink" xml:space="preserve" overflow="hidden"><g transform="translate(-73 -36)"><g><rect x="77.4998" y="828.5" width="2391" height="768" stroke="#D86613" stroke-width="4.58333" stroke-linecap="butt" stroke-linejoin="miter" stroke-miterlimit="8" stroke-dasharray="18.3333 13.75" stroke-opacity="1" fill="none"/><g><g><g><path d="M0 0 137 0 137 137 0 137Z" fill="#D45B07" fill-rule="evenodd" fill-opacity="1" transform="matrix(1 0 0 1.0073 77 828)"/><path d="M61.722 66.7715C61.722 66.2406 61.4788 65.7542 61.0781 65.4323L50.9606 55.3183 48.5392 57.7397 55.8618 65.059 23.975 65.059 23.975 68.484 55.8755 68.484 48.5392 75.8203 50.9606 78.2418 61.1295 68.073C61.4994 67.751 61.722 67.2784 61.722 66.7715ZM116.402 65.059 84.512 65.059 91.8346 57.7397 89.4132 55.3183 79.2443 65.4871C78.8778 65.8056 78.6518 66.2783 78.6518 66.7852 78.6518 67.3161 78.8984 67.8058 79.2991 68.1244L89.4132 78.2418 91.8346 75.8203 84.4983 68.484 116.402 68.484 116.402 65.059ZM71.9114 107.286 71.9114 75.3854 68.4864 75.3854 68.4864 107.272 61.1637 99.9529 58.7422 102.374 68.9111 112.536C69.2296 112.91 69.7057 113.136 70.2126 113.136 70.7469 113.136 71.2401 112.886 71.5586 112.482L81.6658 102.374 79.2443 99.9529 71.9114 107.286ZM61.1637 33.6926 58.7422 31.2711 68.8529 21.164C69.4762 20.3694 70.8394 20.342 71.5038 21.1057L81.6658 31.2711 79.2443 33.6926 71.9114 26.3597 71.9114 58.2603 68.4864 58.2603 68.4864 26.3734 61.1637 33.6926Z" fill="#FFFFFF" fill-rule="evenodd" fill-opacity="1" transform="matrix(1 0 0 1.0073 77 828)"/></g></g></g><text fill="#D86613" fill-opacity="1" font-family="Arial,Arial_MSFontService,sans-serif" font-style="normal" font-variant="normal" font-weight="400" font-stretch="normal" font-size="55" text-anchor="start" direction="ltr" writing-mode="lr-tb" unicode-bidi="normal" text-decoration="none" transform="matrix(1 0 0 1 251.757 916)">Auto Scaling group</text><rect x="328.5" y="1044.5" width="637" height="497" stroke="#D86613" stroke-width="4.58333" stroke-linecap="butt" stroke-linejoin="miter" stroke-miterlimit="8" stroke-opacity="1" fill="none"/><text fill="#D86613" fill-opacity="1" font-family="Arial,Arial_MSFontService,sans-serif" font-style="normal" font-variant="normal" font-weight="400" font-stretch="normal" font-size="55" text-anchor="start" direction="ltr" writing-mode="lr-tb" unicode-bidi="normal" text-decoration="none" transform="matrix(1 0 0 1 509.246 1130)">EC2 instance</text><g><g><g><path d="M0 0 137 0 137 137 0 137Z" fill="#D45B07" fill-rule="evenodd" fill-opacity="1" transform="matrix(1 0 0 1.0073 328 1044)"/><path d="M34.25 99.3251 99.3251 99.3251 99.3251 34.25 34.25 34.25 34.25 99.3251ZM113.025 41.1 113.025 37.675 102.75 37.675 102.75 32.5375C102.75 31.5922 101.983 30.825 101.038 30.825L95.9001 30.825 95.9001 20.55 92.4751 20.55 92.4751 30.825 82.2001 30.825 82.2001 20.55 78.7751 20.55 78.7751 30.825 68.5001 30.825 68.5001 20.55 65.0751 20.55 65.0751 30.825 54.8001 30.825 54.8001 20.55 51.3751 20.55 51.3751 30.825 41.1 30.825 41.1 20.55 37.675 20.55 37.675 30.825 32.5375 30.825C31.5922 30.825 30.825 31.5922 30.825 32.5375L30.825 37.675 20.55 37.675 20.55 41.1 30.825 41.1 30.825 51.3751 20.55 51.3751 20.55 54.8001 30.825 54.8001 30.825 65.0751 20.55 65.0751 20.55 68.5001 30.825 68.5001 30.825 78.7751 20.55 78.7751 20.55 82.2001 30.825 82.2001 30.825 92.4751 20.55 92.4751 20.55 95.9001 30.825 95.9001 30.825 101.038C30.825 101.983 31.5922 102.75 32.5375 102.75L37.675 102.75 37.675 113.025 41.1 113.025 41.1 102.75 51.3751 102.75 51.3751 113.025 54.8001 113.025 54.8001 102.75 65.0751 102.75 65.0751 113.025 68.5001 113.025 68.5001 102.75 78.7751 102.75 78.7751 113.025 82.2001 113.025 82.2001 102.75 92.4751 102.75 92.4751 113.025 95.9001 113.025 95.9001 102.75 101.038 102.75C101.983 102.75 102.75 101.983 102.75 101.038L102.75 95.9001 113.025 95.9001 113.025 92.4751 102.75 92.4751 102.75 82.2001 113.025 82.2001 113.025 78.7751 102.75 78.7751 102.75 68.5001 113.025 68.5001 113.025 65.0751 102.75 65.0751 102.75 54.8001 113.025 54.8001 113.025 51.3751 102.75 51.3751 102.75 41.1 113.025 41.1Z" fill="#FFFFFF" fill-rule="evenodd" fill-opacity="1" transform="matrix(1 0 0 1.0073 328 1044)"/></g></g></g><rect x="1012.5" y="1044.5" width="637" height="497" stroke="#D86613" stroke-width="4.58333" stroke-linecap="butt" stroke-linejoin="miter" stroke-miterlimit="8" stroke-opacity="1" fill="none"/><text fill="#D86613" fill-opacity="1" font-family="Arial,Arial_MSFontService,sans-serif" font-style="normal" font-variant="normal" font-weight="400" font-stretch="normal" font-size="55" text-anchor="start" direction="ltr" writing-mode="lr-tb" unicode-bidi="normal" text-decoration="none" transform="matrix(1 0 0 1 1193.73 1130)">EC2 instance</text><g><g><g><path d="M0 0 138 0 138 138 0 138Z" fill="#D45B07" fill-rule="evenodd" fill-opacity="1" transform="matrix(1 0 0 1 1012 1044)"/><path d="M34.5 100.05 100.05 100.05 100.05 34.5 34.5 34.5 34.5 100.05ZM113.85 41.4 113.85 37.95 103.5 37.95 103.5 32.775C103.5 31.8228 102.727 31.05 101.775 31.05L96.5999 31.05 96.5999 20.7 93.1499 20.7 93.1499 31.05 82.7999 31.05 82.7999 20.7 79.3499 20.7 79.3499 31.05 68.9999 31.05 68.9999 20.7 65.5499 20.7 65.5499 31.05 55.1999 31.05 55.1999 20.7 51.7499 20.7 51.7499 31.05 41.4 31.05 41.4 20.7 37.95 20.7 37.95 31.05 32.775 31.05C31.8228 31.05 31.05 31.8228 31.05 32.775L31.05 37.95 20.7 37.95 20.7 41.4 31.05 41.4 31.05 51.7499 20.7 51.7499 20.7 55.1999 31.05 55.1999 31.05 65.5499 20.7 65.5499 20.7 68.9999 31.05 68.9999 31.05 79.3499 20.7 79.3499 20.7 82.7999 31.05 82.7999 31.05 93.1499 20.7 93.1499 20.7 96.5999 31.05 96.5999 31.05 101.775C31.05 102.727 31.8228 103.5 32.775 103.5L37.95 103.5 37.95 113.85 41.4 113.85 41.4 103.5 51.7499 103.5 51.7499 113.85 55.1999 113.85 55.1999 103.5 65.5499 103.5 65.5499 113.85 68.9999 113.85 68.9999 103.5 79.3499 103.5 79.3499 113.85 82.7999 113.85 82.7999 103.5 93.1499 103.5 93.1499 113.85 96.5999 113.85 96.5999 103.5 101.775 103.5C102.727 103.5 103.5 102.727 103.5 101.775L103.5 96.5999 113.85 96.5999 113.85 93.1499 103.5 93.1499 103.5 82.7999 113.85 82.7999 113.85 79.3499 103.5 79.3499 103.5 68.9999 113.85 68.9999 113.85 65.5499 103.5 65.5499 103.5 55.1999 113.85 55.1999 113.85 51.7499 103.5 51.7499 103.5 41.4 113.85 41.4Z" fill="#FFFFFF" fill-rule="evenodd" fill-opacity="1" transform="matrix(1 0 0 1 1012 1044)"/></g></g></g><rect x="1697.5" y="1044.5" width="637" height="497" stroke="#D86613" stroke-width="4.58333" stroke-linecap="butt" stroke-linejoin="miter" stroke-miterlimit="8" stroke-opacity="1" fill="none"/><text fill="#D86613" fill-opacity="1" font-family="Arial,Arial_MSFontService,sans-serif" font-style="normal" font-variant="normal" font-weight="400" font-stretch="normal" font-size="55" text-anchor="start" direction="ltr" writing-mode="lr-tb" unicode-bidi="normal" text-decoration="none" transform="matrix(1 0 0 1 1878.22 1130)">EC2 instance</text><g><g><g><path d="M0 0 137 0 137 137 0 137Z" fill="#D45B07" fill-rule="evenodd" fill-opacity="1" transform="matrix(1 0 0 1.0073 1697 1044)"/><path d="M34.25 99.3249 99.3249 99.3249 99.3249 34.25 34.25 34.25 34.25 99.3249ZM113.025 41.0999 113.025 37.6749 102.75 37.6749 102.75 32.5375C102.75 31.5922 101.983 30.825 101.037 30.825L95.8999 30.825 95.8999 20.55 92.4749 20.55 92.4749 30.825 82.1999 30.825 82.1999 20.55 78.7749 20.55 78.7749 30.825 68.4999 30.825 68.4999 20.55 65.0749 20.55 65.0749 30.825 54.7999 30.825 54.7999 20.55 51.3749 20.55 51.3749 30.825 41.0999 30.825 41.0999 20.55 37.6749 20.55 37.6749 30.825 32.5375 30.825C31.5922 30.825 30.825 31.5922 30.825 32.5375L30.825 37.6749 20.55 37.6749 20.55 41.0999 30.825 41.0999 30.825 51.3749 20.55 51.3749 20.55 54.7999 30.825 54.7999 30.825 65.0749 20.55 65.0749 20.55 68.4999 30.825 68.4999 30.825 78.7749 20.55 78.7749 20.55 82.1999 30.825 82.1999 30.825 92.4749 20.55 92.4749 20.55 95.8999 30.825 95.8999 30.825 101.037C30.825 101.983 31.5922 102.75 32.5375 102.75L37.6749 102.75 37.6749 113.025 41.0999 113.025 41.0999 102.75 51.3749 102.75 51.3749 113.025 54.7999 113.025 54.7999 102.75 65.0749 102.75 65.0749 113.025 68.4999 113.025 68.4999 102.75 78.7749 102.75 78.7749 113.025 82.1999 113.025 82.1999 102.75 92.4749 102.75 92.4749 113.025 95.8999 113.025 95.8999 102.75 101.037 102.75C101.983 102.75 102.75 101.983 102.75 101.037L102.75 95.8999 113.025 95.8999 113.025 92.4749 102.75 92.4749 102.75 82.1999 113.025 82.1999 113.025 78.7749 102.75 78.7749 102.75 68.4999 113.025 68.4999 113.025 65.0749 102.75 65.0749 102.75 54.7999 113.025 54.7999 113.025 51.3749 102.75 51.3749 102.75 41.0999 113.025 41.0999Z" fill="#FFFFFF" fill-rule="evenodd" fill-opacity="1" transform="matrix(1 0 0 1.0073 1697 1044)"/></g></g></g><rect x="358" y="1213" width="576" height="58.9998" fill="#548235" fill-opacity="1"/><text fill="#E7E6E6" fill-opacity="1" font-family="Arial,Arial_MSFontService,sans-serif" font-style="normal" font-variant="normal" font-weight="400" font-stretch="normal" font-size="37" text-anchor="start" direction="ltr" writing-mode="lr-tb" unicode-bidi="normal" text-decoration="none" transform="matrix(1 0 0 1 518.241 1256)">Health Daemon</text><rect x="359" y="1290" width="575" height="57.9998" fill="#2F5597" fill-opacity="1"/><text fill="#E7E6E6" fill-opacity="1" font-family="Arial,Arial_MSFontService,sans-serif" font-style="normal" font-variant="normal" font-weight="400" font-stretch="normal" font-size="37" text-anchor="start" direction="ltr" writing-mode="lr-tb" unicode-bidi="normal" text-decoration="none" transform="matrix(1 0 0 1 500.01 1333)">Service Container</text><rect x="1037" y="1214" width="576" height="58.9998" fill="#548235" fill-opacity="1"/><text fill="#E7E6E6" fill-opacity="1" font-family="Arial,Arial_MSFontService,sans-serif" font-style="normal" font-variant="normal" font-weight="400" font-stretch="normal" font-size="37" text-anchor="start" direction="ltr" writing-mode="lr-tb" unicode-bidi="normal" text-decoration="none" transform="matrix(1 0 0 1 1196.7 1258)">Health Daemon</text><rect x="1727" y="1213" width="575" height="58.9998" fill="#548235" fill-opacity="1"/><text fill="#E7E6E6" fill-opacity="1" font-family="Arial,Arial_MSFontService,sans-serif" font-style="normal" font-variant="normal" font-weight="400" font-stretch="normal" font-size="37" text-anchor="start" direction="ltr" writing-mode="lr-tb" unicode-bidi="normal" text-decoration="none" transform="matrix(1 0 0 1 1886.41 1256)">Health Daemon</text><rect x="355" y="1443" width="576" height="58.9998" fill="#404040" fill-opacity="1"/><text fill="#E7E6E6" fill-opacity="1" font-family="Arial,Arial_MSFontService,sans-serif" font-style="normal" font-variant="normal" font-weight="400" font-stretch="normal" font-size="37" text-anchor="start" direction="ltr" writing-mode="lr-tb" unicode-bidi="normal" text-decoration="none" transform="matrix(1 0 0 1 533.101 1487)">Empty Space</text><rect x="1037" y="1441" width="576" height="59.0001" fill="#404040" fill-opacity="1"/><text fill="#E7E6E6" fill-opacity="1" font-family="Arial,Arial_MSFontService,sans-serif" font-style="normal" font-variant="normal" font-weight="400" font-stretch="normal" font-size="37" text-anchor="start" direction="ltr" writing-mode="lr-tb" unicode-bidi="normal" text-decoration="none" transform="matrix(1 0 0 1 1215.03 1485)">Empty Space</text><rect x="1725" y="1444" width="576" height="58.9998" fill="#404040" fill-opacity="1"/><text fill="#E7E6E6" fill-opacity="1" font-family="Arial,Arial_MSFontService,sans-serif" font-style="normal" font-variant="normal" font-weight="400" font-stretch="normal" font-size="37" text-anchor="start" direction="ltr" writing-mode="lr-tb" unicode-bidi="normal" text-decoration="none" transform="matrix(1 0 0 1 1903.23 1488)">Empty Space</text><rect x="1037" y="1292" width="576" height="58.9998" fill="#2F5597" fill-opacity="1"/><text fill="#E7E6E6" fill-opacity="1" font-family="Arial,Arial_MSFontService,sans-serif" font-style="normal" font-variant="normal" font-weight="400" font-stretch="normal" font-size="37" text-anchor="start" direction="ltr" writing-mode="lr-tb" unicode-bidi="normal" text-decoration="none" transform="matrix(1 0 0 1 1178.47 1335)">Service Container</text><rect x="1725" y="1292" width="576" height="58.9998" fill="#2F5597" fill-opacity="1"/><text fill="#E7E6E6" fill-opacity="1" font-family="Arial,Arial_MSFontService,sans-serif" font-style="normal" font-variant="normal" font-weight="400" font-stretch="normal" font-size="37" text-anchor="start" direction="ltr" writing-mode="lr-tb" unicode-bidi="normal" text-decoration="none" transform="matrix(1 0 0 1 1866.46 1335)">Service Container</text><rect x="359" y="1368" width="575" height="58.9998" fill="#2F5597" fill-opacity="1"/><text fill="#E7E6E6" fill-opacity="1" font-family="Arial,Arial_MSFontService,sans-serif" font-style="normal" font-variant="normal" font-weight="400" font-stretch="normal" font-size="37" text-anchor="start" direction="ltr" writing-mode="lr-tb" unicode-bidi="normal" text-decoration="none" transform="matrix(1 0 0 1 500.01 1412)">Service Container</text><rect x="1037" y="1371" width="576" height="58.0001" fill="#2F5597" fill-opacity="1"/><text fill="#E7E6E6" fill-opacity="1" font-family="Arial,Arial_MSFontService,sans-serif" font-style="normal" font-variant="normal" font-weight="400" font-stretch="normal" font-size="37" text-anchor="start" direction="ltr" writing-mode="lr-tb" unicode-bidi="normal" text-decoration="none" transform="matrix(1 0 0 1 1178.47 1414)">Service Container</text><rect x="1725" y="1371" width="576" height="58.0001" fill="#2F5597" fill-opacity="1"/><text fill="#E7E6E6" fill-opacity="1" font-family="Arial,Arial_MSFontService,sans-serif" font-style="normal" font-variant="normal" font-weight="400" font-stretch="normal" font-size="37" text-anchor="start" direction="ltr" writing-mode="lr-tb" unicode-bidi="normal" text-decoration="none" transform="matrix(1 0 0 1 1866.46 1414)">Service Container</text><g><g><g><path d="M1160 40.9999 1435 40.9999 1435 316 1160 316Z" fill="#ED7100" fill-rule="evenodd" fill-opacity="1"/><path d="M1380 206.804 1352.5 190.301 1352.5 151C1352.5 149.776 1351.85 148.645 1350.8 148.03L1311.25 124.964 1311.25 91.7099 1380 132.338 1380 206.804ZM1385.19 127.415 1309.56 82.7277C1308.5 82.0987 1307.19 82.0918 1306.11 82.7002 1305.04 83.3121 1304.38 84.4533 1304.38 85.6874L1304.38 126.937C1304.38 128.158 1305.02 129.289 1306.08 129.907L1345.63 152.973 1345.63 192.25C1345.63 193.456 1346.26 194.577 1347.3 195.196L1381.67 215.821C1382.21 216.147 1382.83 216.312 1383.44 216.312 1384.02 216.312 1384.61 216.165 1385.13 215.866 1386.21 215.257 1386.88 214.112 1386.88 212.875L1386.88 130.375C1386.88 129.158 1386.24 128.034 1385.19 127.415ZM1299.03 270.841 1218.44 227.996 1218.44 132.338 1287.19 91.7099 1287.19 125.05 1250.97 148.099C1249.98 148.731 1249.38 149.824 1249.38 151L1249.38 209.437C1249.38 210.72 1250.09 211.895 1251.22 212.486L1297.47 236.549C1298.46 237.065 1299.65 237.068 1300.64 236.552L1345.5 213.37 1373.11 229.939 1299.03 270.841ZM1381.77 227.113 1347.4 206.488C1346.37 205.876 1345.11 205.835 1344.05 206.385L1299.06 229.626 1256.25 207.351 1256.25 152.887 1292.47 129.839C1293.46 129.206 1294.06 128.113 1294.06 126.937L1294.06 85.6874C1294.06 84.4533 1293.4 83.3121 1292.33 82.7002 1291.26 82.0918 1289.94 82.0987 1288.88 82.7277L1213.25 127.415C1212.21 128.034 1211.56 129.158 1211.56 130.375L1211.56 230.062C1211.56 231.331 1212.26 232.5 1213.38 233.098L1297.45 277.785C1297.95 278.053 1298.5 278.187 1299.06 278.187 1299.63 278.187 1300.2 278.043 1300.72 277.758L1381.66 233.07C1382.74 232.476 1383.41 231.351 1383.44 230.124 1383.46 228.894 1382.82 227.746 1381.77 227.113Z" fill="#FFFFFF" fill-rule="evenodd" fill-opacity="1"/></g></g></g><text fill="#000000" fill-opacity="1" font-family="Arial,Arial_MSFontService,sans-serif" font-style="normal" font-variant="normal" font-weight="400" font-stretch="normal" font-size="55" text-anchor="start" direction="ltr" writing-mode="lr-tb" unicode-bidi="normal" text-decoration="none" transform="matrix(1 0 0 1 980.286 386)">Amazon Elastic Container </text><text fill="#000000" fill-opacity="1" font-family="Arial,Arial_MSFontService,sans-serif" font-style="normal" font-variant="normal" font-weight="400" font-stretch="normal" font-size="55" text-anchor="start" direction="ltr" writing-mode="lr-tb" unicode-bidi="normal" text-decoration="none" transform="matrix(1 0 0 1 1013.52 452)">Service (Amazon ECS)</text><path d="M0-4.01042 1018.49-4.01042 1018.49 626.883 1010.47 626.883 1010.47 0 1014.48 4.01042 0 4.01042ZM1028.23 622.3 1014.48 649.8 1000.73 622.3Z" fill="#000000" fill-rule="nonzero" fill-opacity="1" transform="matrix(-1 1.22465e-16 1.22465e-16 1 1160.48 179)"/><g><g><g><path d="M2576.71 231.357 2620.5 231.357 2620.5 224.482 2576.71 224.482 2576.71 231.357ZM2576.71 197.292 2620.5 197.292 2620.5 190.417 2576.71 190.417 2576.71 197.292ZM2576.71 163.226 2620.5 163.226 2620.5 156.351 2576.71 156.351 2576.71 163.226ZM2558.24 231.783 2565.97 231.783 2565.97 224.059 2558.24 224.059 2558.24 231.783ZM2554.8 238.658 2569.4 238.658C2571.3 238.658 2572.84 237.122 2572.84 235.221L2572.84 220.622C2572.84 218.721 2571.3 217.184 2569.4 217.184L2554.8 217.184C2552.91 217.184 2551.37 218.721 2551.37 220.622L2551.37 235.221C2551.37 237.122 2552.91 238.658 2554.8 238.658ZM2558.24 197.718 2565.97 197.718 2565.97 189.994 2558.24 189.994 2558.24 197.718ZM2554.8 204.593 2569.4 204.593C2571.3 204.593 2572.84 203.056 2572.84 201.155L2572.84 186.556C2572.84 184.655 2571.3 183.119 2569.4 183.119L2554.8 183.119C2552.91 183.119 2551.37 184.655 2551.37 186.556L2551.37 201.155C2551.37 203.056 2552.91 204.593 2554.8 204.593ZM2558.24 163.652 2565.97 163.652 2565.97 155.928 2558.24 155.928 2558.24 163.652ZM2554.8 170.527 2569.4 170.527C2571.3 170.527 2572.84 168.991 2572.84 167.09L2572.84 152.491C2572.84 150.59 2571.3 149.053 2569.4 149.053L2554.8 149.053C2552.91 149.053 2551.37 150.59 2551.37 152.491L2551.37 167.09C2551.37 168.991 2552.91 170.527 2554.8 170.527ZM2546.08 251.25 2626.8 251.25 2626.8 141.326 2546.08 141.326 2546.08 251.25ZM2539.2 137.892 2539.2 236.651 2531.48 236.651 2531.48 126.73 2612.2 126.73 2612.2 134.454 2542.64 134.454C2540.74 134.454 2539.2 135.991 2539.2 137.892ZM2524.6 123.293 2524.6 223.674 2518.5 223.674 2518.5 113.75 2599.22 113.75 2599.22 119.855 2528.04 119.855C2526.14 119.855 2524.6 121.392 2524.6 123.293ZM2630.24 134.454 2619.08 134.454 2619.08 123.293C2619.08 121.392 2617.54 119.855 2615.64 119.855L2606.1 119.855 2606.1 110.313C2606.1 108.415 2604.56 106.875 2602.66 106.875L2515.06 106.875C2513.16 106.875 2511.63 108.415 2511.63 110.313L2511.63 227.112C2511.63 229.013 2513.16 230.549 2515.06 230.549L2524.6 230.549 2524.6 240.088C2524.6 241.989 2526.14 243.526 2528.04 243.526L2539.2 243.526 2539.2 254.688C2539.2 256.588 2540.74 258.125 2542.64 258.125L2630.24 258.125C2632.14 258.125 2633.68 256.588 2633.68 254.688L2633.68 137.892C2633.68 135.991 2632.14 134.454 2630.24 134.454Z" fill="#ED7100" fill-rule="evenodd" fill-opacity="1"/></g></g></g><text fill="#000000" fill-opacity="1" font-family="Arial,Arial_MSFontService,sans-serif" font-style="normal" font-variant="normal" font-weight="400" font-stretch="normal" font-size="55" text-anchor="start" direction="ltr" writing-mode="lr-tb" unicode-bidi="normal" text-decoration="none" transform="matrix(1 0 0 1 2405.85 335)">Health Daemon</text><path d="M1435.02 174.99 2467.58 179.142 2467.55 187.163 1434.98 183.01ZM2463.03 169.384 2490.48 183.245 2462.92 196.884Z" fill="#000000" fill-rule="nonzero" fill-opacity="1"/><text fill="#000000" fill-opacity="1" font-family="Arial,Arial_MSFontService,sans-serif" font-style="normal" font-variant="normal" font-weight="400" font-stretch="normal" font-size="55" text-anchor="start" direction="ltr" writing-mode="lr-tb" unicode-bidi="normal" text-decoration="none" transform="matrix(1 0 0 1 171.111 248)">Capacity provider manages </text><text fill="#000000" fill-opacity="1" font-family="Arial,Arial_MSFontService,sans-serif" font-style="normal" font-variant="normal" font-weight="400" font-stretch="normal" font-size="55" text-anchor="start" direction="ltr" writing-mode="lr-tb" unicode-bidi="normal" text-decoration="none" transform="matrix(1 0 0 1 171.111 314)">auto scaling group size</text><path d="M2599.76 365 2599.76 1245.93 2324.92 1245.93 2324.92 1237.91 2595.75 1237.91 2591.74 1241.92 2591.74 365ZM2329.5 1255.67 2302 1241.92 2329.5 1228.17Z" fill="#000000" fill-rule="nonzero" fill-opacity="1"/><text fill="#000000" fill-opacity="1" font-family="Arial,Arial_MSFontService,sans-serif" font-style="normal" font-variant="normal" font-weight="400" font-stretch="normal" font-size="55" text-anchor="start" direction="ltr" writing-mode="lr-tb" unicode-bidi="normal" text-decoration="none" transform="matrix(1 0 0 1 2643.11 640)">One copy of health </text><text fill="#000000" fill-opacity="1" font-family="Arial,Arial_MSFontService,sans-serif" font-style="normal" font-variant="normal" font-weight="400" font-stretch="normal" font-size="55" text-anchor="start" direction="ltr" writing-mode="lr-tb" unicode-bidi="normal" text-decoration="none" transform="matrix(1 0 0 1 2643.11 706)">daemon placed </text><text fill="#000000" fill-opacity="1" font-family="Arial,Arial_MSFontService,sans-serif" font-style="normal" font-variant="normal" font-weight="400" font-stretch="normal" font-size="55" text-anchor="start" direction="ltr" writing-mode="lr-tb" unicode-bidi="normal" text-decoration="none" transform="matrix(1 0 0 1 2643.11 772)">per EC2 instance</text><path d="M1300.01 483 1300.01 1021.44 1291.99 1021.44 1291.99 483ZM1309.75 1016.86 1296 1044.36 1282.25 1016.86Z" fill="#000000" fill-rule="nonzero" fill-opacity="1"/><text fill="#000000" fill-opacity="1" font-family="Arial,Arial_MSFontService,sans-serif" font-style="normal" font-variant="normal" font-weight="400" font-stretch="normal" font-size="55" text-anchor="start" direction="ltr" writing-mode="lr-tb" unicode-bidi="normal" text-decoration="none" transform="matrix(1 0 0 1 1339.13 604)">Schedule application </text><text fill="#000000" fill-opacity="1" font-family="Arial,Arial_MSFontService,sans-serif" font-style="normal" font-variant="normal" font-weight="400" font-stretch="normal" font-size="55" text-anchor="start" direction="ltr" writing-mode="lr-tb" unicode-bidi="normal" text-decoration="none" transform="matrix(1 0 0 1 1339.13 670)">containers onto available </text><text fill="#000000" fill-opacity="1" font-family="Arial,Arial_MSFontService,sans-serif" font-style="normal" font-variant="normal" font-weight="400" font-stretch="normal" font-size="55" text-anchor="start" direction="ltr" writing-mode="lr-tb" unicode-bidi="normal" text-decoration="none" transform="matrix(1 0 0 1 1339.13 736)">EC2 capacity</text></g></g></svg>