<svg width="2910" height="2150" xmlns="http://www.w3.org/2000/svg" xmlns:xlink="http://www.w3.org/1999/xlink" xml:space="preserve" overflow="hidden"><g transform="translate(-137 -192)"><g><rect x="1005" y="276" width="913" height="715" stroke="#7AA116" stroke-width="5.72917" stroke-linecap="butt" stroke-linejoin="miter" stroke-miterlimit="8" stroke-opacity="1" fill="none"/><text fill="#000000" fill-opacity="1" font-family="Arial,Arial_MSFontService,sans-serif" font-style="normal" font-variant="normal" font-weight="400" font-stretch="normal" font-size="55" text-anchor="start" direction="ltr" writing-mode="lr-tb" unicode-bidi="normal" text-decoration="none" transform="matrix(1 0 0 1 1186.5 362)">Public subnet</text><rect x="2011" y="275" width="913" height="716" stroke="#7AA116" stroke-width="5.72917" stroke-linecap="butt" stroke-linejoin="miter" stroke-miterlimit="8" stroke-opacity="1" fill="none"/><text fill="#000000" fill-opacity="1" font-family="Arial,Arial_MSFontService,sans-serif" font-style="normal" font-variant="normal" font-weight="400" font-stretch="normal" font-size="55" text-anchor="start" direction="ltr" writing-mode="lr-tb" unicode-bidi="normal" text-decoration="none" transform="matrix(1 0 0 1 2192.97 361)">Public subnet</text><rect x="1005" y="1056" width="912" height="1206" stroke="#7AA116" stroke-width="5.72917" stroke-linecap="butt" stroke-linejoin="miter" stroke-miterlimit="8" stroke-opacity="1" fill="none"/><text fill="#000000" fill-opacity="1" font-family="Arial,Arial_MSFontService,sans-serif" font-style="normal" font-variant="normal" font-weight="400" font-stretch="normal" font-size="55" text-anchor="start" direction="ltr" writing-mode="lr-tb" unicode-bidi="normal" text-decoration="none" transform="matrix(1 0 0 1 1186.42 2216)">Private subnet</text><rect x="2011" y="1056" width="913" height="1206" stroke="#7AA116" stroke-width="5.72917" stroke-linecap="butt" stroke-linejoin="miter" stroke-miterlimit="8" stroke-opacity="1" fill="none"/><text fill="#000000" fill-opacity="1" font-family="Arial,Arial_MSFontService,sans-serif" font-style="normal" font-variant="normal" font-weight="400" font-stretch="normal" font-size="55" text-anchor="start" direction="ltr" writing-mode="lr-tb" unicode-bidi="normal" text-decoration="none" transform="matrix(1 0 0 1 2192.97 2216)">Private subnet</text><rect x="1089.5" y="1500.5" width="1742" height="571" stroke="#ED7000" stroke-width="4.58333" stroke-linecap="butt" stroke-linejoin="miter" stroke-miterlimit="8" stroke-opacity="1" fill="#FB9900" fill-opacity="0.2"/><rect x="370.5" y="195.5" width="2673" height="2141" stroke="#8C4EFF" stroke-width="4.58333" stroke-linecap="butt" stroke-linejoin="miter" stroke-miterlimit="8" stroke-opacity="1" fill="none"/><text fill="#000000" fill-opacity="1" font-family="Arial,Arial_MSFontService,sans-serif" font-style="normal" font-variant="normal" font-weight="400" font-stretch="normal" font-size="55" text-anchor="start" direction="ltr" writing-mode="lr-tb" unicode-bidi="normal" text-decoration="none" transform="matrix(1 0 0 1 518.467 281)">VPC</text><text fill="#000000" fill-opacity="1" font-family="Arial,Arial_MSFontService,sans-serif" font-style="normal" font-variant="normal" font-weight="400" font-stretch="normal" font-size="50" text-anchor="start" direction="ltr" writing-mode="lr-tb" unicode-bidi="normal" text-decoration="none" transform="matrix(1 0 0 1 448.799 680)">Internet gateway</text><g><g><g><path d="M671.402 565.588 666.097 565.588 666.097 502.986C666.097 501.594 665.279 500.329 664.011 499.759L663.685 499.61C656.57 496.398 649.207 493.072 638.624 493.072 627.563 493.072 619.446 496.646 611.421 500.63 610.216 501.229 609.455 502.458 609.455 503.804L609.455 565.588 604.273 565.588 604.273 498.771C612.894 491.762 625.322 487.767 638.659 487.767 651.059 487.767 662.881 491.298 671.402 497.499L671.402 565.588ZM638.659 480.684C622.988 480.684 608.311 485.709 598.387 494.478 597.626 495.148 597.19 496.115 597.19 497.131L597.19 569.13C597.19 571.088 598.773 572.671 600.732 572.671L612.997 572.671C614.955 572.671 616.538 571.088 616.538 569.13L616.538 506.01C623.335 502.727 629.922 500.156 638.624 500.156 646.894 500.156 652.908 502.546 659.013 505.277L659.013 569.13C659.013 571.088 660.597 572.671 662.555 572.671L674.944 572.671C676.902 572.671 678.485 571.088 678.485 569.13L678.485 495.746C678.485 494.67 677.993 493.65 677.147 492.973 667.322 485.164 653.294 480.684 638.659 480.684ZM637.838 596.51C598.872 596.51 567.164 564.805 567.164 525.836 567.164 486.867 598.872 455.166 637.838 455.166 676.807 455.166 708.512 486.867 708.512 525.836 708.512 564.805 676.807 596.51 637.838 596.51ZM637.838 448.083C594.962 448.083 560.081 482.964 560.081 525.836 560.081 568.715 594.962 603.594 637.838 603.594 680.713 603.594 715.595 568.715 715.595 525.836 715.595 482.964 680.713 448.083 637.838 448.083Z" fill="#8C4EFF" fill-rule="evenodd" fill-opacity="1"/></g></g></g><path d="M164.5 520.771 508.765 520.771 508.765 532.23 164.5 532.229ZM503.036 509.313 537.411 526.5 503.036 543.688Z" fill="#BFBFBF" fill-rule="nonzero" fill-opacity="1"/><text fill="#000000" fill-opacity="1" font-family="Arial,Arial_MSFontService,sans-serif" font-style="normal" font-variant="normal" font-weight="400" font-stretch="normal" font-size="50" text-anchor="start" direction="ltr" writing-mode="lr-tb" unicode-bidi="normal" text-decoration="none" transform="matrix(1 0 0 1 186.435 499)">Traffic</text><text fill="#FF9902" fill-opacity="1" font-family="Arial,Arial_MSFontService,sans-serif" font-style="normal" font-variant="normal" font-weight="400" font-stretch="normal" font-size="55" text-anchor="start" direction="ltr" writing-mode="lr-tb" unicode-bidi="normal" text-decoration="none" transform="matrix(1 0 0 1 1258.32 2021)">AWS </text><text fill="#FF9902" fill-opacity="1" font-family="Arial,Arial_MSFontService,sans-serif" font-style="normal" font-variant="normal" font-weight="400" font-stretch="normal" font-size="55" text-anchor="start" direction="ltr" writing-mode="lr-tb" unicode-bidi="normal" text-decoration="none" transform="matrix(1 0 0 1 1397.22 2021)">Fargate</text><text fill="#000000" fill-opacity="1" font-family="Arial,Arial_MSFontService,sans-serif" font-style="normal" font-variant="normal" font-weight="400" font-stretch="normal" font-size="50" text-anchor="start" direction="ltr" writing-mode="lr-tb" unicode-bidi="normal" text-decoration="none" transform="matrix(1 0 0 1 766.201 497)">Port 80</text><g><g><g><path d="M2317.84 1700.49 2353.04 1700.49 2353.04 1665.29 2317.84 1665.29 2317.84 1700.49ZM2313.97 1706.61 2313.97 1712.95 2320.85 1712.95 2320.85 1707.37 2325.99 1707.37 2325.99 1712.95 2332.87 1712.95 2332.87 1707.37 2338.01 1707.37 2338.01 1712.95 2344.89 1712.95 2344.89 1707.37 2350.03 1707.37 2350.03 1712.95 2356.91 1712.95 2356.91 1706.61C2357.85 1706.08 2358.63 1705.31 2359.16 1704.36L2365.49 1704.36 2365.49 1697.49 2359.91 1697.49 2359.91 1692.34 2365.49 1692.34 2365.49 1685.47 2359.91 1685.47 2359.91 1680.32 2365.49 1680.32 2365.49 1673.44 2359.91 1673.44 2359.91 1668.3 2365.49 1668.3 2365.49 1661.42 2359.16 1661.42C2358.63 1660.48 2357.85 1659.7 2356.91 1659.17L2356.91 1652.84 2350.03 1652.84 2350.03 1658.42 2344.89 1658.42 2344.89 1652.84 2338.01 1652.84 2338.01 1658.42 2332.87 1658.42 2332.87 1652.84 2325.99 1652.84 2325.99 1658.42 2320.85 1658.42 2320.85 1652.84 2313.97 1652.84 2313.97 1659.17C2313.02 1659.7 2312.25 1660.48 2311.72 1661.42L2305.39 1661.42 2305.39 1668.3 2310.97 1668.3 2310.97 1673.44 2305.39 1673.44 2305.39 1680.32 2310.97 1680.32 2310.97 1685.47 2305.39 1685.47 2305.39 1692.34 2310.97 1692.34 2310.97 1697.49 2305.39 1697.49 2305.39 1704.36 2311.72 1704.36C2312.25 1705.31 2313.02 1706.08 2313.97 1706.61ZM2389.1 1715.95 2395.98 1715.95 2395.98 1649.84 2389.1 1649.84 2389.1 1715.95ZM2371.07 1715.95 2377.94 1715.95 2377.94 1649.84 2371.07 1649.84 2371.07 1715.95ZM2292.93 1715.95 2299.8 1715.95 2299.8 1649.84 2292.93 1649.84 2292.93 1715.95ZM2274.9 1715.95 2281.78 1715.95 2281.78 1649.84 2274.9 1649.84 2274.9 1715.95ZM2266.75 1724.53 2404.13 1724.53 2404.13 1641.25 2266.75 1641.25 2266.75 1724.53ZM2407.56 1634.38 2263.31 1634.38C2261.42 1634.38 2259.88 1635.91 2259.88 1637.81L2259.88 1727.97C2259.88 1729.87 2261.42 1731.41 2263.31 1731.41L2407.56 1731.41C2409.46 1731.41 2411 1729.87 2411 1727.97L2411 1637.81C2411 1635.91 2409.46 1634.38 2407.56 1634.38Z" fill="#FF9900" fill-rule="evenodd" fill-opacity="1"/></g></g></g><text fill="#000000" fill-opacity="1" font-family="Arial,Arial_MSFontService,sans-serif" font-style="normal" font-variant="normal" font-weight="400" font-stretch="normal" font-size="50" text-anchor="start" direction="ltr" writing-mode="lr-tb" unicode-bidi="normal" text-decoration="none" transform="matrix(1 0 0 1 2238.51 1800)">Container</text><path d="M2435 1688.5C2435 1672.21 2448.21 1659 2464.5 1659 2480.79 1659 2494 1672.21 2494 1688.5 2494 1704.79 2480.79 1718 2464.5 1718 2448.21 1718 2435 1704.79 2435 1688.5Z" fill="#BFBFBF" fill-rule="evenodd" fill-opacity="1"/><text fill="#000000" fill-opacity="1" font-family="Arial,Arial_MSFontService,sans-serif" font-style="normal" font-variant="normal" font-weight="400" font-stretch="normal" font-size="50" text-anchor="start" direction="ltr" writing-mode="lr-tb" unicode-bidi="normal" text-decoration="none" transform="matrix(1 0 0 1 2508.49 1703)">Port 8080</text><g><g><g><path d="M1322.84 1709.49 1358.04 1709.49 1358.04 1674.29 1322.84 1674.29 1322.84 1709.49ZM1318.97 1715.61 1318.97 1721.95 1325.85 1721.95 1325.85 1716.37 1330.99 1716.37 1330.99 1721.95 1337.87 1721.95 1337.87 1716.37 1343.01 1716.37 1343.01 1721.95 1349.89 1721.95 1349.89 1716.37 1355.03 1716.37 1355.03 1721.95 1361.91 1721.95 1361.91 1715.61C1362.85 1715.08 1363.63 1714.31 1364.16 1713.36L1370.49 1713.36 1370.49 1706.49 1364.91 1706.49 1364.91 1701.34 1370.49 1701.34 1370.49 1694.47 1364.91 1694.47 1364.91 1689.32 1370.49 1689.32 1370.49 1682.44 1364.91 1682.44 1364.91 1677.3 1370.49 1677.3 1370.49 1670.42 1364.16 1670.42C1363.63 1669.48 1362.85 1668.7 1361.91 1668.17L1361.91 1661.84 1355.03 1661.84 1355.03 1667.42 1349.89 1667.42 1349.89 1661.84 1343.01 1661.84 1343.01 1667.42 1337.87 1667.42 1337.87 1661.84 1330.99 1661.84 1330.99 1667.42 1325.85 1667.42 1325.85 1661.84 1318.97 1661.84 1318.97 1668.17C1318.02 1668.7 1317.25 1669.48 1316.72 1670.42L1310.39 1670.42 1310.39 1677.3 1315.97 1677.3 1315.97 1682.44 1310.39 1682.44 1310.39 1689.32 1315.97 1689.32 1315.97 1694.47 1310.39 1694.47 1310.39 1701.34 1315.97 1701.34 1315.97 1706.49 1310.39 1706.49 1310.39 1713.36 1316.72 1713.36C1317.25 1714.31 1318.02 1715.08 1318.97 1715.61ZM1394.1 1724.95 1400.98 1724.95 1400.98 1658.84 1394.1 1658.84 1394.1 1724.95ZM1376.07 1724.95 1382.94 1724.95 1382.94 1658.84 1376.07 1658.84 1376.07 1724.95ZM1297.93 1724.95 1304.81 1724.95 1304.81 1658.84 1297.93 1658.84 1297.93 1724.95ZM1279.9 1724.95 1286.78 1724.95 1286.78 1658.84 1279.9 1658.84 1279.9 1724.95ZM1271.75 1733.53 1409.13 1733.53 1409.13 1650.25 1271.75 1650.25 1271.75 1733.53ZM1412.56 1643.38 1268.31 1643.38C1266.42 1643.38 1264.88 1644.91 1264.88 1646.81L1264.88 1736.97C1264.88 1738.87 1266.42 1740.41 1268.31 1740.41L1412.56 1740.41C1414.46 1740.41 1416 1738.87 1416 1736.97L1416 1646.81C1416 1644.91 1414.46 1643.38 1412.56 1643.38Z" fill="#FF9900" fill-rule="evenodd" fill-opacity="1"/></g></g></g><text fill="#000000" fill-opacity="1" font-family="Arial,Arial_MSFontService,sans-serif" font-style="normal" font-variant="normal" font-weight="400" font-stretch="normal" font-size="50" text-anchor="start" direction="ltr" writing-mode="lr-tb" unicode-bidi="normal" text-decoration="none" transform="matrix(1 0 0 1 1237.31 1805)">Container</text><path d="M1434 1693.5C1434 1677.21 1447.21 1664 1463.5 1664 1479.79 1664 1493 1677.21 1493 1693.5 1493 1709.79 1479.79 1723 1463.5 1723 1447.21 1723 1434 1709.79 1434 1693.5Z" fill="#BFBFBF" fill-rule="evenodd" fill-opacity="1"/><text fill="#000000" fill-opacity="1" font-family="Arial,Arial_MSFontService,sans-serif" font-style="normal" font-variant="normal" font-weight="400" font-stretch="normal" font-size="50" text-anchor="start" direction="ltr" writing-mode="lr-tb" unicode-bidi="normal" text-decoration="none" transform="matrix(1 0 0 1 1513.96 1713)">Port 8080</text><g><g><g><path d="M0 0 136 0 136 136 0 136Z" fill="#ED7100" fill-rule="evenodd" fill-opacity="1" transform="matrix(1 0 0 1 1089 1938)"/><path d="M88.3999 96.0889 88.3999 87.8508 93.4998 85.8108 93.4998 94.049 88.3999 96.0889ZM79.8999 85.8108 84.9999 87.8508 84.9999 96.0889 79.8999 94.049 79.8999 85.8108ZM69.6999 107.989 69.6999 99.7507 74.7999 97.7107 74.7999 105.949 69.6999 107.989ZM61.1999 97.7107 66.2999 99.7507 66.2999 107.989 61.1999 105.949 61.1999 97.7107ZM50.9999 96.0889 50.9999 87.8508 56.0999 85.8108 56.0999 94.049 50.9999 96.0889ZM42.4999 85.8108 47.5999 87.8508 47.5999 96.0889 42.4999 94.049 42.4999 85.8108ZM49.2999 81.7308 53.2235 83.2999 49.2999 84.869 45.3763 83.2999 49.2999 81.7308ZM67.9999 93.6307 71.9235 95.1998 67.9999 96.7689 64.0763 95.1998 67.9999 93.6307ZM86.6999 81.7308 90.6235 83.2999 86.6999 84.869 82.7763 83.2999 86.6999 81.7308ZM95.8305 81.7206 87.3306 78.3206C86.926 78.1608 86.4738 78.1608 86.0692 78.3206L77.5692 81.7206C76.9232 81.9807 76.4999 82.6046 76.4999 83.2999L76.4999 93.3689 68.6306 90.2206C68.226 90.0608 67.7738 90.0608 67.3692 90.2206L59.4999 93.3689 59.4999 83.2999C59.4999 82.6046 59.0766 81.9807 58.4306 81.7206L49.9306 78.3206C49.526 78.1608 49.0738 78.1608 48.6692 78.3206L40.1692 81.7206C39.5232 81.9807 39.0999 82.6046 39.0999 83.2999L39.0999 95.1998C39.0999 95.8951 39.5232 96.519 40.1692 96.7791L48.6692 100.179C48.8715 100.259 49.0857 100.3 49.2999 100.3 49.5141 100.3 49.7283 100.259 49.9306 100.179L57.7999 97.0307 57.7999 107.1C57.7999 107.795 58.2232 108.419 58.8692 108.679L67.3692 112.079C67.5715 112.159 67.7857 112.2 67.9999 112.2 68.2141 112.2 68.4283 112.159 68.6306 112.079L77.1306 108.679C77.7766 108.419 78.1999 107.795 78.1999 107.1L78.1999 97.0307 86.0692 100.179C86.2715 100.259 86.4857 100.3 86.6999 100.3 86.9141 100.3 87.1283 100.259 87.3306 100.179L95.8305 96.7791C96.4765 96.519 96.8998 95.8951 96.8998 95.1998L96.8998 83.2999C96.8998 82.6046 96.4765 81.9807 95.8305 81.7206ZM110.5 61.0945C110.5 71.031 88.6021 76.3945 67.9999 76.3945 47.3976 76.3945 25.5 71.031 25.5 61.0945 25.5 56.3498 30.7614 52.1729 40.3154 49.3322L41.2844 52.5911C33.6446 54.8623 28.9 58.1212 28.9 61.0945 28.9 66.7232 44.9564 72.9945 67.9999 72.9945 91.0434 72.9945 107.1 66.7232 107.1 61.0945 107.1 58.1212 102.355 54.8623 94.7153 52.5911L95.6843 49.3322C105.238 52.1729 110.5 56.3498 110.5 61.0945ZM67.9999 29.0207 85.3637 35.6999 67.9999 42.3792 50.6361 35.6999 67.9999 29.0207ZM85.9859 62.6313C82.7797 64.0661 77.3975 65.7372 69.6999 65.9616L69.6999 45.3678 88.3999 38.1768 88.3999 58.9015C88.3999 60.5182 87.4547 61.9819 85.9859 62.6313ZM47.5999 58.9015 47.5999 38.1768 66.2999 45.3678 66.2999 65.9616C58.6023 65.7372 53.2201 64.0661 50.0071 62.6279 48.5451 61.9819 47.5999 60.5182 47.5999 58.9015ZM48.6267 65.7338C52.3684 67.4083 58.7672 69.4058 67.9999 69.4058 77.2326 69.4058 83.6314 67.4083 87.368 65.7372 90.0608 64.5455 91.7999 61.8629 91.7999 58.9015L91.7999 35.6999C91.7999 34.9961 91.3663 34.3654 90.7102 34.1121L68.6102 25.6122C68.2158 25.4626 67.784 25.4626 67.3896 25.6122L45.2896 34.1121C44.6334 34.3654 44.1999 34.9961 44.1999 35.6999L44.1999 58.9015C44.1999 61.8629 45.939 64.5455 48.6267 65.7338Z" fill="#FFFFFF" fill-rule="evenodd" fill-opacity="1" transform="matrix(1 0 0 1 1089 1938)"/></g></g></g><g><g><g><path d="M369 194 491 194 491 316 369 316Z" fill="#8C4FFF" fill-rule="evenodd" fill-opacity="1"/><path d="M463.461 258.14 454.481 254.287 454.481 286.279C462.244 285.205 463.424 277.226 463.473 276.863L463.461 258.14ZM451.431 286.322 451.431 254.266 442.175 258.149 442.175 277.062C442.214 277.226 443.532 285.501 451.431 286.322ZM452.365 250.569C452.743 250.408 453.176 250.411 453.557 250.573L465.586 255.733C466.148 255.974 466.51 256.523 466.51 257.133L466.51 277.062C465.952 281.475 462.372 289.454 452.703 289.454 443.324 289.454 439.728 281.487 439.137 277.272L439.125 257.133C439.125 256.52 439.494 255.965 440.058 255.727L452.365 250.569ZM469.597 252.512 452.941 245.174 436.075 252.271 436.075 274.012C436.072 274.14 435.91 282.759 441.128 288.112 443.925 290.982 447.82 292.44 452.703 292.44 457.589 292.44 461.509 290.979 464.351 288.103 469.643 282.741 469.597 274.118 469.597 274.033L469.597 252.512ZM466.538 290.229C463.101 293.718 458.443 295.49 452.703 295.49 446.957 295.49 442.321 293.718 438.926 290.223 432.811 283.93 433.012 274.372 433.025 273.969L433.025 251.259C433.025 250.646 433.391 250.091 433.955 249.853L452.362 242.106C452.749 241.947 453.188 241.944 453.569 242.118L471.735 250.124C472.29 250.368 472.647 250.914 472.647 251.518L472.647 274.012C472.653 274.393 472.729 283.94 466.538 290.229ZM402.525 267.921 426.925 267.921 426.925 270.971 402.525 270.971C393.951 270.971 387.851 264.822 387.339 255.672 387.302 255.334 387.299 254.925 387.299 254.516 387.299 246.864 391.319 241.636 398.941 239.33 398.883 238.638 398.843 237.909 398.843 237.357 398.843 228.463 403.653 220.749 411.095 217.699 421.154 213.588 432.573 214.973 438.868 221.067 441.141 223.275 442.907 225.77 444.236 228.646 446.094 227.274 448.506 226.63 451.401 226.773 456.83 227.048 461.005 231.998 461.871 238.995 466.44 239.373 469.451 241.688 471.052 246.034L468.194 247.089C466.889 243.561 464.51 241.987 460.475 241.987 459.666 241.987 458.998 241.358 458.95 240.553 458.529 233.422 454.661 229.991 451.245 229.82 448.363 229.659 446.228 230.488 444.904 232.233 444.566 232.675 444.035 232.895 443.462 232.821 442.913 232.736 442.449 232.361 442.257 231.836 441.025 228.472 439.222 225.666 436.746 223.254 431.292 217.977 421.221 216.852 412.251 220.524 405.959 223.101 401.893 229.707 401.893 237.357 401.893 238.189 402 239.48 402.094 240.282 402.186 241.047 401.695 241.758 400.948 241.941 393.914 243.686 390.349 247.916 390.349 254.516 390.349 254.824 390.346 255.129 390.376 255.437 390.806 263.047 395.571 267.921 402.525 267.921Z" fill="#FFFFFF" fill-rule="evenodd" fill-opacity="1"/></g></g></g><g><g><g><path d="M1005 275 1127 275 1127 397 1005 397Z" fill="#7AA116" fill-rule="evenodd" fill-opacity="1"/><path d="M1064.58 342.249C1067.96 342.249 1070.7 344.991 1070.7 348.365 1070.7 351.738 1067.96 354.483 1064.58 354.483 1061.21 354.483 1058.47 351.738 1058.47 348.365 1058.47 344.991 1061.21 342.249 1064.58 342.249L1064.58 342.249ZM1062.99 357.371 1062.99 368.028 1066.04 368.028 1066.04 357.387C1070.4 356.685 1073.75 352.924 1073.75 348.365 1073.75 343.311 1069.64 339.199 1064.58 339.199 1059.53 339.199 1055.42 343.311 1055.42 348.365 1055.42 352.873 1058.69 356.609 1062.99 357.371ZM1035.5 375.693 1093.49 375.693 1093.49 329.9 1035.5 329.9 1035.5 375.693ZM1047.84 313.076C1047.84 303.853 1055.34 296.35 1064.56 296.35 1073.79 296.35 1081.29 303.853 1081.29 313.076L1081.29 326.85 1047.84 326.85 1047.84 313.076ZM1095.01 326.85 1084.34 326.85 1084.34 313.076C1084.34 302.169 1075.46 293.3 1064.56 293.3 1053.66 293.3 1044.79 302.169 1044.79 313.076L1044.79 326.85 1033.98 326.85C1033.13 326.85 1032.45 327.533 1032.45 328.375L1032.45 377.218C1032.45 378.06 1033.13 378.743 1033.98 378.743L1095.01 378.743C1095.85 378.743 1096.54 378.06 1096.54 377.218L1096.54 328.375C1096.54 327.533 1095.85 326.85 1095.01 326.85Z" fill="#FFFFFF" fill-rule="evenodd" fill-opacity="1"/></g></g></g><g><g><g><path d="M2013 275 2135 275 2135 397 2013 397Z" fill="#7AA116" fill-rule="evenodd" fill-opacity="1"/><path d="M2072.58 342.249C2075.96 342.249 2078.7 344.991 2078.7 348.365 2078.7 351.738 2075.96 354.483 2072.58 354.483 2069.21 354.483 2066.47 351.738 2066.47 348.365 2066.47 344.991 2069.21 342.249 2072.58 342.249L2072.58 342.249ZM2070.99 357.371 2070.99 368.028 2074.04 368.028 2074.04 357.387C2078.4 356.685 2081.75 352.924 2081.75 348.365 2081.75 343.311 2077.64 339.199 2072.58 339.199 2067.53 339.199 2063.42 343.311 2063.42 348.365 2063.42 352.873 2066.69 356.609 2070.99 357.371ZM2043.5 375.693 2101.49 375.693 2101.49 329.9 2043.5 329.9 2043.5 375.693ZM2055.84 313.076C2055.84 303.853 2063.34 296.35 2072.56 296.35 2081.79 296.35 2089.29 303.853 2089.29 313.076L2089.29 326.85 2055.84 326.85 2055.84 313.076ZM2103.01 326.85 2092.34 326.85 2092.34 313.076C2092.34 302.169 2083.46 293.3 2072.56 293.3 2061.66 293.3 2052.79 302.169 2052.79 313.076L2052.79 326.85 2041.97 326.85C2041.13 326.85 2040.45 327.533 2040.45 328.375L2040.45 377.218C2040.45 378.06 2041.13 378.743 2041.97 378.743L2103.01 378.743C2103.85 378.743 2104.54 378.06 2104.54 377.218L2104.54 328.375C2104.54 327.533 2103.85 326.85 2103.01 326.85Z" fill="#FFFFFF" fill-rule="evenodd" fill-opacity="1"/></g></g></g><rect x="1089.5" y="668.5" width="1742" height="266" stroke="#8C4EFF" stroke-width="4.58333" stroke-linecap="butt" stroke-linejoin="miter" stroke-miterlimit="8" stroke-opacity="1" fill="#8C4EFF" fill-opacity="0.2"/><text fill="#000000" fill-opacity="1" font-family="Arial,Arial_MSFontService,sans-serif" font-style="normal" font-variant="normal" font-weight="400" font-stretch="normal" font-size="50" text-anchor="start" direction="ltr" writing-mode="lr-tb" unicode-bidi="normal" text-decoration="none" transform="matrix(1 0 0 1 1252.44 758)">NLB</text><path d="M1435 941.5C1435 925.208 1448.21 912 1464.5 912 1480.79 912 1494 925.208 1494 941.5 1494 957.792 1480.79 971 1464.5 971 1448.21 971 1435 957.792 1435 941.5Z" fill="#8C4EFF" fill-rule="evenodd" fill-opacity="1"/><path d="M2436 668.5C2436 652.208 2449.21 639 2465.5 639 2481.79 639 2495 652.208 2495 668.5 2495 684.793 2481.79 698 2465.5 698 2449.21 698 2436 684.793 2436 668.5Z" fill="#8C4EFF" fill-rule="evenodd" fill-opacity="1"/><path d="M2438 938.5C2438 922.208 2450.98 909 2467 909 2483.02 909 2496 922.208 2496 938.5 2496 954.792 2483.02 968 2467 968 2450.98 968 2438 954.792 2438 938.5Z" fill="#8C4EFF" fill-rule="evenodd" fill-opacity="1"/><g><g><g><path d="M1089 668 1225 668 1225 804 1089 804Z" fill="#8C4FFF" fill-rule="evenodd" fill-opacity="1"/><path d="M1140 758.1C1127.81 758.1 1117.9 748.186 1117.9 736 1117.9 723.814 1127.81 713.9 1140 713.9 1152.19 713.9 1162.1 723.814 1162.1 736 1162.1 748.186 1152.19 758.1 1140 758.1M1191 768.3C1191 772.05 1187.95 775.1 1184.2 775.1 1180.45 775.1 1177.4 772.05 1177.4 768.3 1177.4 764.55 1180.45 761.5 1184.2 761.5 1187.95 761.5 1191 764.55 1191 768.3M1184.2 696.9C1187.95 696.9 1191 699.95 1191 703.7 1191 707.45 1187.95 710.5 1184.2 710.5 1180.45 710.5 1177.4 707.45 1177.4 703.7 1177.4 699.95 1180.45 696.9 1184.2 696.9M1189.3 729.2C1193.05 729.2 1196.1 732.25 1196.1 736 1196.1 739.75 1193.05 742.8 1189.3 742.8 1185.55 742.8 1182.5 739.75 1182.5 736 1182.5 732.25 1185.55 729.2 1189.3 729.2M1165.41 737.7 1179.25 737.7C1180.07 742.516 1184.26 746.2 1189.3 746.2 1194.93 746.2 1199.5 741.625 1199.5 736 1199.5 730.375 1194.93 725.8 1189.3 725.8 1184.26 725.8 1180.07 729.484 1179.25 734.3L1165.41 734.3C1165.2 731.068 1164.38 728.005 1163.07 725.212L1178.16 711.899C1179.85 713.15 1181.94 713.9 1184.2 713.9 1189.83 713.9 1194.4 709.325 1194.4 703.7 1194.4 698.075 1189.83 693.5 1184.2 693.5 1178.57 693.5 1174 698.075 1174 703.7 1174 705.835 1174.66 707.816 1175.79 709.456L1161.39 722.16C1156.84 715.155 1148.96 710.5 1140 710.5 1125.94 710.5 1114.5 721.939 1114.5 736 1114.5 750.061 1125.94 761.5 1140 761.5 1148.96 761.5 1156.84 756.845 1161.39 749.84L1175.79 762.544C1174.66 764.184 1174 766.165 1174 768.3 1174 773.925 1178.57 778.5 1184.2 778.5 1189.83 778.5 1194.4 773.925 1194.4 768.3 1194.4 762.675 1189.83 758.1 1184.2 758.1 1181.94 758.1 1179.85 758.85 1178.16 760.101L1163.07 746.788C1164.38 743.995 1165.2 740.932 1165.41 737.7" fill="#FFFFFF" fill-rule="evenodd" fill-opacity="1"/></g></g></g><g><g><g><path d="M0 0 122 0 122 122 0 122Z" fill="#7AA116" fill-rule="evenodd" fill-opacity="1" transform="matrix(1 0 0 1 1005 2139)"/><path d="M59.5846 67.2493C62.9579 67.2493 65.7029 69.9912 65.7029 73.3645 65.7029 76.7378 62.9579 79.4828 59.5846 79.4828 56.2113 79.4828 53.4664 76.7378 53.4664 73.3645 53.4664 69.9912 56.2113 67.2493 59.5846 67.2493L59.5846 67.2493ZM57.9864 82.3711 57.9864 93.0278 61.0364 93.0278 61.0364 82.3864C65.3979 81.6849 68.7529 77.9242 68.7529 73.3645 68.7529 68.3107 64.6385 64.1993 59.5846 64.1993 54.5308 64.1993 50.4164 68.3107 50.4164 73.3645 50.4164 77.8724 53.6921 81.6086 57.9864 82.3711ZM30.4999 100.692 88.4864 100.692 88.4864 54.8999 30.4999 54.8999 30.4999 100.692ZM42.8402 38.0761C42.8402 28.8529 50.3432 21.3499 59.5633 21.3499 68.7865 21.3499 76.2864 28.8529 76.2864 38.0761L76.2864 51.8499 42.8402 51.8499 42.8402 38.0761ZM90.0114 51.8499 79.3364 51.8499 79.3364 38.0761C79.3364 27.1693 70.464 18.3 59.5633 18.3 48.6596 18.3 39.7902 27.1693 39.7902 38.0761L39.7902 51.8499 28.9749 51.8499C28.1301 51.8499 27.4499 52.5331 27.4499 53.3749L27.4499 102.217C27.4499 103.059 28.1301 103.742 28.9749 103.742L90.0114 103.742C90.8532 103.742 91.5364 103.059 91.5364 102.217L91.5364 53.3749C91.5364 52.5331 90.8532 51.8499 90.0114 51.8499Z" fill="#FFFFFF" fill-rule="evenodd" fill-opacity="1" transform="matrix(1 0 0 1 1005 2139)"/></g></g></g><g><g><g><path d="M0 0 122 0 122 122 0 122Z" fill="#7AA116" fill-rule="evenodd" fill-opacity="1" transform="matrix(1 0 0 1.0082 2013 2137)"/><path d="M59.5848 67.2495C62.9581 67.2495 65.7031 69.9914 65.7031 73.3647 65.7031 76.738 62.9581 79.483 59.5848 79.483 56.2115 79.483 53.4665 76.738 53.4665 73.3647 53.4665 69.9914 56.2115 67.2495 59.5848 67.2495L59.5848 67.2495ZM57.9866 82.3714 57.9866 93.0281 61.0366 93.0281 61.0366 82.3866C65.3981 81.6851 68.7531 77.9245 68.7531 73.3647 68.7531 68.3109 64.6387 64.1995 59.5848 64.1995 54.531 64.1995 50.4165 68.3109 50.4165 73.3647 50.4165 77.8726 53.6922 81.6089 57.9866 82.3714ZM30.5 100.693 88.4866 100.693 88.4866 54.9 30.5 54.9 30.5 100.693ZM42.8403 38.0762C42.8403 28.853 50.3433 21.35 59.5635 21.35 68.7867 21.35 76.2866 28.853 76.2866 38.0762L76.2866 51.85 42.8403 51.85 42.8403 38.0762ZM90.0116 51.85 79.3366 51.85 79.3366 38.0762C79.3366 27.1694 70.4642 18.3 59.5635 18.3 48.6597 18.3 39.7903 27.1694 39.7903 38.0762L39.7903 51.85 28.975 51.85C28.1302 51.85 27.45 52.5332 27.45 53.375L27.45 102.218C27.45 103.06 28.1302 103.743 28.975 103.743L90.0116 103.743C90.8534 103.743 91.5366 103.06 91.5366 102.218L91.5366 53.375C91.5366 52.5332 90.8534 51.85 90.0116 51.85Z" fill="#FFFFFF" fill-rule="evenodd" fill-opacity="1" transform="matrix(1 0 0 1.0082 2013 2137)"/></g></g></g><rect x="1089.5" y="1159.5" width="1742" height="255" stroke="#8C4EFF" stroke-width="4.58333" stroke-linecap="butt" stroke-linejoin="miter" stroke-miterlimit="8" stroke-opacity="1" fill="#8C4EFF" fill-opacity="0.2"/><text fill="#000000" fill-opacity="1" font-family="Arial,Arial_MSFontService,sans-serif" font-style="normal" font-variant="normal" font-weight="400" font-stretch="normal" font-size="50" text-anchor="start" direction="ltr" writing-mode="lr-tb" unicode-bidi="normal" text-decoration="none" transform="matrix(1 0 0 1 1253.49 1246)">ALB</text><path d="M1435 1165.5C1435 1149.21 1448.21 1136 1464.5 1136 1480.79 1136 1494 1149.21 1494 1165.5 1494 1181.79 1480.79 1195 1464.5 1195 1448.21 1195 1435 1181.79 1435 1165.5Z" fill="#8C4EFF" fill-rule="evenodd" fill-opacity="1"/><path d="M2438 1165.5C2438 1149.21 2450.98 1136 2467 1136 2483.02 1136 2496 1149.21 2496 1165.5 2496 1181.79 2483.02 1195 2467 1195 2450.98 1195 2438 1181.79 2438 1165.5Z" fill="#8C4EFF" fill-rule="evenodd" fill-opacity="1"/><g><g><g><path d="M0 0 136 0 136 136 0 136Z" fill="#8C4FFF" fill-rule="evenodd" fill-opacity="1" transform="matrix(1 0 0 1 1089 1159)"/><path d="M50.9999 90.0999C38.8143 90.0999 28.9 80.1855 28.9 67.9999 28.9 55.8143 38.8143 45.8999 50.9999 45.8999 63.1855 45.8999 73.0999 55.8143 73.0999 67.9999 73.0999 80.1855 63.1855 90.0999 50.9999 90.0999M102 100.3C102 104.05 98.95 107.1 95.1998 107.1 91.4496 107.1 88.3999 104.05 88.3999 100.3 88.3999 96.5496 91.4496 93.4998 95.1998 93.4998 98.95 93.4998 102 96.5496 102 100.3M95.1998 28.9C98.95 28.9 102 31.9497 102 35.6999 102 39.4501 98.95 42.4999 95.1998 42.4999 91.4496 42.4999 88.3999 39.4501 88.3999 35.6999 88.3999 31.9497 91.4496 28.9 95.1998 28.9M100.3 61.1999C104.05 61.1999 107.1 64.2497 107.1 67.9999 107.1 71.7501 104.05 74.7999 100.3 74.7999 96.5496 74.7999 93.4998 71.7501 93.4998 67.9999 93.4998 64.2497 96.5496 61.1999 100.3 61.1999M76.4132 69.6999 90.2529 69.6999C91.0655 74.516 95.2559 78.1999 100.3 78.1999 105.925 78.1999 110.5 73.6252 110.5 67.9999 110.5 62.3746 105.925 57.7999 100.3 57.7999 95.2559 57.7999 91.0655 61.4838 90.2529 66.2999L76.4132 66.2999C76.199 63.0682 75.3847 60.0048 74.0723 57.2117L89.1581 43.899C90.8512 45.1502 92.9371 45.8999 95.1998 45.8999 100.825 45.8999 105.4 41.3252 105.4 35.6999 105.4 30.0746 100.825 25.5 95.1998 25.5 89.5746 25.5 84.9999 30.0746 84.9999 35.6999 84.9999 37.8351 85.6612 39.8156 86.7866 41.4561L72.3876 54.1602C67.8367 47.1545 59.9606 42.4999 50.9999 42.4999 36.9392 42.4999 25.5 53.9392 25.5 67.9999 25.5 82.0606 36.9392 93.4998 50.9999 93.4998 59.9606 93.4998 67.8367 88.8453 72.3876 81.8396L86.7866 94.5436C85.6612 96.1841 84.9999 98.1646 84.9999 100.3 84.9999 105.925 89.5746 110.5 95.1998 110.5 100.825 110.5 105.4 105.925 105.4 100.3 105.4 94.6745 100.825 90.0999 95.1998 90.0999 92.9371 90.0999 90.8512 90.8496 89.1581 92.1007L74.0723 78.7881C75.3847 75.995 76.199 72.9316 76.4132 69.6999" fill="#FFFFFF" fill-rule="evenodd" fill-opacity="1" transform="matrix(1 0 0 1 1089 1159)"/></g></g></g><path d="M1471.23 971.5 1471.23 1107.79 1459.77 1107.79 1459.77 971.5ZM1482.69 1102.06 1465.5 1136.44 1448.31 1102.06Z" fill="#BFBFBF" fill-rule="nonzero" fill-opacity="1"/><path d="M2473.23 968.5 2473.23 1107.83 2461.77 1107.83 2461.77 968.5ZM2484.69 1102.11 2467.5 1136.48 2450.31 1102.11Z" fill="#BFBFBF" fill-rule="nonzero" fill-opacity="1"/><path d="M1435 669.5C1435 653.208 1448.21 640 1464.5 640 1480.79 640 1494 653.208 1494 669.5 1494 685.792 1480.79 699 1464.5 699 1448.21 699 1435 685.792 1435 669.5Z" fill="#8C4EFF" fill-rule="evenodd" fill-opacity="1"/><path d="M1435 1419.5C1435 1403.21 1448.21 1390 1464.5 1390 1480.79 1390 1494 1403.21 1494 1419.5 1494 1435.79 1480.79 1449 1464.5 1449 1448.21 1449 1435 1435.79 1435 1419.5Z" fill="#8C4EFF" fill-rule="evenodd" fill-opacity="1"/><path d="M2435 1419.5C2435 1403.21 2447.98 1390 2464 1390 2480.02 1390 2493 1403.21 2493 1419.5 2493 1435.79 2480.02 1449 2464 1449 2447.98 1449 2435 1435.79 2435 1419.5Z" fill="#8C4EFF" fill-rule="evenodd" fill-opacity="1"/><path d="M5.72911-0.0256487 6.56553 186.804-4.89269 186.856-5.72911 0.0256487ZM17.9981 181.024 0.964665 215.475-16.3766 181.178Z" fill="#BFBFBF" fill-rule="nonzero" fill-opacity="1" transform="matrix(-1 0 0 1 1465.46 1449.5)"/><path d="M2470.23 1449.49 2470.44 1631.25 2458.98 1631.27 2458.77 1449.51ZM2481.89 1625.51 2464.74 1659.91 2447.51 1625.55Z" fill="#BFBFBF" fill-rule="nonzero" fill-opacity="1"/><path d="M1470.23 698.474 1471.06 884.524 1459.61 884.576 1458.77 698.526ZM1482.5 878.744 1465.46 913.196 1448.12 878.898Z" fill="#A266FF" fill-rule="nonzero" fill-opacity="0.301961"/><path d="M1486.82 684.925 2419.82 905.929 2417.18 917.078 1484.18 696.075ZM2416.89 893.458 2446.38 918.106 2408.96 926.907Z" fill="#A266FF" fill-rule="nonzero" fill-opacity="0.301961"/><path d="M2471.23 698.456 2472.64 881.381 2461.18 881.469 2459.77 698.544ZM2484.05 875.564 2467.13 910.07 2449.68 875.829Z" fill="#A266FF" fill-rule="nonzero" fill-opacity="0.301961"/><path d="M1.34624-5.56875 932.747 219.597 930.055 230.734-1.34624 5.56875ZM929.872 207.113 959.246 231.897 921.795 240.526Z" fill="#A266FF" fill-rule="nonzero" fill-opacity="0.301961" transform="matrix(-1 0 0 1 2444.75 689.5)"/><path d="M1471.23 1195.5 1471.23 1361.97 1459.77 1361.97 1459.77 1195.5ZM1482.69 1356.24 1465.5 1390.62 1448.31 1356.24Z" fill="#A266FF" fill-rule="nonzero" fill-opacity="0.301961"/><path d="M5.72855-0.0839567 8.16956 166.472-3.28754 166.64-5.72855 0.0839567ZM19.5427 160.575 2.86079 195.198-14.8286 161.079Z" fill="#A266FF" fill-rule="nonzero" fill-opacity="0.301961" transform="matrix(-1 0 0 1 2467.36 1195.5)"/><path d="M1.23657-5.59413 934.142 200.623 931.668 211.811-1.23657 5.59413ZM931.021 188.198 960.876 212.4 923.602 221.763Z" fill="#A266FF" fill-rule="nonzero" fill-opacity="0.301961" transform="matrix(-1 0 0 1 2446.38 1186.5)"/><path d="M1486.74 1180.91 2416.79 1387.03 2414.31 1398.21 1484.26 1192.09ZM2413.67 1374.6 2443.52 1398.82 2406.24 1408.16Z" fill="#A266FF" fill-rule="nonzero" fill-opacity="0.301961"/><path d="M723.5 520.771 1470.81 520.771 1470.81 612.074 1459.35 612.074 1459.35 526.5 1465.08 532.229 723.5 532.229ZM1482.27 606.345 1465.08 640.72 1447.89 606.345Z" fill="#BFBFBF" fill-rule="nonzero" fill-opacity="1"/><path d="M723.5 520.771 2471.58 520.771 2471.58 610.908 2460.12 610.908 2460.12 526.5 2465.85 532.229 723.5 532.229ZM2483.04 605.179 2465.85 639.554 2448.67 605.179Z" fill="#BFBFBF" fill-rule="nonzero" fill-opacity="1"/></g></g></svg>