<svg width="2415" height="1393" xmlns="http://www.w3.org/2000/svg" xmlns:xlink="http://www.w3.org/1999/xlink" xml:space="preserve" overflow="hidden"><defs><clipPath id="clip0"><rect x="174" y="119" width="2415" height="1393"/></clipPath><clipPath id="clip1"><rect x="878" y="1094" width="166" height="166"/></clipPath><clipPath id="clip2"><rect x="878" y="1094" width="166" height="166"/></clipPath><clipPath id="clip3"><rect x="878" y="1094" width="166" height="166"/></clipPath><clipPath id="clip4"><rect x="1454" y="1094" width="166" height="166"/></clipPath><clipPath id="clip5"><rect x="1454" y="1094" width="166" height="166"/></clipPath><clipPath id="clip6"><rect x="1454" y="1094" width="166" height="166"/></clipPath><clipPath id="clip7"><rect x="2014" y="1094" width="166" height="166"/></clipPath><clipPath id="clip8"><rect x="2014" y="1094" width="166" height="166"/></clipPath><clipPath id="clip9"><rect x="2014" y="1094" width="166" height="166"/></clipPath><clipPath id="clip10"><rect x="849" y="201" width="166" height="166"/></clipPath><clipPath id="clip11"><rect x="849" y="201" width="166" height="166"/></clipPath><clipPath id="clip12"><rect x="849" y="201" width="166" height="166"/></clipPath><clipPath id="clip13"><rect x="764" y="1347" width="156" height="156"/></clipPath><clipPath id="clip14"><rect x="764" y="1347" width="156" height="156"/></clipPath><clipPath id="clip15"><rect x="764" y="1347" width="156" height="156"/></clipPath></defs><g clip-path="url(#clip0)" transform="translate(-174 -119)"><rect x="849.5" y="1065.5" width="522" height="212" stroke="#FB9900" stroke-width="4.58333" stroke-linecap="butt" stroke-linejoin="miter" stroke-miterlimit="8" stroke-opacity="1" fill="#FB9900" fill-opacity="0.2"/><rect x="849.5" y="784.5" width="1657" height="150" stroke="#7F7F7F" stroke-width="4.58333" stroke-linecap="butt" stroke-linejoin="miter" stroke-miterlimit="8" stroke-opacity="1" fill="#BFBFBF" fill-opacity="0.2"/><rect x="765.5" y="122.5" width="1819" height="342" stroke="#A266FF" stroke-width="4.58333" stroke-linecap="butt" stroke-linejoin="miter" stroke-miterlimit="8" stroke-opacity="1" fill="#A266FF" fill-opacity="0.2"/><text fill="#000000" fill-opacity="1" font-family="Arial,Arial_MSFontService,sans-serif" font-style="normal" font-variant="normal" font-weight="400" font-stretch="normal" font-size="50" text-anchor="start" direction="ltr" writing-mode="lr-tb" unicode-bidi="normal" text-decoration="none" transform="matrix(1 0 0 1 1036.16 269)">Application Load Balancer distributes traffic evenly</text><text fill="#000000" fill-opacity="1" font-family="Arial,Arial_MSFontService,sans-serif" font-style="normal" font-variant="normal" font-weight="400" font-stretch="normal" font-size="50" text-anchor="start" direction="ltr" writing-mode="lr-tb" unicode-bidi="normal" text-decoration="none" transform="matrix(1 0 0 1 1036.16 330)">across target ports across all EC2 instances</text><path d="M229.5 275.771 707.636 275.771 707.636 287.23 229.5 287.229ZM701.906 264.313 736.281 281.5 701.906 298.688Z" fill="#BFBFBF" fill-rule="nonzero" fill-opacity="1"/><text fill="#000000" fill-opacity="1" font-family="Arial,Arial_MSFontService,sans-serif" font-style="normal" font-variant="normal" font-weight="400" font-stretch="normal" font-size="50" text-anchor="start" direction="ltr" writing-mode="lr-tb" unicode-bidi="normal" text-decoration="none" transform="matrix(1 0 0 1 509.17 252)">Port 80</text><path d="M736 281.5C736 265.208 749.208 252 765.5 252 781.792 252 795 265.208 795 281.5 795 297.792 781.792 311 765.5 311 749.208 311 736 297.792 736 281.5Z" fill="#A266FF" fill-rule="evenodd" fill-opacity="1"/><text fill="#000000" fill-opacity="1" font-family="Arial,Arial_MSFontService,sans-serif" font-style="normal" font-variant="normal" font-weight="400" font-stretch="normal" font-size="50" text-anchor="start" direction="ltr" writing-mode="lr-tb" unicode-bidi="normal" text-decoration="none" transform="matrix(1 0 0 1 223.622 341)">Traffic</text><rect x="765.5" y="624.5" width="1819" height="881" stroke="#FF9902" stroke-width="4.58333" stroke-linecap="butt" stroke-linejoin="miter" stroke-miterlimit="8" stroke-opacity="1" fill="none"/><text fill="#FF9902" fill-opacity="1" font-family="Arial,Arial_MSFontService,sans-serif" font-style="normal" font-variant="normal" font-weight="400" font-stretch="normal" font-size="55" text-anchor="start" direction="ltr" writing-mode="lr-tb" unicode-bidi="normal" text-decoration="none" transform="matrix(1 0 0 1 953.368 1450)">EC2 instance (hosting multiple containers)</text><path d="M1050.23 493.5 1050.23 717.25 1038.77 717.25 1038.77 493.5ZM1061.69 711.521 1044.5 745.896 1027.31 711.521Z" fill="#BFBFBF" fill-rule="nonzero" fill-opacity="1"/><path d="M1014 775C1014 758.984 1027.21 746 1043.5 746 1059.79 746 1073 758.984 1073 775 1073 791.016 1059.79 804 1043.5 804 1027.21 804 1014 791.016 1014 775Z" fill="#BFBFBF" fill-rule="evenodd" fill-opacity="1"/><text fill="#000000" fill-opacity="1" font-family="Arial,Arial_MSFontService,sans-serif" font-style="normal" font-variant="normal" font-weight="400" font-stretch="normal" font-size="50" text-anchor="start" direction="ltr" writing-mode="lr-tb" unicode-bidi="normal" text-decoration="none" transform="matrix(1 0 0 1 1089.31 736)">Port 32768</text><text fill="#000000" fill-opacity="1" font-family="Arial,Arial_MSFontService,sans-serif" font-style="normal" font-variant="normal" font-weight="400" font-stretch="normal" font-size="50" text-anchor="start" direction="ltr" writing-mode="lr-tb" unicode-bidi="normal" text-decoration="none" transform="matrix(1 0 0 1 1384.51 869)">Docker network bridge</text><path d="M1014 464C1014 447.984 1027.21 435 1043.5 435 1059.79 435 1073 447.984 1073 464 1073 480.016 1059.79 493 1043.5 493 1027.21 493 1014 480.016 1014 464Z" fill="#A266FF" fill-rule="evenodd" fill-opacity="1"/><g clip-path="url(#clip1)"><g clip-path="url(#clip2)"><g clip-path="url(#clip3)"><path d="M943.841 1194.49 979.038 1194.49 979.038 1159.29 943.841 1159.29 943.841 1194.49ZM939.971 1200.61 939.971 1206.95 946.846 1206.95 946.846 1201.37 951.992 1201.37 951.992 1206.95 958.867 1206.95 958.867 1201.37 964.013 1201.37 964.013 1206.95 970.888 1206.95 970.888 1201.37 976.034 1201.37 976.034 1206.95 982.909 1206.95 982.909 1200.61C983.851 1200.08 984.627 1199.31 985.157 1198.36L991.492 1198.36 991.492 1191.49 985.913 1191.49 985.913 1186.34 991.492 1186.34 991.492 1179.47 985.913 1179.47 985.913 1174.32 991.492 1174.32 991.492 1167.44 985.913 1167.44 985.913 1162.3 991.492 1162.3 991.492 1155.42 985.157 1155.42C984.631 1154.48 983.851 1153.7 982.909 1153.17L982.909 1146.84 976.034 1146.84 976.034 1152.42 970.888 1152.42 970.888 1146.84 964.013 1146.84 964.013 1152.42 958.867 1152.42 958.867 1146.84 951.992 1146.84 951.992 1152.42 946.846 1152.42 946.846 1146.84 939.971 1146.84 939.971 1153.17C939.022 1153.7 938.249 1154.48 937.719 1155.42L931.387 1155.42 931.387 1162.3 936.966 1162.3 936.966 1167.44 931.387 1167.44 931.387 1174.32 936.966 1174.32 936.966 1179.47 931.387 1179.47 931.387 1186.34 936.966 1186.34 936.966 1191.49 931.387 1191.49 931.387 1198.36 937.719 1198.36C938.249 1199.31 939.022 1200.08 939.971 1200.61ZM1015.1 1209.95 1021.98 1209.95 1021.98 1143.84 1015.1 1143.84 1015.1 1209.95ZM997.068 1209.95 1003.94 1209.95 1003.94 1143.84 997.068 1143.84 997.068 1209.95ZM918.93 1209.95 925.805 1209.95 925.805 1143.84 918.93 1143.84 918.93 1209.95ZM900.9 1209.95 907.775 1209.95 907.775 1143.84 900.9 1143.84 900.9 1209.95ZM892.75 1218.53 1030.13 1218.53 1030.13 1135.25 892.75 1135.25 892.75 1218.53ZM1033.56 1128.38 889.312 1128.38C887.415 1128.38 885.875 1129.91 885.875 1131.81L885.875 1221.97C885.875 1223.87 887.415 1225.41 889.312 1225.41L1033.56 1225.41C1035.46 1225.41 1037 1223.87 1037 1221.97L1037 1131.81C1037 1129.91 1035.46 1128.38 1033.56 1128.38Z" fill="#FF9900" fill-rule="evenodd" fill-opacity="1"/></g></g></g><text fill="#000000" fill-opacity="1" font-family="Arial,Arial_MSFontService,sans-serif" font-style="normal" font-variant="normal" font-weight="400" font-stretch="normal" font-size="50" text-anchor="start" direction="ltr" writing-mode="lr-tb" unicode-bidi="normal" text-decoration="none" transform="matrix(1 0 0 1 1068.36 1193)">Container</text><path d="M1014 1068.5C1014 1052.21 1027.21 1039 1043.5 1039 1059.79 1039 1073 1052.21 1073 1068.5 1073 1084.79 1059.79 1098 1043.5 1098 1027.21 1098 1014 1084.79 1014 1068.5Z" fill="#FB9900" fill-rule="evenodd" fill-opacity="1"/><text fill="#000000" fill-opacity="1" font-family="Arial,Arial_MSFontService,sans-serif" font-style="normal" font-variant="normal" font-weight="400" font-stretch="normal" font-size="50" text-anchor="start" direction="ltr" writing-mode="lr-tb" unicode-bidi="normal" text-decoration="none" transform="matrix(1 0 0 1 1090.93 1034)">Port 80</text><path d="M1050.23 966.5 1050.23 1018.12 1038.77 1018.12 1038.77 966.5ZM1061.69 1012.39 1044.5 1046.77 1027.31 1012.39Z" fill="#BFBFBF" fill-rule="nonzero" fill-opacity="1"/><path d="M1014 936.5C1014 920.208 1027.21 907 1043.5 907 1059.79 907 1073 920.208 1073 936.5 1073 952.792 1059.79 966 1043.5 966 1027.21 966 1014 952.792 1014 936.5Z" fill="#BFBFBF" fill-rule="evenodd" fill-opacity="1"/><rect x="1424.5" y="1065.5" width="522" height="212" stroke="#FB9900" stroke-width="4.58333" stroke-linecap="butt" stroke-linejoin="miter" stroke-miterlimit="8" stroke-opacity="1" fill="#FB9900" fill-opacity="0.2"/><path d="M1625.23 493.5 1625.23 717.25 1613.77 717.25 1613.77 493.5ZM1636.69 711.521 1619.5 745.896 1602.31 711.521Z" fill="#BFBFBF" fill-rule="nonzero" fill-opacity="1"/><path d="M1589 775C1589 758.984 1602.21 746 1618.5 746 1634.79 746 1648 758.984 1648 775 1648 791.016 1634.79 804 1618.5 804 1602.21 804 1589 791.016 1589 775Z" fill="#BFBFBF" fill-rule="evenodd" fill-opacity="1"/><text fill="#000000" fill-opacity="1" font-family="Arial,Arial_MSFontService,sans-serif" font-style="normal" font-variant="normal" font-weight="400" font-stretch="normal" font-size="50" text-anchor="start" direction="ltr" writing-mode="lr-tb" unicode-bidi="normal" text-decoration="none" transform="matrix(1 0 0 1 1664.31 736)">Port 42922</text><path d="M1589 464C1589 447.984 1602.21 435 1618.5 435 1634.79 435 1648 447.984 1648 464 1648 480.016 1634.79 493 1618.5 493 1602.21 493 1589 480.016 1589 464Z" fill="#A266FF" fill-rule="evenodd" fill-opacity="1"/><g clip-path="url(#clip4)"><g clip-path="url(#clip5)"><g clip-path="url(#clip6)"><path d="M1518.84 1194.49 1554.04 1194.49 1554.04 1159.29 1518.84 1159.29 1518.84 1194.49ZM1514.97 1200.61 1514.97 1206.95 1521.85 1206.95 1521.85 1201.37 1526.99 1201.37 1526.99 1206.95 1533.87 1206.95 1533.87 1201.37 1539.01 1201.37 1539.01 1206.95 1545.89 1206.95 1545.89 1201.37 1551.03 1201.37 1551.03 1206.95 1557.91 1206.95 1557.91 1200.61C1558.85 1200.08 1559.63 1199.31 1560.16 1198.36L1566.49 1198.36 1566.49 1191.49 1560.91 1191.49 1560.91 1186.34 1566.49 1186.34 1566.49 1179.47 1560.91 1179.47 1560.91 1174.32 1566.49 1174.32 1566.49 1167.44 1560.91 1167.44 1560.91 1162.3 1566.49 1162.3 1566.49 1155.42 1560.16 1155.42C1559.63 1154.48 1558.85 1153.7 1557.91 1153.17L1557.91 1146.84 1551.03 1146.84 1551.03 1152.42 1545.89 1152.42 1545.89 1146.84 1539.01 1146.84 1539.01 1152.42 1533.87 1152.42 1533.87 1146.84 1526.99 1146.84 1526.99 1152.42 1521.85 1152.42 1521.85 1146.84 1514.97 1146.84 1514.97 1153.17C1514.02 1153.7 1513.25 1154.48 1512.72 1155.42L1506.39 1155.42 1506.39 1162.3 1511.97 1162.3 1511.97 1167.44 1506.39 1167.44 1506.39 1174.32 1511.97 1174.32 1511.97 1179.47 1506.39 1179.47 1506.39 1186.34 1511.97 1186.34 1511.97 1191.49 1506.39 1191.49 1506.39 1198.36 1512.72 1198.36C1513.25 1199.31 1514.02 1200.08 1514.97 1200.61ZM1590.1 1209.95 1596.98 1209.95 1596.98 1143.84 1590.1 1143.84 1590.1 1209.95ZM1572.07 1209.95 1578.94 1209.95 1578.94 1143.84 1572.07 1143.84 1572.07 1209.95ZM1493.93 1209.95 1500.81 1209.95 1500.81 1143.84 1493.93 1143.84 1493.93 1209.95ZM1475.9 1209.95 1482.78 1209.95 1482.78 1143.84 1475.9 1143.84 1475.9 1209.95ZM1467.75 1218.53 1605.13 1218.53 1605.13 1135.25 1467.75 1135.25 1467.75 1218.53ZM1608.56 1128.38 1464.31 1128.38C1462.42 1128.38 1460.88 1129.91 1460.88 1131.81L1460.88 1221.97C1460.88 1223.87 1462.42 1225.41 1464.31 1225.41L1608.56 1225.41C1610.46 1225.41 1612 1223.87 1612 1221.97L1612 1131.81C1612 1129.91 1610.46 1128.38 1608.56 1128.38Z" fill="#FF9900" fill-rule="evenodd" fill-opacity="1"/></g></g></g><text fill="#000000" fill-opacity="1" font-family="Arial,Arial_MSFontService,sans-serif" font-style="normal" font-variant="normal" font-weight="400" font-stretch="normal" font-size="50" text-anchor="start" direction="ltr" writing-mode="lr-tb" unicode-bidi="normal" text-decoration="none" transform="matrix(1 0 0 1 1643.35 1193)">Container</text><path d="M1589 1068.5C1589 1052.21 1602.21 1039 1618.5 1039 1634.79 1039 1648 1052.21 1648 1068.5 1648 1084.79 1634.79 1098 1618.5 1098 1602.21 1098 1589 1084.79 1589 1068.5Z" fill="#FB9900" fill-rule="evenodd" fill-opacity="1"/><text fill="#000000" fill-opacity="1" font-family="Arial,Arial_MSFontService,sans-serif" font-style="normal" font-variant="normal" font-weight="400" font-stretch="normal" font-size="50" text-anchor="start" direction="ltr" writing-mode="lr-tb" unicode-bidi="normal" text-decoration="none" transform="matrix(1 0 0 1 1665.93 1034)">Port 80</text><path d="M1625.23 966.5 1625.23 1018.12 1613.77 1018.12 1613.77 966.5ZM1636.69 1012.39 1619.5 1046.77 1602.31 1012.39Z" fill="#BFBFBF" fill-rule="nonzero" fill-opacity="1"/><path d="M1589 936.5C1589 920.208 1602.21 907 1618.5 907 1634.79 907 1648 920.208 1648 936.5 1648 952.792 1634.79 966 1618.5 966 1602.21 966 1589 952.792 1589 936.5Z" fill="#BFBFBF" fill-rule="evenodd" fill-opacity="1"/><rect x="1985.5" y="1065.5" width="521" height="212" stroke="#FB9900" stroke-width="4.58333" stroke-linecap="butt" stroke-linejoin="miter" stroke-miterlimit="8" stroke-opacity="1" fill="#FB9900" fill-opacity="0.2"/><path d="M2185.23 493.5 2185.23 717.25 2173.77 717.25 2173.77 493.5ZM2196.69 711.521 2179.5 745.896 2162.31 711.521Z" fill="#BFBFBF" fill-rule="nonzero" fill-opacity="1"/><path d="M2150 775C2150 758.984 2162.98 746 2179 746 2195.02 746 2208 758.984 2208 775 2208 791.016 2195.02 804 2179 804 2162.98 804 2150 791.016 2150 775Z" fill="#BFBFBF" fill-rule="evenodd" fill-opacity="1"/><text fill="#000000" fill-opacity="1" font-family="Arial,Arial_MSFontService,sans-serif" font-style="normal" font-variant="normal" font-weight="400" font-stretch="normal" font-size="50" text-anchor="start" direction="ltr" writing-mode="lr-tb" unicode-bidi="normal" text-decoration="none" transform="matrix(1 0 0 1 2224.65 736)">Port 33045</text><path d="M2150 464C2150 447.984 2162.98 435 2179 435 2195.02 435 2208 447.984 2208 464 2208 480.016 2195.02 493 2179 493 2162.98 493 2150 480.016 2150 464Z" fill="#A266FF" fill-rule="evenodd" fill-opacity="1"/><g clip-path="url(#clip7)"><g clip-path="url(#clip8)"><g clip-path="url(#clip9)"><path d="M2078.84 1194.49 2114.04 1194.49 2114.04 1159.29 2078.84 1159.29 2078.84 1194.49ZM2074.97 1200.61 2074.97 1206.95 2081.85 1206.95 2081.85 1201.37 2086.99 1201.37 2086.99 1206.95 2093.87 1206.95 2093.87 1201.37 2099.01 1201.37 2099.01 1206.95 2105.89 1206.95 2105.89 1201.37 2111.03 1201.37 2111.03 1206.95 2117.91 1206.95 2117.91 1200.61C2118.85 1200.08 2119.63 1199.31 2120.16 1198.36L2126.49 1198.36 2126.49 1191.49 2120.91 1191.49 2120.91 1186.34 2126.49 1186.34 2126.49 1179.47 2120.91 1179.47 2120.91 1174.32 2126.49 1174.32 2126.49 1167.44 2120.91 1167.44 2120.91 1162.3 2126.49 1162.3 2126.49 1155.42 2120.16 1155.42C2119.63 1154.48 2118.85 1153.7 2117.91 1153.17L2117.91 1146.84 2111.03 1146.84 2111.03 1152.42 2105.89 1152.42 2105.89 1146.84 2099.01 1146.84 2099.01 1152.42 2093.87 1152.42 2093.87 1146.84 2086.99 1146.84 2086.99 1152.42 2081.85 1152.42 2081.85 1146.84 2074.97 1146.84 2074.97 1153.17C2074.02 1153.7 2073.25 1154.48 2072.72 1155.42L2066.39 1155.42 2066.39 1162.3 2071.97 1162.3 2071.97 1167.44 2066.39 1167.44 2066.39 1174.32 2071.97 1174.32 2071.97 1179.47 2066.39 1179.47 2066.39 1186.34 2071.97 1186.34 2071.97 1191.49 2066.39 1191.49 2066.39 1198.36 2072.72 1198.36C2073.25 1199.31 2074.02 1200.08 2074.97 1200.61ZM2150.1 1209.95 2156.98 1209.95 2156.98 1143.84 2150.1 1143.84 2150.1 1209.95ZM2132.07 1209.95 2138.94 1209.95 2138.94 1143.84 2132.07 1143.84 2132.07 1209.95ZM2053.93 1209.95 2060.8 1209.95 2060.8 1143.84 2053.93 1143.84 2053.93 1209.95ZM2035.9 1209.95 2042.78 1209.95 2042.78 1143.84 2035.9 1143.84 2035.9 1209.95ZM2027.75 1218.53 2165.13 1218.53 2165.13 1135.25 2027.75 1135.25 2027.75 1218.53ZM2168.56 1128.38 2024.31 1128.38C2022.42 1128.38 2020.88 1129.91 2020.88 1131.81L2020.88 1221.97C2020.88 1223.87 2022.42 1225.41 2024.31 1225.41L2168.56 1225.41C2170.46 1225.41 2172 1223.87 2172 1221.97L2172 1131.81C2172 1129.91 2170.46 1128.38 2168.56 1128.38Z" fill="#FF9900" fill-rule="evenodd" fill-opacity="1"/></g></g></g><text fill="#000000" fill-opacity="1" font-family="Arial,Arial_MSFontService,sans-serif" font-style="normal" font-variant="normal" font-weight="400" font-stretch="normal" font-size="50" text-anchor="start" direction="ltr" writing-mode="lr-tb" unicode-bidi="normal" text-decoration="none" transform="matrix(1 0 0 1 2203.69 1193)">Container</text><path d="M2150 1068.5C2150 1052.21 2162.98 1039 2179 1039 2195.02 1039 2208 1052.21 2208 1068.5 2208 1084.79 2195.02 1098 2179 1098 2162.98 1098 2150 1084.79 2150 1068.5Z" fill="#FB9900" fill-rule="evenodd" fill-opacity="1"/><text fill="#000000" fill-opacity="1" font-family="Arial,Arial_MSFontService,sans-serif" font-style="normal" font-variant="normal" font-weight="400" font-stretch="normal" font-size="50" text-anchor="start" direction="ltr" writing-mode="lr-tb" unicode-bidi="normal" text-decoration="none" transform="matrix(1 0 0 1 2226.27 1034)">Port 80</text><path d="M2185.23 966.5 2185.23 1018.12 2173.77 1018.12 2173.77 966.5ZM2196.69 1012.39 2179.5 1046.77 2162.31 1012.39Z" fill="#BFBFBF" fill-rule="nonzero" fill-opacity="1"/><path d="M2150 936.5C2150 920.208 2162.98 907 2179 907 2195.02 907 2208 920.208 2208 936.5 2208 952.792 2195.02 966 2179 966 2162.98 966 2150 952.792 2150 936.5Z" fill="#BFBFBF" fill-rule="evenodd" fill-opacity="1"/><g clip-path="url(#clip10)"><g clip-path="url(#clip11)"><g clip-path="url(#clip12)"><path d="M964.809 319.164 972.87 319.164 972.87 311 964.809 311 964.809 319.164ZM940.957 319.164 949.121 319.164 949.121 311 940.957 311 940.957 319.164ZM913.886 319.164 922.05 319.164 922.05 311 913.886 311 913.886 319.164ZM890.133 319.164 897.988 319.164 897.988 311 890.133 311 890.133 319.164ZM910.878 259.008 952.128 259.008 952.128 238.813 910.878 238.813 910.878 259.008ZM976.308 304.125 971.035 304.125 971.035 292.524C971.035 290.623 969.495 289.086 967.597 289.086L959.003 289.086 959.003 277.484C959.003 275.584 957.464 274.047 955.566 274.047L934.941 274.047 934.941 265.883 955.566 265.883C957.464 265.883 959.003 264.346 959.003 262.445L959.003 235.375C959.003 233.474 957.464 231.938 955.566 231.938L907.441 231.938C905.54 231.938 904.003 233.474 904.003 235.375L904.003 262.445C904.003 264.346 905.54 265.883 907.441 265.883L928.066 265.883 928.066 274.047 907.441 274.047C905.54 274.047 904.003 275.584 904.003 277.484L904.003 289.086 895.41 289.086C893.509 289.086 891.972 290.623 891.972 292.524L891.972 304.125 886.692 304.125C884.795 304.125 883.255 305.662 883.255 307.563L883.255 322.602C883.255 324.503 884.795 326.039 886.692 326.039L901.425 326.039C903.323 326.039 904.863 324.503 904.863 322.602L904.863 307.563C904.863 305.662 903.323 304.125 901.425 304.125L898.847 304.125 898.847 295.961 913.027 295.961 913.027 304.125 910.449 304.125C908.548 304.125 907.011 305.662 907.011 307.563L907.011 322.602C907.011 324.503 908.548 326.039 910.449 326.039L925.488 326.039C927.385 326.039 928.925 324.503 928.925 322.602L928.925 307.563C928.925 305.662 927.385 304.125 925.488 304.125L919.902 304.125 919.902 292.524C919.902 290.623 918.362 289.086 916.464 289.086L910.878 289.086 910.878 280.922 952.128 280.922 952.128 289.086 946.543 289.086C944.642 289.086 943.105 290.623 943.105 292.524L943.105 304.125 937.519 304.125C935.618 304.125 934.082 305.662 934.082 307.563L934.082 322.602C934.082 324.503 935.618 326.039 937.519 326.039L952.558 326.039C954.456 326.039 955.996 324.503 955.996 322.602L955.996 307.563C955.996 305.662 954.456 304.125 952.558 304.125L949.98 304.125 949.98 295.961 964.16 295.961 964.16 304.125 961.372 304.125C959.471 304.125 957.934 305.662 957.934 307.563L957.934 322.602C957.934 324.503 959.471 326.039 961.372 326.039L976.308 326.039C978.205 326.039 979.745 324.503 979.745 322.602L979.745 307.563C979.745 305.662 978.205 304.125 976.308 304.125ZM931.503 352.25C893.591 352.25 862.75 321.409 862.75 283.5 862.75 245.591 893.591 214.75 931.503 214.75 969.412 214.75 1000.25 245.591 1000.25 283.5 1000.25 321.409 969.412 352.25 931.503 352.25ZM931.503 207.875C889.8 207.875 855.875 241.8 855.875 283.5 855.875 325.2 889.8 359.125 931.503 359.125 973.2 359.125 1007.13 325.2 1007.13 283.5 1007.13 241.8 973.2 207.875 931.503 207.875Z" fill="#A166FF" fill-rule="evenodd" fill-opacity="1"/></g></g></g><g clip-path="url(#clip13)"><g clip-path="url(#clip14)"><g clip-path="url(#clip15)"><path d="M765 1348 920 1348 920 1503 765 1503Z" fill="#FF9900" fill-rule="evenodd" fill-opacity="1"/><path d="M803.75 1460.37 877.375 1460.37 877.375 1386.75 803.75 1386.75 803.75 1460.37ZM892.875 1394.5 892.875 1390.62 881.25 1390.62 881.25 1384.81C881.25 1383.74 880.382 1382.87 879.312 1382.87L873.5 1382.87 873.5 1371.25 869.625 1371.25 869.625 1382.87 858 1382.87 858 1371.25 854.125 1371.25 854.125 1382.87 842.5 1382.87 842.5 1371.25 838.625 1371.25 838.625 1382.87 827 1382.87 827 1371.25 823.125 1371.25 823.125 1382.87 811.5 1382.87 811.5 1371.25 807.625 1371.25 807.625 1382.87 801.812 1382.87C800.743 1382.87 799.875 1383.74 799.875 1384.81L799.875 1390.62 788.25 1390.62 788.25 1394.5 799.875 1394.5 799.875 1406.12 788.25 1406.12 788.25 1410 799.875 1410 799.875 1421.62 788.25 1421.62 788.25 1425.5 799.875 1425.5 799.875 1437.12 788.25 1437.12 788.25 1441 799.875 1441 799.875 1452.62 788.25 1452.62 788.25 1456.5 799.875 1456.5 799.875 1462.31C799.875 1463.38 800.743 1464.25 801.812 1464.25L807.625 1464.25 807.625 1475.87 811.5 1475.87 811.5 1464.25 823.125 1464.25 823.125 1475.87 827 1475.87 827 1464.25 838.625 1464.25 838.625 1475.87 842.5 1475.87 842.5 1464.25 854.125 1464.25 854.125 1475.87 858 1475.87 858 1464.25 869.625 1464.25 869.625 1475.87 873.5 1475.87 873.5 1464.25 879.312 1464.25C880.382 1464.25 881.25 1463.38 881.25 1462.31L881.25 1456.5 892.875 1456.5 892.875 1452.62 881.25 1452.62 881.25 1441 892.875 1441 892.875 1437.12 881.25 1437.12 881.25 1425.5 892.875 1425.5 892.875 1421.62 881.25 1421.62 881.25 1410 892.875 1410 892.875 1406.12 881.25 1406.12 881.25 1394.5 892.875 1394.5Z" fill="#232F3E" fill-rule="evenodd" fill-opacity="1"/></g></g></g></g></svg>