<svg width="2516" height="1650" xmlns="http://www.w3.org/2000/svg" xmlns:xlink="http://www.w3.org/1999/xlink" xml:space="preserve" overflow="hidden"><defs><clipPath id="clip0"><rect x="73" y="114" width="2516" height="1650"/></clipPath><clipPath id="clip1"><rect x="1710" y="341" width="138" height="138"/></clipPath><clipPath id="clip2"><rect x="1710" y="341" width="138" height="138"/></clipPath><clipPath id="clip3"><rect x="1710" y="341" width="138" height="138"/></clipPath><clipPath id="clip4"><rect x="888" y="341" width="140" height="138"/></clipPath><clipPath id="clip5"><rect x="888" y="341" width="140" height="138"/></clipPath><clipPath id="clip6"><rect x="888" y="341" width="140" height="138"/></clipPath><clipPath id="clip7"><rect x="333" y="256" width="138" height="138"/></clipPath><clipPath id="clip8"><rect x="333" y="256" width="138" height="138"/></clipPath><clipPath id="clip9"><rect x="333" y="256" width="138" height="138"/></clipPath><clipPath id="clip10"><rect x="1034" y="1119" width="165" height="166"/></clipPath><clipPath id="clip11"><rect x="1034" y="1119" width="165" height="166"/></clipPath><clipPath id="clip12"><rect x="1034" y="1119" width="165" height="166"/></clipPath><clipPath id="clip13"><rect x="489" y="631" width="171" height="170"/></clipPath><clipPath id="clip14"><rect x="489" y="631" width="171" height="170"/></clipPath><clipPath id="clip15"><rect x="489" y="631" width="171" height="170"/></clipPath><clipPath id="clip16"><rect x="958" y="1423" width="138" height="138"/></clipPath><clipPath id="clip17"><rect x="958" y="1423" width="138" height="138"/></clipPath><clipPath id="clip18"><rect x="958" y="1423" width="138" height="138"/></clipPath><clipPath id="clip19"><rect x="1041" y="633" width="166" height="166"/></clipPath><clipPath id="clip20"><rect x="1041" y="633" width="166" height="166"/></clipPath><clipPath id="clip21"><rect x="1041" y="633" width="166" height="166"/></clipPath><clipPath id="clip22"><rect x="1306" y="1118" width="166" height="166"/></clipPath><clipPath id="clip23"><rect x="1306" y="1118" width="166" height="166"/></clipPath><clipPath id="clip24"><rect x="1306" y="1118" width="166" height="166"/></clipPath><clipPath id="clip25"><rect x="1839" y="1119" width="166" height="166"/></clipPath><clipPath id="clip26"><rect x="1839" y="1119" width="166" height="166"/></clipPath><clipPath id="clip27"><rect x="1839" y="1119" width="166" height="166"/></clipPath><clipPath id="clip28"><rect x="1764" y="1423" width="137" height="138"/></clipPath><clipPath id="clip29"><rect x="1764" y="1423" width="137" height="138"/></clipPath><clipPath id="clip30"><rect x="1764" y="1423" width="137" height="138"/></clipPath></defs><g clip-path="url(#clip0)" transform="translate(-73 -114)"><rect x="1712" y="340" width="761" height="1316" fill="#E2F0D9" fill-opacity="0.2"/><text fill="#6CAE3E" fill-opacity="1" font-family="Arial,Arial_MSFontService,sans-serif" font-style="normal" font-variant="normal" font-weight="400" font-stretch="normal" font-size="55" text-anchor="start" direction="ltr" writing-mode="lr-tb" unicode-bidi="normal" text-decoration="none" transform="matrix(1 0 0 1 1885.55 409)">Public subnet</text><g clip-path="url(#clip1)"><g clip-path="url(#clip2)"><g clip-path="url(#clip3)"><path d="M1711 341 1848 341 1848 478 1711 478Z" fill="#6CAE3E" fill-rule="evenodd" fill-opacity="1"/><path d="M1777.91 416.518C1781.7 416.518 1784.78 419.597 1784.78 423.385 1784.78 427.173 1781.7 430.256 1777.91 430.256 1774.12 430.256 1771.04 427.173 1771.04 423.385 1771.04 419.597 1774.12 416.518 1777.91 416.518L1777.91 416.518ZM1776.12 433.499 1776.12 445.466 1779.54 445.466 1779.54 433.516C1784.44 432.728 1788.21 428.505 1788.21 423.385 1788.21 417.71 1783.59 413.093 1777.91 413.093 1772.24 413.093 1767.62 417.71 1767.62 423.385 1767.62 428.447 1771.29 432.643 1776.12 433.499ZM1745.25 454.073 1810.37 454.073 1810.37 402.65 1745.25 402.65 1745.25 454.073ZM1759.11 383.758C1759.11 373.401 1767.53 364.975 1777.89 364.975 1788.24 364.975 1796.67 373.401 1796.67 383.758L1796.67 399.225 1759.11 399.225 1759.11 383.758ZM1812.08 399.225 1800.09 399.225 1800.09 383.758C1800.09 371.51 1790.13 361.55 1777.89 361.55 1765.64 361.55 1755.68 371.51 1755.68 383.758L1755.68 399.225 1743.54 399.225C1742.59 399.225 1741.82 399.992 1741.82 400.938L1741.82 455.786C1741.82 456.731 1742.59 457.498 1743.54 457.498L1812.08 457.498C1813.02 457.498 1813.79 456.731 1813.79 455.786L1813.79 400.938C1813.79 399.992 1813.02 399.225 1812.08 399.225Z" fill="#232F3E" fill-rule="evenodd" fill-opacity="1"/></g></g></g><rect x="890" y="340" width="761" height="1316" fill="#E2F0D9" fill-opacity="0.2"/><text fill="#6CAE3E" fill-opacity="1" font-family="Arial,Arial_MSFontService,sans-serif" font-style="normal" font-variant="normal" font-weight="400" font-stretch="normal" font-size="55" text-anchor="start" direction="ltr" writing-mode="lr-tb" unicode-bidi="normal" text-decoration="none" transform="matrix(1 0 0 1 1063.83 409)">Public subnet</text><g clip-path="url(#clip4)"><g clip-path="url(#clip5)"><g clip-path="url(#clip6)"><path d="M0 0 137 0 137 137 0 137Z" fill="#6CAE3E" fill-rule="evenodd" fill-opacity="1" transform="matrix(1.0073 0 0 1 889 341)"/><path d="M66.9109 75.5179C70.6989 75.5179 73.7814 78.597 73.7814 82.385 73.7814 86.1731 70.6989 89.2556 66.9109 89.2556 63.1228 89.2556 60.0403 86.1731 60.0403 82.385 60.0403 78.597 63.1228 75.5179 66.9109 75.5179L66.9109 75.5179ZM65.1162 92.4991 65.1162 104.466 68.5412 104.466 68.5412 92.5162C73.4389 91.7285 77.2064 87.5054 77.2064 82.385 77.2064 76.7098 72.5861 72.0929 66.9109 72.0929 61.2356 72.0929 56.6153 76.7098 56.6153 82.385 56.6153 87.4472 60.2938 91.6428 65.1162 92.4991ZM34.25 113.073 99.3662 113.073 99.3662 61.6501 34.25 61.6501 34.25 113.073ZM48.1076 42.7578C48.1076 32.4005 56.5331 23.975 66.8869 23.975 77.2441 23.975 85.6662 32.4005 85.6662 42.7578L85.6662 58.2251 48.1076 58.2251 48.1076 42.7578ZM101.079 58.2251 89.0912 58.2251 89.0912 42.7578C89.0912 30.5099 79.1279 20.55 66.8869 20.55 54.6425 20.55 44.6826 30.5099 44.6826 42.7578L44.6826 58.2251 32.5375 58.2251C31.5888 58.2251 30.825 58.9923 30.825 59.9376L30.825 114.786C30.825 115.731 31.5888 116.498 32.5375 116.498L101.079 116.498C102.024 116.498 102.791 115.731 102.791 114.786L102.791 59.9376C102.791 58.9923 102.024 58.2251 101.079 58.2251Z" fill="#232F3E" fill-rule="evenodd" fill-opacity="1" transform="matrix(1.0073 0 0 1 889 341)"/></g></g></g><rect x="958.5" y="556.5" width="1446" height="341" stroke="#A266FF" stroke-width="4.58333" stroke-linecap="butt" stroke-linejoin="miter" stroke-miterlimit="8" stroke-opacity="1" fill="#A266FF" fill-opacity="0.2"/><rect x="333.5" y="257.5" width="2251" height="1452" stroke="#70AD47" stroke-width="4.58333" stroke-linecap="butt" stroke-linejoin="miter" stroke-miterlimit="8" stroke-opacity="1" fill="none"/><text fill="#000000" fill-opacity="1" font-family="Arial,Arial_MSFontService,sans-serif" font-style="normal" font-variant="normal" font-weight="400" font-stretch="normal" font-size="55" text-anchor="start" direction="ltr" writing-mode="lr-tb" unicode-bidi="normal" text-decoration="none" transform="matrix(1 0 0 1 514.745 343)">VPC</text><rect x="876.5" y="117.5" width="789" height="1642" stroke="#00A0C8" stroke-width="4.58333" stroke-linecap="butt" stroke-linejoin="miter" stroke-miterlimit="8" stroke-dasharray="18.3333 13.75" stroke-opacity="1" fill="none"/><text fill="#000000" fill-opacity="1" font-family="Arial,Arial_MSFontService,sans-serif" font-style="normal" font-variant="normal" font-weight="400" font-stretch="normal" font-size="55" text-anchor="start" direction="ltr" writing-mode="lr-tb" unicode-bidi="normal" text-decoration="none" transform="matrix(1 0 0 1 1048.76 203)">Availability Zone 1</text><rect x="1698.5" y="117.5" width="790" height="1642" stroke="#00A0C8" stroke-width="4.58333" stroke-linecap="butt" stroke-linejoin="miter" stroke-miterlimit="8" stroke-dasharray="18.3333 13.75" stroke-opacity="1" fill="none"/><text fill="#000000" fill-opacity="1" font-family="Arial,Arial_MSFontService,sans-serif" font-style="normal" font-variant="normal" font-weight="400" font-stretch="normal" font-size="55" text-anchor="start" direction="ltr" writing-mode="lr-tb" unicode-bidi="normal" text-decoration="none" transform="matrix(1 0 0 1 1871.3 203)">Availability Zone 2</text><g clip-path="url(#clip7)"><g clip-path="url(#clip8)"><g clip-path="url(#clip9)"><path d="M333 256 471 256 471 394 333 394Z" fill="#6CAE3E" fill-rule="evenodd" fill-opacity="1"/><path d="M433.026 352.583 372.63 352.517C364.467 352.51 357.681 346.145 357.191 338.024 357.164 337.599 357.15 337.165 357.15 336.72 357.15 326.032 364.364 322.54 368.663 321.409 369.491 321.191 370.036 320.398 369.939 319.546 369.832 318.614 369.774 317.669 369.774 316.706 369.774 308.205 375.463 299.063 382.732 295.892 385.989 294.468 389 293.902 391.729 293.902 399.502 293.902 404.991 298.487 407.385 300.964 410.035 303.7 412.098 307.191 413.523 311.345 413.73 311.956 414.265 312.397 414.903 312.49 415.517 312.583 416.176 312.314 416.556 311.79 418.584 308.958 421.893 307.688 424.974 308.575 428.848 309.682 431.38 313.708 431.739 319.159 431.594 320.087 432.219 320.96 433.143 321.126 437.266 321.857 446.85 324.852 446.85 336.868 446.85 351.182 433.443 352.538 433.026 352.583ZM435.099 318.01C434.358 311.431 430.98 306.701 425.922 305.259 422.352 304.238 418.598 305.145 415.762 307.578 414.258 304.079 412.278 301.057 409.866 298.566 402.079 290.517 391.419 288.333 381.348 292.729 372.782 296.469 366.324 306.777 366.324 316.706 366.324 317.307 366.344 317.903 366.382 318.493 361.701 320.077 353.7 324.569 353.7 336.72 353.7 337.244 353.714 337.751 353.748 338.241 354.349 348.17 362.646 355.957 372.627 355.967L433.167 356.026C433.34 356.012 450.3 354.391 450.3 336.868 450.3 323.282 439.96 319.183 435.099 318.01ZM391.65 342.233 408.9 342.233 408.9 328.433 391.65 328.433 391.65 342.233ZM395.1 323.258C395.1 320.405 397.422 318.083 400.275 318.083 403.128 318.083 405.45 320.405 405.45 323.258L405.45 324.983 395.1 324.983 395.1 323.258ZM410.625 324.983 408.9 324.983 408.9 323.258C408.9 318.504 405.033 314.633 400.275 314.633 395.517 314.633 391.65 318.504 391.65 323.258L391.65 324.983 389.925 324.983C388.969 324.983 388.2 325.756 388.2 326.708L388.2 343.958C388.2 344.91 388.969 345.683 389.925 345.683L410.625 345.683C411.577 345.683 412.35 344.91 412.35 343.958L412.35 326.708C412.35 325.756 411.577 324.983 410.625 324.983Z" fill="#232F3E" fill-rule="evenodd" fill-opacity="1"/></g></g></g><g clip-path="url(#clip10)"><g clip-path="url(#clip11)"><g clip-path="url(#clip12)"><path d="M1098.84 1220.49 1134.04 1220.49 1134.04 1185.29 1098.84 1185.29 1098.84 1220.49ZM1094.97 1226.61 1094.97 1232.95 1101.85 1232.95 1101.85 1227.37 1106.99 1227.37 1106.99 1232.95 1113.87 1232.95 1113.87 1227.37 1119.01 1227.37 1119.01 1232.95 1125.89 1232.95 1125.89 1227.37 1131.03 1227.37 1131.03 1232.95 1137.91 1232.95 1137.91 1226.61C1138.85 1226.08 1139.63 1225.31 1140.16 1224.36L1146.49 1224.36 1146.49 1217.49 1140.91 1217.49 1140.91 1212.34 1146.49 1212.34 1146.49 1205.47 1140.91 1205.47 1140.91 1200.32 1146.49 1200.32 1146.49 1193.44 1140.91 1193.44 1140.91 1188.3 1146.49 1188.3 1146.49 1181.42 1140.16 1181.42C1139.63 1180.48 1138.85 1179.7 1137.91 1179.17L1137.91 1172.84 1131.03 1172.84 1131.03 1178.42 1125.89 1178.42 1125.89 1172.84 1119.01 1172.84 1119.01 1178.42 1113.87 1178.42 1113.87 1172.84 1106.99 1172.84 1106.99 1178.42 1101.85 1178.42 1101.85 1172.84 1094.97 1172.84 1094.97 1179.17C1094.02 1179.7 1093.25 1180.48 1092.72 1181.42L1086.39 1181.42 1086.39 1188.3 1091.97 1188.3 1091.97 1193.44 1086.39 1193.44 1086.39 1200.32 1091.97 1200.32 1091.97 1205.47 1086.39 1205.47 1086.39 1212.34 1091.97 1212.34 1091.97 1217.49 1086.39 1217.49 1086.39 1224.36 1092.72 1224.36C1093.25 1225.31 1094.02 1226.08 1094.97 1226.61ZM1170.1 1235.95 1176.98 1235.95 1176.98 1169.84 1170.1 1169.84 1170.1 1235.95ZM1152.07 1235.95 1158.94 1235.95 1158.94 1169.84 1152.07 1169.84 1152.07 1235.95ZM1073.93 1235.95 1080.81 1235.95 1080.81 1169.84 1073.93 1169.84 1073.93 1235.95ZM1055.9 1235.95 1062.78 1235.95 1062.78 1169.84 1055.9 1169.84 1055.9 1235.95ZM1047.75 1244.53 1185.13 1244.53 1185.13 1161.25 1047.75 1161.25 1047.75 1244.53ZM1188.56 1154.37 1044.31 1154.37C1042.42 1154.37 1040.88 1155.91 1040.88 1157.81L1040.88 1247.97C1040.88 1249.87 1042.42 1251.41 1044.31 1251.41L1188.56 1251.41C1190.46 1251.41 1192 1249.87 1192 1247.97L1192 1157.81C1192 1155.91 1190.46 1154.37 1188.56 1154.37Z" fill="#FF9900" fill-rule="evenodd" fill-opacity="1"/></g></g></g><text fill="#000000" fill-opacity="1" font-family="Arial,Arial_MSFontService,sans-serif" font-style="normal" font-variant="normal" font-weight="400" font-stretch="normal" font-size="50" text-anchor="start" direction="ltr" writing-mode="lr-tb" unicode-bidi="normal" text-decoration="none" transform="matrix(1 0 0 1 1010.53 1317)">Container</text><text fill="#000000" fill-opacity="1" font-family="Arial,Arial_MSFontService,sans-serif" font-style="normal" font-variant="normal" font-weight="400" font-stretch="normal" font-size="50" text-anchor="start" direction="ltr" writing-mode="lr-tb" unicode-bidi="normal" text-decoration="none" transform="matrix(1 0 0 1 385.37 870)">Internet gateway</text><g clip-path="url(#clip13)"><g clip-path="url(#clip14)"><g clip-path="url(#clip15)"><path d="M118.402 124.588 113.097 124.588 113.097 61.9855C113.097 60.5936 112.278 59.3292 111.011 58.759L110.685 58.6103C103.57 55.398 96.2064 52.0724 85.6239 52.0724 74.5633 52.0724 66.4458 55.6459 58.4204 59.6303 57.2163 60.2288 56.4548 61.4578 56.4548 62.8036L56.4548 124.588 51.2734 124.588 51.2734 57.7709C59.8938 50.7619 72.3215 46.7669 85.6594 46.7669 98.0587 46.7669 109.881 50.298 118.402 56.4994L118.402 124.588ZM85.6594 39.6836C69.9875 39.6836 55.3109 44.7092 45.3871 53.4784 44.6257 54.1478 44.19 55.1146 44.19 56.1311L44.19 128.13C44.19 130.088 45.7732 131.671 47.7317 131.671L59.9965 131.671C61.955 131.671 63.5381 130.088 63.5381 128.13L63.5381 65.01C70.3346 61.7269 76.9221 59.1557 85.6239 59.1557 93.8937 59.1557 99.9075 61.5463 106.013 64.2769L106.013 128.13C106.013 130.088 107.596 131.671 109.555 131.671L121.944 131.671C123.902 131.671 125.485 130.088 125.485 128.13L125.485 54.7463C125.485 53.6696 124.993 52.6496 124.147 51.9732 114.322 44.1638 100.294 39.6836 85.6594 39.6836ZM84.8377 155.51C45.8723 155.51 14.1638 123.805 14.1638 84.8363 14.1638 45.8674 45.8723 14.1659 84.8377 14.1659 123.807 14.1659 155.512 45.8674 155.512 84.8363 155.512 123.805 123.807 155.51 84.8377 155.51ZM84.8377 7.08262C41.9623 7.08262 7.08049 41.9645 7.08049 84.8363 7.08049 127.715 41.9623 162.593 84.8377 162.593 127.713 162.593 162.595 127.715 162.595 84.8363 162.595 41.9645 127.713 7.08262 84.8377 7.08262Z" fill="#A166FF" fill-rule="evenodd" fill-opacity="1" transform="matrix(1 0 0 1 490 631)"/></g></g></g><rect x="958.5" y="1091.5" width="642" height="470" stroke="#FF9902" stroke-width="4.58333" stroke-linecap="butt" stroke-linejoin="miter" stroke-miterlimit="8" stroke-opacity="1" fill="none"/><g clip-path="url(#clip16)"><g clip-path="url(#clip17)"><g clip-path="url(#clip18)"><path d="M958 1423 1096 1423 1096 1561 958 1561Z" fill="#FF9900" fill-rule="evenodd" fill-opacity="1"/><path d="M992.5 1523.05 1058.05 1523.05 1058.05 1457.5 992.5 1457.5 992.5 1523.05ZM1071.85 1464.4 1071.85 1460.95 1061.5 1460.95 1061.5 1455.78C1061.5 1454.82 1060.73 1454.05 1059.77 1454.05L1054.6 1454.05 1054.6 1443.7 1051.15 1443.7 1051.15 1454.05 1040.8 1454.05 1040.8 1443.7 1037.35 1443.7 1037.35 1454.05 1027 1454.05 1027 1443.7 1023.55 1443.7 1023.55 1454.05 1013.2 1454.05 1013.2 1443.7 1009.75 1443.7 1009.75 1454.05 999.4 1454.05 999.4 1443.7 995.95 1443.7 995.95 1454.05 990.775 1454.05C989.823 1454.05 989.05 1454.82 989.05 1455.78L989.05 1460.95 978.7 1460.95 978.7 1464.4 989.05 1464.4 989.05 1474.75 978.7 1474.75 978.7 1478.2 989.05 1478.2 989.05 1488.55 978.7 1488.55 978.7 1492 989.05 1492 989.05 1502.35 978.7 1502.35 978.7 1505.8 989.05 1505.8 989.05 1516.15 978.7 1516.15 978.7 1519.6 989.05 1519.6 989.05 1524.78C989.05 1525.73 989.823 1526.5 990.775 1526.5L995.95 1526.5 995.95 1536.85 999.4 1536.85 999.4 1526.5 1009.75 1526.5 1009.75 1536.85 1013.2 1536.85 1013.2 1526.5 1023.55 1526.5 1023.55 1536.85 1027 1536.85 1027 1526.5 1037.35 1526.5 1037.35 1536.85 1040.8 1536.85 1040.8 1526.5 1051.15 1526.5 1051.15 1536.85 1054.6 1536.85 1054.6 1526.5 1059.77 1526.5C1060.73 1526.5 1061.5 1525.73 1061.5 1524.78L1061.5 1519.6 1071.85 1519.6 1071.85 1516.15 1061.5 1516.15 1061.5 1505.8 1071.85 1505.8 1071.85 1502.35 1061.5 1502.35 1061.5 1492 1071.85 1492 1071.85 1488.55 1061.5 1488.55 1061.5 1478.2 1071.85 1478.2 1071.85 1474.75 1061.5 1474.75 1061.5 1464.4 1071.85 1464.4Z" fill="#232F3E" fill-rule="evenodd" fill-opacity="1"/></g></g></g><g clip-path="url(#clip19)"><g clip-path="url(#clip20)"><g clip-path="url(#clip21)"><path d="M1157.81 752.164 1165.87 752.164 1165.87 744 1157.81 744 1157.81 752.164ZM1133.96 752.164 1142.12 752.164 1142.12 744 1133.96 744 1133.96 752.164ZM1106.89 752.164 1115.05 752.164 1115.05 744 1106.89 744 1106.89 752.164ZM1083.13 752.164 1090.99 752.164 1090.99 744 1083.13 744 1083.13 752.164ZM1103.88 692.008 1145.13 692.008 1145.13 671.812 1103.88 671.812 1103.88 692.008ZM1169.31 737.125 1164.03 737.125 1164.03 725.523C1164.03 723.622 1162.49 722.086 1160.6 722.086L1152 722.086 1152 710.484C1152 708.583 1150.46 707.047 1148.57 707.047L1127.94 707.047 1127.94 698.883 1148.57 698.883C1150.46 698.883 1152 697.346 1152 695.445L1152 668.375C1152 666.474 1150.46 664.937 1148.57 664.937L1100.44 664.937C1098.54 664.937 1097 666.474 1097 668.375L1097 695.445C1097 697.346 1098.54 698.883 1100.44 698.883L1121.07 698.883 1121.07 707.047 1100.44 707.047C1098.54 707.047 1097 708.583 1097 710.484L1097 722.086 1088.41 722.086C1086.51 722.086 1084.97 723.622 1084.97 725.523L1084.97 737.125 1079.69 737.125C1077.79 737.125 1076.25 738.661 1076.25 740.562L1076.25 755.601C1076.25 757.502 1077.79 759.039 1079.69 759.039L1094.43 759.039C1096.32 759.039 1097.86 757.502 1097.86 755.601L1097.86 740.562C1097.86 738.661 1096.32 737.125 1094.43 737.125L1091.85 737.125 1091.85 728.961 1106.03 728.961 1106.03 737.125 1103.45 737.125C1101.55 737.125 1100.01 738.661 1100.01 740.562L1100.01 755.601C1100.01 757.502 1101.55 759.039 1103.45 759.039L1118.49 759.039C1120.39 759.039 1121.93 757.502 1121.93 755.601L1121.93 740.562C1121.93 738.661 1120.39 737.125 1118.49 737.125L1112.9 737.125 1112.9 725.523C1112.9 723.622 1111.36 722.086 1109.46 722.086L1103.88 722.086 1103.88 713.922 1145.13 713.922 1145.13 722.086 1139.54 722.086C1137.64 722.086 1136.1 723.622 1136.1 725.523L1136.1 737.125 1130.52 737.125C1128.62 737.125 1127.08 738.661 1127.08 740.562L1127.08 755.601C1127.08 757.502 1128.62 759.039 1130.52 759.039L1145.56 759.039C1147.46 759.039 1149 757.502 1149 755.601L1149 740.562C1149 738.661 1147.46 737.125 1145.56 737.125L1142.98 737.125 1142.98 728.961 1157.16 728.961 1157.16 737.125 1154.37 737.125C1152.47 737.125 1150.93 738.661 1150.93 740.562L1150.93 755.601C1150.93 757.502 1152.47 759.039 1154.37 759.039L1169.31 759.039C1171.21 759.039 1172.75 757.502 1172.75 755.601L1172.75 740.562C1172.75 738.661 1171.21 737.125 1169.31 737.125ZM1124.5 785.25C1086.59 785.25 1055.75 754.409 1055.75 716.5 1055.75 678.591 1086.59 647.75 1124.5 647.75 1162.41 647.75 1193.25 678.591 1193.25 716.5 1193.25 754.409 1162.41 785.25 1124.5 785.25ZM1124.5 640.875C1082.8 640.875 1048.87 674.8 1048.87 716.5 1048.87 758.2 1082.8 792.125 1124.5 792.125 1166.2 792.125 1200.13 758.2 1200.13 716.5 1200.13 674.8 1166.2 640.875 1124.5 640.875Z" fill="#A166FF" fill-rule="evenodd" fill-opacity="1"/></g></g></g><text fill="#000000" fill-opacity="1" font-family="Arial,Arial_MSFontService,sans-serif" font-style="normal" font-variant="normal" font-weight="400" font-stretch="normal" font-size="50" text-anchor="start" direction="ltr" writing-mode="lr-tb" unicode-bidi="normal" text-decoration="none" transform="matrix(1 0 0 1 1229.12 703)">Application</text><text fill="#000000" fill-opacity="1" font-family="Arial,Arial_MSFontService,sans-serif" font-style="normal" font-variant="normal" font-weight="400" font-stretch="normal" font-size="50" text-anchor="start" direction="ltr" writing-mode="lr-tb" unicode-bidi="normal" text-decoration="none" transform="matrix(1 0 0 1 1229.12 764)">Load Balancer</text><text fill="#000000" fill-opacity="1" font-family="Arial,Arial_MSFontService,sans-serif" font-style="normal" font-variant="normal" font-weight="400" font-stretch="normal" font-size="50" text-anchor="start" direction="ltr" writing-mode="lr-tb" unicode-bidi="normal" text-decoration="none" transform="matrix(1 0 0 1 1856.88 703)">Load Balancer has </text><text fill="#000000" fill-opacity="1" font-family="Arial,Arial_MSFontService,sans-serif" font-style="normal" font-variant="normal" font-weight="400" font-stretch="normal" font-size="50" text-anchor="start" direction="ltr" writing-mode="lr-tb" unicode-bidi="normal" text-decoration="none" transform="matrix(1 0 0 1 1856.88 764)">nodes in each AZ</text><path d="M660.5 710.771 912.54 710.771 912.54 722.229 660.5 722.229ZM906.811 699.313 941.186 716.5 906.811 733.688Z" fill="#BFBFBF" fill-rule="nonzero" fill-opacity="1"/><path d="M101.5 710.771 445.765 710.771 445.765 722.229 101.5 722.229ZM440.036 699.313 474.411 716.5 440.036 733.688Z" fill="#BFBFBF" fill-rule="nonzero" fill-opacity="1"/><text fill="#000000" fill-opacity="1" font-family="Arial,Arial_MSFontService,sans-serif" font-style="normal" font-variant="normal" font-weight="400" font-stretch="normal" font-size="50" text-anchor="start" direction="ltr" writing-mode="lr-tb" unicode-bidi="normal" text-decoration="none" transform="matrix(1 0 0 1 123.006 689)">T</text><text fill="#000000" fill-opacity="1" font-family="Arial,Arial_MSFontService,sans-serif" font-style="normal" font-variant="normal" font-weight="400" font-stretch="normal" font-size="50" text-anchor="start" direction="ltr" writing-mode="lr-tb" unicode-bidi="normal" text-decoration="none" transform="matrix(1 0 0 1 153.944 689)">raffic</text><g clip-path="url(#clip22)"><g clip-path="url(#clip23)"><g clip-path="url(#clip24)"><path d="M1371.84 1219.49 1407.04 1219.49 1407.04 1184.29 1371.84 1184.29 1371.84 1219.49ZM1367.97 1225.61 1367.97 1231.95 1374.85 1231.95 1374.85 1226.37 1379.99 1226.37 1379.99 1231.95 1386.87 1231.95 1386.87 1226.37 1392.01 1226.37 1392.01 1231.95 1398.89 1231.95 1398.89 1226.37 1404.03 1226.37 1404.03 1231.95 1410.91 1231.95 1410.91 1225.61C1411.85 1225.08 1412.63 1224.31 1413.16 1223.36L1419.49 1223.36 1419.49 1216.49 1413.91 1216.49 1413.91 1211.34 1419.49 1211.34 1419.49 1204.47 1413.91 1204.47 1413.91 1199.32 1419.49 1199.32 1419.49 1192.44 1413.91 1192.44 1413.91 1187.3 1419.49 1187.3 1419.49 1180.42 1413.16 1180.42C1412.63 1179.48 1411.85 1178.7 1410.91 1178.17L1410.91 1171.84 1404.03 1171.84 1404.03 1177.42 1398.89 1177.42 1398.89 1171.84 1392.01 1171.84 1392.01 1177.42 1386.87 1177.42 1386.87 1171.84 1379.99 1171.84 1379.99 1177.42 1374.85 1177.42 1374.85 1171.84 1367.97 1171.84 1367.97 1178.17C1367.02 1178.7 1366.25 1179.48 1365.72 1180.42L1359.39 1180.42 1359.39 1187.3 1364.97 1187.3 1364.97 1192.44 1359.39 1192.44 1359.39 1199.32 1364.97 1199.32 1364.97 1204.47 1359.39 1204.47 1359.39 1211.34 1364.97 1211.34 1364.97 1216.49 1359.39 1216.49 1359.39 1223.36 1365.72 1223.36C1366.25 1224.31 1367.02 1225.08 1367.97 1225.61ZM1443.1 1234.95 1449.98 1234.95 1449.98 1168.84 1443.1 1168.84 1443.1 1234.95ZM1425.07 1234.95 1431.94 1234.95 1431.94 1168.84 1425.07 1168.84 1425.07 1234.95ZM1346.93 1234.95 1353.8 1234.95 1353.8 1168.84 1346.93 1168.84 1346.93 1234.95ZM1328.9 1234.95 1335.78 1234.95 1335.78 1168.84 1328.9 1168.84 1328.9 1234.95ZM1320.75 1243.53 1458.13 1243.53 1458.13 1160.25 1320.75 1160.25 1320.75 1243.53ZM1461.56 1153.37 1317.31 1153.37C1315.41 1153.37 1313.87 1154.91 1313.87 1156.81L1313.87 1246.97C1313.87 1248.87 1315.41 1250.41 1317.31 1250.41L1461.56 1250.41C1463.46 1250.41 1465 1248.87 1465 1246.97L1465 1156.81C1465 1154.91 1463.46 1153.37 1461.56 1153.37Z" fill="#FF9900" fill-rule="evenodd" fill-opacity="1"/></g></g></g><text fill="#000000" fill-opacity="1" font-family="Arial,Arial_MSFontService,sans-serif" font-style="normal" font-variant="normal" font-weight="400" font-stretch="normal" font-size="50" text-anchor="start" direction="ltr" writing-mode="lr-tb" unicode-bidi="normal" text-decoration="none" transform="matrix(1 0 0 1 1274.26 1317)">Container</text><path d="M1129.23 905.5 1129.23 1031.18 1117.77 1031.18 1117.77 905.5ZM1140.69 1025.45 1123.5 1059.82 1106.31 1025.45Z" fill="#BFBFBF" fill-rule="nonzero" fill-opacity="1"/><text fill="#FF9902" fill-opacity="1" font-family="Arial,Arial_MSFontService,sans-serif" font-style="normal" font-variant="normal" font-weight="400" font-stretch="normal" font-size="55" text-anchor="start" direction="ltr" writing-mode="lr-tb" unicode-bidi="normal" text-decoration="none" transform="matrix(1 0 0 1 1130.62 1506)">EC2 instance</text><g clip-path="url(#clip25)"><g clip-path="url(#clip26)"><g clip-path="url(#clip27)"><path d="M1903.84 1220.49 1939.04 1220.49 1939.04 1185.29 1903.84 1185.29 1903.84 1220.49ZM1899.97 1226.61 1899.97 1232.95 1906.85 1232.95 1906.85 1227.37 1911.99 1227.37 1911.99 1232.95 1918.87 1232.95 1918.87 1227.37 1924.01 1227.37 1924.01 1232.95 1930.89 1232.95 1930.89 1227.37 1936.03 1227.37 1936.03 1232.95 1942.91 1232.95 1942.91 1226.61C1943.85 1226.08 1944.63 1225.31 1945.16 1224.36L1951.49 1224.36 1951.49 1217.49 1945.91 1217.49 1945.91 1212.34 1951.49 1212.34 1951.49 1205.47 1945.91 1205.47 1945.91 1200.32 1951.49 1200.32 1951.49 1193.44 1945.91 1193.44 1945.91 1188.3 1951.49 1188.3 1951.49 1181.42 1945.16 1181.42C1944.63 1180.48 1943.85 1179.7 1942.91 1179.17L1942.91 1172.84 1936.03 1172.84 1936.03 1178.42 1930.89 1178.42 1930.89 1172.84 1924.01 1172.84 1924.01 1178.42 1918.87 1178.42 1918.87 1172.84 1911.99 1172.84 1911.99 1178.42 1906.85 1178.42 1906.85 1172.84 1899.97 1172.84 1899.97 1179.17C1899.02 1179.7 1898.25 1180.48 1897.72 1181.42L1891.39 1181.42 1891.39 1188.3 1896.97 1188.3 1896.97 1193.44 1891.39 1193.44 1891.39 1200.32 1896.97 1200.32 1896.97 1205.47 1891.39 1205.47 1891.39 1212.34 1896.97 1212.34 1896.97 1217.49 1891.39 1217.49 1891.39 1224.36 1897.72 1224.36C1898.25 1225.31 1899.02 1226.08 1899.97 1226.61ZM1975.1 1235.95 1981.98 1235.95 1981.98 1169.84 1975.1 1169.84 1975.1 1235.95ZM1957.07 1235.95 1963.94 1235.95 1963.94 1169.84 1957.07 1169.84 1957.07 1235.95ZM1878.93 1235.95 1885.81 1235.95 1885.81 1169.84 1878.93 1169.84 1878.93 1235.95ZM1860.9 1235.95 1867.78 1235.95 1867.78 1169.84 1860.9 1169.84 1860.9 1235.95ZM1852.75 1244.53 1990.13 1244.53 1990.13 1161.25 1852.75 1161.25 1852.75 1244.53ZM1993.56 1154.37 1849.31 1154.37C1847.42 1154.37 1845.88 1155.91 1845.88 1157.81L1845.88 1247.97C1845.88 1249.87 1847.42 1251.41 1849.31 1251.41L1993.56 1251.41C1995.46 1251.41 1997 1249.87 1997 1247.97L1997 1157.81C1997 1155.91 1995.46 1154.37 1993.56 1154.37Z" fill="#FF9900" fill-rule="evenodd" fill-opacity="1"/></g></g></g><text fill="#000000" fill-opacity="1" font-family="Arial,Arial_MSFontService,sans-serif" font-style="normal" font-variant="normal" font-weight="400" font-stretch="normal" font-size="50" text-anchor="start" direction="ltr" writing-mode="lr-tb" unicode-bidi="normal" text-decoration="none" transform="matrix(1 0 0 1 1815.95 1317)">Container</text><rect x="1764.5" y="1091.5" width="642" height="470" stroke="#FF9902" stroke-width="4.58333" stroke-linecap="butt" stroke-linejoin="miter" stroke-miterlimit="8" stroke-opacity="1" fill="none"/><g clip-path="url(#clip28)"><g clip-path="url(#clip29)"><g clip-path="url(#clip30)"><path d="M0 0 137 0 137 137 0 137Z" fill="#FF9900" fill-rule="evenodd" fill-opacity="1" transform="matrix(1 0 0 1.0073 1764 1423)"/><path d="M34.25 99.3249 99.3249 99.3249 99.3249 34.25 34.25 34.25 34.25 99.3249ZM113.025 41.0999 113.025 37.6749 102.75 37.6749 102.75 32.5375C102.75 31.5922 101.983 30.825 101.037 30.825L95.8999 30.825 95.8999 20.55 92.4749 20.55 92.4749 30.825 82.1999 30.825 82.1999 20.55 78.7749 20.55 78.7749 30.825 68.4999 30.825 68.4999 20.55 65.0749 20.55 65.0749 30.825 54.7999 30.825 54.7999 20.55 51.3749 20.55 51.3749 30.825 41.0999 30.825 41.0999 20.55 37.6749 20.55 37.6749 30.825 32.5375 30.825C31.5922 30.825 30.825 31.5922 30.825 32.5375L30.825 37.6749 20.55 37.6749 20.55 41.0999 30.825 41.0999 30.825 51.3749 20.55 51.3749 20.55 54.7999 30.825 54.7999 30.825 65.0749 20.55 65.0749 20.55 68.4999 30.825 68.4999 30.825 78.7749 20.55 78.7749 20.55 82.1999 30.825 82.1999 30.825 92.4749 20.55 92.4749 20.55 95.8999 30.825 95.8999 30.825 101.037C30.825 101.983 31.5922 102.75 32.5375 102.75L37.6749 102.75 37.6749 113.025 41.0999 113.025 41.0999 102.75 51.3749 102.75 51.3749 113.025 54.7999 113.025 54.7999 102.75 65.0749 102.75 65.0749 113.025 68.4999 113.025 68.4999 102.75 78.7749 102.75 78.7749 113.025 82.1999 113.025 82.1999 102.75 92.4749 102.75 92.4749 113.025 95.8999 113.025 95.8999 102.75 101.037 102.75C101.983 102.75 102.75 101.983 102.75 101.037L102.75 95.8999 113.025 95.8999 113.025 92.4749 102.75 92.4749 102.75 82.1999 113.025 82.1999 113.025 78.7749 102.75 78.7749 102.75 68.4999 113.025 68.4999 113.025 65.0749 102.75 65.0749 102.75 54.7999 113.025 54.7999 113.025 51.3749 102.75 51.3749 102.75 41.0999 113.025 41.0999Z" fill="#232F3E" fill-rule="evenodd" fill-opacity="1" transform="matrix(1 0 0 1.0073 1764 1423)"/></g></g></g><text fill="#FF9902" fill-opacity="1" font-family="Arial,Arial_MSFontService,sans-serif" font-style="normal" font-variant="normal" font-weight="400" font-stretch="normal" font-size="55" text-anchor="start" direction="ltr" writing-mode="lr-tb" unicode-bidi="normal" text-decoration="none" transform="matrix(1 0 0 1 1936.04 1506)">EC2 instance</text><path d="M1094 1089.5C1094 1073.21 1107.21 1060 1123.5 1060 1139.79 1060 1153 1073.21 1153 1089.5 1153 1105.79 1139.79 1119 1123.5 1119 1107.21 1119 1094 1105.79 1094 1089.5Z" fill="#BFBFBF" fill-rule="evenodd" fill-opacity="1"/><path d="M1395.23 907.5 1395.23 1033.18 1383.77 1033.18 1383.77 907.5ZM1406.69 1027.45 1389.5 1061.82 1372.31 1027.45Z" fill="#BFBFBF" fill-rule="nonzero" fill-opacity="1"/><path d="M1359 1091C1359 1074.98 1372.21 1062 1388.5 1062 1404.79 1062 1418 1074.98 1418 1091 1418 1107.02 1404.79 1120 1388.5 1120 1372.21 1120 1359 1107.02 1359 1091Z" fill="#BFBFBF" fill-rule="evenodd" fill-opacity="1"/><path d="M1922.23 907.5 1922.23 1033.18 1910.77 1033.18 1910.77 907.5ZM1933.69 1027.45 1916.5 1061.82 1899.31 1027.45Z" fill="#BFBFBF" fill-rule="nonzero" fill-opacity="1"/><path d="M1886 1090.5C1886 1074.21 1899.21 1061 1915.5 1061 1931.79 1061 1945 1074.21 1945 1090.5 1945 1106.79 1931.79 1120 1915.5 1120 1899.21 1120 1886 1106.79 1886 1090.5Z" fill="#BFBFBF" fill-rule="evenodd" fill-opacity="1"/></g></svg>