<svg width="2960" height="1802" xmlns="http://www.w3.org/2000/svg" xmlns:xlink="http://www.w3.org/1999/xlink" xml:space="preserve" overflow="hidden"><g transform="translate(-142 -155)"><g><rect x="1252" y="264" width="621" height="162" fill="#ED7000" fill-opacity="1"/><text fill="#FFFFFF" fill-opacity="1" font-family="Arial,Arial_MSFontService,sans-serif" font-style="normal" font-variant="normal" font-weight="400" font-stretch="normal" font-size="55" text-anchor="start" direction="ltr" writing-mode="lr-tb" unicode-bidi="normal" text-decoration="none" transform="matrix(1 0 0 1 1408.47 365)">Task Launch</text><g><g><g><path d="M433 1499 708 1499 708 1774 433 1774Z" fill="#DD344C" fill-rule="evenodd" fill-opacity="1"/><path d="M587.124 1676.51C587.44 1678.06 588.341 1679.39 589.661 1680.26 590.977 1681.13 592.552 1681.44 594.105 1681.11 595.652 1680.8 596.983 1679.9 597.852 1678.58 598.722 1677.26 599.028 1675.68 598.708 1674.13 598.392 1672.58 597.491 1671.25 596.171 1670.38 595.195 1669.74 594.071 1669.4 592.926 1669.4 592.528 1669.4 592.129 1669.45 591.727 1669.53 590.18 1669.84 588.849 1670.74 587.98 1672.06 587.11 1673.38 586.804 1674.96 587.124 1676.51L587.124 1676.51ZM637.263 1653.72 597.209 1627.3 560.188 1655.77 560.188 1717.94 583.088 1683.42C581.775 1681.83 580.813 1679.97 580.386 1677.89 579.702 1674.55 580.359 1671.13 582.239 1668.28 584.12 1665.43 587 1663.48 590.345 1662.79 593.69 1662.11 597.106 1662.76 599.956 1664.64 602.806 1666.52 604.758 1669.4 605.446 1672.75 606.13 1676.09 605.473 1679.51 603.593 1682.36 601.713 1685.21 598.832 1687.16 595.487 1687.85 594.625 1688.03 593.755 1688.11 592.892 1688.11 591.462 1688.11 590.06 1687.85 588.712 1687.38L565.853 1721.84 624.07 1697.65 637.263 1653.72ZM644.358 1654.66C644.286 1654.75 644.176 1654.79 644.094 1654.87L630.185 1701.19C629.886 1702.18 629.164 1702.98 628.212 1703.38L558.07 1732.51C557.647 1732.69 557.197 1732.78 556.75 1732.78L474.25 1732.78 474.25 1725.9 553.313 1725.9 553.313 1654.07C553.313 1653.01 553.811 1652 554.657 1651.35L594.759 1620.51 594.783 1620.55 617.157 1576.51 623.29 1579.63 601.73 1622.05 640.962 1647.92 661.384 1622.51 666.74 1626.81 644.358 1654.66ZM641.718 1543.36 635.589 1540.25 620.365 1570.2 626.494 1573.32 641.718 1543.36ZM518.742 1612.54 518.745 1612.54C519.687 1612.54 520.588 1612.16 521.234 1611.48L551.212 1579.97 546.231 1575.23 518.738 1604.12 506.226 1590.99 501.252 1595.73 516.256 1611.48C516.903 1612.16 517.803 1612.54 518.742 1612.54ZM481.125 1593.56C481.125 1597.39 483.848 1600.71 487.601 1601.46 488.877 1601.72 489.898 1602.67 490.241 1603.92 491.097 1607.01 492.328 1609.98 493.892 1612.72 494.518 1613.81 494.494 1615.15 493.837 1616.22 493.033 1617.53 492.627 1618.93 492.627 1620.4 492.627 1624.84 496.247 1628.46 500.691 1628.46 502.156 1628.46 503.558 1628.05 504.871 1627.25 505.421 1626.91 506.044 1626.74 506.669 1626.74 507.257 1626.74 507.845 1626.9 508.374 1627.2 511.124 1628.77 514.08 1630 517.171 1630.85 518.425 1631.19 519.378 1632.21 519.629 1633.49 520.378 1637.24 523.702 1639.97 527.531 1639.97 531.361 1639.97 534.685 1637.24 535.434 1633.49 535.685 1632.21 536.637 1631.19 537.892 1630.85 540.982 1630 543.939 1628.77 546.689 1627.2 547.782 1626.57 549.119 1626.59 550.191 1627.25 551.505 1628.05 552.907 1628.46 554.371 1628.46 558.82 1628.46 562.436 1624.84 562.436 1620.4 562.436 1618.93 562.03 1617.53 561.226 1616.22 560.569 1615.15 560.549 1613.81 561.171 1612.72 562.735 1609.98 563.965 1607.01 564.821 1603.92 565.165 1602.67 566.186 1601.72 567.461 1601.46 571.215 1600.71 573.938 1597.39 573.938 1593.56 573.938 1589.73 571.215 1586.41 567.461 1585.66 566.186 1585.4 565.165 1584.45 564.821 1583.2 563.965 1580.11 562.735 1577.14 561.171 1574.4 560.549 1573.31 560.569 1571.97 561.226 1570.9 562.03 1569.59 562.436 1568.18 562.436 1566.72 562.436 1562.27 558.82 1558.65 554.371 1558.65 552.907 1558.65 551.505 1559.06 550.191 1559.87 549.119 1560.52 547.782 1560.54 546.689 1559.92 543.939 1558.35 540.982 1557.12 537.892 1556.27 536.637 1555.93 535.685 1554.9 535.434 1553.63 534.685 1549.88 531.361 1547.15 527.531 1547.15 523.702 1547.15 520.378 1549.88 519.629 1553.63 519.378 1554.9 518.425 1555.93 517.171 1556.27 514.08 1557.12 511.124 1558.35 508.374 1559.92 507.278 1560.54 505.94 1560.52 504.871 1559.87 503.558 1559.06 502.156 1558.65 500.691 1558.65 496.247 1558.65 492.627 1562.27 492.627 1566.72 492.627 1568.18 493.033 1569.59 493.837 1570.9 494.494 1571.97 494.518 1573.31 493.892 1574.4 492.328 1577.14 491.097 1580.11 490.241 1583.2 489.898 1584.45 488.877 1585.4 487.601 1585.66 483.848 1586.41 481.125 1589.73 481.125 1593.56ZM474.25 1593.56C474.25 1587.19 478.317 1581.58 484.181 1579.49 484.941 1577.13 485.893 1574.85 487.017 1572.66 486.185 1570.78 485.752 1568.76 485.752 1566.72 485.752 1558.48 492.455 1551.78 500.691 1551.78 502.726 1551.78 504.748 1552.21 506.631 1553.04 508.818 1551.92 511.104 1550.97 513.462 1550.21 515.548 1544.34 521.162 1540.28 527.531 1540.28 533.904 1540.28 539.515 1544.34 541.601 1550.21 543.959 1550.97 546.245 1551.92 548.431 1553.04 550.315 1552.21 552.336 1551.78 554.371 1551.78 562.608 1551.78 569.311 1558.48 569.311 1566.72 569.311 1568.76 568.878 1570.78 568.046 1572.66 569.17 1574.85 570.122 1577.13 570.882 1579.49 576.746 1581.58 580.813 1587.19 580.813 1593.56 580.813 1599.93 576.746 1605.54 570.882 1607.63 570.122 1609.99 569.17 1612.27 568.046 1614.46 568.878 1616.34 569.311 1618.36 569.311 1620.4 569.311 1628.64 562.608 1635.34 554.371 1635.34 552.336 1635.34 550.315 1634.91 548.431 1634.07 546.245 1635.2 543.959 1636.15 541.601 1636.91 539.515 1642.77 533.904 1646.84 527.531 1646.84 521.162 1646.84 515.548 1642.77 513.462 1636.91 511.104 1636.15 508.818 1635.2 506.631 1634.07 504.748 1634.91 502.726 1635.34 500.691 1635.34 492.455 1635.34 485.752 1628.64 485.752 1620.4 485.752 1618.36 486.185 1616.34 487.017 1614.46 485.893 1612.27 484.941 1609.99 484.181 1607.63 478.317 1605.54 474.25 1599.93 474.25 1593.56ZM508.625 1639.97 508.625 1680.61 524.823 1664.42C526.167 1663.08 528.339 1663.08 529.683 1664.42L546.599 1681.31 541.739 1686.18 527.253 1671.71 507.618 1691.34C506.961 1692 506.081 1692.35 505.188 1692.35 504.744 1692.35 504.297 1692.26 503.871 1692.09 502.585 1691.56 501.75 1690.3 501.75 1688.91L501.75 1639.97 508.625 1639.97Z" fill="#FFFFFF" fill-rule="evenodd" fill-opacity="1"/></g></g></g><text fill="#000000" fill-opacity="1" font-family="Arial,Arial_MSFontService,sans-serif" font-style="normal" font-variant="normal" font-weight="400" font-stretch="normal" font-size="55" text-anchor="start" direction="ltr" writing-mode="lr-tb" unicode-bidi="normal" text-decoration="none" transform="matrix(1 0 0 1 425.748 1844)">AWS Signer</text><g><g><g><path d="M1429 1499 1704 1499 1704 1774 1429 1774Z" fill="#ED7100" fill-rule="evenodd" fill-opacity="1"/><path d="M1525.28 1725.88 1482.59 1725.88 1529.8 1627.21 1551.19 1671.24 1525.28 1725.88ZM1532.88 1617.78C1532.3 1616.59 1531.1 1615.84 1529.78 1615.84L1529.77 1615.84C1528.44 1615.84 1527.24 1616.6 1526.67 1617.79L1474.02 1727.83C1473.51 1728.9 1473.59 1730.15 1474.22 1731.15 1474.85 1732.15 1475.95 1732.75 1477.13 1732.75L1527.46 1732.75C1528.79 1732.75 1530 1731.98 1530.57 1730.78L1558.13 1672.69C1558.57 1671.75 1558.57 1670.66 1558.11 1669.72L1532.88 1617.78ZM1652.42 1725.88 1610.01 1725.88 1541.98 1583.46C1541.41 1582.26 1540.2 1581.5 1538.87 1581.5L1511.12 1581.5 1511.15 1547.13 1565.54 1547.13 1633.26 1689.54C1633.83 1690.73 1635.04 1691.5 1636.37 1691.5L1652.42 1691.5 1652.42 1725.88ZM1655.87 1684.63 1638.55 1684.63 1570.83 1542.21C1570.26 1541.02 1569.05 1540.25 1567.71 1540.25L1507.71 1540.25C1505.81 1540.25 1504.27 1541.79 1504.27 1543.68L1504.23 1584.93C1504.23 1585.85 1504.59 1586.72 1505.24 1587.37 1505.88 1588.01 1506.76 1588.38 1507.67 1588.38L1536.69 1588.38 1604.73 1730.79C1605.3 1731.99 1606.51 1732.75 1607.84 1732.75L1655.87 1732.75C1657.77 1732.75 1659.31 1731.21 1659.31 1729.31L1659.31 1688.06C1659.31 1686.17 1657.77 1684.63 1655.87 1684.63Z" fill="#FFFFFF" fill-rule="evenodd" fill-opacity="1"/></g></g></g><text fill="#000000" fill-opacity="1" font-family="Arial,Arial_MSFontService,sans-serif" font-style="normal" font-variant="normal" font-weight="400" font-stretch="normal" font-size="55" text-anchor="start" direction="ltr" writing-mode="lr-tb" unicode-bidi="normal" text-decoration="none" transform="matrix(1 0 0 1 1405.11 1843)">AWS Lambda</text><g><g><g><path d="M1425 803 1700 803 1700 1078 1425 1078Z" fill="#E7157B" fill-rule="evenodd" fill-opacity="1"/><path d="M1609.44 1029.88C1602.08 1029.88 1596.08 1023.85 1596.08 1016.44 1596.08 1009.03 1602.08 1003 1609.44 1003 1616.81 1003 1622.81 1009.03 1622.81 1016.44 1622.81 1023.85 1616.81 1029.88 1609.44 1029.88L1609.44 1029.88ZM1580.14 971.438 1544.62 971.438 1526.85 940.5 1544.62 909.562 1580.14 909.562 1597.9 940.5 1580.14 971.438ZM1519.95 877.999C1512.58 877.999 1506.59 871.973 1506.59 864.562 1506.59 857.151 1512.58 851.125 1519.95 851.125 1527.32 851.125 1533.31 857.151 1533.31 864.562 1533.31 871.973 1527.32 877.999 1519.95 877.999ZM1609.44 996.126C1606.91 996.126 1604.49 996.617 1602.25 997.48L1587.73 972.847 1586.97 973.304 1604.81 942.219C1605.42 941.153 1605.42 939.847 1604.81 938.781L1585.08 904.406C1584.46 903.341 1583.34 902.688 1582.12 902.688L1546.2 902.688 1546.34 902.605 1533.03 880.014C1537.38 876.287 1540.15 870.746 1540.15 864.562 1540.15 853.363 1531.09 844.25 1519.95 844.25 1508.81 844.25 1499.75 853.363 1499.75 864.562 1499.75 875.762 1508.81 884.874 1519.95 884.874 1522.49 884.874 1524.91 884.383 1527.15 883.52L1539.57 904.602 1519.94 938.781C1519.34 939.847 1519.34 941.153 1519.94 942.219L1539.68 976.594C1540.3 977.659 1541.42 978.312 1542.64 978.312L1582.12 978.312C1582.4 978.312 1582.68 978.268 1582.94 978.203L1596.37 1000.99C1592.01 1004.71 1589.25 1010.25 1589.25 1016.44 1589.25 1027.64 1598.3 1036.75 1609.44 1036.75 1620.59 1036.75 1629.64 1027.64 1629.64 1016.44 1629.64 1005.24 1620.59 996.126 1609.44 996.126ZM1629.82 913.357C1622.46 913.357 1616.46 907.332 1616.46 899.92 1616.46 892.509 1622.46 886.483 1629.82 886.483 1637.19 886.483 1643.18 892.509 1643.18 899.92 1643.18 907.332 1637.19 913.357 1629.82 913.357ZM1654.85 938.781 1641.88 916.18C1646.81 912.471 1650.02 906.572 1650.02 899.92 1650.02 888.721 1640.96 879.608 1629.82 879.608 1626.99 879.608 1624.29 880.203 1621.84 881.272L1611.26 862.843C1610.65 861.781 1609.52 861.125 1608.3 861.125L1565.92 861.125 1565.92 868 1606.32 868 1616.11 885.05C1612.13 888.762 1609.63 894.046 1609.63 899.92 1609.63 911.12 1618.68 920.232 1629.82 920.232 1631.9 920.232 1633.9 919.913 1635.79 919.325L1647.95 940.5 1630.88 970.227 1636.8 973.665 1654.85 942.219C1655.47 941.153 1655.47 939.847 1654.85 938.781ZM1497.97 992.912C1490.6 992.912 1484.61 986.882 1484.61 979.474 1484.61 972.063 1490.6 966.037 1497.97 966.037 1505.34 966.037 1511.34 972.063 1511.34 979.474 1511.34 986.882 1505.34 992.912 1497.97 992.912ZM1509.14 996.387C1514.58 992.743 1518.17 986.525 1518.17 979.474 1518.17 968.275 1509.11 959.162 1497.97 959.162 1494.75 959.162 1491.71 959.946 1489 961.304L1477.05 940.5 1496.85 906.025 1490.93 902.588 1470.15 938.781C1469.53 939.847 1469.53 941.153 1470.15 942.219L1483.45 965.388C1479.94 969.045 1477.77 974.005 1477.77 979.474 1477.77 990.674 1486.83 999.787 1497.97 999.787 1499.65 999.787 1501.28 999.556 1502.84 999.164L1513.74 1018.16C1514.35 1019.22 1515.48 1019.88 1516.7 1019.88L1559.08 1019.88 1559.08 1013 1518.68 1013 1509.14 996.387Z" fill="#FFFFFF" fill-rule="evenodd" fill-opacity="1"/></g></g></g><text fill="#000000" fill-opacity="1" font-family="Arial,Arial_MSFontService,sans-serif" font-style="normal" font-variant="normal" font-weight="400" font-stretch="normal" font-size="55" text-anchor="start" direction="ltr" writing-mode="lr-tb" unicode-bidi="normal" text-decoration="none" transform="matrix(1 0 0 1 1307.51 1151)">Amazon </text><text fill="#000000" fill-opacity="1" font-family="Arial,Arial_MSFontService,sans-serif" font-style="normal" font-variant="normal" font-weight="400" font-stretch="normal" font-size="55" text-anchor="start" direction="ltr" writing-mode="lr-tb" unicode-bidi="normal" text-decoration="none" transform="matrix(1 0 0 1 1524.07 1151)">EventBridge</text><g><g><g><path d="M2554 1499 2829 1499 2829 1774 2554 1774Z" fill="#ED7100" fill-rule="evenodd" fill-opacity="1"/><path d="M2687.33 1628.17C2685.63 1629.16 2684.58 1631 2684.58 1632.97L2684.58 1728.35 2612.43 1688.01 2612.43 1594.24 2693.41 1547.33 2765.35 1582.97 2687.33 1628.17ZM2773.73 1582.88C2773.73 1580.91 2772.67 1579.07 2770.77 1577.98L2696.13 1540.99C2694.42 1540.01 2692.31 1540 2690.61 1540.99L2608.32 1588.66C2606.62 1589.65 2605.56 1591.49 2605.56 1593.46L2605.56 1688.8C2605.56 1690.78 2606.62 1692.61 2608.37 1693.63L2683.16 1735.45C2684.01 1735.94 2684.97 1736.19 2685.93 1736.19 2686.88 1736.19 2687.84 1735.94 2688.68 1735.45 2690.39 1734.46 2691.45 1732.63 2691.45 1730.65L2691.45 1633.75 2770.97 1587.68C2772.67 1586.7 2773.73 1584.86 2773.73 1582.88ZM2773.89 1688.23 2708.62 1728.15 2708.62 1692.4 2742.66 1670.44 2742.89 1668.9C2742.95 1668.49 2742.98 1668.49 2742.98 1666.64L2743.08 1623.99 2774 1606.07 2773.89 1688.23ZM2778.11 1598.93C2776.41 1597.94 2774.29 1597.94 2772.59 1598.93L2739.67 1618C2738.64 1618.56 2736.22 1619.88 2736.22 1622.61L2736.11 1666.47 2704.74 1686.71C2702.86 1687.83 2701.75 1689.59 2701.75 1691.46L2701.75 1730.37C2701.75 1732.32 2702.8 1734.1 2704.56 1735.11 2705.47 1735.64 2706.49 1735.91 2707.51 1735.91 2708.51 1735.91 2709.51 1735.65 2710.41 1735.13L2778.01 1693.78C2779.71 1692.79 2780.76 1690.96 2780.76 1688.99L2780.88 1603.73C2780.88 1601.76 2779.82 1599.92 2778.11 1598.93Z" fill="#FFFFFF" fill-rule="evenodd" fill-opacity="1"/></g></g></g><text fill="#000000" fill-opacity="1" font-family="Arial,Arial_MSFontService,sans-serif" font-style="normal" font-variant="normal" font-weight="400" font-stretch="normal" font-size="55" text-anchor="start" direction="ltr" writing-mode="lr-tb" unicode-bidi="normal" text-decoration="none" transform="matrix(1 0 0 1 2372.87 1844)">Amazon Elastic Container </text><text fill="#000000" fill-opacity="1" font-family="Arial,Arial_MSFontService,sans-serif" font-style="normal" font-variant="normal" font-weight="400" font-stretch="normal" font-size="55" text-anchor="start" direction="ltr" writing-mode="lr-tb" unicode-bidi="normal" text-decoration="none" transform="matrix(1 0 0 1 2395.49 1910)">Registry (Amazon ECR)</text><g><g><g><path d="M2554 207 2829 207 2829 482 2554 482Z" fill="#ED7100" fill-rule="evenodd" fill-opacity="1"/><path d="M2732.75 401.298 2732.75 384.64 2743.06 380.515 2743.06 397.173 2732.75 401.298ZM2715.56 380.515 2725.88 384.64 2725.88 401.298 2715.56 397.173 2715.56 380.515ZM2694.94 425.36 2694.94 408.702 2705.25 404.577 2705.25 421.235 2694.94 425.36ZM2677.75 404.577 2688.06 408.702 2688.06 425.36 2677.75 421.235 2677.75 404.577ZM2657.12 401.298 2657.12 384.64 2667.44 380.515 2667.44 397.173 2657.12 401.298ZM2639.94 380.515 2650.25 384.64 2650.25 401.298 2639.94 397.173 2639.94 380.515ZM2653.69 372.265 2661.62 375.437 2653.69 378.61 2645.75 375.437 2653.69 372.265ZM2691.5 396.327 2699.43 399.5 2691.5 402.673 2683.57 399.5 2691.5 396.327ZM2729.31 372.265 2737.25 375.437 2729.31 378.61 2721.38 375.437 2729.31 372.265ZM2747.78 372.244 2730.59 365.369C2729.77 365.046 2728.86 365.046 2728.04 365.369L2710.85 372.244C2709.54 372.77 2708.69 374.031 2708.69 375.437L2708.69 395.798 2692.78 389.431C2691.96 389.108 2691.04 389.108 2690.22 389.431L2674.31 395.798 2674.31 375.437C2674.31 374.031 2673.46 372.77 2672.15 372.244L2654.96 365.369C2654.14 365.046 2653.23 365.046 2652.41 365.369L2635.22 372.244C2633.92 372.77 2633.06 374.031 2633.06 375.437L2633.06 399.5C2633.06 400.906 2633.92 402.167 2635.22 402.693L2652.41 409.568C2652.82 409.73 2653.25 409.812 2653.69 409.812 2654.12 409.812 2654.55 409.73 2654.96 409.568L2670.88 403.202 2670.88 423.562C2670.88 424.968 2671.73 426.23 2673.04 426.756L2690.22 433.631C2690.63 433.792 2691.07 433.875 2691.5 433.875 2691.93 433.875 2692.37 433.792 2692.78 433.631L2709.96 426.756C2711.27 426.23 2712.12 424.968 2712.12 423.562L2712.12 403.202 2728.04 409.568C2728.45 409.73 2728.88 409.812 2729.31 409.812 2729.75 409.812 2730.18 409.73 2730.59 409.568L2747.78 402.693C2749.08 402.167 2749.94 400.906 2749.94 399.5L2749.94 375.437C2749.94 374.031 2749.08 372.77 2747.78 372.244ZM2777.44 330.537C2777.44 350.629 2733.16 361.474 2691.5 361.474 2649.84 361.474 2605.56 350.629 2605.56 330.537 2605.56 320.943 2616.2 312.497 2635.52 306.753L2637.48 313.342C2622.03 317.935 2612.44 324.525 2612.44 330.537 2612.44 341.918 2644.9 354.599 2691.5 354.599 2738.1 354.599 2770.56 341.918 2770.56 330.537 2770.56 324.525 2760.97 317.935 2745.52 313.342L2747.48 306.753C2766.8 312.497 2777.44 320.943 2777.44 330.537ZM2691.5 265.681 2726.61 279.187 2691.5 292.693 2656.39 279.187 2691.5 265.681ZM2727.87 333.644C2721.39 336.546 2710.5 339.925 2694.94 340.378L2694.94 298.737 2732.75 284.196 2732.75 326.102C2732.75 329.371 2730.84 332.331 2727.87 333.644ZM2650.25 326.102 2650.25 284.196 2688.06 298.737 2688.06 340.378C2672.5 339.925 2661.61 336.546 2655.12 333.637 2652.16 332.331 2650.25 329.371 2650.25 326.102ZM2652.33 339.918C2659.89 343.304 2672.83 347.343 2691.5 347.343 2710.17 347.343 2723.11 343.304 2730.66 339.925 2736.11 337.515 2739.62 332.091 2739.62 326.102L2739.62 279.187C2739.62 277.764 2738.75 276.489 2737.42 275.977L2692.73 258.789C2691.94 258.487 2691.06 258.487 2690.27 258.789L2645.58 275.977C2644.25 276.489 2643.38 277.764 2643.38 279.187L2643.38 326.102C2643.38 332.091 2646.89 337.515 2652.33 339.918Z" fill="#FFFFFF" fill-rule="evenodd" fill-opacity="1"/></g></g></g><text fill="#000000" fill-opacity="1" font-family="Arial,Arial_MSFontService,sans-serif" font-style="normal" font-variant="normal" font-weight="400" font-stretch="normal" font-size="55" text-anchor="start" direction="ltr" writing-mode="lr-tb" unicode-bidi="normal" text-decoration="none" transform="matrix(1 0 0 1 2522.84 551)">AWS </text><text fill="#000000" fill-opacity="1" font-family="Arial,Arial_MSFontService,sans-serif" font-style="normal" font-variant="normal" font-weight="400" font-stretch="normal" font-size="55" text-anchor="start" direction="ltr" writing-mode="lr-tb" unicode-bidi="normal" text-decoration="none" transform="matrix(1 0 0 1 2661.74 551)">Fargate</text><g><g><g><path d="M424 207 699 207 699 482 424 482Z" fill="#ED7100" fill-rule="evenodd" fill-opacity="1"/><path d="M644 372.804 616.5 356.301 616.5 317C616.5 315.776 615.854 314.645 614.795 314.03L575.25 290.964 575.25 257.71 644 298.338 644 372.804ZM649.187 293.415 573.562 248.728C572.496 248.099 571.187 248.092 570.107 248.7 569.038 249.312 568.375 250.453 568.375 251.687L568.375 292.937C568.375 294.158 569.025 295.289 570.08 295.907L609.625 318.973 609.625 358.25C609.625 359.457 610.261 360.577 611.295 361.196L645.67 381.821C646.214 382.147 646.825 382.312 647.437 382.312 648.022 382.312 648.606 382.165 649.132 381.866 650.211 381.257 650.875 380.112 650.875 378.875L650.875 296.375C650.875 295.158 650.235 294.034 649.187 293.415ZM563.03 436.841 482.437 393.996 482.437 298.338 551.187 257.71 551.187 291.05 514.966 314.099C513.976 314.731 513.375 315.824 513.375 317L513.375 375.437C513.375 376.72 514.09 377.895 515.224 378.487L561.469 402.549C562.462 403.065 563.645 403.068 564.635 402.552L609.501 379.37 637.111 395.939 563.03 436.841ZM645.77 393.113 611.395 372.488C610.371 371.876 609.106 371.835 608.047 372.385L563.064 395.626 520.25 373.351 520.25 318.887 556.471 295.839C557.461 295.206 558.062 294.113 558.062 292.937L558.062 251.687C558.062 250.453 557.402 249.312 556.33 248.7 555.257 248.092 553.944 248.099 552.875 248.728L477.25 293.415C476.205 294.034 475.562 295.158 475.562 296.375L475.562 396.062C475.562 397.331 476.264 398.5 477.384 399.098L561.445 443.785C561.95 444.053 562.504 444.187 563.057 444.187 563.631 444.187 564.202 444.043 564.721 443.758L645.664 399.07C646.74 398.476 647.413 397.352 647.438 396.124 647.458 394.894 646.822 393.746 645.77 393.113Z" fill="#FFFFFF" fill-rule="evenodd" fill-opacity="1"/></g></g></g><text fill="#000000" fill-opacity="1" font-family="Arial,Arial_MSFontService,sans-serif" font-style="normal" font-variant="normal" font-weight="400" font-stretch="normal" font-size="55" text-anchor="start" direction="ltr" writing-mode="lr-tb" unicode-bidi="normal" text-decoration="none" transform="matrix(1 0 0 1 244.353 551)">Amazon Elastic Container </text><text fill="#000000" fill-opacity="1" font-family="Arial,Arial_MSFontService,sans-serif" font-style="normal" font-variant="normal" font-weight="400" font-stretch="normal" font-size="55" text-anchor="start" direction="ltr" writing-mode="lr-tb" unicode-bidi="normal" text-decoration="none" transform="matrix(1 0 0 1 277.583 617)">Service (Amazon ECS)</text><path d="M1247.23 347.433 698.997 346.865 699.003 341.135 1247.23 341.704ZM1230.8 326.354 1251.57 344.573 1230.76 362.749C1229.57 363.79 1227.76 363.667 1226.72 362.475 1225.68 361.284 1225.8 359.474 1226.99 358.434L1245.34 342.411 1245.33 346.723 1227.02 330.662C1225.83 329.619 1225.71 327.809 1226.75 326.619 1227.8 325.43 1229.61 325.311 1230.8 326.354Z" fill="#000000" fill-rule="nonzero" fill-opacity="1"/><path d="M2.8672 4.35039 3.09158 377.839-2.63758 377.842-2.86197 4.35384ZM-18.185 20.8121 2.4562e-06 0.00403255 18.21 20.7902C19.2525 21.9802 19.1329 23.79 17.9429 24.8325 16.7529 25.8751 14.9431 25.7555 13.9006 24.5655L-2.15207 6.2418 2.15957 6.23921-13.8711 24.5822C-14.9122 25.7734-16.7218 25.8952-17.9131 24.8541-19.1043 23.813-19.2261 22.0033-18.185 20.8121Z" fill="#000000" fill-rule="nonzero" fill-opacity="1" transform="matrix(1 0 0 -1 1562 803.84)"/><path d="M1563.71 1494.71 1562.14 1182.01 1567.86 1181.99 1569.44 1494.68ZM1584.69 1478.15 1566.59 1499.04 1548.29 1478.34C1547.25 1477.15 1547.36 1475.34 1548.54 1474.29 1549.73 1473.24 1551.54 1473.36 1552.59 1474.54L1568.72 1492.79 1564.41 1492.82 1580.36 1474.4C1581.39 1473.21 1583.2 1473.08 1584.4 1474.11 1585.59 1475.15 1585.72 1476.96 1584.69 1478.15Z" fill="#000000" fill-rule="nonzero" fill-opacity="1"/><path d="M712.353 1633.14 1424.68 1633.14 1424.68 1638.86 712.353 1638.86ZM728.801 1654.2 708.004 1636 728.801 1617.8C729.992 1616.76 731.802 1616.88 732.843 1618.07 733.885 1619.26 733.765 1621.07 732.574 1622.11L714.241 1638.16 714.241 1633.84 732.574 1649.89C733.765 1650.93 733.885 1652.74 732.843 1653.93 731.802 1655.12 729.992 1655.24 728.801 1654.2ZM1408.22 1617.8 1429.02 1636 1408.22 1654.2C1407.03 1655.24 1405.22 1655.12 1404.18 1653.93 1403.14 1652.74 1403.26 1650.93 1404.45 1649.89L1422.78 1633.84 1422.78 1638.16 1404.45 1622.11C1403.26 1621.07 1403.14 1619.26 1404.18 1618.07 1405.22 1616.88 1407.03 1616.76 1408.22 1617.8Z" fill="#000000" fill-rule="nonzero" fill-opacity="1"/><path d="M4.36569-2.86311 849.777-2.57803 849.775 3.15113 4.36376 2.86606ZM20.795 18.2045 0.00403255 1.22302e-06 20.8073-18.1905C21.9983-19.2319 23.808-19.1106 24.8494-17.9196 25.8908-16.7287 25.7695-14.919 24.5785-13.8776L6.23978 2.15792 6.24123-2.15371 24.5692 13.8941C25.7594 14.9363 25.8795 16.7461 24.8373 17.9364 23.7951 19.1267 21.9853 19.2467 20.795 18.2045Z" fill="#000000" fill-rule="nonzero" fill-opacity="1" transform="matrix(1 0 0 -1 1704 1636.29)"/><path d="M2689.89 585.343 2694.45 1498.3 2688.72 1498.33 2684.16 585.371ZM2668.91 601.892 2687 581.004 2705.3 601.71C2706.35 602.895 2706.24 604.706 2705.05 605.753 2703.87 606.801 2702.06 606.69 2701.01 605.504L2684.88 587.251 2689.19 587.23 2673.24 605.643C2672.2 606.839 2670.39 606.968 2669.2 605.932 2668 604.897 2667.87 603.088 2668.91 601.892Z" fill="#000000" fill-rule="nonzero" fill-opacity="1"/><path d="M4.36709-2.86091 680.937-2.29149 680.933 3.43768 4.36227 2.86826ZM20.7858 18.215 0.00403255 3.42591e-06 20.8165-18.18C22.008-19.2208 23.8176-19.0986 24.8584-17.9071 25.8992-16.7156 25.777-14.906 24.5855-13.8652L6.23869 2.16107 6.24232-2.15057 24.5621 13.9065C25.7519 14.9493 25.871 16.7592 24.8282 17.9489 23.7854 19.1387 21.9756 19.2578 20.7858 18.215Z" fill="#000000" fill-rule="nonzero" fill-opacity="1" transform="matrix(-1 0 0 1 2553.94 344)"/><text fill="#000000" fill-opacity="1" font-family="Arial,Arial_MSFontService,sans-serif" font-style="normal" font-variant="normal" font-weight="400" font-stretch="normal" font-size="55" text-anchor="start" direction="ltr" writing-mode="lr-tb" unicode-bidi="normal" text-decoration="none" transform="matrix(1 0 0 1 1037.2 228)">RunTask</text><text fill="#000000" fill-opacity="1" font-family="Arial,Arial_MSFontService,sans-serif" font-style="normal" font-variant="normal" font-weight="400" font-stretch="normal" font-size="55" text-anchor="start" direction="ltr" writing-mode="lr-tb" unicode-bidi="normal" text-decoration="none" transform="matrix(1 0 0 1 1266 228)">or </text><text fill="#000000" fill-opacity="1" font-family="Arial,Arial_MSFontService,sans-serif" font-style="normal" font-variant="normal" font-weight="400" font-stretch="normal" font-size="55" text-anchor="start" direction="ltr" writing-mode="lr-tb" unicode-bidi="normal" text-decoration="none" transform="matrix(1 0 0 1 1330.17 228)">CreateService</text><text fill="#000000" fill-opacity="1" font-family="Arial,Arial_MSFontService,sans-serif" font-style="normal" font-variant="normal" font-weight="400" font-stretch="normal" font-size="55" text-anchor="start" direction="ltr" writing-mode="lr-tb" unicode-bidi="normal" text-decoration="none" transform="matrix(1 0 0 1 1692.83 228)">initiated task launch</text><text fill="#000000" fill-opacity="1" font-family="Arial,Arial_MSFontService,sans-serif" font-style="normal" font-variant="normal" font-weight="400" font-stretch="normal" font-size="55" text-anchor="start" direction="ltr" writing-mode="lr-tb" unicode-bidi="normal" text-decoration="none" transform="matrix(1 0 0 1 1595.17 605)">Task state</text><text fill="#000000" fill-opacity="1" font-family="Arial,Arial_MSFontService,sans-serif" font-style="normal" font-variant="normal" font-weight="400" font-stretch="normal" font-size="55" text-anchor="start" direction="ltr" writing-mode="lr-tb" unicode-bidi="normal" text-decoration="none" transform="matrix(1 0 0 1 1595.17 671)">change event</text><text fill="#000000" fill-opacity="1" font-family="Arial,Arial_MSFontService,sans-serif" font-style="normal" font-variant="normal" font-weight="400" font-stretch="normal" font-size="55" text-anchor="start" direction="ltr" writing-mode="lr-tb" unicode-bidi="normal" text-decoration="none" transform="matrix(1 0 0 1 1598.04 1338)">Invoke Lambda function</text><text fill="#000000" fill-opacity="1" font-family="Arial,Arial_MSFontService,sans-serif" font-style="normal" font-variant="normal" font-weight="400" font-stretch="normal" font-size="55" text-anchor="start" direction="ltr" writing-mode="lr-tb" unicode-bidi="normal" text-decoration="none" transform="matrix(1 0 0 1 857.874 1528)">Verify signature </text><text fill="#000000" fill-opacity="1" font-family="Arial,Arial_MSFontService,sans-serif" font-style="normal" font-variant="normal" font-weight="400" font-stretch="normal" font-size="55" text-anchor="start" direction="ltr" writing-mode="lr-tb" unicode-bidi="normal" text-decoration="none" transform="matrix(1 0 0 1 857.874 1594)">revocation status</text><text fill="#000000" fill-opacity="1" font-family="Arial,Arial_MSFontService,sans-serif" font-style="normal" font-variant="normal" font-weight="400" font-stretch="normal" font-size="55" text-anchor="start" direction="ltr" writing-mode="lr-tb" unicode-bidi="normal" text-decoration="none" transform="matrix(1 0 0 1 1835.15 1595)">Check image signature</text><text fill="#000000" fill-opacity="1" font-family="Arial,Arial_MSFontService,sans-serif" font-style="normal" font-variant="normal" font-weight="400" font-stretch="normal" font-size="55" text-anchor="start" direction="ltr" writing-mode="lr-tb" unicode-bidi="normal" text-decoration="none" transform="matrix(1 0 0 1 2181.32 948)">Download image to </text><text fill="#000000" fill-opacity="1" font-family="Arial,Arial_MSFontService,sans-serif" font-style="normal" font-variant="normal" font-weight="400" font-stretch="normal" font-size="55" text-anchor="start" direction="ltr" writing-mode="lr-tb" unicode-bidi="normal" text-decoration="none" transform="matrix(1 0 0 1 2181.32 1014)">run in AWS </text><text fill="#000000" fill-opacity="1" font-family="Arial,Arial_MSFontService,sans-serif" font-style="normal" font-variant="normal" font-weight="400" font-stretch="normal" font-size="55" text-anchor="start" direction="ltr" writing-mode="lr-tb" unicode-bidi="normal" text-decoration="none" transform="matrix(1 0 0 1 2469.59 1014)">Fargate</text></g></g></svg>