<svg width="2966" height="2099" xmlns="http://www.w3.org/2000/svg" xmlns:xlink="http://www.w3.org/1999/xlink" xml:space="preserve" overflow="hidden"><defs><clipPath id="clip0"><rect x="123" y="105" width="2966" height="2099"/></clipPath><clipPath id="clip1"><rect x="1725" y="1981" width="140" height="137"/></clipPath><clipPath id="clip2"><rect x="1725" y="1981" width="140" height="137"/></clipPath><clipPath id="clip3"><rect x="1725" y="1981" width="140" height="137"/></clipPath><clipPath id="clip4"><rect x="905" y="1981" width="137" height="137"/></clipPath><clipPath id="clip5"><rect x="905" y="1981" width="137" height="137"/></clipPath><clipPath id="clip6"><rect x="905" y="1981" width="137" height="137"/></clipPath><clipPath id="clip7"><rect x="1725" y="315" width="139" height="139"/></clipPath><clipPath id="clip8"><rect x="1725" y="315" width="139" height="139"/></clipPath><clipPath id="clip9"><rect x="1725" y="315" width="139" height="139"/></clipPath><clipPath id="clip10"><rect x="904" y="315" width="138" height="139"/></clipPath><clipPath id="clip11"><rect x="904" y="315" width="138" height="139"/></clipPath><clipPath id="clip12"><rect x="904" y="315" width="138" height="139"/></clipPath><clipPath id="clip13"><rect x="347" y="249" width="140" height="139"/></clipPath><clipPath id="clip14"><rect x="347" y="249" width="140" height="139"/></clipPath><clipPath id="clip15"><rect x="347" y="249" width="140" height="139"/></clipPath><clipPath id="clip16"><rect x="489" y="513" width="170" height="172"/></clipPath><clipPath id="clip17"><rect x="489" y="513" width="170" height="172"/></clipPath><clipPath id="clip18"><rect x="489" y="513" width="170" height="172"/></clipPath><clipPath id="clip19"><rect x="1211" y="1075" width="166" height="166"/></clipPath><clipPath id="clip20"><rect x="1211" y="1075" width="166" height="166"/></clipPath><clipPath id="clip21"><rect x="1211" y="1075" width="166" height="166"/></clipPath><clipPath id="clip22"><rect x="974" y="1752" width="155" height="137"/></clipPath><clipPath id="clip23"><rect x="974" y="1752" width="155" height="137"/></clipPath><clipPath id="clip24"><rect x="974" y="1752" width="155" height="137"/></clipPath><clipPath id="clip25"><rect x="1060" y="1508" width="166" height="166"/></clipPath><clipPath id="clip26"><rect x="1060" y="1508" width="166" height="166"/></clipPath><clipPath id="clip27"><rect x="1060" y="1508" width="166" height="166"/></clipPath><clipPath id="clip28"><rect x="2005" y="1079" width="166" height="166"/></clipPath><clipPath id="clip29"><rect x="2005" y="1079" width="166" height="166"/></clipPath><clipPath id="clip30"><rect x="2005" y="1079" width="166" height="166"/></clipPath><clipPath id="clip31"><rect x="1768" y="1754" width="155" height="137"/></clipPath><clipPath id="clip32"><rect x="1768" y="1754" width="155" height="137"/></clipPath><clipPath id="clip33"><rect x="1768" y="1754" width="155" height="137"/></clipPath><clipPath id="clip34"><rect x="1853" y="1510" width="166" height="166"/></clipPath><clipPath id="clip35"><rect x="1853" y="1510" width="166" height="166"/></clipPath><clipPath id="clip36"><rect x="1853" y="1510" width="166" height="166"/></clipPath><clipPath id="clip37"><rect x="2555" y="1075" width="166" height="166"/></clipPath><clipPath id="clip38"><rect x="2555" y="1075" width="166" height="166"/></clipPath><clipPath id="clip39"><rect x="2555" y="1075" width="166" height="166"/></clipPath><clipPath id="clip40"><rect x="2403" y="1508" width="166" height="166"/></clipPath><clipPath id="clip41"><rect x="2403" y="1508" width="166" height="166"/></clipPath><clipPath id="clip42"><rect x="2403" y="1508" width="166" height="166"/></clipPath><clipPath id="clip43"><rect x="1205" y="523" width="166" height="166"/></clipPath><clipPath id="clip44"><rect x="1205" y="523" width="166" height="166"/></clipPath><clipPath id="clip45"><rect x="1205" y="523" width="166" height="166"/></clipPath><clipPath id="clip46"><rect x="1205" y="523" width="166" height="166"/></clipPath><clipPath id="clip47"><rect x="1209" y="523" width="162" height="163"/></clipPath><clipPath id="clip48"><rect x="1209" y="523" width="162" height="163"/></clipPath><clipPath id="clip49"><rect x="1209" y="523" width="162" height="163"/></clipPath><clipPath id="clip50"><rect x="1964" y="525" width="166" height="166"/></clipPath><clipPath id="clip51"><rect x="1964" y="525" width="166" height="166"/></clipPath><clipPath id="clip52"><rect x="1964" y="525" width="166" height="166"/></clipPath><clipPath id="clip53"><rect x="1964" y="525" width="166" height="166"/></clipPath><clipPath id="clip54"><rect x="1968" y="525" width="162" height="163"/></clipPath><clipPath id="clip55"><rect x="1968" y="525" width="162" height="163"/></clipPath><clipPath id="clip56"><rect x="1968" y="525" width="162" height="163"/></clipPath></defs><g clip-path="url(#clip0)" transform="translate(-123 -105)"><rect x="1726.5" y="996.5" width="1276" height="1123" stroke="#548235" stroke-width="4.58333" stroke-linecap="butt" stroke-linejoin="miter" stroke-miterlimit="8" stroke-dasharray="18.3333 13.75" stroke-opacity="0.2" fill="#E2F0D9" fill-opacity="0.2"/><rect x="905.5" y="996.5" width="761" height="1123" stroke="#548235" stroke-width="4.58333" stroke-linecap="butt" stroke-linejoin="miter" stroke-miterlimit="8" stroke-dasharray="18.3333 13.75" stroke-opacity="0.2" fill="#E2F0D9" fill-opacity="0.2"/><g clip-path="url(#clip1)"><g clip-path="url(#clip2)"><g clip-path="url(#clip3)"><path d="M0 0 137 0 137 137 0 137Z" fill="#6CAE3E" fill-rule="evenodd" fill-opacity="1" transform="matrix(1.0073 0 0 1 1726 1981)"/><path d="M66.9107 75.5177C70.6988 75.5177 73.7812 78.5968 73.7812 82.3848 73.7812 86.1729 70.6988 89.2554 66.9107 89.2554 63.1227 89.2554 60.0402 86.1729 60.0402 82.3848 60.0402 78.5968 63.1227 75.5177 66.9107 75.5177L66.9107 75.5177ZM65.116 92.4988 65.116 104.466 68.541 104.466 68.541 92.516C73.4387 91.7282 77.2062 87.5052 77.2062 82.3848 77.2062 76.7096 72.5859 72.0927 66.9107 72.0927 61.2355 72.0927 56.6152 76.7096 56.6152 82.3848 56.6152 87.447 60.2936 91.6426 65.116 92.4988ZM34.25 113.073 99.366 113.073 99.366 61.6499 34.25 61.6499 34.25 113.073ZM48.1075 42.7576C48.1075 32.4005 56.533 23.975 66.8867 23.975 77.2439 23.975 85.666 32.4005 85.666 42.7576L85.666 58.2249 48.1075 58.2249 48.1075 42.7576ZM101.078 58.2249 89.091 58.2249 89.091 42.7576C89.091 30.5099 79.1277 20.55 66.8867 20.55 54.6424 20.55 44.6825 30.5099 44.6825 42.7576L44.6825 58.2249 32.5375 58.2249C31.5887 58.2249 30.825 58.9921 30.825 59.9374L30.825 114.785C30.825 115.731 31.5887 116.498 32.5375 116.498L101.078 116.498C102.024 116.498 102.791 115.731 102.791 114.785L102.791 59.9374C102.791 58.9921 102.024 58.2249 101.078 58.2249Z" fill="#232F3E" fill-rule="evenodd" fill-opacity="1" transform="matrix(1.0073 0 0 1 1726 1981)"/></g></g></g><g clip-path="url(#clip4)"><g clip-path="url(#clip5)"><g clip-path="url(#clip6)"><path d="M905 1981 1042 1981 1042 2118 905 2118Z" fill="#6CAE3E" fill-rule="evenodd" fill-opacity="1"/><path d="M971.911 2056.52C975.699 2056.52 978.781 2059.6 978.781 2063.38 978.781 2067.17 975.699 2070.26 971.911 2070.26 968.123 2070.26 965.04 2067.17 965.04 2063.38 965.04 2059.6 968.123 2056.52 971.911 2056.52L971.911 2056.52ZM970.116 2073.5 970.116 2085.47 973.541 2085.47 973.541 2073.52C978.439 2072.73 982.206 2068.51 982.206 2063.38 982.206 2057.71 977.586 2053.09 971.911 2053.09 966.236 2053.09 961.615 2057.71 961.615 2063.38 961.615 2068.45 965.294 2072.64 970.116 2073.5ZM939.25 2094.07 1004.37 2094.07 1004.37 2042.65 939.25 2042.65 939.25 2094.07ZM953.108 2023.76C953.108 2013.4 961.533 2004.97 971.887 2004.97 982.244 2004.97 990.666 2013.4 990.666 2023.76L990.666 2039.22 953.108 2039.22 953.108 2023.76ZM1006.08 2039.22 994.091 2039.22 994.091 2023.76C994.091 2011.51 984.128 2001.55 971.887 2001.55 959.643 2001.55 949.683 2011.51 949.683 2023.76L949.683 2039.22 937.538 2039.22C936.589 2039.22 935.825 2039.99 935.825 2040.94L935.825 2095.79C935.825 2096.73 936.589 2097.5 937.538 2097.5L1006.08 2097.5C1007.02 2097.5 1007.79 2096.73 1007.79 2095.79L1007.79 2040.94C1007.79 2039.99 1007.02 2039.22 1006.08 2039.22Z" fill="#232F3E" fill-rule="evenodd" fill-opacity="1"/></g></g></g><rect x="1727.5" y="315.5" width="1275" height="569" stroke="#548235" stroke-width="4.58333" stroke-linecap="butt" stroke-linejoin="miter" stroke-miterlimit="8" stroke-dasharray="18.3333 13.75" stroke-opacity="0.2" fill="#E2F0D9" fill-opacity="0.2"/><text fill="#6CAE3E" fill-opacity="1" font-family="Arial,Arial_MSFontService,sans-serif" font-style="normal" font-variant="normal" font-weight="400" font-stretch="normal" font-size="55" text-anchor="start" direction="ltr" writing-mode="lr-tb" unicode-bidi="normal" text-decoration="none" transform="matrix(1 0 0 1 1900.5 384)">Public subnet</text><g clip-path="url(#clip7)"><g clip-path="url(#clip8)"><g clip-path="url(#clip9)"><path d="M1726 316 1863 316 1863 453 1726 453Z" fill="#6CAE3E" fill-rule="evenodd" fill-opacity="1"/><path d="M1792.91 391.518C1796.7 391.518 1799.78 394.597 1799.78 398.385 1799.78 402.173 1796.7 405.256 1792.91 405.256 1789.12 405.256 1786.04 402.173 1786.04 398.385 1786.04 394.597 1789.12 391.518 1792.91 391.518L1792.91 391.518ZM1791.12 408.499 1791.12 420.466 1794.54 420.466 1794.54 408.516C1799.44 407.728 1803.21 403.505 1803.21 398.385 1803.21 392.71 1798.59 388.093 1792.91 388.093 1787.24 388.093 1782.62 392.71 1782.62 398.385 1782.62 403.447 1786.29 407.643 1791.12 408.499ZM1760.25 429.073 1825.37 429.073 1825.37 377.65 1760.25 377.65 1760.25 429.073ZM1774.11 358.758C1774.11 348.4 1782.53 339.975 1792.89 339.975 1803.24 339.975 1811.67 348.4 1811.67 358.758L1811.67 374.225 1774.11 374.225 1774.11 358.758ZM1827.08 374.225 1815.09 374.225 1815.09 358.758C1815.09 346.51 1805.13 336.55 1792.89 336.55 1780.64 336.55 1770.68 346.51 1770.68 358.758L1770.68 374.225 1758.54 374.225C1757.59 374.225 1756.83 374.992 1756.83 375.937L1756.83 430.785C1756.83 431.731 1757.59 432.498 1758.54 432.498L1827.08 432.498C1828.02 432.498 1828.79 431.731 1828.79 430.785L1828.79 375.937C1828.79 374.992 1828.02 374.225 1827.08 374.225Z" fill="#232F3E" fill-rule="evenodd" fill-opacity="1"/></g></g></g><rect x="905.5" y="315.5" width="761" height="569" stroke="#548235" stroke-width="4.58333" stroke-linecap="butt" stroke-linejoin="miter" stroke-miterlimit="8" stroke-dasharray="18.3333 13.75" stroke-opacity="0.2" fill="#E2F0D9" fill-opacity="0.2"/><text fill="#6CAE3E" fill-opacity="1" font-family="Arial,Arial_MSFontService,sans-serif" font-style="normal" font-variant="normal" font-weight="400" font-stretch="normal" font-size="55" text-anchor="start" direction="ltr" writing-mode="lr-tb" unicode-bidi="normal" text-decoration="none" transform="matrix(1 0 0 1 1078.79 384)">Public subnet</text><g clip-path="url(#clip10)"><g clip-path="url(#clip11)"><g clip-path="url(#clip12)"><path d="M0 0 137 0 137 137 0 137Z" fill="#6CAE3E" fill-rule="evenodd" fill-opacity="1" transform="matrix(1.0073 0 0 1 904 316)"/><path d="M66.9109 75.5179C70.6989 75.5179 73.7814 78.597 73.7814 82.385 73.7814 86.1731 70.6989 89.2556 66.9109 89.2556 63.1228 89.2556 60.0403 86.1731 60.0403 82.385 60.0403 78.597 63.1228 75.5179 66.9109 75.5179L66.9109 75.5179ZM65.1162 92.4991 65.1162 104.466 68.5412 104.466 68.5412 92.5162C73.4389 91.7285 77.2064 87.5054 77.2064 82.385 77.2064 76.7098 72.5861 72.0929 66.9109 72.0929 61.2356 72.0929 56.6153 76.7098 56.6153 82.385 56.6153 87.4472 60.2938 91.6428 65.1162 92.4991ZM34.25 113.073 99.3662 113.073 99.3662 61.6501 34.25 61.6501 34.25 113.073ZM48.1076 42.7578C48.1076 32.4005 56.5331 23.975 66.8869 23.975 77.2441 23.975 85.6662 32.4005 85.6662 42.7578L85.6662 58.2251 48.1076 58.2251 48.1076 42.7578ZM101.079 58.2251 89.0912 58.2251 89.0912 42.7578C89.0912 30.5099 79.1279 20.55 66.8869 20.55 54.6425 20.55 44.6826 30.5099 44.6826 42.7578L44.6826 58.2251 32.5375 58.2251C31.5888 58.2251 30.825 58.9923 30.825 59.9376L30.825 114.786C30.825 115.731 31.5888 116.498 32.5375 116.498L101.079 116.498C102.024 116.498 102.791 115.731 102.791 114.786L102.791 59.9376C102.791 58.9923 102.024 58.2251 101.079 58.2251Z" fill="#232F3E" fill-rule="evenodd" fill-opacity="1" transform="matrix(1.0073 0 0 1 904 316)"/></g></g></g><rect x="348.5" y="250.5" width="2737" height="1909" stroke="#70AD47" stroke-width="4.58333" stroke-linecap="butt" stroke-linejoin="miter" stroke-miterlimit="8" stroke-opacity="1" fill="none"/><text fill="#000000" fill-opacity="1" font-family="Arial,Arial_MSFontService,sans-serif" font-style="normal" font-variant="normal" font-weight="400" font-stretch="normal" font-size="55" text-anchor="start" direction="ltr" writing-mode="lr-tb" unicode-bidi="normal" text-decoration="none" transform="matrix(1 0 0 1 529.704 336)">VPC</text><rect x="891.5" y="111.5" width="789" height="2090" stroke="#00A0C8" stroke-width="4.58333" stroke-linecap="butt" stroke-linejoin="miter" stroke-miterlimit="8" stroke-dasharray="18.3333 13.75" stroke-opacity="1" fill="none"/><text fill="#000000" fill-opacity="1" font-family="Arial,Arial_MSFontService,sans-serif" font-style="normal" font-variant="normal" font-weight="400" font-stretch="normal" font-size="55" text-anchor="start" direction="ltr" writing-mode="lr-tb" unicode-bidi="normal" text-decoration="none" transform="matrix(1 0 0 1 1063.72 197)">Availability Zone 1</text><rect x="1713.5" y="111.5" width="1305" height="2090" stroke="#00A0C8" stroke-width="4.58333" stroke-linecap="butt" stroke-linejoin="miter" stroke-miterlimit="8" stroke-dasharray="18.3333 13.75" stroke-opacity="1" fill="none"/><text fill="#000000" fill-opacity="1" font-family="Arial,Arial_MSFontService,sans-serif" font-style="normal" font-variant="normal" font-weight="400" font-stretch="normal" font-size="55" text-anchor="start" direction="ltr" writing-mode="lr-tb" unicode-bidi="normal" text-decoration="none" transform="matrix(1 0 0 1 2143.84 197)">Availability Zone 2</text><g clip-path="url(#clip13)"><g clip-path="url(#clip14)"><g clip-path="url(#clip15)"><path d="M0 0 137 0 137 137 0 137Z" fill="#6CAE3E" fill-rule="evenodd" fill-opacity="1" transform="matrix(1.0073 0 0 1 348 250)"/><path d="M99.3011 95.883 39.343 95.8179C31.2395 95.8111 24.5025 89.4919 24.0161 81.4295 23.9887 81.0082 23.975 80.5766 23.975 80.1348 23.975 69.5242 31.1367 66.0581 35.4043 64.9346 36.2263 64.7189 36.7674 63.9311 36.6715 63.0852 36.5653 62.1604 36.5071 61.2219 36.5071 60.2664 36.5071 51.8272 42.1549 42.7509 49.3714 39.6033 52.6046 38.1888 55.5947 37.6271 58.3038 37.6271 66.0204 37.6271 71.4696 42.1789 73.8465 44.6381 76.4769 47.3541 78.5251 50.8202 79.9396 54.9439 80.1451 55.5501 80.676 55.9885 81.3096 56.081 81.9192 56.1735 82.5734 55.9063 82.9502 55.3857 84.9641 52.5738 88.2487 51.3134 91.3072 52.1936 95.1535 53.2931 97.6674 57.29 98.0236 62.7015 97.8798 63.6229 98.4997 64.4894 99.4176 64.6538 103.51 65.3799 113.025 68.3528 113.025 80.2821 113.025 94.4924 99.7156 95.8385 99.3011 95.883ZM101.36 61.561C100.623 55.0295 97.2701 50.3339 92.2491 48.9022 88.7042 47.8884 84.9778 48.7892 82.1624 51.2038 80.6691 47.7309 78.7032 44.7306 76.3091 42.2577 68.5789 34.2672 57.9956 32.0991 47.998 36.4626 39.4937 40.1753 33.0821 50.4092 33.0821 60.2664 33.0821 60.8623 33.1027 61.4548 33.1403 62.0405 28.4926 63.6126 20.55 68.072 20.55 80.1348 20.55 80.6554 20.5637 81.1589 20.598 81.6452 21.1939 91.5024 29.4311 99.2326 39.3396 99.2429L99.4416 99.3011C99.6128 99.2874 116.45 97.6777 116.45 80.2821 116.45 66.7944 106.185 62.7255 101.36 61.561ZM58.2251 85.608 75.3501 85.608 75.3501 71.908 58.2251 71.908 58.2251 85.608ZM61.6501 66.7705C61.6501 63.938 63.9551 61.6329 66.7876 61.6329 69.6201 61.6329 71.9251 63.938 71.9251 66.7705L71.9251 68.483 61.6501 68.483 61.6501 66.7705ZM77.0626 68.483 75.3501 68.483 75.3501 66.7705C75.3501 62.0508 71.5107 58.2079 66.7876 58.2079 62.0645 58.2079 58.2251 62.0508 58.2251 66.7705L58.2251 68.483 56.5126 68.483C55.5638 68.483 54.8001 69.2502 54.8001 70.1955L54.8001 87.3205C54.8001 88.2658 55.5638 89.033 56.5126 89.033L77.0626 89.033C78.0079 89.033 78.7751 88.2658 78.7751 87.3205L78.7751 70.1955C78.7751 69.2502 78.0079 68.483 77.0626 68.483Z" fill="#232F3E" fill-rule="evenodd" fill-opacity="1" transform="matrix(1.0073 0 0 1 348 250)"/></g></g></g><text fill="#6CAE3E" fill-opacity="1" font-family="Arial,Arial_MSFontService,sans-serif" font-style="normal" font-variant="normal" font-weight="400" font-stretch="normal" font-size="55" text-anchor="start" direction="ltr" writing-mode="lr-tb" unicode-bidi="normal" text-decoration="none" transform="matrix(1 0 0 1 1091.49 2070)">Private subnet</text><text fill="#6CAE3E" fill-opacity="1" font-family="Arial,Arial_MSFontService,sans-serif" font-style="normal" font-variant="normal" font-weight="400" font-stretch="normal" font-size="55" text-anchor="start" direction="ltr" writing-mode="lr-tb" unicode-bidi="normal" text-decoration="none" transform="matrix(1 0 0 1 1900.5 2067)">Private subnet</text><text fill="#000000" fill-opacity="1" font-family="Arial,Arial_MSFontService,sans-serif" font-style="normal" font-variant="normal" font-weight="400" font-stretch="normal" font-size="50" text-anchor="start" direction="ltr" writing-mode="lr-tb" unicode-bidi="normal" text-decoration="none" transform="matrix(1 0 0 1 388.368 753)">Internet gateway</text><g clip-path="url(#clip16)"><g clip-path="url(#clip17)"><g clip-path="url(#clip18)"><path d="M118.402 124.588 113.097 124.588 113.097 61.9855C113.097 60.5936 112.278 59.3292 111.011 58.759L110.685 58.6103C103.57 55.398 96.2064 52.0724 85.6239 52.0724 74.5633 52.0724 66.4458 55.6459 58.4204 59.6303 57.2163 60.2288 56.4548 61.4578 56.4548 62.8036L56.4548 124.588 51.2734 124.588 51.2734 57.7709C59.8938 50.7619 72.3215 46.7669 85.6594 46.7669 98.0587 46.7669 109.881 50.298 118.402 56.4994L118.402 124.588ZM85.6594 39.6836C69.9875 39.6836 55.3109 44.7092 45.3871 53.4784 44.6257 54.1478 44.19 55.1146 44.19 56.1311L44.19 128.13C44.19 130.088 45.7732 131.671 47.7317 131.671L59.9965 131.671C61.955 131.671 63.5381 130.088 63.5381 128.13L63.5381 65.01C70.3346 61.7269 76.9221 59.1557 85.6239 59.1557 93.8937 59.1557 99.9075 61.5463 106.013 64.2769L106.013 128.13C106.013 130.088 107.596 131.671 109.555 131.671L121.944 131.671C123.902 131.671 125.485 130.088 125.485 128.13L125.485 54.7463C125.485 53.6696 124.993 52.6496 124.147 51.9732 114.322 44.1638 100.294 39.6836 85.6594 39.6836ZM84.8377 155.51C45.8723 155.51 14.1638 123.805 14.1638 84.8363 14.1638 45.8674 45.8723 14.1659 84.8377 14.1659 123.807 14.1659 155.512 45.8674 155.512 84.8363 155.512 123.805 123.807 155.51 84.8377 155.51ZM84.8377 7.08262C41.9623 7.08262 7.08049 41.9645 7.08049 84.8363 7.08049 127.715 41.9623 162.593 84.8377 162.593 127.713 162.593 162.595 127.715 162.595 84.8363 162.595 41.9645 127.713 7.08262 84.8377 7.08262Z" fill="#A166FF" fill-rule="evenodd" fill-opacity="1" transform="matrix(1 0 0 1 489 514)"/></g></g></g><text fill="#FF9902" fill-opacity="1" font-family="Arial,Arial_MSFontService,sans-serif" font-style="normal" font-variant="normal" font-weight="400" font-stretch="normal" font-size="55" text-anchor="start" direction="ltr" writing-mode="lr-tb" unicode-bidi="normal" text-decoration="none" transform="matrix(1 0 0 1 1169.16 1832)">EC2 instance</text><path d="M5.72917-7.36417e-06 5.72949 252.121-5.72884 252.121-5.72917 7.36417e-06ZM17.1878 246.392 0.000360892 280.767-17.1872 246.392Z" fill="#BFBFBF" fill-rule="nonzero" fill-opacity="1" transform="matrix(1 0 0 -1 1299.5 1051.27)"/><text fill="#000000" fill-opacity="1" font-family="Arial,Arial_MSFontService,sans-serif" font-style="normal" font-variant="normal" font-weight="400" font-stretch="normal" font-size="50" text-anchor="start" direction="ltr" writing-mode="lr-tb" unicode-bidi="normal" text-decoration="none" transform="matrix(1 0 0 1 1249.5 1304)">ENI</text><g clip-path="url(#clip19)"><g clip-path="url(#clip20)"><g clip-path="url(#clip21)"><path d="M1287.92 1164.09 1302.1 1164.09 1302.1 1149.91 1287.92 1149.91 1287.92 1164.09ZM1308.98 1164.09 1323.16 1164.09 1323.16 1149.91 1308.98 1149.91 1308.98 1164.09ZM1284.48 1170.97 1326.59 1170.97C1328.49 1170.97 1330.03 1169.43 1330.03 1167.53L1330.03 1146.47C1330.03 1144.57 1328.49 1143.03 1326.59 1143.03L1284.48 1143.03C1282.58 1143.03 1281.04 1144.57 1281.04 1146.47L1281.04 1167.53C1281.04 1169.43 1282.58 1170.97 1284.48 1170.97ZM1341.2 1176.12 1332.61 1176.12C1330.71 1176.12 1329.17 1177.66 1329.17 1179.56L1329.17 1185.15 1321.01 1185.15 1321.01 1179.56C1321.01 1177.66 1319.47 1176.12 1317.57 1176.12L1305.54 1176.12C1303.64 1176.12 1302.1 1177.66 1302.1 1179.56L1302.1 1185.15 1278.89 1185.15 1278.89 1179.56C1278.89 1177.66 1277.35 1176.12 1275.46 1176.12L1272.88 1176.12 1272.88 1137.88 1341.2 1137.88 1341.2 1176.12ZM1344.64 1131 1269.44 1131C1267.54 1131 1266 1132.54 1266 1134.44L1266 1179.56C1266 1181.46 1267.54 1183 1269.44 1183L1272.02 1183 1272.02 1188.58C1272.02 1190.49 1273.56 1192.02 1275.46 1192.02L1305.54 1192.02C1307.44 1192.02 1308.98 1190.49 1308.98 1188.58L1308.98 1183 1314.13 1183 1314.13 1188.58C1314.13 1190.49 1315.67 1192.02 1317.57 1192.02L1332.61 1192.02C1334.51 1192.02 1336.05 1190.49 1336.05 1188.58L1336.05 1183 1344.64 1183C1346.54 1183 1348.08 1181.46 1348.08 1179.56L1348.08 1134.44C1348.08 1132.54 1346.54 1131 1344.64 1131ZM1260.85 1128.43 1260.85 1194.6C1260.85 1196.5 1259.31 1198.04 1257.41 1198.04L1246.58 1198.04 1246.58 1191.16 1253.97 1191.16 1253.97 1131.86 1246.58 1131.86 1246.58 1124.99 1257.41 1124.99C1259.31 1124.99 1260.85 1126.52 1260.85 1128.43ZM1293.51 1227.26C1255.59 1227.26 1224.75 1196.42 1224.75 1158.5 1224.75 1120.59 1255.59 1089.75 1293.51 1089.75 1331.42 1089.75 1362.26 1120.59 1362.26 1158.5 1362.26 1196.42 1331.42 1227.26 1293.51 1227.26ZM1293.51 1082.87C1251.8 1082.87 1217.88 1116.8 1217.88 1158.5 1217.88 1200.21 1251.8 1234.14 1293.51 1234.14 1335.21 1234.14 1369.13 1200.21 1369.13 1158.5 1369.13 1116.8 1335.21 1082.87 1293.51 1082.87Z" fill="#A166FF" fill-rule="evenodd" fill-opacity="1"/></g></g></g><rect x="1030.5" y="1480.5" width="522" height="211" stroke="#FB9900" stroke-width="4.58333" stroke-linecap="butt" stroke-linejoin="miter" stroke-miterlimit="8" stroke-opacity="1" fill="#FB9900" fill-opacity="0.2"/><rect x="979.5" y="1410.5" width="614" height="477" stroke="#FF9902" stroke-width="4.58333" stroke-linecap="butt" stroke-linejoin="miter" stroke-miterlimit="8" stroke-opacity="1" fill="none"/><g clip-path="url(#clip22)"><g clip-path="url(#clip23)"><g clip-path="url(#clip24)"><path d="M0 0 137 0 137 137 0 137Z" fill="#FF9900" fill-rule="evenodd" fill-opacity="1" transform="matrix(1.12409 0 0 1 975 1752)"/><path d="M34.25 99.3249 99.3249 99.3249 99.3249 34.25 34.25 34.25 34.25 99.3249ZM113.025 41.0999 113.025 37.6749 102.75 37.6749 102.75 32.5375C102.75 31.5922 101.983 30.825 101.037 30.825L95.8999 30.825 95.8999 20.55 92.4749 20.55 92.4749 30.825 82.1999 30.825 82.1999 20.55 78.7749 20.55 78.7749 30.825 68.4999 30.825 68.4999 20.55 65.0749 20.55 65.0749 30.825 54.7999 30.825 54.7999 20.55 51.3749 20.55 51.3749 30.825 41.0999 30.825 41.0999 20.55 37.6749 20.55 37.6749 30.825 32.5375 30.825C31.5922 30.825 30.825 31.5922 30.825 32.5375L30.825 37.6749 20.55 37.6749 20.55 41.0999 30.825 41.0999 30.825 51.3749 20.55 51.3749 20.55 54.7999 30.825 54.7999 30.825 65.0749 20.55 65.0749 20.55 68.4999 30.825 68.4999 30.825 78.7749 20.55 78.7749 20.55 82.1999 30.825 82.1999 30.825 92.4749 20.55 92.4749 20.55 95.8999 30.825 95.8999 30.825 101.037C30.825 101.983 31.5922 102.75 32.5375 102.75L37.6749 102.75 37.6749 113.025 41.0999 113.025 41.0999 102.75 51.3749 102.75 51.3749 113.025 54.7999 113.025 54.7999 102.75 65.0749 102.75 65.0749 113.025 68.4999 113.025 68.4999 102.75 78.7749 102.75 78.7749 113.025 82.1999 113.025 82.1999 102.75 92.4749 102.75 92.4749 113.025 95.8999 113.025 95.8999 102.75 101.037 102.75C101.983 102.75 102.75 101.983 102.75 101.037L102.75 95.8999 113.025 95.8999 113.025 92.4749 102.75 92.4749 102.75 82.1999 113.025 82.1999 113.025 78.7749 102.75 78.7749 102.75 68.4999 113.025 68.4999 113.025 65.0749 102.75 65.0749 102.75 54.7999 113.025 54.7999 113.025 51.3749 102.75 51.3749 102.75 41.0999 113.025 41.0999Z" fill="#232F3E" fill-rule="evenodd" fill-opacity="1" transform="matrix(1.12409 0 0 1 975 1752)"/></g></g></g><g clip-path="url(#clip25)"><g clip-path="url(#clip26)"><g clip-path="url(#clip27)"><path d="M1124.84 1608.49 1160.04 1608.49 1160.04 1573.29 1124.84 1573.29 1124.84 1608.49ZM1120.97 1614.61 1120.97 1620.95 1127.85 1620.95 1127.85 1615.37 1132.99 1615.37 1132.99 1620.95 1139.87 1620.95 1139.87 1615.37 1145.01 1615.37 1145.01 1620.95 1151.89 1620.95 1151.89 1615.37 1157.03 1615.37 1157.03 1620.95 1163.91 1620.95 1163.91 1614.61C1164.85 1614.08 1165.63 1613.31 1166.16 1612.36L1172.49 1612.36 1172.49 1605.49 1166.91 1605.49 1166.91 1600.34 1172.49 1600.34 1172.49 1593.47 1166.91 1593.47 1166.91 1588.32 1172.49 1588.32 1172.49 1581.44 1166.91 1581.44 1166.91 1576.3 1172.49 1576.3 1172.49 1569.42 1166.16 1569.42C1165.63 1568.48 1164.85 1567.7 1163.91 1567.17L1163.91 1560.84 1157.03 1560.84 1157.03 1566.42 1151.89 1566.42 1151.89 1560.84 1145.01 1560.84 1145.01 1566.42 1139.87 1566.42 1139.87 1560.84 1132.99 1560.84 1132.99 1566.42 1127.85 1566.42 1127.85 1560.84 1120.97 1560.84 1120.97 1567.17C1120.02 1567.7 1119.25 1568.48 1118.72 1569.42L1112.39 1569.42 1112.39 1576.3 1117.97 1576.3 1117.97 1581.44 1112.39 1581.44 1112.39 1588.32 1117.97 1588.32 1117.97 1593.47 1112.39 1593.47 1112.39 1600.34 1117.97 1600.34 1117.97 1605.49 1112.39 1605.49 1112.39 1612.36 1118.72 1612.36C1119.25 1613.31 1120.02 1614.08 1120.97 1614.61ZM1196.1 1623.95 1202.98 1623.95 1202.98 1557.84 1196.1 1557.84 1196.1 1623.95ZM1178.07 1623.95 1184.94 1623.95 1184.94 1557.84 1178.07 1557.84 1178.07 1623.95ZM1099.93 1623.95 1106.81 1623.95 1106.81 1557.84 1099.93 1557.84 1099.93 1623.95ZM1081.9 1623.95 1088.78 1623.95 1088.78 1557.84 1081.9 1557.84 1081.9 1623.95ZM1073.75 1632.53 1211.13 1632.53 1211.13 1549.25 1073.75 1549.25 1073.75 1632.53ZM1214.56 1542.38 1070.31 1542.38C1068.42 1542.38 1066.88 1543.91 1066.88 1545.81L1066.88 1635.97C1066.88 1637.87 1068.42 1639.41 1070.31 1639.41L1214.56 1639.41C1216.46 1639.41 1218 1637.87 1218 1635.97L1218 1545.81C1218 1543.91 1216.46 1542.38 1214.56 1542.38Z" fill="#FF9900" fill-rule="evenodd" fill-opacity="1"/></g></g></g><text fill="#000000" fill-opacity="1" font-family="Arial,Arial_MSFontService,sans-serif" font-style="normal" font-variant="normal" font-weight="400" font-stretch="normal" font-size="50" text-anchor="start" direction="ltr" writing-mode="lr-tb" unicode-bidi="normal" text-decoration="none" transform="matrix(1 0 0 1 1249.32 1607)">Container</text><text fill="#000000" fill-opacity="1" font-family="Arial,Arial_MSFontService,sans-serif" font-style="normal" font-variant="normal" font-weight="400" font-stretch="normal" font-size="50" text-anchor="start" direction="ltr" writing-mode="lr-tb" unicode-bidi="normal" text-decoration="none" transform="matrix(1 0 0 1 1091.5 1069)">Port 80</text><path d="M0 0 0.422605 146.659" stroke="#FB9900" stroke-width="12.6042" stroke-linecap="butt" stroke-linejoin="miter" stroke-miterlimit="8" stroke-opacity="1" fill="none" fill-rule="evenodd" transform="matrix(-1 0 0 1 1291.92 1333.5)"/><text fill="#FF9902" fill-opacity="1" font-family="Arial,Arial_MSFontService,sans-serif" font-style="normal" font-variant="normal" font-weight="400" font-stretch="normal" font-size="55" text-anchor="start" direction="ltr" writing-mode="lr-tb" unicode-bidi="normal" text-decoration="none" transform="matrix(1 0 0 1 1963.2 1834)">EC2 instance</text><text fill="#000000" fill-opacity="1" font-family="Arial,Arial_MSFontService,sans-serif" font-style="normal" font-variant="normal" font-weight="400" font-stretch="normal" font-size="50" text-anchor="start" direction="ltr" writing-mode="lr-tb" unicode-bidi="normal" text-decoration="none" transform="matrix(1 0 0 1 2043.54 1306)">ENI</text><g clip-path="url(#clip28)"><g clip-path="url(#clip29)"><g clip-path="url(#clip30)"><path d="M2081.92 1167.09 2096.1 1167.09 2096.1 1152.91 2081.92 1152.91 2081.92 1167.09ZM2102.98 1167.09 2117.16 1167.09 2117.16 1152.91 2102.98 1152.91 2102.98 1167.09ZM2078.48 1173.97 2120.59 1173.97C2122.49 1173.97 2124.03 1172.43 2124.03 1170.53L2124.03 1149.47C2124.03 1147.57 2122.49 1146.03 2120.59 1146.03L2078.48 1146.03C2076.58 1146.03 2075.04 1147.57 2075.04 1149.47L2075.04 1170.53C2075.04 1172.43 2076.58 1173.97 2078.48 1173.97ZM2135.2 1179.12 2126.61 1179.12C2124.71 1179.12 2123.17 1180.66 2123.17 1182.56L2123.17 1188.15 2115.01 1188.15 2115.01 1182.56C2115.01 1180.66 2113.47 1179.12 2111.57 1179.12L2099.54 1179.12C2097.64 1179.12 2096.1 1180.66 2096.1 1182.56L2096.1 1188.15 2072.89 1188.15 2072.89 1182.56C2072.89 1180.66 2071.35 1179.12 2069.46 1179.12L2066.88 1179.12 2066.88 1140.88 2135.2 1140.88 2135.2 1179.12ZM2138.64 1134 2063.44 1134C2061.54 1134 2060 1135.54 2060 1137.44L2060 1182.56C2060 1184.46 2061.54 1186 2063.44 1186L2066.02 1186 2066.02 1191.58C2066.02 1193.49 2067.56 1195.02 2069.46 1195.02L2099.54 1195.02C2101.44 1195.02 2102.98 1193.49 2102.98 1191.58L2102.98 1186 2108.13 1186 2108.13 1191.58C2108.13 1193.49 2109.67 1195.02 2111.57 1195.02L2126.61 1195.02C2128.51 1195.02 2130.05 1193.49 2130.05 1191.58L2130.05 1186 2138.64 1186C2140.54 1186 2142.08 1184.46 2142.08 1182.56L2142.08 1137.44C2142.08 1135.54 2140.54 1134 2138.64 1134ZM2054.85 1131.43 2054.85 1197.6C2054.85 1199.5 2053.31 1201.04 2051.41 1201.04L2040.58 1201.04 2040.58 1194.16 2047.97 1194.16 2047.97 1134.86 2040.58 1134.86 2040.58 1127.99 2051.41 1127.99C2053.31 1127.99 2054.85 1129.52 2054.85 1131.43ZM2087.51 1230.26C2049.59 1230.26 2018.75 1199.42 2018.75 1161.5 2018.75 1123.59 2049.59 1092.75 2087.51 1092.75 2125.42 1092.75 2156.26 1123.59 2156.26 1161.5 2156.26 1199.42 2125.42 1230.26 2087.51 1230.26ZM2087.51 1085.88C2045.8 1085.88 2011.88 1119.8 2011.88 1161.5 2011.88 1203.21 2045.8 1237.14 2087.51 1237.14 2129.21 1237.14 2163.13 1203.21 2163.13 1161.5 2163.13 1119.8 2129.21 1085.88 2087.51 1085.88Z" fill="#A166FF" fill-rule="evenodd" fill-opacity="1"/></g></g></g><rect x="1824.5" y="1482.5" width="522" height="211" stroke="#FB9900" stroke-width="4.58333" stroke-linecap="butt" stroke-linejoin="miter" stroke-miterlimit="8" stroke-opacity="1" fill="#FB9900" fill-opacity="0.2"/><rect x="1773.5" y="1412.5" width="1172" height="478" stroke="#FF9902" stroke-width="4.58333" stroke-linecap="butt" stroke-linejoin="miter" stroke-miterlimit="8" stroke-opacity="1" fill="none"/><g clip-path="url(#clip31)"><g clip-path="url(#clip32)"><g clip-path="url(#clip33)"><path d="M0 0 137 0 137 137 0 137Z" fill="#FF9900" fill-rule="evenodd" fill-opacity="1" transform="matrix(1.12409 0 0 1 1769 1754)"/><path d="M34.25 99.3249 99.3249 99.3249 99.3249 34.25 34.25 34.25 34.25 99.3249ZM113.025 41.0999 113.025 37.6749 102.75 37.6749 102.75 32.5375C102.75 31.5922 101.983 30.825 101.037 30.825L95.8999 30.825 95.8999 20.55 92.4749 20.55 92.4749 30.825 82.1999 30.825 82.1999 20.55 78.7749 20.55 78.7749 30.825 68.4999 30.825 68.4999 20.55 65.0749 20.55 65.0749 30.825 54.7999 30.825 54.7999 20.55 51.3749 20.55 51.3749 30.825 41.0999 30.825 41.0999 20.55 37.6749 20.55 37.6749 30.825 32.5375 30.825C31.5922 30.825 30.825 31.5922 30.825 32.5375L30.825 37.6749 20.55 37.6749 20.55 41.0999 30.825 41.0999 30.825 51.3749 20.55 51.3749 20.55 54.7999 30.825 54.7999 30.825 65.0749 20.55 65.0749 20.55 68.4999 30.825 68.4999 30.825 78.7749 20.55 78.7749 20.55 82.1999 30.825 82.1999 30.825 92.4749 20.55 92.4749 20.55 95.8999 30.825 95.8999 30.825 101.037C30.825 101.983 31.5922 102.75 32.5375 102.75L37.6749 102.75 37.6749 113.025 41.0999 113.025 41.0999 102.75 51.3749 102.75 51.3749 113.025 54.7999 113.025 54.7999 102.75 65.0749 102.75 65.0749 113.025 68.4999 113.025 68.4999 102.75 78.7749 102.75 78.7749 113.025 82.1999 113.025 82.1999 102.75 92.4749 102.75 92.4749 113.025 95.8999 113.025 95.8999 102.75 101.037 102.75C101.983 102.75 102.75 101.983 102.75 101.037L102.75 95.8999 113.025 95.8999 113.025 92.4749 102.75 92.4749 102.75 82.1999 113.025 82.1999 113.025 78.7749 102.75 78.7749 102.75 68.4999 113.025 68.4999 113.025 65.0749 102.75 65.0749 102.75 54.7999 113.025 54.7999 113.025 51.3749 102.75 51.3749 102.75 41.0999 113.025 41.0999Z" fill="#232F3E" fill-rule="evenodd" fill-opacity="1" transform="matrix(1.12409 0 0 1 1769 1754)"/></g></g></g><g clip-path="url(#clip34)"><g clip-path="url(#clip35)"><g clip-path="url(#clip36)"><path d="M1918.84 1610.49 1954.04 1610.49 1954.04 1575.29 1918.84 1575.29 1918.84 1610.49ZM1914.97 1616.61 1914.97 1622.95 1921.85 1622.95 1921.85 1617.37 1926.99 1617.37 1926.99 1622.95 1933.87 1622.95 1933.87 1617.37 1939.01 1617.37 1939.01 1622.95 1945.89 1622.95 1945.89 1617.37 1951.03 1617.37 1951.03 1622.95 1957.91 1622.95 1957.91 1616.61C1958.85 1616.08 1959.63 1615.31 1960.16 1614.36L1966.49 1614.36 1966.49 1607.49 1960.91 1607.49 1960.91 1602.34 1966.49 1602.34 1966.49 1595.47 1960.91 1595.47 1960.91 1590.32 1966.49 1590.32 1966.49 1583.44 1960.91 1583.44 1960.91 1578.3 1966.49 1578.3 1966.49 1571.42 1960.16 1571.42C1959.63 1570.48 1958.85 1569.7 1957.91 1569.17L1957.91 1562.84 1951.03 1562.84 1951.03 1568.42 1945.89 1568.42 1945.89 1562.84 1939.01 1562.84 1939.01 1568.42 1933.87 1568.42 1933.87 1562.84 1926.99 1562.84 1926.99 1568.42 1921.85 1568.42 1921.85 1562.84 1914.97 1562.84 1914.97 1569.17C1914.02 1569.7 1913.25 1570.48 1912.72 1571.42L1906.39 1571.42 1906.39 1578.3 1911.97 1578.3 1911.97 1583.44 1906.39 1583.44 1906.39 1590.32 1911.97 1590.32 1911.97 1595.47 1906.39 1595.47 1906.39 1602.34 1911.97 1602.34 1911.97 1607.49 1906.39 1607.49 1906.39 1614.36 1912.72 1614.36C1913.25 1615.31 1914.02 1616.08 1914.97 1616.61ZM1990.1 1625.95 1996.98 1625.95 1996.98 1559.84 1990.1 1559.84 1990.1 1625.95ZM1972.07 1625.95 1978.94 1625.95 1978.94 1559.84 1972.07 1559.84 1972.07 1625.95ZM1893.93 1625.95 1900.8 1625.95 1900.8 1559.84 1893.93 1559.84 1893.93 1625.95ZM1875.9 1625.95 1882.78 1625.95 1882.78 1559.84 1875.9 1559.84 1875.9 1625.95ZM1867.75 1634.53 2005.13 1634.53 2005.13 1551.25 1867.75 1551.25 1867.75 1634.53ZM2008.56 1544.38 1864.31 1544.38C1862.41 1544.38 1860.87 1545.91 1860.87 1547.81L1860.87 1637.97C1860.87 1639.87 1862.41 1641.41 1864.31 1641.41L2008.56 1641.41C2010.46 1641.41 2012 1639.87 2012 1637.97L2012 1547.81C2012 1545.91 2010.46 1544.38 2008.56 1544.38Z" fill="#FF9900" fill-rule="evenodd" fill-opacity="1"/></g></g></g><text fill="#000000" fill-opacity="1" font-family="Arial,Arial_MSFontService,sans-serif" font-style="normal" font-variant="normal" font-weight="400" font-stretch="normal" font-size="50" text-anchor="start" direction="ltr" writing-mode="lr-tb" unicode-bidi="normal" text-decoration="none" transform="matrix(1 0 0 1 2043.37 1609)">Container</text><text fill="#000000" fill-opacity="1" font-family="Arial,Arial_MSFontService,sans-serif" font-style="normal" font-variant="normal" font-weight="400" font-stretch="normal" font-size="50" text-anchor="start" direction="ltr" writing-mode="lr-tb" unicode-bidi="normal" text-decoration="none" transform="matrix(1 0 0 1 1885.54 1072)">Port 80</text><path d="M0 0 0.422605 146.659" stroke="#FB9900" stroke-width="12.6042" stroke-linecap="butt" stroke-linejoin="miter" stroke-miterlimit="8" stroke-opacity="1" fill="none" fill-rule="evenodd" transform="matrix(-1 0 0 1 2085.92 1335.5)"/><text fill="#000000" fill-opacity="1" font-family="Arial,Arial_MSFontService,sans-serif" font-style="normal" font-variant="normal" font-weight="400" font-stretch="normal" font-size="50" text-anchor="start" direction="ltr" writing-mode="lr-tb" unicode-bidi="normal" text-decoration="none" transform="matrix(1 0 0 1 2593.63 1304)">ENI</text><g clip-path="url(#clip37)"><g clip-path="url(#clip38)"><g clip-path="url(#clip39)"><path d="M2631.92 1164.09 2646.1 1164.09 2646.1 1149.91 2631.92 1149.91 2631.92 1164.09ZM2652.98 1164.09 2667.16 1164.09 2667.16 1149.91 2652.98 1149.91 2652.98 1164.09ZM2628.48 1170.97 2670.59 1170.97C2672.49 1170.97 2674.03 1169.43 2674.03 1167.53L2674.03 1146.47C2674.03 1144.57 2672.49 1143.03 2670.59 1143.03L2628.48 1143.03C2626.58 1143.03 2625.04 1144.57 2625.04 1146.47L2625.04 1167.53C2625.04 1169.43 2626.58 1170.97 2628.48 1170.97ZM2685.2 1176.12 2676.61 1176.12C2674.71 1176.12 2673.17 1177.66 2673.17 1179.56L2673.17 1185.15 2665.01 1185.15 2665.01 1179.56C2665.01 1177.66 2663.47 1176.12 2661.57 1176.12L2649.54 1176.12C2647.64 1176.12 2646.1 1177.66 2646.1 1179.56L2646.1 1185.15 2622.89 1185.15 2622.89 1179.56C2622.89 1177.66 2621.35 1176.12 2619.46 1176.12L2616.88 1176.12 2616.88 1137.88 2685.2 1137.88 2685.2 1176.12ZM2688.64 1131 2613.44 1131C2611.54 1131 2610 1132.54 2610 1134.44L2610 1179.56C2610 1181.46 2611.54 1183 2613.44 1183L2616.02 1183 2616.02 1188.58C2616.02 1190.49 2617.56 1192.02 2619.46 1192.02L2649.54 1192.02C2651.44 1192.02 2652.98 1190.49 2652.98 1188.58L2652.98 1183 2658.13 1183 2658.13 1188.58C2658.13 1190.49 2659.67 1192.02 2661.57 1192.02L2676.61 1192.02C2678.51 1192.02 2680.05 1190.49 2680.05 1188.58L2680.05 1183 2688.64 1183C2690.54 1183 2692.08 1181.46 2692.08 1179.56L2692.08 1134.44C2692.08 1132.54 2690.54 1131 2688.64 1131ZM2604.85 1128.43 2604.85 1194.6C2604.85 1196.5 2603.31 1198.04 2601.41 1198.04L2590.58 1198.04 2590.58 1191.16 2597.97 1191.16 2597.97 1131.86 2590.58 1131.86 2590.58 1124.99 2601.41 1124.99C2603.31 1124.99 2604.85 1126.52 2604.85 1128.43ZM2637.51 1227.26C2599.59 1227.26 2568.75 1196.42 2568.75 1158.5 2568.75 1120.59 2599.59 1089.75 2637.51 1089.75 2675.42 1089.75 2706.26 1120.59 2706.26 1158.5 2706.26 1196.42 2675.42 1227.26 2637.51 1227.26ZM2637.51 1082.87C2595.8 1082.87 2561.88 1116.8 2561.88 1158.5 2561.88 1200.21 2595.8 1234.14 2637.51 1234.14 2679.21 1234.14 2713.13 1200.21 2713.13 1158.5 2713.13 1116.8 2679.21 1082.87 2637.51 1082.87Z" fill="#A166FF" fill-rule="evenodd" fill-opacity="1"/></g></g></g><rect x="2374.5" y="1480.5" width="522" height="211" stroke="#FB9900" stroke-width="4.58333" stroke-linecap="butt" stroke-linejoin="miter" stroke-miterlimit="8" stroke-opacity="1" fill="#FB9900" fill-opacity="0.2"/><g clip-path="url(#clip40)"><g clip-path="url(#clip41)"><g clip-path="url(#clip42)"><path d="M2468.84 1608.49 2504.04 1608.49 2504.04 1573.29 2468.84 1573.29 2468.84 1608.49ZM2464.97 1614.61 2464.97 1620.95 2471.85 1620.95 2471.85 1615.37 2476.99 1615.37 2476.99 1620.95 2483.87 1620.95 2483.87 1615.37 2489.01 1615.37 2489.01 1620.95 2495.89 1620.95 2495.89 1615.37 2501.03 1615.37 2501.03 1620.95 2507.91 1620.95 2507.91 1614.61C2508.85 1614.08 2509.63 1613.31 2510.16 1612.36L2516.49 1612.36 2516.49 1605.49 2510.91 1605.49 2510.91 1600.34 2516.49 1600.34 2516.49 1593.47 2510.91 1593.47 2510.91 1588.32 2516.49 1588.32 2516.49 1581.44 2510.91 1581.44 2510.91 1576.3 2516.49 1576.3 2516.49 1569.42 2510.16 1569.42C2509.63 1568.48 2508.85 1567.7 2507.91 1567.17L2507.91 1560.84 2501.03 1560.84 2501.03 1566.42 2495.89 1566.42 2495.89 1560.84 2489.01 1560.84 2489.01 1566.42 2483.87 1566.42 2483.87 1560.84 2476.99 1560.84 2476.99 1566.42 2471.85 1566.42 2471.85 1560.84 2464.97 1560.84 2464.97 1567.17C2464.02 1567.7 2463.25 1568.48 2462.72 1569.42L2456.39 1569.42 2456.39 1576.3 2461.97 1576.3 2461.97 1581.44 2456.39 1581.44 2456.39 1588.32 2461.97 1588.32 2461.97 1593.47 2456.39 1593.47 2456.39 1600.34 2461.97 1600.34 2461.97 1605.49 2456.39 1605.49 2456.39 1612.36 2462.72 1612.36C2463.25 1613.31 2464.02 1614.08 2464.97 1614.61ZM2540.1 1623.95 2546.98 1623.95 2546.98 1557.84 2540.1 1557.84 2540.1 1623.95ZM2522.07 1623.95 2528.94 1623.95 2528.94 1557.84 2522.07 1557.84 2522.07 1623.95ZM2443.93 1623.95 2450.8 1623.95 2450.8 1557.84 2443.93 1557.84 2443.93 1623.95ZM2425.9 1623.95 2432.78 1623.95 2432.78 1557.84 2425.9 1557.84 2425.9 1623.95ZM2417.75 1632.53 2555.13 1632.53 2555.13 1549.25 2417.75 1549.25 2417.75 1632.53ZM2558.56 1542.38 2414.31 1542.38C2412.41 1542.38 2410.87 1543.91 2410.87 1545.81L2410.87 1635.97C2410.87 1637.87 2412.41 1639.41 2414.31 1639.41L2558.56 1639.41C2560.46 1639.41 2562 1637.87 2562 1635.97L2562 1545.81C2562 1543.91 2560.46 1542.38 2558.56 1542.38Z" fill="#FF9900" fill-rule="evenodd" fill-opacity="1"/></g></g></g><text fill="#000000" fill-opacity="1" font-family="Arial,Arial_MSFontService,sans-serif" font-style="normal" font-variant="normal" font-weight="400" font-stretch="normal" font-size="50" text-anchor="start" direction="ltr" writing-mode="lr-tb" unicode-bidi="normal" text-decoration="none" transform="matrix(1 0 0 1 2593.46 1607)">Container</text><text fill="#000000" fill-opacity="1" font-family="Arial,Arial_MSFontService,sans-serif" font-style="normal" font-variant="normal" font-weight="400" font-stretch="normal" font-size="50" text-anchor="start" direction="ltr" writing-mode="lr-tb" unicode-bidi="normal" text-decoration="none" transform="matrix(1 0 0 1 2696.68 1069)">Port 80</text><path d="M0 0 0.422605 146.659" stroke="#FB9900" stroke-width="12.6042" stroke-linecap="butt" stroke-linejoin="miter" stroke-miterlimit="8" stroke-opacity="1" fill="none" fill-rule="evenodd" transform="matrix(-1 0 0 1 2635.92 1333.5)"/><text fill="#000000" fill-opacity="1" font-family="Arial,Arial_MSFontService,sans-serif" font-style="normal" font-variant="normal" font-weight="400" font-stretch="normal" font-size="50" text-anchor="start" direction="ltr" writing-mode="lr-tb" unicode-bidi="normal" text-decoration="none" transform="matrix(1 0 0 1 1151.39 737)">NAT gateway</text><text fill="#000000" fill-opacity="1" font-family="Arial,Arial_MSFontService,sans-serif" font-style="normal" font-variant="normal" font-weight="400" font-stretch="normal" font-size="50" text-anchor="start" direction="ltr" writing-mode="lr-tb" unicode-bidi="normal" text-decoration="none" transform="matrix(1 0 0 1 1888.83 741)">NAT gateway</text><g clip-path="url(#clip43)"><g clip-path="url(#clip44)"><g clip-path="url(#clip45)"><g clip-path="url(#clip46)"><g clip-path="url(#clip47)"><g clip-path="url(#clip48)"><g clip-path="url(#clip49)"><path d="M1290.22 680.716C1248.28 680.716 1214.28 646.719 1214.28 604.781 1214.28 562.844 1248.28 528.847 1290.22 528.847 1332.16 528.847 1366.15 562.844 1366.15 604.781 1366.12 646.705 1332.16 680.681 1290.22 680.716ZM1290.22 535.309C1251.86 535.309 1220.75 566.412 1220.75 604.781 1220.75 643.15 1251.86 674.253 1290.22 674.253 1328.58 674.253 1359.69 643.15 1359.69 604.781 1359.66 566.429 1328.58 535.344 1290.22 535.309Z" fill="#A166FF" fill-rule="nonzero" fill-opacity="1"/><path d="M1299.29 647.403 1272.69 647.403 1272.69 640.94 1296.06 640.94 1296.06 574.7 1272.69 574.7 1272.69 568.237 1299.29 568.237C1301.08 568.237 1302.52 569.681 1302.52 571.468L1302.52 644.172C1302.52 645.956 1301.08 647.403 1299.29 647.403Z" fill="#A166FF" fill-rule="nonzero" fill-opacity="1"/><path d="M1272.07 604.589 1329.61 604.589 1329.61 611.051 1272.07 611.051Z" fill="#A166FF" fill-rule="nonzero" fill-opacity="1"/><path d="M1250.82 586.817C1250.34 586.813 1249.86 586.703 1249.45 586.494 1248.32 585.957 1247.59 584.826 1247.59 583.586L1247.59 559.351C1247.59 558.107 1248.32 556.976 1249.45 556.443 1250.55 555.9 1251.89 556.051 1252.85 556.828L1267.98 568.945C1268.77 569.557 1269.22 570.485 1269.22 571.468 1269.22 572.451 1268.77 573.376 1267.98 573.988L1252.85 586.105C1252.3 586.569 1251.58 586.82 1250.82 586.817ZM1254.06 566.071 1254.06 576.862 1260.83 571.468Z" fill="#A166FF" fill-rule="nonzero" fill-opacity="1"/><path d="M1250.82 623.168C1250.34 623.165 1249.86 623.055 1249.45 622.845 1248.32 622.309 1247.59 621.178 1247.59 619.937L1247.59 595.703C1247.59 594.458 1248.32 593.327 1249.45 592.795 1250.55 592.251 1251.89 592.403 1252.85 593.18L1267.98 605.297C1268.77 605.909 1269.22 606.837 1269.22 607.82 1269.22 608.803 1268.77 609.728 1267.98 610.34L1252.85 622.457C1252.3 622.921 1251.58 623.172 1250.82 623.168ZM1254.06 602.423 1254.06 613.213 1260.83 607.82Z" fill="#A166FF" fill-rule="nonzero" fill-opacity="1"/><path d="M1332.6 626.173C1332.19 626.173 1331.78 626.097 1331.4 625.946 1330.16 625.447 1329.37 624.258 1329.37 622.941L1329.37 592.664C1329.37 590.88 1330.82 589.426 1332.6 589.416 1333.46 589.409 1334.29 589.752 1334.91 590.371L1350.07 605.524C1351.3 606.785 1351.3 608.82 1350.07 610.082L1334.91 625.234C1334.29 625.839 1333.46 626.176 1332.6 626.173ZM1335.83 600.323 1335.83 615.025 1343.22 607.689Z" fill="#A166FF" fill-rule="nonzero" fill-opacity="1"/><path d="M1250.82 656.481C1250.34 656.478 1249.86 656.368 1249.45 656.158 1248.32 655.625 1247.59 654.494 1247.59 653.25L1247.59 629.015C1247.59 627.231 1249.04 625.781 1250.82 625.774 1251.55 625.77 1252.3 626.025 1252.85 626.496L1267.98 638.613C1269.39 639.73 1269.59 641.762 1268.49 643.154 1268.32 643.34 1268.18 643.505 1267.98 643.652L1252.85 655.77C1252.3 656.234 1251.58 656.484 1250.82 656.481ZM1254.06 635.736 1254.06 646.53 1260.83 641.133Z" fill="#A166FF" fill-rule="nonzero" fill-opacity="1"/></g></g></g></g></g></g></g><g clip-path="url(#clip50)"><g clip-path="url(#clip51)"><g clip-path="url(#clip52)"><g clip-path="url(#clip53)"><g clip-path="url(#clip54)"><g clip-path="url(#clip55)"><g clip-path="url(#clip56)"><path d="M2049.22 682.716C2007.28 682.716 1973.28 648.719 1973.28 606.781 1973.28 564.844 2007.28 530.847 2049.22 530.847 2091.16 530.847 2125.15 564.844 2125.15 606.781 2125.12 648.705 2091.16 682.681 2049.22 682.716ZM2049.22 537.309C2010.86 537.309 1979.75 568.412 1979.75 606.781 1979.75 645.151 2010.86 676.253 2049.22 676.253 2087.58 676.253 2118.69 645.151 2118.69 606.781 2118.66 568.429 2087.58 537.344 2049.22 537.309Z" fill="#A166FF" fill-rule="nonzero" fill-opacity="1"/><path d="M2058.29 649.403 2031.69 649.403 2031.69 642.94 2055.06 642.94 2055.06 576.7 2031.69 576.7 2031.69 570.237 2058.29 570.237C2060.08 570.237 2061.52 571.681 2061.52 573.468L2061.52 646.172C2061.52 647.956 2060.08 649.403 2058.29 649.403Z" fill="#A166FF" fill-rule="nonzero" fill-opacity="1"/><path d="M2031.07 606.589 2088.61 606.589 2088.61 613.051 2031.07 613.051Z" fill="#A166FF" fill-rule="nonzero" fill-opacity="1"/><path d="M2009.82 588.817C2009.34 588.813 2008.86 588.703 2008.45 588.494 2007.32 587.957 2006.59 586.827 2006.59 585.586L2006.59 561.351C2006.59 560.107 2007.32 558.976 2008.45 558.443 2009.55 557.9 2010.89 558.051 2011.85 558.828L2026.98 570.945C2027.77 571.557 2028.22 572.485 2028.22 573.468 2028.22 574.451 2027.77 575.376 2026.98 575.988L2011.85 588.105C2011.3 588.569 2010.58 588.82 2009.82 588.817ZM2013.06 568.072 2013.06 578.862 2019.83 573.468Z" fill="#A166FF" fill-rule="nonzero" fill-opacity="1"/><path d="M2009.82 625.168C2009.34 625.165 2008.86 625.055 2008.45 624.845 2007.32 624.309 2006.59 623.178 2006.59 621.937L2006.59 597.703C2006.59 596.458 2007.32 595.327 2008.45 594.795 2009.55 594.252 2010.89 594.403 2011.85 595.18L2026.98 607.297C2027.77 607.909 2028.22 608.837 2028.22 609.82 2028.22 610.803 2027.77 611.728 2026.98 612.34L2011.85 624.457C2011.3 624.921 2010.58 625.172 2009.82 625.168ZM2013.06 604.423 2013.06 615.213 2019.83 609.82Z" fill="#A166FF" fill-rule="nonzero" fill-opacity="1"/><path d="M2091.6 628.173C2091.19 628.173 2090.78 628.097 2090.4 627.946 2089.16 627.447 2088.37 626.258 2088.37 624.941L2088.37 594.664C2088.37 592.88 2089.82 591.426 2091.6 591.416 2092.46 591.409 2093.29 591.752 2093.91 592.371L2109.07 607.524C2110.3 608.785 2110.3 610.82 2109.07 612.082L2093.91 627.234C2093.29 627.839 2092.46 628.176 2091.6 628.173ZM2094.83 602.323 2094.83 617.025 2102.23 609.689Z" fill="#A166FF" fill-rule="nonzero" fill-opacity="1"/><path d="M2009.82 658.481C2009.34 658.478 2008.86 658.368 2008.45 658.158 2007.32 657.625 2006.59 656.494 2006.59 655.25L2006.59 631.016C2006.59 629.232 2008.04 627.781 2009.82 627.774 2010.55 627.771 2011.3 628.025 2011.85 628.496L2026.98 640.613C2028.39 641.73 2028.59 643.762 2027.49 645.154 2027.32 645.34 2027.18 645.505 2026.98 645.652L2011.85 657.77C2011.3 658.234 2010.58 658.485 2009.82 658.481ZM2013.06 637.736 2013.06 648.53 2019.83 643.133Z" fill="#A166FF" fill-rule="nonzero" fill-opacity="1"/></g></g></g></g></g></g></g><path d="M5.72917-7.36417e-06 5.72949 252.121-5.72884 252.121-5.72917 7.36417e-06ZM17.1878 246.392 0.000360892 280.767-17.1872 246.392Z" fill="#BFBFBF" fill-rule="nonzero" fill-opacity="1" transform="matrix(1 0 0 -1 2085.5 1051.27)"/><path d="M2632.96 1058.27 2189.43 801.799 2195.17 791.88 2638.69 1048.35ZM2188.65 814.587 2167.5 782.5 2205.86 784.829Z" fill="#BFBFBF" fill-rule="nonzero" fill-opacity="1"/><path d="M1196.05 608.83 712.105 605.43 712.186 593.972 1196.13 597.372ZM717.753 616.929 683.5 599.5 717.995 582.554Z" fill="#BFBFBF" fill-rule="nonzero" fill-opacity="1"/><path d="M0 0 548.379 0.000360892" stroke="#BFBFBF" stroke-width="11.4583" stroke-linecap="butt" stroke-linejoin="miter" stroke-miterlimit="8" stroke-opacity="1" fill="none" fill-rule="evenodd" transform="matrix(-1 0 0 1 1936.88 603.5)"/><path d="M452.851 605.029 186.11 603.404 186.18 591.945 452.921 593.571ZM191.77 614.897 157.5 597.5 191.979 580.522Z" fill="#BFBFBF" fill-rule="nonzero" fill-opacity="1"/><text fill="#000000" fill-opacity="1" font-family="Arial,Arial_MSFontService,sans-serif" font-style="normal" font-variant="normal" font-weight="400" font-stretch="normal" font-size="50" text-anchor="start" direction="ltr" writing-mode="lr-tb" unicode-bidi="normal" text-decoration="none" transform="matrix(1 0 0 1 1335.09 953)">Outbound</text><text fill="#000000" fill-opacity="1" font-family="Arial,Arial_MSFontService,sans-serif" font-style="normal" font-variant="normal" font-weight="400" font-stretch="normal" font-size="50" text-anchor="start" direction="ltr" writing-mode="lr-tb" unicode-bidi="normal" text-decoration="none" transform="matrix(1 0 0 1 2132.98 949)">Outbound</text><path d="M28.6458-5.72915 569.214-5.72882 569.214 5.72951 28.6458 5.72918ZM34.375 17.1875 0 0 34.375-17.1875ZM563.485-17.1872 597.86 0.000360892 563.485 17.1878Z" fill="#BFBFBF" fill-rule="nonzero" fill-opacity="1" transform="matrix(-1 0 0 1 1990.36 1164.5)"/><path d="M28.6458-5.72914 331.295-5.72883 331.295 5.7295 28.6458 5.7292ZM34.375 17.1875 0 0 34.375-17.1875ZM325.566-17.1872 359.941 0.000360892 325.566 17.1878Z" fill="#BFBFBF" fill-rule="nonzero" fill-opacity="1" transform="matrix(-1 0 0 1 2540.44 1164.5)"/><text fill="#000000" fill-opacity="1" font-family="Arial,Arial_MSFontService,sans-serif" font-style="normal" font-variant="normal" font-weight="400" font-stretch="normal" font-size="50" text-anchor="start" direction="ltr" writing-mode="lr-tb" unicode-bidi="normal" text-decoration="none" transform="matrix(1 0 0 1 1452.44 1228)">Internal</text><text fill="#000000" fill-opacity="1" font-family="Arial,Arial_MSFontService,sans-serif" font-style="normal" font-variant="normal" font-weight="400" font-stretch="normal" font-size="50" text-anchor="start" direction="ltr" writing-mode="lr-tb" unicode-bidi="normal" text-decoration="none" transform="matrix(1 0 0 1 2262.97 1227)">Internal</text></g></svg>