<svg width="2957" height="1916" xmlns="http://www.w3.org/2000/svg" xmlns:xlink="http://www.w3.org/1999/xlink" xml:space="preserve" overflow="hidden"><defs><clipPath id="clip0"><rect x="132" y="247" width="2957" height="1916"/></clipPath><clipPath id="clip1"><rect x="905" y="1981" width="137" height="137"/></clipPath><clipPath id="clip2"><rect x="905" y="1981" width="137" height="137"/></clipPath><clipPath id="clip3"><rect x="905" y="1981" width="137" height="137"/></clipPath><clipPath id="clip4"><rect x="904" y="315" width="138" height="139"/></clipPath><clipPath id="clip5"><rect x="904" y="315" width="138" height="139"/></clipPath><clipPath id="clip6"><rect x="904" y="315" width="138" height="139"/></clipPath><clipPath id="clip7"><rect x="347" y="249" width="140" height="139"/></clipPath><clipPath id="clip8"><rect x="347" y="249" width="140" height="139"/></clipPath><clipPath id="clip9"><rect x="347" y="249" width="140" height="139"/></clipPath><clipPath id="clip10"><rect x="489" y="577" width="170" height="170"/></clipPath><clipPath id="clip11"><rect x="489" y="577" width="170" height="170"/></clipPath><clipPath id="clip12"><rect x="489" y="577" width="170" height="170"/></clipPath><clipPath id="clip13"><rect x="2567" y="1075" width="166" height="166"/></clipPath><clipPath id="clip14"><rect x="2567" y="1075" width="166" height="166"/></clipPath><clipPath id="clip15"><rect x="2567" y="1075" width="166" height="166"/></clipPath><clipPath id="clip16"><rect x="2330" y="1752" width="155" height="137"/></clipPath><clipPath id="clip17"><rect x="2330" y="1752" width="155" height="137"/></clipPath><clipPath id="clip18"><rect x="2330" y="1752" width="155" height="137"/></clipPath><clipPath id="clip19"><rect x="2415" y="1508" width="166" height="166"/></clipPath><clipPath id="clip20"><rect x="2415" y="1508" width="166" height="166"/></clipPath><clipPath id="clip21"><rect x="2415" y="1508" width="166" height="166"/></clipPath><clipPath id="clip22"><rect x="1213" y="1079" width="166" height="166"/></clipPath><clipPath id="clip23"><rect x="1213" y="1079" width="166" height="166"/></clipPath><clipPath id="clip24"><rect x="1213" y="1079" width="166" height="166"/></clipPath><clipPath id="clip25"><rect x="976" y="1754" width="155" height="137"/></clipPath><clipPath id="clip26"><rect x="976" y="1754" width="155" height="137"/></clipPath><clipPath id="clip27"><rect x="976" y="1754" width="155" height="137"/></clipPath><clipPath id="clip28"><rect x="1061" y="1510" width="166" height="166"/></clipPath><clipPath id="clip29"><rect x="1061" y="1510" width="166" height="166"/></clipPath><clipPath id="clip30"><rect x="1061" y="1510" width="166" height="166"/></clipPath><clipPath id="clip31"><rect x="1763" y="1075" width="166" height="166"/></clipPath><clipPath id="clip32"><rect x="1763" y="1075" width="166" height="166"/></clipPath><clipPath id="clip33"><rect x="1763" y="1075" width="166" height="166"/></clipPath><clipPath id="clip34"><rect x="1611" y="1508" width="166" height="166"/></clipPath><clipPath id="clip35"><rect x="1611" y="1508" width="166" height="166"/></clipPath><clipPath id="clip36"><rect x="1611" y="1508" width="166" height="166"/></clipPath><clipPath id="clip37"><rect x="1059" y="584" width="166" height="166"/></clipPath><clipPath id="clip38"><rect x="1059" y="584" width="166" height="166"/></clipPath><clipPath id="clip39"><rect x="1059" y="584" width="166" height="166"/></clipPath></defs><g clip-path="url(#clip0)" transform="translate(-132 -247)"><rect x="905.5" y="996.5" width="2097" height="1123" stroke="#548235" stroke-width="4.58333" stroke-linecap="butt" stroke-linejoin="miter" stroke-miterlimit="8" stroke-dasharray="18.3333 13.75" stroke-opacity="0.2" fill="#E2F0D9" fill-opacity="0.2"/><g clip-path="url(#clip1)"><g clip-path="url(#clip2)"><g clip-path="url(#clip3)"><path d="M905 1981 1042 1981 1042 2118 905 2118Z" fill="#6CAE3E" fill-rule="evenodd" fill-opacity="1"/><path d="M971.911 2056.52C975.699 2056.52 978.781 2059.6 978.781 2063.38 978.781 2067.17 975.699 2070.26 971.911 2070.26 968.123 2070.26 965.04 2067.17 965.04 2063.38 965.04 2059.6 968.123 2056.52 971.911 2056.52L971.911 2056.52ZM970.116 2073.5 970.116 2085.47 973.541 2085.47 973.541 2073.52C978.439 2072.73 982.206 2068.51 982.206 2063.38 982.206 2057.71 977.586 2053.09 971.911 2053.09 966.236 2053.09 961.615 2057.71 961.615 2063.38 961.615 2068.45 965.294 2072.64 970.116 2073.5ZM939.25 2094.07 1004.37 2094.07 1004.37 2042.65 939.25 2042.65 939.25 2094.07ZM953.108 2023.76C953.108 2013.4 961.533 2004.97 971.887 2004.97 982.244 2004.97 990.666 2013.4 990.666 2023.76L990.666 2039.22 953.108 2039.22 953.108 2023.76ZM1006.08 2039.22 994.091 2039.22 994.091 2023.76C994.091 2011.51 984.128 2001.55 971.887 2001.55 959.643 2001.55 949.683 2011.51 949.683 2023.76L949.683 2039.22 937.538 2039.22C936.589 2039.22 935.825 2039.99 935.825 2040.94L935.825 2095.79C935.825 2096.73 936.589 2097.5 937.538 2097.5L1006.08 2097.5C1007.02 2097.5 1007.79 2096.73 1007.79 2095.79L1007.79 2040.94C1007.79 2039.99 1007.02 2039.22 1006.08 2039.22Z" fill="#232F3E" fill-rule="evenodd" fill-opacity="1"/></g></g></g><rect x="905.5" y="315.5" width="2097" height="569" stroke="#548235" stroke-width="4.58333" stroke-linecap="butt" stroke-linejoin="miter" stroke-miterlimit="8" stroke-dasharray="18.3333 13.75" stroke-opacity="0.2" fill="#E2F0D9" fill-opacity="0.2"/><text fill="#6CAE3E" fill-opacity="1" font-family="Arial,Arial_MSFontService,sans-serif" font-style="normal" font-variant="normal" font-weight="400" font-stretch="normal" font-size="55" text-anchor="start" direction="ltr" writing-mode="lr-tb" unicode-bidi="normal" text-decoration="none" transform="matrix(1 0 0 1 1078.79 384)">Public </text><text fill="#6CAE3E" fill-opacity="1" font-family="Arial,Arial_MSFontService,sans-serif" font-style="normal" font-variant="normal" font-weight="400" font-stretch="normal" font-size="55" text-anchor="start" direction="ltr" writing-mode="lr-tb" unicode-bidi="normal" text-decoration="none" transform="matrix(1 0 0 1 1243.22 384)">subnets</text><g clip-path="url(#clip4)"><g clip-path="url(#clip5)"><g clip-path="url(#clip6)"><path d="M0 0 137 0 137 137 0 137Z" fill="#6CAE3E" fill-rule="evenodd" fill-opacity="1" transform="matrix(1.0073 0 0 1 904 316)"/><path d="M66.9109 75.5179C70.6989 75.5179 73.7814 78.597 73.7814 82.385 73.7814 86.1731 70.6989 89.2556 66.9109 89.2556 63.1228 89.2556 60.0403 86.1731 60.0403 82.385 60.0403 78.597 63.1228 75.5179 66.9109 75.5179L66.9109 75.5179ZM65.1162 92.4991 65.1162 104.466 68.5412 104.466 68.5412 92.5162C73.4389 91.7285 77.2064 87.5054 77.2064 82.385 77.2064 76.7098 72.5861 72.0929 66.9109 72.0929 61.2356 72.0929 56.6153 76.7098 56.6153 82.385 56.6153 87.4472 60.2938 91.6428 65.1162 92.4991ZM34.25 113.073 99.3662 113.073 99.3662 61.6501 34.25 61.6501 34.25 113.073ZM48.1076 42.7578C48.1076 32.4005 56.5331 23.975 66.8869 23.975 77.2441 23.975 85.6662 32.4005 85.6662 42.7578L85.6662 58.2251 48.1076 58.2251 48.1076 42.7578ZM101.079 58.2251 89.0912 58.2251 89.0912 42.7578C89.0912 30.5099 79.1279 20.55 66.8869 20.55 54.6425 20.55 44.6826 30.5099 44.6826 42.7578L44.6826 58.2251 32.5375 58.2251C31.5888 58.2251 30.825 58.9923 30.825 59.9376L30.825 114.786C30.825 115.731 31.5888 116.498 32.5375 116.498L101.079 116.498C102.024 116.498 102.791 115.731 102.791 114.786L102.791 59.9376C102.791 58.9923 102.024 58.2251 101.079 58.2251Z" fill="#232F3E" fill-rule="evenodd" fill-opacity="1" transform="matrix(1.0073 0 0 1 904 316)"/></g></g></g><rect x="348.5" y="250.5" width="2737" height="1909" stroke="#70AD47" stroke-width="4.58333" stroke-linecap="butt" stroke-linejoin="miter" stroke-miterlimit="8" stroke-opacity="1" fill="none"/><text fill="#000000" fill-opacity="1" font-family="Arial,Arial_MSFontService,sans-serif" font-style="normal" font-variant="normal" font-weight="400" font-stretch="normal" font-size="55" text-anchor="start" direction="ltr" writing-mode="lr-tb" unicode-bidi="normal" text-decoration="none" transform="matrix(1 0 0 1 529.704 336)">VPC</text><g clip-path="url(#clip7)"><g clip-path="url(#clip8)"><g clip-path="url(#clip9)"><path d="M0 0 137 0 137 137 0 137Z" fill="#6CAE3E" fill-rule="evenodd" fill-opacity="1" transform="matrix(1.0073 0 0 1 348 250)"/><path d="M99.3011 95.883 39.343 95.8179C31.2395 95.8111 24.5025 89.4919 24.0161 81.4295 23.9887 81.0082 23.975 80.5766 23.975 80.1348 23.975 69.5242 31.1367 66.0581 35.4043 64.9346 36.2263 64.7189 36.7674 63.9311 36.6715 63.0852 36.5653 62.1604 36.5071 61.2219 36.5071 60.2664 36.5071 51.8272 42.1549 42.7509 49.3714 39.6033 52.6046 38.1888 55.5947 37.6271 58.3038 37.6271 66.0204 37.6271 71.4696 42.1789 73.8465 44.6381 76.4769 47.3541 78.5251 50.8202 79.9396 54.9439 80.1451 55.5501 80.676 55.9885 81.3096 56.081 81.9192 56.1735 82.5734 55.9063 82.9502 55.3857 84.9641 52.5738 88.2487 51.3134 91.3072 52.1936 95.1535 53.2931 97.6674 57.29 98.0236 62.7015 97.8798 63.6229 98.4997 64.4894 99.4176 64.6538 103.51 65.3799 113.025 68.3528 113.025 80.2821 113.025 94.4924 99.7156 95.8385 99.3011 95.883ZM101.36 61.561C100.623 55.0295 97.2701 50.3339 92.2491 48.9022 88.7042 47.8884 84.9778 48.7892 82.1624 51.2038 80.6691 47.7309 78.7032 44.7306 76.3091 42.2577 68.5789 34.2672 57.9956 32.0991 47.998 36.4626 39.4937 40.1753 33.0821 50.4092 33.0821 60.2664 33.0821 60.8623 33.1027 61.4548 33.1403 62.0405 28.4926 63.6126 20.55 68.072 20.55 80.1348 20.55 80.6554 20.5637 81.1589 20.598 81.6452 21.1939 91.5024 29.4311 99.2326 39.3396 99.2429L99.4416 99.3011C99.6128 99.2874 116.45 97.6777 116.45 80.2821 116.45 66.7944 106.185 62.7255 101.36 61.561ZM58.2251 85.608 75.3501 85.608 75.3501 71.908 58.2251 71.908 58.2251 85.608ZM61.6501 66.7705C61.6501 63.938 63.9551 61.6329 66.7876 61.6329 69.6201 61.6329 71.9251 63.938 71.9251 66.7705L71.9251 68.483 61.6501 68.483 61.6501 66.7705ZM77.0626 68.483 75.3501 68.483 75.3501 66.7705C75.3501 62.0508 71.5107 58.2079 66.7876 58.2079 62.0645 58.2079 58.2251 62.0508 58.2251 66.7705L58.2251 68.483 56.5126 68.483C55.5638 68.483 54.8001 69.2502 54.8001 70.1955L54.8001 87.3205C54.8001 88.2658 55.5638 89.033 56.5126 89.033L77.0626 89.033C78.0079 89.033 78.7751 88.2658 78.7751 87.3205L78.7751 70.1955C78.7751 69.2502 78.0079 68.483 77.0626 68.483Z" fill="#232F3E" fill-rule="evenodd" fill-opacity="1" transform="matrix(1.0073 0 0 1 348 250)"/></g></g></g><text fill="#6CAE3E" fill-opacity="1" font-family="Arial,Arial_MSFontService,sans-serif" font-style="normal" font-variant="normal" font-weight="400" font-stretch="normal" font-size="55" text-anchor="start" direction="ltr" writing-mode="lr-tb" unicode-bidi="normal" text-decoration="none" transform="matrix(1 0 0 1 1091.49 2070)">Private </text><text fill="#6CAE3E" fill-opacity="1" font-family="Arial,Arial_MSFontService,sans-serif" font-style="normal" font-variant="normal" font-weight="400" font-stretch="normal" font-size="55" text-anchor="start" direction="ltr" writing-mode="lr-tb" unicode-bidi="normal" text-decoration="none" transform="matrix(1 0 0 1 1277.69 2070)">subnets</text><text fill="#000000" fill-opacity="1" font-family="Arial,Arial_MSFontService,sans-serif" font-style="normal" font-variant="normal" font-weight="400" font-stretch="normal" font-size="50" text-anchor="start" direction="ltr" writing-mode="lr-tb" unicode-bidi="normal" text-decoration="none" transform="matrix(1 0 0 1 388.368 816)">Internet gateway</text><g clip-path="url(#clip10)"><g clip-path="url(#clip11)"><g clip-path="url(#clip12)"><path d="M607.402 701.588 602.097 701.588 602.097 638.986C602.097 637.594 601.279 636.329 600.011 635.759L599.685 635.61C592.57 632.398 585.207 629.073 574.624 629.073 563.563 629.073 555.446 632.646 547.421 636.63 546.216 637.229 545.455 638.458 545.455 639.804L545.455 701.588 540.273 701.588 540.273 634.771C548.894 627.762 561.322 623.767 574.659 623.767 587.059 623.767 598.881 627.298 607.402 633.5L607.402 701.588ZM574.659 616.684C558.988 616.684 544.311 621.709 534.387 630.479 533.626 631.148 533.19 632.115 533.19 633.131L533.19 705.13C533.19 707.088 534.773 708.671 536.732 708.671L548.997 708.671C550.955 708.671 552.538 707.088 552.538 705.13L552.538 642.01C559.335 638.727 565.922 636.156 574.624 636.156 582.894 636.156 588.908 638.547 595.013 641.277L595.013 705.13C595.013 707.088 596.597 708.671 598.555 708.671L610.944 708.671C612.902 708.671 614.485 707.088 614.485 705.13L614.485 631.747C614.485 630.67 613.993 629.65 613.147 628.973 603.322 621.164 589.294 616.684 574.659 616.684ZM573.838 732.51C534.872 732.51 503.164 700.805 503.164 661.836 503.164 622.868 534.872 591.166 573.838 591.166 612.807 591.166 644.512 622.868 644.512 661.836 644.512 700.805 612.807 732.51 573.838 732.51ZM573.838 584.083C530.962 584.083 496.081 618.965 496.081 661.836 496.081 704.715 530.962 739.594 573.838 739.594 616.713 739.594 651.595 704.715 651.595 661.836 651.595 618.965 616.713 584.083 573.838 584.083Z" fill="#A166FF" fill-rule="evenodd" fill-opacity="1"/></g></g></g><text fill="#FF9902" fill-opacity="1" font-family="Arial,Arial_MSFontService,sans-serif" font-style="normal" font-variant="normal" font-weight="400" font-stretch="normal" font-size="55" text-anchor="start" direction="ltr" writing-mode="lr-tb" unicode-bidi="normal" text-decoration="none" transform="matrix(1 0 0 1 2525.46 1832)">EC2 instance</text><text fill="#000000" fill-opacity="1" font-family="Arial,Arial_MSFontService,sans-serif" font-style="normal" font-variant="normal" font-weight="400" font-stretch="normal" font-size="50" text-anchor="start" direction="ltr" writing-mode="lr-tb" unicode-bidi="normal" text-decoration="none" transform="matrix(1 0 0 1 2605.8 1304)">ENI</text><g clip-path="url(#clip13)"><g clip-path="url(#clip14)"><g clip-path="url(#clip15)"><path d="M2643.92 1164.09 2658.1 1164.09 2658.1 1149.91 2643.92 1149.91 2643.92 1164.09ZM2664.98 1164.09 2679.16 1164.09 2679.16 1149.91 2664.98 1149.91 2664.98 1164.09ZM2640.48 1170.97 2682.59 1170.97C2684.49 1170.97 2686.03 1169.43 2686.03 1167.53L2686.03 1146.47C2686.03 1144.57 2684.49 1143.03 2682.59 1143.03L2640.48 1143.03C2638.58 1143.03 2637.04 1144.57 2637.04 1146.47L2637.04 1167.53C2637.04 1169.43 2638.58 1170.97 2640.48 1170.97ZM2697.2 1176.12 2688.61 1176.12C2686.71 1176.12 2685.17 1177.66 2685.17 1179.56L2685.17 1185.15 2677.01 1185.15 2677.01 1179.56C2677.01 1177.66 2675.47 1176.12 2673.57 1176.12L2661.54 1176.12C2659.64 1176.12 2658.1 1177.66 2658.1 1179.56L2658.1 1185.15 2634.89 1185.15 2634.89 1179.56C2634.89 1177.66 2633.35 1176.12 2631.46 1176.12L2628.88 1176.12 2628.88 1137.88 2697.2 1137.88 2697.2 1176.12ZM2700.64 1131 2625.44 1131C2623.54 1131 2622 1132.54 2622 1134.44L2622 1179.56C2622 1181.46 2623.54 1183 2625.44 1183L2628.02 1183 2628.02 1188.58C2628.02 1190.49 2629.56 1192.02 2631.46 1192.02L2661.54 1192.02C2663.44 1192.02 2664.98 1190.49 2664.98 1188.58L2664.98 1183 2670.13 1183 2670.13 1188.58C2670.13 1190.49 2671.67 1192.02 2673.57 1192.02L2688.61 1192.02C2690.51 1192.02 2692.05 1190.49 2692.05 1188.58L2692.05 1183 2700.64 1183C2702.54 1183 2704.08 1181.46 2704.08 1179.56L2704.08 1134.44C2704.08 1132.54 2702.54 1131 2700.64 1131ZM2616.85 1128.43 2616.85 1194.6C2616.85 1196.5 2615.31 1198.04 2613.41 1198.04L2602.58 1198.04 2602.58 1191.16 2609.97 1191.16 2609.97 1131.86 2602.58 1131.86 2602.58 1124.99 2613.41 1124.99C2615.31 1124.99 2616.85 1126.52 2616.85 1128.43ZM2649.51 1227.26C2611.59 1227.26 2580.75 1196.42 2580.75 1158.5 2580.75 1120.59 2611.59 1089.75 2649.51 1089.75 2687.42 1089.75 2718.26 1120.59 2718.26 1158.5 2718.26 1196.42 2687.42 1227.26 2649.51 1227.26ZM2649.51 1082.87C2607.8 1082.87 2573.88 1116.8 2573.88 1158.5 2573.88 1200.21 2607.8 1234.14 2649.51 1234.14 2691.21 1234.14 2725.13 1200.21 2725.13 1158.5 2725.13 1116.8 2691.21 1082.87 2649.51 1082.87Z" fill="#A166FF" fill-rule="evenodd" fill-opacity="1"/></g></g></g><rect x="2387.5" y="1480.5" width="521" height="211" stroke="#FB9900" stroke-width="4.58333" stroke-linecap="butt" stroke-linejoin="miter" stroke-miterlimit="8" stroke-opacity="1" fill="#FB9900" fill-opacity="0.2"/><rect x="2335.5" y="1410.5" width="614" height="477" stroke="#FF9902" stroke-width="4.58333" stroke-linecap="butt" stroke-linejoin="miter" stroke-miterlimit="8" stroke-opacity="1" fill="none"/><g clip-path="url(#clip16)"><g clip-path="url(#clip17)"><g clip-path="url(#clip18)"><path d="M0 0 137 0 137 137 0 137Z" fill="#FF9900" fill-rule="evenodd" fill-opacity="1" transform="matrix(1.12409 0 0 1 2331 1752)"/><path d="M34.25 99.3249 99.3249 99.3249 99.3249 34.25 34.25 34.25 34.25 99.3249ZM113.025 41.0999 113.025 37.6749 102.75 37.6749 102.75 32.5375C102.75 31.5922 101.983 30.825 101.037 30.825L95.8999 30.825 95.8999 20.55 92.4749 20.55 92.4749 30.825 82.1999 30.825 82.1999 20.55 78.7749 20.55 78.7749 30.825 68.4999 30.825 68.4999 20.55 65.0749 20.55 65.0749 30.825 54.7999 30.825 54.7999 20.55 51.3749 20.55 51.3749 30.825 41.0999 30.825 41.0999 20.55 37.6749 20.55 37.6749 30.825 32.5375 30.825C31.5922 30.825 30.825 31.5922 30.825 32.5375L30.825 37.6749 20.55 37.6749 20.55 41.0999 30.825 41.0999 30.825 51.3749 20.55 51.3749 20.55 54.7999 30.825 54.7999 30.825 65.0749 20.55 65.0749 20.55 68.4999 30.825 68.4999 30.825 78.7749 20.55 78.7749 20.55 82.1999 30.825 82.1999 30.825 92.4749 20.55 92.4749 20.55 95.8999 30.825 95.8999 30.825 101.037C30.825 101.983 31.5922 102.75 32.5375 102.75L37.6749 102.75 37.6749 113.025 41.0999 113.025 41.0999 102.75 51.3749 102.75 51.3749 113.025 54.7999 113.025 54.7999 102.75 65.0749 102.75 65.0749 113.025 68.4999 113.025 68.4999 102.75 78.7749 102.75 78.7749 113.025 82.1999 113.025 82.1999 102.75 92.4749 102.75 92.4749 113.025 95.8999 113.025 95.8999 102.75 101.037 102.75C101.983 102.75 102.75 101.983 102.75 101.037L102.75 95.8999 113.025 95.8999 113.025 92.4749 102.75 92.4749 102.75 82.1999 113.025 82.1999 113.025 78.7749 102.75 78.7749 102.75 68.4999 113.025 68.4999 113.025 65.0749 102.75 65.0749 102.75 54.7999 113.025 54.7999 113.025 51.3749 102.75 51.3749 102.75 41.0999 113.025 41.0999Z" fill="#232F3E" fill-rule="evenodd" fill-opacity="1" transform="matrix(1.12409 0 0 1 2331 1752)"/></g></g></g><g clip-path="url(#clip19)"><g clip-path="url(#clip20)"><g clip-path="url(#clip21)"><path d="M2480.84 1608.49 2516.04 1608.49 2516.04 1573.29 2480.84 1573.29 2480.84 1608.49ZM2476.97 1614.61 2476.97 1620.95 2483.85 1620.95 2483.85 1615.37 2488.99 1615.37 2488.99 1620.95 2495.87 1620.95 2495.87 1615.37 2501.01 1615.37 2501.01 1620.95 2507.89 1620.95 2507.89 1615.37 2513.03 1615.37 2513.03 1620.95 2519.91 1620.95 2519.91 1614.61C2520.85 1614.08 2521.63 1613.31 2522.16 1612.36L2528.49 1612.36 2528.49 1605.49 2522.91 1605.49 2522.91 1600.34 2528.49 1600.34 2528.49 1593.47 2522.91 1593.47 2522.91 1588.32 2528.49 1588.32 2528.49 1581.44 2522.91 1581.44 2522.91 1576.3 2528.49 1576.3 2528.49 1569.42 2522.16 1569.42C2521.63 1568.48 2520.85 1567.7 2519.91 1567.17L2519.91 1560.84 2513.03 1560.84 2513.03 1566.42 2507.89 1566.42 2507.89 1560.84 2501.01 1560.84 2501.01 1566.42 2495.87 1566.42 2495.87 1560.84 2488.99 1560.84 2488.99 1566.42 2483.85 1566.42 2483.85 1560.84 2476.97 1560.84 2476.97 1567.17C2476.02 1567.7 2475.25 1568.48 2474.72 1569.42L2468.39 1569.42 2468.39 1576.3 2473.97 1576.3 2473.97 1581.44 2468.39 1581.44 2468.39 1588.32 2473.97 1588.32 2473.97 1593.47 2468.39 1593.47 2468.39 1600.34 2473.97 1600.34 2473.97 1605.49 2468.39 1605.49 2468.39 1612.36 2474.72 1612.36C2475.25 1613.31 2476.02 1614.08 2476.97 1614.61ZM2552.1 1623.95 2558.98 1623.95 2558.98 1557.84 2552.1 1557.84 2552.1 1623.95ZM2534.07 1623.95 2540.94 1623.95 2540.94 1557.84 2534.07 1557.84 2534.07 1623.95ZM2455.93 1623.95 2462.8 1623.95 2462.8 1557.84 2455.93 1557.84 2455.93 1623.95ZM2437.9 1623.95 2444.78 1623.95 2444.78 1557.84 2437.9 1557.84 2437.9 1623.95ZM2429.75 1632.53 2567.13 1632.53 2567.13 1549.25 2429.75 1549.25 2429.75 1632.53ZM2570.56 1542.38 2426.31 1542.38C2424.41 1542.38 2422.87 1543.91 2422.87 1545.81L2422.87 1635.97C2422.87 1637.87 2424.41 1639.41 2426.31 1639.41L2570.56 1639.41C2572.46 1639.41 2574 1637.87 2574 1635.97L2574 1545.81C2574 1543.91 2572.46 1542.38 2570.56 1542.38Z" fill="#FF9900" fill-rule="evenodd" fill-opacity="1"/></g></g></g><text fill="#000000" fill-opacity="1" font-family="Arial,Arial_MSFontService,sans-serif" font-style="normal" font-variant="normal" font-weight="400" font-stretch="normal" font-size="50" text-anchor="start" direction="ltr" writing-mode="lr-tb" unicode-bidi="normal" text-decoration="none" transform="matrix(1 0 0 1 2603.29 1576)">Private </text><text fill="#000000" fill-opacity="1" font-family="Arial,Arial_MSFontService,sans-serif" font-style="normal" font-variant="normal" font-weight="400" font-stretch="normal" font-size="50" text-anchor="start" direction="ltr" writing-mode="lr-tb" unicode-bidi="normal" text-decoration="none" transform="matrix(1 0 0 1 2603.29 1637)">Service</text><text fill="#000000" fill-opacity="1" font-family="Arial,Arial_MSFontService,sans-serif" font-style="normal" font-variant="normal" font-weight="400" font-stretch="normal" font-size="50" text-anchor="start" direction="ltr" writing-mode="lr-tb" unicode-bidi="normal" text-decoration="none" transform="matrix(1 0 0 1 2447.8 1069)">Port 80</text><path d="M0 0 0.422605 146.659" stroke="#FB9900" stroke-width="12.6042" stroke-linecap="butt" stroke-linejoin="miter" stroke-miterlimit="8" stroke-opacity="1" fill="none" fill-rule="evenodd" transform="matrix(-1 0 0 1 2647.92 1333.5)"/><text fill="#FF9902" fill-opacity="1" font-family="Arial,Arial_MSFontService,sans-serif" font-style="normal" font-variant="normal" font-weight="400" font-stretch="normal" font-size="55" text-anchor="start" direction="ltr" writing-mode="lr-tb" unicode-bidi="normal" text-decoration="none" transform="matrix(1 0 0 1 1171.2 1834)">EC2 instance</text><text fill="#000000" fill-opacity="1" font-family="Arial,Arial_MSFontService,sans-serif" font-style="normal" font-variant="normal" font-weight="400" font-stretch="normal" font-size="50" text-anchor="start" direction="ltr" writing-mode="lr-tb" unicode-bidi="normal" text-decoration="none" transform="matrix(1 0 0 1 1251.54 1306)">ENI</text><g clip-path="url(#clip22)"><g clip-path="url(#clip23)"><g clip-path="url(#clip24)"><path d="M1289.92 1167.09 1304.1 1167.09 1304.1 1152.91 1289.92 1152.91 1289.92 1167.09ZM1310.98 1167.09 1325.16 1167.09 1325.16 1152.91 1310.98 1152.91 1310.98 1167.09ZM1286.48 1173.97 1328.59 1173.97C1330.49 1173.97 1332.03 1172.43 1332.03 1170.53L1332.03 1149.47C1332.03 1147.57 1330.49 1146.03 1328.59 1146.03L1286.48 1146.03C1284.58 1146.03 1283.04 1147.57 1283.04 1149.47L1283.04 1170.53C1283.04 1172.43 1284.58 1173.97 1286.48 1173.97ZM1343.2 1179.12 1334.61 1179.12C1332.71 1179.12 1331.17 1180.66 1331.17 1182.56L1331.17 1188.15 1323.01 1188.15 1323.01 1182.56C1323.01 1180.66 1321.47 1179.12 1319.57 1179.12L1307.54 1179.12C1305.64 1179.12 1304.1 1180.66 1304.1 1182.56L1304.1 1188.15 1280.89 1188.15 1280.89 1182.56C1280.89 1180.66 1279.35 1179.12 1277.46 1179.12L1274.88 1179.12 1274.88 1140.88 1343.2 1140.88 1343.2 1179.12ZM1346.64 1134 1271.44 1134C1269.54 1134 1268 1135.54 1268 1137.44L1268 1182.56C1268 1184.46 1269.54 1186 1271.44 1186L1274.02 1186 1274.02 1191.58C1274.02 1193.49 1275.56 1195.02 1277.46 1195.02L1307.54 1195.02C1309.44 1195.02 1310.98 1193.49 1310.98 1191.58L1310.98 1186 1316.13 1186 1316.13 1191.58C1316.13 1193.49 1317.67 1195.02 1319.57 1195.02L1334.61 1195.02C1336.51 1195.02 1338.05 1193.49 1338.05 1191.58L1338.05 1186 1346.64 1186C1348.54 1186 1350.08 1184.46 1350.08 1182.56L1350.08 1137.44C1350.08 1135.54 1348.54 1134 1346.64 1134ZM1262.85 1131.43 1262.85 1197.6C1262.85 1199.5 1261.31 1201.04 1259.41 1201.04L1248.58 1201.04 1248.58 1194.16 1255.97 1194.16 1255.97 1134.86 1248.58 1134.86 1248.58 1127.99 1259.41 1127.99C1261.31 1127.99 1262.85 1129.52 1262.85 1131.43ZM1295.51 1230.26C1257.59 1230.26 1226.75 1199.42 1226.75 1161.5 1226.75 1123.59 1257.59 1092.75 1295.51 1092.75 1333.42 1092.75 1364.26 1123.59 1364.26 1161.5 1364.26 1199.42 1333.42 1230.26 1295.51 1230.26ZM1295.51 1085.88C1253.8 1085.88 1219.88 1119.8 1219.88 1161.5 1219.88 1203.21 1253.8 1237.14 1295.51 1237.14 1337.21 1237.14 1371.13 1203.21 1371.13 1161.5 1371.13 1119.8 1337.21 1085.88 1295.51 1085.88Z" fill="#A166FF" fill-rule="evenodd" fill-opacity="1"/></g></g></g><rect x="1032.5" y="1482.5" width="522" height="211" stroke="#FB9900" stroke-width="4.58333" stroke-linecap="butt" stroke-linejoin="miter" stroke-miterlimit="8" stroke-opacity="1" fill="#FB9900" fill-opacity="0.2"/><rect x="981.5" y="1412.5" width="1172" height="478" stroke="#FF9902" stroke-width="4.58333" stroke-linecap="butt" stroke-linejoin="miter" stroke-miterlimit="8" stroke-opacity="1" fill="none"/><g clip-path="url(#clip25)"><g clip-path="url(#clip26)"><g clip-path="url(#clip27)"><path d="M0 0 137 0 137 137 0 137Z" fill="#FF9900" fill-rule="evenodd" fill-opacity="1" transform="matrix(1.12409 0 0 1 977 1754)"/><path d="M34.25 99.3249 99.3249 99.3249 99.3249 34.25 34.25 34.25 34.25 99.3249ZM113.025 41.0999 113.025 37.6749 102.75 37.6749 102.75 32.5375C102.75 31.5922 101.983 30.825 101.037 30.825L95.8999 30.825 95.8999 20.55 92.4749 20.55 92.4749 30.825 82.1999 30.825 82.1999 20.55 78.7749 20.55 78.7749 30.825 68.4999 30.825 68.4999 20.55 65.0749 20.55 65.0749 30.825 54.7999 30.825 54.7999 20.55 51.3749 20.55 51.3749 30.825 41.0999 30.825 41.0999 20.55 37.6749 20.55 37.6749 30.825 32.5375 30.825C31.5922 30.825 30.825 31.5922 30.825 32.5375L30.825 37.6749 20.55 37.6749 20.55 41.0999 30.825 41.0999 30.825 51.3749 20.55 51.3749 20.55 54.7999 30.825 54.7999 30.825 65.0749 20.55 65.0749 20.55 68.4999 30.825 68.4999 30.825 78.7749 20.55 78.7749 20.55 82.1999 30.825 82.1999 30.825 92.4749 20.55 92.4749 20.55 95.8999 30.825 95.8999 30.825 101.037C30.825 101.983 31.5922 102.75 32.5375 102.75L37.6749 102.75 37.6749 113.025 41.0999 113.025 41.0999 102.75 51.3749 102.75 51.3749 113.025 54.7999 113.025 54.7999 102.75 65.0749 102.75 65.0749 113.025 68.4999 113.025 68.4999 102.75 78.7749 102.75 78.7749 113.025 82.1999 113.025 82.1999 102.75 92.4749 102.75 92.4749 113.025 95.8999 113.025 95.8999 102.75 101.037 102.75C101.983 102.75 102.75 101.983 102.75 101.037L102.75 95.8999 113.025 95.8999 113.025 92.4749 102.75 92.4749 102.75 82.1999 113.025 82.1999 113.025 78.7749 102.75 78.7749 102.75 68.4999 113.025 68.4999 113.025 65.0749 102.75 65.0749 102.75 54.7999 113.025 54.7999 113.025 51.3749 102.75 51.3749 102.75 41.0999 113.025 41.0999Z" fill="#232F3E" fill-rule="evenodd" fill-opacity="1" transform="matrix(1.12409 0 0 1 977 1754)"/></g></g></g><g clip-path="url(#clip28)"><g clip-path="url(#clip29)"><g clip-path="url(#clip30)"><path d="M1126.84 1610.49 1162.04 1610.49 1162.04 1575.29 1126.84 1575.29 1126.84 1610.49ZM1122.97 1616.61 1122.97 1622.95 1129.85 1622.95 1129.85 1617.37 1134.99 1617.37 1134.99 1622.95 1141.87 1622.95 1141.87 1617.37 1147.01 1617.37 1147.01 1622.95 1153.89 1622.95 1153.89 1617.37 1159.03 1617.37 1159.03 1622.95 1165.91 1622.95 1165.91 1616.61C1166.85 1616.08 1167.63 1615.31 1168.16 1614.36L1174.49 1614.36 1174.49 1607.49 1168.91 1607.49 1168.91 1602.34 1174.49 1602.34 1174.49 1595.47 1168.91 1595.47 1168.91 1590.32 1174.49 1590.32 1174.49 1583.44 1168.91 1583.44 1168.91 1578.3 1174.49 1578.3 1174.49 1571.42 1168.16 1571.42C1167.63 1570.48 1166.85 1569.7 1165.91 1569.17L1165.91 1562.84 1159.03 1562.84 1159.03 1568.42 1153.89 1568.42 1153.89 1562.84 1147.01 1562.84 1147.01 1568.42 1141.87 1568.42 1141.87 1562.84 1134.99 1562.84 1134.99 1568.42 1129.85 1568.42 1129.85 1562.84 1122.97 1562.84 1122.97 1569.17C1122.02 1569.7 1121.25 1570.48 1120.72 1571.42L1114.39 1571.42 1114.39 1578.3 1119.97 1578.3 1119.97 1583.44 1114.39 1583.44 1114.39 1590.32 1119.97 1590.32 1119.97 1595.47 1114.39 1595.47 1114.39 1602.34 1119.97 1602.34 1119.97 1607.49 1114.39 1607.49 1114.39 1614.36 1120.72 1614.36C1121.25 1615.31 1122.02 1616.08 1122.97 1616.61ZM1198.1 1625.95 1204.98 1625.95 1204.98 1559.84 1198.1 1559.84 1198.1 1625.95ZM1180.07 1625.95 1186.94 1625.95 1186.94 1559.84 1180.07 1559.84 1180.07 1625.95ZM1101.93 1625.95 1108.8 1625.95 1108.8 1559.84 1101.93 1559.84 1101.93 1625.95ZM1083.9 1625.95 1090.78 1625.95 1090.78 1559.84 1083.9 1559.84 1083.9 1625.95ZM1075.75 1634.53 1213.13 1634.53 1213.13 1551.25 1075.75 1551.25 1075.75 1634.53ZM1216.56 1544.38 1072.31 1544.38C1070.41 1544.38 1068.87 1545.91 1068.87 1547.81L1068.87 1637.97C1068.87 1639.87 1070.41 1641.41 1072.31 1641.41L1216.56 1641.41C1218.46 1641.41 1220 1639.87 1220 1637.97L1220 1547.81C1220 1545.91 1218.46 1544.38 1216.56 1544.38Z" fill="#FF9900" fill-rule="evenodd" fill-opacity="1"/></g></g></g><text fill="#000000" fill-opacity="1" font-family="Arial,Arial_MSFontService,sans-serif" font-style="normal" font-variant="normal" font-weight="400" font-stretch="normal" font-size="50" text-anchor="start" direction="ltr" writing-mode="lr-tb" unicode-bidi="normal" text-decoration="none" transform="matrix(1 0 0 1 1093.54 1072)">Port 80</text><path d="M0 0 0.422605 146.659" stroke="#FB9900" stroke-width="12.6042" stroke-linecap="butt" stroke-linejoin="miter" stroke-miterlimit="8" stroke-opacity="1" fill="none" fill-rule="evenodd" transform="matrix(-1 0 0 1 1293.92 1335.5)"/><text fill="#000000" fill-opacity="1" font-family="Arial,Arial_MSFontService,sans-serif" font-style="normal" font-variant="normal" font-weight="400" font-stretch="normal" font-size="50" text-anchor="start" direction="ltr" writing-mode="lr-tb" unicode-bidi="normal" text-decoration="none" transform="matrix(1 0 0 1 1801.63 1304)">ENI</text><g clip-path="url(#clip31)"><g clip-path="url(#clip32)"><g clip-path="url(#clip33)"><path d="M1839.92 1164.09 1854.1 1164.09 1854.1 1149.91 1839.92 1149.91 1839.92 1164.09ZM1860.98 1164.09 1875.16 1164.09 1875.16 1149.91 1860.98 1149.91 1860.98 1164.09ZM1836.48 1170.97 1878.59 1170.97C1880.49 1170.97 1882.03 1169.43 1882.03 1167.53L1882.03 1146.47C1882.03 1144.57 1880.49 1143.03 1878.59 1143.03L1836.48 1143.03C1834.58 1143.03 1833.04 1144.57 1833.04 1146.47L1833.04 1167.53C1833.04 1169.43 1834.58 1170.97 1836.48 1170.97ZM1893.2 1176.12 1884.61 1176.12C1882.71 1176.12 1881.17 1177.66 1881.17 1179.56L1881.17 1185.15 1873.01 1185.15 1873.01 1179.56C1873.01 1177.66 1871.47 1176.12 1869.57 1176.12L1857.54 1176.12C1855.64 1176.12 1854.1 1177.66 1854.1 1179.56L1854.1 1185.15 1830.89 1185.15 1830.89 1179.56C1830.89 1177.66 1829.35 1176.12 1827.46 1176.12L1824.88 1176.12 1824.88 1137.88 1893.2 1137.88 1893.2 1176.12ZM1896.64 1131 1821.44 1131C1819.54 1131 1818 1132.54 1818 1134.44L1818 1179.56C1818 1181.46 1819.54 1183 1821.44 1183L1824.02 1183 1824.02 1188.58C1824.02 1190.49 1825.56 1192.02 1827.46 1192.02L1857.54 1192.02C1859.44 1192.02 1860.98 1190.49 1860.98 1188.58L1860.98 1183 1866.13 1183 1866.13 1188.58C1866.13 1190.49 1867.67 1192.02 1869.57 1192.02L1884.61 1192.02C1886.51 1192.02 1888.05 1190.49 1888.05 1188.58L1888.05 1183 1896.64 1183C1898.54 1183 1900.08 1181.46 1900.08 1179.56L1900.08 1134.44C1900.08 1132.54 1898.54 1131 1896.64 1131ZM1812.85 1128.43 1812.85 1194.6C1812.85 1196.5 1811.31 1198.04 1809.41 1198.04L1798.58 1198.04 1798.58 1191.16 1805.97 1191.16 1805.97 1131.86 1798.58 1131.86 1798.58 1124.99 1809.41 1124.99C1811.31 1124.99 1812.85 1126.52 1812.85 1128.43ZM1845.51 1227.26C1807.59 1227.26 1776.75 1196.42 1776.75 1158.5 1776.75 1120.59 1807.59 1089.75 1845.51 1089.75 1883.42 1089.75 1914.26 1120.59 1914.26 1158.5 1914.26 1196.42 1883.42 1227.26 1845.51 1227.26ZM1845.51 1082.87C1803.8 1082.87 1769.88 1116.8 1769.88 1158.5 1769.88 1200.21 1803.8 1234.14 1845.51 1234.14 1887.21 1234.14 1921.13 1200.21 1921.13 1158.5 1921.13 1116.8 1887.21 1082.87 1845.51 1082.87Z" fill="#A166FF" fill-rule="evenodd" fill-opacity="1"/></g></g></g><rect x="1582.5" y="1480.5" width="522" height="211" stroke="#FB9900" stroke-width="4.58333" stroke-linecap="butt" stroke-linejoin="miter" stroke-miterlimit="8" stroke-opacity="1" fill="#FB9900" fill-opacity="0.2"/><g clip-path="url(#clip34)"><g clip-path="url(#clip35)"><g clip-path="url(#clip36)"><path d="M1676.84 1608.49 1712.04 1608.49 1712.04 1573.29 1676.84 1573.29 1676.84 1608.49ZM1672.97 1614.61 1672.97 1620.95 1679.85 1620.95 1679.85 1615.37 1684.99 1615.37 1684.99 1620.95 1691.87 1620.95 1691.87 1615.37 1697.01 1615.37 1697.01 1620.95 1703.89 1620.95 1703.89 1615.37 1709.03 1615.37 1709.03 1620.95 1715.91 1620.95 1715.91 1614.61C1716.85 1614.08 1717.63 1613.31 1718.16 1612.36L1724.49 1612.36 1724.49 1605.49 1718.91 1605.49 1718.91 1600.34 1724.49 1600.34 1724.49 1593.47 1718.91 1593.47 1718.91 1588.32 1724.49 1588.32 1724.49 1581.44 1718.91 1581.44 1718.91 1576.3 1724.49 1576.3 1724.49 1569.42 1718.16 1569.42C1717.63 1568.48 1716.85 1567.7 1715.91 1567.17L1715.91 1560.84 1709.03 1560.84 1709.03 1566.42 1703.89 1566.42 1703.89 1560.84 1697.01 1560.84 1697.01 1566.42 1691.87 1566.42 1691.87 1560.84 1684.99 1560.84 1684.99 1566.42 1679.85 1566.42 1679.85 1560.84 1672.97 1560.84 1672.97 1567.17C1672.02 1567.7 1671.25 1568.48 1670.72 1569.42L1664.39 1569.42 1664.39 1576.3 1669.97 1576.3 1669.97 1581.44 1664.39 1581.44 1664.39 1588.32 1669.97 1588.32 1669.97 1593.47 1664.39 1593.47 1664.39 1600.34 1669.97 1600.34 1669.97 1605.49 1664.39 1605.49 1664.39 1612.36 1670.72 1612.36C1671.25 1613.31 1672.02 1614.08 1672.97 1614.61ZM1748.1 1623.95 1754.98 1623.95 1754.98 1557.84 1748.1 1557.84 1748.1 1623.95ZM1730.07 1623.95 1736.94 1623.95 1736.94 1557.84 1730.07 1557.84 1730.07 1623.95ZM1651.93 1623.95 1658.8 1623.95 1658.8 1557.84 1651.93 1557.84 1651.93 1623.95ZM1633.9 1623.95 1640.78 1623.95 1640.78 1557.84 1633.9 1557.84 1633.9 1623.95ZM1625.75 1632.53 1763.13 1632.53 1763.13 1549.25 1625.75 1549.25 1625.75 1632.53ZM1766.56 1542.38 1622.31 1542.38C1620.41 1542.38 1618.87 1543.91 1618.87 1545.81L1618.87 1635.97C1618.87 1637.87 1620.41 1639.41 1622.31 1639.41L1766.56 1639.41C1768.46 1639.41 1770 1637.87 1770 1635.97L1770 1545.81C1770 1543.91 1768.46 1542.38 1766.56 1542.38Z" fill="#FF9900" fill-rule="evenodd" fill-opacity="1"/></g></g></g><text fill="#000000" fill-opacity="1" font-family="Arial,Arial_MSFontService,sans-serif" font-style="normal" font-variant="normal" font-weight="400" font-stretch="normal" font-size="50" text-anchor="start" direction="ltr" writing-mode="lr-tb" unicode-bidi="normal" text-decoration="none" transform="matrix(1 0 0 1 1801.64 1581)">Public</text><text fill="#000000" fill-opacity="1" font-family="Arial,Arial_MSFontService,sans-serif" font-style="normal" font-variant="normal" font-weight="400" font-stretch="normal" font-size="50" text-anchor="start" direction="ltr" writing-mode="lr-tb" unicode-bidi="normal" text-decoration="none" transform="matrix(1 0 0 1 1801.64 1642)">Service</text><text fill="#000000" fill-opacity="1" font-family="Arial,Arial_MSFontService,sans-serif" font-style="normal" font-variant="normal" font-weight="400" font-stretch="normal" font-size="50" text-anchor="start" direction="ltr" writing-mode="lr-tb" unicode-bidi="normal" text-decoration="none" transform="matrix(1 0 0 1 1904.68 1069)">Port 80</text><path d="M0 0 0.422605 146.659" stroke="#FB9900" stroke-width="12.6042" stroke-linecap="butt" stroke-linejoin="miter" stroke-miterlimit="8" stroke-opacity="1" fill="none" fill-rule="evenodd" transform="matrix(-1 0 0 1 1843.92 1333.5)"/><text fill="#000000" fill-opacity="1" font-family="Arial,Arial_MSFontService,sans-serif" font-style="normal" font-variant="normal" font-weight="400" font-stretch="normal" font-size="50" text-anchor="start" direction="ltr" writing-mode="lr-tb" unicode-bidi="normal" text-decoration="none" transform="matrix(1 0 0 1 1330.98 949)">Inbound</text><path d="M28.6458-5.72915 569.214-5.72882 569.214 5.72951 28.6458 5.72918ZM34.375 17.1875 0 0 34.375-17.1875ZM563.485-17.1872 597.86 0.000360892 563.485 17.1878Z" fill="#BFBFBF" fill-rule="nonzero" fill-opacity="1" transform="matrix(-1 0 0 1 2552.36 1164.5)"/><text fill="#000000" fill-opacity="1" font-family="Arial,Arial_MSFontService,sans-serif" font-style="normal" font-variant="normal" font-weight="400" font-stretch="normal" font-size="50" text-anchor="start" direction="ltr" writing-mode="lr-tb" unicode-bidi="normal" text-decoration="none" transform="matrix(1 0 0 1 2155.71 1231)">Internal</text><rect x="975.5" y="508.5" width="1160" height="314" stroke="#A266FF" stroke-width="4.58333" stroke-linecap="butt" stroke-linejoin="miter" stroke-miterlimit="8" stroke-opacity="1" fill="#A266FF" fill-opacity="0.2"/><g clip-path="url(#clip37)"><g clip-path="url(#clip38)"><g clip-path="url(#clip39)"><path d="M1174.81 702.164 1182.87 702.164 1182.87 694 1174.81 694 1174.81 702.164ZM1150.96 702.164 1159.12 702.164 1159.12 694 1150.96 694 1150.96 702.164ZM1123.89 702.164 1132.05 702.164 1132.05 694 1123.89 694 1123.89 702.164ZM1100.13 702.164 1107.99 702.164 1107.99 694 1100.13 694 1100.13 702.164ZM1120.88 642.008 1162.13 642.008 1162.13 621.813 1120.88 621.813 1120.88 642.008ZM1186.31 687.125 1181.03 687.125 1181.03 675.523C1181.03 673.623 1179.49 672.086 1177.6 672.086L1169 672.086 1169 660.484C1169 658.583 1167.46 657.047 1165.57 657.047L1144.94 657.047 1144.94 648.883 1165.57 648.883C1167.46 648.883 1169 647.346 1169 645.445L1169 618.375C1169 616.474 1167.46 614.938 1165.57 614.938L1117.44 614.938C1115.54 614.938 1114 616.474 1114 618.375L1114 645.445C1114 647.346 1115.54 648.883 1117.44 648.883L1138.07 648.883 1138.07 657.047 1117.44 657.047C1115.54 657.047 1114 658.583 1114 660.484L1114 672.086 1105.41 672.086C1103.51 672.086 1101.97 673.623 1101.97 675.523L1101.97 687.125 1096.69 687.125C1094.79 687.125 1093.25 688.662 1093.25 690.563L1093.25 705.602C1093.25 707.503 1094.79 709.039 1096.69 709.039L1111.43 709.039C1113.32 709.039 1114.86 707.503 1114.86 705.602L1114.86 690.563C1114.86 688.662 1113.32 687.125 1111.43 687.125L1108.85 687.125 1108.85 678.961 1123.03 678.961 1123.03 687.125 1120.45 687.125C1118.55 687.125 1117.01 688.662 1117.01 690.563L1117.01 705.602C1117.01 707.503 1118.55 709.039 1120.45 709.039L1135.49 709.039C1137.39 709.039 1138.93 707.503 1138.93 705.602L1138.93 690.563C1138.93 688.662 1137.39 687.125 1135.49 687.125L1129.9 687.125 1129.9 675.523C1129.9 673.623 1128.36 672.086 1126.46 672.086L1120.88 672.086 1120.88 663.922 1162.13 663.922 1162.13 672.086 1156.54 672.086C1154.64 672.086 1153.11 673.623 1153.11 675.523L1153.11 687.125 1147.52 687.125C1145.62 687.125 1144.08 688.662 1144.08 690.563L1144.08 705.602C1144.08 707.503 1145.62 709.039 1147.52 709.039L1162.56 709.039C1164.46 709.039 1166 707.503 1166 705.602L1166 690.563C1166 688.662 1164.46 687.125 1162.56 687.125L1159.98 687.125 1159.98 678.961 1174.16 678.961 1174.16 687.125 1171.37 687.125C1169.47 687.125 1167.93 688.662 1167.93 690.563L1167.93 705.602C1167.93 707.503 1169.47 709.039 1171.37 709.039L1186.31 709.039C1188.21 709.039 1189.75 707.503 1189.75 705.602L1189.75 690.563C1189.75 688.662 1188.21 687.125 1186.31 687.125ZM1141.5 735.25C1103.59 735.25 1072.75 704.409 1072.75 666.5 1072.75 628.591 1103.59 597.75 1141.5 597.75 1179.41 597.75 1210.25 628.591 1210.25 666.5 1210.25 704.409 1179.41 735.25 1141.5 735.25ZM1141.5 590.875C1099.8 590.875 1065.88 624.8 1065.88 666.5 1065.88 708.2 1099.8 742.125 1141.5 742.125 1183.2 742.125 1217.13 708.2 1217.13 666.5 1217.13 624.8 1183.2 590.875 1141.5 590.875Z" fill="#A166FF" fill-rule="evenodd" fill-opacity="1"/></g></g></g><text fill="#000000" fill-opacity="1" font-family="Arial,Arial_MSFontService,sans-serif" font-style="normal" font-variant="normal" font-weight="400" font-stretch="normal" font-size="50" text-anchor="start" direction="ltr" writing-mode="lr-tb" unicode-bidi="normal" text-decoration="none" transform="matrix(1 0 0 1 1269.04 657)">Public facing Application</text><text fill="#000000" fill-opacity="1" font-family="Arial,Arial_MSFontService,sans-serif" font-style="normal" font-variant="normal" font-weight="400" font-stretch="normal" font-size="50" text-anchor="start" direction="ltr" writing-mode="lr-tb" unicode-bidi="normal" text-decoration="none" transform="matrix(1 0 0 1 1269.04 718)">Load </text><text fill="#000000" fill-opacity="1" font-family="Arial,Arial_MSFontService,sans-serif" font-style="normal" font-variant="normal" font-weight="400" font-stretch="normal" font-size="50" text-anchor="start" direction="ltr" writing-mode="lr-tb" unicode-bidi="normal" text-decoration="none" transform="matrix(1 0 0 1 1395.08 718)">Balancer for ingress</text><path d="M946 664.5C946 648.208 958.984 635 975 635 991.016 635 1004 648.208 1004 664.5 1004 680.792 991.016 694 975 694 958.984 694 946 680.792 946 664.5Z" fill="#A266FF" fill-rule="evenodd" fill-opacity="1"/><path d="M1264 824C1264 807.984 1277.21 795 1293.5 795 1309.79 795 1323 807.984 1323 824 1323 840.016 1309.79 853 1293.5 853 1277.21 853 1264 840.016 1264 824Z" fill="#A266FF" fill-rule="evenodd" fill-opacity="1"/><path d="M1817 820.5C1817 804.208 1830.21 791 1846.5 791 1862.79 791 1876 804.208 1876 820.5 1876 836.792 1862.79 850 1846.5 850 1830.21 850 1817 836.792 1817 820.5Z" fill="#A266FF" fill-rule="evenodd" fill-opacity="1"/><path d="M1299.23 853.499 1299.25 1047.8 1287.8 1047.8 1287.77 853.501ZM1310.71 1042.07 1293.53 1076.45 1276.34 1042.07Z" fill="#BFBFBF" fill-rule="nonzero" fill-opacity="1"/><path d="M1849.23 850.442 1851.23 1048.26 1839.77 1048.38 1837.77 850.558ZM1862.63 1042.42 1845.79 1076.96 1828.25 1042.76Z" fill="#BFBFBF" fill-rule="nonzero" fill-opacity="1"/><path d="M659.553 656.771 917.433 659.136 917.328 670.593 659.448 668.229ZM911.809 647.625 946.025 665.127 911.494 681.999Z" fill="#BFBFBF" fill-rule="nonzero" fill-opacity="1"/><path d="M134.5 656.771 457.833 656.771 457.833 668.229 134.5 668.229ZM452.104 645.313 486.479 662.5 452.104 679.688Z" fill="#BFBFBF" fill-rule="nonzero" fill-opacity="1"/><text fill="#000000" fill-opacity="1" font-family="Arial,Arial_MSFontService,sans-serif" font-style="normal" font-variant="normal" font-weight="400" font-stretch="normal" font-size="50" text-anchor="start" direction="ltr" writing-mode="lr-tb" unicode-bidi="normal" text-decoration="none" transform="matrix(1 0 0 1 1874.74 954)">Inbound</text><text fill="#000000" fill-opacity="1" font-family="Arial,Arial_MSFontService,sans-serif" font-style="normal" font-variant="normal" font-weight="400" font-stretch="normal" font-size="50" text-anchor="start" direction="ltr" writing-mode="lr-tb" unicode-bidi="normal" text-decoration="none" transform="matrix(1 0 0 1 1253.27 1581)">Public</text><text fill="#000000" fill-opacity="1" font-family="Arial,Arial_MSFontService,sans-serif" font-style="normal" font-variant="normal" font-weight="400" font-stretch="normal" font-size="50" text-anchor="start" direction="ltr" writing-mode="lr-tb" unicode-bidi="normal" text-decoration="none" transform="matrix(1 0 0 1 1253.27 1642)">Service</text><path d="M28.6456-5.72914 342.578-5.72883 342.578 5.7295 28.6456 5.72919ZM34.375 17.1875 0 0 34.375-17.1875ZM336.848-17.1872 371.223 0.000360892 336.848 17.1878Z" fill="#BFBFBF" fill-rule="nonzero" fill-opacity="1" transform="matrix(-1 0 0 1 1763.72 1164.5)"/><text fill="#000000" fill-opacity="1" font-family="Arial,Arial_MSFontService,sans-serif" font-style="normal" font-variant="normal" font-weight="400" font-stretch="normal" font-size="50" text-anchor="start" direction="ltr" writing-mode="lr-tb" unicode-bidi="normal" text-decoration="none" transform="matrix(1 0 0 1 1488.14 1234)">Internal</text></g></svg>