<?xml version="1.0" encoding="UTF-8"?>
<!DOCTYPE svg PUBLIC "-//W3C//DTD SVG 1.1//EN" "http://www.w3.org/Graphics/SVG/1.1/DTD/svg11.dtd">
<svg xmlns="http://www.w3.org/2000/svg" xmlns:xlink="http://www.w3.org/1999/xlink" version="1.1" width="901px" height="474px" viewBox="-0.5 -0.5 901 474" style="background-color: rgb(255, 255, 255);"><defs/><rect fill="#ffffff" width="100%" height="100%" x="0" y="0"/><g><g><path d="M 665 287 L 773 287 L 773 395 L 665 395 Z" fill="#ed7100" stroke="none" pointer-events="all"/><path d="M 700.54 381.11 L 681.38 381.11 L 702.57 336.83 L 712.17 356.59 Z M 703.95 332.6 C 703.69 332.06 703.15 331.73 702.56 331.73 L 702.55 331.73 C 701.96 331.73 701.42 332.07 701.16 332.6 L 677.53 381.99 C 677.3 382.47 677.34 383.03 677.62 383.48 C 677.9 383.93 678.4 384.2 678.93 384.2 L 701.51 384.2 C 702.11 384.2 702.66 383.86 702.91 383.32 L 715.28 357.24 C 715.48 356.82 715.48 356.33 715.27 355.91 Z M 757.6 381.11 L 738.57 381.11 L 708.03 317.19 C 707.78 316.66 707.23 316.31 706.64 316.31 L 694.18 316.31 L 694.2 300.89 L 718.61 300.89 L 749 364.8 C 749.26 365.34 749.8 365.69 750.4 365.69 L 757.6 365.69 Z M 759.15 362.6 L 751.38 362.6 L 720.98 298.68 C 720.73 298.14 720.18 297.8 719.58 297.8 L 692.65 297.8 C 691.8 297.8 691.11 298.49 691.11 299.34 L 691.09 317.86 C 691.09 318.27 691.25 318.66 691.54 318.95 C 691.83 319.24 692.22 319.4 692.64 319.4 L 705.66 319.4 L 736.2 383.32 C 736.46 383.86 737 384.2 737.59 384.2 L 759.15 384.2 C 760 384.2 760.7 383.51 760.7 382.66 L 760.7 364.14 C 760.7 363.29 760 362.6 759.15 362.6 Z" fill="#ffffff" stroke="none" pointer-events="all"/></g><g><path d="M 665 45 L 773 45 L 773 153 L 665 153 Z" fill="#e7157b" stroke="none" pointer-events="all"/><path d="M 740.07 139.11 C 736.76 139.11 734.07 136.41 734.07 133.08 C 734.07 129.76 736.76 127.05 740.07 127.05 C 743.38 127.05 746.07 129.76 746.07 133.08 C 746.07 136.41 743.38 139.11 740.07 139.11 Z M 726.92 112.89 L 710.97 112.89 L 703 99 L 710.97 85.11 L 726.92 85.11 L 734.89 99 Z M 699.9 70.95 C 696.6 70.95 693.9 68.24 693.9 64.92 C 693.9 61.59 696.6 58.89 699.9 58.89 C 703.21 58.89 705.9 61.59 705.9 64.92 C 705.9 68.24 703.21 70.95 699.9 70.95 Z M 740.07 123.97 C 738.93 123.97 737.85 124.19 736.84 124.57 L 730.33 113.52 L 729.98 113.72 L 737.99 99.77 C 738.26 99.29 738.26 98.71 737.99 98.23 L 729.13 82.8 C 728.86 82.32 728.35 82.03 727.8 82.03 L 711.68 82.03 L 711.75 81.99 L 705.77 71.85 C 707.72 70.18 708.97 67.69 708.97 64.92 C 708.97 59.89 704.9 55.8 699.9 55.8 C 694.9 55.8 690.84 59.89 690.84 64.92 C 690.84 69.94 694.9 74.03 699.9 74.03 C 701.04 74.03 702.13 73.81 703.13 73.43 L 708.71 82.89 L 699.9 98.23 C 699.63 98.71 699.63 99.29 699.9 99.77 L 708.76 115.2 C 709.03 115.68 709.54 115.97 710.09 115.97 L 727.8 115.97 C 727.93 115.97 728.06 115.95 728.18 115.92 L 734.2 126.15 C 732.25 127.82 731 130.31 731 133.08 C 731 138.11 735.07 142.2 740.07 142.2 C 745.07 142.2 749.14 138.11 749.14 133.08 C 749.14 128.06 745.07 123.97 740.07 123.97 Z M 749.22 86.82 C 745.91 86.82 743.22 84.11 743.22 80.79 C 743.22 77.46 745.91 74.76 749.22 74.76 C 752.52 74.76 755.21 77.46 755.21 80.79 C 755.21 84.11 752.52 86.82 749.22 86.82 Z M 760.45 98.23 L 754.63 88.08 C 756.84 86.42 758.28 83.77 758.28 80.79 C 758.28 75.76 754.22 71.67 749.22 71.67 C 747.94 71.67 746.73 71.94 745.63 72.42 L 740.88 64.15 C 740.61 63.67 740.1 63.37 739.55 63.37 L 720.53 63.37 L 720.53 66.46 L 738.67 66.46 L 743.06 74.11 C 741.28 75.78 740.15 78.15 740.15 80.79 C 740.15 85.81 744.22 89.9 749.22 89.9 C 750.15 89.9 751.05 89.76 751.89 89.5 L 757.35 99 L 749.69 112.34 L 752.35 113.89 L 760.45 99.77 C 760.73 99.29 760.73 98.71 760.45 98.23 Z M 690.04 122.52 C 686.73 122.52 684.04 119.82 684.04 116.49 C 684.04 113.17 686.73 110.46 690.04 110.46 C 693.34 110.46 696.04 113.17 696.04 116.49 C 696.04 119.82 693.34 122.52 690.04 122.52 Z M 695.05 124.08 C 697.49 122.45 699.1 119.66 699.1 116.49 C 699.1 111.47 695.04 107.38 690.04 107.38 C 688.59 107.38 687.23 107.73 686.01 108.34 L 680.65 99 L 689.53 83.53 L 686.88 81.98 L 677.55 98.23 C 677.27 98.71 677.27 99.29 677.55 99.77 L 683.52 110.17 C 681.95 111.81 680.97 114.04 680.97 116.49 C 680.97 121.52 685.04 125.61 690.04 125.61 C 690.79 125.61 691.52 125.51 692.22 125.33 L 697.12 133.85 C 697.39 134.33 697.9 134.63 698.45 134.63 L 717.47 134.63 L 717.47 131.54 L 699.33 131.54 Z" fill="#ffffff" stroke="none" pointer-events="all"/></g><g><path d="M 300 287 L 408 287 L 408 395 L 300 395 Z" fill="#e7157b" stroke="none" pointer-events="all"/><path d="M 364.57 364.57 L 384.2 364.57 L 384.2 367.59 L 364.57 367.59 L 364.57 370.61 L 361.55 370.61 L 361.55 367.59 L 355.51 367.59 L 355.51 364.57 L 361.55 364.57 L 361.55 363.06 L 364.57 363.06 Z M 370.61 355.51 L 384.2 355.51 L 384.2 358.53 L 370.61 358.53 L 370.61 361.55 L 367.59 361.55 L 367.59 358.53 L 355.51 358.53 L 355.51 355.51 L 367.59 355.51 L 367.59 354 L 370.61 354 Z M 378.16 346.44 L 384.2 346.44 L 384.2 349.46 L 378.16 349.46 L 378.16 352.48 L 375.14 352.48 L 375.14 349.46 L 355.51 349.46 L 355.51 346.44 L 375.14 346.44 L 375.14 344.93 L 378.16 344.93 Z M 325.31 352.48 L 338.9 352.48 L 338.9 355.51 L 325.31 355.51 C 323.42 355.51 321.39 354.94 319.89 353.98 C 316.84 352.05 311.72 347.53 311.72 338.96 C 311.72 328.57 318.76 324.76 322.86 323.42 L 322.78 322.04 C 322.78 313.48 328.44 304.71 335.95 301.54 C 344.74 297.8 354.05 299.65 360.86 306.49 C 362.98 308.61 364.71 311.19 366.05 314.18 C 368.72 311.95 372.36 311.19 375.74 312.3 C 380.04 313.71 382.72 317.69 383.03 323.03 C 387.32 324.06 396.28 327.59 396.28 339.1 C 396.28 339.53 396.26 339.94 396.25 340.34 L 393.23 340.26 C 393.24 339.86 393.26 339.49 393.26 339.1 C 393.26 328.93 384.87 326.38 381.26 325.75 C 380.85 325.68 380.49 325.45 380.26 325.11 C 380.04 324.77 379.96 324.35 380.04 323.95 C 380 319.45 378.09 316.25 374.8 315.17 C 371.85 314.2 368.61 315.27 366.74 317.83 C 366.4 318.28 365.86 318.51 365.3 318.42 C 364.75 318.34 364.28 317.96 364.1 317.44 C 362.84 313.9 361.03 310.93 358.72 308.63 C 352.82 302.69 344.74 301.08 337.13 304.32 C 330.77 307 325.8 314.74 325.8 321.95 L 325.95 324.45 C 325.99 325.17 325.52 325.82 324.81 326 C 321.05 326.96 314.74 329.91 314.74 338.96 C 314.74 345.73 318.42 349.48 321.51 351.43 C 322.53 352.08 323.99 352.48 325.31 352.48 Z M 393.26 360.52 L 390.6 360.37 C 389.88 360.33 389.2 360.82 389.04 361.54 C 388.53 363.81 387.64 365.95 386.4 367.92 C 386 368.54 386.12 369.36 386.67 369.85 L 388.66 371.62 L 383.71 376.58 L 381.94 374.6 C 381.45 374.04 380.63 373.93 380.01 374.33 C 378.04 375.57 375.89 376.46 373.63 376.97 C 372.91 377.13 372.41 377.79 372.45 378.53 L 372.6 381.18 L 365.6 381.18 L 365.75 378.53 C 365.79 377.79 365.29 377.13 364.57 376.97 C 362.31 376.46 360.17 375.56 358.2 374.32 C 357.57 373.93 356.76 374.04 356.26 374.59 L 354.49 376.58 L 349.54 371.62 L 351.53 369.85 C 352.08 369.36 352.19 368.54 351.8 367.92 C 350.56 365.95 349.67 363.81 349.16 361.54 C 349 360.82 348.28 360.33 347.6 360.37 L 344.94 360.52 L 344.94 353.51 L 347.61 353.67 C 348.31 353.7 349 353.21 349.17 352.49 C 349.68 350.23 350.57 348.09 351.81 346.13 C 352.2 345.5 352.09 344.68 351.54 344.19 L 349.54 342.41 L 354.49 337.45 L 356.28 339.45 C 356.77 340 357.59 340.11 358.21 339.72 C 360.17 338.48 362.31 337.6 364.57 337.09 C 365.29 336.92 365.79 336.26 365.75 335.53 L 365.6 332.85 L 372.6 332.85 L 372.45 335.53 C 372.41 336.27 372.91 336.93 373.63 337.09 C 375.88 337.6 378.02 338.49 379.99 339.72 C 380.61 340.12 381.43 340 381.92 339.45 L 383.71 337.45 L 388.66 342.41 L 386.67 344.19 C 386.12 344.68 386 345.5 386.39 346.12 C 387.63 348.09 388.52 350.23 389.03 352.49 C 389.2 353.21 389.88 353.7 390.59 353.67 L 393.26 353.51 Z M 394.68 350.4 L 391.66 350.58 C 391.17 348.85 390.48 347.19 389.6 345.61 L 391.86 343.6 C 392.17 343.32 392.36 342.93 392.37 342.51 C 392.38 342.1 392.22 341.69 391.93 341.4 L 384.71 334.19 C 384.42 333.89 384 333.72 383.6 333.75 C 383.19 333.76 382.79 333.94 382.52 334.25 L 380.49 336.52 C 378.92 335.64 377.26 334.95 375.54 334.46 L 375.71 331.43 C 375.73 331.01 375.59 330.61 375.3 330.3 C 375.01 330 374.62 329.83 374.2 329.83 L 364 329.83 C 363.58 329.83 363.19 330 362.9 330.3 C 362.61 330.61 362.47 331.01 362.49 331.43 L 362.66 334.46 C 360.93 334.95 359.27 335.64 357.7 336.51 L 355.68 334.25 C 355.41 333.94 355.01 333.76 354.6 333.75 C 354.17 333.73 353.78 333.89 353.49 334.19 L 346.27 341.4 C 345.98 341.69 345.82 342.1 345.83 342.51 C 345.84 342.93 346.03 343.32 346.34 343.6 L 348.6 345.62 C 347.72 347.19 347.03 348.85 346.54 350.58 L 343.52 350.4 C 343.11 350.38 342.69 350.53 342.39 350.81 C 342.09 351.1 341.92 351.5 341.92 351.91 L 341.92 362.12 C 341.92 362.53 342.09 362.93 342.39 363.22 C 342.69 363.5 343.11 363.65 343.52 363.63 L 346.53 363.45 C 347.02 365.19 347.71 366.85 348.59 368.43 L 346.34 370.43 C 346.03 370.71 345.84 371.1 345.83 371.52 C 345.82 371.93 345.98 372.34 346.27 372.63 L 353.49 379.85 C 353.78 380.14 354.21 380.3 354.6 380.29 C 355.01 380.28 355.41 380.09 355.68 379.78 L 357.69 377.53 C 359.27 378.41 360.93 379.1 362.66 379.59 L 362.49 382.6 C 362.47 383.02 362.61 383.42 362.9 383.73 C 363.19 384.03 363.58 384.2 364 384.2 L 374.2 384.2 C 374.62 384.2 375.01 384.03 375.3 383.73 C 375.59 383.42 375.73 383.02 375.71 382.6 L 375.54 379.6 C 377.27 379.1 378.94 378.41 380.51 377.53 L 382.52 379.78 C 382.79 380.09 383.19 380.28 383.6 380.29 C 384 380.31 384.42 380.14 384.71 379.85 L 391.93 372.63 C 392.22 372.34 392.38 371.93 392.37 371.52 C 392.36 371.1 392.17 370.71 391.86 370.43 L 389.61 368.42 C 390.49 366.85 391.17 365.18 391.67 363.45 L 394.68 363.63 C 395.09 363.65 395.51 363.5 395.81 363.22 C 396.11 362.93 396.28 362.53 396.28 362.12 L 396.28 351.91 C 396.28 351.5 396.11 351.1 395.81 350.81 C 395.51 350.53 395.09 350.38 394.68 350.4 Z" fill="#ffffff" stroke="none" pointer-events="all"/></g><g><path d="M 300 45 L 408 45 L 408 153 L 300 153 Z" fill="#ed7100" stroke="none" pointer-events="all"/><path d="M 333.94 119.06 L 372.51 119.06 L 372.51 80.49 L 333.94 80.49 Z M 375.6 80.49 L 381.77 80.49 L 381.77 83.57 L 375.6 83.57 L 375.6 89.74 L 381.77 89.74 L 381.77 92.83 L 375.6 92.83 L 375.6 97.46 L 381.77 97.46 L 381.77 100.54 L 375.6 100.54 L 375.6 106.71 L 381.77 106.71 L 381.77 109.8 L 375.6 109.8 L 375.6 115.97 L 381.77 115.97 L 381.77 119.06 L 375.6 119.06 L 375.6 119.27 C 375.6 120.85 374.31 122.14 372.72 122.14 L 372.51 122.14 L 372.51 128.31 L 369.43 128.31 L 369.43 122.14 L 363.26 122.14 L 363.26 128.31 L 360.17 128.31 L 360.17 122.14 L 355.54 122.14 L 355.54 128.31 L 352.46 128.31 L 352.46 122.14 L 346.29 122.14 L 346.29 128.31 L 343.2 128.31 L 343.2 122.14 L 337.03 122.14 L 337.03 128.31 L 333.94 128.31 L 333.94 122.14 L 333.73 122.14 C 332.15 122.14 330.86 120.85 330.86 119.27 L 330.86 119.06 L 326.23 119.06 L 326.23 115.97 L 330.86 115.97 L 330.86 109.8 L 326.23 109.8 L 326.23 106.71 L 330.86 106.71 L 330.86 100.54 L 326.23 100.54 L 326.23 97.46 L 330.86 97.46 L 330.86 92.83 L 326.23 92.83 L 326.23 89.74 L 330.86 89.74 L 330.86 83.57 L 326.23 83.57 L 326.23 80.49 L 330.86 80.49 L 330.86 80.28 C 330.86 78.69 332.15 77.4 333.73 77.4 L 333.94 77.4 L 333.94 71.23 L 337.03 71.23 L 337.03 77.4 L 343.2 77.4 L 343.2 71.23 L 346.29 71.23 L 346.29 77.4 L 352.46 77.4 L 352.46 71.23 L 355.54 71.23 L 355.54 77.4 L 360.17 77.4 L 360.17 71.23 L 363.26 71.23 L 363.26 77.4 L 369.43 77.4 L 369.43 71.23 L 372.51 71.23 L 372.51 77.4 L 372.72 77.4 C 374.31 77.4 375.6 78.69 375.6 80.28 Z M 355.54 138.92 C 355.54 139.03 355.46 139.11 355.35 139.11 L 314.08 139.11 C 313.97 139.11 313.89 139.03 313.89 138.92 L 313.89 97.65 C 313.89 97.54 313.97 97.46 314.08 97.46 L 323.14 97.46 L 323.14 94.37 L 314.08 94.37 C 312.27 94.37 310.8 95.84 310.8 97.65 L 310.8 138.92 C 310.8 140.73 312.27 142.2 314.08 142.2 L 355.35 142.2 C 357.16 142.2 358.63 140.73 358.63 138.92 L 358.63 131.4 L 355.54 131.4 Z M 397.2 59.08 L 397.2 100.35 C 397.2 102.16 395.73 103.63 393.92 103.63 L 384.86 103.63 L 384.86 100.54 L 393.92 100.54 C 394.03 100.54 394.11 100.46 394.11 100.35 L 394.11 59.08 C 394.11 58.97 394.03 58.89 393.92 58.89 L 352.65 58.89 C 352.54 58.89 352.46 58.97 352.46 59.08 L 352.46 68.14 L 349.37 68.14 L 349.37 59.08 C 349.37 57.27 350.84 55.8 352.65 55.8 L 393.92 55.8 C 395.73 55.8 397.2 57.27 397.2 59.08 Z" fill="#ffffff" stroke="none" pointer-events="all"/></g><g><path d="M 7 45 L 115 45 L 115 153 L 7 153 Z" fill="#e7157b" stroke="none" pointer-events="all"/><path d="M 83.77 110.29 C 83.77 104.3 78.87 99.43 72.84 99.43 C 66.81 99.43 61.91 104.3 61.91 110.29 C 61.91 116.28 66.81 121.15 72.84 121.15 C 78.87 121.15 83.77 116.28 83.77 110.29 M 86.86 110.29 C 86.86 117.97 80.57 124.21 72.84 124.21 C 65.11 124.21 58.82 117.97 58.82 110.29 C 58.82 102.62 65.11 96.37 72.84 96.37 C 80.57 96.37 86.86 102.62 86.86 110.29 M 99.79 131.28 L 89.05 121.67 C 88.18 122.88 87.18 123.99 86.07 124.98 L 96.79 134.59 C 97.7 135.41 99.13 135.33 99.95 134.42 C 100.78 133.51 100.7 132.1 99.79 131.28 M 72.84 126.97 C 82.1 126.97 89.63 119.49 89.63 110.29 C 89.63 101.1 82.1 93.62 72.84 93.62 C 63.58 93.62 56.05 101.1 56.05 110.29 C 56.05 119.49 63.58 126.97 72.84 126.97 M 102.24 136.47 C 101.19 137.62 99.74 138.21 98.28 138.21 C 97.01 138.21 95.74 137.77 94.73 136.86 L 83.58 126.87 C 80.48 128.86 76.8 130.03 72.84 130.03 C 61.88 130.03 52.97 121.17 52.97 110.29 C 52.97 99.41 61.88 90.56 72.84 90.56 C 83.8 90.56 92.71 99.41 92.71 110.29 C 92.71 113.41 91.96 116.36 90.65 118.99 L 101.85 129.01 C 104.02 130.96 104.2 134.31 102.24 136.47 M 32.02 83.65 C 32.02 84.45 32.07 85.24 32.16 86.01 C 32.22 86.45 32.08 86.88 31.79 87.21 C 31.56 87.47 31.24 87.65 30.9 87.7 C 27.11 88.68 20.88 91.62 20.88 100.44 C 20.88 107.1 24.58 110.78 27.68 112.69 C 28.74 113.35 29.99 113.71 31.32 113.72 L 49.89 113.74 L 49.89 116.8 L 31.3 116.78 C 29.39 116.76 27.58 116.24 26.05 115.28 C 22.97 113.39 17.8 108.93 17.8 100.44 C 17.8 90.2 24.85 86.41 28.98 85.07 C 28.95 84.6 28.94 84.13 28.94 83.65 C 28.94 75.29 34.65 66.61 42.23 63.48 C 51.09 59.79 60.47 61.62 67.33 68.36 C 69.46 70.45 71.2 72.99 72.55 75.93 C 74.35 74.44 76.57 73.62 78.91 73.62 C 83.51 73.62 88.69 77.09 89.61 84.68 C 93.92 85.67 103.02 89.11 103.02 100.55 C 103.02 105.12 101.58 108.9 98.73 111.77 L 96.54 109.62 C 98.8 107.34 99.94 104.29 99.94 100.55 C 99.94 90.55 91.51 88.06 87.88 87.45 C 87.47 87.39 87.1 87.15 86.86 86.81 C 86.64 86.48 86.55 86.07 86.62 85.68 C 86.11 79.47 82.4 76.68 78.91 76.68 C 76.71 76.68 74.64 77.75 73.25 79.61 C 72.91 80.06 72.35 80.29 71.79 80.2 C 71.23 80.12 70.76 79.74 70.56 79.21 C 69.3 75.74 67.49 72.82 65.16 70.54 C 59.22 64.69 51.09 63.11 43.41 66.3 C 37.02 68.95 32.02 76.57 32.02 83.65" fill="#ffffff" stroke="none" pointer-events="all"/></g><g><path d="M 408 99 L 658.63 99" fill="none" stroke="rgb(0, 0, 0)" stroke-miterlimit="10" pointer-events="stroke"/><path d="M 663.88 99 L 656.88 102.5 L 658.63 99 L 656.88 95.5 Z" fill="rgb(0, 0, 0)" stroke="rgb(0, 0, 0)" stroke-miterlimit="10" pointer-events="all"/></g><g><g fill="rgb(0, 0, 0)" font-family="Helvetica" text-anchor="middle" font-size="17px"><text x="541" y="22.5">New EC2 Instance</text><text x="541" y="42.5"> launches from </text><text x="541" y="62.5">Autoscaling Group</text><text x="541" y="82.5">(1)</text></g></g><g><path d="M 298 99 L 119.37 99" fill="none" stroke="rgb(0, 0, 0)" stroke-miterlimit="10" pointer-events="stroke"/><path d="M 114.12 99 L 121.12 95.5 L 119.37 99 L 121.12 102.5 Z" fill="rgb(0, 0, 0)" stroke="rgb(0, 0, 0)" stroke-miterlimit="10" pointer-events="all"/></g><g><g fill="rgb(0, 0, 0)" font-family="Helvetica" text-anchor="middle" font-size="17px"><text x="205" y="22.5">Output of ECS </text><text x="205" y="42.5">Orphan Instance check </text><text x="205" y="62.5">shell script</text><text x="205" y="82.5">(5)</text></g></g><g><path d="M 719 153 L 719 280.63" fill="none" stroke="rgb(0, 0, 0)" stroke-miterlimit="10" pointer-events="stroke"/><path d="M 719 285.88 L 715.5 278.88 L 719 280.63 L 722.5 278.88 Z" fill="rgb(0, 0, 0)" stroke="rgb(0, 0, 0)" stroke-miterlimit="10" pointer-events="all"/></g><g><g fill="rgb(0, 0, 0)" font-family="Helvetica" text-anchor="middle" font-size="17px"><text x="815" y="196.5">EC2 launch event</text><text x="815" y="216.5"> detected, triggering </text><text x="815" y="236.5">Lambda function</text><text x="815" y="256.5">(2)</text></g></g><g><path d="M 665 341 L 414.37 341" fill="none" stroke="rgb(0, 0, 0)" stroke-miterlimit="10" pointer-events="stroke"/><path d="M 409.12 341 L 416.12 337.5 L 414.37 341 L 416.12 344.5 Z" fill="rgb(0, 0, 0)" stroke="rgb(0, 0, 0)" stroke-miterlimit="10" pointer-events="all"/></g><g><g fill="rgb(0, 0, 0)" font-family="Helvetica" text-anchor="middle" font-size="17px"><text x="540" y="362.5">Invoking an SSM </text><text x="540" y="382.5">document that will </text><text x="540" y="402.5">run on the newly </text><text x="540" y="422.5">launched EC2 </text><text x="540" y="442.5">instance</text><text x="540" y="462.5">(3)</text></g></g><g><path d="M 354 287 L 354 159.37" fill="none" stroke="rgb(0, 0, 0)" stroke-miterlimit="10" pointer-events="stroke"/><path d="M 354 154.12 L 357.5 161.12 L 354 159.37 L 350.5 161.12 Z" fill="rgb(0, 0, 0)" stroke="rgb(0, 0, 0)" stroke-miterlimit="10" pointer-events="all"/></g><g><g fill="rgb(0, 0, 0)" font-family="Helvetica" text-anchor="middle" font-size="17px"><text x="265" y="197.5">Run ECS Orphan </text><text x="265" y="217.5">Instance check </text><text x="265" y="237.5">shell script</text><text x="265" y="257.5">(4)</text></g></g><g><path d="M 408 153 L 665 287" fill="none" stroke="rgb(0, 0, 0)" stroke-width="2" stroke-miterlimit="10" stroke-dasharray="2 6" pointer-events="stroke"/></g><g><g fill="rgb(0, 0, 0)" font-family="Helvetica" text-anchor="middle" font-size="17px"><text x="539.9" y="142.27">Terminate</text><text x="539.9" y="162.27">Orphan</text><text x="539.9" y="182.27">Instance(s)</text><text x="539.9" y="202.27">(6)</text></g></g></g></svg>