<svg width="3520" height="1645" xmlns="http://www.w3.org/2000/svg" xmlns:xlink="http://www.w3.org/1999/xlink" xml:space="preserve" overflow="hidden"><defs><clipPath id="clip0"><rect x="2851" y="1051" width="202" height="203"/></clipPath><clipPath id="clip1"><rect x="2851" y="1051" width="202" height="203"/></clipPath><clipPath id="clip2"><rect x="2851" y="1051" width="202" height="203"/></clipPath></defs><g transform="translate(-366 -192)"><g><path d="M2767 344 2892.38 344" stroke="#767171" stroke-width="10.3125" stroke-linecap="butt" stroke-linejoin="miter" stroke-miterlimit="8" stroke-opacity="1" fill="none" fill-rule="evenodd"/><path d="M2770 609 2855.68 609" stroke="#767171" stroke-width="10.3125" stroke-linecap="butt" stroke-linejoin="miter" stroke-miterlimit="8" stroke-opacity="1" fill="none" fill-rule="evenodd"/><path d="M2772 1409 2857.68 1409" stroke="#767171" stroke-width="10.3125" stroke-linecap="butt" stroke-linejoin="miter" stroke-miterlimit="8" stroke-opacity="1" fill="none" fill-rule="evenodd"/><path d="M2777 1153 2862.68 1153" stroke="#767171" stroke-width="10.3125" stroke-linecap="butt" stroke-linejoin="miter" stroke-miterlimit="8" stroke-opacity="1" fill="none" fill-rule="evenodd"/><path d="M2777 883 2862.68 883" stroke="#767171" stroke-width="10.3125" stroke-linecap="butt" stroke-linejoin="miter" stroke-miterlimit="8" stroke-opacity="1" fill="none" fill-rule="evenodd"/><path d="M2772 1682 2857.68 1682" stroke="#767171" stroke-width="10.3125" stroke-linecap="butt" stroke-linejoin="miter" stroke-miterlimit="8" stroke-opacity="1" fill="none" fill-rule="evenodd"/><rect x="580.5" y="1247.5" width="1741" height="384" stroke="#A266FF" stroke-width="4.58333" stroke-linecap="butt" stroke-linejoin="miter" stroke-miterlimit="8" stroke-opacity="1" fill="#A266FF" fill-opacity="0.2"/><rect x="580.5" y="592.5" width="1741" height="571" stroke="#ED7000" stroke-width="4.58333" stroke-linecap="butt" stroke-linejoin="miter" stroke-miterlimit="8" stroke-opacity="1" fill="#FB9900" fill-opacity="0.2"/><rect x="491" y="396" width="912" height="1331" stroke="#7AA116" stroke-width="5.72917" stroke-linecap="butt" stroke-linejoin="miter" stroke-miterlimit="8" stroke-opacity="1" fill="none"/><text fill="#000000" fill-opacity="1" font-family="Arial,Arial_MSFontService,sans-serif" font-style="normal" font-variant="normal" font-weight="400" font-stretch="normal" font-size="55" text-anchor="start" direction="ltr" writing-mode="lr-tb" unicode-bidi="normal" text-decoration="none" transform="matrix(1 0 0 1 672.593 482)">Private subnet</text><rect x="1498" y="396" width="912" height="1331" stroke="#7AA116" stroke-width="5.72917" stroke-linecap="butt" stroke-linejoin="miter" stroke-miterlimit="8" stroke-opacity="1" fill="none"/><text fill="#000000" fill-opacity="1" font-family="Arial,Arial_MSFontService,sans-serif" font-style="normal" font-variant="normal" font-weight="400" font-stretch="normal" font-size="55" text-anchor="start" direction="ltr" writing-mode="lr-tb" unicode-bidi="normal" text-decoration="none" transform="matrix(1 0 0 1 1679.15 482)">Private subnet</text><rect x="370.5" y="195.5" width="2150" height="1638" stroke="#8C4EFF" stroke-width="4.58333" stroke-linecap="butt" stroke-linejoin="miter" stroke-miterlimit="8" stroke-opacity="1" fill="none"/><text fill="#000000" fill-opacity="1" font-family="Arial,Arial_MSFontService,sans-serif" font-style="normal" font-variant="normal" font-weight="400" font-stretch="normal" font-size="55" text-anchor="start" direction="ltr" writing-mode="lr-tb" unicode-bidi="normal" text-decoration="none" transform="matrix(1 0 0 1 518.467 281)">VPC</text><text fill="#FF9902" fill-opacity="1" font-family="Arial,Arial_MSFontService,sans-serif" font-style="normal" font-variant="normal" font-weight="400" font-stretch="normal" font-size="55" text-anchor="start" direction="ltr" writing-mode="lr-tb" unicode-bidi="normal" text-decoration="none" transform="matrix(1 0 0 1 753.413 678)">AWS </text><text fill="#FF9902" fill-opacity="1" font-family="Arial,Arial_MSFontService,sans-serif" font-style="normal" font-variant="normal" font-weight="400" font-stretch="normal" font-size="55" text-anchor="start" direction="ltr" writing-mode="lr-tb" unicode-bidi="normal" text-decoration="none" transform="matrix(1 0 0 1 892.311 678)">Fargate</text><g><g><g><path d="M1893.84 888.488 1929.04 888.488 1929.04 853.292 1893.84 853.292 1893.84 888.488ZM1889.97 894.61 1889.97 900.946 1896.85 900.946 1896.85 895.367 1901.99 895.367 1901.99 900.946 1908.87 900.946 1908.87 895.367 1914.01 895.367 1914.01 900.946 1920.89 900.946 1920.89 895.367 1926.03 895.367 1926.03 900.946 1932.91 900.946 1932.91 894.61C1933.85 894.085 1934.63 893.308 1935.16 892.362L1941.49 892.362 1941.49 885.487 1935.91 885.487 1935.91 880.341 1941.49 880.341 1941.49 873.466 1935.91 873.466 1935.91 868.317 1941.49 868.317 1941.49 861.442 1935.91 861.442 1935.91 856.296 1941.49 856.296 1941.49 849.421 1935.16 849.421C1934.63 848.479 1933.85 847.699 1932.91 847.173L1932.91 840.838 1926.03 840.838 1926.03 846.417 1920.89 846.417 1920.89 840.838 1914.01 840.838 1914.01 846.417 1908.87 846.417 1908.87 840.838 1901.99 840.838 1901.99 846.417 1896.85 846.417 1896.85 840.838 1889.97 840.838 1889.97 847.173C1889.02 847.699 1888.25 848.479 1887.72 849.421L1881.39 849.421 1881.39 856.296 1886.97 856.296 1886.97 861.442 1881.39 861.442 1881.39 868.317 1886.97 868.317 1886.97 873.466 1881.39 873.466 1881.39 880.341 1886.97 880.341 1886.97 885.487 1881.39 885.487 1881.39 892.362 1887.72 892.362C1888.25 893.308 1889.02 894.085 1889.97 894.61ZM1965.1 903.95 1971.98 903.95 1971.98 837.837 1965.1 837.837 1965.1 903.95ZM1947.07 903.95 1953.94 903.95 1953.94 837.837 1947.07 837.837 1947.07 903.95ZM1868.93 903.95 1875.81 903.95 1875.81 837.837 1868.93 837.837 1868.93 903.95ZM1850.9 903.95 1857.78 903.95 1857.78 837.837 1850.9 837.837 1850.9 903.95ZM1842.75 912.534 1980.13 912.534 1980.13 829.25 1842.75 829.25 1842.75 912.534ZM1983.56 822.375 1839.31 822.375C1837.42 822.375 1835.88 823.911 1835.88 825.812L1835.88 915.971C1835.88 917.869 1837.42 919.409 1839.31 919.409L1983.56 919.409C1985.46 919.409 1987 917.869 1987 915.971L1987 825.812C1987 823.911 1985.46 822.375 1983.56 822.375Z" fill="#FF9900" fill-rule="evenodd" fill-opacity="1"/></g></g></g><text fill="#000000" fill-opacity="1" font-family="Arial,Arial_MSFontService,sans-serif" font-style="normal" font-variant="normal" font-weight="400" font-stretch="normal" font-size="50" text-anchor="start" direction="ltr" writing-mode="lr-tb" unicode-bidi="normal" text-decoration="none" transform="matrix(1 0 0 1 1814.43 989)">Container</text><g><g><g><path d="M930.841 888.488 966.038 888.488 966.038 853.292 930.841 853.292 930.841 888.488ZM926.971 894.61 926.971 900.946 933.846 900.946 933.846 895.367 938.992 895.367 938.992 900.946 945.867 900.946 945.867 895.367 951.013 895.367 951.013 900.946 957.888 900.946 957.888 895.367 963.034 895.367 963.034 900.946 969.909 900.946 969.909 894.61C970.851 894.085 971.627 893.308 972.157 892.362L978.492 892.362 978.492 885.487 972.913 885.487 972.913 880.341 978.492 880.341 978.492 873.466 972.913 873.466 972.913 868.317 978.492 868.317 978.492 861.442 972.913 861.442 972.913 856.296 978.492 856.296 978.492 849.421 972.157 849.421C971.631 848.479 970.851 847.699 969.909 847.173L969.909 840.838 963.034 840.838 963.034 846.417 957.888 846.417 957.888 840.838 951.013 840.838 951.013 846.417 945.867 846.417 945.867 840.838 938.992 840.838 938.992 846.417 933.846 846.417 933.846 840.838 926.971 840.838 926.971 847.173C926.022 847.699 925.249 848.479 924.719 849.421L918.387 849.421 918.387 856.296 923.966 856.296 923.966 861.442 918.387 861.442 918.387 868.317 923.966 868.317 923.966 873.466 918.387 873.466 918.387 880.341 923.966 880.341 923.966 885.487 918.387 885.487 918.387 892.362 924.719 892.362C925.249 893.308 926.022 894.085 926.971 894.61ZM1002.1 903.95 1008.98 903.95 1008.98 837.837 1002.1 837.837 1002.1 903.95ZM984.068 903.95 990.943 903.95 990.943 837.837 984.068 837.837 984.068 903.95ZM905.93 903.95 912.805 903.95 912.805 837.837 905.93 837.837 905.93 903.95ZM887.9 903.95 894.775 903.95 894.775 837.837 887.9 837.837 887.9 903.95ZM879.75 912.534 1017.13 912.534 1017.13 829.25 879.75 829.25 879.75 912.534ZM1020.56 822.375 876.312 822.375C874.415 822.375 872.875 823.911 872.875 825.812L872.875 915.971C872.875 917.869 874.415 919.409 876.312 919.409L1020.56 919.409C1022.46 919.409 1024 917.869 1024 915.971L1024 825.812C1024 823.911 1022.46 822.375 1020.56 822.375Z" fill="#FF9900" fill-rule="evenodd" fill-opacity="1"/></g></g></g><text fill="#000000" fill-opacity="1" font-family="Arial,Arial_MSFontService,sans-serif" font-style="normal" font-variant="normal" font-weight="400" font-stretch="normal" font-size="50" text-anchor="start" direction="ltr" writing-mode="lr-tb" unicode-bidi="normal" text-decoration="none" transform="matrix(1 0 0 1 845.457 985)">Container</text><g><g><g><path d="M0 0 136 0 136 136 0 136Z" fill="#ED7100" fill-rule="evenodd" fill-opacity="1" transform="matrix(1 0 0 1.00735 580 591)"/><path d="M88.4001 96.0892 88.4001 87.851 93.5001 85.811 93.5001 94.0492 88.4001 96.0892ZM79.9001 85.811 85.0001 87.851 85.0001 96.0892 79.9001 94.0492 79.9001 85.811ZM69.7001 107.989 69.7001 99.751 74.8001 97.711 74.8001 105.949 69.7001 107.989ZM61.2001 97.711 66.3001 99.751 66.3001 107.989 61.2001 105.949 61.2001 97.711ZM51 96.0892 51 87.851 56.1001 85.811 56.1001 94.0492 51 96.0892ZM42.5 85.811 47.6 87.851 47.6 96.0892 42.5 94.0492 42.5 85.811ZM49.3 81.731 53.2237 83.3001 49.3 84.8692 45.3764 83.3001 49.3 81.731ZM68.0001 93.631 71.9237 95.2001 68.0001 96.7692 64.0765 95.2001 68.0001 93.631ZM86.7001 81.731 90.6237 83.3001 86.7001 84.8692 82.7765 83.3001 86.7001 81.731ZM95.8308 81.7208 87.3308 78.3208C86.9262 78.161 86.474 78.161 86.0694 78.3208L77.5694 81.7208C76.9234 81.9809 76.5001 82.6048 76.5001 83.3001L76.5001 93.3692 68.6308 90.2208C68.2262 90.061 67.774 90.061 67.3694 90.2208L59.5001 93.3692 59.5001 83.3001C59.5001 82.6048 59.0768 81.9809 58.4308 81.7208L49.9307 78.3208C49.5261 78.161 49.0739 78.161 48.6693 78.3208L40.1693 81.7208C39.5233 81.9809 39.1 82.6048 39.1 83.3001L39.1 95.2001C39.1 95.8954 39.5233 96.5193 40.1693 96.7794L48.6693 100.179C48.8716 100.259 49.0858 100.3 49.3 100.3 49.5142 100.3 49.7284 100.259 49.9307 100.179L57.8001 97.031 57.8001 107.1C57.8001 107.795 58.2234 108.419 58.8694 108.679L67.3694 112.079C67.5717 112.159 67.7859 112.2 68.0001 112.2 68.2143 112.2 68.4285 112.159 68.6308 112.079L77.1308 108.679C77.7768 108.419 78.2001 107.795 78.2001 107.1L78.2001 97.031 86.0694 100.179C86.2717 100.259 86.4859 100.3 86.7001 100.3 86.9143 100.3 87.1285 100.259 87.3308 100.179L95.8308 96.7794C96.4768 96.5193 96.9001 95.8954 96.9001 95.2001L96.9001 83.3001C96.9001 82.6048 96.4768 81.9809 95.8308 81.7208ZM110.5 61.0947C110.5 71.0312 88.6024 76.3947 68.0001 76.3947 47.3977 76.3947 25.5 71.0312 25.5 61.0947 25.5 56.35 30.7615 52.173 40.3155 49.3323L41.2845 52.5913C33.6447 54.8624 28.9 58.1214 28.9 61.0947 28.9 66.7234 44.9565 72.9947 68.0001 72.9947 91.0436 72.9947 107.1 66.7234 107.1 61.0947 107.1 58.1214 102.355 54.8624 94.7156 52.5913L95.6846 49.3323C105.239 52.173 110.5 56.35 110.5 61.0947ZM68.0001 29.0207 85.3639 35.7 68.0001 42.3793 50.6362 35.7 68.0001 29.0207ZM85.9861 62.6315C82.7799 64.0663 77.3977 65.7374 69.7001 65.9618L69.7001 45.3679 88.4001 38.1769 88.4001 58.9017C88.4001 60.5184 87.4549 61.9821 85.9861 62.6315ZM47.6 58.9017 47.6 38.1769 66.3001 45.3679 66.3001 65.9618C58.6025 65.7374 53.2202 64.0663 50.0072 62.6281 48.5452 61.9821 47.6 60.5184 47.6 58.9017ZM48.6268 65.734C52.3685 67.4085 58.7674 69.406 68.0001 69.406 77.2328 69.406 83.6316 67.4085 87.3682 65.7374 90.061 64.5457 91.8001 61.8631 91.8001 58.9017L91.8001 35.7C91.8001 34.9962 91.3666 34.3655 90.7104 34.1122L68.6104 25.6122C68.216 25.4626 67.7842 25.4626 67.3898 25.6122L45.2897 34.1122C44.6335 34.3655 44.2 34.9962 44.2 35.7L44.2 58.9017C44.2 61.8631 45.9391 64.5457 48.6268 65.734Z" fill="#FFFFFF" fill-rule="evenodd" fill-opacity="1" transform="matrix(1 0 0 1.00735 580 591)"/></g></g></g><g><g><g><path d="M369 194 491 194 491 316 369 316Z" fill="#8C4FFF" fill-rule="evenodd" fill-opacity="1"/><path d="M463.461 258.14 454.481 254.287 454.481 286.279C462.244 285.205 463.424 277.226 463.473 276.863L463.461 258.14ZM451.431 286.322 451.431 254.266 442.175 258.149 442.175 277.062C442.214 277.226 443.532 285.501 451.431 286.322ZM452.365 250.569C452.743 250.408 453.176 250.411 453.557 250.573L465.586 255.733C466.148 255.974 466.51 256.523 466.51 257.133L466.51 277.062C465.952 281.475 462.372 289.454 452.703 289.454 443.324 289.454 439.728 281.487 439.137 277.272L439.125 257.133C439.125 256.52 439.494 255.965 440.058 255.727L452.365 250.569ZM469.597 252.512 452.941 245.174 436.075 252.271 436.075 274.012C436.072 274.14 435.91 282.759 441.128 288.112 443.925 290.982 447.82 292.44 452.703 292.44 457.589 292.44 461.509 290.979 464.351 288.103 469.643 282.741 469.597 274.118 469.597 274.033L469.597 252.512ZM466.538 290.229C463.101 293.718 458.443 295.49 452.703 295.49 446.957 295.49 442.321 293.718 438.926 290.223 432.811 283.93 433.012 274.372 433.025 273.969L433.025 251.259C433.025 250.646 433.391 250.091 433.955 249.853L452.362 242.106C452.749 241.947 453.188 241.944 453.569 242.118L471.735 250.124C472.29 250.368 472.647 250.914 472.647 251.518L472.647 274.012C472.653 274.393 472.729 283.94 466.538 290.229ZM402.525 267.921 426.925 267.921 426.925 270.971 402.525 270.971C393.951 270.971 387.851 264.822 387.339 255.672 387.302 255.334 387.299 254.925 387.299 254.516 387.299 246.864 391.319 241.636 398.941 239.33 398.883 238.638 398.843 237.909 398.843 237.357 398.843 228.463 403.653 220.749 411.095 217.699 421.154 213.588 432.573 214.973 438.868 221.067 441.141 223.275 442.907 225.77 444.236 228.646 446.094 227.274 448.506 226.63 451.401 226.773 456.83 227.048 461.005 231.998 461.871 238.995 466.44 239.373 469.451 241.688 471.052 246.034L468.194 247.089C466.889 243.561 464.51 241.987 460.475 241.987 459.666 241.987 458.998 241.358 458.95 240.553 458.529 233.422 454.661 229.991 451.245 229.82 448.363 229.659 446.228 230.488 444.904 232.233 444.566 232.675 444.035 232.895 443.462 232.821 442.913 232.736 442.449 232.361 442.257 231.836 441.025 228.472 439.222 225.666 436.746 223.254 431.292 217.977 421.221 216.852 412.251 220.524 405.959 223.101 401.893 229.707 401.893 237.357 401.893 238.189 402 239.48 402.094 240.282 402.186 241.047 401.695 241.758 400.948 241.941 393.914 243.686 390.349 247.916 390.349 254.516 390.349 254.824 390.346 255.129 390.376 255.437 390.806 263.047 395.571 267.921 402.525 267.921Z" fill="#FFFFFF" fill-rule="evenodd" fill-opacity="1"/></g></g></g><g><g><g><path d="M491 396 613 396 613 518 491 518Z" fill="#7AA116" fill-rule="evenodd" fill-opacity="1"/><path d="M550.585 463.249C553.958 463.249 556.703 465.991 556.703 469.365 556.703 472.738 553.958 475.483 550.585 475.483 547.211 475.483 544.466 472.738 544.466 469.365 544.466 465.991 547.211 463.249 550.585 463.249L550.585 463.249ZM548.987 478.371 548.987 489.028 552.036 489.028 552.036 478.387C556.398 477.685 559.753 473.924 559.753 469.365 559.753 464.311 555.639 460.199 550.585 460.199 545.531 460.199 541.416 464.311 541.416 469.365 541.416 473.873 544.692 477.609 548.987 478.371ZM521.5 496.693 579.487 496.693 579.487 450.9 521.5 450.9 521.5 496.693ZM533.84 434.076C533.84 424.853 541.343 417.35 550.563 417.35 559.787 417.35 567.286 424.853 567.286 434.076L567.286 447.85 533.84 447.85 533.84 434.076ZM581.011 447.85 570.336 447.85 570.336 434.076C570.336 423.169 561.464 414.3 550.563 414.3 539.66 414.3 530.79 423.169 530.79 434.076L530.79 447.85 519.975 447.85C519.13 447.85 518.45 448.533 518.45 449.375L518.45 498.218C518.45 499.06 519.13 499.743 519.975 499.743L581.011 499.743C581.853 499.743 582.536 499.06 582.536 498.218L582.536 449.375C582.536 448.533 581.853 447.85 581.011 447.85Z" fill="#FFFFFF" fill-rule="evenodd" fill-opacity="1"/></g></g></g><g><g><g><path d="M1498 396 1620 396 1620 518 1498 518Z" fill="#7AA116" fill-rule="evenodd" fill-opacity="1"/><path d="M1557.58 463.249C1560.96 463.249 1563.7 465.991 1563.7 469.365 1563.7 472.738 1560.96 475.483 1557.58 475.483 1554.21 475.483 1551.47 472.738 1551.47 469.365 1551.47 465.991 1554.21 463.249 1557.58 463.249L1557.58 463.249ZM1555.99 478.371 1555.99 489.028 1559.04 489.028 1559.04 478.387C1563.4 477.685 1566.75 473.924 1566.75 469.365 1566.75 464.311 1562.64 460.199 1557.58 460.199 1552.53 460.199 1548.42 464.311 1548.42 469.365 1548.42 473.873 1551.69 477.609 1555.99 478.371ZM1528.5 496.693 1586.49 496.693 1586.49 450.9 1528.5 450.9 1528.5 496.693ZM1540.84 434.076C1540.84 424.853 1548.34 417.35 1557.56 417.35 1566.79 417.35 1574.29 424.853 1574.29 434.076L1574.29 447.85 1540.84 447.85 1540.84 434.076ZM1588.01 447.85 1577.34 447.85 1577.34 434.076C1577.34 423.169 1568.46 414.3 1557.56 414.3 1546.66 414.3 1537.79 423.169 1537.79 434.076L1537.79 447.85 1526.98 447.85C1526.13 447.85 1525.45 448.533 1525.45 449.375L1525.45 498.218C1525.45 499.06 1526.13 499.743 1526.98 499.743L1588.01 499.743C1588.85 499.743 1589.54 499.06 1589.54 498.218L1589.54 449.375C1589.54 448.533 1588.85 447.85 1588.01 447.85Z" fill="#FFFFFF" fill-rule="evenodd" fill-opacity="1"/></g></g></g><g><g><g><path d="M0 0 122 0 122 122 0 122Z" fill="#8C4FFF" fill-rule="evenodd" fill-opacity="1" transform="matrix(1 0 0 1.0082 578 1508)"/><path d="M63.6611 62.7617C65.1373 64.4294 67.1 66.9895 67.1 69.9548 67.1 75.9042 62.31 80.7437 56.425 80.7437L44.225 80.7437C38.34 80.7437 33.55 75.9042 33.55 69.9548 33.55 64.0072 38.34 59.1659 44.225 59.1659L50.325 59.1659 50.325 62.2485 44.225 62.2485C40.0206 62.2485 36.6 65.7071 36.6 69.9548 36.6 74.2041 40.0206 77.6611 44.225 77.6611L56.425 77.6611C60.6294 77.6611 64.05 74.2041 64.05 69.9548 64.05 68.0452 62.5311 66.1079 61.3889 64.8179L63.6611 62.7617ZM85.4 66.8723C85.4 72.8217 80.61 77.6611 74.725 77.6611L68.625 77.6611 68.625 74.5786 74.725 74.5786C78.9295 74.5786 82.35 71.1216 82.35 66.8723 82.35 62.6246 78.9295 59.1659 74.725 59.1659L62.525 59.1659C58.3206 59.1659 54.9 62.6246 54.9 66.8723 54.9 68.2441 55.6061 69.6512 56.2191 70.7254L53.5809 72.2682C52.7742 70.8627 51.85 68.9776 51.85 66.8723 51.85 60.9245 56.64 56.0834 62.525 56.0834L74.725 56.0834C80.61 56.0834 85.4 60.9245 85.4 66.8723ZM87.352 85.3675 34.6495 85.3675C27.4668 85.3613 21.7587 80.1935 21.3759 73.3518 21.3607 73.039 21.35 72.7183 21.35 72.3916 21.35 63.5802 27.6208 60.641 31.4226 59.6699 32.1348 59.5343 32.6655 58.9024 32.6655 58.1533 32.6655 58.0748 32.6594 57.9993 32.6487 57.9221 32.5572 57.1546 32.51 56.3779 32.51 55.6134 32.51 48.5344 37.5272 40.9127 43.9322 38.2618 51.6502 35.0729 59.8212 36.6604 65.7961 42.5172 68.1248 44.7983 69.9411 47.7113 71.1946 51.1776 71.3868 51.7077 71.8473 52.0885 72.3979 52.1733 72.9484 52.258 73.5004 52.0315 73.8405 51.586 75.7132 49.1061 78.7449 48.0642 81.5769 48.9397 84.8693 49.9554 87.0028 53.3384 87.2773 57.9869 87.32 58.6851 87.8202 59.2678 88.4988 59.4064 94.0422 60.5346 100.65 63.725 100.65 72.5148 100.65 83.6983 92.3189 85.3675 87.352 85.3675ZM90.2175 56.6336C89.5709 51.2423 86.7283 47.306 82.4674 45.9913 79.2009 44.9848 75.7605 45.7338 73.1543 47.8916 71.8138 44.9447 70.0585 42.4 67.9205 40.3039 61.0488 33.5686 51.6502 31.7392 42.7778 35.4105 35.1848 38.5516 29.46 47.2366 29.46 55.6134 29.46 56.0804 29.4752 56.5504 29.5057 57.0205 25.3562 58.363 18.3 62.1514 18.3 72.3916 18.3 72.7738 18.3107 73.1483 18.3305 73.5213 18.8078 82.0229 25.8228 88.4422 34.648 88.45L87.352 88.45C91.1874 88.45 103.7 87.3019 103.7 72.5148 103.7 64.3709 98.9237 58.7668 90.2175 56.6336Z" fill="#FFFFFF" fill-rule="evenodd" fill-opacity="1" transform="matrix(1 0 0 1.0082 578 1508)"/></g></g></g><text fill="#000000" fill-opacity="1" font-family="Arial,Arial_MSFontService,sans-serif" font-style="normal" font-variant="normal" font-weight="400" font-stretch="normal" font-size="55" text-anchor="start" direction="ltr" writing-mode="lr-tb" unicode-bidi="normal" text-decoration="none" transform="matrix(1 0 0 1 731.625 1589)">AWS </text><text fill="#000000" fill-opacity="1" font-family="Arial,Arial_MSFontService,sans-serif" font-style="normal" font-variant="normal" font-weight="400" font-stretch="normal" font-size="55" text-anchor="start" direction="ltr" writing-mode="lr-tb" unicode-bidi="normal" text-decoration="none" transform="matrix(1 0 0 1 870.523 1589)">PrivateLink</text><g><g><g><path d="M937.88 1417.88 942.741 1422.74 957.739 1407.74C959.083 1406.4 959.083 1404.22 957.739 1402.88L942.741 1387.88 937.88 1392.74 947.01 1401.87 889.312 1401.87 889.312 1408.75 947.014 1408.75 937.88 1417.88ZM1017.87 1405.31C1017.87 1367.51 987.112 1336.75 949.31 1336.75 911.504 1336.75 880.749 1367.51 880.749 1405.31 880.749 1443.11 911.504 1473.87 949.31 1473.87 987.112 1473.87 1017.87 1443.11 1017.87 1405.31ZM1024.75 1405.31C1024.75 1446.9 990.907 1480.75 949.31 1480.75 907.716 1480.75 873.874 1446.9 873.874 1405.31 873.874 1363.71 907.716 1329.87 949.31 1329.87 990.907 1329.87 1024.75 1363.71 1024.75 1405.31ZM921.872 1414.31 921.872 1415.87C921.872 1416.08 921.889 1416.28 921.923 1416.48 922.143 1417.68 927.489 1445.92 949.31 1445.92 971.131 1445.92 976.476 1417.68 976.693 1416.48 976.731 1416.28 976.748 1416.08 976.748 1415.87L976.748 1379.6C976.748 1378.2 975.895 1376.94 974.593 1376.41L950.592 1366.75C949.774 1366.42 948.846 1366.42 948.028 1366.75L924.027 1376.41C922.724 1376.94 921.872 1378.2 921.872 1379.6L921.872 1396.31 928.747 1396.31 928.747 1381.92 949.31 1373.65 969.873 1381.92 969.873 1415.53C969.316 1418.18 964.442 1439.04 949.31 1439.04 934.178 1439.04 929.304 1418.18 928.747 1415.53L928.747 1414.31 921.872 1414.31ZM988.745 1368.8 988.745 1414.7C988.745 1430.28 980.502 1459.75 949.31 1459.75 933.078 1459.75 921.085 1451.35 914.622 1435.46 911.188 1427.04 910.232 1418.73 909.971 1414.52L916.832 1414.09C917.025 1417.14 917.809 1425.07 920.992 1432.87 926.389 1446.14 935.917 1452.87 949.31 1452.87 981.399 1452.87 981.866 1416.25 981.87 1414.69L981.87 1371.12 949.31 1358.02 916.75 1371.12 916.75 1396.31 909.875 1396.31 909.875 1368.8C909.875 1367.4 910.727 1366.14 912.027 1365.61L948.028 1351.12C948.846 1350.79 949.774 1350.79 950.592 1351.12L986.59 1365.61C987.892 1366.14 988.745 1367.4 988.745 1368.8Z" fill="#8C4FFF" fill-rule="evenodd" fill-opacity="1"/></g></g></g><g><g><g><path d="M1899.88 1418.88 1904.74 1423.74 1919.74 1408.74C1921.08 1407.4 1921.08 1405.22 1919.74 1403.88L1904.74 1388.88 1899.88 1393.74 1909.01 1402.87 1851.31 1402.87 1851.31 1409.75 1909.01 1409.75 1899.88 1418.88ZM1979.87 1406.31C1979.87 1368.51 1949.11 1337.75 1911.31 1337.75 1873.5 1337.75 1842.75 1368.51 1842.75 1406.31 1842.75 1444.11 1873.5 1474.87 1911.31 1474.87 1949.11 1474.87 1979.87 1444.11 1979.87 1406.31ZM1986.75 1406.31C1986.75 1447.9 1952.91 1481.75 1911.31 1481.75 1869.72 1481.75 1835.87 1447.9 1835.87 1406.31 1835.87 1364.71 1869.72 1330.87 1911.31 1330.87 1952.91 1330.87 1986.75 1364.71 1986.75 1406.31ZM1883.87 1415.31 1883.87 1416.87C1883.87 1417.08 1883.89 1417.28 1883.92 1417.48 1884.14 1418.68 1889.49 1446.92 1911.31 1446.92 1933.13 1446.92 1938.48 1418.68 1938.69 1417.48 1938.73 1417.28 1938.75 1417.08 1938.75 1416.87L1938.75 1380.6C1938.75 1379.2 1937.9 1377.94 1936.59 1377.41L1912.59 1367.75C1911.77 1367.42 1910.85 1367.42 1910.03 1367.75L1886.03 1377.41C1884.72 1377.94 1883.87 1379.2 1883.87 1380.6L1883.87 1397.31 1890.75 1397.31 1890.75 1382.92 1911.31 1374.65 1931.87 1382.92 1931.87 1416.53C1931.32 1419.18 1926.44 1440.04 1911.31 1440.04 1896.18 1440.04 1891.3 1419.18 1890.75 1416.53L1890.75 1415.31 1883.87 1415.31ZM1950.74 1369.8 1950.74 1415.7C1950.74 1431.28 1942.5 1460.75 1911.31 1460.75 1895.08 1460.75 1883.08 1452.35 1876.62 1436.46 1873.19 1428.04 1872.23 1419.73 1871.97 1415.52L1878.83 1415.09C1879.03 1418.14 1879.81 1426.07 1882.99 1433.87 1888.39 1447.14 1897.92 1453.87 1911.31 1453.87 1943.4 1453.87 1943.87 1417.25 1943.87 1415.69L1943.87 1372.12 1911.31 1359.02 1878.75 1372.12 1878.75 1397.31 1871.88 1397.31 1871.88 1369.8C1871.88 1368.4 1872.73 1367.14 1874.03 1366.61L1910.03 1352.12C1910.85 1351.79 1911.77 1351.79 1912.59 1352.12L1948.59 1366.61C1949.89 1367.14 1950.74 1368.4 1950.74 1369.8Z" fill="#8C4FFF" fill-rule="evenodd" fill-opacity="1"/></g></g></g><g><g><g><path d="M0 0 202 0 202 202 0 202Z" fill="#ED7100" fill-rule="evenodd" fill-opacity="1" transform="matrix(1 0 0 1.00495 2850 242)"/><path d="M161.6 121.791 141.4 109.668 141.4 80.8C141.4 79.9011 140.925 79.0704 140.148 78.6184L111.1 61.6757 111.1 37.2488 161.6 67.0918 161.6 121.791ZM165.41 63.476 109.86 30.651C109.078 30.1889 108.116 30.1839 107.323 30.6308 106.537 31.0802 106.05 31.9185 106.05 32.825L106.05 63.125C106.05 64.0214 106.527 64.8521 107.302 65.3066L136.35 82.2494 136.35 111.1C136.35 111.986 136.817 112.809 137.577 113.264L162.827 128.414C163.226 128.654 163.676 128.775 164.125 128.775 164.554 128.775 164.984 128.667 165.37 128.447 166.163 128 166.65 127.159 166.65 126.25L166.65 65.65C166.65 64.7562 166.18 63.9305 165.41 63.476ZM102.124 168.829 42.925 137.358 42.925 67.0918 93.4251 37.2488 93.4251 61.7388 66.8191 78.6689C66.0919 79.1335 65.65 79.9365 65.65 80.8L65.65 123.725C65.65 124.667 66.1752 125.53 67.0085 125.965L100.977 143.64C101.707 144.019 102.576 144.021 103.303 143.642L136.259 126.614 156.54 138.784 102.124 168.829ZM162.9 136.709 137.65 121.559C136.898 121.109 135.969 121.079 135.191 121.483L102.149 138.554 70.7 122.192 70.7 82.1863 97.306 65.2561C98.0332 64.7915 98.4751 63.9886 98.4751 63.125L98.4751 32.825C98.4751 31.9185 97.9903 31.0802 97.2025 30.6308 96.4146 30.1839 95.4501 30.1889 94.6648 30.651L39.1148 63.476C38.3472 63.9305 37.875 64.7562 37.875 65.65L37.875 138.875C37.875 139.807 38.3901 140.665 39.2133 141.105L100.96 173.93C101.331 174.127 101.737 174.225 102.144 174.225 102.566 174.225 102.985 174.119 103.366 173.909L162.822 141.084C163.613 140.648 164.107 139.822 164.125 138.921 164.14 138.017 163.673 137.173 162.9 136.709Z" fill="#FFFFFF" fill-rule="evenodd" fill-opacity="1" transform="matrix(1 0 0 1.00495 2850 242)"/></g></g></g><text fill="#000000" fill-opacity="1" font-family="Arial,Arial_MSFontService,sans-serif" font-style="normal" font-variant="normal" font-weight="400" font-stretch="normal" font-size="55" text-anchor="start" direction="ltr" writing-mode="lr-tb" unicode-bidi="normal" text-decoration="none" transform="matrix(1 0 0 1 3109.66 330)">Amazon Elastic Container </text><text fill="#000000" fill-opacity="1" font-family="Arial,Arial_MSFontService,sans-serif" font-style="normal" font-variant="normal" font-weight="400" font-stretch="normal" font-size="55" text-anchor="start" direction="ltr" writing-mode="lr-tb" unicode-bidi="normal" text-decoration="none" transform="matrix(1 0 0 1 3109.66 396)">Service (Amazon ECS)</text><g><g><g><path d="M0 0 202 0 202 202 0 202Z" fill="#7AA116" fill-rule="evenodd" fill-opacity="1" transform="matrix(1 0 0 1.00495 2851 781)"/><path d="M120.786 78.0047 121.755 71.1771C130.696 76.5327 130.813 78.7446 130.81 78.8052 130.795 78.8178 129.27 80.0904 120.786 78.0047ZM115.88 76.6412C100.427 71.9649 78.9062 62.0922 70.1974 57.9765 70.1974 57.9411 70.2076 57.9083 70.2076 57.8729 70.2076 54.5273 67.4856 51.8054 64.1375 51.8054 60.7944 51.8054 58.0724 54.5273 58.0724 57.8729 58.0724 61.2186 60.7944 63.9405 64.1375 63.9405 65.607 63.9405 66.9402 63.3926 67.9931 62.5215 78.2396 67.372 99.5935 77.1008 115.16 81.6963L109.004 125.141C108.986 125.26 108.979 125.379 108.979 125.497 108.979 129.323 92.0437 136.35 64.3723 136.35 36.4079 136.35 19.2935 129.323 19.2935 125.497 19.2935 125.381 19.2859 125.268 19.2708 125.154L6.40844 31.2064C17.5412 38.8698 41.4857 42.925 64.3874 42.925 87.2538 42.925 111.158 38.885 122.313 31.2443L115.88 76.6412ZM5.04999 21.4069C5.23179 18.084 24.3258 5.04999 64.3874 5.04999 104.444 5.04999 123.541 18.0815 123.725 21.4069L123.725 22.5407C121.528 29.9919 96.7831 37.875 64.3874 37.875 31.9362 37.875 7.17857 29.9667 5.04999 22.5053L5.04999 21.4069ZM128.775 21.4625C128.775 12.7134 103.692 0 64.3874 0 25.0833 0 0 12.7134 0 21.4625L0.23735 23.3663 14.246 125.689C14.5819 137.133 45.099 141.4 64.3723 141.4 88.2891 141.4 113.698 135.9 114.026 125.697L120.076 83.032C123.442 83.8375 126.212 84.2491 128.437 84.2491 131.424 84.2491 133.444 83.5193 134.668 82.0599 135.673 80.863 136.057 79.4137 135.769 77.8709 135.115 74.3763 130.967 70.609 122.518 65.7888L128.517 23.4648 128.775 21.4625Z" fill="#FFFFFF" fill-rule="evenodd" fill-opacity="1" transform="matrix(1 0 0 1.00495 2883.82 811.449)"/></g></g></g><text fill="#000000" fill-opacity="1" font-family="Arial,Arial_MSFontService,sans-serif" font-style="normal" font-variant="normal" font-weight="400" font-stretch="normal" font-size="55" text-anchor="start" direction="ltr" writing-mode="lr-tb" unicode-bidi="normal" text-decoration="none" transform="matrix(1 0 0 1 3109.66 863)">Amazon Simple Storage </text><text fill="#000000" fill-opacity="1" font-family="Arial,Arial_MSFontService,sans-serif" font-style="normal" font-variant="normal" font-weight="400" font-stretch="normal" font-size="55" text-anchor="start" direction="ltr" writing-mode="lr-tb" unicode-bidi="normal" text-decoration="none" transform="matrix(1 0 0 1 3109.66 929)">Service (Amazon S3)</text><g clip-path="url(#clip0)"><g clip-path="url(#clip1)"><g clip-path="url(#clip2)"><path d="M0 0 202 0 202 202 0 202Z" fill="#E7157B" fill-rule="evenodd" fill-opacity="1" transform="matrix(1 0 0 1 2851 1052)"/><path d="M139.024 118.113C139.024 108.242 130.94 100.211 121.003 100.211 111.066 100.211 102.984 108.242 102.984 118.113 102.984 127.984 111.066 136.014 121.003 136.014 130.94 136.014 139.024 127.984 139.024 118.113M144.101 118.113C144.101 130.765 133.74 141.057 121.003 141.057 108.269 141.057 97.9078 130.765 97.9078 118.113 97.9078 105.461 108.269 95.1684 121.003 95.1684 133.74 95.1684 144.101 105.461 144.101 118.113M165.412 152.695 147.715 136.861C146.286 138.861 144.634 140.686 142.799 142.318L160.47 158.149C161.978 159.501 164.323 159.375 165.686 157.877 167.041 156.379 166.919 154.052 165.412 152.695M121.003 145.595C136.26 145.595 148.672 133.266 148.672 118.113 148.672 102.957 136.26 90.63 121.003 90.63 105.748 90.63 93.3365 102.957 93.3365 118.113 93.3365 133.266 105.748 145.595 121.003 145.595M169.458 161.253C167.726 163.157 165.333 164.125 162.934 164.125 160.843 164.125 158.746 163.389 157.074 161.896L138.7 145.437C133.59 148.714 127.526 150.638 121.003 150.638 102.949 150.638 88.26 136.047 88.26 118.113 88.26 100.178 102.949 85.5873 121.003 85.5873 139.06 85.5873 153.749 100.178 153.749 118.113 153.749 123.259 152.507 128.11 150.355 132.439L168.81 148.951C172.394 152.171 172.684 157.685 169.458 161.253M53.7327 74.216C53.7327 75.5272 53.814 76.8331 53.9688 78.0964 54.0577 78.815 53.8342 79.5336 53.3519 80.0757 52.9689 80.5068 52.4535 80.7918 51.89 80.8875 45.6487 82.4886 35.3765 87.3346 35.3765 101.873 35.3765 112.851 41.4706 118.909 46.5852 122.061 48.3315 123.155 50.3974 123.738 52.5778 123.76L83.1863 123.788 83.1812 128.831 52.55 128.803C49.4051 128.771 46.4201 127.918 43.8946 126.337 38.8259 123.213 30.3 115.871 30.3 101.873 30.3 84.9972 41.915 78.7595 48.7324 76.5559 48.6817 75.7792 48.6564 74.9977 48.6564 74.216 48.6564 60.4292 58.0706 46.1307 70.5535 40.9595 85.1533 34.8831 100.621 37.8959 111.924 49.0127 115.427 52.4568 118.307 56.6397 120.518 61.4781 123.488 59.0349 127.148 57.6861 131.006 57.6861 138.588 57.6861 147.121 63.4019 148.642 75.9029 155.741 77.529 170.742 83.2123 170.742 102.067 170.742 109.596 168.366 115.813 163.678 120.548L160.059 117.011C163.78 113.254 165.666 108.226 165.666 102.067 165.666 85.5747 151.766 81.4726 145.786 80.4765 145.106 80.3631 144.504 79.9798 144.116 79.4149 143.738 78.8706 143.593 78.2022 143.707 77.5543 142.877 67.3177 136.755 62.7288 131.006 62.7288 127.379 62.7288 123.978 64.4836 121.673 67.5447 121.112 68.2858 120.201 68.664 119.267 68.5279 118.346 68.3918 117.571 67.7613 117.254 66.8915 115.175 61.1706 112.18 56.36 108.353 52.598 98.5577 42.9638 85.1634 40.3517 72.5106 45.6138 61.9793 49.9758 53.7327 62.5371 53.7327 74.216" fill="#FFFFFF" fill-rule="evenodd" fill-opacity="1" transform="matrix(1 0 0 1 2851 1052)"/></g></g></g><text fill="#000000" fill-opacity="1" font-family="Arial,Arial_MSFontService,sans-serif" font-style="normal" font-variant="normal" font-weight="400" font-stretch="normal" font-size="55" text-anchor="start" direction="ltr" writing-mode="lr-tb" unicode-bidi="normal" text-decoration="none" transform="matrix(1 0 0 1 3100.39 1167)">Amazon CloudWatch</text><g><g><g><path d="M0 0 202 0 202 202 0 202Z" fill="#E7157B" fill-rule="evenodd" fill-opacity="1" transform="matrix(1 0 0 1.00495 2851 1320)"/><path d="M118.675 138.87 151.5 138.87 151.5 143.921 118.675 143.921 118.675 148.972 113.625 148.972 113.625 143.921 103.525 143.921 103.525 138.87 113.625 138.87 113.625 136.345 118.675 136.345 118.675 138.87ZM128.775 123.718 151.5 123.718 151.5 128.769 128.775 128.769 128.775 133.819 123.725 133.819 123.725 128.769 103.525 128.769 103.525 123.718 123.725 123.718 123.725 121.192 128.775 121.192 128.775 123.718ZM141.4 108.566 151.5 108.566 151.5 113.616 141.4 113.616 141.4 118.667 136.35 118.667 136.35 113.616 103.525 113.616 103.525 108.566 136.35 108.566 136.35 106.04 141.4 106.04 141.4 108.566ZM53.0249 118.667 75.7499 118.667 75.7499 123.718 53.0249 123.718C49.8561 123.718 46.47 122.766 43.9678 121.172 38.8673 117.942 30.3 110.381 30.3 96.0547 30.3 78.6802 42.0791 72.3035 48.9344 70.0687L48.7981 67.7555C48.793 53.4441 58.2618 38.7691 70.8161 33.4734 85.5191 27.2233 101.091 30.3192 112.476 41.7566 116.008 45.2947 118.917 49.6106 121.144 54.6185 125.616 50.8936 131.704 49.6182 137.36 51.4743 144.549 53.8329 149.023 60.4772 149.548 69.4223 156.714 71.137 171.7 77.0336 171.7 96.2819 171.7 97.0018 171.672 97.6962 171.644 98.3605L166.597 98.2267C166.622 97.5523 166.65 96.9311 166.65 96.2819 166.65 79.2786 152.618 75.0083 146.586 73.9627 145.904 73.844 145.303 73.4552 144.92 72.882 144.538 72.3136 144.405 71.6168 144.546 70.9474 144.473 63.4193 141.289 58.0782 135.784 56.2726 130.853 54.6488 125.434 56.4392 122.296 60.712 121.74 61.4622 120.829 61.8536 119.892 61.7122 118.968 61.5784 118.195 60.9421 117.882 60.0606 115.779 54.1438 112.756 49.1864 108.901 45.325 99.0203 35.3977 85.5141 32.7108 72.7856 38.1252 62.1604 42.6053 53.843 55.5552 53.843 67.6063L54.093 71.7834C54.1637 72.9906 53.3683 74.0789 52.1942 74.3768 45.9044 75.9779 35.35 80.9226 35.35 96.0547 35.35 107.366 41.5059 113.636 46.6746 116.907 48.3789 117.995 50.8105 118.667 53.0249 118.667ZM166.65 132.102 162.196 131.847C161.001 131.784 159.863 132.607 159.59 133.814 158.736 137.597 157.252 141.183 155.176 144.471 154.517 145.517 154.709 146.883 155.633 147.706L158.959 150.671 150.674 158.959 147.717 155.644C146.894 154.717 145.523 154.53 144.485 155.189 141.198 157.265 137.61 158.752 133.817 159.608 132.615 159.881 131.782 160.985 131.855 162.217L132.108 166.649 120.392 166.649 120.644 162.212C120.718 160.98 119.884 159.876 118.682 159.603 114.9 158.75 111.312 157.26 108.019 155.181 106.977 154.52 105.608 154.709 104.787 155.636L101.823 158.957 93.5411 150.671 96.8614 147.711C97.7831 146.888 97.9749 145.522 97.3159 144.479 95.2429 141.191 93.7582 137.605 92.9047 133.814 92.6346 132.607 91.4276 131.784 90.299 131.847L85.8499 132.102 85.8499 120.384 90.3141 120.639C91.4882 120.705 92.6447 119.879 92.9199 118.675 93.7759 114.899 95.2631 111.318 97.3386 108.033 97.9977 106.987 97.8032 105.618 96.8841 104.797L93.5411 101.815 101.826 93.5294 104.808 96.8705C105.631 97.7896 106.999 97.979 108.037 97.3225 111.32 95.2543 114.9 93.7718 118.682 92.9181 119.884 92.6454 120.718 91.542 120.644 90.3096L120.392 85.837 132.108 85.837 131.855 90.3146C131.782 91.5471 132.615 92.648 133.817 92.9207 137.592 93.7769 141.17 95.2593 144.458 97.3301 145.495 97.9891 146.866 97.7972 147.687 96.8781L150.674 93.5294 158.959 101.815 155.623 104.79C154.704 105.613 154.51 106.98 155.169 108.025 157.244 111.31 158.731 114.894 159.585 118.675 159.858 119.877 161.001 120.705 162.191 120.639L166.65 120.384 166.65 132.102ZM169.031 115.19 163.978 115.477C163.158 112.586 162.004 109.805 160.537 107.174L164.317 103.803C164.834 103.341 165.14 102.686 165.16 101.989 165.18 101.297 164.913 100.623 164.42 100.133L152.356 88.0671C151.866 87.5745 151.167 87.2917 150.5 87.3296 149.803 87.3498 149.149 87.6528 148.687 88.1706L145.303 91.9637C142.675 90.4989 139.9 89.3498 137.014 88.5267L137.302 83.4557C137.342 82.7611 137.095 82.0819 136.615 81.5769 136.14 81.0716 135.476 80.7863 134.782 80.7863L117.718 80.7863C117.024 80.7863 116.359 81.0716 115.885 81.5769 115.405 82.0819 115.158 82.7611 115.198 83.4557L115.486 88.5216C112.595 89.3422 109.817 90.4939 107.191 91.9561L103.813 88.1706C103.351 87.6528 102.697 87.3498 102 87.3296 101.285 87.2967 100.634 87.5745 100.144 88.0671L88.0795 100.133C87.5871 100.623 87.3195 101.297 87.3397 101.989 87.3599 102.684 87.6654 103.341 88.183 103.803L91.9705 107.182C90.5035 109.813 89.3496 112.588 88.5264 115.477L83.4688 115.19C82.7921 115.144 82.0952 115.399 81.5902 115.874 81.0852 116.351 80.7999 117.015 80.7999 117.71L80.7999 134.776C80.7999 135.471 81.0852 136.135 81.5902 136.612 82.0952 137.087 82.7947 137.335 83.4688 137.297L88.5087 137.009C89.3293 139.908 90.4808 142.691 91.9478 145.325L88.183 148.681C87.6654 149.143 87.3599 149.8 87.3397 150.494 87.3195 151.189 87.5871 151.863 88.0795 152.353L100.144 164.419C100.634 164.912 101.348 165.182 102 165.159 102.697 165.139 103.353 164.833 103.813 164.316L107.171 160.548C109.805 162.02 112.59 163.177 115.483 164L115.198 169.03C115.158 169.722 115.405 170.402 115.885 170.909 116.359 171.414 117.024 171.7 117.718 171.7L134.782 171.7C135.476 171.7 136.14 171.414 136.617 170.909 137.095 170.402 137.342 169.722 137.302 169.03L137.016 164.005C139.915 163.179 142.7 162.025 145.334 160.555L148.687 164.316C149.147 164.833 149.803 165.139 150.5 165.159 151.174 165.189 151.866 164.912 152.356 164.419L164.42 152.353C164.913 151.863 165.18 151.189 165.16 150.494 165.14 149.8 164.834 149.143 164.314 148.681L160.544 145.32C162.011 142.686 163.163 139.903 163.986 137.009L169.031 137.297C169.713 137.335 170.404 137.087 170.909 136.612 171.414 136.135 171.7 135.471 171.7 134.776L171.7 117.71C171.7 117.015 171.414 116.351 170.909 115.874 170.404 115.399 169.715 115.147 169.031 115.19Z" fill="#FFFFFF" fill-rule="evenodd" fill-opacity="1" transform="matrix(1 0 0 1.00495 2851 1320)"/></g></g></g><text fill="#000000" fill-opacity="1" font-family="Arial,Arial_MSFontService,sans-serif" font-style="normal" font-variant="normal" font-weight="400" font-stretch="normal" font-size="55" text-anchor="start" direction="ltr" writing-mode="lr-tb" unicode-bidi="normal" text-decoration="none" transform="matrix(1 0 0 1 3100.39 1434)">AWS Systems Manager</text><g><g><g><path d="M0 0 203 0 203 203 0 203Z" fill="#DD344C" fill-rule="evenodd" fill-opacity="1" transform="matrix(1 0 0 1 2850 1591)"/><path d="M98.3534 110.026C98.3534 111.762 99.7668 113.172 101.5 113.172 103.236 113.172 104.646 111.762 104.646 110.026 104.646 108.29 103.236 106.879 101.5 106.879 99.7668 106.879 98.3534 108.29 98.3534 110.026L98.3534 110.026ZM93.2784 110.026C93.2784 105.491 96.9654 101.804 101.5 101.804 106.034 101.804 109.721 105.491 109.721 110.026 109.721 113.67 107.326 116.73 104.037 117.806L104.037 124.337 98.9624 124.337 98.9624 117.806C95.6738 116.73 93.2784 113.67 93.2784 110.026ZM124.337 96.4249 78.6624 96.4249 78.6624 129.412 124.337 129.412 124.337 121.8 116.725 121.8 116.725 116.725 124.337 116.725 124.337 109.112 116.725 109.112 116.725 104.037 124.337 104.037 124.337 96.4249ZM86.2749 91.3499 116.722 91.3499 116.725 78.6624C116.727 72.0243 109.475 65.98 101.51 65.9749L101.502 65.9749C97.6226 65.9749 93.7047 67.4315 90.7485 69.9715 87.9065 72.4126 86.2749 75.5819 86.2749 78.665L86.2749 91.3499ZM121.8 78.665 121.797 91.3499 126.875 91.3499C128.278 91.3499 129.412 92.4867 129.412 93.8874L129.412 131.95C129.412 133.351 128.278 134.487 126.875 134.487L76.1249 134.487C74.7217 134.487 73.5874 133.351 73.5874 131.95L73.5874 93.8874C73.5874 92.4867 74.7217 91.3499 76.1249 91.3499L81.1999 91.3499 81.1999 78.6624C81.2025 74.1 83.4761 69.53 87.4396 66.1221 91.3042 62.8031 96.4274 60.8999 101.502 60.8999L101.51 60.8999C112.322 60.905 121.802 69.2052 121.8 78.665ZM48.7377 139.687 52.851 136.713C45.9109 127.121 42.0742 115.867 41.6048 104.037L48.2125 104.037 48.2125 98.9624 41.6124 98.9624C42.1174 87.2036 45.949 76.0158 52.851 66.4774L48.7377 63.5009C41.2064 73.9122 37.0449 86.1277 36.5374 98.9624L30.45 98.9624 30.45 104.037 36.5298 104.037C37.0018 116.943 41.1684 129.225 48.7377 139.687ZM136.614 150.24C127.05 157.162 115.832 160.994 104.037 161.484L104.037 154.787 98.9624 154.787 98.9624 161.484C87.1681 160.997 75.9473 157.165 66.3784 150.24L63.407 154.351C73.8412 161.905 86.0922 166.067 98.9624 166.559L98.9624 172.55 104.037 172.55 104.037 166.559C116.908 166.067 129.154 161.905 139.588 154.351L136.614 150.24ZM66.3784 52.9474C75.9473 46.0251 87.1681 42.1935 98.9624 41.7063L98.9624 48.2125 104.037 48.2125 104.037 41.7063C115.832 42.1935 127.05 46.0251 136.614 52.9474L139.588 48.8367C129.154 41.2851 116.908 37.1236 104.037 36.6313L104.037 30.45 98.9624 30.45 98.9624 36.6313C86.0922 37.1211 73.8412 41.2825 63.407 48.8367L66.3784 52.9474ZM166.457 98.9624C165.95 86.1277 161.788 73.9122 154.254 63.5009L150.141 66.4774C157.046 76.0158 160.877 87.2036 161.382 98.9624L154.787 98.9624 154.787 104.037 161.39 104.037C160.918 115.867 157.084 127.121 150.141 136.713L154.254 139.687C161.826 129.225 165.99 116.943 166.465 104.037L172.55 104.037 172.55 98.9624 166.457 98.9624ZM143.079 63.5998 162.973 43.7059 159.385 40.1178 139.491 60.0118 143.079 63.5998ZM59.9154 139.588 40.0214 159.482 43.6094 163.07 63.5034 143.176 59.9154 139.588ZM72.7399 69.1544 35.0809 31.498 31.4929 35.086 69.1519 72.7424 72.7399 69.1544ZM137.515 133.929 171.499 167.914 167.911 171.502 133.927 137.517 137.515 133.929Z" fill="#FFFFFF" fill-rule="evenodd" fill-opacity="1" transform="matrix(1 0 0 1 2850 1591)"/></g></g></g><text fill="#000000" fill-opacity="1" font-family="Arial,Arial_MSFontService,sans-serif" font-style="normal" font-variant="normal" font-weight="400" font-stretch="normal" font-size="55" text-anchor="start" direction="ltr" writing-mode="lr-tb" unicode-bidi="normal" text-decoration="none" transform="matrix(1 0 0 1 3109.66 1701)">AWS Secrets Manager</text><path d="M947 1014 947 1311.49" stroke="#767171" stroke-width="10.3125" stroke-linecap="butt" stroke-linejoin="miter" stroke-miterlimit="8" stroke-opacity="1" fill="none" fill-rule="evenodd"/><path d="M1032 1405 1828.49 1407.7" stroke="#767171" stroke-width="10.3125" stroke-linecap="butt" stroke-linejoin="miter" stroke-miterlimit="8" stroke-opacity="1" fill="none" fill-rule="evenodd"/><path d="M1994 1408 2778.82 1408" stroke="#767171" stroke-width="10.3125" stroke-linecap="butt" stroke-linejoin="miter" stroke-miterlimit="8" stroke-opacity="1" fill="none" fill-rule="evenodd"/><path d="M2776.3 1682.06 2770 344" stroke="#767171" stroke-width="10.3125" stroke-linecap="butt" stroke-linejoin="miter" stroke-miterlimit="8" stroke-opacity="1" fill="none" fill-rule="evenodd"/><path d="M1901 1018 1901 1315.49" stroke="#767171" stroke-width="10.3125" stroke-linecap="butt" stroke-linejoin="miter" stroke-miterlimit="8" stroke-opacity="1" fill="none" fill-rule="evenodd"/><g><g><g><path d="M2851 512 3052 512 3052 713 2851 713Z" fill="#ED7100" fill-rule="evenodd" fill-opacity="1"/><path d="M2948.46 606.414C2947.21 607.137 2946.44 608.48 2946.44 609.921L2946.44 679.633 2893.71 650.148 2893.71 581.615 2952.9 547.323 3005.48 573.376 2948.46 606.414ZM3011.6 573.31C3011.6 571.867 3010.83 570.521 3009.44 569.725L2954.88 542.689C2953.64 541.971 2952.09 541.968 2950.85 542.692L2890.7 577.536C2889.46 578.259 2888.69 579.602 2888.69 581.043L2888.69 650.73C2888.69 652.171 2889.46 653.514 2890.74 654.257L2945.4 684.823C2946.03 685.184 2946.73 685.362 2947.43 685.362 2948.12 685.362 2948.82 685.184 2949.44 684.823 2950.69 684.103 2951.46 682.76 2951.46 681.316L2951.46 610.493 3009.58 576.818C3010.83 576.097 3011.6 574.754 3011.6 573.31ZM3011.72 650.306 2964.02 679.487 2964.02 653.358 2988.89 637.305 2989.06 636.179C2989.11 635.884 2989.12 635.884 2989.12 634.526L2989.2 603.355 3011.8 590.26 3011.72 650.306ZM3014.81 585.042C3013.56 584.314 3012.01 584.316 3010.77 585.042L2986.71 598.978C2985.96 599.389 2984.18 600.354 2984.18 602.345L2984.1 634.402 2961.18 649.198C2959.81 650.014 2958.99 651.307 2958.99 652.672L2958.99 681.112C2958.99 682.535 2959.76 683.833 2961.04 684.576 2961.71 684.962 2962.46 685.158 2963.2 685.158 2963.93 685.158 2964.66 684.972 2965.32 684.589L3014.73 654.368C3015.98 653.645 3016.74 652.302 3016.74 650.868L3016.83 588.547C3016.83 587.106 3016.05 585.763 3014.81 585.042Z" fill="#FFFFFF" fill-rule="evenodd" fill-opacity="1"/></g></g></g><text fill="#000000" fill-opacity="1" font-family="Arial,Arial_MSFontService,sans-serif" font-style="normal" font-variant="normal" font-weight="400" font-stretch="normal" font-size="55" text-anchor="start" direction="ltr" writing-mode="lr-tb" unicode-bidi="normal" text-decoration="none" transform="matrix(1 0 0 1 3094.24 599)">Amazon Elastic Container </text><text fill="#000000" fill-opacity="1" font-family="Arial,Arial_MSFontService,sans-serif" font-style="normal" font-variant="normal" font-weight="400" font-stretch="normal" font-size="55" text-anchor="start" direction="ltr" writing-mode="lr-tb" unicode-bidi="normal" text-decoration="none" transform="matrix(1 0 0 1 3094.24 665)">Registry (Amazon ECR)</text></g></g></svg>