<svg width="2438" height="1875" xmlns="http://www.w3.org/2000/svg" xmlns:xlink="http://www.w3.org/1999/xlink" xml:space="preserve" overflow="hidden"><defs><clipPath id="clip0"><rect x="27" y="132" width="2438" height="1875"/></clipPath><clipPath id="clip1"><rect x="1922" y="1032" width="166" height="166"/></clipPath><clipPath id="clip2"><rect x="1922" y="1032" width="166" height="166"/></clipPath><clipPath id="clip3"><rect x="1922" y="1032" width="166" height="166"/></clipPath><clipPath id="clip4"><rect x="1547" y="819" width="139" height="138"/></clipPath><clipPath id="clip5"><rect x="1547" y="819" width="139" height="138"/></clipPath><clipPath id="clip6"><rect x="1547" y="819" width="139" height="138"/></clipPath><clipPath id="clip7"><rect x="1596" y="1824" width="155" height="139"/></clipPath><clipPath id="clip8"><rect x="1596" y="1824" width="155" height="139"/></clipPath><clipPath id="clip9"><rect x="1596" y="1824" width="155" height="139"/></clipPath><clipPath id="clip10"><rect x="1775" y="1584" width="166" height="165"/></clipPath><clipPath id="clip11"><rect x="1775" y="1584" width="166" height="165"/></clipPath><clipPath id="clip12"><rect x="1775" y="1584" width="166" height="165"/></clipPath><clipPath id="clip13"><rect x="856" y="135" width="139" height="138"/></clipPath><clipPath id="clip14"><rect x="856" y="135" width="139" height="138"/></clipPath><clipPath id="clip15"><rect x="856" y="135" width="139" height="138"/></clipPath><clipPath id="clip16"><rect x="1082" y="1263" width="166" height="166"/></clipPath><clipPath id="clip17"><rect x="1082" y="1263" width="166" height="166"/></clipPath><clipPath id="clip18"><rect x="1082" y="1263" width="166" height="166"/></clipPath><clipPath id="clip19"><rect x="1082" y="1263" width="166" height="166"/></clipPath><clipPath id="clip20"><rect x="1085" y="1263" width="163" height="163"/></clipPath><clipPath id="clip21"><rect x="1085" y="1263" width="163" height="163"/></clipPath><clipPath id="clip22"><rect x="1085" y="1263" width="163" height="163"/></clipPath><clipPath id="clip23"><rect x="854" y="817" width="140" height="138"/></clipPath><clipPath id="clip24"><rect x="854" y="817" width="140" height="138"/></clipPath><clipPath id="clip25"><rect x="854" y="817" width="140" height="138"/></clipPath><clipPath id="clip26"><rect x="1329" y="374" width="166" height="165"/></clipPath><clipPath id="clip27"><rect x="1329" y="374" width="166" height="165"/></clipPath><clipPath id="clip28"><rect x="1329" y="374" width="166" height="165"/></clipPath><clipPath id="clip29"><rect x="180" y="861" width="169" height="170"/></clipPath><clipPath id="clip30"><rect x="180" y="861" width="169" height="170"/></clipPath><clipPath id="clip31"><rect x="180" y="861" width="169" height="170"/></clipPath></defs><g clip-path="url(#clip0)" transform="translate(-27 -132)"><rect x="1745.5" y="1555.5" width="522" height="212" stroke="#FB9900" stroke-width="4.58333" stroke-linecap="butt" stroke-linejoin="miter" stroke-miterlimit="8" stroke-opacity="1" fill="#FB9900" fill-opacity="0.2"/><rect x="858.5" y="135.5" width="1603" height="615" stroke="#548235" stroke-width="4.58333" stroke-linecap="butt" stroke-linejoin="miter" stroke-miterlimit="8" stroke-dasharray="18.3333 13.75" stroke-opacity="0.2" fill="#E2F0D9" fill-opacity="0.2"/><rect x="1247.5" y="296.5" width="1119" height="342" stroke="#A266FF" stroke-width="4.58333" stroke-linecap="butt" stroke-linejoin="miter" stroke-miterlimit="8" stroke-opacity="1" fill="#A266FF" fill-opacity="0.2"/><rect x="857.5" y="817.5" width="631" height="1185" stroke="#548235" stroke-width="4.58333" stroke-linecap="butt" stroke-linejoin="miter" stroke-miterlimit="8" stroke-dasharray="18.3333 13.75" stroke-opacity="0.2" fill="#E2F0D9" fill-opacity="0.2"/><rect x="1552.5" y="817.5" width="909" height="1185" stroke="#548235" stroke-width="4.58333" stroke-linecap="butt" stroke-linejoin="miter" stroke-miterlimit="8" stroke-dasharray="18.3333 13.75" stroke-opacity="0.2" fill="#E2F0D9" fill-opacity="0.2"/><text fill="#000000" fill-opacity="1" font-family="Arial,Arial_MSFontService,sans-serif" font-style="normal" font-variant="normal" font-weight="400" font-stretch="normal" font-size="50" text-anchor="start" direction="ltr" writing-mode="lr-tb" unicode-bidi="normal" text-decoration="none" transform="matrix(1 0 0 1 1961.97 1260)">ENI</text><g clip-path="url(#clip1)"><g clip-path="url(#clip2)"><g clip-path="url(#clip3)"><path d="M1999.92 1121.09 2014.1 1121.09 2014.1 1106.91 1999.92 1106.91 1999.92 1121.09ZM2020.98 1121.09 2035.16 1121.09 2035.16 1106.91 2020.98 1106.91 2020.98 1121.09ZM1996.48 1127.97 2038.59 1127.97C2040.49 1127.97 2042.03 1126.43 2042.03 1124.53L2042.03 1103.47C2042.03 1101.57 2040.49 1100.03 2038.59 1100.03L1996.48 1100.03C1994.58 1100.03 1993.04 1101.57 1993.04 1103.47L1993.04 1124.53C1993.04 1126.43 1994.58 1127.97 1996.48 1127.97ZM2053.2 1133.12 2044.61 1133.12C2042.71 1133.12 2041.17 1134.66 2041.17 1136.56L2041.17 1142.15 2033.01 1142.15 2033.01 1136.56C2033.01 1134.66 2031.47 1133.12 2029.57 1133.12L2017.54 1133.12C2015.64 1133.12 2014.1 1134.66 2014.1 1136.56L2014.1 1142.15 1990.89 1142.15 1990.89 1136.56C1990.89 1134.66 1989.35 1133.12 1987.46 1133.12L1984.88 1133.12 1984.88 1094.88 2053.2 1094.88 2053.2 1133.12ZM2056.64 1088 1981.44 1088C1979.54 1088 1978 1089.54 1978 1091.44L1978 1136.56C1978 1138.46 1979.54 1140 1981.44 1140L1984.02 1140 1984.02 1145.58C1984.02 1147.49 1985.56 1149.02 1987.46 1149.02L2017.54 1149.02C2019.44 1149.02 2020.98 1147.49 2020.98 1145.58L2020.98 1140 2026.13 1140 2026.13 1145.58C2026.13 1147.49 2027.67 1149.02 2029.57 1149.02L2044.61 1149.02C2046.51 1149.02 2048.05 1147.49 2048.05 1145.58L2048.05 1140 2056.64 1140C2058.54 1140 2060.08 1138.46 2060.08 1136.56L2060.08 1091.44C2060.08 1089.54 2058.54 1088 2056.64 1088ZM1972.85 1085.43 1972.85 1151.6C1972.85 1153.5 1971.31 1155.04 1969.41 1155.04L1958.58 1155.04 1958.58 1148.16 1965.97 1148.16 1965.97 1088.86 1958.58 1088.86 1958.58 1081.99 1969.41 1081.99C1971.31 1081.99 1972.85 1083.52 1972.85 1085.43ZM2005.51 1184.26C1967.59 1184.26 1936.75 1153.42 1936.75 1115.5 1936.75 1077.59 1967.59 1046.75 2005.51 1046.75 2043.42 1046.75 2074.26 1077.59 2074.26 1115.5 2074.26 1153.42 2043.42 1184.26 2005.51 1184.26ZM2005.51 1039.88C1963.8 1039.88 1929.87 1073.8 1929.87 1115.5 1929.87 1157.21 1963.8 1191.14 2005.51 1191.14 2047.21 1191.14 2081.13 1157.21 2081.13 1115.5 2081.13 1073.8 2047.21 1039.88 2005.51 1039.88Z" fill="#A166FF" fill-rule="evenodd" fill-opacity="1"/></g></g></g><g clip-path="url(#clip4)"><g clip-path="url(#clip5)"><g clip-path="url(#clip6)"><path d="M0 0 137 0 137 137 0 137Z" fill="#6CAE3E" fill-rule="evenodd" fill-opacity="1" transform="matrix(1 0 0 1.0073 1548 819)"/><path d="M66.9109 75.5179C70.6989 75.5179 73.7814 78.597 73.7814 82.385 73.7814 86.1731 70.6989 89.2556 66.9109 89.2556 63.1228 89.2556 60.0403 86.1731 60.0403 82.385 60.0403 78.597 63.1228 75.5179 66.9109 75.5179L66.9109 75.5179ZM65.1162 92.4991 65.1162 104.466 68.5412 104.466 68.5412 92.5162C73.4389 91.7285 77.2064 87.5054 77.2064 82.385 77.2064 76.7098 72.5861 72.0929 66.9109 72.0929 61.2356 72.0929 56.6153 76.7098 56.6153 82.385 56.6153 87.4472 60.2938 91.6428 65.1162 92.4991ZM34.25 113.073 99.3662 113.073 99.3662 61.6501 34.25 61.6501 34.25 113.073ZM48.1076 42.7578C48.1076 32.4005 56.5331 23.975 66.8869 23.975 77.2441 23.975 85.6662 32.4005 85.6662 42.7578L85.6662 58.2251 48.1076 58.2251 48.1076 42.7578ZM101.079 58.2251 89.0912 58.2251 89.0912 42.7578C89.0912 30.5099 79.1279 20.55 66.8869 20.55 54.6425 20.55 44.6826 30.5099 44.6826 42.7578L44.6826 58.2251 32.5375 58.2251C31.5888 58.2251 30.825 58.9923 30.825 59.9376L30.825 114.786C30.825 115.731 31.5888 116.498 32.5375 116.498L101.079 116.498C102.024 116.498 102.791 115.731 102.791 114.786L102.791 59.9376C102.791 58.9923 102.024 58.2251 101.079 58.2251Z" fill="#232F3E" fill-rule="evenodd" fill-opacity="1" transform="matrix(1 0 0 1.0073 1548 819)"/></g></g></g><text fill="#6CAE3E" fill-opacity="1" font-family="Arial,Arial_MSFontService,sans-serif" font-style="normal" font-variant="normal" font-weight="400" font-stretch="normal" font-size="55" text-anchor="start" direction="ltr" writing-mode="lr-tb" unicode-bidi="normal" text-decoration="none" transform="matrix(1 0 0 1 1711.26 905)">Private subnet</text><rect x="1599.5" y="1431.5" width="817" height="529" stroke="#FF9902" stroke-width="4.58333" stroke-linecap="butt" stroke-linejoin="miter" stroke-miterlimit="8" stroke-opacity="1" fill="none"/><g clip-path="url(#clip7)"><g clip-path="url(#clip8)"><g clip-path="url(#clip9)"><path d="M0 0 137 0 137 137 0 137Z" fill="#FF9900" fill-rule="evenodd" fill-opacity="1" transform="matrix(1.12409 0 0 1 1596 1825)"/><path d="M34.25 99.3251 99.3251 99.3251 99.3251 34.25 34.25 34.25 34.25 99.3251ZM113.025 41.1 113.025 37.675 102.75 37.675 102.75 32.5375C102.75 31.5922 101.983 30.825 101.038 30.825L95.9001 30.825 95.9001 20.55 92.4751 20.55 92.4751 30.825 82.2001 30.825 82.2001 20.55 78.7751 20.55 78.7751 30.825 68.5001 30.825 68.5001 20.55 65.0751 20.55 65.0751 30.825 54.8001 30.825 54.8001 20.55 51.3751 20.55 51.3751 30.825 41.1 30.825 41.1 20.55 37.675 20.55 37.675 30.825 32.5375 30.825C31.5922 30.825 30.825 31.5922 30.825 32.5375L30.825 37.675 20.55 37.675 20.55 41.1 30.825 41.1 30.825 51.3751 20.55 51.3751 20.55 54.8001 30.825 54.8001 30.825 65.0751 20.55 65.0751 20.55 68.5001 30.825 68.5001 30.825 78.7751 20.55 78.7751 20.55 82.2001 30.825 82.2001 30.825 92.4751 20.55 92.4751 20.55 95.9001 30.825 95.9001 30.825 101.038C30.825 101.983 31.5922 102.75 32.5375 102.75L37.675 102.75 37.675 113.025 41.1 113.025 41.1 102.75 51.3751 102.75 51.3751 113.025 54.8001 113.025 54.8001 102.75 65.0751 102.75 65.0751 113.025 68.5001 113.025 68.5001 102.75 78.7751 102.75 78.7751 113.025 82.2001 113.025 82.2001 102.75 92.4751 102.75 92.4751 113.025 95.9001 113.025 95.9001 102.75 101.038 102.75C101.983 102.75 102.75 101.983 102.75 101.038L102.75 95.9001 113.025 95.9001 113.025 92.4751 102.75 92.4751 102.75 82.2001 113.025 82.2001 113.025 78.7751 102.75 78.7751 102.75 68.5001 113.025 68.5001 113.025 65.0751 102.75 65.0751 102.75 54.8001 113.025 54.8001 113.025 51.3751 102.75 51.3751 102.75 41.1 113.025 41.1Z" fill="#232F3E" fill-rule="evenodd" fill-opacity="1" transform="matrix(1.12409 0 0 1 1596 1825)"/></g></g></g><text fill="#FF9902" fill-opacity="1" font-family="Arial,Arial_MSFontService,sans-serif" font-style="normal" font-variant="normal" font-weight="400" font-stretch="normal" font-size="55" text-anchor="start" direction="ltr" writing-mode="lr-tb" unicode-bidi="normal" text-decoration="none" transform="matrix(1 0 0 1 1781.55 1908)">EC2 instance</text><g clip-path="url(#clip10)"><g clip-path="url(#clip11)"><g clip-path="url(#clip12)"><path d="M1839.84 1684.49 1875.04 1684.49 1875.04 1649.29 1839.84 1649.29 1839.84 1684.49ZM1835.97 1690.61 1835.97 1696.95 1842.85 1696.95 1842.85 1691.37 1847.99 1691.37 1847.99 1696.95 1854.87 1696.95 1854.87 1691.37 1860.01 1691.37 1860.01 1696.95 1866.89 1696.95 1866.89 1691.37 1872.03 1691.37 1872.03 1696.95 1878.91 1696.95 1878.91 1690.61C1879.85 1690.08 1880.63 1689.31 1881.16 1688.36L1887.49 1688.36 1887.49 1681.49 1881.91 1681.49 1881.91 1676.34 1887.49 1676.34 1887.49 1669.47 1881.91 1669.47 1881.91 1664.32 1887.49 1664.32 1887.49 1657.44 1881.91 1657.44 1881.91 1652.3 1887.49 1652.3 1887.49 1645.42 1881.16 1645.42C1880.63 1644.48 1879.85 1643.7 1878.91 1643.17L1878.91 1636.84 1872.03 1636.84 1872.03 1642.42 1866.89 1642.42 1866.89 1636.84 1860.01 1636.84 1860.01 1642.42 1854.87 1642.42 1854.87 1636.84 1847.99 1636.84 1847.99 1642.42 1842.85 1642.42 1842.85 1636.84 1835.97 1636.84 1835.97 1643.17C1835.02 1643.7 1834.25 1644.48 1833.72 1645.42L1827.39 1645.42 1827.39 1652.3 1832.97 1652.3 1832.97 1657.44 1827.39 1657.44 1827.39 1664.32 1832.97 1664.32 1832.97 1669.47 1827.39 1669.47 1827.39 1676.34 1832.97 1676.34 1832.97 1681.49 1827.39 1681.49 1827.39 1688.36 1833.72 1688.36C1834.25 1689.31 1835.02 1690.08 1835.97 1690.61ZM1911.1 1699.95 1917.98 1699.95 1917.98 1633.84 1911.1 1633.84 1911.1 1699.95ZM1893.07 1699.95 1899.94 1699.95 1899.94 1633.84 1893.07 1633.84 1893.07 1699.95ZM1814.93 1699.95 1821.81 1699.95 1821.81 1633.84 1814.93 1633.84 1814.93 1699.95ZM1796.9 1699.95 1803.78 1699.95 1803.78 1633.84 1796.9 1633.84 1796.9 1699.95ZM1788.75 1708.53 1926.13 1708.53 1926.13 1625.25 1788.75 1625.25 1788.75 1708.53ZM1929.56 1618.38 1785.31 1618.38C1783.42 1618.38 1781.88 1619.91 1781.88 1621.81L1781.88 1711.97C1781.88 1713.87 1783.42 1715.41 1785.31 1715.41L1929.56 1715.41C1931.46 1715.41 1933 1713.87 1933 1711.97L1933 1621.81C1933 1619.91 1931.46 1618.38 1929.56 1618.38Z" fill="#FF9900" fill-rule="evenodd" fill-opacity="1"/></g></g></g><text fill="#000000" fill-opacity="1" font-family="Arial,Arial_MSFontService,sans-serif" font-style="normal" font-variant="normal" font-weight="400" font-stretch="normal" font-size="50" text-anchor="start" direction="ltr" writing-mode="lr-tb" unicode-bidi="normal" text-decoration="none" transform="matrix(1 0 0 1 1964.41 1683)">Container</text><text fill="#6CAE3E" fill-opacity="1" font-family="Arial,Arial_MSFontService,sans-serif" font-style="normal" font-variant="normal" font-weight="400" font-stretch="normal" font-size="55" text-anchor="start" direction="ltr" writing-mode="lr-tb" unicode-bidi="normal" text-decoration="none" transform="matrix(1 0 0 1 1031.35 220)">Public subnet</text><g clip-path="url(#clip13)"><g clip-path="url(#clip14)"><g clip-path="url(#clip15)"><path d="M0 0 137 0 137 137 0 137Z" fill="#6CAE3E" fill-rule="evenodd" fill-opacity="1" transform="matrix(1 0 0 1.0073 857 135)"/><path d="M66.9109 75.5179C70.6989 75.5179 73.7814 78.597 73.7814 82.385 73.7814 86.1731 70.6989 89.2556 66.9109 89.2556 63.1228 89.2556 60.0403 86.1731 60.0403 82.385 60.0403 78.597 63.1228 75.5179 66.9109 75.5179L66.9109 75.5179ZM65.1162 92.4991 65.1162 104.466 68.5412 104.466 68.5412 92.5162C73.4389 91.7285 77.2064 87.5054 77.2064 82.385 77.2064 76.7098 72.5861 72.0929 66.9109 72.0929 61.2356 72.0929 56.6153 76.7098 56.6153 82.385 56.6153 87.4472 60.2938 91.6428 65.1162 92.4991ZM34.25 113.073 99.3662 113.073 99.3662 61.6501 34.25 61.6501 34.25 113.073ZM48.1076 42.7578C48.1076 32.4005 56.5331 23.975 66.8869 23.975 77.2441 23.975 85.6662 32.4005 85.6662 42.7578L85.6662 58.2251 48.1076 58.2251 48.1076 42.7578ZM101.079 58.2251 89.0912 58.2251 89.0912 42.7578C89.0912 30.5099 79.1279 20.55 66.8869 20.55 54.6425 20.55 44.6826 30.5099 44.6826 42.7578L44.6826 58.2251 32.5375 58.2251C31.5888 58.2251 30.825 58.9923 30.825 59.9376L30.825 114.786C30.825 115.731 31.5888 116.498 32.5375 116.498L101.079 116.498C102.024 116.498 102.791 115.731 102.791 114.786L102.791 59.9376C102.791 58.9923 102.024 58.2251 101.079 58.2251Z" fill="#232F3E" fill-rule="evenodd" fill-opacity="1" transform="matrix(1 0 0 1.0073 857 135)"/></g></g></g><text fill="#000000" fill-opacity="1" font-family="Arial,Arial_MSFontService,sans-serif" font-style="normal" font-variant="normal" font-weight="400" font-stretch="normal" font-size="50" text-anchor="start" direction="ltr" writing-mode="lr-tb" unicode-bidi="normal" text-decoration="none" transform="matrix(1 0 0 1 1015.69 1472)">NAT gateway</text><g clip-path="url(#clip16)"><g clip-path="url(#clip17)"><g clip-path="url(#clip18)"><g clip-path="url(#clip19)"><g clip-path="url(#clip20)"><g clip-path="url(#clip21)"><g clip-path="url(#clip22)"><path d="M1166.22 1420.72C1124.28 1420.72 1090.28 1386.72 1090.28 1344.78 1090.28 1302.84 1124.28 1268.85 1166.22 1268.85 1208.16 1268.85 1242.15 1302.84 1242.15 1344.78 1242.12 1386.71 1208.16 1420.68 1166.22 1420.72ZM1166.22 1275.31C1127.86 1275.31 1096.75 1306.41 1096.75 1344.78 1096.75 1383.15 1127.86 1414.25 1166.22 1414.25 1204.58 1414.25 1235.69 1383.15 1235.69 1344.78 1235.66 1306.43 1204.58 1275.34 1166.22 1275.31Z" fill="#A166FF" fill-rule="nonzero" fill-opacity="1"/><path d="M1175.29 1387.4 1148.69 1387.4 1148.69 1380.94 1172.06 1380.94 1172.06 1314.7 1148.69 1314.7 1148.69 1308.24 1175.29 1308.24C1177.08 1308.24 1178.53 1309.68 1178.53 1311.47L1178.53 1384.17C1178.53 1385.96 1177.08 1387.4 1175.29 1387.4Z" fill="#A166FF" fill-rule="nonzero" fill-opacity="1"/><path d="M1148.07 1344.59 1205.61 1344.59 1205.61 1351.05 1148.07 1351.05Z" fill="#A166FF" fill-rule="nonzero" fill-opacity="1"/><path d="M1126.83 1326.82C1126.34 1326.81 1125.86 1326.7 1125.45 1326.49 1124.32 1325.96 1123.59 1324.83 1123.59 1323.59L1123.59 1299.35C1123.59 1298.11 1124.32 1296.98 1125.45 1296.44 1126.55 1295.9 1127.89 1296.05 1128.85 1296.83L1143.98 1308.95C1144.77 1309.56 1145.22 1310.49 1145.22 1311.47 1145.22 1312.45 1144.77 1313.38 1143.98 1313.99L1128.85 1326.11C1128.3 1326.57 1127.58 1326.82 1126.83 1326.82ZM1130.06 1306.07 1130.06 1316.86 1136.83 1311.47Z" fill="#A166FF" fill-rule="nonzero" fill-opacity="1"/><path d="M1126.83 1363.17C1126.34 1363.16 1125.86 1363.06 1125.45 1362.85 1124.32 1362.31 1123.59 1361.18 1123.59 1359.94L1123.59 1335.7C1123.59 1334.46 1124.32 1333.33 1125.45 1332.79 1126.55 1332.25 1127.89 1332.4 1128.85 1333.18L1143.98 1345.3C1144.77 1345.91 1145.22 1346.84 1145.22 1347.82 1145.22 1348.8 1144.77 1349.73 1143.98 1350.34L1128.85 1362.46C1128.3 1362.92 1127.58 1363.17 1126.83 1363.17ZM1130.06 1342.42 1130.06 1353.21 1136.83 1347.82Z" fill="#A166FF" fill-rule="nonzero" fill-opacity="1"/><path d="M1208.6 1366.17C1208.19 1366.17 1207.78 1366.1 1207.4 1365.95 1206.16 1365.45 1205.37 1364.26 1205.37 1362.94L1205.37 1332.66C1205.37 1330.88 1206.82 1329.43 1208.6 1329.42 1209.46 1329.41 1210.29 1329.75 1210.91 1330.37L1226.07 1345.52C1227.3 1346.79 1227.3 1348.82 1226.07 1350.08L1210.91 1365.23C1210.29 1365.84 1209.46 1366.18 1208.6 1366.17ZM1211.83 1340.32 1211.83 1355.03 1219.23 1347.69Z" fill="#A166FF" fill-rule="nonzero" fill-opacity="1"/><path d="M1126.83 1396.48C1126.34 1396.48 1125.86 1396.37 1125.45 1396.16 1124.32 1395.63 1123.59 1394.49 1123.59 1393.25L1123.59 1369.02C1123.59 1367.23 1125.04 1365.78 1126.83 1365.77 1127.55 1365.77 1128.3 1366.02 1128.85 1366.5L1143.98 1378.61C1145.39 1379.73 1145.59 1381.76 1144.49 1383.15 1144.32 1383.34 1144.18 1383.5 1143.98 1383.65L1128.85 1395.77C1128.3 1396.23 1127.58 1396.48 1126.83 1396.48ZM1130.06 1375.74 1130.06 1386.53 1136.83 1381.13Z" fill="#A166FF" fill-rule="nonzero" fill-opacity="1"/></g></g></g></g></g></g></g><text fill="#6CAE3E" fill-opacity="1" font-family="Arial,Arial_MSFontService,sans-serif" font-style="normal" font-variant="normal" font-weight="400" font-stretch="normal" font-size="55" text-anchor="start" direction="ltr" writing-mode="lr-tb" unicode-bidi="normal" text-decoration="none" transform="matrix(1 0 0 1 1031.35 909)">Public subnet</text><g clip-path="url(#clip23)"><g clip-path="url(#clip24)"><g clip-path="url(#clip25)"><path d="M0 0 138 0 138 138 0 138Z" fill="#6CAE3E" fill-rule="evenodd" fill-opacity="1" transform="matrix(1 0 0 1 855 817)"/><path d="M67.3991 76.069C71.2148 76.069 74.3198 79.1705 74.3198 82.9862 74.3198 86.8019 71.2148 89.9069 67.3991 89.9069 63.5834 89.9069 60.4784 86.8019 60.4784 82.9862 60.4784 79.1705 63.5834 76.069 67.3991 76.069L67.3991 76.069ZM65.5913 93.174 65.5913 105.228 69.0413 105.228 69.0413 93.1913C73.9748 92.3978 77.7698 88.1439 77.7698 82.9862 77.7698 77.2696 73.1158 72.619 67.3991 72.619 61.6825 72.619 57.0284 77.2696 57.0284 82.9862 57.0284 88.0853 60.7337 92.3115 65.5913 93.174ZM34.5 113.898 100.091 113.898 100.091 62.0999 34.5 62.0999 34.5 113.898ZM48.4586 43.0698C48.4586 32.637 56.9456 24.15 67.375 24.15 77.8078 24.15 86.2913 32.637 86.2913 43.0698L86.2913 58.6499 48.4586 58.6499 48.4586 43.0698ZM101.816 58.6499 89.7413 58.6499 89.7413 43.0698C89.7413 30.7326 79.7053 20.7 67.375 20.7 55.0412 20.7 45.0086 30.7326 45.0086 43.0698L45.0086 58.6499 32.775 58.6499C31.8193 58.6499 31.05 59.4227 31.05 60.3749L31.05 115.623C31.05 116.575 31.8193 117.348 32.775 117.348L101.816 117.348C102.768 117.348 103.541 116.575 103.541 115.623L103.541 60.3749C103.541 59.4227 102.768 58.6499 101.816 58.6499Z" fill="#232F3E" fill-rule="evenodd" fill-opacity="1" transform="matrix(1 0 0 1 855 817)"/></g></g></g><g clip-path="url(#clip26)"><g clip-path="url(#clip27)"><g clip-path="url(#clip28)"><path d="M1445.81 492.164 1453.87 492.164 1453.87 484 1445.81 484 1445.81 492.164ZM1421.96 492.164 1430.12 492.164 1430.12 484 1421.96 484 1421.96 492.164ZM1394.89 492.164 1403.05 492.164 1403.05 484 1394.89 484 1394.89 492.164ZM1371.13 492.164 1378.99 492.164 1378.99 484 1371.13 484 1371.13 492.164ZM1391.88 432.008 1433.13 432.008 1433.13 411.812 1391.88 411.812 1391.88 432.008ZM1457.31 477.125 1452.03 477.125 1452.03 465.523C1452.03 463.622 1450.49 462.086 1448.6 462.086L1440 462.086 1440 450.484C1440 448.583 1438.46 447.047 1436.57 447.047L1415.94 447.047 1415.94 438.883 1436.57 438.883C1438.46 438.883 1440 437.346 1440 435.445L1440 408.375C1440 406.474 1438.46 404.938 1436.57 404.938L1388.44 404.938C1386.54 404.938 1385 406.474 1385 408.375L1385 435.445C1385 437.346 1386.54 438.883 1388.44 438.883L1409.07 438.883 1409.07 447.047 1388.44 447.047C1386.54 447.047 1385 448.583 1385 450.484L1385 462.086 1376.41 462.086C1374.51 462.086 1372.97 463.622 1372.97 465.523L1372.97 477.125 1367.69 477.125C1365.79 477.125 1364.25 478.662 1364.25 480.562L1364.25 495.602C1364.25 497.503 1365.79 499.039 1367.69 499.039L1382.43 499.039C1384.32 499.039 1385.86 497.503 1385.86 495.602L1385.86 480.562C1385.86 478.662 1384.32 477.125 1382.43 477.125L1379.85 477.125 1379.85 468.961 1394.03 468.961 1394.03 477.125 1391.45 477.125C1389.55 477.125 1388.01 478.662 1388.01 480.562L1388.01 495.602C1388.01 497.503 1389.55 499.039 1391.45 499.039L1406.49 499.039C1408.39 499.039 1409.93 497.503 1409.93 495.602L1409.93 480.562C1409.93 478.662 1408.39 477.125 1406.49 477.125L1400.9 477.125 1400.9 465.523C1400.9 463.622 1399.36 462.086 1397.46 462.086L1391.88 462.086 1391.88 453.922 1433.13 453.922 1433.13 462.086 1427.54 462.086C1425.64 462.086 1424.1 463.622 1424.1 465.523L1424.1 477.125 1418.52 477.125C1416.62 477.125 1415.08 478.662 1415.08 480.562L1415.08 495.602C1415.08 497.503 1416.62 499.039 1418.52 499.039L1433.56 499.039C1435.46 499.039 1437 497.503 1437 495.602L1437 480.562C1437 478.662 1435.46 477.125 1433.56 477.125L1430.98 477.125 1430.98 468.961 1445.16 468.961 1445.16 477.125 1442.37 477.125C1440.47 477.125 1438.93 478.662 1438.93 480.562L1438.93 495.602C1438.93 497.503 1440.47 499.039 1442.37 499.039L1457.31 499.039C1459.21 499.039 1460.75 497.503 1460.75 495.602L1460.75 480.562C1460.75 478.662 1459.21 477.125 1457.31 477.125ZM1412.5 525.25C1374.59 525.25 1343.75 494.409 1343.75 456.5 1343.75 418.591 1374.59 387.75 1412.5 387.75 1450.41 387.75 1481.25 418.591 1481.25 456.5 1481.25 494.409 1450.41 525.25 1412.5 525.25ZM1412.5 380.875C1370.8 380.875 1336.88 414.8 1336.88 456.5 1336.88 498.2 1370.8 532.125 1412.5 532.125 1454.2 532.125 1488.13 498.2 1488.13 456.5 1488.13 414.8 1454.2 380.875 1412.5 380.875Z" fill="#A166FF" fill-rule="evenodd" fill-opacity="1"/></g></g></g><text fill="#000000" fill-opacity="1" font-family="Arial,Arial_MSFontService,sans-serif" font-style="normal" font-variant="normal" font-weight="400" font-stretch="normal" font-size="50" text-anchor="start" direction="ltr" writing-mode="lr-tb" unicode-bidi="normal" text-decoration="none" transform="matrix(1 0 0 1 1517.3 443)">Application Load Balancer is public</text><text fill="#000000" fill-opacity="1" font-family="Arial,Arial_MSFontService,sans-serif" font-style="normal" font-variant="normal" font-weight="400" font-stretch="normal" font-size="50" text-anchor="start" direction="ltr" writing-mode="lr-tb" unicode-bidi="normal" text-decoration="none" transform="matrix(1 0 0 1 1517.3 504)">ingress for the private ENI</text><path d="M2.42686-5.18977 844.528 388.596 839.675 398.976-2.42686 5.18977ZM844.193 375.79 868.051 405.921 829.632 406.929Z" fill="#BFBFBF" fill-rule="nonzero" fill-opacity="1" transform="matrix(1 0 0 -1 349.5 861.421)"/><text fill="#000000" fill-opacity="1" font-family="Arial,Arial_MSFontService,sans-serif" font-style="normal" font-variant="normal" font-weight="400" font-stretch="normal" font-size="50" text-anchor="start" direction="ltr" writing-mode="lr-tb" unicode-bidi="normal" text-decoration="none" transform="matrix(1 0 0 1 2091.54 1060)">Port 80</text><path d="M1217 455C1217 438.984 1230.21 426 1246.5 426 1262.79 426 1276 438.984 1276 455 1276 471.016 1262.79 484 1246.5 484 1230.21 484 1217 471.016 1217 455Z" fill="#A266FF" fill-rule="evenodd" fill-opacity="1"/><text fill="#000000" fill-opacity="1" font-family="Arial,Arial_MSFontService,sans-serif" font-style="normal" font-variant="normal" font-weight="400" font-stretch="normal" font-size="50" text-anchor="start" direction="ltr" writing-mode="lr-tb" unicode-bidi="normal" text-decoration="none" transform="matrix(1 0 0 1 512.901 676)">Traffic</text><path d="M2248 645.5C2248 629.208 2260.98 616 2277 616 2293.02 616 2306 629.208 2306 645.5 2306 661.792 2293.02 675 2277 675 2260.98 675 2248 661.792 2248 645.5Z" fill="#A266FF" fill-rule="evenodd" fill-opacity="1"/><path d="M2282.75 675.5 2282.75 1121.8 2117.15 1121.8 2117.15 1110.34 2277.02 1110.34 2271.29 1116.07 2271.29 675.5ZM2122.88 1133.26 2088.5 1116.07 2122.88 1098.89Z" fill="#BFBFBF" fill-rule="nonzero" fill-opacity="1"/><path d="M2010.47 1318.1 2012.19 1526.69 2000.73 1526.78 1999.01 1318.19ZM1987.6 1324.02 2004.5 1289.5 2021.97 1323.73ZM2023.6 1520.86 2006.69 1555.38 1989.22 1521.15Z" fill="#BFBFBF" fill-rule="nonzero" fill-opacity="1"/><path d="M1575 1625.5C1575 1609.21 1588.21 1596 1604.5 1596 1620.79 1596 1634 1609.21 1634 1625.5 1634 1641.79 1620.79 1655 1604.5 1655 1588.21 1655 1575 1641.79 1575 1625.5Z" fill="#BFBFBF" fill-rule="evenodd" fill-opacity="1"/><text fill="#000000" fill-opacity="1" font-family="Arial,Arial_MSFontService,sans-serif" font-style="normal" font-variant="normal" font-weight="400" font-stretch="normal" font-size="50" text-anchor="start" direction="ltr" writing-mode="lr-tb" unicode-bidi="normal" text-decoration="none" transform="matrix(1 0 0 1 78.4903 1093)">Internet gateway</text><g clip-path="url(#clip29)"><g clip-path="url(#clip30)"><g clip-path="url(#clip31)"><path d="M117.706 123.855 112.431 123.855 112.431 61.6208C112.431 60.2372 111.618 58.9802 110.358 58.4134L110.034 58.2655C102.96 55.0721 95.6405 51.766 85.1203 51.766 74.1247 51.766 66.055 55.3186 58.0768 59.2795 56.8797 59.8745 56.1227 61.0962 56.1227 62.4341L56.1227 123.855 50.9717 123.855 50.9717 57.431C59.5414 50.4633 71.896 46.4918 85.1555 46.4918 97.4819 46.4918 109.234 50.0021 117.706 56.1671L117.706 123.855ZM85.1555 39.4502C69.5758 39.4502 54.9855 44.4462 45.1201 53.1638 44.3631 53.8292 43.9301 54.7904 43.9301 55.8009L43.9301 127.376C43.9301 129.323 45.5039 130.897 47.4509 130.897L59.6435 130.897C61.5906 130.897 63.1644 129.323 63.1644 127.376L63.1644 64.6276C69.9208 61.3638 76.4696 58.8077 85.1203 58.8077 93.3414 58.8077 99.3198 61.1843 105.39 63.8988L105.39 127.376C105.39 129.323 106.963 130.897 108.91 130.897L121.226 130.897C123.173 130.897 124.747 129.323 124.747 127.376L124.747 54.4243C124.747 53.3539 124.258 52.3399 123.416 51.6675 113.65 43.904 99.7035 39.4502 85.1555 39.4502ZM84.3386 154.595C45.6025 154.595 14.0805 123.077 14.0805 84.3372 14.0805 45.5975 45.6025 14.0826 84.3386 14.0826 123.078 14.0826 154.597 45.5975 154.597 84.3372 154.597 123.077 123.078 154.595 84.3386 154.595ZM84.3386 7.04095C41.7155 7.04095 7.03884 41.7176 7.03884 84.3372 7.03884 126.964 41.7155 161.637 84.3386 161.637 126.962 161.637 161.638 126.964 161.638 84.3372 161.638 41.7176 126.962 7.04095 84.3386 7.04095Z" fill="#A166FF" fill-rule="evenodd" fill-opacity="1" transform="matrix(1 0 0 1.00592 180 861)"/></g></g></g><path d="M1068.69 1350.05 489.179 1127.13 493.293 1116.44 1072.8 1339.35ZM490.412 1139.88 464.5 1111.5 502.754 1107.8Z" fill="#BFBFBF" fill-rule="nonzero" fill-opacity="1"/><text fill="#000000" fill-opacity="1" font-family="Arial,Arial_MSFontService,sans-serif" font-style="normal" font-variant="normal" font-weight="400" font-stretch="normal" font-size="50" text-anchor="start" direction="ltr" writing-mode="lr-tb" unicode-bidi="normal" text-decoration="none" transform="matrix(1 0 0 1 577.419 1313)">Outbound </text><text fill="#000000" fill-opacity="1" font-family="Arial,Arial_MSFontService,sans-serif" font-style="normal" font-variant="normal" font-weight="400" font-stretch="normal" font-size="50" text-anchor="start" direction="ltr" writing-mode="lr-tb" unicode-bidi="normal" text-decoration="none" transform="matrix(1 0 0 1 604.071 1374)">internet </text><text fill="#000000" fill-opacity="1" font-family="Arial,Arial_MSFontService,sans-serif" font-style="normal" font-variant="normal" font-weight="400" font-stretch="normal" font-size="50" text-anchor="start" direction="ltr" writing-mode="lr-tb" unicode-bidi="normal" text-decoration="none" transform="matrix(1 0 0 1 591.467 1434)">requests</text><path d="M1575.68 1631.59 1161.77 1631.59 1161.77 1530.15 1173.23 1530.15 1173.23 1625.86 1167.5 1620.13 1575.68 1620.13ZM1150.31 1535.88 1167.5 1501.5 1184.69 1535.88Z" fill="#BFBFBF" fill-rule="nonzero" fill-opacity="1"/><path d="M0-5.72917 778.961-5.72917 778.961 113.823 767.503 113.823 767.503 0 773.232 5.72917 0 5.72917ZM790.42 108.093 773.232 142.468 756.045 108.093Z" fill="#BFBFBF" fill-rule="nonzero" fill-opacity="1" transform="matrix(-1 1.22465e-16 1.22465e-16 1 1937.73 1121.5)"/><text fill="#000000" fill-opacity="1" font-family="Arial,Arial_MSFontService,sans-serif" font-style="normal" font-variant="normal" font-weight="400" font-stretch="normal" font-size="50" text-anchor="start" direction="ltr" writing-mode="lr-tb" unicode-bidi="normal" text-decoration="none" transform="matrix(1 0 0 1 1025.13 439)">Port 80</text><text fill="#000000" fill-opacity="1" font-family="Arial,Arial_MSFontService,sans-serif" font-style="normal" font-variant="normal" font-weight="400" font-stretch="normal" font-size="50" text-anchor="start" direction="ltr" writing-mode="lr-tb" unicode-bidi="normal" text-decoration="none" transform="matrix(1 0 0 1 2035.33 1521)">Port 80</text><text fill="#000000" fill-opacity="1" font-family="Arial,Arial_MSFontService,sans-serif" font-style="normal" font-variant="normal" font-weight="400" font-stretch="normal" font-size="50" text-anchor="start" direction="ltr" writing-mode="lr-tb" unicode-bidi="normal" text-decoration="none" transform="matrix(1 0 0 1 1678.01 1190)">Task </text><text fill="#000000" fill-opacity="1" font-family="Arial,Arial_MSFontService,sans-serif" font-style="normal" font-variant="normal" font-weight="400" font-stretch="normal" font-size="50" text-anchor="start" direction="ltr" writing-mode="lr-tb" unicode-bidi="normal" text-decoration="none" transform="matrix(1 0 0 1 1648.8 1251)">internet</text><text fill="#000000" fill-opacity="1" font-family="Arial,Arial_MSFontService,sans-serif" font-style="normal" font-variant="normal" font-weight="400" font-stretch="normal" font-size="50" text-anchor="start" direction="ltr" writing-mode="lr-tb" unicode-bidi="normal" text-decoration="none" transform="matrix(1 0 0 1 1246.35 1700)">Instance </text><text fill="#000000" fill-opacity="1" font-family="Arial,Arial_MSFontService,sans-serif" font-style="normal" font-variant="normal" font-weight="400" font-stretch="normal" font-size="50" text-anchor="start" direction="ltr" writing-mode="lr-tb" unicode-bidi="normal" text-decoration="none" transform="matrix(1 0 0 1 1257.54 1761)">internet</text></g></svg>