<svg width="2457" height="1026" xmlns="http://www.w3.org/2000/svg" xmlns:xlink="http://www.w3.org/1999/xlink" xml:space="preserve" overflow="hidden"><g transform="translate(-114 -110)"><g><rect x="118.5" y="113.5" width="1345" height="1015" stroke="#FF9902" stroke-width="4.58333" stroke-linecap="butt" stroke-linejoin="miter" stroke-miterlimit="8" stroke-opacity="1" fill="none"/><text fill="#FF9902" fill-opacity="1" font-family="Arial,Arial_MSFontService,sans-serif" font-style="normal" font-variant="normal" font-weight="400" font-stretch="normal" font-size="55" text-anchor="start" direction="ltr" writing-mode="lr-tb" unicode-bidi="normal" text-decoration="none" transform="matrix(1 0 0 1 299.123 199)">EC2 instance</text><g><g><g><path d="M0 0 137 0 137 137 0 137Z" fill="#FF9900" fill-rule="evenodd" fill-opacity="1" transform="matrix(1 0 0 1 118 113)"/><path d="M34.25 99.3249 99.3249 99.3249 99.3249 34.25 34.25 34.25 34.25 99.3249ZM113.025 41.0999 113.025 37.6749 102.75 37.6749 102.75 32.5375C102.75 31.5922 101.983 30.825 101.037 30.825L95.8999 30.825 95.8999 20.55 92.4749 20.55 92.4749 30.825 82.1999 30.825 82.1999 20.55 78.7749 20.55 78.7749 30.825 68.4999 30.825 68.4999 20.55 65.0749 20.55 65.0749 30.825 54.7999 30.825 54.7999 20.55 51.3749 20.55 51.3749 30.825 41.0999 30.825 41.0999 20.55 37.6749 20.55 37.6749 30.825 32.5375 30.825C31.5922 30.825 30.825 31.5922 30.825 32.5375L30.825 37.6749 20.55 37.6749 20.55 41.0999 30.825 41.0999 30.825 51.3749 20.55 51.3749 20.55 54.7999 30.825 54.7999 30.825 65.0749 20.55 65.0749 20.55 68.4999 30.825 68.4999 30.825 78.7749 20.55 78.7749 20.55 82.1999 30.825 82.1999 30.825 92.4749 20.55 92.4749 20.55 95.8999 30.825 95.8999 30.825 101.037C30.825 101.983 31.5922 102.75 32.5375 102.75L37.6749 102.75 37.6749 113.025 41.0999 113.025 41.0999 102.75 51.3749 102.75 51.3749 113.025 54.7999 113.025 54.7999 102.75 65.0749 102.75 65.0749 113.025 68.4999 113.025 68.4999 102.75 78.7749 102.75 78.7749 113.025 82.1999 113.025 82.1999 102.75 92.4749 102.75 92.4749 113.025 95.8999 113.025 95.8999 102.75 101.037 102.75C101.983 102.75 102.75 101.983 102.75 101.037L102.75 95.8999 113.025 95.8999 113.025 92.4749 102.75 92.4749 102.75 82.1999 113.025 82.1999 113.025 78.7749 102.75 78.7749 102.75 68.4999 113.025 68.4999 113.025 65.0749 102.75 65.0749 102.75 54.7999 113.025 54.7999 113.025 51.3749 102.75 51.3749 102.75 41.0999 113.025 41.0999Z" fill="#232F3E" fill-rule="evenodd" fill-opacity="1" transform="matrix(1 0 0 1 118 113)"/></g></g></g><rect x="165" y="300" width="959" height="165" fill="#FB9900" fill-opacity="1"/><text fill="#000000" fill-opacity="1" font-family="Arial,Arial_MSFontService,sans-serif" font-style="normal" font-variant="normal" font-weight="400" font-stretch="normal" font-size="73" text-anchor="start" direction="ltr" writing-mode="lr-tb" unicode-bidi="normal" text-decoration="none" transform="matrix(1 0 0 1 465.481 410)">ECS Agent</text><rect x="165.5" y="580.5" width="1061" height="464" stroke="#FF9902" stroke-width="4.58333" stroke-linecap="butt" stroke-linejoin="miter" stroke-miterlimit="8" stroke-opacity="1" fill="none"/><text fill="#FF9902" fill-opacity="1" font-family="Arial,Arial_MSFontService,sans-serif" font-style="normal" font-variant="normal" font-weight="400" font-stretch="normal" font-size="55" text-anchor="start" direction="ltr" writing-mode="lr-tb" unicode-bidi="normal" text-decoration="none" transform="matrix(1 0 0 1 362.174 666)">Container</text><g><g><g><path d="M306.117 678.966 312.992 678.966 312.992 612.835 306.117 612.835 306.117 678.966ZM288.084 678.966 294.959 678.966 294.959 612.835 288.084 612.835 288.084 678.966ZM270.047 678.966 276.922 678.966 276.922 612.835 270.047 612.835 270.047 678.966ZM252.014 678.966 258.889 678.966 258.889 612.835 252.014 612.835 252.014 678.966ZM233.978 678.966 240.853 678.966 240.853 612.835 233.978 612.835 233.978 678.966ZM215.945 678.966 222.82 678.966 222.82 612.835 215.945 612.835 215.945 678.966ZM197.908 678.966 204.783 678.966 204.783 612.835 197.908 612.835 197.908 678.966ZM186.746 687.549 324.154 687.549 324.154 604.251 186.746 604.251 186.746 687.549ZM327.591 597.373 183.312 597.373C181.411 597.373 179.875 598.913 179.875 600.81L179.875 690.986C179.875 692.884 181.411 694.424 183.312 694.424L327.591 694.424C329.492 694.424 331.029 692.884 331.029 690.986L331.029 600.81C331.029 598.913 329.492 597.373 327.591 597.373Z" fill="#FF9900" fill-rule="evenodd" fill-opacity="1"/></g></g></g><rect x="254" y="781" width="870" height="165" fill="#FB9900" fill-opacity="1"/><text fill="#000000" fill-opacity="1" font-family="Arial,Arial_MSFontService,sans-serif" font-style="normal" font-variant="normal" font-weight="400" font-stretch="normal" font-size="73" text-anchor="start" direction="ltr" writing-mode="lr-tb" unicode-bidi="normal" text-decoration="none" transform="matrix(1 0 0 1 517.201 891)">Your Code</text><g><g><g><path d="M1676.53 412.997C1676 413.035 1675.46 413.076 1674.95 413.128 1673.15 413.276 1671.27 413.454 1669.38 413.654L1668.8 413.716C1662.73 414.341 1655.86 415.046 1652.6 414.599 1650.55 414.307 1646.79 412.674 1642.81 410.945 1636.05 408.016 1627.63 404.366 1620.03 403.781 1609.55 402.977 1591.46 404.95 1579.8 410.419 1573.05 410.117 1566.8 408.302 1561.93 405.304 1561.91 404.369 1561.89 403.434 1561.89 403.073 1561.89 388.856 1568.56 375.522 1580.18 366.464 1588.08 361.847 1597.18 359.41 1606.51 359.41 1627.55 359.41 1646.23 371.844 1653.51 390.148L1650.72 390.148C1647.92 390.148 1645.57 392.128 1645 394.754 1644.52 394.576 1644.09 394.414 1643.58 394.218 1636.61 391.527 1627.04 387.845 1615.98 388.502 1599.8 389.45 1591.84 390.427 1585.58 392.214L1587.47 398.828C1593.2 397.188 1600.76 396.284 1616.38 395.363 1625.95 394.82 1634.72 398.175 1641.11 400.633 1642.47 401.159 1643.69 401.616 1644.86 402.032L1644.86 402.736C1644.86 405.964 1647.49 408.594 1650.72 408.594L1663.25 408.594C1666.47 408.594 1669.1 405.974 1669.11 402.757L1670.33 402.647C1672.36 402.465 1674.24 402.283 1675.81 402.128L1676.53 402.056 1676.53 412.997ZM1558.68 418.731C1549.57 419.979 1542.38 418.865 1539.41 417.026 1541.21 415.751 1545.28 413.967 1548.15 412.715 1550.63 411.633 1553.15 410.488 1555.58 409.264 1559.54 412.286 1564.45 414.551 1569.89 415.902 1566.75 417.167 1562.85 418.164 1558.68 418.731ZM1651.73 401.719 1662.23 401.719 1662.23 397.023 1651.73 397.023 1651.73 401.719ZM1616.39 345.688C1645.15 345.688 1669.31 367.327 1672.87 395.504 1671.88 395.6 1670.83 395.7 1669.73 395.799L1669.1 395.854C1669.01 392.699 1666.43 390.148 1663.25 390.148L1660.81 390.148C1653.24 367.884 1631.33 352.535 1606.51 352.535 1597.32 352.535 1588.33 354.639 1580.25 358.637 1580.3 358.589 1580.35 358.537 1580.4 358.492 1590.51 350.235 1603.29 345.688 1616.39 345.688ZM1681.5 396.542C1681 396.092 1680.41 395.765 1679.79 395.518 1676.19 363.511 1648.92 338.813 1616.39 338.813 1601.71 338.813 1587.39 343.91 1576.06 353.164 1561.1 365.347 1552.52 383.397 1552.52 402.685 1552.52 402.826 1552.53 402.967 1552.53 403.108 1550.23 404.259 1547.81 405.359 1545.4 406.414 1538.06 409.625 1532.75 411.942 1531.96 416.129 1531.76 417.191 1531.73 419.271 1533.75 421.292 1537.32 424.857 1544.16 426.135 1551.11 426.135 1554 426.135 1556.91 425.915 1559.61 425.544 1564.21 424.919 1572.81 423.231 1578.64 418.961 1587.85 412.289 1608.66 409.794 1619.5 410.636 1625.96 411.134 1633.78 414.527 1640.07 417.253 1644.87 419.339 1648.67 420.983 1651.64 421.405 1655.74 421.966 1662.42 421.278 1669.5 420.553L1670.1 420.495C1671.95 420.295 1673.77 420.123 1675.57 419.975 1676.31 419.903 1677.04 419.852 1678.02 419.783 1681.04 419.57 1683.41 417.033 1683.41 414.008L1683.41 400.846C1683.41 399.203 1682.71 397.635 1681.5 396.542Z" fill="#FF5252" fill-rule="evenodd" fill-opacity="1"/></g></g></g><g><g><g><path d="M1676.53 893.997C1676 894.035 1675.46 894.076 1674.95 894.128 1673.15 894.276 1671.27 894.454 1669.38 894.654L1668.8 894.716C1662.73 895.341 1655.86 896.046 1652.6 895.599 1650.55 895.307 1646.79 893.674 1642.81 891.945 1636.05 889.016 1627.63 885.366 1620.03 884.781 1609.55 883.977 1591.46 885.95 1579.8 891.419 1573.05 891.117 1566.8 889.302 1561.93 886.304 1561.91 885.369 1561.89 884.434 1561.89 884.073 1561.89 869.856 1568.56 856.522 1580.18 847.464 1588.08 842.847 1597.18 840.41 1606.51 840.41 1627.55 840.41 1646.23 852.844 1653.51 871.148L1650.72 871.148C1647.92 871.148 1645.57 873.128 1645 875.754 1644.52 875.576 1644.09 875.414 1643.58 875.218 1636.61 872.527 1627.04 868.845 1615.98 869.502 1599.8 870.45 1591.84 871.427 1585.58 873.214L1587.47 879.828C1593.2 878.188 1600.76 877.284 1616.38 876.363 1625.95 875.82 1634.72 879.175 1641.11 881.633 1642.47 882.159 1643.69 882.616 1644.86 883.032L1644.86 883.736C1644.86 886.964 1647.49 889.594 1650.72 889.594L1663.25 889.594C1666.47 889.594 1669.1 886.974 1669.11 883.757L1670.33 883.647C1672.36 883.465 1674.24 883.283 1675.81 883.128L1676.53 883.056 1676.53 893.997ZM1558.68 899.731C1549.57 900.979 1542.38 899.865 1539.41 898.026 1541.21 896.751 1545.28 894.967 1548.15 893.715 1550.63 892.633 1553.15 891.488 1555.58 890.264 1559.54 893.286 1564.45 895.551 1569.89 896.902 1566.75 898.167 1562.85 899.164 1558.68 899.731ZM1651.73 882.719 1662.23 882.719 1662.23 878.023 1651.73 878.023 1651.73 882.719ZM1616.39 826.688C1645.15 826.688 1669.31 848.327 1672.87 876.504 1671.88 876.6 1670.83 876.7 1669.73 876.799L1669.1 876.854C1669.01 873.699 1666.43 871.148 1663.25 871.148L1660.81 871.148C1653.24 848.883 1631.33 833.535 1606.51 833.535 1597.32 833.535 1588.33 835.639 1580.25 839.637 1580.3 839.589 1580.35 839.537 1580.4 839.492 1590.51 831.235 1603.29 826.688 1616.39 826.688ZM1681.5 877.542C1681 877.092 1680.41 876.765 1679.79 876.518 1676.19 844.511 1648.92 819.813 1616.39 819.813 1601.71 819.813 1587.39 824.91 1576.06 834.164 1561.1 846.347 1552.52 864.397 1552.52 883.685 1552.52 883.826 1552.53 883.967 1552.53 884.108 1550.23 885.259 1547.81 886.359 1545.4 887.414 1538.06 890.625 1532.75 892.942 1531.96 897.129 1531.76 898.191 1531.73 900.271 1533.75 902.292 1537.32 905.857 1544.16 907.135 1551.11 907.135 1554 907.135 1556.91 906.915 1559.61 906.544 1564.21 905.919 1572.81 904.231 1578.64 899.961 1587.85 893.289 1608.66 890.794 1619.5 891.636 1625.96 892.134 1633.78 895.527 1640.07 898.253 1644.87 900.339 1648.67 901.983 1651.64 902.405 1655.74 902.966 1662.42 902.278 1669.5 901.553L1670.1 901.494C1671.95 901.295 1673.77 901.123 1675.57 900.975 1676.31 900.903 1677.04 900.852 1678.02 900.783 1681.04 900.57 1683.41 898.033 1683.41 895.008L1683.41 881.846C1683.41 880.203 1682.71 878.635 1681.5 877.542Z" fill="#FF5252" fill-rule="evenodd" fill-opacity="1"/></g></g></g><text fill="#C82028" fill-opacity="1" font-family="Calibri,Calibri_MSFontService,sans-serif" font-style="normal" font-variant="normal" font-weight="400" font-stretch="normal" font-size="73" text-anchor="start" direction="ltr" writing-mode="lr-tb" unicode-bidi="normal" text-decoration="none" transform="matrix(1 0 0 1 1722.67 409)">Task Execution Role</text><text fill="#000000" fill-opacity="1" font-family="Calibri,Calibri_MSFontService,sans-serif" font-style="normal" font-variant="normal" font-weight="400" font-stretch="normal" font-size="73" text-anchor="start" direction="ltr" writing-mode="lr-tb" unicode-bidi="normal" text-decoration="none" transform="matrix(1 0 0 1 1722.67 497)">Enable ECS to use other </text><text fill="#000000" fill-opacity="1" font-family="Calibri,Calibri_MSFontService,sans-serif" font-style="normal" font-variant="normal" font-weight="400" font-stretch="normal" font-size="73" text-anchor="start" direction="ltr" writing-mode="lr-tb" unicode-bidi="normal" text-decoration="none" transform="matrix(1 0 0 1 1722.67 585)">AWS services on your </text><text fill="#000000" fill-opacity="1" font-family="Calibri,Calibri_MSFontService,sans-serif" font-style="normal" font-variant="normal" font-weight="400" font-stretch="normal" font-size="73" text-anchor="start" direction="ltr" writing-mode="lr-tb" unicode-bidi="normal" text-decoration="none" transform="matrix(1 0 0 1 1722.67 673)">behalf</text><text fill="#C82028" fill-opacity="1" font-family="Calibri,Calibri_MSFontService,sans-serif" font-style="normal" font-variant="normal" font-weight="400" font-stretch="normal" font-size="73" text-anchor="start" direction="ltr" writing-mode="lr-tb" unicode-bidi="normal" text-decoration="none" transform="matrix(1 0 0 1 1722.67 893)">Task Role</text><text fill="#000000" fill-opacity="1" font-family="Calibri,Calibri_MSFontService,sans-serif" font-style="normal" font-variant="normal" font-weight="400" font-stretch="normal" font-size="73" text-anchor="start" direction="ltr" writing-mode="lr-tb" unicode-bidi="normal" text-decoration="none" transform="matrix(1 0 0 1 1722.67 981)">Enable your code to use </text><text fill="#000000" fill-opacity="1" font-family="Calibri,Calibri_MSFontService,sans-serif" font-style="normal" font-variant="normal" font-weight="400" font-stretch="normal" font-size="73" text-anchor="start" direction="ltr" writing-mode="lr-tb" unicode-bidi="normal" text-decoration="none" transform="matrix(1 0 0 1 1722.67 1069)">AWS services</text><path d="M1524.89 384.727 1146.92 384.179 1146.92 381.887 1524.89 382.435ZM1151.48 396.79 1124 383 1151.52 369.29Z" fill="#000000" fill-rule="nonzero" fill-opacity="1"/><path d="M1524.89 866.368 1146.91 865.216 1146.92 862.924 1524.89 864.076ZM1151.46 877.834 1124 864 1151.54 850.334Z" fill="#000000" fill-rule="nonzero" fill-opacity="1"/></g></g></svg>