<svg width="3754" height="1705" xmlns="http://www.w3.org/2000/svg" xmlns:xlink="http://www.w3.org/1999/xlink" xml:space="preserve" overflow="hidden"><defs><linearGradient x1="2334" y1="1322" x2="2532" y2="1124" gradientUnits="userSpaceOnUse" spreadMethod="pad" id="fill0"><stop offset="0" stop-color="#C8511B" stop-opacity="1"/><stop offset="1" stop-color="#FF9900" stop-opacity="1"/></linearGradient><linearGradient x1="1849" y1="946" x2="1949" y2="846" gradientUnits="userSpaceOnUse" spreadMethod="pad" id="fill1"><stop offset="0" stop-color="#C8511B" stop-opacity="1"/><stop offset="1" stop-color="#FF9900" stop-opacity="1"/></linearGradient><linearGradient x1="3139" y1="1683" x2="3337" y2="1485" gradientUnits="userSpaceOnUse" spreadMethod="pad" id="fill2"><stop offset="0" stop-color="#2E27AD" stop-opacity="1"/><stop offset="1" stop-color="#527FFF" stop-opacity="1"/></linearGradient><linearGradient x1="3800" y1="1276" x2="3998" y2="1078" gradientUnits="userSpaceOnUse" spreadMethod="pad" id="fill3"><stop offset="0" stop-color="#4D27A8" stop-opacity="1"/><stop offset="1" stop-color="#A166FF" stop-opacity="1"/></linearGradient><linearGradient x1="3746" y1="1696" x2="3944" y2="1498" gradientUnits="userSpaceOnUse" spreadMethod="pad" id="fill4"><stop offset="0" stop-color="#C8511B" stop-opacity="1"/><stop offset="1" stop-color="#FF9900" stop-opacity="1"/></linearGradient><linearGradient x1="3404" y1="1016" x2="3602" y2="818" gradientUnits="userSpaceOnUse" spreadMethod="pad" id="fill5"><stop offset="0" stop-color="#C8511B" stop-opacity="1"/><stop offset="1" stop-color="#FF9900" stop-opacity="1"/></linearGradient><linearGradient x1="2337" y1="1809" x2="2535" y2="1611" gradientUnits="userSpaceOnUse" spreadMethod="pad" id="fill6"><stop offset="0" stop-color="#C8511B" stop-opacity="1"/><stop offset="1" stop-color="#FF9900" stop-opacity="1"/></linearGradient><linearGradient x1="728" y1="1807" x2="926" y2="1609" gradientUnits="userSpaceOnUse" spreadMethod="pad" id="fill7"><stop offset="0" stop-color="#C8511B" stop-opacity="1"/><stop offset="1" stop-color="#FF9900" stop-opacity="1"/></linearGradient><linearGradient x1="738" y1="1314" x2="936" y2="1116" gradientUnits="userSpaceOnUse" spreadMethod="pad" id="fill8"><stop offset="0" stop-color="#C8511B" stop-opacity="1"/><stop offset="1" stop-color="#FF9900" stop-opacity="1"/></linearGradient><linearGradient x1="3000" y1="1279" x2="3200" y2="1079" gradientUnits="userSpaceOnUse" spreadMethod="pad" id="fill9"><stop offset="0" stop-color="#BD0816" stop-opacity="1"/><stop offset="1" stop-color="#FF5252" stop-opacity="1"/></linearGradient><linearGradient x1="2037" y1="558" x2="2235" y2="360" gradientUnits="userSpaceOnUse" spreadMethod="pad" id="fill10"><stop offset="0" stop-color="#4D27A8" stop-opacity="1"/><stop offset="1" stop-color="#A166FF" stop-opacity="1"/></linearGradient></defs><g transform="translate(-371 -357)"><g><rect x="1854.5" y="849.5" width="880" height="1116" stroke="#FF9900" stroke-width="4.58333" stroke-linecap="butt" stroke-linejoin="round" stroke-miterlimit="10" stroke-dasharray="18.3333 13.75" stroke-opacity="1" fill="none"/><rect x="1500.5" y="663.5" width="1420" height="1361" stroke="#6BAE3D" stroke-width="4.58333" stroke-linecap="butt" stroke-linejoin="round" stroke-miterlimit="10" stroke-opacity="1" fill="none"/><text fill="#000000" fill-opacity="1" font-family="Amazon Ember,Amazon Ember_MSFontService,sans-serif" font-style="normal" font-variant="normal" font-weight="400" font-stretch="normal" font-size="55" text-anchor="start" direction="ltr" writing-mode="lr-tb" unicode-bidi="normal" text-decoration="none" transform="matrix(1 0 0 1 1681.06 747)">Customer VPC</text><g><g><g><path d="M1497 664 1635 664 1635 802 1497 802Z" fill="#6CAE3E" fill-rule="evenodd" fill-opacity="1"/><path d="M1597.03 760.583 1536.63 760.517C1528.47 760.51 1521.68 754.145 1521.19 746.024 1521.16 745.599 1521.15 745.165 1521.15 744.72 1521.15 734.032 1528.36 730.54 1532.66 729.409 1533.49 729.191 1534.04 728.398 1533.94 727.546 1533.83 726.614 1533.77 725.669 1533.77 724.706 1533.77 716.205 1539.46 707.063 1546.73 703.892 1549.99 702.468 1553 701.902 1555.73 701.902 1563.5 701.902 1568.99 706.487 1571.39 708.964 1574.03 711.7 1576.1 715.191 1577.52 719.345 1577.73 719.956 1578.26 720.397 1578.9 720.49 1579.52 720.583 1580.18 720.314 1580.56 719.79 1582.58 716.958 1585.89 715.688 1588.97 716.575 1592.85 717.682 1595.38 721.708 1595.74 727.159 1595.59 728.087 1596.22 728.96 1597.14 729.126 1601.27 729.857 1610.85 732.852 1610.85 744.868 1610.85 759.182 1597.44 760.538 1597.03 760.583ZM1599.1 726.01C1598.36 719.431 1594.98 714.701 1589.92 713.259 1586.35 712.238 1582.6 713.145 1579.76 715.578 1578.26 712.079 1576.28 709.057 1573.87 706.566 1566.08 698.517 1555.42 696.333 1545.35 700.729 1536.78 704.469 1530.32 714.777 1530.32 724.706 1530.32 725.307 1530.34 725.903 1530.38 726.493 1525.7 728.077 1517.7 732.569 1517.7 744.72 1517.7 745.244 1517.71 745.751 1517.75 746.241 1518.35 756.17 1526.65 763.957 1536.63 763.967L1597.17 764.026C1597.34 764.012 1614.3 762.391 1614.3 744.868 1614.3 731.282 1603.96 727.183 1599.1 726.01ZM1555.65 750.233 1572.9 750.233 1572.9 736.433 1555.65 736.433 1555.65 750.233ZM1559.1 731.258C1559.1 728.405 1561.42 726.083 1564.27 726.083 1567.13 726.083 1569.45 728.405 1569.45 731.258L1569.45 732.983 1559.1 732.983 1559.1 731.258ZM1574.62 732.983 1572.9 732.983 1572.9 731.258C1572.9 726.504 1569.03 722.633 1564.27 722.633 1559.52 722.633 1555.65 726.504 1555.65 731.258L1555.65 732.983 1553.92 732.983C1552.97 732.983 1552.2 733.756 1552.2 734.708L1552.2 751.958C1552.2 752.91 1552.97 753.683 1553.92 753.683L1574.62 753.683C1575.58 753.683 1576.35 752.91 1576.35 751.958L1576.35 734.708C1576.35 733.756 1575.58 732.983 1574.62 732.983Z" fill="#232F3E" fill-rule="evenodd" fill-opacity="1"/></g></g></g><text fill="#000000" fill-opacity="1" font-family="Amazon Ember,Amazon Ember_MSFontService,sans-serif" font-style="normal" font-variant="normal" font-weight="400" font-stretch="normal" font-size="50" text-anchor="start" direction="ltr" writing-mode="lr-tb" unicode-bidi="normal" text-decoration="none" transform="matrix(1 0 0 1 1987.48 633)">CloudFront</text><text fill="#000000" fill-opacity="1" font-family="Amazon Ember,Amazon Ember_MSFontService,sans-serif" font-style="normal" font-variant="normal" font-weight="400" font-stretch="normal" font-size="55" text-anchor="start" direction="ltr" writing-mode="lr-tb" unicode-bidi="normal" text-decoration="none" transform="matrix(1 0 0 1 580.712 728)">App Runner Service VPC</text><g><g><g><path d="M0 0 144 0 144 144 0 144Z" stroke="#FFFFFF" stroke-width="3.59992" stroke-linecap="butt" stroke-linejoin="miter" stroke-miterlimit="4" stroke-opacity="1" fill="#BFBFBF" fill-rule="evenodd" fill-opacity="1" transform="matrix(1 0 0 1 377 665)"/><path d="M104.375 100.782 41.3531 100.713C32.8355 100.706 25.7543 94.0642 25.2431 85.5898 25.2143 85.147 25.1999 84.6934 25.1999 84.229 25.1999 73.0762 32.7275 69.433 37.2131 68.2522 38.0771 68.0254 38.6459 67.1974 38.5451 66.3083 38.4335 65.3363 38.3723 64.3499 38.3723 63.3455 38.3723 54.4751 44.3087 44.9351 51.8939 41.6267 55.2923 40.1399 58.4351 39.5495 61.2827 39.5495 69.3934 39.5495 75.121 44.3339 77.6194 46.9187 80.3842 49.7735 82.537 53.4167 84.0238 57.7511 84.2398 58.3883 84.7978 58.8491 85.4638 58.9463 86.1046 59.0435 86.7922 58.7627 87.1882 58.2155 89.305 55.2599 92.7574 53.9351 95.9722 54.8603 100.015 56.0159 102.657 60.2171 103.032 65.905 102.881 66.8735 103.532 67.7842 104.497 67.957 108.799 68.7202 118.8 71.845 118.8 84.3838 118.8 99.3202 104.81 100.735 104.375 100.782ZM106.538 64.7063C105.764 57.8411 102.24 52.9055 96.9622 51.4007 93.2362 50.3351 89.3194 51.2819 86.3602 53.8199 84.7906 50.1695 82.7242 47.0159 80.2078 44.4167 72.0826 36.0179 60.9587 33.7391 50.4503 38.3255 41.5115 42.2279 34.7723 52.9847 34.7723 63.3455 34.7723 63.9719 34.7939 64.5947 34.8335 65.2103 29.9483 66.8626 21.6 71.5498 21.6 84.229 21.6 84.7762 21.6144 85.3054 21.6504 85.8166 22.2768 96.1774 30.9347 104.303 41.3495 104.313L104.522 104.375C104.702 104.36 122.4 102.668 122.4 84.3838 122.4 70.207 111.611 65.9302 106.538 64.7063ZM61.1999 89.9818 79.1998 89.9818 79.1998 75.5818 61.1999 75.5818 61.1999 89.9818ZM64.7999 70.1818C64.7999 67.2046 67.2226 64.7819 70.1998 64.7819 73.177 64.7819 75.5998 67.2046 75.5998 70.1818L75.5998 71.9818 64.7999 71.9818 64.7999 70.1818ZM80.9998 71.9818 79.1998 71.9818 79.1998 70.1818C79.1998 65.2211 75.1642 61.1819 70.1998 61.1819 65.2355 61.1819 61.1999 65.2211 61.1999 70.1818L61.1999 71.9818 59.3999 71.9818C58.4027 71.9818 57.5999 72.7882 57.5999 73.7818L57.5999 91.7818C57.5999 92.7754 58.4027 93.5818 59.3999 93.5818L80.9998 93.5818C81.9934 93.5818 82.7998 92.7754 82.7998 91.7818L82.7998 73.7818C82.7998 72.7882 81.9934 71.9818 80.9998 71.9818Z" stroke="#FFFFFF" stroke-width="3.59992" stroke-linecap="butt" stroke-linejoin="miter" stroke-miterlimit="4" stroke-opacity="1" fill="#BFBFBF" fill-rule="evenodd" fill-opacity="1" transform="matrix(1 0 0 1 377 665)"/></g></g></g><rect x="376.5" y="666.5" width="976" height="1356" stroke="#A6A6A6" stroke-width="3.4375" stroke-linecap="butt" stroke-linejoin="round" stroke-miterlimit="10" stroke-opacity="1" fill="none"/><text fill="#000000" fill-opacity="1" font-family="Arial,Arial_MSFontService,sans-serif" font-style="normal" font-variant="normal" font-weight="400" font-stretch="normal" font-size="37" text-anchor="start" direction="ltr" writing-mode="lr-tb" unicode-bidi="normal" text-decoration="none" transform="matrix(1 0 0 1 1525.69 1594)">Application Load </text><text fill="#000000" fill-opacity="1" font-family="Arial,Arial_MSFontService,sans-serif" font-style="normal" font-variant="normal" font-weight="400" font-stretch="normal" font-size="37" text-anchor="start" direction="ltr" writing-mode="lr-tb" unicode-bidi="normal" text-decoration="none" transform="matrix(1 0 0 1 1589.55 1638)">Balancer</text><g><g><g><path d="M1702.81 1477.16 1710.87 1477.16 1710.87 1469 1702.81 1469 1702.81 1477.16ZM1678.96 1477.16 1687.12 1477.16 1687.12 1469 1678.96 1469 1678.96 1477.16ZM1651.89 1477.16 1660.05 1477.16 1660.05 1469 1651.89 1469 1651.89 1477.16ZM1628.13 1477.16 1635.99 1477.16 1635.99 1469 1628.13 1469 1628.13 1477.16ZM1648.88 1417.01 1690.13 1417.01 1690.13 1396.81 1648.88 1396.81 1648.88 1417.01ZM1714.31 1462.12 1709.03 1462.12 1709.03 1450.52C1709.03 1448.62 1707.49 1447.09 1705.6 1447.09L1697 1447.09 1697 1435.48C1697 1433.58 1695.46 1432.05 1693.57 1432.05L1672.94 1432.05 1672.94 1423.88 1693.57 1423.88C1695.46 1423.88 1697 1422.35 1697 1420.45L1697 1393.37C1697 1391.47 1695.46 1389.94 1693.57 1389.94L1645.44 1389.94C1643.54 1389.94 1642 1391.47 1642 1393.37L1642 1420.45C1642 1422.35 1643.54 1423.88 1645.44 1423.88L1666.07 1423.88 1666.07 1432.05 1645.44 1432.05C1643.54 1432.05 1642 1433.58 1642 1435.48L1642 1447.09 1633.41 1447.09C1631.51 1447.09 1629.97 1448.62 1629.97 1450.52L1629.97 1462.12 1624.69 1462.12C1622.79 1462.12 1621.25 1463.66 1621.25 1465.56L1621.25 1480.6C1621.25 1482.5 1622.79 1484.04 1624.69 1484.04L1639.43 1484.04C1641.32 1484.04 1642.86 1482.5 1642.86 1480.6L1642.86 1465.56C1642.86 1463.66 1641.32 1462.12 1639.43 1462.12L1636.85 1462.12 1636.85 1453.96 1651.03 1453.96 1651.03 1462.12 1648.45 1462.12C1646.55 1462.12 1645.01 1463.66 1645.01 1465.56L1645.01 1480.6C1645.01 1482.5 1646.55 1484.04 1648.45 1484.04L1663.49 1484.04C1665.39 1484.04 1666.93 1482.5 1666.93 1480.6L1666.93 1465.56C1666.93 1463.66 1665.39 1462.12 1663.49 1462.12L1657.9 1462.12 1657.9 1450.52C1657.9 1448.62 1656.36 1447.09 1654.46 1447.09L1648.88 1447.09 1648.88 1438.92 1690.13 1438.92 1690.13 1447.09 1684.54 1447.09C1682.64 1447.09 1681.11 1448.62 1681.11 1450.52L1681.11 1462.12 1675.52 1462.12C1673.62 1462.12 1672.08 1463.66 1672.08 1465.56L1672.08 1480.6C1672.08 1482.5 1673.62 1484.04 1675.52 1484.04L1690.56 1484.04C1692.46 1484.04 1694 1482.5 1694 1480.6L1694 1465.56C1694 1463.66 1692.46 1462.12 1690.56 1462.12L1687.98 1462.12 1687.98 1453.96 1702.16 1453.96 1702.16 1462.12 1699.37 1462.12C1697.47 1462.12 1695.93 1463.66 1695.93 1465.56L1695.93 1480.6C1695.93 1482.5 1697.47 1484.04 1699.37 1484.04L1714.31 1484.04C1716.21 1484.04 1717.75 1482.5 1717.75 1480.6L1717.75 1465.56C1717.75 1463.66 1716.21 1462.12 1714.31 1462.12ZM1669.5 1510.25C1631.59 1510.25 1600.75 1479.41 1600.75 1441.5 1600.75 1403.59 1631.59 1372.75 1669.5 1372.75 1707.41 1372.75 1738.25 1403.59 1738.25 1441.5 1738.25 1479.41 1707.41 1510.25 1669.5 1510.25ZM1669.5 1365.87C1627.8 1365.87 1593.88 1399.8 1593.88 1441.5 1593.88 1483.2 1627.8 1517.12 1669.5 1517.12 1711.2 1517.12 1745.13 1483.2 1745.13 1441.5 1745.13 1399.8 1711.2 1365.87 1669.5 1365.87Z" fill="#A166FF" fill-rule="evenodd" fill-opacity="1"/></g></g></g><rect x="2004" y="1004" width="637" height="412" fill="#C1F3FF" fill-opacity="0.14902"/><text fill="#000000" fill-opacity="1" font-family="Arial,Arial_MSFontService,sans-serif" font-style="normal" font-variant="normal" font-weight="400" font-stretch="normal" font-size="48" text-anchor="start" direction="ltr" writing-mode="lr-tb" unicode-bidi="normal" text-decoration="none" transform="matrix(1 0 0 1 2126.18 1067)">Private subnet</text><g><g><g><path d="M2004 1004 2090 1004 2090 1090 2004 1090Z" fill="#19A2C7" fill-rule="nonzero" fill-opacity="1"/><path d="M2047.02 1047.81C2043.79 1047.79 2041.16 1050.39 2041.14 1053.62 2041.12 1056.41 2043.07 1058.82 2045.8 1059.38L2045.8 1067.47 2048.25 1067.47 2048.25 1059.38C2051.42 1058.73 2053.44 1055.63 2052.79 1052.47 2052.22 1049.74 2049.81 1047.79 2047.02 1047.81ZM2047.02 1057.05C2045.15 1057.05 2043.63 1055.53 2043.63 1053.66 2043.63 1051.79 2045.15 1050.27 2047.02 1050.27 2048.9 1050.27 2050.42 1051.79 2050.42 1053.66 2050.42 1055.53 2048.9 1057.05 2047.02 1057.05Z" fill="#232F3E" fill-rule="nonzero" fill-opacity="1"/><path d="M2059.83 1039.14 2059.83 1032.58C2059.83 1025.49 2054.08 1019.75 2047 1019.75 2039.92 1019.75 2034.17 1025.49 2034.17 1032.58L2034.17 1039.14 2026.46 1039.14 2026.46 1074.25 2067.54 1074.25 2067.54 1039.14ZM2036.63 1032.58C2036.63 1026.85 2041.27 1022.21 2047 1022.21 2052.73 1022.21 2057.37 1026.85 2057.37 1032.58L2057.37 1039.14 2036.63 1039.14ZM2065.08 1071.89 2028.92 1071.89 2028.92 1041.59 2065.08 1041.59Z" fill="#232F3E" fill-rule="nonzero" fill-opacity="1"/></g></g></g><rect x="2004" y="1490" width="637" height="413" fill="#C1F3FF" fill-opacity="0.14902"/><text fill="#000000" fill-opacity="1" font-family="Arial,Arial_MSFontService,sans-serif" font-style="normal" font-variant="normal" font-weight="400" font-stretch="normal" font-size="48" text-anchor="start" direction="ltr" writing-mode="lr-tb" unicode-bidi="normal" text-decoration="none" transform="matrix(1 0 0 1 2126.18 1554)">Private subnet</text><g><g><g><path d="M2004 1490 2090 1490 2090 1576 2004 1576Z" fill="#19A2C7" fill-rule="nonzero" fill-opacity="1"/><path d="M2047.02 1533.81C2043.79 1533.79 2041.16 1536.39 2041.14 1539.62 2041.12 1542.41 2043.07 1544.82 2045.8 1545.38L2045.8 1553.47 2048.25 1553.47 2048.25 1545.38C2051.42 1544.73 2053.44 1541.63 2052.79 1538.47 2052.22 1535.74 2049.81 1533.79 2047.02 1533.81ZM2047.02 1543.05C2045.15 1543.05 2043.63 1541.53 2043.63 1539.66 2043.63 1537.79 2045.15 1536.27 2047.02 1536.27 2048.9 1536.27 2050.42 1537.79 2050.42 1539.66 2050.42 1541.53 2048.9 1543.05 2047.02 1543.05Z" fill="#232F3E" fill-rule="nonzero" fill-opacity="1"/><path d="M2059.83 1525.14 2059.83 1518.58C2059.83 1511.49 2054.08 1505.75 2047 1505.75 2039.92 1505.75 2034.17 1511.49 2034.17 1518.58L2034.17 1525.14 2026.46 1525.14 2026.46 1560.25 2067.54 1560.25 2067.54 1525.14ZM2036.63 1518.58C2036.63 1512.85 2041.27 1508.21 2047 1508.21 2052.73 1508.21 2057.37 1512.85 2057.37 1518.58L2057.37 1525.14 2036.63 1525.14ZM2065.08 1557.89 2028.92 1557.89 2028.92 1527.59 2065.08 1527.59Z" fill="#232F3E" fill-rule="nonzero" fill-opacity="1"/></g></g></g><g><g><g><path d="M2334 1124 2532 1124 2532 1322 2334 1322Z" fill="url(#fill0)" fill-rule="evenodd"/><path d="M2462.7 1263.89 2462.7 1251.9 2470.12 1248.93 2470.12 1260.92 2462.7 1263.89ZM2450.32 1248.93 2457.75 1251.9 2457.75 1263.89 2450.32 1260.92 2450.32 1248.93ZM2435.48 1281.22 2435.48 1269.23 2442.9 1266.26 2442.9 1278.25 2435.48 1281.22ZM2423.1 1266.26 2430.52 1269.23 2430.52 1281.22 2423.1 1278.25 2423.1 1266.26ZM2408.25 1263.89 2408.25 1251.9 2415.68 1248.93 2415.68 1260.92 2408.25 1263.89ZM2395.88 1248.93 2403.3 1251.9 2403.3 1263.89 2395.88 1260.92 2395.88 1248.93ZM2405.77 1242.99 2411.49 1245.28 2405.77 1247.56 2400.06 1245.28 2405.77 1242.99ZM2433 1260.32 2438.71 1262.6 2433 1264.88 2427.29 1262.6 2433 1260.32ZM2460.23 1242.99 2465.94 1245.28 2460.23 1247.56 2454.51 1245.28 2460.23 1242.99ZM2473.52 1242.98 2461.14 1238.03C2460.55 1237.79 2459.9 1237.79 2459.31 1238.03L2446.93 1242.98C2445.99 1243.35 2445.38 1244.26 2445.38 1245.28L2445.38 1259.93 2433.92 1255.35C2433.33 1255.12 2432.67 1255.12 2432.08 1255.35L2420.62 1259.93 2420.62 1245.28C2420.62 1244.26 2420.01 1243.35 2419.07 1242.98L2406.69 1238.03C2406.1 1237.79 2405.45 1237.79 2404.86 1238.03L2392.48 1242.98C2391.54 1243.35 2390.93 1244.26 2390.93 1245.28L2390.93 1262.6C2390.93 1263.61 2391.54 1264.52 2392.48 1264.9L2404.86 1269.85C2405.15 1269.97 2405.46 1270.03 2405.77 1270.03 2406.09 1270.03 2406.4 1269.97 2406.69 1269.85L2418.15 1265.27 2418.15 1279.93C2418.15 1280.94 2418.77 1281.85 2419.71 1282.22L2432.08 1287.17C2432.38 1287.29 2432.69 1287.35 2433 1287.35 2433.31 1287.35 2433.62 1287.29 2433.92 1287.17L2446.29 1282.22C2447.23 1281.85 2447.85 1280.94 2447.85 1279.93L2447.85 1265.27 2459.31 1269.85C2459.6 1269.97 2459.91 1270.03 2460.23 1270.03 2460.54 1270.03 2460.85 1269.97 2461.14 1269.85L2473.52 1264.9C2474.46 1264.52 2475.07 1263.61 2475.07 1262.6L2475.07 1245.28C2475.07 1244.26 2474.46 1243.35 2473.52 1242.98ZM2494.88 1212.95C2494.88 1227.41 2462.99 1235.22 2433 1235.22 2403.01 1235.22 2371.12 1227.41 2371.12 1212.95 2371.12 1206.04 2378.79 1199.96 2392.69 1195.82L2394.11 1200.57C2382.98 1203.87 2376.07 1208.62 2376.07 1212.95 2376.07 1221.14 2399.45 1230.27 2433 1230.27 2466.55 1230.27 2489.93 1221.14 2489.93 1212.95 2489.93 1208.62 2483.02 1203.87 2471.89 1200.57L2473.31 1195.82C2487.21 1199.96 2494.88 1206.04 2494.88 1212.95ZM2433 1166.25 2458.28 1175.98 2433 1185.7 2407.72 1175.98 2433 1166.25ZM2459.19 1215.18C2454.52 1217.27 2446.68 1219.71 2435.48 1220.03L2435.48 1190.05 2462.7 1179.58 2462.7 1209.75C2462.7 1212.11 2461.32 1214.24 2459.19 1215.18ZM2403.3 1209.75 2403.3 1179.58 2430.52 1190.05 2430.52 1220.03C2419.32 1219.71 2411.48 1217.27 2406.8 1215.18 2404.68 1214.24 2403.3 1212.11 2403.3 1209.75ZM2404.79 1219.7C2410.24 1222.14 2419.56 1225.05 2433 1225.05 2446.44 1225.05 2455.76 1222.14 2461.2 1219.71 2465.12 1217.97 2467.65 1214.07 2467.65 1209.75L2467.65 1175.98C2467.65 1174.95 2467.02 1174.03 2466.06 1173.66L2433.89 1161.29C2433.31 1161.07 2432.69 1161.07 2432.11 1161.29L2399.94 1173.66C2398.98 1174.03 2398.35 1174.95 2398.35 1175.98L2398.35 1209.75C2398.35 1214.07 2400.88 1217.97 2404.79 1219.7Z" fill="#FFFFFF" fill-rule="evenodd" fill-opacity="1"/></g></g></g><path d="M0-2.29167 157.86-2.29167C159.126-2.29167 160.152-1.26565 160.152 0L160.152 231.969 157.86 229.677 228.802 229.677 228.802 234.261 157.86 234.261C156.595 234.261 155.569 233.235 155.569 231.969L155.569 0 157.86 2.29167 0 2.29167ZM224.218 218.219 251.718 231.969 224.218 245.719Z" fill="#7B95B4" fill-rule="nonzero" fill-opacity="1" transform="matrix(1 0 0 -1 1752.5 1442.47)"/><path d="M1752.5 1440.21 1910.36 1440.21C1911.63 1440.21 1912.65 1441.23 1912.65 1442.5L1912.65 1696.85 1910.36 1694.56 1981.3 1694.56 1981.3 1699.14 1910.36 1699.14C1909.09 1699.14 1908.07 1698.11 1908.07 1696.85L1908.07 1442.5 1910.36 1444.79 1752.5 1444.79ZM1976.72 1683.1 2004.22 1696.85 1976.72 1710.6Z" fill="#7B95B4" fill-rule="nonzero" fill-opacity="1"/><g><g><g><path d="M1849 846 1949 846 1949 946 1849 946Z" fill="url(#fill1)" fill-rule="evenodd"/><path d="M1929 906.293 1919 900.291 1919 886C1919 885.555 1918.77 885.144 1918.38 884.92L1904 876.533 1904 864.44 1929 879.214 1929 906.293ZM1930.89 877.424 1903.39 861.174C1903 860.945 1902.52 860.943 1902.13 861.164 1901.74 861.386 1901.5 861.801 1901.5 862.25L1901.5 877.25C1901.5 877.694 1901.74 878.105 1902.12 878.33L1916.5 886.718 1916.5 901C1916.5 901.439 1916.73 901.846 1917.11 902.071L1929.61 909.571C1929.81 909.69 1930.03 909.75 1930.25 909.75 1930.46 909.75 1930.68 909.696 1930.87 909.588 1931.26 909.366 1931.5 908.95 1931.5 908.5L1931.5 878.5C1931.5 878.058 1931.27 877.649 1930.89 877.424ZM1899.56 929.579 1870.25 913.999 1870.25 879.214 1895.25 864.44 1895.25 876.564 1882.08 884.945C1881.72 885.175 1881.5 885.573 1881.5 886L1881.5 907.25C1881.5 907.716 1881.76 908.144 1882.17 908.359L1898.99 917.109C1899.35 917.296 1899.78 917.298 1900.14 917.11L1916.46 908.68 1926.49 914.705 1899.56 929.579ZM1929.64 913.678 1917.14 906.178C1916.77 905.955 1916.31 905.94 1915.93 906.14L1899.57 914.591 1884 906.491 1884 886.686 1897.17 878.305C1897.53 878.075 1897.75 877.678 1897.75 877.25L1897.75 862.25C1897.75 861.801 1897.51 861.386 1897.12 861.164 1896.73 860.943 1896.25 860.945 1895.86 861.174L1868.36 877.424C1867.98 877.649 1867.75 878.058 1867.75 878.5L1867.75 914.75C1867.75 915.211 1868.01 915.636 1868.41 915.854L1898.98 932.104C1899.16 932.201 1899.36 932.25 1899.57 932.25 1899.78 932.25 1899.98 932.198 1900.17 932.094L1929.6 915.844C1930 915.628 1930.24 915.219 1930.25 914.773 1930.26 914.325 1930.03 913.908 1929.64 913.678Z" fill="#FFFFFF" fill-rule="evenodd" fill-opacity="1"/></g></g></g><text fill="#000000" fill-opacity="1" font-family="Arial,Arial_MSFontService,sans-serif" font-style="normal" font-variant="normal" font-weight="400" font-stretch="normal" font-size="46" text-anchor="start" direction="ltr" writing-mode="lr-tb" unicode-bidi="normal" text-decoration="none" transform="matrix(1 0 0 1 1982.46 920)">Amazon ECS</text><g><g><g><path d="M86.4554 133.985 133.384 133.985 133.384 87.0558 86.4554 87.0558 86.4554 133.985ZM81.2946 142.148 81.2946 150.595 90.4613 150.595 90.4613 143.156 97.3225 143.156 97.3225 150.595 106.489 150.595 106.489 143.156 113.35 143.156 113.35 150.595 122.517 150.595 122.517 143.156 129.378 143.156 129.378 150.595 138.545 150.595 138.545 142.148C139.801 141.446 140.837 140.41 141.543 139.15L149.99 139.15 149.99 129.983 142.551 129.983 142.551 123.122 149.99 123.122 149.99 113.955 142.551 113.955 142.551 107.09 149.99 107.09 149.99 97.9229 142.551 97.9229 142.551 91.0617 149.99 91.0617 149.99 81.895 141.543 81.895C140.841 80.6392 139.801 79.5988 138.545 78.8975L138.545 70.4504 129.378 70.4504 129.378 77.8892 122.517 77.8892 122.517 70.4504 113.35 70.4504 113.35 77.8892 106.489 77.8892 106.489 70.4504 97.3225 70.4504 97.3225 77.8892 90.4613 77.8892 90.4613 70.4504 81.2946 70.4504 81.2946 78.8975C80.0296 79.5988 78.9983 80.6392 78.2925 81.895L69.85 81.895 69.85 91.0617 77.2888 91.0617 77.2888 97.9229 69.85 97.9229 69.85 107.09 77.2888 107.09 77.2888 113.955 69.85 113.955 69.85 123.122 77.2888 123.122 77.2888 129.983 69.85 129.983 69.85 139.15 78.2925 139.15C78.9983 140.41 80.0296 141.446 81.2946 142.148ZM181.468 154.6 190.635 154.6 190.635 66.4492 181.468 66.4492 181.468 154.6ZM157.424 154.6 166.59 154.6 166.59 66.4492 157.424 66.4492 157.424 154.6ZM53.24 154.6 62.4067 154.6 62.4067 66.4492 53.24 66.4492 53.24 154.6ZM29.2004 154.6 38.3671 154.6 38.3671 66.4492 29.2004 66.4492 29.2004 154.6ZM18.3333 166.045 201.502 166.045 201.502 55 18.3333 55 18.3333 166.045ZM206.085 45.8333 13.75 45.8333C11.22 45.8333 9.16667 47.8821 9.16667 50.4167L9.16667 170.628C9.16667 173.158 11.22 175.212 13.75 175.212L206.085 175.212C208.62 175.212 210.668 173.158 210.668 170.628L210.668 50.4167C210.668 47.8821 208.62 45.8333 206.085 45.8333Z" fill="#FF9900" fill-rule="evenodd" fill-opacity="1" transform="matrix(1 0 0 1.00455 2041 1103)"/></g></g></g><g><g><g><path d="M74.0045 135.675C39.9985 135.675 12.3318 108.009 12.3318 74.0027 12.3318 39.9997 39.9985 12.333 74.0045 12.333 108.007 12.333 135.674 39.9997 135.674 74.0027 135.674 108.009 108.007 135.675 74.0045 135.675L74.0045 135.675ZM74.0045 6.16635C36.5976 6.16635 6.16512 36.5957 6.16512 74.0027 6.16512 111.41 36.5976 141.842 74.0045 141.842 111.411 141.842 141.841 111.41 141.841 74.0027 141.841 36.5957 111.411 6.16635 74.0045 6.16635ZM89.674 71.8228C90.8796 73.0283 90.8796 74.977 89.674 76.1826L80.5998 85.2661 76.2399 80.9062 80.0571 77.086 57.814 77.086 57.814 70.9193 80.0571 70.9193 76.2399 67.0991 80.5998 62.7393 89.674 71.8228ZM98.6712 108.693 108.692 108.693 108.692 98.6724 98.6712 98.6724 98.6712 108.693ZM111.775 92.5057 95.5878 92.5057C93.8828 92.5057 92.5045 93.884 92.5045 95.5891L92.5045 111.777C92.5045 113.482 93.8828 114.86 95.5878 114.86L111.775 114.86C113.48 114.86 114.859 113.482 114.859 111.777L114.859 95.5891C114.859 93.884 113.48 92.5057 111.775 92.5057ZM54.4716 57.7844 76.9645 45.9135 72.1329 44.6031 73.7455 38.6523 86.1374 42.0101C87.7808 42.4571 88.749 44.1468 88.305 45.7933L84.9473 58.1914 78.9964 56.5788 80.5011 51.0195 57.3515 63.2419 54.4716 57.7844ZM98.6712 49.336 108.692 49.336 108.692 39.3152 98.6712 39.3152 98.6712 49.336ZM111.775 33.1486 95.5878 33.1486C93.8828 33.1486 92.5045 34.5268 92.5045 36.2319L92.5045 52.4194C92.5045 54.1245 93.8828 55.5027 95.5878 55.5027L111.775 55.5027C113.48 55.5027 114.859 54.1245 114.859 52.4194L114.859 36.2319C114.859 34.5268 113.48 33.1486 111.775 33.1486ZM25.7319 84.3195 46.3594 84.3195 46.3594 63.692 25.7319 63.692 25.7319 84.3195ZM49.4427 57.5223 22.6486 57.5223C20.9435 57.5223 19.5653 58.9036 19.5653 60.6056L19.5653 87.4028C19.5653 89.1048 20.9435 90.4862 22.6486 90.4862L49.4427 90.4862C51.1478 90.4862 52.5261 89.1048 52.5261 87.4028L52.5261 60.6056C52.5261 58.9036 51.1478 57.5223 49.4427 57.5223ZM88.305 102.212C88.749 103.859 87.7808 105.548 86.1374 105.995L73.7455 109.356 72.1329 103.405 76.9676 102.095 54.4716 90.2241 57.3515 84.7666 80.5011 96.9858 78.9964 91.4266 84.9473 89.814 88.305 102.212ZM98.6712 79.0131 108.692 79.0131 108.692 68.9923 98.6712 68.9923 98.6712 79.0131ZM111.775 62.8256 95.5878 62.8256C93.8828 62.8256 92.5045 64.2039 92.5045 65.9089L92.5045 82.0964C92.5045 83.8015 93.8828 85.1797 95.5878 85.1797L111.775 85.1797C113.48 85.1797 114.859 83.8015 114.859 82.0964L114.859 65.9089C114.859 64.2039 113.48 62.8256 111.775 62.8256Z" fill="#A166FF" fill-rule="evenodd" fill-opacity="1" transform="matrix(1 0 0 1 1140 1368)"/></g></g></g><path d="M0-2.29167 614.838-2.29167C616.103-2.29167 617.129-1.26565 617.129 0L617.129 983.174C617.129 984.44 616.103 985.466 614.838 985.466L472.478 985.466 472.478 980.883 614.838 980.883 612.546 983.174 612.546 0 614.838 2.29167 0 2.29167ZM477.061 996.924 449.561 983.174 477.061 969.424Z" fill="#7B95B4" fill-rule="nonzero" fill-opacity="1" transform="matrix(-1 1.22465e-16 1.22465e-16 1 2037.06 459.5)"/><path d="M1140.37 1444.43 1096.44 1444.43C1095.17 1444.43 1094.15 1443.41 1094.15 1442.14L1094.15 1207.5 1096.44 1209.79 1075.42 1209.79 1075.42 1205.21 1096.44 1205.21C1097.7 1205.21 1098.73 1206.23 1098.73 1207.5L1098.73 1442.14 1096.44 1439.85 1140.37 1439.85ZM1080 1221.25 1052.5 1207.5 1080 1193.75Z" fill="#7B95B4" fill-rule="nonzero" fill-opacity="1"/><path d="M0-2.29167 43.1512-2.29167C44.4168-2.29167 45.4428-1.26565 45.4428 0L45.4428 251.674 43.1512 249.382 63.3857 249.382 63.3857 253.965 43.1512 253.965C41.8855 253.965 40.8595 252.939 40.8595 251.674L40.8595 0 43.1512 2.29167 0 2.29167ZM58.8024 237.924 86.3024 251.674 58.8024 265.424Z" fill="#7B95B4" fill-rule="nonzero" fill-opacity="1" transform="matrix(-1 1.22465e-16 1.22465e-16 1 1140.8 1442.5)"/><rect x="415" y="1001" width="637" height="413" fill="#C1F3FF" fill-opacity="0.14902"/><text fill="#000000" fill-opacity="1" font-family="Arial,Arial_MSFontService,sans-serif" font-style="normal" font-variant="normal" font-weight="400" font-stretch="normal" font-size="48" text-anchor="start" direction="ltr" writing-mode="lr-tb" unicode-bidi="normal" text-decoration="none" transform="matrix(1 0 0 1 537.468 1065)">Private subnet</text><g><g><g><path d="M415 1001 502 1001 502 1088 415 1088Z" fill="#19A2C7" fill-rule="nonzero" fill-opacity="1"/><path d="M458.525 1045.32C455.258 1045.3 452.592 1047.93 452.572 1051.2 452.554 1054.02 454.524 1056.45 457.282 1057.03L457.282 1065.21 459.768 1065.21 459.768 1057.03C462.966 1056.36 465.02 1053.23 464.354 1050.03 463.78 1047.27 461.341 1045.3 458.525 1045.32ZM458.525 1054.67C456.63 1054.67 455.094 1053.13 455.094 1051.24 455.094 1049.34 456.63 1047.81 458.525 1047.81 460.419 1047.81 461.955 1049.34 461.955 1051.24 461.955 1053.13 460.419 1054.67 458.525 1054.67Z" fill="#232F3E" fill-rule="nonzero" fill-opacity="1"/><path d="M471.475 1036.55 471.475 1029.91C471.475 1022.74 465.666 1016.93 458.5 1016.93 451.334 1016.93 445.524 1022.74 445.524 1029.91L445.524 1036.55 437.719 1036.55 437.719 1072.07 479.28 1072.07 479.28 1036.55ZM448.01 1029.91C448.01 1024.12 452.707 1019.42 458.5 1019.42 464.293 1019.42 468.99 1024.12 468.99 1029.91L468.99 1036.55 448.01 1036.55ZM476.795 1069.68 440.205 1069.68 440.205 1039.03 476.795 1039.03Z" fill="#232F3E" fill-rule="nonzero" fill-opacity="1"/></g></g></g><rect x="417" y="1488" width="637" height="412" fill="#C1F3FF" fill-opacity="0.14902"/><text fill="#000000" fill-opacity="1" font-family="Arial,Arial_MSFontService,sans-serif" font-style="normal" font-variant="normal" font-weight="400" font-stretch="normal" font-size="48" text-anchor="start" direction="ltr" writing-mode="lr-tb" unicode-bidi="normal" text-decoration="none" transform="matrix(1 0 0 1 539.039 1551)">Private subnet</text><g><g><g><path d="M0 0 85.9999 0 85.9999 85.9999 0 85.9999Z" fill="#19A2C7" fill-rule="nonzero" fill-opacity="1" transform="matrix(1.01163 0 0 1 415 1488)"/><path d="M43.0245 43.8108C39.7948 43.7905 37.1602 46.3923 37.1399 49.622 37.1225 52.4061 39.0702 54.8165 41.796 55.384L41.796 63.4679 44.2531 63.4679 44.2531 55.384C47.4151 54.7257 49.4447 51.6288 48.7865 48.4668 48.2191 45.7411 45.8087 43.7933 43.0245 43.8108ZM43.0245 53.0497C41.1518 53.0497 39.6337 51.5315 39.6337 49.6588 39.6337 47.7861 41.1518 46.268 43.0245 46.268 44.8973 46.268 46.4154 47.7861 46.4154 49.6588 46.4154 51.5315 44.8973 53.0497 43.0245 53.0497Z" fill="#232F3E" fill-rule="nonzero" fill-opacity="1" transform="matrix(1.01163 0 0 1 415 1488)"/><path d="M55.8262 35.1371 55.8262 28.5765C55.8262 21.4928 50.0837 15.7503 43 15.7503 35.9162 15.7503 30.1737 21.4928 30.1737 28.5765L30.1737 35.1371 22.4583 35.1371 22.4583 70.2497 63.5417 70.2497 63.5417 35.1371ZM32.6308 28.5765C32.6308 22.8498 37.2733 18.2074 43 18.2074 48.7267 18.2074 53.3691 22.8498 53.3691 28.5765L53.3691 35.1371 32.6308 35.1371ZM61.0845 67.8908 24.9154 67.8908 24.9154 37.5943 61.0845 37.5943Z" fill="#232F3E" fill-rule="nonzero" fill-opacity="1" transform="matrix(1.01163 0 0 1 415 1488)"/></g></g></g><g><g><g><path d="M3139 1485 3337 1485 3337 1683 3139 1683Z" fill="url(#fill2)" fill-rule="evenodd"/><path d="M3267.91 1620.75C3259.65 1627.43 3242.32 1630.96 3225.73 1630.96 3209.15 1630.96 3191.81 1627.43 3183.55 1620.75L3183.55 1634.2 3183.55 1634.2C3183.55 1640.91 3200.88 1648.39 3225.73 1648.39 3250.57 1648.39 3267.89 1640.92 3267.91 1634.22L3267.91 1620.75ZM3267.92 1595.19 3272.87 1595.17 3272.87 1595.19C3272.87 1598.18 3271.37 1600.97 3268.45 1603.53 3271.99 1606.64 3272.87 1609.69 3272.87 1611.86 3272.87 1611.88 3272.86 1611.89 3272.86 1611.9L3272.86 1634.2 3272.87 1634.2C3272.87 1646.61 3248.58 1653.3 3225.73 1653.3 3202.94 1653.3 3178.72 1646.64 3178.61 1634.29 3178.61 1634.28 3178.6 1634.27 3178.6 1634.25L3178.6 1611.86C3178.6 1611.85 3178.61 1611.84 3178.61 1611.84 3178.61 1609.66 3179.49 1606.62 3183.02 1603.52 3179.52 1600.42 3178.62 1597.4 3178.6 1595.25L3178.61 1595.25C3178.61 1595.24 3178.6 1595.23 3178.6 1595.22L3178.6 1572.82C3178.6 1572.81 3178.61 1572.81 3178.61 1572.8 3178.61 1570.63 3179.5 1567.59 3183.03 1564.49 3179.52 1561.39 3178.62 1558.37 3178.6 1556.21L3178.61 1556.21C3178.61 1556.2 3178.6 1556.19 3178.6 1556.18L3178.6 1533.79C3178.6 1533.78 3178.61 1533.77 3178.61 1533.77 3178.65 1521.38 3202.9 1514.7 3225.73 1514.7 3238.63 1514.7 3251.02 1516.75 3259.73 1520.32L3257.83 1524.86C3249.71 1521.52 3238.01 1519.61 3225.73 1519.61 3200.88 1519.61 3183.55 1527.09 3183.55 1533.8 3183.55 1540.51 3200.88 1547.99 3225.73 1547.99 3226.4 1548 3227.06 1547.99 3227.72 1547.96L3227.93 1552.87C3227.2 1552.9 3226.47 1552.9 3225.73 1552.9 3209.15 1552.9 3191.81 1549.37 3183.55 1542.69L3183.55 1556.13 3183.55 1556.13 3183.55 1556.19C3183.58 1558.76 3186.22 1561.01 3188.43 1562.44 3195.09 1566.69 3207.02 1569.58 3220.32 1570.19L3220.1 1575.09C3206.62 1574.48 3194.82 1571.68 3187.22 1567.4 3185.35 1568.8 3183.55 1570.69 3183.55 1572.83 3183.55 1579.55 3200.88 1587.02 3225.73 1587.02 3228.17 1587.02 3230.59 1586.94 3232.93 1586.78L3233.28 1591.68C3230.83 1591.85 3228.29 1591.93 3225.73 1591.93 3209.15 1591.93 3191.81 1588.4 3183.55 1581.72L3183.55 1595.17 3183.55 1595.17C3183.58 1597.8 3186.22 1600.04 3188.43 1601.47 3196.04 1606.33 3210.34 1609.36 3225.73 1609.36L3226.82 1609.36 3226.82 1614.27 3225.73 1614.27C3210.09 1614.27 3195.88 1611.36 3187.19 1606.46 3185.33 1607.85 3183.55 1609.73 3183.55 1611.86 3183.55 1618.57 3200.88 1626.05 3225.73 1626.05 3250.57 1626.05 3267.89 1618.59 3267.91 1611.88L3267.91 1611.86 3267.91 1611.85C3267.91 1609.72 3266.13 1607.84 3264.26 1606.44 3263.05 1607.13 3261.76 1607.79 3260.28 1608.39L3258.39 1603.86C3260.19 1603.12 3261.75 1602.32 3263.02 1601.48 3265.26 1600.02 3267.92 1597.75 3267.92 1595.19ZM3289.12 1559.29 3275.25 1559.29C3274.43 1559.29 3273.66 1558.89 3273.2 1558.22 3272.74 1557.54 3272.64 1556.69 3272.94 1555.93L3281.38 1534.84 3249.43 1534.84 3234.58 1564.3 3250.38 1564.3C3251.17 1564.3 3251.91 1564.67 3252.38 1565.31 3252.84 1565.94 3252.98 1566.75 3252.74 1567.5L3238.64 1611.45 3289.12 1559.29ZM3296.71 1558.54 3234.84 1622.46C3234.36 1622.96 3233.71 1623.21 3233.05 1623.21 3232.62 1623.21 3232.18 1623.1 3231.79 1622.87 3230.8 1622.29 3230.34 1621.11 3230.69 1620.02L3246.99 1569.21 3230.58 1569.21C3229.72 1569.21 3228.92 1568.77 3228.47 1568.05 3228.02 1567.32 3227.98 1566.42 3228.36 1565.66L3245.69 1531.29C3246.11 1530.46 3246.96 1529.93 3247.9 1529.93L3285.03 1529.93C3285.85 1529.93 3286.62 1530.34 3287.07 1531.01 3287.54 1531.68 3287.63 1532.54 3287.33 1533.29L3278.89 1554.38 3294.93 1554.38C3295.92 1554.38 3296.81 1554.97 3297.2 1555.87 3297.59 1556.78 3297.4 1557.83 3296.71 1558.54ZM3187.15 1635.17C3190.66 1637.15 3195.07 1638.81 3200.27 1640.1L3201.48 1635.34C3196.78 1634.17 3192.67 1632.63 3189.6 1630.9L3187.15 1635.17ZM3200.27 1600.83 3201.48 1596.07C3196.78 1594.89 3192.67 1593.36 3189.6 1591.62L3187.15 1595.89C3190.66 1597.87 3195.07 1599.53 3200.27 1600.83ZM3187.15 1556.62 3189.6 1552.35C3192.67 1554.08 3196.78 1555.61 3201.48 1556.79L3200.27 1561.55C3195.07 1560.25 3190.65 1558.59 3187.15 1556.62Z" fill="#FFFFFF" fill-rule="evenodd" fill-opacity="1"/></g></g></g><text fill="#000000" fill-opacity="1" font-family="Arial,Arial_MSFontService,sans-serif" font-style="normal" font-variant="normal" font-weight="400" font-stretch="normal" font-size="46" text-anchor="start" direction="ltr" writing-mode="lr-tb" unicode-bidi="normal" text-decoration="none" transform="matrix(1 0 0 1 3030.54 1746)">Amazon DynamoDB</text><g><g><g><path d="M3800 1078 3998 1078 3998 1276 3800 1276Z" fill="url(#fill3)" fill-rule="evenodd"/><path d="M3909.54 1205.04C3898.61 1205.04 3889.72 1196.15 3889.72 1185.22 3889.72 1174.29 3898.61 1165.39 3909.54 1165.39 3920.48 1165.39 3929.37 1174.29 3929.37 1185.22 3929.37 1196.15 3920.48 1205.04 3909.54 1205.04L3909.54 1205.04ZM3909.54 1160.44C3895.88 1160.44 3884.77 1171.56 3884.77 1185.22 3884.77 1198.88 3895.88 1209.99 3909.54 1209.99 3923.21 1209.99 3934.32 1198.88 3934.32 1185.22 3934.32 1171.56 3923.21 1160.44 3909.54 1160.44ZM3959.76 1229.83C3958.15 1231.62 3955.37 1231.76 3953.58 1230.16L3932.94 1211.54C3935.12 1209.6 3937.08 1207.42 3938.72 1205L3959.43 1223.66C3961.22 1225.27 3961.36 1228.04 3959.76 1229.83ZM3879.23 1185.22C3879.23 1168.5 3892.83 1154.9 3909.54 1154.9 3926.26 1154.9 3939.86 1168.5 3939.86 1185.22 3939.86 1201.94 3926.26 1215.54 3909.54 1215.54 3892.83 1215.54 3879.23 1201.94 3879.23 1185.22ZM3941.23 1200.6C3943.5 1195.94 3944.81 1190.74 3944.81 1185.22 3944.81 1165.77 3928.99 1149.95 3909.54 1149.95 3890.1 1149.95 3874.28 1165.77 3874.28 1185.22 3874.28 1204.67 3890.1 1220.49 3909.54 1220.49 3916.72 1220.49 3923.39 1218.32 3928.97 1214.62L3950.27 1233.84C3952.04 1235.43 3954.27 1236.22 3956.5 1236.22 3959.05 1236.22 3961.59 1235.18 3963.43 1233.15 3966.86 1229.33 3966.56 1223.42 3962.75 1219.98L3941.23 1200.6ZM3965.83 1127.5 3965.83 1211.65 3960.88 1211.65 3960.88 1129.97 3941.08 1129.97 3941.08 1157.2 3936.13 1157.2 3936.13 1127.5C3936.13 1126.13 3937.23 1125.03 3938.6 1125.03L3963.35 1125.03C3964.72 1125.03 3965.83 1126.13 3965.83 1127.5ZM3926.23 1228.97 3931.18 1228.97 3931.18 1241.35C3931.18 1242.72 3930.07 1243.82 3928.7 1243.82L3903.95 1243.82C3902.58 1243.82 3901.48 1242.72 3901.48 1241.35L3901.48 1226.5 3906.43 1226.5 3906.43 1238.88 3926.23 1238.88 3926.23 1228.97ZM3906.43 1142.35 3901.48 1142.35 3901.48 1112.65C3901.48 1111.28 3902.58 1110.18 3903.95 1110.18L3928.7 1110.18C3930.07 1110.18 3931.18 1111.28 3931.18 1112.65L3931.18 1147.3 3926.23 1147.3 3926.23 1115.12 3906.43 1115.12 3906.43 1142.35ZM3891.58 1224.03 3896.53 1224.03 3896.53 1241.35C3896.53 1242.72 3895.42 1243.82 3894.05 1243.82L3869.3 1243.82C3867.93 1243.82 3866.83 1242.72 3866.83 1241.35L3866.83 1204.22 3871.78 1204.22 3871.78 1238.88 3891.58 1238.88 3891.58 1224.03ZM3871.78 1167.1 3866.83 1167.1 3866.83 1134.93C3866.83 1133.56 3867.93 1132.45 3869.3 1132.45L3894.05 1132.45C3895.42 1132.45 3896.53 1133.56 3896.53 1134.93L3896.53 1144.82 3891.58 1144.82 3891.58 1137.4 3871.78 1137.4 3871.78 1167.1ZM3837.13 1238.88 3856.93 1238.88 3856.93 1154.72 3837.13 1154.72 3837.13 1238.88ZM3859.4 1149.78 3834.65 1149.78C3833.28 1149.78 3832.18 1150.88 3832.18 1152.25L3832.18 1241.35C3832.18 1242.72 3833.28 1243.82 3834.65 1243.82L3859.4 1243.82C3860.77 1243.82 3861.88 1242.72 3861.88 1241.35L3861.88 1152.25C3861.88 1150.88 3860.77 1149.78 3859.4 1149.78Z" fill="#FFFFFF" fill-rule="evenodd" fill-opacity="1"/></g></g></g><text fill="#000000" fill-opacity="1" font-family="Arial,Arial_MSFontService,sans-serif" font-style="normal" font-variant="normal" font-weight="400" font-stretch="normal" font-size="46" text-anchor="start" direction="ltr" writing-mode="lr-tb" unicode-bidi="normal" text-decoration="none" transform="matrix(1 0 0 1 3808.78 1334)">Amazon </text><text fill="#000000" fill-opacity="1" font-family="Arial,Arial_MSFontService,sans-serif" font-style="normal" font-variant="normal" font-weight="400" font-stretch="normal" font-size="46" text-anchor="start" direction="ltr" writing-mode="lr-tb" unicode-bidi="normal" text-decoration="none" transform="matrix(1 0 0 1 3764.67 1389)">OpenSearch</text><rect x="2971.5" y="1442.5" width="550" height="616" stroke="#00A0C8" stroke-width="4.58333" stroke-linecap="butt" stroke-linejoin="round" stroke-miterlimit="10" stroke-dasharray="18.3333 13.75" stroke-opacity="1" fill="none"/><g><g><g><path d="M3208.91 1819.78 3320.88 1819.78 3320.88 1785.87 3208.91 1785.87 3208.91 1819.78ZM3215.78 1812.9 3314 1812.9 3314 1792.75 3215.78 1792.75 3215.78 1812.9ZM3169.87 1819.78 3203.77 1819.78 3203.77 1785.87 3169.87 1785.87 3169.87 1819.78ZM3176.75 1812.9 3196.9 1812.9 3196.9 1792.75 3176.75 1792.75 3176.75 1812.9ZM3208.91 1858.81 3320.88 1858.81 3320.88 1824.91 3208.91 1824.91 3208.91 1858.81ZM3215.78 1851.93 3314 1851.93 3314 1831.79 3215.78 1831.79 3215.78 1851.93ZM3169.87 1858.81 3203.77 1858.81 3203.77 1824.91 3169.87 1824.91 3169.87 1858.81ZM3176.75 1851.93 3196.9 1851.93 3196.9 1831.79 3176.75 1831.79 3176.75 1851.93ZM3208.91 1897.84 3320.88 1897.84 3320.88 1863.94 3208.91 1863.94 3208.91 1897.84ZM3215.78 1890.97 3314 1890.97 3314 1870.82 3215.78 1870.82 3215.78 1890.97ZM3169.87 1897.84 3203.77 1897.84 3203.77 1863.94 3169.87 1863.94 3169.87 1897.84ZM3176.75 1890.97 3196.9 1890.97 3196.9 1870.82 3176.75 1870.82 3176.75 1890.97ZM3208.91 1936.87 3320.88 1936.87 3320.88 1902.98 3208.91 1902.98 3208.91 1936.87ZM3215.78 1930 3314 1930 3314 1909.85 3215.78 1909.85 3215.78 1930ZM3169.87 1936.87 3203.77 1936.87 3203.77 1902.98 3169.87 1902.98 3169.87 1936.87ZM3176.75 1930 3196.9 1930 3196.9 1909.85 3176.75 1909.85 3176.75 1930Z" fill="#527FFF" fill-rule="evenodd" fill-opacity="1"/></g></g></g><text fill="#000000" fill-opacity="1" font-family="Arial,Arial_MSFontService,sans-serif" font-style="normal" font-variant="normal" font-weight="400" font-stretch="normal" font-size="37" text-anchor="start" direction="ltr" writing-mode="lr-tb" unicode-bidi="normal" text-decoration="none" transform="matrix(1 0 0 1 3108.47 2003)">Message Table</text><rect x="3561.5" y="1441.5" width="558" height="614" stroke="#FF9900" stroke-width="4.58333" stroke-linecap="butt" stroke-linejoin="round" stroke-miterlimit="10" stroke-dasharray="18.3333 13.75" stroke-opacity="1" fill="none"/><g><g><g><path d="M3746 1498 3944 1498 3944 1696 3746 1696Z" fill="url(#fill4)" fill-rule="evenodd"/><path d="M3815.32 1661.35 3784.59 1661.35 3818.58 1590.31 3833.98 1622.01 3815.32 1661.35ZM3820.79 1583.52C3820.38 1582.66 3819.51 1582.12 3818.56 1582.12L3818.55 1582.12C3817.6 1582.13 3816.73 1582.67 3816.32 1583.53L3778.42 1662.76C3778.05 1663.53 3778.1 1664.43 3778.56 1665.15 3779.01 1665.86 3779.8 1666.3 3780.65 1666.3L3816.89 1666.3C3817.85 1666.3 3818.72 1665.75 3819.13 1664.88L3838.97 1623.06C3839.29 1622.38 3839.29 1621.59 3838.96 1620.92L3820.79 1583.52ZM3906.86 1661.35 3876.33 1661.35 3827.35 1558.81C3826.94 1557.95 3826.06 1557.4 3825.1 1557.4L3805.13 1557.4 3805.15 1532.65 3844.31 1532.65 3893.07 1635.19C3893.47 1636.05 3894.35 1636.6 3895.31 1636.6L3906.86 1636.6 3906.86 1661.35ZM3909.34 1631.65 3896.88 1631.65 3848.12 1529.11C3847.71 1528.25 3846.83 1527.7 3845.87 1527.7L3802.67 1527.7C3801.3 1527.7 3800.19 1528.81 3800.19 1530.17L3800.16 1559.87C3800.16 1560.53 3800.42 1561.16 3800.89 1561.62 3801.35 1562.09 3801.98 1562.35 3802.64 1562.35L3823.54 1562.35 3872.53 1664.89C3872.94 1665.75 3873.81 1666.3 3874.76 1666.3L3909.34 1666.3C3910.72 1666.3 3911.82 1665.19 3911.82 1663.83L3911.82 1634.13C3911.82 1632.76 3910.72 1631.65 3909.34 1631.65Z" fill="#FFFFFF" fill-rule="evenodd" fill-opacity="1"/></g></g></g><g><g><g><path d="M3845.5 1927.25C3807.59 1927.25 3776.75 1896.41 3776.75 1858.5 3776.75 1820.59 3807.59 1789.75 3845.5 1789.75 3883.41 1789.75 3914.25 1820.59 3914.25 1858.5 3914.25 1896.41 3883.41 1927.25 3845.5 1927.25L3845.5 1927.25ZM3845.5 1782.88C3803.8 1782.88 3769.88 1816.8 3769.88 1858.5 3769.88 1900.2 3803.8 1934.13 3845.5 1934.13 3887.2 1934.13 3921.12 1900.2 3921.12 1858.5 3921.12 1816.8 3887.2 1782.88 3845.5 1782.88ZM3822.23 1897.17 3803.82 1897.17 3825.63 1851.48 3834.85 1870.5 3822.23 1897.17ZM3828.7 1842.05C3828.13 1840.87 3826.93 1840.11 3825.61 1840.11L3825.6 1840.11C3824.28 1840.12 3823.08 1840.88 3822.51 1842.07L3795.27 1899.13C3794.76 1900.19 3794.84 1901.44 3795.47 1902.44 3796.1 1903.44 3797.19 1904.05 3798.38 1904.05L3824.41 1904.05C3825.74 1904.05 3826.95 1903.28 3827.52 1902.08L3841.77 1871.96C3842.21 1871.02 3842.21 1869.92 3841.76 1868.99L3828.7 1842.05ZM3887.18 1897.17 3868.44 1897.17 3834.37 1823.96C3833.8 1822.75 3832.59 1821.98 3831.25 1821.98L3818.86 1821.98 3818.88 1807.8 3843.7 1807.8 3877.6 1881C3878.17 1882.21 3879.38 1882.99 3880.72 1882.99L3887.18 1882.99 3887.18 1897.17ZM3890.62 1876.12 3882.92 1876.12 3849.01 1802.92C3848.44 1801.7 3847.23 1800.92 3845.89 1800.92L3815.44 1800.92C3813.54 1800.92 3812.01 1802.46 3812 1804.36L3811.98 1825.41C3811.98 1826.33 3812.35 1827.2 3812.99 1827.84 3813.63 1828.49 3814.51 1828.85 3815.42 1828.85L3829.06 1828.85 3863.13 1902.06C3863.69 1903.27 3864.91 1904.05 3866.25 1904.05L3890.62 1904.05C3892.52 1904.05 3894.05 1902.51 3894.05 1900.61L3894.05 1879.55C3894.05 1877.65 3892.52 1876.12 3890.62 1876.12Z" fill="#FF9900" fill-rule="evenodd" fill-opacity="1"/></g></g></g><text fill="#000000" fill-opacity="1" font-family="Arial,Arial_MSFontService,sans-serif" font-style="normal" font-variant="normal" font-weight="400" font-stretch="normal" font-size="46" text-anchor="start" direction="ltr" writing-mode="lr-tb" unicode-bidi="normal" text-decoration="none" transform="matrix(1 0 0 1 3705.16 1754)">AWS Lambda</text><text fill="#000000" fill-opacity="1" font-family="Arial,Arial_MSFontService,sans-serif" font-style="normal" font-variant="normal" font-weight="400" font-stretch="normal" font-size="37" text-anchor="start" direction="ltr" writing-mode="lr-tb" unicode-bidi="normal" text-decoration="none" transform="matrix(1 0 0 1 3792.26 2004)">Indexer</text><rect x="3302.5" y="761.5" width="392" height="615" stroke="#FF9900" stroke-width="4.58333" stroke-linecap="butt" stroke-linejoin="round" stroke-miterlimit="10" stroke-dasharray="18.3333 13.75" stroke-opacity="1" fill="none"/><g><g><g><path d="M3404 818 3602 818 3602 1016 3404 1016Z" fill="url(#fill5)" fill-rule="evenodd"/><path d="M3473.32 981.35 3442.59 981.35 3476.58 910.308 3491.98 942.012 3473.32 981.35ZM3478.79 903.519C3478.38 902.665 3477.51 902.123 3476.56 902.123L3476.55 902.123C3475.6 902.125 3474.73 902.672 3474.32 903.531L3436.42 982.758C3436.05 983.526 3436.1 984.427 3436.56 985.147 3437.01 985.865 3437.8 986.3 3438.66 986.3L3474.89 986.3C3475.85 986.3 3476.72 985.748 3477.13 984.884L3496.97 943.057C3497.29 942.379 3497.29 941.594 3496.96 940.921L3478.79 903.519ZM3564.86 981.35 3534.33 981.35 3485.35 878.811C3484.94 877.95 3484.06 877.4 3483.11 877.4L3463.13 877.4 3463.15 852.65 3502.31 852.65 3551.07 955.187C3551.48 956.048 3552.35 956.6 3553.31 956.6L3564.86 956.6 3564.86 981.35ZM3567.34 951.65 3554.88 951.65 3506.12 849.113C3505.71 848.252 3504.83 847.7 3503.87 847.7L3460.67 847.7C3459.31 847.7 3458.19 848.806 3458.19 850.173L3458.16 879.873C3458.16 880.531 3458.42 881.16 3458.89 881.625 3459.35 882.09 3459.98 882.35 3460.64 882.35L3481.54 882.35 3530.53 984.889C3530.94 985.751 3531.81 986.3 3532.77 986.3L3567.34 986.3C3568.72 986.3 3569.83 985.191 3569.83 983.825L3569.83 954.125C3569.83 952.759 3568.72 951.65 3567.34 951.65Z" fill="#FFFFFF" fill-rule="evenodd" fill-opacity="1"/></g></g></g><g><g><g><path d="M3503.5 1247.25C3465.59 1247.25 3434.75 1216.41 3434.75 1178.5 3434.75 1140.59 3465.59 1109.75 3503.5 1109.75 3541.41 1109.75 3572.25 1140.59 3572.25 1178.5 3572.25 1216.41 3541.41 1247.25 3503.5 1247.25L3503.5 1247.25ZM3503.5 1102.87C3461.8 1102.87 3427.88 1136.8 3427.88 1178.5 3427.88 1220.2 3461.8 1254.12 3503.5 1254.12 3545.2 1254.12 3579.12 1220.2 3579.12 1178.5 3579.12 1136.8 3545.2 1102.87 3503.5 1102.87ZM3480.23 1217.17 3461.82 1217.17 3483.63 1171.48 3492.85 1190.5 3480.23 1217.17ZM3486.7 1162.05C3486.13 1160.87 3484.93 1160.11 3483.61 1160.11L3483.6 1160.11C3482.28 1160.12 3481.08 1160.88 3480.51 1162.07L3453.27 1219.13C3452.76 1220.19 3452.84 1221.44 3453.47 1222.44 3454.1 1223.44 3455.19 1224.05 3456.38 1224.05L3482.41 1224.05C3483.74 1224.05 3484.95 1223.28 3485.52 1222.08L3499.77 1191.96C3500.21 1191.02 3500.21 1189.92 3499.76 1188.99L3486.7 1162.05ZM3545.18 1217.17 3526.44 1217.17 3492.37 1143.96C3491.8 1142.75 3490.59 1141.98 3489.25 1141.98L3476.86 1141.98 3476.88 1127.8 3501.7 1127.8 3535.6 1201C3536.17 1202.21 3537.38 1202.99 3538.72 1202.99L3545.18 1202.99 3545.18 1217.17ZM3548.62 1196.12 3540.92 1196.12 3507.01 1122.92C3506.44 1121.7 3505.23 1120.92 3503.89 1120.92L3473.44 1120.92C3471.54 1120.92 3470.01 1122.46 3470 1124.36L3469.98 1145.41C3469.98 1146.32 3470.35 1147.2 3470.99 1147.84 3471.63 1148.49 3472.51 1148.85 3473.42 1148.85L3487.06 1148.85 3521.13 1222.06C3521.69 1223.27 3522.91 1224.05 3524.25 1224.05L3548.62 1224.05C3550.52 1224.05 3552.05 1222.51 3552.05 1220.61L3552.05 1199.55C3552.05 1197.65 3550.52 1196.12 3548.62 1196.12Z" fill="#FF9900" fill-rule="evenodd" fill-opacity="1"/></g></g></g><text fill="#000000" fill-opacity="1" font-family="Arial,Arial_MSFontService,sans-serif" font-style="normal" font-variant="normal" font-weight="400" font-stretch="normal" font-size="46" text-anchor="start" direction="ltr" writing-mode="lr-tb" unicode-bidi="normal" text-decoration="none" transform="matrix(1 0 0 1 3363.14 1074)">AWS Lambda</text><text fill="#000000" fill-opacity="1" font-family="Arial,Arial_MSFontService,sans-serif" font-style="normal" font-variant="normal" font-weight="400" font-stretch="normal" font-size="37" text-anchor="start" direction="ltr" writing-mode="lr-tb" unicode-bidi="normal" text-decoration="none" transform="matrix(1 0 0 1 3414.43 1324)">SearchChat</text><path d="M0.0162904-2.29161 190.679-0.936239 190.646 3.64698-0.0162904 2.29161ZM186.177-12.4269 213.579 1.51827 185.982 15.0724Z" fill="#FF9900" fill-rule="nonzero" fill-opacity="1" transform="matrix(1 0 0 -1 3586.5 1179.02)"/><path d="M2641.5 1694.21 2820.16 1694.21C2821.43 1694.21 2822.45 1695.23 2822.45 1696.5L2822.45 1861.23 2820.16 1858.94 3140.91 1858.94 3140.91 1863.52 2820.16 1863.52C2818.9 1863.52 2817.87 1862.49 2817.87 1861.23L2817.87 1696.5 2820.16 1698.79 2641.5 1698.79ZM3136.33 1847.48 3163.83 1861.23 3136.33 1874.98Z" fill="#FF9900" fill-rule="nonzero" fill-opacity="1"/><path d="M2641.5 1208.21 2823.22 1208.21C2824.48 1208.21 2825.51 1209.23 2825.51 1210.5L2825.51 1861.55 2823.22 1859.25 3140.91 1859.25 3140.91 1863.84 2823.22 1863.84C2821.95 1863.84 2820.93 1862.81 2820.93 1861.55L2820.93 1210.5 2823.22 1212.79 2641.5 1212.79ZM3136.33 1847.8 3163.83 1861.55 3136.33 1875.3Z" fill="#FF9900" fill-rule="nonzero" fill-opacity="1"/><text fill="#000000" fill-opacity="1" font-family="Arial,Arial_MSFontService,sans-serif" font-style="normal" font-variant="normal" font-weight="400" font-stretch="normal" font-size="46" text-anchor="start" direction="ltr" writing-mode="lr-tb" unicode-bidi="normal" text-decoration="none" transform="matrix(1 0 0 1 2283.2 1374)">AWS Fargate</text><g><g><g><path d="M2337 1611 2535 1611 2535 1809 2337 1809Z" fill="url(#fill6)" fill-rule="evenodd"/><path d="M2465.7 1750.89 2465.7 1738.9 2473.13 1735.93 2473.13 1747.92 2465.7 1750.89ZM2453.33 1735.93 2460.75 1738.9 2460.75 1750.89 2453.33 1747.92 2453.33 1735.93ZM2438.48 1768.22 2438.48 1756.23 2445.9 1753.26 2445.9 1765.25 2438.48 1768.22ZM2426.1 1753.26 2433.53 1756.23 2433.53 1768.22 2426.1 1765.25 2426.1 1753.26ZM2411.25 1750.89 2411.25 1738.9 2418.68 1735.93 2418.68 1747.92 2411.25 1750.89ZM2398.88 1735.93 2406.3 1738.9 2406.3 1750.89 2398.88 1747.92 2398.88 1735.93ZM2408.78 1729.99 2414.49 1732.28 2408.78 1734.56 2403.06 1732.28 2408.78 1729.99ZM2436 1747.32 2441.71 1749.6 2436 1751.88 2430.29 1749.6 2436 1747.32ZM2463.23 1729.99 2468.94 1732.28 2463.23 1734.56 2457.51 1732.28 2463.23 1729.99ZM2476.52 1729.98 2464.14 1725.03C2463.55 1724.79 2462.9 1724.79 2462.31 1725.03L2449.93 1729.98C2448.99 1730.35 2448.38 1731.26 2448.38 1732.28L2448.38 1746.93 2436.92 1742.35C2436.33 1742.12 2435.67 1742.12 2435.08 1742.35L2423.63 1746.93 2423.63 1732.28C2423.63 1731.26 2423.01 1730.35 2422.07 1729.98L2409.69 1725.03C2409.1 1724.79 2408.45 1724.79 2407.86 1725.03L2395.48 1729.98C2394.54 1730.35 2393.93 1731.26 2393.93 1732.28L2393.93 1749.6C2393.93 1750.61 2394.54 1751.52 2395.48 1751.9L2407.86 1756.85C2408.15 1756.97 2408.46 1757.03 2408.78 1757.03 2409.09 1757.03 2409.4 1756.97 2409.69 1756.85L2421.15 1752.27 2421.15 1766.93C2421.15 1767.94 2421.77 1768.85 2422.71 1769.22L2435.08 1774.17C2435.38 1774.29 2435.69 1774.35 2436 1774.35 2436.31 1774.35 2436.62 1774.29 2436.92 1774.17L2449.29 1769.22C2450.23 1768.85 2450.85 1767.94 2450.85 1766.93L2450.85 1752.27 2462.31 1756.85C2462.6 1756.97 2462.91 1757.03 2463.23 1757.03 2463.54 1757.03 2463.85 1756.97 2464.14 1756.85L2476.52 1751.9C2477.46 1751.52 2478.08 1750.61 2478.08 1749.6L2478.08 1732.28C2478.08 1731.26 2477.46 1730.35 2476.52 1729.98ZM2497.88 1699.95C2497.88 1714.41 2465.99 1722.22 2436 1722.22 2406.01 1722.22 2374.13 1714.41 2374.13 1699.95 2374.13 1693.04 2381.79 1686.96 2395.69 1682.82L2397.11 1687.57C2385.98 1690.87 2379.08 1695.62 2379.08 1699.95 2379.08 1708.14 2402.45 1717.27 2436 1717.27 2469.55 1717.27 2492.93 1708.14 2492.93 1699.95 2492.93 1695.62 2486.02 1690.87 2474.89 1687.57L2476.31 1682.82C2490.22 1686.96 2497.88 1693.04 2497.88 1699.95ZM2436 1653.25 2461.28 1662.98 2436 1672.7 2410.72 1662.98 2436 1653.25ZM2462.19 1702.18C2457.52 1704.27 2449.68 1706.71 2438.48 1707.03L2438.48 1677.05 2465.7 1666.58 2465.7 1696.75C2465.7 1699.11 2464.32 1701.24 2462.19 1702.18ZM2406.3 1696.75 2406.3 1666.58 2433.53 1677.05 2433.53 1707.03C2422.32 1706.71 2414.48 1704.27 2409.8 1702.18 2407.68 1701.24 2406.3 1699.11 2406.3 1696.75ZM2407.8 1706.7C2413.24 1709.14 2422.56 1712.05 2436 1712.05 2449.44 1712.05 2458.76 1709.14 2464.2 1706.71 2468.12 1704.97 2470.65 1701.07 2470.65 1696.75L2470.65 1662.98C2470.65 1661.95 2470.02 1661.03 2469.06 1660.66L2436.89 1648.29C2436.31 1648.07 2435.69 1648.07 2435.11 1648.29L2402.94 1660.66C2401.98 1661.03 2401.35 1661.95 2401.35 1662.98L2401.35 1696.75C2401.35 1701.07 2403.88 1704.97 2407.8 1706.7Z" fill="#FFFFFF" fill-rule="evenodd" fill-opacity="1"/></g></g></g><g><g><g><path d="M2129.85 1724.59 2176.99 1724.59 2176.99 1677.45 2129.85 1677.45 2129.85 1724.59ZM2124.66 1732.79 2124.66 1741.28 2133.87 1741.28 2133.87 1733.81 2140.76 1733.81 2140.76 1741.28 2149.97 1741.28 2149.97 1733.81 2156.87 1733.81 2156.87 1741.28 2166.07 1741.28 2166.07 1733.81 2172.97 1733.81 2172.97 1741.28 2182.17 1741.28 2182.17 1732.79C2183.44 1732.09 2184.48 1731.05 2185.19 1729.78L2193.67 1729.78 2193.67 1720.57 2186.2 1720.57 2186.2 1713.68 2193.67 1713.68 2193.67 1704.47 2186.2 1704.47 2186.2 1697.58 2193.67 1697.58 2193.67 1688.37 2186.2 1688.37 2186.2 1681.48 2193.67 1681.48 2193.67 1672.27 2185.19 1672.27C2184.48 1671.01 2183.44 1669.96 2182.17 1669.26L2182.17 1660.77 2172.97 1660.77 2172.97 1668.24 2166.07 1668.24 2166.07 1660.77 2156.87 1660.77 2156.87 1668.24 2149.97 1668.24 2149.97 1660.77 2140.76 1660.77 2140.76 1668.24 2133.87 1668.24 2133.87 1660.77 2124.66 1660.77 2124.66 1669.26C2123.39 1669.96 2122.36 1671.01 2121.65 1672.27L2113.17 1672.27 2113.17 1681.48 2120.64 1681.48 2120.64 1688.37 2113.17 1688.37 2113.17 1697.58 2120.64 1697.58 2120.64 1704.47 2113.17 1704.47 2113.17 1713.68 2120.64 1713.68 2120.64 1720.57 2113.17 1720.57 2113.17 1729.78 2121.65 1729.78C2122.36 1731.05 2123.39 1732.09 2124.66 1732.79ZM2225.29 1745.3 2234.5 1745.3 2234.5 1656.75 2225.29 1656.75 2225.29 1745.3ZM2201.14 1745.3 2210.35 1745.3 2210.35 1656.75 2201.14 1656.75 2201.14 1745.3ZM2096.48 1745.3 2105.69 1745.3 2105.69 1656.75 2096.48 1656.75 2096.48 1745.3ZM2072.33 1745.3 2081.54 1745.3 2081.54 1656.75 2072.33 1656.75 2072.33 1745.3ZM2061.42 1756.8 2245.42 1756.8 2245.42 1645.25 2061.42 1645.25 2061.42 1756.8ZM2250.02 1636.04 2056.81 1636.04C2054.27 1636.04 2052.21 1638.1 2052.21 1640.65L2052.21 1761.4C2052.21 1763.95 2054.27 1766.01 2056.81 1766.01L2250.02 1766.01C2252.57 1766.01 2254.63 1763.95 2254.63 1761.4L2254.63 1640.65C2254.63 1638.1 2252.57 1636.04 2250.02 1636.04Z" fill="#FF9900" fill-rule="evenodd" fill-opacity="1"/></g></g></g><text fill="#000000" fill-opacity="1" font-family="Arial,Arial_MSFontService,sans-serif" font-style="normal" font-variant="normal" font-weight="400" font-stretch="normal" font-size="46" text-anchor="start" direction="ltr" writing-mode="lr-tb" unicode-bidi="normal" text-decoration="none" transform="matrix(1 0 0 1 2286.04 1861)">AWS Fargate</text><g><g><g><path d="M728 1609 926 1609 926 1807 728 1807Z" fill="url(#fill7)" fill-rule="evenodd"/><path d="M856.7 1748.89 856.7 1736.9 864.125 1733.93 864.125 1745.92 856.7 1748.89ZM844.325 1733.93 851.75 1736.9 851.75 1748.89 844.325 1745.92 844.325 1733.93ZM829.475 1766.22 829.475 1754.23 836.9 1751.26 836.9 1763.25 829.475 1766.22ZM817.1 1751.26 824.525 1754.23 824.525 1766.22 817.1 1763.25 817.1 1751.26ZM802.25 1748.89 802.25 1736.9 809.675 1733.93 809.675 1745.92 802.25 1748.89ZM789.875 1733.93 797.3 1736.9 797.3 1748.89 789.875 1745.92 789.875 1733.93ZM799.775 1727.99 805.487 1730.28 799.775 1732.56 794.063 1730.28 799.775 1727.99ZM827 1745.32 832.712 1747.6 827 1749.88 821.288 1747.6 827 1745.32ZM854.225 1727.99 859.937 1730.28 854.225 1732.56 848.513 1730.28 854.225 1727.99ZM867.518 1727.98 855.143 1723.03C854.554 1722.79 853.896 1722.79 853.307 1723.03L840.932 1727.98C839.991 1728.35 839.375 1729.26 839.375 1730.28L839.375 1744.93 827.918 1740.35C827.329 1740.12 826.671 1740.12 826.082 1740.35L814.625 1744.93 814.625 1730.28C814.625 1729.26 814.009 1728.35 813.068 1727.98L800.693 1723.03C800.104 1722.79 799.446 1722.79 798.857 1723.03L786.482 1727.98C785.541 1728.35 784.925 1729.26 784.925 1730.28L784.925 1747.6C784.925 1748.61 785.541 1749.52 786.482 1749.9L798.857 1754.85C799.151 1754.97 799.463 1755.03 799.775 1755.03 800.087 1755.03 800.399 1754.97 800.693 1754.85L812.15 1750.27 812.15 1764.93C812.15 1765.94 812.766 1766.85 813.707 1767.22L826.082 1772.17C826.376 1772.29 826.688 1772.35 827 1772.35 827.312 1772.35 827.624 1772.29 827.918 1772.17L840.293 1767.22C841.234 1766.85 841.85 1765.94 841.85 1764.93L841.85 1750.27 853.307 1754.85C853.601 1754.97 853.913 1755.03 854.225 1755.03 854.537 1755.03 854.849 1754.97 855.143 1754.85L867.518 1749.9C868.459 1749.52 869.075 1748.61 869.075 1747.6L869.075 1730.28C869.075 1729.26 868.459 1728.35 867.518 1727.98ZM888.875 1697.95C888.875 1712.41 856.995 1720.22 827 1720.22 797.006 1720.22 765.125 1712.41 765.125 1697.95 765.125 1691.04 772.785 1684.96 786.695 1680.82L788.105 1685.57C776.983 1688.87 770.075 1693.62 770.075 1697.95 770.075 1706.14 793.451 1715.27 827 1715.27 860.549 1715.27 883.925 1706.14 883.925 1697.95 883.925 1693.62 877.017 1688.87 865.895 1685.57L867.305 1680.82C881.215 1684.96 888.875 1691.04 888.875 1697.95ZM827 1651.25 852.28 1660.98 827 1670.7 801.72 1660.98 827 1651.25ZM853.186 1700.18C848.518 1702.27 840.682 1704.71 829.475 1705.03L829.475 1675.05 856.7 1664.58 856.7 1694.75C856.7 1697.11 855.324 1699.24 853.186 1700.18ZM797.3 1694.75 797.3 1664.58 824.525 1675.05 824.525 1705.03C813.318 1704.71 805.482 1702.27 800.805 1700.18 798.676 1699.24 797.3 1697.11 797.3 1694.75ZM798.795 1704.7C804.242 1707.14 813.558 1710.05 827 1710.05 840.442 1710.05 849.758 1707.14 855.198 1704.71 859.118 1702.97 861.65 1699.07 861.65 1694.75L861.65 1660.98C861.65 1659.95 861.019 1659.03 860.064 1658.66L827.889 1646.29C827.314 1646.07 826.686 1646.07 826.112 1646.29L793.937 1658.66C792.981 1659.03 792.35 1659.95 792.35 1660.98L792.35 1694.75C792.35 1699.07 794.882 1702.97 798.795 1704.7Z" fill="#FFFFFF" fill-rule="evenodd" fill-opacity="1"/></g></g></g><g><g><g><path d="M86.4554 133.985 133.384 133.985 133.384 87.0558 86.4554 87.0558 86.4554 133.985ZM81.2946 142.148 81.2946 150.595 90.4613 150.595 90.4613 143.156 97.3225 143.156 97.3225 150.595 106.489 150.595 106.489 143.156 113.35 143.156 113.35 150.595 122.517 150.595 122.517 143.156 129.378 143.156 129.378 150.595 138.545 150.595 138.545 142.148C139.801 141.446 140.837 140.41 141.543 139.15L149.99 139.15 149.99 129.983 142.551 129.983 142.551 123.122 149.99 123.122 149.99 113.955 142.551 113.955 142.551 107.09 149.99 107.09 149.99 97.9229 142.551 97.9229 142.551 91.0617 149.99 91.0617 149.99 81.895 141.543 81.895C140.841 80.6392 139.801 79.5988 138.545 78.8975L138.545 70.4504 129.378 70.4504 129.378 77.8892 122.517 77.8892 122.517 70.4504 113.35 70.4504 113.35 77.8892 106.489 77.8892 106.489 70.4504 97.3225 70.4504 97.3225 77.8892 90.4613 77.8892 90.4613 70.4504 81.2946 70.4504 81.2946 78.8975C80.0296 79.5988 78.9983 80.6392 78.2925 81.895L69.85 81.895 69.85 91.0617 77.2888 91.0617 77.2888 97.9229 69.85 97.9229 69.85 107.09 77.2888 107.09 77.2888 113.955 69.85 113.955 69.85 123.122 77.2888 123.122 77.2888 129.983 69.85 129.983 69.85 139.15 78.2925 139.15C78.9983 140.41 80.0296 141.446 81.2946 142.148ZM181.468 154.6 190.635 154.6 190.635 66.4492 181.468 66.4492 181.468 154.6ZM157.424 154.6 166.59 154.6 166.59 66.4492 157.424 66.4492 157.424 154.6ZM53.24 154.6 62.4067 154.6 62.4067 66.4492 53.24 66.4492 53.24 154.6ZM29.2004 154.6 38.3671 154.6 38.3671 66.4492 29.2004 66.4492 29.2004 154.6ZM18.3333 166.045 201.502 166.045 201.502 55 18.3333 55 18.3333 166.045ZM206.085 45.8333 13.75 45.8333C11.22 45.8333 9.16667 47.8821 9.16667 50.4167L9.16667 170.628C9.16667 173.158 11.22 175.212 13.75 175.212L206.085 175.212C208.62 175.212 210.668 173.158 210.668 170.628L210.668 50.4167C210.668 47.8821 208.62 45.8333 206.085 45.8333Z" fill="#FF9900" fill-rule="evenodd" fill-opacity="1" transform="matrix(1.00455 0 0 1 435 1588)"/></g></g></g><text fill="#000000" fill-opacity="1" font-family="Arial,Arial_MSFontService,sans-serif" font-style="normal" font-variant="normal" font-weight="400" font-stretch="normal" font-size="46" text-anchor="start" direction="ltr" writing-mode="lr-tb" unicode-bidi="normal" text-decoration="none" transform="matrix(1 0 0 1 677.553 1859)">AWS Fargate</text><g><g><g><path d="M738 1116 936 1116 936 1314 738 1314Z" fill="url(#fill8)" fill-rule="evenodd"/><path d="M866.7 1255.89 866.7 1243.9 874.125 1240.93 874.125 1252.92 866.7 1255.89ZM854.325 1240.93 861.75 1243.9 861.75 1255.89 854.325 1252.92 854.325 1240.93ZM839.475 1273.22 839.475 1261.23 846.9 1258.26 846.9 1270.25 839.475 1273.22ZM827.1 1258.26 834.525 1261.23 834.525 1273.22 827.1 1270.25 827.1 1258.26ZM812.25 1255.89 812.25 1243.9 819.675 1240.93 819.675 1252.92 812.25 1255.89ZM799.875 1240.93 807.3 1243.9 807.3 1255.89 799.875 1252.92 799.875 1240.93ZM809.775 1234.99 815.487 1237.28 809.775 1239.56 804.063 1237.28 809.775 1234.99ZM837 1252.32 842.712 1254.6 837 1256.88 831.288 1254.6 837 1252.32ZM864.225 1234.99 869.937 1237.28 864.225 1239.56 858.513 1237.28 864.225 1234.99ZM877.518 1234.98 865.143 1230.03C864.554 1229.79 863.896 1229.79 863.307 1230.03L850.932 1234.98C849.991 1235.35 849.375 1236.26 849.375 1237.28L849.375 1251.93 837.918 1247.35C837.329 1247.12 836.671 1247.12 836.082 1247.35L824.625 1251.93 824.625 1237.28C824.625 1236.26 824.009 1235.35 823.068 1234.98L810.693 1230.03C810.104 1229.79 809.446 1229.79 808.857 1230.03L796.482 1234.98C795.541 1235.35 794.925 1236.26 794.925 1237.28L794.925 1254.6C794.925 1255.61 795.541 1256.52 796.482 1256.9L808.857 1261.85C809.151 1261.97 809.463 1262.03 809.775 1262.03 810.087 1262.03 810.399 1261.97 810.693 1261.85L822.15 1257.27 822.15 1271.93C822.15 1272.94 822.766 1273.85 823.707 1274.22L836.082 1279.17C836.376 1279.29 836.688 1279.35 837 1279.35 837.312 1279.35 837.624 1279.29 837.918 1279.17L850.293 1274.22C851.234 1273.85 851.85 1272.94 851.85 1271.93L851.85 1257.27 863.307 1261.85C863.601 1261.97 863.913 1262.03 864.225 1262.03 864.537 1262.03 864.849 1261.97 865.143 1261.85L877.518 1256.9C878.459 1256.52 879.075 1255.61 879.075 1254.6L879.075 1237.28C879.075 1236.26 878.459 1235.35 877.518 1234.98ZM898.875 1204.95C898.875 1219.41 866.995 1227.22 837 1227.22 807.006 1227.22 775.125 1219.41 775.125 1204.95 775.125 1198.04 782.785 1191.96 796.695 1187.82L798.105 1192.57C786.983 1195.87 780.075 1200.62 780.075 1204.95 780.075 1213.14 803.451 1222.27 837 1222.27 870.549 1222.27 893.925 1213.14 893.925 1204.95 893.925 1200.62 887.017 1195.87 875.895 1192.57L877.305 1187.82C891.215 1191.96 898.875 1198.04 898.875 1204.95ZM837 1158.25 862.28 1167.98 837 1177.7 811.72 1167.98 837 1158.25ZM863.186 1207.18C858.518 1209.27 850.682 1211.71 839.475 1212.03L839.475 1182.05 866.7 1171.58 866.7 1201.75C866.7 1204.11 865.324 1206.24 863.186 1207.18ZM807.3 1201.75 807.3 1171.58 834.525 1182.05 834.525 1212.03C823.318 1211.71 815.482 1209.27 810.805 1207.18 808.676 1206.24 807.3 1204.11 807.3 1201.75ZM808.795 1211.7C814.242 1214.14 823.558 1217.05 837 1217.05 850.442 1217.05 859.758 1214.14 865.198 1211.71 869.118 1209.97 871.65 1206.07 871.65 1201.75L871.65 1167.98C871.65 1166.95 871.019 1166.03 870.064 1165.66L837.889 1153.29C837.314 1153.07 836.686 1153.07 836.112 1153.29L803.937 1165.66C802.981 1166.03 802.35 1166.95 802.35 1167.98L802.35 1201.75C802.35 1206.07 804.882 1209.97 808.795 1211.7Z" fill="#FFFFFF" fill-rule="evenodd" fill-opacity="1"/></g></g></g><g><g><g><path d="M86.4554 133.985 133.384 133.985 133.384 87.0558 86.4554 87.0558 86.4554 133.985ZM81.2946 142.148 81.2946 150.595 90.4613 150.595 90.4613 143.156 97.3225 143.156 97.3225 150.595 106.489 150.595 106.489 143.156 113.35 143.156 113.35 150.595 122.517 150.595 122.517 143.156 129.378 143.156 129.378 150.595 138.545 150.595 138.545 142.148C139.801 141.446 140.837 140.41 141.543 139.15L149.99 139.15 149.99 129.983 142.551 129.983 142.551 123.122 149.99 123.122 149.99 113.955 142.551 113.955 142.551 107.09 149.99 107.09 149.99 97.9229 142.551 97.9229 142.551 91.0617 149.99 91.0617 149.99 81.895 141.543 81.895C140.841 80.6392 139.801 79.5988 138.545 78.8975L138.545 70.4504 129.378 70.4504 129.378 77.8892 122.517 77.8892 122.517 70.4504 113.35 70.4504 113.35 77.8892 106.489 77.8892 106.489 70.4504 97.3225 70.4504 97.3225 77.8892 90.4613 77.8892 90.4613 70.4504 81.2946 70.4504 81.2946 78.8975C80.0296 79.5988 78.9983 80.6392 78.2925 81.895L69.85 81.895 69.85 91.0617 77.2888 91.0617 77.2888 97.9229 69.85 97.9229 69.85 107.09 77.2888 107.09 77.2888 113.955 69.85 113.955 69.85 123.122 77.2888 123.122 77.2888 129.983 69.85 129.983 69.85 139.15 78.2925 139.15C78.9983 140.41 80.0296 141.446 81.2946 142.148ZM181.468 154.6 190.635 154.6 190.635 66.4492 181.468 66.4492 181.468 154.6ZM157.424 154.6 166.59 154.6 166.59 66.4492 157.424 66.4492 157.424 154.6ZM53.24 154.6 62.4067 154.6 62.4067 66.4492 53.24 66.4492 53.24 154.6ZM29.2004 154.6 38.3671 154.6 38.3671 66.4492 29.2004 66.4492 29.2004 154.6ZM18.3333 166.045 201.502 166.045 201.502 55 18.3333 55 18.3333 166.045ZM206.085 45.8333 13.75 45.8333C11.22 45.8333 9.16667 47.8821 9.16667 50.4167L9.16667 170.628C9.16667 173.158 11.22 175.212 13.75 175.212L206.085 175.212C208.62 175.212 210.668 173.158 210.668 170.628L210.668 50.4167C210.668 47.8821 208.62 45.8333 206.085 45.8333Z" fill="#FF9900" fill-rule="evenodd" fill-opacity="1" transform="matrix(1.00454 0 0 1 445 1095)"/></g></g></g><text fill="#000000" fill-opacity="1" font-family="Arial,Arial_MSFontService,sans-serif" font-style="normal" font-variant="normal" font-weight="400" font-stretch="normal" font-size="46" text-anchor="start" direction="ltr" writing-mode="lr-tb" unicode-bidi="normal" text-decoration="none" transform="matrix(1 0 0 1 687.758 1366)">AWS Fargate</text><text fill="#000000" fill-opacity="1" font-family="Arial,Arial_MSFontService,sans-serif" font-style="normal" font-variant="normal" font-weight="400" font-stretch="normal" font-size="37" text-anchor="start" direction="ltr" writing-mode="lr-tb" unicode-bidi="normal" text-decoration="none" transform="matrix(1 0 0 1 1122.52 1572)">Envoy Proxy</text><path d="M0-2.29167 152.057-2.29167C153.322-2.29167 154.348-1.26565 154.348 0L154.348 681.366C154.348 682.632 153.322 683.658 152.057 683.658L92.4733 683.658 92.4733 679.075 152.057 679.075 149.765 681.366 149.765 0 152.057 2.29167 0 2.29167ZM97.0566 695.116 69.5566 681.366 97.0566 667.616Z" fill="#FF9900" fill-rule="nonzero" fill-opacity="1" transform="matrix(1 0 0 -1 3928.5 1858.87)"/><g><g><g><path d="M3000 1079 3200 1079 3200 1279 3000 1279Z" fill="url(#fill9)" fill-rule="evenodd"/><path d="M3085.16 1218.08 3092.5 1218.08 3092.5 1213.04 3085.16 1213.04 3085.16 1218.08ZM3097.5 1218.08 3105 1218.08 3105 1213.04 3097.5 1213.04 3097.5 1218.08ZM3067.5 1115.57 3035 1131.71 3035 1231.98 3067.5 1242.97 3067.5 1115.57ZM3072.5 1147.48 3072.5 1213.04 3080 1213.04 3080 1218.08 3072.5 1218.08 3072.5 1246.48C3072.5 1247.29 3072.11 1248.05 3071.46 1248.53 3071.03 1248.84 3070.52 1249 3070 1249 3069.74 1249 3069.47 1248.96 3069.21 1248.87L3031.71 1236.19C3030.69 1235.84 3030 1234.88 3030 1233.8L3030 1130.13C3030 1129.18 3030.54 1128.3 3031.4 1127.87L3068.9 1109.26C3069.67 1108.87 3070.59 1108.92 3071.32 1109.38 3072.05 1109.84 3072.5 1110.65 3072.5 1111.52L3072.5 1142.44 3080 1142.44 3080 1147.48 3072.5 1147.48ZM3110 1218.08 3117.5 1218.08 3117.5 1213.04 3110 1213.04 3110 1218.08ZM3110.16 1147.48 3117.5 1147.48 3117.5 1142.44 3110.16 1142.44 3110.16 1147.48ZM3097.66 1147.48 3105 1147.48 3105 1142.44 3097.66 1142.44 3097.66 1147.48ZM3085.16 1147.48 3092.5 1147.48 3092.5 1142.44 3085.16 1142.44 3085.16 1147.48ZM3165 1131.71 3132.5 1115.57 3132.5 1242.97 3165 1231.98 3165 1131.71ZM3170 1233.8C3170 1234.88 3169.31 1235.84 3168.3 1236.19L3130.79 1248.87C3130.53 1248.96 3130.27 1249 3130 1249 3129.48 1249 3128.97 1248.84 3128.54 1248.53 3127.89 1248.05 3127.5 1247.29 3127.5 1246.48L3127.5 1218.08 3122.66 1218.08 3122.66 1213.04 3127.5 1213.04 3127.5 1147.48 3122.66 1147.48 3122.66 1142.44 3127.5 1142.44 3127.5 1111.52C3127.5 1110.65 3127.95 1109.84 3128.68 1109.38 3129.41 1108.92 3130.33 1108.87 3131.1 1109.26L3168.6 1127.87C3169.46 1128.3 3170 1129.18 3170 1130.13L3170 1233.8ZM3107.33 1163.52 3102.67 1161.71 3090.17 1194.48 3094.83 1196.29 3107.33 1163.52ZM3124.27 1179.52C3125.25 1178.54 3125.25 1176.94 3124.27 1175.96L3114.27 1165.87 3110.73 1169.44 3118.97 1177.74 3110.73 1186.04 3114.27 1189.61 3124.27 1179.52ZM3085.73 1189.61 3075.73 1179.52C3074.76 1178.54 3074.76 1176.94 3075.73 1175.96L3085.73 1165.87 3089.27 1169.44 3081.03 1177.74 3089.27 1186.04 3085.73 1189.61Z" fill="#FFFFFF" fill-rule="evenodd" fill-opacity="1"/></g></g></g><text fill="#000000" fill-opacity="1" font-family="Arial,Arial_MSFontService,sans-serif" font-style="normal" font-variant="normal" font-weight="400" font-stretch="normal" font-size="46" text-anchor="start" direction="ltr" writing-mode="lr-tb" unicode-bidi="normal" text-decoration="none" transform="matrix(1 0 0 1 2962.5 1355)">API Gateway</text><path d="M0.014187-2.29162 411.918 0.2584 411.89 4.84165-0.014187 2.29162ZM407.406-11.2281 434.821 2.6919 407.236 16.2714Z" fill="#FF9900" fill-rule="nonzero" fill-opacity="1" transform="matrix(1 0 0 -1 3328.5 1861.19)"/><g><g><g><path d="M2037 360 2235 360 2235 558 2037 558Z" fill="url(#fill10)" fill-rule="evenodd"/><path d="M2173.43 489.004C2173.43 484.911 2170.1 481.579 2166 481.579 2161.91 481.579 2158.58 484.911 2158.58 489.004 2158.58 493.098 2161.91 496.429 2166 496.429 2170.1 496.429 2173.43 493.098 2173.43 489.004L2173.43 489.004ZM2178.38 489.004C2178.38 495.828 2172.83 501.379 2166 501.379 2159.18 501.379 2153.63 495.828 2153.63 489.004 2153.63 482.181 2159.18 476.629 2166 476.629 2172.83 476.629 2178.38 482.181 2178.38 489.004ZM2112.22 453.288C2112.22 449.194 2108.89 445.863 2104.8 445.863 2100.7 445.863 2097.37 449.194 2097.37 453.288 2097.37 457.381 2100.7 460.713 2104.8 460.713 2108.89 460.713 2112.22 457.381 2112.22 453.288ZM2117.17 453.288C2117.17 460.111 2111.62 465.663 2104.8 465.663 2097.97 465.663 2092.42 460.111 2092.42 453.288 2092.42 446.464 2097.97 440.913 2104.8 440.913 2111.62 440.913 2117.17 446.464 2117.17 453.288ZM2135.33 414.467C2135.33 418.561 2138.66 421.892 2142.76 421.892 2146.85 421.892 2150.18 418.561 2150.18 414.467 2150.18 410.371 2146.85 407.042 2142.76 407.042 2138.66 407.042 2135.33 410.371 2135.33 414.467ZM2130.38 414.467C2130.38 407.644 2135.94 402.092 2142.76 402.092 2149.58 402.092 2155.13 407.644 2155.13 414.467 2155.13 421.291 2149.58 426.842 2142.76 426.842 2135.94 426.842 2130.38 421.291 2130.38 414.467ZM2200.35 459C2200.35 436.049 2188.04 414.816 2168.2 403.335 2164.65 404.052 2161.21 405.035 2156.92 406.587L2155.23 401.931C2157.47 401.125 2159.48 400.471 2161.41 399.912 2153.44 396.474 2144.78 394.65 2136 394.65 2131.82 394.65 2127.71 395.083 2123.69 395.868 2126.6 397.57 2129.18 399.268 2131.69 401.169L2128.69 405.112C2125.16 402.434 2121.5 400.164 2116.69 397.645 2092.39 405.287 2074.88 426.721 2072.1 451.892 2077.2 450.86 2082.09 450.298 2087.52 450.164L2087.65 455.112C2081.95 455.253 2077.06 455.857 2071.72 457.032 2071.69 457.688 2071.65 458.351 2071.65 459 2071.65 480.428 2082.25 500.174 2099.68 512.081 2096.58 502.847 2095.04 494.12 2095.04 485.596 2095.04 480.735 2095.88 476.743 2096.76 472.518 2096.96 471.541 2097.17 470.546 2097.38 469.514L2102.23 470.472C2102.03 471.521 2101.81 472.538 2101.6 473.536 2100.74 477.674 2099.99 481.248 2099.99 485.596 2099.99 495.269 2102.11 505.27 2106.43 516.13 2115.64 520.91 2125.58 523.35 2136 523.35 2142.82 523.35 2149.48 522.261 2155.83 520.167 2158.32 515.249 2160.17 510.609 2161.72 505.28L2166.47 506.659C2165.34 510.544 2164.05 514.076 2162.5 517.6 2166.5 515.804 2170.28 513.581 2173.83 510.987 2172.97 508.893 2172.06 506.812 2171.04 504.785L2175.47 502.57C2176.33 504.292 2177.12 506.055 2177.88 507.827 2192.2 495.568 2200.35 477.958 2200.35 459ZM2205.3 459C2205.3 480.599 2195.48 500.577 2178.37 513.819 2174.14 517.11 2169.54 519.843 2164.68 522.043 2162.62 522.979 2160.52 523.845 2158.36 524.573 2151.24 527.045 2143.7 528.3 2136 528.3 2124.62 528.3 2113.31 525.464 2103.3 520.098 2080.73 508.02 2066.7 484.609 2066.7 459 2066.7 457.302 2066.74 456.01 2066.85 454.815 2068.53 425.897 2088.37 400.867 2116.2 392.586 2122.54 390.673 2129.21 389.7 2136 389.7 2147.9 389.7 2159.61 392.764 2169.87 398.558 2191.72 410.799 2205.3 433.963 2205.3 459ZM2129.35 423.021 2126.1 419.291C2120.55 424.132 2116.23 429.273 2111.19 437.037L2115.35 439.732C2120.12 432.379 2124.18 427.538 2129.35 423.021ZM2121.83 455.107 2120.22 459.787C2131.59 463.69 2141.51 469.917 2151.43 479.384L2154.85 475.803C2144.39 465.826 2133.9 459.25 2121.83 455.107ZM2154.92 426.003C2164.21 440.165 2169.44 455.711 2170.46 472.211L2165.52 472.518C2164.55 456.886 2159.59 442.15 2150.79 428.718L2154.92 426.003Z" fill="#FFFFFF" fill-rule="evenodd" fill-opacity="1"/></g></g></g><path d="M0-2.29167 612.693-2.29167C613.958-2.29167 614.984-1.26565 614.984 0L614.984 983.31 612.693 981.018 726.151 981.018 726.151 985.602 612.693 985.602C611.427 985.602 610.401 984.576 610.401 983.31L610.401 0 612.693 2.29167 0 2.29167ZM721.568 969.56 749.068 983.31 721.568 997.06Z" fill="#7B95B4" fill-rule="nonzero" fill-opacity="1" transform="matrix(-1 1.22465e-16 1.22465e-16 1 2037.57 459.5)"/><path d="M2235.5 457.208 3101.02 457.208C3102.29 457.208 3103.32 458.234 3103.32 459.5L3103.32 1056.83 3098.73 1056.83 3098.73 459.5 3101.02 461.792 2235.5 461.792ZM3114.77 1052.25 3101.02 1079.75 3087.27 1052.25Z" fill="#7B95B4" fill-rule="nonzero" fill-opacity="1"/><path d="M0.00564379-2.29166 197.925-1.80423 197.914 2.77909-0.00564379 2.29166ZM193.37-13.2738 220.836 0.543865 193.302 14.2261Z" fill="#FF9900" fill-rule="nonzero" fill-opacity="1" transform="matrix(1 0 0 -1 3200.5 1180.04)"/></g></g></svg>