<svg width="4176" height="2026" xmlns="http://www.w3.org/2000/svg" xmlns:xlink="http://www.w3.org/1999/xlink" xml:space="preserve" overflow="hidden"><defs><clipPath id="clip0"><rect x="180" y="181" width="202" height="204"/></clipPath><clipPath id="clip1"><rect x="180" y="181" width="202" height="204"/></clipPath><clipPath id="clip2"><rect x="180" y="181" width="202" height="204"/></clipPath></defs><g transform="translate(-114 -128)"><g><text fill="#000000" fill-opacity="1" font-family="Arial,Arial_MSFontService,sans-serif" font-style="normal" font-variant="normal" font-weight="400" font-stretch="normal" font-size="55" text-anchor="start" direction="ltr" writing-mode="lr-tb" unicode-bidi="normal" text-decoration="none" transform="matrix(1 0 0 1 439.939 270)">Amazon Elastic Container </text><text fill="#000000" fill-opacity="1" font-family="Arial,Arial_MSFontService,sans-serif" font-style="normal" font-variant="normal" font-weight="400" font-stretch="normal" font-size="55" text-anchor="start" direction="ltr" writing-mode="lr-tb" unicode-bidi="normal" text-decoration="none" transform="matrix(1 0 0 1 439.939 336)">Registry (Public)</text><rect x="1235" y="836" width="1312" height="422" stroke="#002060" stroke-width="10.3125" stroke-linecap="butt" stroke-linejoin="miter" stroke-miterlimit="8" stroke-opacity="1" fill="none"/><rect x="1235" y="836" width="257" height="117" fill="#203864" fill-opacity="1"/><text fill="#FFFFFF" fill-opacity="1" font-family="Arial,Arial_MSFontService,sans-serif" font-style="normal" font-variant="normal" font-weight="400" font-stretch="normal" font-size="73" text-anchor="start" direction="ltr" writing-mode="lr-tb" unicode-bidi="normal" text-decoration="none" transform="matrix(1 0 0 1 1282.27 922)">Buil</text><text fill="#FFFFFF" fill-opacity="1" font-family="Arial,Arial_MSFontService,sans-serif" font-style="normal" font-variant="normal" font-weight="400" font-stretch="normal" font-size="73" text-anchor="start" direction="ltr" writing-mode="lr-tb" unicode-bidi="normal" text-decoration="none" transform="matrix(1 0 0 1 1403.73 922)">d</text><rect x="2923" y="836" width="1312" height="649" stroke="#002060" stroke-width="10.3125" stroke-linecap="butt" stroke-linejoin="miter" stroke-miterlimit="8" stroke-opacity="1" fill="none"/><rect x="2923" y="836" width="461" height="117" fill="#203864" fill-opacity="1"/><text fill="#FFFFFF" fill-opacity="1" font-family="Arial,Arial_MSFontService,sans-serif" font-style="normal" font-variant="normal" font-weight="400" font-stretch="normal" font-size="73" text-anchor="start" direction="ltr" writing-mode="lr-tb" unicode-bidi="normal" text-decoration="none" transform="matrix(1 0 0 1 2978.5 922)">Production</text><rect x="1235" y="219" width="1312" height="133" fill="#ED7000" fill-opacity="1"/><text fill="#FFFFFF" fill-opacity="1" font-family="Arial,Arial_MSFontService,sans-serif" font-style="normal" font-variant="normal" font-weight="400" font-stretch="normal" font-size="55" text-anchor="start" direction="ltr" writing-mode="lr-tb" unicode-bidi="normal" text-decoration="none" transform="matrix(1 0 0 1 1267.84 305)">public.ecr.aws</text><text fill="#FFFFFF" fill-opacity="1" font-family="Arial,Arial_MSFontService,sans-serif" font-style="normal" font-variant="normal" font-weight="400" font-stretch="normal" font-size="55" text-anchor="start" direction="ltr" writing-mode="lr-tb" unicode-bidi="normal" text-decoration="none" transform="matrix(1 0 0 1 1612 305)">/docker/library/node:</text><text fill="#FFFFFF" fill-opacity="1" font-family="Arial,Arial_MSFontService,sans-serif" font-style="normal" font-variant="normal" font-weight="400" font-stretch="normal" font-size="55" text-anchor="start" direction="ltr" writing-mode="lr-tb" unicode-bidi="normal" text-decoration="none" transform="matrix(1 0 0 1 2108.72 305)">20 (416 MB)</text><rect x="2923" y="219" width="1312" height="133" fill="#ED7000" fill-opacity="1"/><text fill="#FFFFFF" fill-opacity="1" font-family="Arial,Arial_MSFontService,sans-serif" font-style="normal" font-variant="normal" font-weight="400" font-stretch="normal" font-size="55" text-anchor="start" direction="ltr" writing-mode="lr-tb" unicode-bidi="normal" text-decoration="none" transform="matrix(1 0 0 1 2955.71 305)">public.ecr.aws</text><text fill="#FFFFFF" fill-opacity="1" font-family="Arial,Arial_MSFontService,sans-serif" font-style="normal" font-variant="normal" font-weight="400" font-stretch="normal" font-size="55" text-anchor="start" direction="ltr" writing-mode="lr-tb" unicode-bidi="normal" text-decoration="none" transform="matrix(1 0 0 1 3299.87 305)">/docker/library/node:</text><text fill="#FFFFFF" fill-opacity="1" font-family="Arial,Arial_MSFontService,sans-serif" font-style="normal" font-variant="normal" font-weight="400" font-stretch="normal" font-size="55" text-anchor="start" direction="ltr" writing-mode="lr-tb" unicode-bidi="normal" text-decoration="none" transform="matrix(1 0 0 1 3796.59 305)">20</text><text fill="#FFFFFF" fill-opacity="1" font-family="Arial,Arial_MSFontService,sans-serif" font-style="normal" font-variant="normal" font-weight="400" font-stretch="normal" font-size="55" text-anchor="start" direction="ltr" writing-mode="lr-tb" unicode-bidi="normal" text-decoration="none" transform="matrix(1 0 0 1 3857.32 305)">-</text><text fill="#FFFFFF" fill-opacity="1" font-family="Arial,Arial_MSFontService,sans-serif" font-style="normal" font-variant="normal" font-weight="400" font-stretch="normal" font-size="55" text-anchor="start" direction="ltr" writing-mode="lr-tb" unicode-bidi="normal" text-decoration="none" transform="matrix(1 0 0 1 3875.66 305)">slim (78 MB)</text><rect x="180" y="836" width="869" height="649" stroke="#002060" stroke-width="10.3125" stroke-linecap="butt" stroke-linejoin="miter" stroke-miterlimit="8" stroke-opacity="1" fill="none"/><rect x="180" y="836" width="257" height="117" fill="#203864" fill-opacity="1"/><text fill="#FFFFFF" fill-opacity="1" font-family="Arial,Arial_MSFontService,sans-serif" font-style="normal" font-variant="normal" font-weight="400" font-stretch="normal" font-size="73" text-anchor="start" direction="ltr" writing-mode="lr-tb" unicode-bidi="normal" text-decoration="none" transform="matrix(1 0 0 1 233.102 922)">Host</text><rect x="228" y="983" width="425" height="133" fill="#000000" fill-opacity="0.294118"/><text fill="#000000" fill-opacity="1" font-family="Arial,Arial_MSFontService,sans-serif" font-style="normal" font-variant="normal" font-weight="400" font-stretch="normal" font-size="55" text-anchor="start" direction="ltr" writing-mode="lr-tb" unicode-bidi="normal" text-decoration="none" transform="matrix(1 0 0 1 260.711 1069)">p</text><text fill="#000000" fill-opacity="1" font-family="Arial,Arial_MSFontService,sans-serif" font-style="normal" font-variant="normal" font-weight="400" font-stretch="normal" font-size="55" text-anchor="start" direction="ltr" writing-mode="lr-tb" unicode-bidi="normal" text-decoration="none" transform="matrix(1 0 0 1 291.076 1069)">ackage.json</text><rect x="228" y="1147" width="516" height="133" fill="#000000" fill-opacity="0.294118"/><text fill="#000000" fill-opacity="1" font-family="Arial,Arial_MSFontService,sans-serif" font-style="normal" font-variant="normal" font-weight="400" font-stretch="normal" font-size="55" text-anchor="start" direction="ltr" writing-mode="lr-tb" unicode-bidi="normal" text-decoration="none" transform="matrix(1 0 0 1 260.711 1233)">p</text><text fill="#000000" fill-opacity="1" font-family="Arial,Arial_MSFontService,sans-serif" font-style="normal" font-variant="normal" font-weight="400" font-stretch="normal" font-size="55" text-anchor="start" direction="ltr" writing-mode="lr-tb" unicode-bidi="normal" text-decoration="none" transform="matrix(1 0 0 1 291.075 1233)">ackage</text><text fill="#000000" fill-opacity="1" font-family="Arial,Arial_MSFontService,sans-serif" font-style="normal" font-variant="normal" font-weight="400" font-stretch="normal" font-size="55" text-anchor="start" direction="ltr" writing-mode="lr-tb" unicode-bidi="normal" text-decoration="none" transform="matrix(1 0 0 1 467.534 1233)">-</text><text fill="#000000" fill-opacity="1" font-family="Arial,Arial_MSFontService,sans-serif" font-style="normal" font-variant="normal" font-weight="400" font-stretch="normal" font-size="55" text-anchor="start" direction="ltr" writing-mode="lr-tb" unicode-bidi="normal" text-decoration="none" transform="matrix(1 0 0 1 485.867 1233)">lock.json</text><path d="M0.0274249-5.7291 553.549-3.07942 553.494 8.37878-0.0274249 5.7291ZM547.876-14.565 582.168 2.78681 547.711 19.8096Z" fill="#2F5597" fill-rule="nonzero" fill-opacity="1" transform="matrix(1 0 0 -1 653.5 1050.29)"/><rect x="1285" y="983" width="385" height="133" fill="#000000" fill-opacity="0.294118"/><text fill="#000000" fill-opacity="1" font-family="Arial,Arial_MSFontService,sans-serif" font-style="normal" font-variant="normal" font-weight="400" font-stretch="normal" font-size="55" text-anchor="start" direction="ltr" writing-mode="lr-tb" unicode-bidi="normal" text-decoration="none" transform="matrix(1 0 0 1 1317.96 1069)">n</text><text fill="#000000" fill-opacity="1" font-family="Arial,Arial_MSFontService,sans-serif" font-style="normal" font-variant="normal" font-weight="400" font-stretch="normal" font-size="55" text-anchor="start" direction="ltr" writing-mode="lr-tb" unicode-bidi="normal" text-decoration="none" transform="matrix(1 0 0 1 1348.32 1069)">pm</text><text fill="#000000" fill-opacity="1" font-family="Arial,Arial_MSFontService,sans-serif" font-style="normal" font-variant="normal" font-weight="400" font-stretch="normal" font-size="55" text-anchor="start" direction="ltr" writing-mode="lr-tb" unicode-bidi="normal" text-decoration="none" transform="matrix(1 0 0 1 1439.99 1069)">install</text><path d="M744.5 1208.77 1206.36 1208.77 1206.36 1220.23 744.5 1220.23ZM1200.63 1197.31 1235 1214.5 1200.63 1231.69Z" fill="#2F5597" fill-rule="nonzero" fill-opacity="1"/><rect x="1846" y="984" width="429" height="133" fill="#000000" fill-opacity="0.294118"/><text fill="#000000" fill-opacity="1" font-family="Arial,Arial_MSFontService,sans-serif" font-style="normal" font-variant="normal" font-weight="400" font-stretch="normal" font-size="55" text-anchor="start" direction="ltr" writing-mode="lr-tb" unicode-bidi="normal" text-decoration="none" transform="matrix(1 0 0 1 1879.34 1070)">n</text><text fill="#000000" fill-opacity="1" font-family="Arial,Arial_MSFontService,sans-serif" font-style="normal" font-variant="normal" font-weight="400" font-stretch="normal" font-size="55" text-anchor="start" direction="ltr" writing-mode="lr-tb" unicode-bidi="normal" text-decoration="none" transform="matrix(1 0 0 1 1909.7 1070)">ode_modules</text><path d="M2275.5 1045.77 2894.64 1045.77 2894.64 1057.23 2275.5 1057.23ZM2888.91 1034.31 2923.29 1051.5 2888.91 1068.69Z" fill="#2F5597" fill-rule="nonzero" fill-opacity="1"/><path d="M1670.54 1044.77 1818.69 1045.77 1818.61 1057.23 1670.46 1056.23ZM1813.04 1034.27 1847.29 1051.69 1812.8 1068.64Z" fill="#2F5597" fill-rule="nonzero" fill-opacity="1"/><rect x="228" y="1303" width="311" height="134" fill="#000000" fill-opacity="0.294118"/><text fill="#000000" fill-opacity="1" font-family="Arial,Arial_MSFontService,sans-serif" font-style="normal" font-variant="normal" font-weight="400" font-stretch="normal" font-size="55" text-anchor="start" direction="ltr" writing-mode="lr-tb" unicode-bidi="normal" text-decoration="none" transform="matrix(1 0 0 1 260.71 1390)">App Code</text><path d="M539.5 1364.77 2894.58 1364.77 2894.58 1376.23 539.5 1376.23ZM2888.84 1353.31 2923.21 1370.5 2888.84 1387.69Z" fill="#2F5597" fill-rule="nonzero" fill-opacity="1"/><path d="M5.72917-4.27321e-06 5.72951 455.209-5.72883 455.209-5.72917 4.27321e-06ZM17.1878 449.48 0.000360892 483.855-17.1872 449.48Z" fill="#ED7000" fill-rule="nonzero" fill-opacity="1" transform="matrix(-1 0 0 1 1891.5 352.5)"/><path d="M3585.23 352.5 3585.23 807.709 3573.77 807.709 3573.77 352.5ZM3596.69 801.98 3579.5 836.355 3562.31 801.98Z" fill="#ED7000" fill-rule="nonzero" fill-opacity="1"/><rect x="2975" y="1154" width="845" height="133" fill="#000000" fill-opacity="0.294118"/><text fill="#000000" fill-opacity="1" font-family="Arial,Arial_MSFontService,sans-serif" font-style="normal" font-variant="normal" font-weight="400" font-stretch="normal" font-size="55" text-anchor="start" direction="ltr" writing-mode="lr-tb" unicode-bidi="normal" text-decoration="none" transform="matrix(1 0 0 1 3008.33 1240)">Define runtime user and port</text><rect x="2975" y="1309" width="845" height="133" fill="#000000" fill-opacity="0.294118"/><text fill="#000000" fill-opacity="1" font-family="Arial,Arial_MSFontService,sans-serif" font-style="normal" font-variant="normal" font-weight="400" font-stretch="normal" font-size="55" text-anchor="start" direction="ltr" writing-mode="lr-tb" unicode-bidi="normal" text-decoration="none" transform="matrix(1 0 0 1 3008.33 1395)">n</text><text fill="#000000" fill-opacity="1" font-family="Arial,Arial_MSFontService,sans-serif" font-style="normal" font-variant="normal" font-weight="400" font-stretch="normal" font-size="55" text-anchor="start" direction="ltr" writing-mode="lr-tb" unicode-bidi="normal" text-decoration="none" transform="matrix(1 0 0 1 3038.7 1395)">ode </text><text fill="#000000" fill-opacity="1" font-family="Arial,Arial_MSFontService,sans-serif" font-style="normal" font-variant="normal" font-weight="400" font-stretch="normal" font-size="55" text-anchor="start" direction="ltr" writing-mode="lr-tb" unicode-bidi="normal" text-decoration="none" transform="matrix(1 0 0 1 3145.26 1395)">index.js</text><rect x="2975" y="992" width="974" height="133" fill="#000000" fill-opacity="0.294118"/><text fill="#000000" fill-opacity="1" font-family="Arial,Arial_MSFontService,sans-serif" font-style="normal" font-variant="normal" font-weight="400" font-stretch="normal" font-size="55" text-anchor="start" direction="ltr" writing-mode="lr-tb" unicode-bidi="normal" text-decoration="none" transform="matrix(1 0 0 1 3008.33 1078)">Get </text><text fill="#000000" fill-opacity="1" font-family="Arial,Arial_MSFontService,sans-serif" font-style="normal" font-variant="normal" font-weight="400" font-stretch="normal" font-size="55" text-anchor="start" direction="ltr" writing-mode="lr-tb" unicode-bidi="normal" text-decoration="none" transform="matrix(1 0 0 1 3112.6 1078)">node_modules</text><text fill="#000000" fill-opacity="1" font-family="Arial,Arial_MSFontService,sans-serif" font-style="normal" font-variant="normal" font-weight="400" font-stretch="normal" font-size="55" text-anchor="start" direction="ltr" writing-mode="lr-tb" unicode-bidi="normal" text-decoration="none" transform="matrix(1 0 0 1 3486.72 1078)">and the app code</text><rect x="121" y="135" width="4165" height="301" stroke="#ED7000" stroke-width="8.02083" stroke-linecap="butt" stroke-linejoin="miter" stroke-miterlimit="8" stroke-opacity="1" fill="none"/><g><g><g><path d="M0 0 202 0 202 202 0 202Z" fill="#ED7100" fill-rule="evenodd" fill-opacity="1" transform="matrix(1 0 0 1 180 1891)"/><path d="M161.6 121.791 141.4 109.668 141.4 80.7999C141.4 79.901 140.925 79.0703 140.147 78.6183L111.1 61.6756 111.1 37.2488 161.6 67.0917 161.6 121.791ZM165.41 63.4759 109.86 30.6509C109.077 30.1889 108.115 30.1838 107.322 30.6307 106.537 31.0802 106.05 31.9185 106.05 32.825L106.05 63.1249C106.05 64.0213 106.527 64.852 107.302 65.3065L136.35 82.2493 136.35 111.1C136.35 111.986 136.817 112.809 137.577 113.264L162.827 128.414C163.226 128.654 163.675 128.775 164.125 128.775 164.554 128.775 164.983 128.666 165.37 128.447 166.162 128 166.65 127.159 166.65 126.25L166.65 65.6499C166.65 64.7561 166.18 63.9304 165.41 63.4759ZM102.124 168.829 42.925 137.357 42.925 67.0917 93.4249 37.2488 93.4249 61.7387 66.819 78.6688C66.0918 79.1334 65.6499 79.9364 65.6499 80.7999L65.6499 123.725C65.6499 124.667 66.1751 125.53 67.0084 125.965L100.977 143.64C101.707 144.018 102.575 144.021 103.303 143.642L136.259 126.613 156.54 138.784 102.124 168.829ZM162.9 136.708 137.65 121.558C136.898 121.109 135.969 121.079 135.191 121.483L102.149 138.554 70.6999 122.192 70.6999 82.1861 97.3058 65.256C98.033 64.7914 98.4749 63.9885 98.4749 63.1249L98.4749 32.825C98.4749 31.9185 97.9901 31.0802 97.2023 30.6307 96.4145 30.1838 95.4499 30.1889 94.6647 30.6509L39.1147 63.4759C38.3471 63.9304 37.875 64.7561 37.875 65.6499L37.875 138.875C37.875 139.807 38.3901 140.665 39.2132 141.104L100.959 173.929C101.331 174.126 101.737 174.225 102.144 174.225 102.565 174.225 102.985 174.119 103.366 173.909L162.822 141.084C163.612 140.647 164.107 139.822 164.125 138.92 164.14 138.016 163.673 137.173 162.9 136.708Z" fill="#FFFFFF" fill-rule="evenodd" fill-opacity="1" transform="matrix(1 0 0 1 180 1891)"/></g></g></g><text fill="#000000" fill-opacity="1" font-family="Arial,Arial_MSFontService,sans-serif" font-style="normal" font-variant="normal" font-weight="400" font-stretch="normal" font-size="55" text-anchor="start" direction="ltr" writing-mode="lr-tb" unicode-bidi="normal" text-decoration="none" transform="matrix(1 0 0 1 439.939 1978)">Amazon Elastic Container </text><text fill="#000000" fill-opacity="1" font-family="Arial,Arial_MSFontService,sans-serif" font-style="normal" font-variant="normal" font-weight="400" font-stretch="normal" font-size="55" text-anchor="start" direction="ltr" writing-mode="lr-tb" unicode-bidi="normal" text-decoration="none" transform="matrix(1 0 0 1 439.939 2044)">Registry (Private)</text><rect x="1555" y="1929" width="2680" height="134" fill="#ED7000" fill-opacity="1"/><text fill="#FFFFFF" fill-opacity="1" font-family="Arial,Arial_MSFontService,sans-serif" font-style="normal" font-variant="normal" font-weight="400" font-stretch="normal" font-size="55" text-anchor="start" direction="ltr" writing-mode="lr-tb" unicode-bidi="normal" text-decoration="none" transform="matrix(1 0 0 1 1587.67 2015)">&lt;account</text><text fill="#FFFFFF" fill-opacity="1" font-family="Arial,Arial_MSFontService,sans-serif" font-style="normal" font-variant="normal" font-weight="400" font-stretch="normal" font-size="55" text-anchor="start" direction="ltr" writing-mode="lr-tb" unicode-bidi="normal" text-decoration="none" transform="matrix(1 0 0 1 1811.68 2015)">-</text><text fill="#FFFFFF" fill-opacity="1" font-family="Arial,Arial_MSFontService,sans-serif" font-style="normal" font-variant="normal" font-weight="400" font-stretch="normal" font-size="55" text-anchor="start" direction="ltr" writing-mode="lr-tb" unicode-bidi="normal" text-decoration="none" transform="matrix(1 0 0 1 1830.01 2015)">id&gt;.</text><text fill="#FFFFFF" fill-opacity="1" font-family="Arial,Arial_MSFontService,sans-serif" font-style="normal" font-variant="normal" font-weight="400" font-stretch="normal" font-size="55" text-anchor="start" direction="ltr" writing-mode="lr-tb" unicode-bidi="normal" text-decoration="none" transform="matrix(1 0 0 1 1919.96 2015)">dkr.ecr</text><text fill="#FFFFFF" fill-opacity="1" font-family="Arial,Arial_MSFontService,sans-serif" font-style="normal" font-variant="normal" font-weight="400" font-stretch="normal" font-size="55" text-anchor="start" direction="ltr" writing-mode="lr-tb" unicode-bidi="normal" text-decoration="none" transform="matrix(1 0 0 1 2081.77 2015)">.&lt;region&gt;.amazonaws.com/sample</text><text fill="#FFFFFF" fill-opacity="1" font-family="Arial,Arial_MSFontService,sans-serif" font-style="normal" font-variant="normal" font-weight="400" font-stretch="normal" font-size="55" text-anchor="start" direction="ltr" writing-mode="lr-tb" unicode-bidi="normal" text-decoration="none" transform="matrix(1 0 0 1 2931.98 2015)">-</text><text fill="#FFFFFF" fill-opacity="1" font-family="Arial,Arial_MSFontService,sans-serif" font-style="normal" font-variant="normal" font-weight="400" font-stretch="normal" font-size="55" text-anchor="start" direction="ltr" writing-mode="lr-tb" unicode-bidi="normal" text-decoration="none" transform="matrix(1 0 0 1 2950.32 2015)">app</text><text fill="#FFFFFF" fill-opacity="1" font-family="Arial,Arial_MSFontService,sans-serif" font-style="normal" font-variant="normal" font-weight="400" font-stretch="normal" font-size="55" text-anchor="start" direction="ltr" writing-mode="lr-tb" unicode-bidi="normal" text-decoration="none" transform="matrix(1 0 0 1 3041.41 2015)">-</text><text fill="#FFFFFF" fill-opacity="1" font-family="Arial,Arial_MSFontService,sans-serif" font-style="normal" font-variant="normal" font-weight="400" font-stretch="normal" font-size="55" text-anchor="start" direction="ltr" writing-mode="lr-tb" unicode-bidi="normal" text-decoration="none" transform="matrix(1 0 0 1 3059.74 2015)">repo (~78MB + app code and </text><text fill="#FFFFFF" fill-opacity="1" font-family="Arial,Arial_MSFontService,sans-serif" font-style="normal" font-variant="normal" font-weight="400" font-stretch="normal" font-size="55" text-anchor="start" direction="ltr" writing-mode="lr-tb" unicode-bidi="normal" text-decoration="none" transform="matrix(1 0 0 1 3788.49 2015)">node_modules</text><text fill="#FFFFFF" fill-opacity="1" font-family="Arial,Arial_MSFontService,sans-serif" font-style="normal" font-variant="normal" font-weight="400" font-stretch="normal" font-size="55" text-anchor="start" direction="ltr" writing-mode="lr-tb" unicode-bidi="normal" text-decoration="none" transform="matrix(1 0 0 1 4147.14 2015)">)</text><rect x="121" y="1843" width="4165" height="306" stroke="#ED7000" stroke-width="8.02083" stroke-linecap="butt" stroke-linejoin="miter" stroke-miterlimit="8" stroke-opacity="1" fill="none"/><g clip-path="url(#clip0)"><g clip-path="url(#clip1)"><g clip-path="url(#clip2)"><path d="M0 0 202 0 202 202 0 202Z" fill="#ED7100" fill-rule="evenodd" fill-opacity="1" transform="matrix(1 0 0 1.00495 180 182)"/><path d="M97.9398 94.8836C96.6907 95.6103 95.9135 96.9599 95.9135 98.4085L95.9135 168.467 42.9217 138.835 42.9217 69.9616 102.406 35.4987 155.249 61.6814 97.9398 94.8836ZM161.399 61.6155C161.399 60.1646 160.624 58.8125 159.226 58.0123L104.4 30.8418C103.148 30.1202 101.594 30.1177 100.345 30.8444L39.9013 65.862C38.6522 66.5887 37.875 67.9386 37.875 69.3869L37.875 139.42C37.875 140.868 38.6522 142.218 39.9391 142.965L94.8737 173.683C95.4997 174.045 96.2037 174.225 96.9051 174.225 97.6043 174.225 98.3082 174.045 98.9314 173.683 100.183 172.959 100.96 171.609 100.96 170.158L100.96 98.9832 159.372 65.1404C160.624 64.4162 161.399 63.0666 161.399 61.6155ZM161.522 138.994 113.577 168.32 113.577 142.061 138.577 125.928 138.748 124.796C138.794 124.5 138.811 124.5 138.811 123.135L138.89 91.8094 161.601 78.6496 161.522 138.994ZM164.621 73.4055C163.367 72.6737 161.812 72.6762 160.561 73.4055L136.384 87.4111C135.627 87.8237 133.846 88.7935 133.846 90.7941L133.765 123.011 110.723 137.88C109.348 138.701 108.53 140 108.53 141.372L108.53 169.953C108.53 171.384 109.3 172.688 110.59 173.435 111.263 173.822 112.013 174.02 112.76 174.02 113.494 174.02 114.228 173.832 114.892 173.447L164.548 143.076C165.797 142.349 166.569 141 166.569 139.559L166.65 76.9278C166.65 75.4795 165.873 74.1296 164.621 73.4055Z" fill="#FFFFFF" fill-rule="evenodd" fill-opacity="1" transform="matrix(1 0 0 1.00495 180 182)"/></g></g></g><text fill="#000000" fill-opacity="1" font-family="Arial,Arial_MSFontService,sans-serif" font-style="normal" font-variant="normal" font-weight="400" font-stretch="normal" font-size="55" text-anchor="start" direction="ltr" writing-mode="lr-tb" unicode-bidi="normal" text-decoration="none" transform="matrix(1 0 0 1 1930.81 618)">Download base image </text><text fill="#000000" fill-opacity="1" font-family="Arial,Arial_MSFontService,sans-serif" font-style="normal" font-variant="normal" font-weight="400" font-stretch="normal" font-size="55" text-anchor="start" direction="ltr" writing-mode="lr-tb" unicode-bidi="normal" text-decoration="none" transform="matrix(1 0 0 1 1930.81 684)">layers for a full dev </text><text fill="#000000" fill-opacity="1" font-family="Arial,Arial_MSFontService,sans-serif" font-style="normal" font-variant="normal" font-weight="400" font-stretch="normal" font-size="55" text-anchor="start" direction="ltr" writing-mode="lr-tb" unicode-bidi="normal" text-decoration="none" transform="matrix(1 0 0 1 1930.81 750)">environment</text><text fill="#000000" fill-opacity="1" font-family="Arial,Arial_MSFontService,sans-serif" font-style="normal" font-variant="normal" font-weight="400" font-stretch="normal" font-size="55" text-anchor="start" direction="ltr" writing-mode="lr-tb" unicode-bidi="normal" text-decoration="none" transform="matrix(1 0 0 1 3615.33 1637)">Upload minimal </text><text fill="#000000" fill-opacity="1" font-family="Arial,Arial_MSFontService,sans-serif" font-style="normal" font-variant="normal" font-weight="400" font-stretch="normal" font-size="55" text-anchor="start" direction="ltr" writing-mode="lr-tb" unicode-bidi="normal" text-decoration="none" transform="matrix(1 0 0 1 3615.33 1703)">production container </text><text fill="#000000" fill-opacity="1" font-family="Arial,Arial_MSFontService,sans-serif" font-style="normal" font-variant="normal" font-weight="400" font-stretch="normal" font-size="55" text-anchor="start" direction="ltr" writing-mode="lr-tb" unicode-bidi="normal" text-decoration="none" transform="matrix(1 0 0 1 3615.33 1769)">image</text><path d="M3585.23 1485.5 3585.23 1900.15 3573.77 1900.15 3573.77 1485.5ZM3596.69 1894.42 3579.5 1928.8 3562.31 1894.42Z" fill="#ED7000" fill-rule="nonzero" fill-opacity="1"/><text fill="#000000" fill-opacity="1" font-family="Arial,Arial_MSFontService,sans-serif" font-style="normal" font-variant="normal" font-weight="400" font-stretch="normal" font-size="55" text-anchor="start" direction="ltr" writing-mode="lr-tb" unicode-bidi="normal" text-decoration="none" transform="matrix(1 0 0 1 3615.33 616)">Download </text><text fill="#000000" fill-opacity="1" font-family="Arial,Arial_MSFontService,sans-serif" font-style="normal" font-variant="normal" font-weight="400" font-stretch="normal" font-size="55" text-anchor="start" direction="ltr" writing-mode="lr-tb" unicode-bidi="normal" text-decoration="none" transform="matrix(1 0 0 1 3615.33 682)">minimal base </text><text fill="#000000" fill-opacity="1" font-family="Arial,Arial_MSFontService,sans-serif" font-style="normal" font-variant="normal" font-weight="400" font-stretch="normal" font-size="55" text-anchor="start" direction="ltr" writing-mode="lr-tb" unicode-bidi="normal" text-decoration="none" transform="matrix(1 0 0 1 3615.33 748)">image layers</text></g></g></svg>