<svg width="2324" height="880" xmlns="http://www.w3.org/2000/svg" xmlns:xlink="http://www.w3.org/1999/xlink" xml:space="preserve" overflow="hidden"><defs><clipPath id="clip0"><rect x="279" y="517" width="2324" height="880"/></clipPath><clipPath id="clip1"><rect x="1728" y="830" width="137" height="138"/></clipPath><clipPath id="clip2"><rect x="1728" y="830" width="137" height="138"/></clipPath><clipPath id="clip3"><rect x="1728" y="830" width="137" height="138"/></clipPath><clipPath id="clip4"><rect x="906" y="830" width="137" height="138"/></clipPath><clipPath id="clip5"><rect x="906" y="830" width="137" height="138"/></clipPath><clipPath id="clip6"><rect x="906" y="830" width="137" height="138"/></clipPath><clipPath id="clip7"><rect x="349" y="662" width="140" height="137"/></clipPath><clipPath id="clip8"><rect x="349" y="662" width="140" height="137"/></clipPath><clipPath id="clip9"><rect x="349" y="662" width="140" height="137"/></clipPath><clipPath id="clip10"><rect x="1182" y="985" width="166" height="166"/></clipPath><clipPath id="clip11"><rect x="1182" y="985" width="166" height="166"/></clipPath><clipPath id="clip12"><rect x="1182" y="985" width="166" height="166"/></clipPath><clipPath id="clip13"><rect x="2010" y="977" width="166" height="166"/></clipPath><clipPath id="clip14"><rect x="2010" y="977" width="166" height="166"/></clipPath><clipPath id="clip15"><rect x="2010" y="977" width="166" height="166"/></clipPath><clipPath id="clip16"><rect x="518" y="969" width="170" height="170"/></clipPath><clipPath id="clip17"><rect x="518" y="969" width="170" height="170"/></clipPath><clipPath id="clip18"><rect x="518" y="969" width="170" height="170"/></clipPath></defs><g clip-path="url(#clip0)" transform="translate(-279 -517)"><rect x="1729" y="829" width="761" height="447" fill="#E2F0D9" fill-opacity="0.2"/><text fill="#6CAE3E" fill-opacity="1" font-family="Arial,Arial_MSFontService,sans-serif" font-style="normal" font-variant="normal" font-weight="400" font-stretch="normal" font-size="55" text-anchor="start" direction="ltr" writing-mode="lr-tb" unicode-bidi="normal" text-decoration="none" transform="matrix(1 0 0 1 1902.33 899)">Public subnet</text><g clip-path="url(#clip1)"><g clip-path="url(#clip2)"><g clip-path="url(#clip3)"><path d="M0 0 137 0 137 137 0 137Z" fill="#6CAE3E" fill-rule="evenodd" fill-opacity="1" transform="matrix(1 0 0 1.0073 1728 830)"/><path d="M66.9107 75.5177C70.6988 75.5177 73.7812 78.5968 73.7812 82.3848 73.7812 86.1729 70.6988 89.2554 66.9107 89.2554 63.1227 89.2554 60.0402 86.1729 60.0402 82.3848 60.0402 78.5968 63.1227 75.5177 66.9107 75.5177L66.9107 75.5177ZM65.116 92.4988 65.116 104.466 68.541 104.466 68.541 92.516C73.4387 91.7282 77.2062 87.5052 77.2062 82.3848 77.2062 76.7096 72.5859 72.0927 66.9107 72.0927 61.2355 72.0927 56.6152 76.7096 56.6152 82.3848 56.6152 87.447 60.2936 91.6426 65.116 92.4988ZM34.25 113.073 99.366 113.073 99.366 61.6499 34.25 61.6499 34.25 113.073ZM48.1075 42.7576C48.1075 32.4005 56.533 23.975 66.8867 23.975 77.2439 23.975 85.666 32.4005 85.666 42.7576L85.666 58.2249 48.1075 58.2249 48.1075 42.7576ZM101.078 58.2249 89.091 58.2249 89.091 42.7576C89.091 30.5099 79.1277 20.55 66.8867 20.55 54.6424 20.55 44.6825 30.5099 44.6825 42.7576L44.6825 58.2249 32.5375 58.2249C31.5887 58.2249 30.825 58.9921 30.825 59.9374L30.825 114.785C30.825 115.731 31.5887 116.498 32.5375 116.498L101.078 116.498C102.024 116.498 102.791 115.731 102.791 114.785L102.791 59.9374C102.791 58.9921 102.024 58.2249 101.078 58.2249Z" fill="#232F3E" fill-rule="evenodd" fill-opacity="1" transform="matrix(1 0 0 1.0073 1728 830)"/></g></g></g><rect x="907" y="829" width="761" height="447" fill="#E2F0D9" fill-opacity="0.2"/><text fill="#6CAE3E" fill-opacity="1" font-family="Arial,Arial_MSFontService,sans-serif" font-style="normal" font-variant="normal" font-weight="400" font-stretch="normal" font-size="55" text-anchor="start" direction="ltr" writing-mode="lr-tb" unicode-bidi="normal" text-decoration="none" transform="matrix(1 0 0 1 1080.61 899)">Public subnet</text><g clip-path="url(#clip4)"><g clip-path="url(#clip5)"><g clip-path="url(#clip6)"><path d="M0 0 137 0 137 137 0 137Z" fill="#6CAE3E" fill-rule="evenodd" fill-opacity="1" transform="matrix(1 0 0 1.0073 906 830)"/><path d="M66.9107 75.5177C70.6988 75.5177 73.7812 78.5968 73.7812 82.3848 73.7812 86.1729 70.6988 89.2554 66.9107 89.2554 63.1227 89.2554 60.0402 86.1729 60.0402 82.3848 60.0402 78.5968 63.1227 75.5177 66.9107 75.5177L66.9107 75.5177ZM65.116 92.4988 65.116 104.466 68.541 104.466 68.541 92.516C73.4387 91.7282 77.2062 87.5052 77.2062 82.3848 77.2062 76.7096 72.5859 72.0927 66.9107 72.0927 61.2355 72.0927 56.6152 76.7096 56.6152 82.3848 56.6152 87.447 60.2936 91.6426 65.116 92.4988ZM34.25 113.073 99.366 113.073 99.366 61.6499 34.25 61.6499 34.25 113.073ZM48.1075 42.7576C48.1075 32.4005 56.533 23.975 66.8867 23.975 77.2439 23.975 85.666 32.4005 85.666 42.7576L85.666 58.2249 48.1075 58.2249 48.1075 42.7576ZM101.078 58.2249 89.091 58.2249 89.091 42.7576C89.091 30.5099 79.1277 20.55 66.8867 20.55 54.6424 20.55 44.6825 30.5099 44.6825 42.7576L44.6825 58.2249 32.5375 58.2249C31.5887 58.2249 30.825 58.9921 30.825 59.9374L30.825 114.785C30.825 115.731 31.5887 116.498 32.5375 116.498L101.078 116.498C102.024 116.498 102.791 115.731 102.791 114.785L102.791 59.9374C102.791 58.9921 102.024 58.2249 101.078 58.2249Z" fill="#232F3E" fill-rule="evenodd" fill-opacity="1" transform="matrix(1 0 0 1.0073 906 830)"/></g></g></g><rect x="350.5" y="662.5" width="2250" height="677" stroke="#70AD47" stroke-width="4.58333" stroke-linecap="butt" stroke-linejoin="miter" stroke-miterlimit="8" stroke-opacity="1" fill="none"/><text fill="#000000" fill-opacity="1" font-family="Arial,Arial_MSFontService,sans-serif" font-style="normal" font-variant="normal" font-weight="400" font-stretch="normal" font-size="55" text-anchor="start" direction="ltr" writing-mode="lr-tb" unicode-bidi="normal" text-decoration="none" transform="matrix(1 0 0 1 531.525 748)">VPC</text><rect x="893.5" y="523.5" width="789" height="869" stroke="#00A0C8" stroke-width="4.58333" stroke-linecap="butt" stroke-linejoin="miter" stroke-miterlimit="8" stroke-dasharray="18.3333 13.75" stroke-opacity="1" fill="none"/><text fill="#000000" fill-opacity="1" font-family="Arial,Arial_MSFontService,sans-serif" font-style="normal" font-variant="normal" font-weight="400" font-stretch="normal" font-size="55" text-anchor="start" direction="ltr" writing-mode="lr-tb" unicode-bidi="normal" text-decoration="none" transform="matrix(1 0 0 1 1065.54 609)">Availability Zone 1</text><rect x="1715.5" y="523.5" width="790" height="869" stroke="#00A0C8" stroke-width="4.58333" stroke-linecap="butt" stroke-linejoin="miter" stroke-miterlimit="8" stroke-dasharray="18.3333 13.75" stroke-opacity="1" fill="none"/><text fill="#000000" fill-opacity="1" font-family="Arial,Arial_MSFontService,sans-serif" font-style="normal" font-variant="normal" font-weight="400" font-stretch="normal" font-size="55" text-anchor="start" direction="ltr" writing-mode="lr-tb" unicode-bidi="normal" text-decoration="none" transform="matrix(1 0 0 1 1888.08 609)">Availability Zone 2</text><g clip-path="url(#clip7)"><g clip-path="url(#clip8)"><g clip-path="url(#clip9)"><path d="M0 0 137 0 137 137 0 137Z" fill="#6CAE3E" fill-rule="evenodd" fill-opacity="1" transform="matrix(1.0073 0 0 1 350 662)"/><path d="M99.3009 95.8827 39.3429 95.8177C31.2394 95.8108 24.5024 89.4917 24.0161 81.4293 23.9887 81.008 23.975 80.5764 23.975 80.1346 23.975 69.524 31.1366 66.0579 35.4042 64.9345 36.2262 64.7187 36.7673 63.931 36.6714 63.085 36.5652 62.1602 36.507 61.2218 36.507 60.2662 36.507 51.827 42.1548 42.7508 49.3713 39.6032 52.6045 38.1887 55.5945 37.627 58.3037 37.627 66.0202 37.627 71.4694 42.1788 73.8463 44.638 76.4767 47.354 78.5249 50.8201 79.9394 54.9438 80.1449 55.55 80.6758 55.9884 81.3094 56.0809 81.919 56.1733 82.5732 55.9062 82.95 55.3856 84.9639 52.5737 88.2484 51.3133 91.3069 52.1935 95.1532 53.2929 97.6672 57.2899 98.0234 62.7014 97.8795 63.6227 98.4994 64.4892 99.4173 64.6536 103.51 65.3797 113.025 68.3526 113.025 80.2819 113.025 94.4922 99.7153 95.8382 99.3009 95.8827ZM101.359 61.5609C100.623 55.0294 97.2699 50.3337 92.2488 48.9021 88.7039 47.8883 84.9776 48.7891 82.1622 51.2037 80.6689 47.7307 78.703 44.7304 76.3089 42.2576 68.5787 34.2671 57.9954 32.0991 47.9979 36.4625 39.4936 40.1752 33.082 50.4091 33.082 60.2662 33.082 60.8622 33.1026 61.4547 33.1403 62.0404 28.4925 63.6124 20.55 68.0718 20.55 80.1346 20.55 80.6552 20.5637 81.1587 20.5979 81.645 21.1939 91.5022 29.431 99.2324 39.3395 99.2427L99.4413 99.3009C99.6126 99.2872 116.45 97.6774 116.45 80.2819 116.45 66.7943 106.185 62.7254 101.359 61.5609ZM58.2249 85.6078 75.3499 85.6078 75.3499 71.9078 58.2249 71.9078 58.2249 85.6078ZM61.6499 66.7703C61.6499 63.9378 63.9549 61.6328 66.7874 61.6328 69.6199 61.6328 71.9249 63.9378 71.9249 66.7703L71.9249 68.4828 61.6499 68.4828 61.6499 66.7703ZM77.0624 68.4828 75.3499 68.4828 75.3499 66.7703C75.3499 62.0506 71.5105 58.2078 66.7874 58.2078 62.0643 58.2078 58.2249 62.0506 58.2249 66.7703L58.2249 68.4828 56.5124 68.4828C55.5637 68.4828 54.7999 69.25 54.7999 70.1953L54.7999 87.3203C54.7999 88.2655 55.5637 89.0328 56.5124 89.0328L77.0624 89.0328C78.0077 89.0328 78.7749 88.2655 78.7749 87.3203L78.7749 70.1953C78.7749 69.25 78.0077 68.4828 77.0624 68.4828Z" fill="#232F3E" fill-rule="evenodd" fill-opacity="1" transform="matrix(1.0073 0 0 1 350 662)"/></g></g></g><g clip-path="url(#clip10)"><g clip-path="url(#clip11)"><g clip-path="url(#clip12)"><path d="M1246.84 1086.49 1282.04 1086.49 1282.04 1051.29 1246.84 1051.29 1246.84 1086.49ZM1242.97 1092.61 1242.97 1098.95 1249.85 1098.95 1249.85 1093.37 1254.99 1093.37 1254.99 1098.95 1261.87 1098.95 1261.87 1093.37 1267.01 1093.37 1267.01 1098.95 1273.89 1098.95 1273.89 1093.37 1279.03 1093.37 1279.03 1098.95 1285.91 1098.95 1285.91 1092.61C1286.85 1092.08 1287.63 1091.31 1288.16 1090.36L1294.49 1090.36 1294.49 1083.49 1288.91 1083.49 1288.91 1078.34 1294.49 1078.34 1294.49 1071.47 1288.91 1071.47 1288.91 1066.32 1294.49 1066.32 1294.49 1059.44 1288.91 1059.44 1288.91 1054.3 1294.49 1054.3 1294.49 1047.42 1288.16 1047.42C1287.63 1046.48 1286.85 1045.7 1285.91 1045.17L1285.91 1038.84 1279.03 1038.84 1279.03 1044.42 1273.89 1044.42 1273.89 1038.84 1267.01 1038.84 1267.01 1044.42 1261.87 1044.42 1261.87 1038.84 1254.99 1038.84 1254.99 1044.42 1249.85 1044.42 1249.85 1038.84 1242.97 1038.84 1242.97 1045.17C1242.02 1045.7 1241.25 1046.48 1240.72 1047.42L1234.39 1047.42 1234.39 1054.3 1239.97 1054.3 1239.97 1059.44 1234.39 1059.44 1234.39 1066.32 1239.97 1066.32 1239.97 1071.47 1234.39 1071.47 1234.39 1078.34 1239.97 1078.34 1239.97 1083.49 1234.39 1083.49 1234.39 1090.36 1240.72 1090.36C1241.25 1091.31 1242.02 1092.08 1242.97 1092.61ZM1318.1 1101.95 1324.98 1101.95 1324.98 1035.84 1318.1 1035.84 1318.1 1101.95ZM1300.07 1101.95 1306.94 1101.95 1306.94 1035.84 1300.07 1035.84 1300.07 1101.95ZM1221.93 1101.95 1228.81 1101.95 1228.81 1035.84 1221.93 1035.84 1221.93 1101.95ZM1203.9 1101.95 1210.78 1101.95 1210.78 1035.84 1203.9 1035.84 1203.9 1101.95ZM1195.75 1110.53 1333.13 1110.53 1333.13 1027.25 1195.75 1027.25 1195.75 1110.53ZM1336.56 1020.37 1192.31 1020.37C1190.42 1020.37 1188.88 1021.91 1188.88 1023.81L1188.88 1113.97C1188.88 1115.87 1190.42 1117.41 1192.31 1117.41L1336.56 1117.41C1338.46 1117.41 1340 1115.87 1340 1113.97L1340 1023.81C1340 1021.91 1338.46 1020.37 1336.56 1020.37Z" fill="#FF9900" fill-rule="evenodd" fill-opacity="1"/></g></g></g><g clip-path="url(#clip13)"><g clip-path="url(#clip14)"><g clip-path="url(#clip15)"><path d="M2075.84 1078.49 2111.04 1078.49 2111.04 1043.29 2075.84 1043.29 2075.84 1078.49ZM2071.97 1084.61 2071.97 1090.95 2078.85 1090.95 2078.85 1085.37 2083.99 1085.37 2083.99 1090.95 2090.87 1090.95 2090.87 1085.37 2096.01 1085.37 2096.01 1090.95 2102.89 1090.95 2102.89 1085.37 2108.03 1085.37 2108.03 1090.95 2114.91 1090.95 2114.91 1084.61C2115.85 1084.08 2116.63 1083.31 2117.16 1082.36L2123.49 1082.36 2123.49 1075.49 2117.91 1075.49 2117.91 1070.34 2123.49 1070.34 2123.49 1063.47 2117.91 1063.47 2117.91 1058.32 2123.49 1058.32 2123.49 1051.44 2117.91 1051.44 2117.91 1046.3 2123.49 1046.3 2123.49 1039.42 2117.16 1039.42C2116.63 1038.48 2115.85 1037.7 2114.91 1037.17L2114.91 1030.84 2108.03 1030.84 2108.03 1036.42 2102.89 1036.42 2102.89 1030.84 2096.01 1030.84 2096.01 1036.42 2090.87 1036.42 2090.87 1030.84 2083.99 1030.84 2083.99 1036.42 2078.85 1036.42 2078.85 1030.84 2071.97 1030.84 2071.97 1037.17C2071.02 1037.7 2070.25 1038.48 2069.72 1039.42L2063.39 1039.42 2063.39 1046.3 2068.97 1046.3 2068.97 1051.44 2063.39 1051.44 2063.39 1058.32 2068.97 1058.32 2068.97 1063.47 2063.39 1063.47 2063.39 1070.34 2068.97 1070.34 2068.97 1075.49 2063.39 1075.49 2063.39 1082.36 2069.72 1082.36C2070.25 1083.31 2071.02 1084.08 2071.97 1084.61ZM2147.1 1093.95 2153.98 1093.95 2153.98 1027.84 2147.1 1027.84 2147.1 1093.95ZM2129.07 1093.95 2135.94 1093.95 2135.94 1027.84 2129.07 1027.84 2129.07 1093.95ZM2050.93 1093.95 2057.8 1093.95 2057.8 1027.84 2050.93 1027.84 2050.93 1093.95ZM2032.9 1093.95 2039.78 1093.95 2039.78 1027.84 2032.9 1027.84 2032.9 1093.95ZM2024.75 1102.53 2162.13 1102.53 2162.13 1019.25 2024.75 1019.25 2024.75 1102.53ZM2165.56 1012.37 2021.31 1012.37C2019.41 1012.37 2017.87 1013.91 2017.87 1015.81L2017.87 1105.97C2017.87 1107.87 2019.41 1109.41 2021.31 1109.41L2165.56 1109.41C2167.46 1109.41 2169 1107.87 2169 1105.97L2169 1015.81C2169 1013.91 2167.46 1012.37 2165.56 1012.37Z" fill="#FF9900" fill-rule="evenodd" fill-opacity="1"/></g></g></g><text fill="#000000" fill-opacity="1" font-family="Arial,Arial_MSFontService,sans-serif" font-style="normal" font-variant="normal" font-weight="400" font-stretch="normal" font-size="50" text-anchor="start" direction="ltr" writing-mode="lr-tb" unicode-bidi="normal" text-decoration="none" transform="matrix(1 0 0 1 1155.11 1186)">Container</text><text fill="#000000" fill-opacity="1" font-family="Arial,Arial_MSFontService,sans-serif" font-style="normal" font-variant="normal" font-weight="400" font-stretch="normal" font-size="50" text-anchor="start" direction="ltr" writing-mode="lr-tb" unicode-bidi="normal" text-decoration="none" transform="matrix(1 0 0 1 1989.76 1176)">Container</text><text fill="#000000" fill-opacity="1" font-family="Arial,Arial_MSFontService,sans-serif" font-style="normal" font-variant="normal" font-weight="400" font-stretch="normal" font-size="50" text-anchor="start" direction="ltr" writing-mode="lr-tb" unicode-bidi="normal" text-decoration="none" transform="matrix(1 0 0 1 417.101 1208)">Internet gateway</text><g clip-path="url(#clip16)"><g clip-path="url(#clip17)"><g clip-path="url(#clip18)"><path d="M636.402 1093.59 631.097 1093.59 631.097 1030.99C631.097 1029.59 630.279 1028.33 629.011 1027.76L628.685 1027.61C621.57 1024.4 614.206 1021.07 603.624 1021.07 592.563 1021.07 584.446 1024.65 576.42 1028.63 575.216 1029.23 574.455 1030.46 574.455 1031.8L574.455 1093.59 569.273 1093.59 569.273 1026.77C577.894 1019.76 590.322 1015.77 603.659 1015.77 616.059 1015.77 627.881 1019.3 636.402 1025.5L636.402 1093.59ZM603.659 1008.68C587.988 1008.68 573.311 1013.71 563.387 1022.48 562.626 1023.15 562.19 1024.11 562.19 1025.13L562.19 1097.13C562.19 1099.09 563.773 1100.67 565.732 1100.67L577.997 1100.67C579.955 1100.67 581.538 1099.09 581.538 1097.13L581.538 1034.01C588.335 1030.73 594.922 1028.16 603.624 1028.16 611.894 1028.16 617.908 1030.55 624.013 1033.28L624.013 1097.13C624.013 1099.09 625.596 1100.67 627.555 1100.67L639.944 1100.67C641.902 1100.67 643.485 1099.09 643.485 1097.13L643.485 1023.75C643.485 1022.67 642.993 1021.65 642.147 1020.97 632.322 1013.16 618.294 1008.68 603.659 1008.68ZM602.838 1124.51C563.872 1124.51 532.164 1092.81 532.164 1053.84 532.164 1014.87 563.872 983.166 602.838 983.166 641.807 983.166 673.512 1014.87 673.512 1053.84 673.512 1092.81 641.807 1124.51 602.838 1124.51ZM602.838 976.083C559.962 976.083 525.081 1010.96 525.081 1053.84 525.081 1096.72 559.962 1131.59 602.838 1131.59 645.713 1131.59 680.595 1096.72 680.595 1053.84 680.595 1010.96 645.713 976.083 602.838 976.083Z" fill="#A166FF" fill-rule="evenodd" fill-opacity="1"/></g></g></g></g></svg>