<svg width="2654" height="848" xmlns="http://www.w3.org/2000/svg" xmlns:xlink="http://www.w3.org/1999/xlink" xml:space="preserve" overflow="hidden"><g transform="translate(-366 -192)"><g><rect x="370.5" y="195.5" width="2644" height="838" stroke="#8C4EFF" stroke-width="4.58333" stroke-linecap="butt" stroke-linejoin="miter" stroke-miterlimit="8" stroke-opacity="1" fill="none"/><text fill="#000000" fill-opacity="1" font-family="Arial,Arial_MSFontService,sans-serif" font-style="normal" font-variant="normal" font-weight="400" font-stretch="normal" font-size="55" text-anchor="start" direction="ltr" writing-mode="lr-tb" unicode-bidi="normal" text-decoration="none" transform="matrix(1 0 0 1 518.467 281)">VPC</text><g><g><g><path d="M369 194 491 194 491 316 369 316Z" fill="#8C4FFF" fill-rule="evenodd" fill-opacity="1"/><path d="M463.461 258.14 454.481 254.287 454.481 286.279C462.244 285.205 463.424 277.226 463.473 276.863L463.461 258.14ZM451.431 286.322 451.431 254.266 442.175 258.149 442.175 277.062C442.214 277.226 443.532 285.501 451.431 286.322ZM452.365 250.569C452.743 250.408 453.176 250.411 453.557 250.573L465.586 255.733C466.148 255.974 466.51 256.523 466.51 257.133L466.51 277.062C465.952 281.475 462.372 289.454 452.703 289.454 443.324 289.454 439.728 281.487 439.137 277.272L439.125 257.133C439.125 256.52 439.494 255.965 440.058 255.727L452.365 250.569ZM469.597 252.512 452.941 245.174 436.075 252.271 436.075 274.012C436.072 274.14 435.91 282.759 441.128 288.112 443.925 290.982 447.82 292.44 452.703 292.44 457.589 292.44 461.509 290.979 464.351 288.103 469.643 282.741 469.597 274.118 469.597 274.033L469.597 252.512ZM466.538 290.229C463.101 293.718 458.443 295.49 452.703 295.49 446.957 295.49 442.321 293.718 438.926 290.223 432.811 283.93 433.012 274.372 433.025 273.969L433.025 251.259C433.025 250.646 433.391 250.091 433.955 249.853L452.362 242.106C452.749 241.947 453.188 241.944 453.569 242.118L471.735 250.124C472.29 250.368 472.647 250.914 472.647 251.518L472.647 274.012C472.653 274.393 472.729 283.94 466.538 290.229ZM402.525 267.921 426.925 267.921 426.925 270.971 402.525 270.971C393.951 270.971 387.851 264.822 387.339 255.672 387.302 255.334 387.299 254.925 387.299 254.516 387.299 246.864 391.319 241.636 398.941 239.33 398.883 238.638 398.843 237.909 398.843 237.357 398.843 228.463 403.653 220.749 411.095 217.699 421.154 213.588 432.573 214.973 438.868 221.067 441.141 223.275 442.907 225.77 444.236 228.646 446.094 227.274 448.506 226.63 451.401 226.773 456.83 227.048 461.005 231.998 461.871 238.995 466.44 239.373 469.451 241.688 471.052 246.034L468.194 247.089C466.889 243.561 464.51 241.987 460.475 241.987 459.666 241.987 458.998 241.358 458.95 240.553 458.529 233.422 454.661 229.991 451.245 229.82 448.363 229.659 446.228 230.488 444.904 232.233 444.566 232.675 444.035 232.895 443.462 232.821 442.913 232.736 442.449 232.361 442.257 231.836 441.025 228.472 439.222 225.666 436.746 223.254 431.292 217.977 421.221 216.852 412.251 220.524 405.959 223.101 401.893 229.707 401.893 237.357 401.893 238.189 402 239.48 402.094 240.282 402.186 241.047 401.695 241.758 400.948 241.941 393.914 243.686 390.349 247.916 390.349 254.516 390.349 254.824 390.346 255.129 390.376 255.437 390.806 263.047 395.571 267.921 402.525 267.921Z" fill="#FFFFFF" fill-rule="evenodd" fill-opacity="1"/></g></g></g><rect x="970" y="316" width="912" height="610" stroke="#7AA116" stroke-width="5.72917" stroke-linecap="butt" stroke-linejoin="miter" stroke-miterlimit="8" stroke-opacity="1" fill="none"/><text fill="#000000" fill-opacity="1" font-family="Arial,Arial_MSFontService,sans-serif" font-style="normal" font-variant="normal" font-weight="400" font-stretch="normal" font-size="55" text-anchor="start" direction="ltr" writing-mode="lr-tb" unicode-bidi="normal" text-decoration="none" transform="matrix(1 0 0 1 1151.3 402)">Public subnet</text><g><g><g><path d="M0 0 122 0 122 122 0 122Z" fill="#7AA116" fill-rule="evenodd" fill-opacity="1" transform="matrix(1 0 0 1.0082 970 316)"/><path d="M59.5848 67.2495C62.9581 67.2495 65.7031 69.9914 65.7031 73.3647 65.7031 76.738 62.9581 79.483 59.5848 79.483 56.2115 79.483 53.4665 76.738 53.4665 73.3647 53.4665 69.9914 56.2115 67.2495 59.5848 67.2495L59.5848 67.2495ZM57.9866 82.3714 57.9866 93.0281 61.0366 93.0281 61.0366 82.3866C65.3981 81.6851 68.7531 77.9245 68.7531 73.3647 68.7531 68.3109 64.6387 64.1995 59.5848 64.1995 54.531 64.1995 50.4165 68.3109 50.4165 73.3647 50.4165 77.8726 53.6922 81.6089 57.9866 82.3714ZM30.5 100.693 88.4866 100.693 88.4866 54.9 30.5 54.9 30.5 100.693ZM42.8403 38.0762C42.8403 28.853 50.3433 21.35 59.5635 21.35 68.7867 21.35 76.2866 28.853 76.2866 38.0762L76.2866 51.85 42.8403 51.85 42.8403 38.0762ZM90.0116 51.85 79.3366 51.85 79.3366 38.0762C79.3366 27.1694 70.4642 18.3 59.5635 18.3 48.6597 18.3 39.7903 27.1694 39.7903 38.0762L39.7903 51.85 28.975 51.85C28.1302 51.85 27.45 52.5332 27.45 53.375L27.45 102.218C27.45 103.06 28.1302 103.743 28.975 103.743L90.0116 103.743C90.8534 103.743 91.5366 103.06 91.5366 102.218L91.5366 53.375C91.5366 52.5332 90.8534 51.85 90.0116 51.85Z" fill="#FFFFFF" fill-rule="evenodd" fill-opacity="1" transform="matrix(1 0 0 1.0082 970 316)"/></g></g></g><rect x="1984" y="316" width="912" height="610" stroke="#7AA116" stroke-width="5.72917" stroke-linecap="butt" stroke-linejoin="miter" stroke-miterlimit="8" stroke-opacity="1" fill="none"/><text fill="#000000" fill-opacity="1" font-family="Arial,Arial_MSFontService,sans-serif" font-style="normal" font-variant="normal" font-weight="400" font-stretch="normal" font-size="55" text-anchor="start" direction="ltr" writing-mode="lr-tb" unicode-bidi="normal" text-decoration="none" transform="matrix(1 0 0 1 2165.58 402)">Public subnet</text><g><g><g><path d="M0 0 122 0 122 122 0 122Z" fill="#7AA116" fill-rule="evenodd" fill-opacity="1" transform="matrix(1 0 0 1.0082 1984 316)"/><path d="M59.5848 67.2495C62.9581 67.2495 65.7031 69.9914 65.7031 73.3647 65.7031 76.738 62.9581 79.483 59.5848 79.483 56.2115 79.483 53.4665 76.738 53.4665 73.3647 53.4665 69.9914 56.2115 67.2495 59.5848 67.2495L59.5848 67.2495ZM57.9866 82.3714 57.9866 93.0281 61.0366 93.0281 61.0366 82.3866C65.3981 81.6851 68.7531 77.9245 68.7531 73.3647 68.7531 68.3109 64.6387 64.1995 59.5848 64.1995 54.531 64.1995 50.4165 68.3109 50.4165 73.3647 50.4165 77.8726 53.6922 81.6089 57.9866 82.3714ZM30.5 100.693 88.4866 100.693 88.4866 54.9 30.5 54.9 30.5 100.693ZM42.8403 38.0762C42.8403 28.853 50.3433 21.35 59.5635 21.35 68.7867 21.35 76.2866 28.853 76.2866 38.0762L76.2866 51.85 42.8403 51.85 42.8403 38.0762ZM90.0116 51.85 79.3366 51.85 79.3366 38.0762C79.3366 27.1694 70.4642 18.3 59.5635 18.3 48.6597 18.3 39.7903 27.1694 39.7903 38.0762L39.7903 51.85 28.975 51.85C28.1302 51.85 27.45 52.5332 27.45 53.375L27.45 102.218C27.45 103.06 28.1302 103.743 28.975 103.743L90.0116 103.743C90.8534 103.743 91.5366 103.06 91.5366 102.218L91.5366 53.375C91.5366 52.5332 90.8534 51.85 90.0116 51.85Z" fill="#FFFFFF" fill-rule="evenodd" fill-opacity="1" transform="matrix(1 0 0 1.0082 1984 316)"/></g></g></g><g><g><g><path d="M710.92 659.924 705.77 659.924 705.77 599.162C705.77 597.812 704.976 596.584 703.746 596.031L703.43 595.886C696.524 592.769 689.377 589.541 679.106 589.541 668.37 589.541 660.492 593.009 652.702 596.877 651.534 597.457 650.794 598.65 650.794 599.956L650.794 659.924 645.765 659.924 645.765 595.072C654.132 588.269 666.195 584.391 679.14 584.391 691.175 584.391 702.649 587.819 710.92 593.838L710.92 659.924ZM679.14 577.516C663.929 577.516 649.684 582.394 640.052 590.906 639.313 591.555 638.89 592.494 638.89 593.48L638.89 663.361C638.89 665.262 640.427 666.799 642.328 666.799L654.232 666.799C656.133 666.799 657.669 665.262 657.669 663.361L657.669 602.098C664.266 598.911 670.66 596.416 679.106 596.416 687.132 596.416 692.969 598.736 698.895 601.386L698.895 663.361C698.895 665.262 700.432 666.799 702.333 666.799L714.357 666.799C716.258 666.799 717.795 665.262 717.795 663.361L717.795 592.136C717.795 591.091 717.317 590.101 716.495 589.445 706.96 581.865 693.344 577.516 679.14 577.516ZM678.343 689.937C640.523 689.937 609.747 659.164 609.747 621.341 609.747 583.518 640.523 552.749 678.343 552.749 716.165 552.749 746.938 583.518 746.938 621.341 746.938 659.164 716.165 689.937 678.343 689.937ZM678.343 545.874C636.728 545.874 602.872 579.73 602.872 621.341 602.872 662.959 636.728 696.812 678.343 696.812 719.957 696.812 753.813 662.959 753.813 621.341 753.813 579.73 719.957 545.874 678.343 545.874Z" fill="#8C4FFF" fill-rule="evenodd" fill-opacity="1"/></g></g></g><text fill="#000000" fill-opacity="1" font-family="Arial,Arial_MSFontService,sans-serif" font-style="normal" font-variant="normal" font-weight="400" font-stretch="normal" font-size="55" text-anchor="start" direction="ltr" writing-mode="lr-tb" unicode-bidi="normal" text-decoration="none" transform="matrix(1 0 0 1 475.873 773)">Internet gateway</text><text fill="#000000" fill-opacity="1" font-family="Calibri,Calibri_MSFontService,sans-serif" font-style="normal" font-variant="normal" font-weight="400" font-stretch="normal" font-size="55" text-anchor="start" direction="ltr" writing-mode="lr-tb" unicode-bidi="normal" text-decoration="none" transform="matrix(1 0 0 1 1133.57 710)">Outbound internet traffic</text><text fill="#000000" fill-opacity="1" font-family="Calibri,Calibri_MSFontService,sans-serif" font-style="normal" font-variant="normal" font-weight="400" font-stretch="normal" font-size="55" text-anchor="start" direction="ltr" writing-mode="lr-tb" unicode-bidi="normal" text-decoration="none" transform="matrix(1 0 0 1 2139.25 710)">Outbound internet traffic</text><path d="M0.00134344-7.44792 1851.48-7.11395 1851.47 7.78188-0.00134344 7.44792ZM1844.03-22.0111 1888.71 0.340682 1844.02 22.6764Z" fill="#767171" fill-rule="nonzero" fill-opacity="1" transform="matrix(-1 0 0 1 2650.21 621.5)"/></g></g></svg>