<svg width="2324" height="1417" xmlns="http://www.w3.org/2000/svg" xmlns:xlink="http://www.w3.org/1999/xlink" xml:space="preserve" overflow="hidden"><defs><clipPath id="clip0"><rect x="279" y="517" width="2324" height="1417"/></clipPath><clipPath id="clip1"><rect x="1725" y="1360" width="140" height="139"/></clipPath><clipPath id="clip2"><rect x="1725" y="1360" width="140" height="139"/></clipPath><clipPath id="clip3"><rect x="1725" y="1360" width="140" height="139"/></clipPath><clipPath id="clip4"><rect x="906" y="1360" width="137" height="139"/></clipPath><clipPath id="clip5"><rect x="906" y="1360" width="137" height="139"/></clipPath><clipPath id="clip6"><rect x="906" y="1360" width="137" height="139"/></clipPath><clipPath id="clip7"><rect x="1728" y="830" width="137" height="138"/></clipPath><clipPath id="clip8"><rect x="1728" y="830" width="137" height="138"/></clipPath><clipPath id="clip9"><rect x="1728" y="830" width="137" height="138"/></clipPath><clipPath id="clip10"><rect x="906" y="830" width="137" height="138"/></clipPath><clipPath id="clip11"><rect x="906" y="830" width="137" height="138"/></clipPath><clipPath id="clip12"><rect x="906" y="830" width="137" height="138"/></clipPath><clipPath id="clip13"><rect x="349" y="662" width="140" height="137"/></clipPath><clipPath id="clip14"><rect x="349" y="662" width="140" height="137"/></clipPath><clipPath id="clip15"><rect x="349" y="662" width="140" height="137"/></clipPath><clipPath id="clip16"><rect x="1204" y="1544" width="166" height="166"/></clipPath><clipPath id="clip17"><rect x="1204" y="1544" width="166" height="166"/></clipPath><clipPath id="clip18"><rect x="1204" y="1544" width="166" height="166"/></clipPath><clipPath id="clip19"><rect x="2036" y="1545" width="166" height="166"/></clipPath><clipPath id="clip20"><rect x="2036" y="1545" width="166" height="166"/></clipPath><clipPath id="clip21"><rect x="2036" y="1545" width="166" height="166"/></clipPath><clipPath id="clip22"><rect x="518" y="969" width="170" height="170"/></clipPath><clipPath id="clip23"><rect x="518" y="969" width="170" height="170"/></clipPath><clipPath id="clip24"><rect x="518" y="969" width="170" height="170"/></clipPath><clipPath id="clip25"><rect x="1191" y="979" width="166" height="165"/></clipPath><clipPath id="clip26"><rect x="1191" y="979" width="166" height="165"/></clipPath><clipPath id="clip27"><rect x="1191" y="979" width="166" height="165"/></clipPath><clipPath id="clip28"><rect x="1191" y="979" width="166" height="165"/></clipPath><clipPath id="clip29"><rect x="1194" y="979" width="163" height="162"/></clipPath><clipPath id="clip30"><rect x="1194" y="979" width="163" height="162"/></clipPath><clipPath id="clip31"><rect x="1194" y="979" width="163" height="162"/></clipPath><clipPath id="clip32"><rect x="2049" y="976" width="166" height="166"/></clipPath><clipPath id="clip33"><rect x="2049" y="976" width="166" height="166"/></clipPath><clipPath id="clip34"><rect x="2049" y="976" width="166" height="166"/></clipPath><clipPath id="clip35"><rect x="2049" y="976" width="166" height="166"/></clipPath><clipPath id="clip36"><rect x="2052" y="976" width="163" height="163"/></clipPath><clipPath id="clip37"><rect x="2052" y="976" width="163" height="163"/></clipPath><clipPath id="clip38"><rect x="2052" y="976" width="163" height="163"/></clipPath></defs><g clip-path="url(#clip0)" transform="translate(-279 -517)"><rect x="1728" y="1360" width="760" height="447" fill="#E2F0D9" fill-opacity="0.2"/><g clip-path="url(#clip1)"><g clip-path="url(#clip2)"><g clip-path="url(#clip3)"><path d="M0 0 137 0 137 137 0 137Z" fill="#6CAE3E" fill-rule="evenodd" fill-opacity="1" transform="matrix(1.0073 0 0 1 1726 1361)"/><path d="M66.9109 75.5179C70.6989 75.5179 73.7814 78.597 73.7814 82.385 73.7814 86.1731 70.6989 89.2556 66.9109 89.2556 63.1228 89.2556 60.0403 86.1731 60.0403 82.385 60.0403 78.597 63.1228 75.5179 66.9109 75.5179L66.9109 75.5179ZM65.1162 92.4991 65.1162 104.466 68.5412 104.466 68.5412 92.5162C73.4389 91.7285 77.2064 87.5054 77.2064 82.385 77.2064 76.7098 72.5861 72.0929 66.9109 72.0929 61.2356 72.0929 56.6153 76.7098 56.6153 82.385 56.6153 87.4472 60.2938 91.6428 65.1162 92.4991ZM34.25 113.073 99.3662 113.073 99.3662 61.6501 34.25 61.6501 34.25 113.073ZM48.1076 42.7578C48.1076 32.4005 56.5331 23.975 66.8869 23.975 77.2441 23.975 85.6662 32.4005 85.6662 42.7578L85.6662 58.2251 48.1076 58.2251 48.1076 42.7578ZM101.079 58.2251 89.0912 58.2251 89.0912 42.7578C89.0912 30.5099 79.1279 20.55 66.8869 20.55 54.6425 20.55 44.6826 30.5099 44.6826 42.7578L44.6826 58.2251 32.5375 58.2251C31.5888 58.2251 30.825 58.9923 30.825 59.9376L30.825 114.786C30.825 115.731 31.5888 116.498 32.5375 116.498L101.079 116.498C102.024 116.498 102.791 115.731 102.791 114.786L102.791 59.9376C102.791 58.9923 102.024 58.2251 101.079 58.2251Z" fill="#232F3E" fill-rule="evenodd" fill-opacity="1" transform="matrix(1.0073 0 0 1 1726 1361)"/></g></g></g><rect x="907" y="1360" width="761" height="447" fill="#E2F0D9" fill-opacity="0.2"/><g clip-path="url(#clip4)"><g clip-path="url(#clip5)"><g clip-path="url(#clip6)"><path d="M0 0 137 0 137 137 0 137Z" fill="#6CAE3E" fill-rule="evenodd" fill-opacity="1" transform="matrix(1 0 0 1 906 1361)"/><path d="M66.9107 75.5177C70.6988 75.5177 73.7812 78.5968 73.7812 82.3848 73.7812 86.1729 70.6988 89.2554 66.9107 89.2554 63.1227 89.2554 60.0402 86.1729 60.0402 82.3848 60.0402 78.5968 63.1227 75.5177 66.9107 75.5177L66.9107 75.5177ZM65.116 92.4988 65.116 104.466 68.541 104.466 68.541 92.516C73.4387 91.7282 77.2062 87.5052 77.2062 82.3848 77.2062 76.7096 72.5859 72.0927 66.9107 72.0927 61.2355 72.0927 56.6152 76.7096 56.6152 82.3848 56.6152 87.447 60.2936 91.6426 65.116 92.4988ZM34.25 113.073 99.366 113.073 99.366 61.6499 34.25 61.6499 34.25 113.073ZM48.1075 42.7576C48.1075 32.4005 56.533 23.975 66.8867 23.975 77.2439 23.975 85.666 32.4005 85.666 42.7576L85.666 58.2249 48.1075 58.2249 48.1075 42.7576ZM101.078 58.2249 89.091 58.2249 89.091 42.7576C89.091 30.5099 79.1277 20.55 66.8867 20.55 54.6424 20.55 44.6825 30.5099 44.6825 42.7576L44.6825 58.2249 32.5375 58.2249C31.5887 58.2249 30.825 58.9921 30.825 59.9374L30.825 114.785C30.825 115.731 31.5887 116.498 32.5375 116.498L101.078 116.498C102.024 116.498 102.791 115.731 102.791 114.785L102.791 59.9374C102.791 58.9921 102.024 58.2249 101.078 58.2249Z" fill="#232F3E" fill-rule="evenodd" fill-opacity="1" transform="matrix(1 0 0 1 906 1361)"/></g></g></g><rect x="1729" y="829" width="761" height="447" fill="#E2F0D9" fill-opacity="0.2"/><text fill="#6CAE3E" fill-opacity="1" font-family="Arial,Arial_MSFontService,sans-serif" font-style="normal" font-variant="normal" font-weight="400" font-stretch="normal" font-size="55" text-anchor="start" direction="ltr" writing-mode="lr-tb" unicode-bidi="normal" text-decoration="none" transform="matrix(1 0 0 1 1902.33 899)">Public subnet</text><g clip-path="url(#clip7)"><g clip-path="url(#clip8)"><g clip-path="url(#clip9)"><path d="M0 0 137 0 137 137 0 137Z" fill="#6CAE3E" fill-rule="evenodd" fill-opacity="1" transform="matrix(1 0 0 1.0073 1728 830)"/><path d="M66.9107 75.5177C70.6988 75.5177 73.7812 78.5968 73.7812 82.3848 73.7812 86.1729 70.6988 89.2554 66.9107 89.2554 63.1227 89.2554 60.0402 86.1729 60.0402 82.3848 60.0402 78.5968 63.1227 75.5177 66.9107 75.5177L66.9107 75.5177ZM65.116 92.4988 65.116 104.466 68.541 104.466 68.541 92.516C73.4387 91.7282 77.2062 87.5052 77.2062 82.3848 77.2062 76.7096 72.5859 72.0927 66.9107 72.0927 61.2355 72.0927 56.6152 76.7096 56.6152 82.3848 56.6152 87.447 60.2936 91.6426 65.116 92.4988ZM34.25 113.073 99.366 113.073 99.366 61.6499 34.25 61.6499 34.25 113.073ZM48.1075 42.7576C48.1075 32.4005 56.533 23.975 66.8867 23.975 77.2439 23.975 85.666 32.4005 85.666 42.7576L85.666 58.2249 48.1075 58.2249 48.1075 42.7576ZM101.078 58.2249 89.091 58.2249 89.091 42.7576C89.091 30.5099 79.1277 20.55 66.8867 20.55 54.6424 20.55 44.6825 30.5099 44.6825 42.7576L44.6825 58.2249 32.5375 58.2249C31.5887 58.2249 30.825 58.9921 30.825 59.9374L30.825 114.785C30.825 115.731 31.5887 116.498 32.5375 116.498L101.078 116.498C102.024 116.498 102.791 115.731 102.791 114.785L102.791 59.9374C102.791 58.9921 102.024 58.2249 101.078 58.2249Z" fill="#232F3E" fill-rule="evenodd" fill-opacity="1" transform="matrix(1 0 0 1.0073 1728 830)"/></g></g></g><rect x="907" y="829" width="761" height="447" fill="#E2F0D9" fill-opacity="0.2"/><text fill="#6CAE3E" fill-opacity="1" font-family="Arial,Arial_MSFontService,sans-serif" font-style="normal" font-variant="normal" font-weight="400" font-stretch="normal" font-size="55" text-anchor="start" direction="ltr" writing-mode="lr-tb" unicode-bidi="normal" text-decoration="none" transform="matrix(1 0 0 1 1080.61 899)">Public subnet</text><g clip-path="url(#clip10)"><g clip-path="url(#clip11)"><g clip-path="url(#clip12)"><path d="M0 0 137 0 137 137 0 137Z" fill="#6CAE3E" fill-rule="evenodd" fill-opacity="1" transform="matrix(1 0 0 1.0073 906 830)"/><path d="M66.9107 75.5177C70.6988 75.5177 73.7812 78.5968 73.7812 82.3848 73.7812 86.1729 70.6988 89.2554 66.9107 89.2554 63.1227 89.2554 60.0402 86.1729 60.0402 82.3848 60.0402 78.5968 63.1227 75.5177 66.9107 75.5177L66.9107 75.5177ZM65.116 92.4988 65.116 104.466 68.541 104.466 68.541 92.516C73.4387 91.7282 77.2062 87.5052 77.2062 82.3848 77.2062 76.7096 72.5859 72.0927 66.9107 72.0927 61.2355 72.0927 56.6152 76.7096 56.6152 82.3848 56.6152 87.447 60.2936 91.6426 65.116 92.4988ZM34.25 113.073 99.366 113.073 99.366 61.6499 34.25 61.6499 34.25 113.073ZM48.1075 42.7576C48.1075 32.4005 56.533 23.975 66.8867 23.975 77.2439 23.975 85.666 32.4005 85.666 42.7576L85.666 58.2249 48.1075 58.2249 48.1075 42.7576ZM101.078 58.2249 89.091 58.2249 89.091 42.7576C89.091 30.5099 79.1277 20.55 66.8867 20.55 54.6424 20.55 44.6825 30.5099 44.6825 42.7576L44.6825 58.2249 32.5375 58.2249C31.5887 58.2249 30.825 58.9921 30.825 59.9374L30.825 114.785C30.825 115.731 31.5887 116.498 32.5375 116.498L101.078 116.498C102.024 116.498 102.791 115.731 102.791 114.785L102.791 59.9374C102.791 58.9921 102.024 58.2249 101.078 58.2249Z" fill="#232F3E" fill-rule="evenodd" fill-opacity="1" transform="matrix(1 0 0 1.0073 906 830)"/></g></g></g><rect x="350.5" y="662.5" width="2250" height="1192" stroke="#70AD47" stroke-width="4.58333" stroke-linecap="butt" stroke-linejoin="miter" stroke-miterlimit="8" stroke-opacity="1" fill="none"/><text fill="#000000" fill-opacity="1" font-family="Arial,Arial_MSFontService,sans-serif" font-style="normal" font-variant="normal" font-weight="400" font-stretch="normal" font-size="55" text-anchor="start" direction="ltr" writing-mode="lr-tb" unicode-bidi="normal" text-decoration="none" transform="matrix(1 0 0 1 531.525 748)">VPC</text><rect x="893.5" y="523.5" width="789" height="1404" stroke="#00A0C8" stroke-width="4.58333" stroke-linecap="butt" stroke-linejoin="miter" stroke-miterlimit="8" stroke-dasharray="18.3333 13.75" stroke-opacity="1" fill="none"/><text fill="#000000" fill-opacity="1" font-family="Arial,Arial_MSFontService,sans-serif" font-style="normal" font-variant="normal" font-weight="400" font-stretch="normal" font-size="55" text-anchor="start" direction="ltr" writing-mode="lr-tb" unicode-bidi="normal" text-decoration="none" transform="matrix(1 0 0 1 1065.54 609)">Availability Zone 1</text><rect x="1715.5" y="523.5" width="790" height="1404" stroke="#00A0C8" stroke-width="4.58333" stroke-linecap="butt" stroke-linejoin="miter" stroke-miterlimit="8" stroke-dasharray="18.3333 13.75" stroke-opacity="1" fill="none"/><text fill="#000000" fill-opacity="1" font-family="Arial,Arial_MSFontService,sans-serif" font-style="normal" font-variant="normal" font-weight="400" font-stretch="normal" font-size="55" text-anchor="start" direction="ltr" writing-mode="lr-tb" unicode-bidi="normal" text-decoration="none" transform="matrix(1 0 0 1 1888.08 609)">Availability Zone 2</text><text fill="#000000" fill-opacity="1" font-family="Arial,Arial_MSFontService,sans-serif" font-style="normal" font-variant="normal" font-weight="400" font-stretch="normal" font-size="50" text-anchor="start" direction="ltr" writing-mode="lr-tb" unicode-bidi="normal" text-decoration="none" transform="matrix(1 0 0 1 1135.92 1192)">NAT gateway</text><text fill="#000000" fill-opacity="1" font-family="Arial,Arial_MSFontService,sans-serif" font-style="normal" font-variant="normal" font-weight="400" font-stretch="normal" font-size="50" text-anchor="start" direction="ltr" writing-mode="lr-tb" unicode-bidi="normal" text-decoration="none" transform="matrix(1 0 0 1 1972.85 1192)">NAT gateway</text><g clip-path="url(#clip13)"><g clip-path="url(#clip14)"><g clip-path="url(#clip15)"><path d="M0 0 137 0 137 137 0 137Z" fill="#6CAE3E" fill-rule="evenodd" fill-opacity="1" transform="matrix(1.0073 0 0 1 350 662)"/><path d="M99.3009 95.8827 39.3429 95.8177C31.2394 95.8108 24.5024 89.4917 24.0161 81.4293 23.9887 81.008 23.975 80.5764 23.975 80.1346 23.975 69.524 31.1366 66.0579 35.4042 64.9345 36.2262 64.7187 36.7673 63.931 36.6714 63.085 36.5652 62.1602 36.507 61.2218 36.507 60.2662 36.507 51.827 42.1548 42.7508 49.3713 39.6032 52.6045 38.1887 55.5945 37.627 58.3037 37.627 66.0202 37.627 71.4694 42.1788 73.8463 44.638 76.4767 47.354 78.5249 50.8201 79.9394 54.9438 80.1449 55.55 80.6758 55.9884 81.3094 56.0809 81.919 56.1733 82.5732 55.9062 82.95 55.3856 84.9639 52.5737 88.2484 51.3133 91.3069 52.1935 95.1532 53.2929 97.6672 57.2899 98.0234 62.7014 97.8795 63.6227 98.4994 64.4892 99.4173 64.6536 103.51 65.3797 113.025 68.3526 113.025 80.2819 113.025 94.4922 99.7153 95.8382 99.3009 95.8827ZM101.359 61.5609C100.623 55.0294 97.2699 50.3337 92.2488 48.9021 88.7039 47.8883 84.9776 48.7891 82.1622 51.2037 80.6689 47.7307 78.703 44.7304 76.3089 42.2576 68.5787 34.2671 57.9954 32.0991 47.9979 36.4625 39.4936 40.1752 33.082 50.4091 33.082 60.2662 33.082 60.8622 33.1026 61.4547 33.1403 62.0404 28.4925 63.6124 20.55 68.0718 20.55 80.1346 20.55 80.6552 20.5637 81.1587 20.5979 81.645 21.1939 91.5022 29.431 99.2324 39.3395 99.2427L99.4413 99.3009C99.6126 99.2872 116.45 97.6774 116.45 80.2819 116.45 66.7943 106.185 62.7254 101.359 61.5609ZM58.2249 85.6078 75.3499 85.6078 75.3499 71.9078 58.2249 71.9078 58.2249 85.6078ZM61.6499 66.7703C61.6499 63.9378 63.9549 61.6328 66.7874 61.6328 69.6199 61.6328 71.9249 63.9378 71.9249 66.7703L71.9249 68.4828 61.6499 68.4828 61.6499 66.7703ZM77.0624 68.4828 75.3499 68.4828 75.3499 66.7703C75.3499 62.0506 71.5105 58.2078 66.7874 58.2078 62.0643 58.2078 58.2249 62.0506 58.2249 66.7703L58.2249 68.4828 56.5124 68.4828C55.5637 68.4828 54.7999 69.25 54.7999 70.1953L54.7999 87.3203C54.7999 88.2655 55.5637 89.0328 56.5124 89.0328L77.0624 89.0328C78.0077 89.0328 78.7749 88.2655 78.7749 87.3203L78.7749 70.1953C78.7749 69.25 78.0077 68.4828 77.0624 68.4828Z" fill="#232F3E" fill-rule="evenodd" fill-opacity="1" transform="matrix(1.0073 0 0 1 350 662)"/></g></g></g><text fill="#6CAE3E" fill-opacity="1" font-family="Arial,Arial_MSFontService,sans-serif" font-style="normal" font-variant="normal" font-weight="400" font-stretch="normal" font-size="55" text-anchor="start" direction="ltr" writing-mode="lr-tb" unicode-bidi="normal" text-decoration="none" transform="matrix(1 0 0 1 1080.61 1429)">Private subnet</text><text fill="#6CAE3E" fill-opacity="1" font-family="Arial,Arial_MSFontService,sans-serif" font-style="normal" font-variant="normal" font-weight="400" font-stretch="normal" font-size="55" text-anchor="start" direction="ltr" writing-mode="lr-tb" unicode-bidi="normal" text-decoration="none" transform="matrix(1 0 0 1 1901.17 1429)">Private subnet</text><g clip-path="url(#clip16)"><g clip-path="url(#clip17)"><g clip-path="url(#clip18)"><path d="M1268.84 1644.49 1304.04 1644.49 1304.04 1609.29 1268.84 1609.29 1268.84 1644.49ZM1264.97 1650.61 1264.97 1656.95 1271.85 1656.95 1271.85 1651.37 1276.99 1651.37 1276.99 1656.95 1283.87 1656.95 1283.87 1651.37 1289.01 1651.37 1289.01 1656.95 1295.89 1656.95 1295.89 1651.37 1301.03 1651.37 1301.03 1656.95 1307.91 1656.95 1307.91 1650.61C1308.85 1650.08 1309.63 1649.31 1310.16 1648.36L1316.49 1648.36 1316.49 1641.49 1310.91 1641.49 1310.91 1636.34 1316.49 1636.34 1316.49 1629.47 1310.91 1629.47 1310.91 1624.32 1316.49 1624.32 1316.49 1617.44 1310.91 1617.44 1310.91 1612.3 1316.49 1612.3 1316.49 1605.42 1310.16 1605.42C1309.63 1604.48 1308.85 1603.7 1307.91 1603.17L1307.91 1596.84 1301.03 1596.84 1301.03 1602.42 1295.89 1602.42 1295.89 1596.84 1289.01 1596.84 1289.01 1602.42 1283.87 1602.42 1283.87 1596.84 1276.99 1596.84 1276.99 1602.42 1271.85 1602.42 1271.85 1596.84 1264.97 1596.84 1264.97 1603.17C1264.02 1603.7 1263.25 1604.48 1262.72 1605.42L1256.39 1605.42 1256.39 1612.3 1261.97 1612.3 1261.97 1617.44 1256.39 1617.44 1256.39 1624.32 1261.97 1624.32 1261.97 1629.47 1256.39 1629.47 1256.39 1636.34 1261.97 1636.34 1261.97 1641.49 1256.39 1641.49 1256.39 1648.36 1262.72 1648.36C1263.25 1649.31 1264.02 1650.08 1264.97 1650.61ZM1340.1 1659.95 1346.98 1659.95 1346.98 1593.84 1340.1 1593.84 1340.1 1659.95ZM1322.07 1659.95 1328.94 1659.95 1328.94 1593.84 1322.07 1593.84 1322.07 1659.95ZM1243.93 1659.95 1250.81 1659.95 1250.81 1593.84 1243.93 1593.84 1243.93 1659.95ZM1225.9 1659.95 1232.78 1659.95 1232.78 1593.84 1225.9 1593.84 1225.9 1659.95ZM1217.75 1668.53 1355.13 1668.53 1355.13 1585.25 1217.75 1585.25 1217.75 1668.53ZM1358.56 1578.38 1214.31 1578.38C1212.42 1578.38 1210.88 1579.91 1210.88 1581.81L1210.88 1671.97C1210.88 1673.87 1212.42 1675.41 1214.31 1675.41L1358.56 1675.41C1360.46 1675.41 1362 1673.87 1362 1671.97L1362 1581.81C1362 1579.91 1360.46 1578.38 1358.56 1578.38Z" fill="#FF9900" fill-rule="evenodd" fill-opacity="1"/></g></g></g><g clip-path="url(#clip19)"><g clip-path="url(#clip20)"><g clip-path="url(#clip21)"><path d="M2100.84 1646.49 2136.04 1646.49 2136.04 1611.29 2100.84 1611.29 2100.84 1646.49ZM2096.97 1652.61 2096.97 1658.95 2103.85 1658.95 2103.85 1653.37 2108.99 1653.37 2108.99 1658.95 2115.87 1658.95 2115.87 1653.37 2121.01 1653.37 2121.01 1658.95 2127.89 1658.95 2127.89 1653.37 2133.03 1653.37 2133.03 1658.95 2139.91 1658.95 2139.91 1652.61C2140.85 1652.08 2141.63 1651.31 2142.16 1650.36L2148.49 1650.36 2148.49 1643.49 2142.91 1643.49 2142.91 1638.34 2148.49 1638.34 2148.49 1631.47 2142.91 1631.47 2142.91 1626.32 2148.49 1626.32 2148.49 1619.44 2142.91 1619.44 2142.91 1614.3 2148.49 1614.3 2148.49 1607.42 2142.16 1607.42C2141.63 1606.48 2140.85 1605.7 2139.91 1605.17L2139.91 1598.84 2133.03 1598.84 2133.03 1604.42 2127.89 1604.42 2127.89 1598.84 2121.01 1598.84 2121.01 1604.42 2115.87 1604.42 2115.87 1598.84 2108.99 1598.84 2108.99 1604.42 2103.85 1604.42 2103.85 1598.84 2096.97 1598.84 2096.97 1605.17C2096.02 1605.7 2095.25 1606.48 2094.72 1607.42L2088.39 1607.42 2088.39 1614.3 2093.97 1614.3 2093.97 1619.44 2088.39 1619.44 2088.39 1626.32 2093.97 1626.32 2093.97 1631.47 2088.39 1631.47 2088.39 1638.34 2093.97 1638.34 2093.97 1643.49 2088.39 1643.49 2088.39 1650.36 2094.72 1650.36C2095.25 1651.31 2096.02 1652.08 2096.97 1652.61ZM2172.1 1661.95 2178.98 1661.95 2178.98 1595.84 2172.1 1595.84 2172.1 1661.95ZM2154.07 1661.95 2160.94 1661.95 2160.94 1595.84 2154.07 1595.84 2154.07 1661.95ZM2075.93 1661.95 2082.8 1661.95 2082.8 1595.84 2075.93 1595.84 2075.93 1661.95ZM2057.9 1661.95 2064.78 1661.95 2064.78 1595.84 2057.9 1595.84 2057.9 1661.95ZM2049.75 1670.53 2187.13 1670.53 2187.13 1587.25 2049.75 1587.25 2049.75 1670.53ZM2190.56 1580.37 2046.31 1580.37C2044.42 1580.37 2042.88 1581.91 2042.88 1583.81L2042.88 1673.97C2042.88 1675.87 2044.42 1677.41 2046.31 1677.41L2190.56 1677.41C2192.46 1677.41 2194 1675.87 2194 1673.97L2194 1583.81C2194 1581.91 2192.46 1580.37 2190.56 1580.37Z" fill="#FF9900" fill-rule="evenodd" fill-opacity="1"/></g></g></g><text fill="#000000" fill-opacity="1" font-family="Arial,Arial_MSFontService,sans-serif" font-style="normal" font-variant="normal" font-weight="400" font-stretch="normal" font-size="50" text-anchor="start" direction="ltr" writing-mode="lr-tb" unicode-bidi="normal" text-decoration="none" transform="matrix(1 0 0 1 1177.3 1744)">Container</text><text fill="#000000" fill-opacity="1" font-family="Arial,Arial_MSFontService,sans-serif" font-style="normal" font-variant="normal" font-weight="400" font-stretch="normal" font-size="50" text-anchor="start" direction="ltr" writing-mode="lr-tb" unicode-bidi="normal" text-decoration="none" transform="matrix(1 0 0 1 2014.96 1744)">Container</text><text fill="#000000" fill-opacity="1" font-family="Arial,Arial_MSFontService,sans-serif" font-style="normal" font-variant="normal" font-weight="400" font-stretch="normal" font-size="50" text-anchor="start" direction="ltr" writing-mode="lr-tb" unicode-bidi="normal" text-decoration="none" transform="matrix(1 0 0 1 417.101 1208)">Internet gateway</text><g clip-path="url(#clip22)"><g clip-path="url(#clip23)"><g clip-path="url(#clip24)"><path d="M636.402 1093.59 631.097 1093.59 631.097 1030.99C631.097 1029.59 630.279 1028.33 629.011 1027.76L628.685 1027.61C621.57 1024.4 614.206 1021.07 603.624 1021.07 592.563 1021.07 584.446 1024.65 576.42 1028.63 575.216 1029.23 574.455 1030.46 574.455 1031.8L574.455 1093.59 569.273 1093.59 569.273 1026.77C577.894 1019.76 590.322 1015.77 603.659 1015.77 616.059 1015.77 627.881 1019.3 636.402 1025.5L636.402 1093.59ZM603.659 1008.68C587.988 1008.68 573.311 1013.71 563.387 1022.48 562.626 1023.15 562.19 1024.11 562.19 1025.13L562.19 1097.13C562.19 1099.09 563.773 1100.67 565.732 1100.67L577.997 1100.67C579.955 1100.67 581.538 1099.09 581.538 1097.13L581.538 1034.01C588.335 1030.73 594.922 1028.16 603.624 1028.16 611.894 1028.16 617.908 1030.55 624.013 1033.28L624.013 1097.13C624.013 1099.09 625.596 1100.67 627.555 1100.67L639.944 1100.67C641.902 1100.67 643.485 1099.09 643.485 1097.13L643.485 1023.75C643.485 1022.67 642.993 1021.65 642.147 1020.97 632.322 1013.16 618.294 1008.68 603.659 1008.68ZM602.838 1124.51C563.872 1124.51 532.164 1092.81 532.164 1053.84 532.164 1014.87 563.872 983.166 602.838 983.166 641.807 983.166 673.512 1014.87 673.512 1053.84 673.512 1092.81 641.807 1124.51 602.838 1124.51ZM602.838 976.083C559.962 976.083 525.081 1010.96 525.081 1053.84 525.081 1096.72 559.962 1131.59 602.838 1131.59 645.713 1131.59 680.595 1096.72 680.595 1053.84 680.595 1010.96 645.713 976.083 602.838 976.083Z" fill="#A166FF" fill-rule="evenodd" fill-opacity="1"/></g></g></g><g clip-path="url(#clip25)"><g clip-path="url(#clip26)"><g clip-path="url(#clip27)"><g clip-path="url(#clip28)"><g clip-path="url(#clip29)"><g clip-path="url(#clip30)"><g clip-path="url(#clip31)"><path d="M1275.22 1135.72C1233.28 1135.72 1199.28 1101.72 1199.28 1059.78 1199.28 1017.84 1233.28 983.847 1275.22 983.847 1317.16 983.847 1351.15 1017.84 1351.15 1059.78 1351.12 1101.71 1317.16 1135.68 1275.22 1135.72ZM1275.22 990.309C1236.86 990.309 1205.75 1021.41 1205.75 1059.78 1205.75 1098.15 1236.86 1129.25 1275.22 1129.25 1313.58 1129.25 1344.69 1098.15 1344.69 1059.78 1344.66 1021.43 1313.58 990.344 1275.22 990.309Z" fill="#A166FF" fill-rule="nonzero" fill-opacity="1"/><path d="M1284.29 1102.4 1257.69 1102.4 1257.69 1095.94 1281.06 1095.94 1281.06 1029.7 1257.69 1029.7 1257.69 1023.24 1284.29 1023.24C1286.08 1023.24 1287.52 1024.68 1287.52 1026.47L1287.52 1099.17C1287.52 1100.96 1286.08 1102.4 1284.29 1102.4Z" fill="#A166FF" fill-rule="nonzero" fill-opacity="1"/><path d="M1257.07 1059.59 1314.61 1059.59 1314.61 1066.05 1257.07 1066.05Z" fill="#A166FF" fill-rule="nonzero" fill-opacity="1"/><path d="M1235.83 1041.82C1235.34 1041.81 1234.86 1041.7 1234.45 1041.49 1233.32 1040.96 1232.59 1039.83 1232.59 1038.59L1232.59 1014.35C1232.59 1013.11 1233.32 1011.98 1234.45 1011.44 1235.55 1010.9 1236.89 1011.05 1237.85 1011.83L1252.98 1023.95C1253.77 1024.56 1254.22 1025.49 1254.22 1026.47 1254.22 1027.45 1253.77 1028.38 1252.98 1028.99L1237.85 1041.11C1237.3 1041.57 1236.58 1041.82 1235.83 1041.82ZM1239.06 1021.07 1239.06 1031.86 1245.83 1026.47Z" fill="#A166FF" fill-rule="nonzero" fill-opacity="1"/><path d="M1235.83 1078.17C1235.34 1078.16 1234.86 1078.06 1234.45 1077.85 1233.32 1077.31 1232.59 1076.18 1232.59 1074.94L1232.59 1050.7C1232.59 1049.46 1233.32 1048.33 1234.45 1047.79 1235.55 1047.25 1236.89 1047.4 1237.85 1048.18L1252.98 1060.3C1253.77 1060.91 1254.22 1061.84 1254.22 1062.82 1254.22 1063.8 1253.77 1064.73 1252.98 1065.34L1237.85 1077.46C1237.3 1077.92 1236.58 1078.17 1235.83 1078.17ZM1239.06 1057.42 1239.06 1068.21 1245.83 1062.82Z" fill="#A166FF" fill-rule="nonzero" fill-opacity="1"/><path d="M1317.6 1081.17C1317.19 1081.17 1316.78 1081.1 1316.4 1080.95 1315.16 1080.45 1314.37 1079.26 1314.37 1077.94L1314.37 1047.66C1314.37 1045.88 1315.82 1044.43 1317.6 1044.42 1318.46 1044.41 1319.29 1044.75 1319.91 1045.37L1335.07 1060.52C1336.3 1061.79 1336.3 1063.82 1335.07 1065.08L1319.91 1080.23C1319.29 1080.84 1318.46 1081.18 1317.6 1081.17ZM1320.83 1055.32 1320.83 1070.03 1328.23 1062.69Z" fill="#A166FF" fill-rule="nonzero" fill-opacity="1"/><path d="M1235.83 1111.48C1235.34 1111.48 1234.86 1111.37 1234.45 1111.16 1233.32 1110.63 1232.59 1109.49 1232.59 1108.25L1232.59 1084.02C1232.59 1082.23 1234.04 1080.78 1235.83 1080.77 1236.55 1080.77 1237.3 1081.03 1237.85 1081.5L1252.98 1093.61C1254.39 1094.73 1254.59 1096.76 1253.49 1098.15 1253.32 1098.34 1253.18 1098.5 1252.98 1098.65L1237.85 1110.77C1237.3 1111.23 1236.58 1111.48 1235.83 1111.48ZM1239.06 1090.74 1239.06 1101.53 1245.83 1096.13Z" fill="#A166FF" fill-rule="nonzero" fill-opacity="1"/></g></g></g></g></g></g></g><g clip-path="url(#clip32)"><g clip-path="url(#clip33)"><g clip-path="url(#clip34)"><g clip-path="url(#clip35)"><g clip-path="url(#clip36)"><g clip-path="url(#clip37)"><g clip-path="url(#clip38)"><path d="M2133.22 1133.72C2091.28 1133.72 2057.28 1099.72 2057.28 1057.78 2057.28 1015.84 2091.28 981.847 2133.22 981.847 2175.16 981.847 2209.15 1015.84 2209.15 1057.78 2209.12 1099.7 2175.16 1133.68 2133.22 1133.72ZM2133.22 988.309C2094.86 988.309 2063.75 1019.41 2063.75 1057.78 2063.75 1096.15 2094.86 1127.25 2133.22 1127.25 2171.58 1127.25 2202.69 1096.15 2202.69 1057.78 2202.66 1019.43 2171.58 988.344 2133.22 988.309Z" fill="#A166FF" fill-rule="nonzero" fill-opacity="1"/><path d="M2142.29 1100.4 2115.69 1100.4 2115.69 1093.94 2139.06 1093.94 2139.06 1027.7 2115.69 1027.7 2115.69 1021.24 2142.29 1021.24C2144.08 1021.24 2145.52 1022.68 2145.52 1024.47L2145.52 1097.17C2145.52 1098.96 2144.08 1100.4 2142.29 1100.4Z" fill="#A166FF" fill-rule="nonzero" fill-opacity="1"/><path d="M2115.07 1057.59 2172.61 1057.59 2172.61 1064.05 2115.07 1064.05Z" fill="#A166FF" fill-rule="nonzero" fill-opacity="1"/><path d="M2093.83 1039.82C2093.34 1039.81 2092.86 1039.7 2092.45 1039.49 2091.32 1038.96 2090.59 1037.83 2090.59 1036.59L2090.59 1012.35C2090.59 1011.11 2091.32 1009.98 2092.45 1009.44 2093.55 1008.9 2094.89 1009.05 2095.85 1009.83L2110.98 1021.95C2111.77 1022.56 2112.22 1023.49 2112.22 1024.47 2112.22 1025.45 2111.77 1026.38 2110.98 1026.99L2095.85 1039.11C2095.3 1039.57 2094.58 1039.82 2093.83 1039.82ZM2097.06 1019.07 2097.06 1029.86 2103.83 1024.47Z" fill="#A166FF" fill-rule="nonzero" fill-opacity="1"/><path d="M2093.83 1076.17C2093.34 1076.16 2092.86 1076.05 2092.45 1075.85 2091.32 1075.31 2090.59 1074.18 2090.59 1072.94L2090.59 1048.7C2090.59 1047.46 2091.32 1046.33 2092.45 1045.79 2093.55 1045.25 2094.89 1045.4 2095.85 1046.18L2110.98 1058.3C2111.77 1058.91 2112.22 1059.84 2112.22 1060.82 2112.22 1061.8 2111.77 1062.73 2110.98 1063.34L2095.85 1075.46C2095.3 1075.92 2094.58 1076.17 2093.83 1076.17ZM2097.06 1055.42 2097.06 1066.21 2103.83 1060.82Z" fill="#A166FF" fill-rule="nonzero" fill-opacity="1"/><path d="M2175.6 1079.17C2175.19 1079.17 2174.78 1079.1 2174.4 1078.95 2173.16 1078.45 2172.37 1077.26 2172.37 1075.94L2172.37 1045.66C2172.37 1043.88 2173.82 1042.43 2175.6 1042.42 2176.46 1042.41 2177.29 1042.75 2177.91 1043.37L2193.07 1058.52C2194.3 1059.79 2194.3 1061.82 2193.07 1063.08L2177.91 1078.23C2177.29 1078.84 2176.46 1079.18 2175.6 1079.17ZM2178.83 1053.32 2178.83 1068.03 2186.23 1060.69Z" fill="#A166FF" fill-rule="nonzero" fill-opacity="1"/><path d="M2093.83 1109.48C2093.34 1109.48 2092.86 1109.37 2092.45 1109.16 2091.32 1108.63 2090.59 1107.49 2090.59 1106.25L2090.59 1082.02C2090.59 1080.23 2092.04 1078.78 2093.83 1078.77 2094.55 1078.77 2095.3 1079.02 2095.85 1079.5L2110.98 1091.61C2112.39 1092.73 2112.59 1094.76 2111.49 1096.15 2111.32 1096.34 2111.18 1096.5 2110.98 1096.65L2095.85 1108.77C2095.3 1109.23 2094.58 1109.48 2093.83 1109.48ZM2097.06 1088.74 2097.06 1099.53 2103.83 1094.13Z" fill="#A166FF" fill-rule="nonzero" fill-opacity="1"/></g></g></g></g></g></g></g></g></svg>