<svg width="2654" height="1590" xmlns="http://www.w3.org/2000/svg" xmlns:xlink="http://www.w3.org/1999/xlink" xml:space="preserve" overflow="hidden"><g transform="translate(-366 -192)"><g><rect x="970" y="1033" width="912" height="609" stroke="#7AA116" stroke-width="5.72917" stroke-linecap="butt" stroke-linejoin="miter" stroke-miterlimit="8" stroke-opacity="1" fill="none"/><text fill="#000000" fill-opacity="1" font-family="Arial,Arial_MSFontService,sans-serif" font-style="normal" font-variant="normal" font-weight="400" font-stretch="normal" font-size="55" text-anchor="start" direction="ltr" writing-mode="lr-tb" unicode-bidi="normal" text-decoration="none" transform="matrix(1 0 0 1 1151.3 1596)">Private subnet</text><rect x="370.5" y="195.5" width="2644" height="1583" stroke="#8C4EFF" stroke-width="4.58333" stroke-linecap="butt" stroke-linejoin="miter" stroke-miterlimit="8" stroke-opacity="1" fill="none"/><text fill="#000000" fill-opacity="1" font-family="Arial,Arial_MSFontService,sans-serif" font-style="normal" font-variant="normal" font-weight="400" font-stretch="normal" font-size="55" text-anchor="start" direction="ltr" writing-mode="lr-tb" unicode-bidi="normal" text-decoration="none" transform="matrix(1 0 0 1 518.467 281)">VPC</text><g><g><g><path d="M369 194 491 194 491 316 369 316Z" fill="#8C4FFF" fill-rule="evenodd" fill-opacity="1"/><path d="M463.461 258.14 454.481 254.287 454.481 286.279C462.244 285.205 463.424 277.226 463.473 276.863L463.461 258.14ZM451.431 286.322 451.431 254.266 442.175 258.149 442.175 277.062C442.214 277.226 443.532 285.501 451.431 286.322ZM452.365 250.569C452.743 250.408 453.176 250.411 453.557 250.573L465.586 255.733C466.148 255.974 466.51 256.523 466.51 257.133L466.51 277.062C465.952 281.475 462.372 289.454 452.703 289.454 443.324 289.454 439.728 281.487 439.137 277.272L439.125 257.133C439.125 256.52 439.494 255.965 440.058 255.727L452.365 250.569ZM469.597 252.512 452.941 245.174 436.075 252.271 436.075 274.012C436.072 274.14 435.91 282.759 441.128 288.112 443.925 290.982 447.82 292.44 452.703 292.44 457.589 292.44 461.509 290.979 464.351 288.103 469.643 282.741 469.597 274.118 469.597 274.033L469.597 252.512ZM466.538 290.229C463.101 293.718 458.443 295.49 452.703 295.49 446.957 295.49 442.321 293.718 438.926 290.223 432.811 283.93 433.012 274.372 433.025 273.969L433.025 251.259C433.025 250.646 433.391 250.091 433.955 249.853L452.362 242.106C452.749 241.947 453.188 241.944 453.569 242.118L471.735 250.124C472.29 250.368 472.647 250.914 472.647 251.518L472.647 274.012C472.653 274.393 472.729 283.94 466.538 290.229ZM402.525 267.921 426.925 267.921 426.925 270.971 402.525 270.971C393.951 270.971 387.851 264.822 387.339 255.672 387.302 255.334 387.299 254.925 387.299 254.516 387.299 246.864 391.319 241.636 398.941 239.33 398.883 238.638 398.843 237.909 398.843 237.357 398.843 228.463 403.653 220.749 411.095 217.699 421.154 213.588 432.573 214.973 438.868 221.067 441.141 223.275 442.907 225.77 444.236 228.646 446.094 227.274 448.506 226.63 451.401 226.773 456.83 227.048 461.005 231.998 461.871 238.995 466.44 239.373 469.451 241.688 471.052 246.034L468.194 247.089C466.889 243.561 464.51 241.987 460.475 241.987 459.666 241.987 458.998 241.358 458.95 240.553 458.529 233.422 454.661 229.991 451.245 229.82 448.363 229.659 446.228 230.488 444.904 232.233 444.566 232.675 444.035 232.895 443.462 232.821 442.913 232.736 442.449 232.361 442.257 231.836 441.025 228.472 439.222 225.666 436.746 223.254 431.292 217.977 421.221 216.852 412.251 220.524 405.959 223.101 401.893 229.707 401.893 237.357 401.893 238.189 402 239.48 402.094 240.282 402.186 241.047 401.695 241.758 400.948 241.941 393.914 243.686 390.349 247.916 390.349 254.516 390.349 254.824 390.346 255.129 390.376 255.437 390.806 263.047 395.571 267.921 402.525 267.921Z" fill="#FFFFFF" fill-rule="evenodd" fill-opacity="1"/></g></g></g><g><g><g><path d="M970 1520 1092 1520 1092 1642 970 1642Z" fill="#7AA116" fill-rule="evenodd" fill-opacity="1"/><path d="M1029.58 1587.25C1032.96 1587.25 1035.7 1589.99 1035.7 1593.36 1035.7 1596.74 1032.96 1599.48 1029.58 1599.48 1026.21 1599.48 1023.47 1596.74 1023.47 1593.36 1023.47 1589.99 1026.21 1587.25 1029.58 1587.25L1029.58 1587.25ZM1027.99 1602.37 1027.99 1613.03 1031.04 1613.03 1031.04 1602.39C1035.4 1601.69 1038.75 1597.92 1038.75 1593.36 1038.75 1588.31 1034.64 1584.2 1029.58 1584.2 1024.53 1584.2 1020.42 1588.31 1020.42 1593.36 1020.42 1597.87 1023.69 1601.61 1027.99 1602.37ZM1000.5 1620.69 1058.49 1620.69 1058.49 1574.9 1000.5 1574.9 1000.5 1620.69ZM1012.84 1558.08C1012.84 1548.85 1020.34 1541.35 1029.56 1541.35 1038.79 1541.35 1046.29 1548.85 1046.29 1558.08L1046.29 1571.85 1012.84 1571.85 1012.84 1558.08ZM1060.01 1571.85 1049.34 1571.85 1049.34 1558.08C1049.34 1547.17 1040.46 1538.3 1029.56 1538.3 1018.66 1538.3 1009.79 1547.17 1009.79 1558.08L1009.79 1571.85 998.975 1571.85C998.13 1571.85 997.45 1572.53 997.45 1573.38L997.45 1622.22C997.45 1623.06 998.13 1623.74 998.975 1623.74L1060.01 1623.74C1060.85 1623.74 1061.54 1623.06 1061.54 1622.22L1061.54 1573.38C1061.54 1572.53 1060.85 1571.85 1060.01 1571.85Z" fill="#FFFFFF" fill-rule="evenodd" fill-opacity="1"/></g></g></g><rect x="1984" y="1033" width="912" height="609" stroke="#7AA116" stroke-width="5.72917" stroke-linecap="butt" stroke-linejoin="miter" stroke-miterlimit="8" stroke-opacity="1" fill="none"/><text fill="#000000" fill-opacity="1" font-family="Arial,Arial_MSFontService,sans-serif" font-style="normal" font-variant="normal" font-weight="400" font-stretch="normal" font-size="55" text-anchor="start" direction="ltr" writing-mode="lr-tb" unicode-bidi="normal" text-decoration="none" transform="matrix(1 0 0 1 2165.58 1596)">Private subnet</text><g><g><g><path d="M1984 1520 2106 1520 2106 1642 1984 1642Z" fill="#7AA116" fill-rule="evenodd" fill-opacity="1"/><path d="M2043.58 1587.25C2046.96 1587.25 2049.7 1589.99 2049.7 1593.36 2049.7 1596.74 2046.96 1599.48 2043.58 1599.48 2040.21 1599.48 2037.47 1596.74 2037.47 1593.36 2037.47 1589.99 2040.21 1587.25 2043.58 1587.25L2043.58 1587.25ZM2041.99 1602.37 2041.99 1613.03 2045.04 1613.03 2045.04 1602.39C2049.4 1601.69 2052.75 1597.92 2052.75 1593.36 2052.75 1588.31 2048.64 1584.2 2043.58 1584.2 2038.53 1584.2 2034.42 1588.31 2034.42 1593.36 2034.42 1597.87 2037.69 1601.61 2041.99 1602.37ZM2014.5 1620.69 2072.49 1620.69 2072.49 1574.9 2014.5 1574.9 2014.5 1620.69ZM2026.84 1558.08C2026.84 1548.85 2034.34 1541.35 2043.56 1541.35 2052.79 1541.35 2060.29 1548.85 2060.29 1558.08L2060.29 1571.85 2026.84 1571.85 2026.84 1558.08ZM2074.01 1571.85 2063.34 1571.85 2063.34 1558.08C2063.34 1547.17 2054.46 1538.3 2043.56 1538.3 2032.66 1538.3 2023.79 1547.17 2023.79 1558.08L2023.79 1571.85 2012.98 1571.85C2012.13 1571.85 2011.45 1572.53 2011.45 1573.38L2011.45 1622.22C2011.45 1623.06 2012.13 1623.74 2012.98 1623.74L2074.01 1623.74C2074.85 1623.74 2075.54 1623.06 2075.54 1622.22L2075.54 1573.38C2075.54 1572.53 2074.85 1571.85 2074.01 1571.85Z" fill="#FFFFFF" fill-rule="evenodd" fill-opacity="1"/></g></g></g><rect x="970" y="316" width="912" height="610" stroke="#7AA116" stroke-width="5.72917" stroke-linecap="butt" stroke-linejoin="miter" stroke-miterlimit="8" stroke-opacity="1" fill="none"/><text fill="#000000" fill-opacity="1" font-family="Arial,Arial_MSFontService,sans-serif" font-style="normal" font-variant="normal" font-weight="400" font-stretch="normal" font-size="55" text-anchor="start" direction="ltr" writing-mode="lr-tb" unicode-bidi="normal" text-decoration="none" transform="matrix(1 0 0 1 1151.3 402)">Public subnet</text><g><g><g><path d="M0 0 122 0 122 122 0 122Z" fill="#7AA116" fill-rule="evenodd" fill-opacity="1" transform="matrix(1 0 0 1.0082 970 316)"/><path d="M59.5848 67.2495C62.9581 67.2495 65.7031 69.9914 65.7031 73.3647 65.7031 76.738 62.9581 79.483 59.5848 79.483 56.2115 79.483 53.4665 76.738 53.4665 73.3647 53.4665 69.9914 56.2115 67.2495 59.5848 67.2495L59.5848 67.2495ZM57.9866 82.3714 57.9866 93.0281 61.0366 93.0281 61.0366 82.3866C65.3981 81.6851 68.7531 77.9245 68.7531 73.3647 68.7531 68.3109 64.6387 64.1995 59.5848 64.1995 54.531 64.1995 50.4165 68.3109 50.4165 73.3647 50.4165 77.8726 53.6922 81.6089 57.9866 82.3714ZM30.5 100.693 88.4866 100.693 88.4866 54.9 30.5 54.9 30.5 100.693ZM42.8403 38.0762C42.8403 28.853 50.3433 21.35 59.5635 21.35 68.7867 21.35 76.2866 28.853 76.2866 38.0762L76.2866 51.85 42.8403 51.85 42.8403 38.0762ZM90.0116 51.85 79.3366 51.85 79.3366 38.0762C79.3366 27.1694 70.4642 18.3 59.5635 18.3 48.6597 18.3 39.7903 27.1694 39.7903 38.0762L39.7903 51.85 28.975 51.85C28.1302 51.85 27.45 52.5332 27.45 53.375L27.45 102.218C27.45 103.06 28.1302 103.743 28.975 103.743L90.0116 103.743C90.8534 103.743 91.5366 103.06 91.5366 102.218L91.5366 53.375C91.5366 52.5332 90.8534 51.85 90.0116 51.85Z" fill="#FFFFFF" fill-rule="evenodd" fill-opacity="1" transform="matrix(1 0 0 1.0082 970 316)"/></g></g></g><rect x="1984" y="316" width="912" height="610" stroke="#7AA116" stroke-width="5.72917" stroke-linecap="butt" stroke-linejoin="miter" stroke-miterlimit="8" stroke-opacity="1" fill="none"/><text fill="#000000" fill-opacity="1" font-family="Arial,Arial_MSFontService,sans-serif" font-style="normal" font-variant="normal" font-weight="400" font-stretch="normal" font-size="55" text-anchor="start" direction="ltr" writing-mode="lr-tb" unicode-bidi="normal" text-decoration="none" transform="matrix(1 0 0 1 2165.58 402)">Public subnet</text><g><g><g><path d="M0 0 122 0 122 122 0 122Z" fill="#7AA116" fill-rule="evenodd" fill-opacity="1" transform="matrix(1 0 0 1.0082 1984 316)"/><path d="M59.5848 67.2495C62.9581 67.2495 65.7031 69.9914 65.7031 73.3647 65.7031 76.738 62.9581 79.483 59.5848 79.483 56.2115 79.483 53.4665 76.738 53.4665 73.3647 53.4665 69.9914 56.2115 67.2495 59.5848 67.2495L59.5848 67.2495ZM57.9866 82.3714 57.9866 93.0281 61.0366 93.0281 61.0366 82.3866C65.3981 81.6851 68.7531 77.9245 68.7531 73.3647 68.7531 68.3109 64.6387 64.1995 59.5848 64.1995 54.531 64.1995 50.4165 68.3109 50.4165 73.3647 50.4165 77.8726 53.6922 81.6089 57.9866 82.3714ZM30.5 100.693 88.4866 100.693 88.4866 54.9 30.5 54.9 30.5 100.693ZM42.8403 38.0762C42.8403 28.853 50.3433 21.35 59.5635 21.35 68.7867 21.35 76.2866 28.853 76.2866 38.0762L76.2866 51.85 42.8403 51.85 42.8403 38.0762ZM90.0116 51.85 79.3366 51.85 79.3366 38.0762C79.3366 27.1694 70.4642 18.3 59.5635 18.3 48.6597 18.3 39.7903 27.1694 39.7903 38.0762L39.7903 51.85 28.975 51.85C28.1302 51.85 27.45 52.5332 27.45 53.375L27.45 102.218C27.45 103.06 28.1302 103.743 28.975 103.743L90.0116 103.743C90.8534 103.743 91.5366 103.06 91.5366 102.218L91.5366 53.375C91.5366 52.5332 90.8534 51.85 90.0116 51.85Z" fill="#FFFFFF" fill-rule="evenodd" fill-opacity="1" transform="matrix(1 0 0 1.0082 1984 316)"/></g></g></g><g><g><g><path d="M710.92 659.924 705.77 659.924 705.77 599.162C705.77 597.812 704.976 596.584 703.746 596.031L703.43 595.886C696.524 592.769 689.377 589.541 679.106 589.541 668.37 589.541 660.492 593.009 652.702 596.877 651.534 597.457 650.794 598.65 650.794 599.956L650.794 659.924 645.765 659.924 645.765 595.072C654.132 588.269 666.195 584.391 679.14 584.391 691.175 584.391 702.649 587.819 710.92 593.838L710.92 659.924ZM679.14 577.516C663.929 577.516 649.684 582.394 640.052 590.906 639.313 591.555 638.89 592.494 638.89 593.48L638.89 663.361C638.89 665.262 640.427 666.799 642.328 666.799L654.232 666.799C656.133 666.799 657.669 665.262 657.669 663.361L657.669 602.098C664.266 598.911 670.66 596.416 679.106 596.416 687.132 596.416 692.969 598.736 698.895 601.386L698.895 663.361C698.895 665.262 700.432 666.799 702.333 666.799L714.357 666.799C716.258 666.799 717.795 665.262 717.795 663.361L717.795 592.136C717.795 591.091 717.317 590.101 716.495 589.445 706.96 581.865 693.344 577.516 679.14 577.516ZM678.343 689.937C640.523 689.937 609.747 659.164 609.747 621.341 609.747 583.518 640.523 552.749 678.343 552.749 716.165 552.749 746.938 583.518 746.938 621.341 746.938 659.164 716.165 689.937 678.343 689.937ZM678.343 545.874C636.728 545.874 602.872 579.73 602.872 621.341 602.872 662.959 636.728 696.812 678.343 696.812 719.957 696.812 753.813 662.959 753.813 621.341 753.813 579.73 719.957 545.874 678.343 545.874Z" fill="#8C4FFF" fill-rule="evenodd" fill-opacity="1"/></g></g></g><text fill="#000000" fill-opacity="1" font-family="Arial,Arial_MSFontService,sans-serif" font-style="normal" font-variant="normal" font-weight="400" font-stretch="normal" font-size="55" text-anchor="start" direction="ltr" writing-mode="lr-tb" unicode-bidi="normal" text-decoration="none" transform="matrix(1 0 0 1 475.873 773)">Internet gateway</text><g><g><g><path d="M1372.84 661.478 1372.84 651.722 1378.94 656.6 1372.84 661.478ZM1371.55 641.884C1370.51 641.056 1369.09 640.894 1367.91 641.472 1366.72 642.046 1365.96 643.246 1365.96 644.569L1365.96 668.631C1365.96 669.955 1366.72 671.155 1367.91 671.729 1368.39 671.959 1368.89 672.069 1369.4 672.069 1370.17 672.069 1370.93 671.815 1371.55 671.316L1386.59 659.285C1387.4 658.632 1387.88 657.645 1387.88 656.6 1387.88 655.555 1387.4 654.569 1386.59 653.916L1371.55 641.884ZM1454.05 630.252 1454.05 616.77 1460.79 623.511 1454.05 630.252ZM1468.08 621.081 1453.04 606.041C1452.06 605.058 1450.59 604.763 1449.3 605.296 1448.01 605.828 1447.18 607.083 1447.18 608.472L1447.18 620.073 1420.96 620.073 1420.96 587.417C1420.96 585.516 1419.43 583.98 1417.53 583.98L1391.08 583.98 1391.08 590.855 1414.09 590.855 1414.09 620.073 1390.45 620.073 1390.45 626.948 1414.09 626.948 1414.09 656.171 1391.08 656.171 1391.08 663.046 1417.53 663.046C1419.43 663.046 1420.96 661.509 1420.96 659.608L1420.96 626.948 1447.18 626.948 1447.18 638.553C1447.18 639.942 1448.02 641.2 1449.3 641.73 1449.72 641.908 1450.17 641.991 1450.61 641.991 1451.51 641.991 1452.39 641.64 1453.04 640.984L1468.08 625.941C1469.43 624.597 1469.43 622.425 1468.08 621.081ZM1372.84 628.392 1372.84 618.633 1378.94 623.511 1372.84 628.392ZM1371.55 608.795C1370.51 607.966 1369.09 607.808 1367.91 608.382 1366.72 608.956 1365.96 610.156 1365.96 611.48L1365.96 635.546C1365.96 636.869 1366.72 638.069 1367.91 638.643 1368.39 638.873 1368.89 638.983 1369.4 638.983 1370.17 638.983 1370.93 638.729 1371.55 638.23L1386.59 626.196C1387.4 625.542 1387.88 624.556 1387.88 623.511 1387.88 622.466 1387.4 621.479 1386.59 620.826L1371.55 608.795ZM1372.84 592.295 1372.84 582.539 1378.94 587.417 1372.84 592.295ZM1371.55 572.701C1370.51 571.873 1369.09 571.711 1367.91 572.289 1366.72 572.863 1365.96 574.062 1365.96 575.386L1365.96 599.448C1365.96 600.772 1366.72 601.971 1367.91 602.546 1368.39 602.776 1368.89 602.886 1369.4 602.886 1370.17 602.886 1370.93 602.631 1371.55 602.133L1386.59 590.102C1387.4 589.449 1387.88 588.462 1387.88 587.417 1387.88 586.372 1387.4 585.386 1386.59 584.732L1371.55 572.701ZM1408.5 689.26C1370.59 689.26 1339.75 658.415 1339.75 620.503 1339.75 582.594 1370.59 551.75 1408.5 551.75 1446.41 551.75 1477.26 582.594 1477.26 620.503 1477.26 658.415 1446.41 689.26 1408.5 689.26ZM1408.5 544.875C1366.8 544.875 1332.87 578.799 1332.87 620.503 1332.87 662.207 1366.8 696.135 1408.5 696.135 1450.21 696.135 1484.13 662.207 1484.13 620.503 1484.13 578.799 1450.21 544.875 1408.5 544.875Z" fill="#8C4FFF" fill-rule="evenodd" fill-opacity="1"/></g></g></g><text fill="#000000" fill-opacity="1" font-family="Arial,Arial_MSFontService,sans-serif" font-style="normal" font-variant="normal" font-weight="400" font-stretch="normal" font-size="55" text-anchor="start" direction="ltr" writing-mode="lr-tb" unicode-bidi="normal" text-decoration="none" transform="matrix(1 0 0 1 1244.08 773)">NAT gateway</text><g><g><g><path d="M2369.84 661.478 2369.84 651.722 2375.94 656.6 2369.84 661.478ZM2368.55 641.884C2367.51 641.056 2366.09 640.894 2364.91 641.472 2363.72 642.046 2362.96 643.246 2362.96 644.569L2362.96 668.631C2362.96 669.955 2363.72 671.155 2364.91 671.729 2365.39 671.959 2365.89 672.069 2366.4 672.069 2367.17 672.069 2367.93 671.815 2368.55 671.316L2383.59 659.285C2384.4 658.632 2384.88 657.645 2384.88 656.6 2384.88 655.555 2384.4 654.569 2383.59 653.916L2368.55 641.884ZM2451.05 630.252 2451.05 616.77 2457.79 623.511 2451.05 630.252ZM2465.08 621.081 2450.04 606.041C2449.06 605.058 2447.59 604.763 2446.3 605.296 2445.01 605.828 2444.18 607.083 2444.18 608.472L2444.18 620.073 2417.96 620.073 2417.96 587.417C2417.96 585.516 2416.43 583.98 2414.53 583.98L2388.08 583.98 2388.08 590.855 2411.09 590.855 2411.09 620.073 2387.45 620.073 2387.45 626.948 2411.09 626.948 2411.09 656.171 2388.08 656.171 2388.08 663.046 2414.53 663.046C2416.43 663.046 2417.96 661.509 2417.96 659.608L2417.96 626.948 2444.18 626.948 2444.18 638.553C2444.18 639.942 2445.02 641.2 2446.3 641.73 2446.72 641.908 2447.17 641.991 2447.61 641.991 2448.51 641.991 2449.39 641.64 2450.04 640.984L2465.08 625.941C2466.43 624.597 2466.43 622.425 2465.08 621.081ZM2369.84 628.392 2369.84 618.633 2375.94 623.511 2369.84 628.392ZM2368.55 608.795C2367.51 607.966 2366.09 607.808 2364.91 608.382 2363.72 608.956 2362.96 610.156 2362.96 611.48L2362.96 635.546C2362.96 636.869 2363.72 638.069 2364.91 638.643 2365.39 638.873 2365.89 638.983 2366.4 638.983 2367.17 638.983 2367.93 638.729 2368.55 638.23L2383.59 626.196C2384.4 625.542 2384.88 624.556 2384.88 623.511 2384.88 622.466 2384.4 621.479 2383.59 620.826L2368.55 608.795ZM2369.84 592.295 2369.84 582.539 2375.94 587.417 2369.84 592.295ZM2368.55 572.701C2367.51 571.873 2366.09 571.711 2364.91 572.289 2363.72 572.863 2362.96 574.062 2362.96 575.386L2362.96 599.448C2362.96 600.772 2363.72 601.971 2364.91 602.546 2365.39 602.776 2365.89 602.886 2366.4 602.886 2367.17 602.886 2367.93 602.631 2368.55 602.133L2383.59 590.102C2384.4 589.449 2384.88 588.462 2384.88 587.417 2384.88 586.372 2384.4 585.386 2383.59 584.732L2368.55 572.701ZM2405.5 689.26C2367.59 689.26 2336.75 658.415 2336.75 620.503 2336.75 582.594 2367.59 551.75 2405.5 551.75 2443.41 551.75 2474.26 582.594 2474.26 620.503 2474.26 658.415 2443.41 689.26 2405.5 689.26ZM2405.5 544.875C2363.8 544.875 2329.87 578.799 2329.87 620.503 2329.87 662.207 2363.8 696.135 2405.5 696.135 2447.21 696.135 2481.13 662.207 2481.13 620.503 2481.13 578.799 2447.21 544.875 2405.5 544.875Z" fill="#8C4FFF" fill-rule="evenodd" fill-opacity="1"/></g></g></g><text fill="#000000" fill-opacity="1" font-family="Arial,Arial_MSFontService,sans-serif" font-style="normal" font-variant="normal" font-weight="400" font-stretch="normal" font-size="55" text-anchor="start" direction="ltr" writing-mode="lr-tb" unicode-bidi="normal" text-decoration="none" transform="matrix(1 0 0 1 2240.68 773)">NAT gateway</text><g><g><g><path d="M598.75 1311.05 736.058 1311.05 736.058 1278.88 598.75 1278.88 598.75 1311.05ZM742.933 1275.44 742.933 1314.49C742.933 1316.39 741.396 1317.93 739.495 1317.93L595.313 1317.93C593.412 1317.93 591.875 1316.39 591.875 1314.49L591.875 1275.44C591.875 1273.54 593.412 1272.01 595.313 1272.01L739.495 1272.01C741.396 1272.01 742.933 1273.54 742.933 1275.44ZM598.75 1259.99 736.058 1259.99 736.058 1227.81 598.75 1227.81 598.75 1259.99ZM742.933 1224.38 742.933 1263.43C742.933 1265.32 741.396 1266.86 739.495 1266.86L595.313 1266.86C593.412 1266.86 591.875 1265.32 591.875 1263.43L591.875 1224.38C591.875 1222.48 593.412 1220.94 595.313 1220.94L739.495 1220.94C741.396 1220.94 742.933 1222.48 742.933 1224.38ZM598.75 1208.92 736.058 1208.92 736.058 1176.75 598.75 1176.75 598.75 1208.92ZM742.933 1173.31 742.933 1212.36C742.933 1214.26 741.396 1215.8 739.495 1215.8L595.313 1215.8C593.412 1215.8 591.875 1214.26 591.875 1212.36L591.875 1173.31C591.875 1171.41 593.412 1169.87 595.313 1169.87L739.495 1169.87C741.396 1169.87 742.933 1171.41 742.933 1173.31ZM720.434 1295.06C720.434 1298 720.709 1300.13 721.263 1301.46 721.816 1302.78 722.699 1303.44 723.913 1303.44 725.123 1303.44 726.006 1302.78 726.56 1301.46 727.113 1300.13 727.388 1298 727.388 1295.06 727.388 1292.13 727.113 1290.01 726.56 1288.69 726.006 1287.37 725.123 1286.71 723.913 1286.71 722.699 1286.71 721.816 1287.37 721.263 1288.69 720.709 1290.01 720.434 1292.13 720.434 1295.06ZM719.014 1303.11C717.897 1301.26 717.34 1298.58 717.34 1295.06 717.34 1291.53 717.897 1288.85 719.014 1287.02 720.132 1285.19 721.764 1284.27 723.913 1284.27 726.061 1284.27 727.694 1285.19 728.808 1287.02 729.928 1288.85 730.485 1291.53 730.485 1295.06 730.485 1298.6 729.928 1301.29 728.808 1303.12 727.694 1304.95 726.061 1305.87 723.913 1305.87 721.764 1305.87 720.132 1304.95 719.014 1303.11ZM712.555 1305.78C713.126 1305.78 713.594 1305.6 713.941 1305.25 714.291 1304.91 714.47 1304.44 714.47 1303.86 714.47 1303.28 714.291 1302.81 713.941 1302.46 713.594 1302.11 713.126 1301.94 712.555 1301.94 711.981 1301.94 711.514 1302.11 711.167 1302.46 710.816 1302.81 710.641 1303.28 710.641 1303.86 710.641 1304.44 710.816 1304.91 711.167 1305.25 711.514 1305.6 711.981 1305.78 712.555 1305.78ZM707.32 1302.99 698.64 1302.99C701.109 1299.98 702.855 1297.76 703.876 1296.3 704.893 1294.85 705.598 1293.64 705.979 1292.65 706.361 1291.67 706.557 1290.72 706.557 1289.8 706.557 1288.06 706.096 1286.7 705.178 1285.73 704.268 1284.76 702.992 1284.27 701.356 1284.27 700.418 1284.27 699.503 1284.43 698.609 1284.74 697.719 1285.05 696.791 1285.54 695.835 1286.22L695.835 1288.78C697.853 1287.5 699.524 1286.86 700.844 1286.86 702.569 1286.86 703.429 1287.9 703.429 1289.98 703.429 1290.92 703.181 1291.91 702.697 1292.95 702.202 1294 701.397 1295.3 700.27 1296.87 699.142 1298.44 697.503 1300.56 695.354 1303.23L695.354 1305.48 707.32 1305.48 707.32 1302.99ZM689.837 1305.78C690.411 1305.78 690.872 1305.6 691.226 1305.25 691.573 1304.91 691.752 1304.44 691.752 1303.86 691.752 1303.28 691.573 1302.81 691.226 1302.46 690.872 1302.11 690.411 1301.94 689.837 1301.94 689.263 1301.94 688.799 1302.11 688.448 1302.46 688.098 1302.81 687.922 1303.28 687.922 1303.86 687.922 1304.44 688.098 1304.91 688.448 1305.25 688.799 1305.6 689.263 1305.78 689.837 1305.78ZM675.252 1296.32C675.252 1298.81 675.534 1300.62 676.101 1301.77 676.664 1302.92 677.548 1303.5 678.761 1303.5 680.786 1303.5 681.797 1302.09 681.797 1299.26 681.797 1297.96 681.532 1296.96 680.996 1296.27 680.466 1295.58 679.679 1295.23 678.638 1295.23 677.531 1295.23 676.403 1295.52 675.252 1296.08L675.252 1296.32ZM673.832 1303.39C672.78 1301.74 672.254 1299.19 672.254 1295.75 672.254 1292.04 672.89 1289.2 674.155 1287.23 675.42 1285.26 677.221 1284.27 679.559 1284.27 680.281 1284.27 681.013 1284.36 681.748 1284.54 682.481 1284.73 683.123 1284.96 683.677 1285.26L683.677 1287.46C683.144 1287.21 682.539 1287.02 681.859 1286.87 681.178 1286.72 680.542 1286.64 679.944 1286.64 678.435 1286.64 677.307 1287.24 676.561 1288.43 675.815 1289.63 675.389 1291.52 675.286 1294.13 676.647 1293.33 678.053 1292.92 679.5 1292.92 681.113 1292.92 682.405 1293.49 683.374 1294.61 684.344 1295.73 684.828 1297.22 684.828 1299.08 684.828 1301.17 684.268 1302.82 683.168 1304.04 682.061 1305.26 680.559 1305.87 678.672 1305.87 676.499 1305.87 674.887 1305.04 673.832 1303.39ZM662.808 1305.48 665.84 1305.48 665.84 1284.66 663.066 1284.66 658.054 1287.52 658.054 1289.98 662.808 1287.73 662.808 1305.48ZM651.609 1305.78C652.183 1305.78 652.647 1305.6 653.001 1305.25 653.348 1304.91 653.527 1304.44 653.527 1303.86 653.527 1303.28 653.348 1302.81 653.001 1302.46 652.647 1302.11 652.183 1301.94 651.609 1301.94 651.038 1301.94 650.574 1302.11 650.223 1302.46 649.873 1302.81 649.697 1303.28 649.697 1303.86 649.697 1304.44 649.873 1304.91 650.223 1305.25 650.574 1305.6 651.038 1305.78 651.609 1305.78ZM646.377 1302.99 637.7 1302.99C640.165 1299.98 641.911 1297.76 642.929 1296.3 643.953 1294.85 644.654 1293.64 645.036 1292.65 645.421 1291.67 645.614 1290.72 645.614 1289.8 645.614 1288.06 645.156 1286.7 644.239 1285.73 643.324 1284.76 642.049 1284.27 640.416 1284.27 639.474 1284.27 638.563 1284.43 637.669 1284.74 636.772 1285.05 635.851 1285.54 634.892 1286.22L634.892 1288.78C636.91 1287.5 638.58 1286.86 639.9 1286.86 641.626 1286.86 642.485 1287.9 642.485 1289.98 642.485 1290.92 642.241 1291.91 641.753 1292.95 641.262 1294 640.454 1295.3 639.326 1296.87 638.199 1298.44 636.563 1300.56 634.414 1303.23L634.414 1305.48 646.377 1305.48 646.377 1302.99ZM620.85 1305.48 623.978 1305.48 630.65 1286.89 630.65 1284.66 618.461 1284.66 618.461 1287.16 627.618 1287.16 620.85 1305.48ZM609.076 1305.48 612.108 1305.48 612.108 1284.66 609.334 1284.66 604.322 1287.52 604.322 1289.98 609.076 1287.73 609.076 1305.48ZM720.434 1242.88C720.434 1245.82 720.709 1247.96 721.263 1249.28 721.816 1250.6 722.699 1251.26 723.913 1251.26 725.123 1251.26 726.006 1250.6 726.56 1249.28 727.113 1247.96 727.388 1245.82 727.388 1242.88 727.388 1239.96 727.113 1237.83 726.56 1236.51 726.006 1235.19 725.123 1234.53 723.913 1234.53 722.699 1234.53 721.816 1235.19 721.263 1236.51 720.709 1237.83 720.434 1239.96 720.434 1242.88ZM719.014 1250.93C717.897 1249.09 717.34 1246.4 717.34 1242.88 717.34 1239.36 717.897 1236.68 719.014 1234.84 720.132 1233.01 721.764 1232.09 723.913 1232.09 726.061 1232.09 727.694 1233.01 728.808 1234.84 729.928 1236.68 730.485 1239.36 730.485 1242.88 730.485 1246.42 729.928 1249.11 728.808 1250.94 727.694 1252.78 726.061 1253.69 723.913 1253.69 721.764 1253.69 720.132 1252.77 719.014 1250.93ZM712.555 1253.6C713.126 1253.6 713.594 1253.43 713.941 1253.08 714.291 1252.73 714.47 1252.26 714.47 1251.68 714.47 1251.1 714.291 1250.64 713.941 1250.28 713.594 1249.93 713.126 1249.76 712.555 1249.76 711.981 1249.76 711.514 1249.93 711.167 1250.28 710.816 1250.64 710.641 1251.1 710.641 1251.68 710.641 1252.26 710.816 1252.73 711.167 1253.08 711.514 1253.43 711.981 1253.6 712.555 1253.6ZM701.033 1253.3 704.065 1253.3 704.065 1232.49 701.291 1232.49 696.282 1235.34 696.282 1237.8 701.033 1235.55 701.033 1253.3ZM689.837 1253.6C690.411 1253.6 690.872 1253.43 691.226 1253.08 691.573 1252.73 691.752 1252.26 691.752 1251.68 691.752 1251.1 691.573 1250.64 691.226 1250.28 690.872 1249.93 690.411 1249.76 689.837 1249.76 689.263 1249.76 688.799 1249.93 688.448 1250.28 688.098 1250.64 687.922 1251.1 687.922 1251.68 687.922 1252.26 688.098 1252.73 688.448 1253.08 688.799 1253.43 689.263 1253.6 689.837 1253.6ZM675.252 1244.14C675.252 1246.62 675.534 1248.44 676.101 1249.59 676.664 1250.75 677.548 1251.32 678.761 1251.32 680.786 1251.32 681.797 1249.91 681.797 1247.09 681.797 1245.79 681.532 1244.79 680.996 1244.09 680.466 1243.4 679.679 1243.06 678.638 1243.06 677.531 1243.06 676.403 1243.34 675.252 1243.9L675.252 1244.14ZM673.832 1251.22C672.78 1249.56 672.254 1247.02 672.254 1243.57 672.254 1239.87 672.89 1237.03 674.155 1235.05 675.42 1233.08 677.221 1232.09 679.559 1232.09 680.281 1232.09 681.013 1232.19 681.748 1232.37 682.481 1232.54 683.123 1232.78 683.677 1233.09L683.677 1235.28C683.144 1235.04 682.539 1234.84 681.859 1234.69 681.178 1234.54 680.542 1234.47 679.944 1234.47 678.435 1234.47 677.307 1235.06 676.561 1236.26 675.815 1237.45 675.389 1239.35 675.286 1241.95 676.647 1241.15 678.053 1240.75 679.5 1240.75 681.113 1240.75 682.405 1241.31 683.374 1242.43 684.344 1243.55 684.828 1245.04 684.828 1246.91 684.828 1248.99 684.268 1250.64 683.168 1251.86 682.061 1253.08 680.559 1253.69 678.672 1253.69 676.499 1253.69 674.887 1252.87 673.832 1251.22ZM662.808 1253.3 665.84 1253.3 665.84 1232.49 663.066 1232.49 658.054 1235.34 658.054 1237.8 662.808 1235.55 662.808 1253.3ZM651.609 1253.6C652.183 1253.6 652.647 1253.43 653.001 1253.08 653.348 1252.73 653.527 1252.26 653.527 1251.68 653.527 1251.1 653.348 1250.64 653.001 1250.28 652.647 1249.93 652.183 1249.76 651.609 1249.76 651.038 1249.76 650.574 1249.93 650.223 1250.28 649.873 1250.64 649.697 1251.1 649.697 1251.68 649.697 1252.26 649.873 1252.73 650.223 1253.08 650.574 1253.43 651.038 1253.6 651.609 1253.6ZM646.377 1250.81 637.7 1250.81C640.165 1247.81 641.911 1245.58 642.929 1244.12 643.953 1242.67 644.654 1241.46 645.036 1240.48 645.421 1239.49 645.614 1238.54 645.614 1237.62 645.614 1235.88 645.156 1234.52 644.239 1233.55 643.324 1232.58 642.049 1232.09 640.416 1232.09 639.474 1232.09 638.563 1232.25 637.669 1232.56 636.772 1232.87 635.851 1233.37 634.892 1234.05L634.892 1236.6C636.91 1235.32 638.58 1234.68 639.9 1234.68 641.626 1234.68 642.485 1235.72 642.485 1237.8 642.485 1238.75 642.241 1239.74 641.753 1240.78 641.262 1241.82 640.454 1243.12 639.326 1244.7 638.199 1246.27 636.563 1248.39 634.414 1251.05L634.414 1253.3 646.377 1253.3 646.377 1250.81ZM620.85 1253.3 623.978 1253.3 630.65 1234.71 630.65 1232.49 618.461 1232.49 618.461 1234.98 627.618 1234.98 620.85 1253.3ZM609.076 1253.3 612.108 1253.3 612.108 1232.49 609.334 1232.49 604.322 1235.34 604.322 1237.8 609.076 1235.55 609.076 1253.3ZM720.434 1193.65C720.434 1196.59 720.709 1198.73 721.263 1200.05 721.816 1201.37 722.699 1202.03 723.913 1202.03 725.123 1202.03 726.006 1201.37 726.56 1200.05 727.113 1198.73 727.388 1196.59 727.388 1193.65 727.388 1190.73 727.113 1188.61 726.56 1187.29 726.006 1185.96 725.123 1185.3 723.913 1185.3 722.699 1185.3 721.816 1185.96 721.263 1187.29 720.709 1188.61 720.434 1190.73 720.434 1193.65ZM719.014 1201.7C717.897 1199.86 717.34 1197.18 717.34 1193.65 717.34 1190.13 717.897 1187.45 719.014 1185.62 720.132 1183.79 721.764 1182.87 723.913 1182.87 726.061 1182.87 727.694 1183.79 728.808 1185.62 729.928 1187.45 730.485 1190.13 730.485 1193.65 730.485 1197.2 729.928 1199.88 728.808 1201.72 727.694 1203.55 726.061 1204.47 723.913 1204.47 721.764 1204.47 720.132 1203.55 719.014 1201.7ZM712.555 1204.38C713.126 1204.38 713.594 1204.2 713.941 1203.85 714.291 1203.5 714.47 1203.03 714.47 1202.45 714.47 1201.87 714.291 1201.41 713.941 1201.06 713.594 1200.71 713.126 1200.53 712.555 1200.53 711.981 1200.53 711.514 1200.71 711.167 1201.06 710.816 1201.41 710.641 1201.87 710.641 1202.45 710.641 1203.03 710.816 1203.5 711.167 1203.85 711.514 1204.2 711.981 1204.38 712.555 1204.38ZM697.719 1193.65C697.719 1196.59 697.994 1198.73 698.544 1200.05 699.101 1201.37 699.981 1202.03 701.191 1202.03 702.404 1202.03 703.291 1201.37 703.841 1200.05 704.398 1198.73 704.67 1196.59 704.67 1193.65 704.67 1190.73 704.398 1188.61 703.841 1187.29 703.291 1185.96 702.404 1185.3 701.191 1185.3 699.981 1185.3 699.101 1185.96 698.544 1187.29 697.994 1188.61 697.719 1190.73 697.719 1193.65ZM696.296 1201.7C695.179 1199.86 694.622 1197.18 694.622 1193.65 694.622 1190.13 695.179 1187.45 696.296 1185.62 697.417 1183.79 699.046 1182.87 701.191 1182.87 703.343 1182.87 704.976 1183.79 706.089 1185.62 707.21 1187.45 707.767 1190.13 707.767 1193.65 707.767 1197.2 707.21 1199.88 706.089 1201.72 704.976 1203.55 703.343 1204.47 701.191 1204.47 699.046 1204.47 697.417 1203.55 696.296 1201.7ZM689.837 1204.38C690.411 1204.38 690.872 1204.2 691.226 1203.85 691.573 1203.5 691.752 1203.03 691.752 1202.45 691.752 1201.87 691.573 1201.41 691.226 1201.06 690.872 1200.71 690.411 1200.53 689.837 1200.53 689.263 1200.53 688.799 1200.71 688.448 1201.06 688.098 1201.41 687.922 1201.87 687.922 1202.45 687.922 1203.03 688.098 1203.5 688.448 1203.85 688.799 1204.2 689.263 1204.38 689.837 1204.38ZM675.252 1194.91C675.252 1197.4 675.534 1199.22 676.101 1200.37 676.664 1201.52 677.548 1202.09 678.761 1202.09 680.786 1202.09 681.797 1200.68 681.797 1197.86 681.797 1196.55 681.532 1195.56 680.996 1194.87 680.466 1194.18 679.679 1193.83 678.638 1193.83 677.531 1193.83 676.403 1194.11 675.252 1194.68L675.252 1194.91ZM673.832 1201.99C672.78 1200.33 672.254 1197.79 672.254 1194.34 672.254 1190.64 672.89 1187.8 674.155 1185.82 675.42 1183.86 677.221 1182.87 679.559 1182.87 680.281 1182.87 681.013 1182.96 681.748 1183.14 682.481 1183.32 683.123 1183.56 683.677 1183.86L683.677 1186.06C683.144 1185.81 682.539 1185.62 681.859 1185.47 681.178 1185.32 680.542 1185.24 679.944 1185.24 678.435 1185.24 677.307 1185.84 676.561 1187.03 675.815 1188.22 675.389 1190.12 675.286 1192.72 676.647 1191.92 678.053 1191.52 679.5 1191.52 681.113 1191.52 682.405 1192.08 683.374 1193.2 684.344 1194.32 684.828 1195.82 684.828 1197.68 684.828 1199.76 684.268 1201.41 683.168 1202.63 682.061 1203.85 680.559 1204.47 678.672 1204.47 676.499 1204.47 674.887 1203.64 673.832 1201.99ZM662.808 1204.08 665.84 1204.08 665.84 1183.26 663.066 1183.26 658.054 1186.11 658.054 1188.57 662.808 1186.32 662.808 1204.08ZM651.609 1204.38C652.183 1204.38 652.647 1204.2 653.001 1203.85 653.348 1203.5 653.527 1203.03 653.527 1202.45 653.527 1201.87 653.348 1201.41 653.001 1201.06 652.647 1200.71 652.183 1200.53 651.609 1200.53 651.038 1200.53 650.574 1200.71 650.223 1201.06 649.873 1201.41 649.697 1201.87 649.697 1202.45 649.697 1203.03 649.873 1203.5 650.223 1203.85 650.574 1204.2 651.038 1204.38 651.609 1204.38ZM646.377 1201.58 637.7 1201.58C640.165 1198.58 641.911 1196.35 642.929 1194.9 643.953 1193.45 644.654 1192.23 645.036 1191.25 645.421 1190.27 645.614 1189.32 645.614 1188.39 645.614 1186.66 645.156 1185.3 644.239 1184.33 643.324 1183.36 642.049 1182.87 640.416 1182.87 639.474 1182.87 638.563 1183.02 637.669 1183.34 636.772 1183.65 635.851 1184.14 634.892 1184.82L634.892 1187.38C636.91 1186.09 638.58 1185.45 639.9 1185.45 641.626 1185.45 642.485 1186.5 642.485 1188.57 642.485 1189.52 642.241 1190.51 641.753 1191.55 641.262 1192.59 640.454 1193.9 639.326 1195.47 638.199 1197.04 636.563 1199.16 634.414 1201.82L634.414 1204.08 646.377 1204.08 646.377 1201.58ZM620.85 1204.08 623.978 1204.08 630.65 1185.48 630.65 1183.26 618.461 1183.26 618.461 1185.75 627.618 1185.75 620.85 1204.08ZM609.076 1186.32 604.322 1188.57 604.322 1186.11 609.334 1183.26 612.108 1183.26 612.108 1204.08 609.076 1204.08 609.076 1186.32Z" fill="#8C4FFF" fill-rule="evenodd" fill-opacity="1"/></g></g></g><text fill="#000000" fill-opacity="1" font-family="Arial,Arial_MSFontService,sans-serif" font-style="normal" font-variant="normal" font-weight="400" font-stretch="normal" font-size="55" text-anchor="start" direction="ltr" writing-mode="lr-tb" unicode-bidi="normal" text-decoration="none" transform="matrix(1 0 0 1 527.546 1397)">Route table</text><path d="M7.44792-5.52895e-06 7.44825 448.91-7.44758 448.91-7.44792 5.52895e-06ZM22.3441 441.462 0.000360892 486.149-22.3434 441.462Z" fill="#767171" fill-rule="nonzero" fill-opacity="1" transform="matrix(1 0 0 -1 1406.5 1289.65)"/><path d="M2398.75 1289.69 2396.26 840.78 2411.15 840.698 2413.64 1289.61ZM2381.4 848.311 2403.5 803.5 2426.09 848.063Z" fill="#767171" fill-rule="nonzero" fill-opacity="1"/><text fill="#000000" fill-opacity="1" font-family="Calibri,Calibri_MSFontService,sans-serif" font-style="normal" font-variant="normal" font-weight="400" font-stretch="normal" font-size="55" text-anchor="start" direction="ltr" writing-mode="lr-tb" unicode-bidi="normal" text-decoration="none" transform="matrix(1 0 0 1 1116.65 1375)">Outbound internet traffic</text><text fill="#000000" fill-opacity="1" font-family="Calibri,Calibri_MSFontService,sans-serif" font-style="normal" font-variant="normal" font-weight="400" font-stretch="normal" font-size="55" text-anchor="start" direction="ltr" writing-mode="lr-tb" unicode-bidi="normal" text-decoration="none" transform="matrix(1 0 0 1 2123.19 1375)">Outbound internet traffic</text><path d="M0.00453-7.44792 522.891-7.12988 522.881 7.76595-0.00453 7.44792ZM515.452-22.0302 560.126 0.340682 515.425 22.6572Z" fill="#767171" fill-rule="nonzero" fill-opacity="1" transform="matrix(-1 0 0 1 1321.63 621.5)"/><path d="M0 0 831.6 0.000360892" stroke="#767171" stroke-width="14.8958" stroke-linecap="butt" stroke-linejoin="miter" stroke-miterlimit="8" stroke-opacity="1" fill="none" fill-rule="evenodd" transform="matrix(-1 0 0 1 2323.1 621.5)"/></g></g></svg>