<svg width="3740" height="2402" xmlns="http://www.w3.org/2000/svg" xmlns:xlink="http://www.w3.org/1999/xlink" xml:space="preserve" overflow="hidden"><g transform="translate(-366 -4)"><g><rect x="580.5" y="1219.5" width="1741" height="571" stroke="#ED7000" stroke-width="4.58333" stroke-linecap="butt" stroke-linejoin="miter" stroke-miterlimit="8" stroke-opacity="1" fill="#FB9900" fill-opacity="0.2"/><rect x="496" y="593" width="1911" height="1740" stroke="#7AA116" stroke-width="5.72917" stroke-linecap="butt" stroke-linejoin="miter" stroke-miterlimit="8" stroke-opacity="1" fill="none"/><text fill="#000000" fill-opacity="1" font-family="Arial,Arial_MSFontService,sans-serif" font-style="normal" font-variant="normal" font-weight="400" font-stretch="normal" font-size="55" text-anchor="start" direction="ltr" writing-mode="lr-tb" unicode-bidi="normal" text-decoration="none" transform="matrix(1 0 0 1 677.085 679)">Public subnet</text><rect x="370.5" y="195.5" width="2150" height="2207" stroke="#8C4EFF" stroke-width="4.58333" stroke-linecap="butt" stroke-linejoin="miter" stroke-miterlimit="8" stroke-opacity="1" fill="none"/><text fill="#000000" fill-opacity="1" font-family="Arial,Arial_MSFontService,sans-serif" font-style="normal" font-variant="normal" font-weight="400" font-stretch="normal" font-size="55" text-anchor="start" direction="ltr" writing-mode="lr-tb" unicode-bidi="normal" text-decoration="none" transform="matrix(1 0 0 1 518.467 281)">VPC</text><text fill="#FF9902" fill-opacity="1" font-family="Arial,Arial_MSFontService,sans-serif" font-style="normal" font-variant="normal" font-weight="400" font-stretch="normal" font-size="55" text-anchor="start" direction="ltr" writing-mode="lr-tb" unicode-bidi="normal" text-decoration="none" transform="matrix(1 0 0 1 753.413 1305)">AWS </text><text fill="#FF9902" fill-opacity="1" font-family="Arial,Arial_MSFontService,sans-serif" font-style="normal" font-variant="normal" font-weight="400" font-stretch="normal" font-size="55" text-anchor="start" direction="ltr" writing-mode="lr-tb" unicode-bidi="normal" text-decoration="none" transform="matrix(1 0 0 1 892.311 1305)">Fargate</text><g><g><g><path d="M775.841 1515.49 811.038 1515.49 811.038 1480.29 775.841 1480.29 775.841 1515.49ZM771.971 1521.61 771.971 1527.95 778.846 1527.95 778.846 1522.37 783.992 1522.37 783.992 1527.95 790.867 1527.95 790.867 1522.37 796.013 1522.37 796.013 1527.95 802.888 1527.95 802.888 1522.37 808.034 1522.37 808.034 1527.95 814.909 1527.95 814.909 1521.61C815.851 1521.08 816.627 1520.31 817.157 1519.36L823.492 1519.36 823.492 1512.49 817.913 1512.49 817.913 1507.34 823.492 1507.34 823.492 1500.47 817.913 1500.47 817.913 1495.32 823.492 1495.32 823.492 1488.44 817.913 1488.44 817.913 1483.3 823.492 1483.3 823.492 1476.42 817.157 1476.42C816.631 1475.48 815.851 1474.7 814.909 1474.17L814.909 1467.84 808.034 1467.84 808.034 1473.42 802.888 1473.42 802.888 1467.84 796.013 1467.84 796.013 1473.42 790.867 1473.42 790.867 1467.84 783.992 1467.84 783.992 1473.42 778.846 1473.42 778.846 1467.84 771.971 1467.84 771.971 1474.17C771.022 1474.7 770.249 1475.48 769.719 1476.42L763.387 1476.42 763.387 1483.3 768.966 1483.3 768.966 1488.44 763.387 1488.44 763.387 1495.32 768.966 1495.32 768.966 1500.47 763.387 1500.47 763.387 1507.34 768.966 1507.34 768.966 1512.49 763.387 1512.49 763.387 1519.36 769.719 1519.36C770.249 1520.31 771.022 1521.08 771.971 1521.61ZM847.101 1530.95 853.976 1530.95 853.976 1464.84 847.101 1464.84 847.101 1530.95ZM829.068 1530.95 835.943 1530.95 835.943 1464.84 829.068 1464.84 829.068 1530.95ZM750.93 1530.95 757.805 1530.95 757.805 1464.84 750.93 1464.84 750.93 1530.95ZM732.9 1530.95 739.775 1530.95 739.775 1464.84 732.9 1464.84 732.9 1530.95ZM724.75 1539.53 862.126 1539.53 862.126 1456.25 724.75 1456.25 724.75 1539.53ZM865.564 1449.37 721.312 1449.37C719.415 1449.37 717.875 1450.91 717.875 1452.81L717.875 1542.97C717.875 1544.87 719.415 1546.41 721.312 1546.41L865.564 1546.41C867.465 1546.41 869.001 1544.87 869.001 1542.97L869.001 1452.81C869.001 1450.91 867.465 1449.37 865.564 1449.37Z" fill="#FF9900" fill-rule="evenodd" fill-opacity="1"/></g></g></g><text fill="#000000" fill-opacity="1" font-family="Arial,Arial_MSFontService,sans-serif" font-style="normal" font-variant="normal" font-weight="400" font-stretch="normal" font-size="50" text-anchor="start" direction="ltr" writing-mode="lr-tb" unicode-bidi="normal" text-decoration="none" transform="matrix(1 0 0 1 683.758 1612)">Container</text><g><g><g><path d="M0 0 136 0 136 136 0 136Z" fill="#ED7100" fill-rule="evenodd" fill-opacity="1" transform="matrix(1.00735 0 0 1 577 1219)"/><path d="M88.4001 96.0892 88.4001 87.851 93.5001 85.811 93.5001 94.0492 88.4001 96.0892ZM79.9001 85.811 85.0001 87.851 85.0001 96.0892 79.9001 94.0492 79.9001 85.811ZM69.7001 107.989 69.7001 99.751 74.8001 97.711 74.8001 105.949 69.7001 107.989ZM61.2001 97.711 66.3001 99.751 66.3001 107.989 61.2001 105.949 61.2001 97.711ZM51 96.0892 51 87.851 56.1001 85.811 56.1001 94.0492 51 96.0892ZM42.5 85.811 47.6 87.851 47.6 96.0892 42.5 94.0492 42.5 85.811ZM49.3 81.731 53.2237 83.3001 49.3 84.8692 45.3764 83.3001 49.3 81.731ZM68.0001 93.631 71.9237 95.2001 68.0001 96.7692 64.0765 95.2001 68.0001 93.631ZM86.7001 81.731 90.6237 83.3001 86.7001 84.8692 82.7765 83.3001 86.7001 81.731ZM95.8308 81.7208 87.3308 78.3208C86.9262 78.161 86.474 78.161 86.0694 78.3208L77.5694 81.7208C76.9234 81.9809 76.5001 82.6048 76.5001 83.3001L76.5001 93.3692 68.6308 90.2208C68.2262 90.061 67.774 90.061 67.3694 90.2208L59.5001 93.3692 59.5001 83.3001C59.5001 82.6048 59.0768 81.9809 58.4308 81.7208L49.9307 78.3208C49.5261 78.161 49.0739 78.161 48.6693 78.3208L40.1693 81.7208C39.5233 81.9809 39.1 82.6048 39.1 83.3001L39.1 95.2001C39.1 95.8954 39.5233 96.5193 40.1693 96.7794L48.6693 100.179C48.8716 100.259 49.0858 100.3 49.3 100.3 49.5142 100.3 49.7284 100.259 49.9307 100.179L57.8001 97.031 57.8001 107.1C57.8001 107.795 58.2234 108.419 58.8694 108.679L67.3694 112.079C67.5717 112.159 67.7859 112.2 68.0001 112.2 68.2143 112.2 68.4285 112.159 68.6308 112.079L77.1308 108.679C77.7768 108.419 78.2001 107.795 78.2001 107.1L78.2001 97.031 86.0694 100.179C86.2717 100.259 86.4859 100.3 86.7001 100.3 86.9143 100.3 87.1285 100.259 87.3308 100.179L95.8308 96.7794C96.4768 96.5193 96.9001 95.8954 96.9001 95.2001L96.9001 83.3001C96.9001 82.6048 96.4768 81.9809 95.8308 81.7208ZM110.5 61.0947C110.5 71.0312 88.6024 76.3947 68.0001 76.3947 47.3977 76.3947 25.5 71.0312 25.5 61.0947 25.5 56.35 30.7615 52.173 40.3155 49.3323L41.2845 52.5913C33.6447 54.8624 28.9 58.1214 28.9 61.0947 28.9 66.7234 44.9565 72.9947 68.0001 72.9947 91.0436 72.9947 107.1 66.7234 107.1 61.0947 107.1 58.1214 102.355 54.8624 94.7156 52.5913L95.6846 49.3323C105.239 52.173 110.5 56.35 110.5 61.0947ZM68.0001 29.0207 85.3639 35.7 68.0001 42.3793 50.6362 35.7 68.0001 29.0207ZM85.9861 62.6315C82.7799 64.0663 77.3977 65.7374 69.7001 65.9618L69.7001 45.3679 88.4001 38.1769 88.4001 58.9017C88.4001 60.5184 87.4549 61.9821 85.9861 62.6315ZM47.6 58.9017 47.6 38.1769 66.3001 45.3679 66.3001 65.9618C58.6025 65.7374 53.2202 64.0663 50.0072 62.6281 48.5452 61.9821 47.6 60.5184 47.6 58.9017ZM48.6268 65.734C52.3685 67.4085 58.7674 69.406 68.0001 69.406 77.2328 69.406 83.6316 67.4085 87.3682 65.7374 90.061 64.5457 91.8001 61.8631 91.8001 58.9017L91.8001 35.7C91.8001 34.9962 91.3666 34.3655 90.7104 34.1122L68.6104 25.6122C68.216 25.4626 67.7842 25.4626 67.3898 25.6122L45.2897 34.1122C44.6335 34.3655 44.2 34.9962 44.2 35.7L44.2 58.9017C44.2 61.8631 45.9391 64.5457 48.6268 65.734Z" fill="#FFFFFF" fill-rule="evenodd" fill-opacity="1" transform="matrix(1.00735 0 0 1 577 1219)"/></g></g></g><g><g><g><path d="M0 0 136 0 136 136 0 136Z" fill="#8C4FFF" fill-rule="evenodd" fill-opacity="1" transform="matrix(1 0 0 1.00735 369 194)"/><path d="M105.3 71.5 95.2909 67.2058 95.2909 102.868C103.944 101.672 105.26 92.7772 105.314 92.3726L105.3 71.5ZM91.8909 102.916 91.8909 67.182 81.5719 71.5102 81.5719 92.5937C81.6161 92.7772 83.0849 102.001 91.8909 102.916ZM92.9313 63.0612C93.3529 62.881 93.8357 62.8844 94.2607 63.0646L107.67 68.8174C108.296 69.086 108.7 69.698 108.7 70.378L108.7 92.5937C108.078 97.5135 104.087 106.408 93.3087 106.408 82.8537 106.408 78.8451 97.5271 78.1855 92.8282L78.1719 70.378C78.1719 69.6946 78.5833 69.0758 79.2123 68.8106L92.9313 63.0612ZM112.141 65.227 93.5739 57.0466 74.7719 64.9584 74.7719 89.1936C74.7684 89.3364 74.5882 98.9449 80.4057 104.912 83.5235 108.111 87.8653 109.736 93.3087 109.736 98.7555 109.736 103.124 108.108 106.293 104.902 112.192 98.9245 112.141 89.3126 112.141 89.2174L112.141 65.227ZM108.731 107.271C104.899 111.161 99.7075 113.136 93.3087 113.136 86.9031 113.136 81.7351 111.161 77.9509 107.265 71.1338 100.25 71.3582 89.5948 71.3718 89.146L71.3718 63.8296C71.3718 63.1462 71.7798 62.5274 72.4088 62.2622L92.9279 53.6262C93.3597 53.4494 93.8493 53.446 94.2743 53.6398L114.525 62.5648C115.143 62.8368 115.541 63.4454 115.541 64.1186L115.541 89.1936C115.548 89.6186 115.633 100.261 108.731 107.271ZM37.3718 82.4038 64.5718 82.4038 64.5718 85.8038 37.3718 85.8038C27.8144 85.8038 21.0144 78.9494 20.4432 68.7494 20.4024 68.372 20.399 67.9164 20.399 67.4608 20.399 58.9302 24.8802 53.1026 33.3768 50.5322 33.3122 49.7604 33.268 48.9478 33.268 48.3324 33.268 38.418 38.6298 29.8193 46.9258 26.4192 58.139 21.836 70.8686 23.3796 77.8863 30.1729 80.4193 32.6345 82.3879 35.4158 83.8703 38.622 85.9409 37.092 88.6303 36.3746 91.8569 36.5344 97.9089 36.8404 102.563 42.3586 103.529 50.1582 108.622 50.5798 111.978 53.1604 113.763 58.0054L110.577 59.1818C109.122 55.248 106.47 53.4936 101.972 53.4936 101.071 53.4936 100.326 52.7932 100.272 51.8956 99.8027 43.9464 95.4915 40.1214 91.6835 39.931 88.4705 39.7508 86.0905 40.6756 84.6149 42.6204 84.2375 43.1134 83.6459 43.3582 83.0067 43.2766 82.3947 43.1814 81.8779 42.7632 81.6637 42.1784 80.2901 38.4282 78.2807 35.3002 75.5199 32.6107 69.4406 26.7286 58.2138 25.474 48.2144 29.5676 41.2002 32.4407 36.668 39.8052 36.668 48.3324 36.668 49.2606 36.787 50.6988 36.8924 51.593 36.9944 52.4464 36.447 53.2386 35.614 53.4426 27.7736 55.3874 23.799 60.1032 23.799 67.4608 23.799 67.8042 23.7956 68.1442 23.8296 68.4876 24.309 76.9706 29.6198 82.4038 37.3718 82.4038Z" fill="#FFFFFF" fill-rule="evenodd" fill-opacity="1" transform="matrix(1 0 0 1.00735 369 194)"/></g></g></g><g><g><g><path d="M0 0 136 0 136 136 0 136Z" fill="#7AA116" fill-rule="evenodd" fill-opacity="1" transform="matrix(1 0 0 1.00735 496 593)"/><path d="M66.4225 74.9667C70.1829 74.9667 73.2429 78.0233 73.2429 81.7837 73.2429 85.5441 70.1829 88.6041 66.4225 88.6041 62.6621 88.6041 59.6021 85.5441 59.6021 81.7837 59.6021 78.0233 62.6621 74.9667 66.4225 74.9667L66.4225 74.9667ZM64.6409 91.8239 64.6409 103.703 68.0409 103.703 68.0409 91.8409C72.9029 91.0589 76.6429 86.8667 76.6429 81.7837 76.6429 76.1499 72.0563 71.5667 66.4225 71.5667 60.7887 71.5667 56.2021 76.1499 56.2021 81.7837 56.2021 86.8089 59.8537 90.9739 64.6409 91.8239ZM34 112.248 98.6409 112.248 98.6409 61.2001 34 61.2001 34 112.248ZM47.7564 42.4456C47.7564 32.164 56.1205 23.8 66.3987 23.8 76.6803 23.8 85.0409 32.164 85.0409 42.4456L85.0409 57.8001 47.7564 57.8001 47.7564 42.4456ZM100.341 57.8001 88.4409 57.8001 88.4409 42.4456C88.4409 30.2872 78.5503 20.4 66.3987 20.4 54.2437 20.4 44.3564 30.2872 44.3564 42.4456L44.3564 57.8001 32.3 57.8001C31.3582 57.8001 30.6 58.5617 30.6 59.5001L30.6 113.948C30.6 114.886 31.3582 115.648 32.3 115.648L100.341 115.648C101.279 115.648 102.041 114.886 102.041 113.948L102.041 59.5001C102.041 58.5617 101.279 57.8001 100.341 57.8001Z" fill="#FFFFFF" fill-rule="evenodd" fill-opacity="1" transform="matrix(1 0 0 1.00735 496 593)"/></g></g></g><text fill="#000000" fill-opacity="1" font-family="Arial,Arial_MSFontService,sans-serif" font-style="normal" font-variant="normal" font-weight="400" font-stretch="normal" font-size="55" text-anchor="start" direction="ltr" writing-mode="lr-tb" unicode-bidi="normal" text-decoration="none" transform="matrix(1 0 0 1 1475.94 2212)">AWS </text><text fill="#000000" fill-opacity="1" font-family="Arial,Arial_MSFontService,sans-serif" font-style="normal" font-variant="normal" font-weight="400" font-stretch="normal" font-size="55" text-anchor="start" direction="ltr" writing-mode="lr-tb" unicode-bidi="normal" text-decoration="none" transform="matrix(1 0 0 1 1614.84 2212)">PrivateLink</text><g><g><g><path d="M1652.88 2071.88 1657.74 2076.74 1672.74 2061.74C1674.08 2060.4 1674.08 2058.22 1672.74 2056.88L1657.74 2041.88 1652.88 2046.74 1662.01 2055.87 1604.31 2055.87 1604.31 2062.75 1662.01 2062.75 1652.88 2071.88ZM1732.87 2059.31C1732.87 2021.51 1702.11 1990.75 1664.31 1990.75 1626.5 1990.75 1595.75 2021.51 1595.75 2059.31 1595.75 2097.11 1626.5 2127.87 1664.31 2127.87 1702.11 2127.87 1732.87 2097.11 1732.87 2059.31ZM1739.75 2059.31C1739.75 2100.9 1705.91 2134.75 1664.31 2134.75 1622.72 2134.75 1588.87 2100.9 1588.87 2059.31 1588.87 2017.71 1622.72 1983.87 1664.31 1983.87 1705.91 1983.87 1739.75 2017.71 1739.75 2059.31ZM1636.87 2068.31 1636.87 2069.87C1636.87 2070.08 1636.89 2070.28 1636.92 2070.48 1637.14 2071.68 1642.49 2099.92 1664.31 2099.92 1686.13 2099.92 1691.48 2071.68 1691.69 2070.48 1691.73 2070.28 1691.75 2070.08 1691.75 2069.87L1691.75 2033.6C1691.75 2032.2 1690.9 2030.94 1689.59 2030.41L1665.59 2020.75C1664.77 2020.42 1663.85 2020.42 1663.03 2020.75L1639.03 2030.41C1637.72 2030.94 1636.87 2032.2 1636.87 2033.6L1636.87 2050.31 1643.75 2050.31 1643.75 2035.92 1664.31 2027.65 1684.87 2035.92 1684.87 2069.53C1684.32 2072.18 1679.44 2093.04 1664.31 2093.04 1649.18 2093.04 1644.3 2072.18 1643.75 2069.53L1643.75 2068.31 1636.87 2068.31ZM1703.74 2022.8 1703.74 2068.7C1703.74 2084.28 1695.5 2113.75 1664.31 2113.75 1648.08 2113.75 1636.08 2105.35 1629.62 2089.46 1626.19 2081.04 1625.23 2072.73 1624.97 2068.52L1631.83 2068.09C1632.02 2071.14 1632.81 2079.07 1635.99 2086.87 1641.39 2100.14 1650.92 2106.87 1664.31 2106.87 1696.4 2106.87 1696.87 2070.25 1696.87 2068.69L1696.87 2025.12 1664.31 2012.02 1631.75 2025.12 1631.75 2050.31 1624.87 2050.31 1624.87 2022.8C1624.87 2021.4 1625.73 2020.14 1627.03 2019.61L1663.03 2005.12C1663.85 2004.79 1664.77 2004.79 1665.59 2005.12L1701.59 2019.61C1702.89 2020.14 1703.74 2021.4 1703.74 2022.8Z" fill="#8C4FFF" fill-rule="evenodd" fill-opacity="1"/></g></g></g><path d="M0 0 0.116568 309.294" stroke="#767171" stroke-width="10.3125" stroke-linecap="butt" stroke-linejoin="miter" stroke-miterlimit="8" stroke-opacity="1" fill="none" fill-rule="evenodd" transform="matrix(-1 0 0 1 1665.12 1667)"/><path d="M1747 2059 2995.38 2059" stroke="#767171" stroke-width="10.3125" stroke-linecap="butt" stroke-linejoin="miter" stroke-miterlimit="8" stroke-opacity="1" fill="none" fill-rule="evenodd"/><g><g><g><path d="M1166.92 358.924 1161.77 358.924 1161.77 298.162C1161.77 296.811 1160.98 295.584 1159.75 295.031L1159.43 294.886C1152.52 291.769 1145.38 288.541 1135.11 288.541 1124.37 288.541 1116.49 292.009 1108.7 295.876 1107.53 296.457 1106.79 297.65 1106.79 298.956L1106.79 358.924 1101.77 358.924 1101.77 294.072C1110.13 287.269 1122.19 283.391 1135.14 283.391 1147.17 283.391 1158.65 286.819 1166.92 292.838L1166.92 358.924ZM1135.14 276.516C1119.93 276.516 1105.68 281.394 1096.05 289.905 1095.31 290.555 1094.89 291.494 1094.89 292.48L1094.89 362.361C1094.89 364.262 1096.43 365.799 1098.33 365.799L1110.23 365.799C1112.13 365.799 1113.67 364.262 1113.67 362.361L1113.67 301.098C1120.27 297.911 1126.66 295.416 1135.11 295.416 1143.13 295.416 1148.97 297.736 1154.9 300.386L1154.9 362.361C1154.9 364.262 1156.43 365.799 1158.33 365.799L1170.36 365.799C1172.26 365.799 1173.79 364.262 1173.79 362.361L1173.79 291.136C1173.79 290.091 1173.32 289.101 1172.5 288.444 1162.96 280.865 1149.34 276.516 1135.14 276.516ZM1134.34 388.936C1096.52 388.936 1065.75 358.164 1065.75 320.341 1065.75 282.518 1096.52 251.749 1134.34 251.749 1172.17 251.749 1202.94 282.518 1202.94 320.341 1202.94 358.164 1172.17 388.936 1134.34 388.936ZM1134.34 244.874C1092.73 244.874 1058.87 278.73 1058.87 320.341 1058.87 361.959 1092.73 395.811 1134.34 395.811 1175.96 395.811 1209.81 361.959 1209.81 320.341 1209.81 278.73 1175.96 244.874 1134.34 244.874Z" fill="#8C4FFF" fill-rule="evenodd" fill-opacity="1"/></g></g></g><text fill="#000000" fill-opacity="1" font-family="Arial,Arial_MSFontService,sans-serif" font-style="normal" font-variant="normal" font-weight="400" font-stretch="normal" font-size="55" text-anchor="start" direction="ltr" writing-mode="lr-tb" unicode-bidi="normal" text-decoration="none" transform="matrix(1 0 0 1 932.701 472)">Internet gateway</text><g><g><g><path d="M2035.92 356.924 2030.77 356.924 2030.77 296.163C2030.77 294.812 2029.98 293.584 2028.75 293.031L2028.43 292.887C2021.52 289.769 2014.38 286.541 2004.11 286.541 1993.37 286.541 1985.49 290.009 1977.7 293.877 1976.53 294.458 1975.79 295.65 1975.79 296.957L1975.79 356.924 1970.77 356.924 1970.77 292.072C1979.13 285.269 1991.19 281.392 2004.14 281.392 2016.17 281.392 2027.65 284.819 2035.92 290.838L2035.92 356.924ZM2004.14 274.517C1988.93 274.517 1974.68 279.394 1965.05 287.906 1964.31 288.555 1963.89 289.494 1963.89 290.48L1963.89 360.361C1963.89 362.262 1965.43 363.799 1967.33 363.799L1979.23 363.799C1981.13 363.799 1982.67 362.262 1982.67 360.361L1982.67 299.098C1989.27 295.912 1995.66 293.416 2004.11 293.416 2012.13 293.416 2017.97 295.736 2023.9 298.387L2023.9 360.361C2023.9 362.262 2025.43 363.799 2027.33 363.799L2039.36 363.799C2041.26 363.799 2042.79 362.262 2042.79 360.361L2042.79 289.136C2042.79 288.091 2042.32 287.101 2041.5 286.445 2031.96 278.865 2018.34 274.517 2004.14 274.517ZM2003.34 386.937C1965.52 386.937 1934.75 356.164 1934.75 318.341 1934.75 280.519 1965.52 249.749 2003.34 249.749 2041.17 249.749 2071.94 280.519 2071.94 318.341 2071.94 356.164 2041.17 386.937 2003.34 386.937ZM2003.34 242.874C1961.73 242.874 1927.87 276.73 1927.87 318.341 1927.87 359.959 1961.73 393.812 2003.34 393.812 2044.96 393.812 2078.81 359.959 2078.81 318.341 2078.81 276.73 2044.96 242.874 2003.34 242.874Z" fill="#8C4FFF" fill-rule="evenodd" fill-opacity="1"/></g></g></g><text fill="#000000" fill-opacity="1" font-family="Arial,Arial_MSFontService,sans-serif" font-style="normal" font-variant="normal" font-weight="400" font-stretch="normal" font-size="55" text-anchor="start" direction="ltr" writing-mode="lr-tb" unicode-bidi="normal" text-decoration="none" transform="matrix(1 0 0 1 1861.96 451)">Egress only </text><text fill="#000000" fill-opacity="1" font-family="Arial,Arial_MSFontService,sans-serif" font-style="normal" font-variant="normal" font-weight="400" font-stretch="normal" font-size="55" text-anchor="start" direction="ltr" writing-mode="lr-tb" unicode-bidi="normal" text-decoration="none" transform="matrix(1 0 0 1 1903.21 517)">gateway</text><rect x="638.5" y="1402.5" width="1462" height="265" stroke="#ED7000" stroke-width="4.58333" stroke-linecap="butt" stroke-linejoin="miter" stroke-miterlimit="8" stroke-opacity="1" fill="#FB9900" fill-opacity="0.2"/><text fill="#000000" fill-opacity="1" font-family="Arial,Arial_MSFontService,sans-serif" font-style="normal" font-variant="normal" font-weight="400" font-stretch="normal" font-size="46" text-anchor="start" direction="ltr" writing-mode="lr-tb" unicode-bidi="normal" text-decoration="none" transform="matrix(1 0 0 1 957.102 1496)">Dual</text><text fill="#000000" fill-opacity="1" font-family="Arial,Arial_MSFontService,sans-serif" font-style="normal" font-variant="normal" font-weight="400" font-stretch="normal" font-size="46" text-anchor="start" direction="ltr" writing-mode="lr-tb" unicode-bidi="normal" text-decoration="none" transform="matrix(1 0 0 1 1051.06 1496)">-</text><text fill="#000000" fill-opacity="1" font-family="Arial,Arial_MSFontService,sans-serif" font-style="normal" font-variant="normal" font-weight="400" font-stretch="normal" font-size="46" text-anchor="start" direction="ltr" writing-mode="lr-tb" unicode-bidi="normal" text-decoration="none" transform="matrix(1 0 0 1 1066.53 1496)">stack task:</text><text fill="#000000" fill-opacity="1" font-family="Arial,Arial_MSFontService,sans-serif" font-style="normal" font-variant="normal" font-weight="400" font-stretch="normal" font-size="46" text-anchor="start" direction="ltr" writing-mode="lr-tb" unicode-bidi="normal" text-decoration="none" transform="matrix(1 0 0 1 957.102 1551)">IPv4: 10.0.249.99</text><text fill="#000000" fill-opacity="1" font-family="Arial,Arial_MSFontService,sans-serif" font-style="normal" font-variant="normal" font-weight="400" font-stretch="normal" font-size="46" text-anchor="start" direction="ltr" writing-mode="lr-tb" unicode-bidi="normal" text-decoration="none" transform="matrix(1 0 0 1 957.102 1606)">IPv6: 2600:1f16:545:2755:c818:4f5c:f8d3:d3af</text><path d="M0 0 1.2606 851.994" stroke="#767171" stroke-width="10.3125" stroke-linecap="butt" stroke-linejoin="miter" stroke-miterlimit="8" stroke-opacity="1" fill="none" fill-rule="evenodd" transform="matrix(-1 0 0 1 2005.26 548)"/><path d="M1136 503 1136 796.863" stroke="#767171" stroke-width="10.3125" stroke-linecap="butt" stroke-linejoin="miter" stroke-miterlimit="8" stroke-opacity="1" fill="none" fill-rule="evenodd"/><rect x="577.5" y="797.5" width="1117" height="361" stroke="#8C4EFF" stroke-width="4.58333" stroke-linecap="butt" stroke-linejoin="miter" stroke-miterlimit="8" stroke-opacity="1" fill="#8C4EFF" fill-opacity="0.2"/><text fill="#000000" fill-opacity="1" font-family="Arial,Arial_MSFontService,sans-serif" font-style="normal" font-variant="normal" font-weight="400" font-stretch="normal" font-size="50" text-anchor="start" direction="ltr" writing-mode="lr-tb" unicode-bidi="normal" text-decoration="none" transform="matrix(1 0 0 1 741.774 884)">Application Load Balancer</text><g><g><g><path d="M577 797 713 797 713 933 577 933Z" fill="#8C4FFF" fill-rule="evenodd" fill-opacity="1"/><path d="M628 887.1C615.815 887.1 605.9 877.186 605.9 865 605.9 852.815 615.815 842.9 628 842.9 640.186 842.9 650.1 852.815 650.1 865 650.1 877.186 640.186 887.1 628 887.1M679 897.3C679 901.05 675.95 904.1 672.2 904.1 668.45 904.1 665.4 901.05 665.4 897.3 665.4 893.55 668.45 890.5 672.2 890.5 675.95 890.5 679 893.55 679 897.3M672.2 825.9C675.95 825.9 679 828.95 679 832.7 679 836.45 675.95 839.5 672.2 839.5 668.45 839.5 665.4 836.45 665.4 832.7 665.4 828.95 668.45 825.9 672.2 825.9M677.3 858.2C681.05 858.2 684.1 861.25 684.1 865 684.1 868.75 681.05 871.8 677.3 871.8 673.55 871.8 670.5 868.75 670.5 865 670.5 861.25 673.55 858.2 677.3 858.2M653.413 866.7 667.253 866.7C668.066 871.516 672.256 875.2 677.3 875.2 682.925 875.2 687.5 870.625 687.5 865 687.5 859.375 682.925 854.8 677.3 854.8 672.256 854.8 668.066 858.484 667.253 863.3L653.413 863.3C653.199 860.068 652.385 857.005 651.072 854.212L666.158 840.899C667.851 842.15 669.937 842.9 672.2 842.9 677.825 842.9 682.4 838.325 682.4 832.7 682.4 827.075 677.825 822.5 672.2 822.5 666.575 822.5 662 827.075 662 832.7 662 834.835 662.661 836.816 663.787 838.456L649.388 851.16C644.837 844.155 636.961 839.5 628 839.5 613.939 839.5 602.5 850.939 602.5 865 602.5 879.061 613.939 890.5 628 890.5 636.961 890.5 644.837 885.845 649.388 878.84L663.787 891.544C662.661 893.184 662 895.165 662 897.3 662 902.925 666.575 907.5 672.2 907.5 677.825 907.5 682.4 902.925 682.4 897.3 682.4 891.675 677.825 887.1 672.2 887.1 669.937 887.1 667.851 887.85 666.158 889.101L651.072 875.788C652.385 872.995 653.199 869.932 653.413 866.7" fill="#FFFFFF" fill-rule="evenodd" fill-opacity="1"/></g></g></g><rect x="773.5" y="961.5" width="780" height="144" stroke="#8C4EFF" stroke-width="4.58333" stroke-linecap="butt" stroke-linejoin="miter" stroke-miterlimit="8" stroke-opacity="1" fill="#8C4EFF" fill-opacity="0.2"/><text fill="#000000" fill-opacity="1" font-family="Arial,Arial_MSFontService,sans-serif" font-style="normal" font-variant="normal" font-weight="400" font-stretch="normal" font-size="46" text-anchor="start" direction="ltr" writing-mode="lr-tb" unicode-bidi="normal" text-decoration="none" transform="matrix(1 0 0 1 805.784 1050)">Target Group: 10.0.249.99</text><path d="M1312 1105 1312 1400.92" stroke="#767171" stroke-width="10.3125" stroke-linecap="butt" stroke-linejoin="miter" stroke-miterlimit="8" stroke-opacity="1" fill="none" fill-rule="evenodd"/><path d="M2004 96.9999 2004 236.106" stroke="#767171" stroke-width="10.3125" stroke-linecap="butt" stroke-linejoin="miter" stroke-miterlimit="8" stroke-opacity="1" fill="none" fill-rule="evenodd"/><path d="M1135 96.9999 1135 237.84" stroke="#767171" stroke-width="10.3125" stroke-linecap="butt" stroke-linejoin="miter" stroke-miterlimit="8" stroke-opacity="1" fill="none" fill-rule="evenodd"/><text fill="#000000" fill-opacity="1" font-family="Arial,Arial_MSFontService,sans-serif" font-style="normal" font-variant="normal" font-weight="400" font-stretch="normal" font-size="55" text-anchor="start" direction="ltr" writing-mode="lr-tb" unicode-bidi="normal" text-decoration="none" transform="matrix(1 0 0 1 2039.23 886)">IPv6 out </text><text fill="#000000" fill-opacity="1" font-family="Arial,Arial_MSFontService,sans-serif" font-style="normal" font-variant="normal" font-weight="400" font-stretch="normal" font-size="55" text-anchor="start" direction="ltr" writing-mode="lr-tb" unicode-bidi="normal" text-decoration="none" transform="matrix(1 0 0 1 2039.23 952)">from task</text><text fill="#000000" fill-opacity="1" font-family="Arial,Arial_MSFontService,sans-serif" font-style="normal" font-variant="normal" font-weight="400" font-stretch="normal" font-size="55" text-anchor="start" direction="ltr" writing-mode="lr-tb" unicode-bidi="normal" text-decoration="none" transform="matrix(1 0 0 1 1167.6 84)">IPv4 and IPv6 in </text><text fill="#000000" fill-opacity="1" font-family="Arial,Arial_MSFontService,sans-serif" font-style="normal" font-variant="normal" font-weight="400" font-stretch="normal" font-size="55" text-anchor="start" direction="ltr" writing-mode="lr-tb" unicode-bidi="normal" text-decoration="none" transform="matrix(1 0 0 1 1167.6 150)">from internet</text><text fill="#000000" fill-opacity="1" font-family="Arial,Arial_MSFontService,sans-serif" font-style="normal" font-variant="normal" font-weight="400" font-stretch="normal" font-size="55" text-anchor="start" direction="ltr" writing-mode="lr-tb" unicode-bidi="normal" text-decoration="none" transform="matrix(1 0 0 1 2037 76)">IPv6 out </text><text fill="#000000" fill-opacity="1" font-family="Arial,Arial_MSFontService,sans-serif" font-style="normal" font-variant="normal" font-weight="400" font-stretch="normal" font-size="55" text-anchor="start" direction="ltr" writing-mode="lr-tb" unicode-bidi="normal" text-decoration="none" transform="matrix(1 0 0 1 2037 142)">to internet</text><text fill="#000000" fill-opacity="1" font-family="Arial,Arial_MSFontService,sans-serif" font-style="normal" font-variant="normal" font-weight="400" font-stretch="normal" font-size="55" text-anchor="start" direction="ltr" writing-mode="lr-tb" unicode-bidi="normal" text-decoration="none" transform="matrix(1 0 0 1 1333.66 1285)">IPv4 in</text><text fill="#000000" fill-opacity="1" font-family="Arial,Arial_MSFontService,sans-serif" font-style="normal" font-variant="normal" font-weight="400" font-stretch="normal" font-size="55" text-anchor="start" direction="ltr" writing-mode="lr-tb" unicode-bidi="normal" text-decoration="none" transform="matrix(1 0 0 1 1333.66 1351)">to task</text><text fill="#000000" fill-opacity="1" font-family="Arial,Arial_MSFontService,sans-serif" font-style="normal" font-variant="normal" font-weight="400" font-stretch="normal" font-size="55" text-anchor="start" direction="ltr" writing-mode="lr-tb" unicode-bidi="normal" text-decoration="none" transform="matrix(1 0 0 1 2577.94 408)">IPv6 to AWS</text><text fill="#000000" fill-opacity="1" font-family="Arial,Arial_MSFontService,sans-serif" font-style="normal" font-variant="normal" font-weight="400" font-stretch="normal" font-size="55" text-anchor="start" direction="ltr" writing-mode="lr-tb" unicode-bidi="normal" text-decoration="none" transform="matrix(1 0 0 1 2577.94 474)">dual</text><text fill="#000000" fill-opacity="1" font-family="Arial,Arial_MSFontService,sans-serif" font-style="normal" font-variant="normal" font-weight="400" font-stretch="normal" font-size="55" text-anchor="start" direction="ltr" writing-mode="lr-tb" unicode-bidi="normal" text-decoration="none" transform="matrix(1 0 0 1 2681.06 474)">-</text><text fill="#000000" fill-opacity="1" font-family="Arial,Arial_MSFontService,sans-serif" font-style="normal" font-variant="normal" font-weight="400" font-stretch="normal" font-size="55" text-anchor="start" direction="ltr" writing-mode="lr-tb" unicode-bidi="normal" text-decoration="none" transform="matrix(1 0 0 1 2699.4 474)">stack </text><text fill="#000000" fill-opacity="1" font-family="Arial,Arial_MSFontService,sans-serif" font-style="normal" font-variant="normal" font-weight="400" font-stretch="normal" font-size="55" text-anchor="start" direction="ltr" writing-mode="lr-tb" unicode-bidi="normal" text-decoration="none" transform="matrix(1 0 0 1 2577.94 540)">endpoints</text><path d="M2086 319 2995.06 319" stroke="#767171" stroke-width="10.3125" stroke-linecap="butt" stroke-linejoin="miter" stroke-miterlimit="8" stroke-opacity="1" fill="none" fill-rule="evenodd"/><text fill="#000000" fill-opacity="1" font-family="Arial,Arial_MSFontService,sans-serif" font-style="normal" font-variant="normal" font-weight="400" font-stretch="normal" font-size="55" text-anchor="start" direction="ltr" writing-mode="lr-tb" unicode-bidi="normal" text-decoration="none" transform="matrix(1 0 0 1 2569.95 2148)">IPv4 to AWS </text><text fill="#000000" fill-opacity="1" font-family="Arial,Arial_MSFontService,sans-serif" font-style="normal" font-variant="normal" font-weight="400" font-stretch="normal" font-size="55" text-anchor="start" direction="ltr" writing-mode="lr-tb" unicode-bidi="normal" text-decoration="none" transform="matrix(1 0 0 1 2569.95 2214)">non dual</text><text fill="#000000" fill-opacity="1" font-family="Arial,Arial_MSFontService,sans-serif" font-style="normal" font-variant="normal" font-weight="400" font-stretch="normal" font-size="55" text-anchor="start" direction="ltr" writing-mode="lr-tb" unicode-bidi="normal" text-decoration="none" transform="matrix(1 0 0 1 2779.64 2214)">-</text><text fill="#000000" fill-opacity="1" font-family="Arial,Arial_MSFontService,sans-serif" font-style="normal" font-variant="normal" font-weight="400" font-stretch="normal" font-size="55" text-anchor="start" direction="ltr" writing-mode="lr-tb" unicode-bidi="normal" text-decoration="none" transform="matrix(1 0 0 1 2797.97 2214)">stack</text><text fill="#000000" fill-opacity="1" font-family="Arial,Arial_MSFontService,sans-serif" font-style="normal" font-variant="normal" font-weight="400" font-stretch="normal" font-size="55" text-anchor="start" direction="ltr" writing-mode="lr-tb" unicode-bidi="normal" text-decoration="none" transform="matrix(1 0 0 1 2569.95 2280)">endpoints</text><rect x="2995" y="72.9999" width="1033" height="2170" stroke="#767171" stroke-width="10.3125" stroke-linecap="butt" stroke-linejoin="miter" stroke-miterlimit="8" stroke-opacity="1" fill="none"/><text fill="#000000" fill-opacity="1" font-family="Arial,Arial_MSFontService,sans-serif" font-style="normal" font-variant="normal" font-weight="400" font-stretch="normal" font-size="55" text-anchor="start" direction="ltr" writing-mode="lr-tb" unicode-bidi="normal" text-decoration="none" transform="matrix(1 0 0 1 3176.98 159)">AWS Services</text><g><g><g><path d="M0 0 137 0 137 137 0 137Z" fill="#242F3E" fill-rule="evenodd" fill-opacity="1" transform="matrix(1 0 0 1.0073 2992 69.0001)"/><path d="M111.991 81.8603C113.228 83.4667 110.621 90.0769 109.454 93.0361 109.097 93.9335 109.858 94.2862 110.652 93.6115 115.834 89.2138 117.177 79.9971 116.112 78.6682 115.06 77.3462 106.005 76.2125 100.483 80.1478 99.6306 80.7541 99.7779 81.5898 100.72 81.4802 103.83 81.0966 110.758 80.2574 111.991 81.8603L111.991 81.8603ZM109.108 88.7412C110.882 87.4465 109.361 85.5182 107.553 86.2752 95.5206 91.2894 82.4577 93.7177 70.5626 93.7177 52.9478 93.7177 35.8776 88.9604 22.0783 81.0623 20.8727 80.3705 19.9787 81.5932 20.9857 82.4803 33.7712 93.8376 50.677 100.664 69.4392 100.664 82.831 100.664 98.3839 96.5262 109.108 88.7412ZM101.764 70.8798C100.059 70.8798 98.3908 70.6982 96.7673 70.3283 95.137 69.955 93.8903 69.5337 93.0238 69.0508 92.4929 68.7631 92.1607 68.4617 92.0271 68.1672 91.897 67.8658 91.8285 67.5712 91.8285 67.2767L91.8285 65.6703C91.8285 65.0059 92.0785 64.6668 92.5683 64.6668 92.7566 64.6668 92.9553 64.7113 93.1608 64.7798 93.3697 64.8586 93.6437 64.9682 93.9862 65.1155 95.0822 65.5984 96.2707 65.9649 97.5619 66.2252 98.8497 66.4821 100.134 66.6122 101.418 66.6122 103.463 66.6122 105.042 66.2629 106.159 65.5573 107.279 64.8586 107.834 63.8619 107.834 62.5673 107.834 61.6768 107.542 60.9404 106.953 60.3445 106.368 59.7485 105.278 59.2039 103.693 58.6833L98.9833 57.2414C96.5961 56.5016 94.8664 55.4296 93.7876 54.0288 92.7087 52.6176 92.171 51.0867 92.171 49.4153 92.171 48.0898 92.4621 46.9184 93.0546 45.8978 93.6369 44.8806 94.4075 44.014 95.3699 43.2914 96.346 42.5721 97.4729 42.031 98.7572 41.6542 100.038 41.2877 101.401 41.0994 102.84 41.0994 103.559 41.0994 104.289 41.1473 105.032 41.2398 105.768 41.3288 106.467 41.4521 107.128 41.5994 107.789 41.7535 108.405 41.9179 108.971 42.0995 109.539 42.2878 109.991 42.4728 110.337 42.6543 110.786 42.9112 111.104 43.1715 111.3 43.4318 111.488 43.6887 111.584 44.038 111.584 44.4867L111.584 45.98C111.584 46.6479 111.337 46.9767 110.841 46.9767 110.577 46.9767 110.166 46.8534 109.594 46.5931 107.744 45.7745 105.655 45.3738 103.357 45.3738 101.501 45.3738 100.059 45.6683 99.0381 46.2574 98.014 46.8534 97.5037 47.7952 97.5037 49.0899 97.5037 49.9735 97.8257 50.7236 98.473 51.3333 99.1169 51.9429 100.305 52.5252 102.049 53.0835L106.645 54.5288C108.991 55.2618 110.666 56.2824 111.666 57.5702 112.673 58.8683 113.177 60.3445 113.177 62.0056 113.177 63.379 112.892 64.6086 112.32 65.6977 111.752 66.7903 110.967 67.7185 109.96 68.496 108.96 69.2734 107.762 69.8625 106.361 70.2701 104.957 70.6811 103.426 70.8798 101.764 70.8798ZM60.0992 70.0441C59.5307 70.0441 59.1163 69.9516 58.8491 69.7461 58.582 69.5372 58.3559 69.1262 58.1675 68.496L50.5572 43.9832C50.3756 43.353 50.2763 42.9317 50.2763 42.7125 50.2763 42.1954 50.5435 41.9351 51.0743 41.9351L54.2493 41.9351C54.8555 41.9351 55.2802 42.0378 55.5303 42.2433 55.7735 42.442 55.9892 42.853 56.1776 43.49L61.6268 64.451 66.6855 43.49C66.8362 42.853 67.0417 42.442 67.3054 42.2433 67.5692 42.0378 68.0041 41.9351 68.6069 41.9351L71.2271 41.9351C71.8264 41.9351 72.2614 42.0378 72.5286 42.2433 72.7923 42.442 73.0012 42.853 73.1519 43.49L78.2654 64.7285 83.8825 43.49C84.0708 42.853 84.2866 42.442 84.5332 42.2433 84.7832 42.0378 85.2045 41.9351 85.8107 41.9351L88.8179 41.9351C89.3522 41.9351 89.6159 42.1954 89.6159 42.7125 89.6159 42.853 89.5919 43.0242 89.5611 43.2057 89.5166 43.3975 89.4481 43.6544 89.3282 43.9832L81.4987 68.496C81.3103 69.1262 81.0808 69.5372 80.8137 69.7461 80.5499 69.9516 80.1321 70.0441 79.5669 70.0441L76.7824 70.0441C76.1796 70.0441 75.7447 69.9413 75.4809 69.7221 75.2172 69.4995 75.0083 69.0679 74.8576 68.4446L69.8023 48.0316 64.812 68.4446C64.6613 69.0679 64.449 69.4995 64.1853 69.7221 63.9181 69.9413 63.4866 70.0441 62.8803 70.0441L60.0992 70.0441ZM34.0418 66.6122C35.107 66.6122 36.2201 66.417 37.3949 66.03 38.5662 65.6395 39.5869 64.9682 40.4568 64.0024 40.9911 63.4133 41.3542 62.7385 41.5665 61.9782 41.772 61.2247 41.8714 60.3102 41.8714 59.2348L41.8714 57.9059C40.9329 57.6832 39.9397 57.5086 38.895 57.3784 37.8538 57.2517 36.8435 57.1832 35.8571 57.1832 33.7027 57.1832 32.0895 57.6079 31.0346 58.4607 29.9763 59.3101 29.442 60.526 29.442 62.1255 29.442 63.6016 29.8427 64.7148 30.6373 65.4751 31.4319 66.2355 32.569 66.6122 34.0418 66.6122ZM47.2144 61.7898C47.2144 62.9714 47.3342 63.9099 47.5808 64.6154 47.8309 65.321 48.1802 66.0813 48.6323 66.8896 48.783 67.1499 48.8584 67.3897 48.8584 67.6055 48.8584 67.9445 48.6494 68.2596 48.235 68.5508L46.1903 69.8865C45.8889 70.068 45.6046 70.1639 45.3409 70.1639 44.995 70.1639 44.6764 70.0167 44.375 69.7221 43.9161 69.2734 43.5325 68.7871 43.214 68.2494 42.8852 67.7151 42.5564 67.0883 42.2173 66.3862 39.6794 69.3077 36.5044 70.7702 32.6821 70.7702 29.9558 70.7702 27.798 70.0167 26.2054 68.496 24.6196 66.9821 23.825 64.9477 23.825 62.3995 23.825 59.704 24.808 57.5257 26.7808 55.8817 28.7433 54.2377 31.3977 53.4123 34.7234 53.4123 35.8228 53.4123 36.9668 53.4979 38.1587 53.6623 39.3471 53.8267 40.5904 54.063 41.8714 54.3576L41.8714 52.032C41.8714 49.6276 41.3679 47.9357 40.3438 46.9527 39.3232 45.9731 37.5661 45.4868 35.0693 45.4868 33.9288 45.4868 32.7643 45.6204 31.5724 45.8978 30.3839 46.1752 29.216 46.5348 28.0823 46.9767 27.5514 47.1993 27.1712 47.3397 26.9486 47.3945 26.7226 47.4493 26.5513 47.4767 26.4383 47.4767 25.9862 47.4767 25.7533 47.1479 25.7533 46.4766L25.7533 44.9285C25.7533 44.4079 25.8355 44.038 25.9862 43.8222 26.1369 43.5962 26.4383 43.3736 26.8938 43.1544 28.0275 42.5961 29.3906 42.1166 30.9764 41.7124 32.569 41.3049 34.2507 41.0994 36.0317 41.0994 39.8883 41.0994 42.7173 41.9659 44.5155 43.6784 46.3102 45.3977 47.2144 47.9939 47.2144 51.4703L47.2144 61.7898Z" fill="#FFFFFF" fill-rule="evenodd" fill-opacity="1" transform="matrix(1 0 0 1.0073 2992 69.0001)"/></g></g></g><g><g><g><path d="M0 0 202 0 202 202 0 202Z" fill="#ED7100" fill-rule="evenodd" fill-opacity="1" transform="matrix(1.00495 0 0 1 3069 1402)"/><path d="M161.6 121.791 141.4 109.668 141.4 80.7999C141.4 79.901 140.925 79.0703 140.147 78.6183L111.1 61.6756 111.1 37.2488 161.6 67.0917 161.6 121.791ZM165.41 63.4759 109.86 30.6509C109.077 30.1889 108.115 30.1838 107.322 30.6307 106.537 31.0802 106.05 31.9185 106.05 32.825L106.05 63.1249C106.05 64.0213 106.527 64.852 107.302 65.3065L136.35 82.2493 136.35 111.1C136.35 111.986 136.817 112.809 137.577 113.264L162.827 128.414C163.226 128.654 163.675 128.775 164.125 128.775 164.554 128.775 164.983 128.666 165.37 128.447 166.162 128 166.65 127.159 166.65 126.25L166.65 65.6499C166.65 64.7561 166.18 63.9304 165.41 63.4759ZM102.124 168.829 42.925 137.357 42.925 67.0917 93.4249 37.2488 93.4249 61.7387 66.819 78.6688C66.0918 79.1334 65.6499 79.9364 65.6499 80.7999L65.6499 123.725C65.6499 124.667 66.1751 125.53 67.0084 125.965L100.977 143.64C101.707 144.018 102.575 144.021 103.303 143.642L136.259 126.613 156.54 138.784 102.124 168.829ZM162.9 136.708 137.65 121.558C136.898 121.109 135.969 121.079 135.191 121.483L102.149 138.554 70.6999 122.192 70.6999 82.1861 97.3058 65.256C98.033 64.7914 98.4749 63.9885 98.4749 63.1249L98.4749 32.825C98.4749 31.9185 97.9901 31.0802 97.2023 30.6307 96.4145 30.1838 95.4499 30.1889 94.6647 30.6509L39.1147 63.4759C38.3471 63.9304 37.875 64.7561 37.875 65.6499L37.875 138.875C37.875 139.807 38.3901 140.665 39.2132 141.104L100.959 173.929C101.331 174.126 101.737 174.225 102.144 174.225 102.565 174.225 102.985 174.119 103.366 173.909L162.822 141.084C163.612 140.647 164.107 139.822 164.125 138.92 164.14 138.016 163.673 137.173 162.9 136.708Z" fill="#FFFFFF" fill-rule="evenodd" fill-opacity="1" transform="matrix(1.00495 0 0 1 3069 1402)"/></g></g></g><text fill="#000000" fill-opacity="1" font-family="Arial,Arial_MSFontService,sans-serif" font-style="normal" font-variant="normal" font-weight="400" font-stretch="normal" font-size="55" text-anchor="start" direction="ltr" writing-mode="lr-tb" unicode-bidi="normal" text-decoration="none" transform="matrix(1 0 0 1 3329.21 1489)">Amazon Elastic Container </text><text fill="#000000" fill-opacity="1" font-family="Arial,Arial_MSFontService,sans-serif" font-style="normal" font-variant="normal" font-weight="400" font-stretch="normal" font-size="55" text-anchor="start" direction="ltr" writing-mode="lr-tb" unicode-bidi="normal" text-decoration="none" transform="matrix(1 0 0 1 3329.21 1555)">Service (Amazon ECS)</text><g><g><g><path d="M0 0 202 0 202 202 0 202Z" fill="#7AA116" fill-rule="evenodd" fill-opacity="1" transform="matrix(1.00495 0 0 1 3070 1941)"/><path d="M120.786 78.0047 121.755 71.1771C130.696 76.5327 130.813 78.7446 130.81 78.8052 130.795 78.8178 129.27 80.0904 120.786 78.0047ZM115.88 76.6412C100.427 71.9649 78.9062 62.0922 70.1974 57.9765 70.1974 57.9411 70.2076 57.9083 70.2076 57.8729 70.2076 54.5273 67.4856 51.8054 64.1375 51.8054 60.7944 51.8054 58.0724 54.5273 58.0724 57.8729 58.0724 61.2186 60.7944 63.9405 64.1375 63.9405 65.607 63.9405 66.9402 63.3926 67.9931 62.5215 78.2396 67.372 99.5935 77.1008 115.16 81.6963L109.004 125.141C108.986 125.26 108.979 125.379 108.979 125.497 108.979 129.323 92.0437 136.35 64.3723 136.35 36.4079 136.35 19.2935 129.323 19.2935 125.497 19.2935 125.381 19.2859 125.268 19.2708 125.154L6.40844 31.2064C17.5412 38.8698 41.4857 42.925 64.3874 42.925 87.2538 42.925 111.158 38.885 122.313 31.2443L115.88 76.6412ZM5.04999 21.4069C5.23179 18.084 24.3258 5.04999 64.3874 5.04999 104.444 5.04999 123.541 18.0815 123.725 21.4069L123.725 22.5407C121.528 29.9919 96.7831 37.875 64.3874 37.875 31.9362 37.875 7.17857 29.9667 5.04999 22.5053L5.04999 21.4069ZM128.775 21.4625C128.775 12.7134 103.692 0 64.3874 0 25.0833 0 0 12.7134 0 21.4625L0.23735 23.3663 14.246 125.689C14.5819 137.133 45.099 141.4 64.3723 141.4 88.2891 141.4 113.698 135.9 114.026 125.697L120.076 83.032C123.442 83.8375 126.212 84.2491 128.437 84.2491 131.424 84.2491 133.444 83.5193 134.668 82.0599 135.673 80.863 136.057 79.4137 135.769 77.8709 135.115 74.3763 130.967 70.609 122.518 65.7888L128.517 23.4648 128.775 21.4625Z" fill="#FFFFFF" fill-rule="evenodd" fill-opacity="1" transform="matrix(1.00495 0 0 1 3102.99 1971.3)"/></g></g></g><text fill="#000000" fill-opacity="1" font-family="Arial,Arial_MSFontService,sans-serif" font-style="normal" font-variant="normal" font-weight="400" font-stretch="normal" font-size="55" text-anchor="start" direction="ltr" writing-mode="lr-tb" unicode-bidi="normal" text-decoration="none" transform="matrix(1 0 0 1 3329.21 2022)">Amazon Simple Storage </text><text fill="#000000" fill-opacity="1" font-family="Arial,Arial_MSFontService,sans-serif" font-style="normal" font-variant="normal" font-weight="400" font-stretch="normal" font-size="55" text-anchor="start" direction="ltr" writing-mode="lr-tb" unicode-bidi="normal" text-decoration="none" transform="matrix(1 0 0 1 3329.21 2088)">Service (Amazon S3)</text><g><g><g><path d="M0 0 201 0 201 201 0 201Z" fill="#ED7100" fill-rule="evenodd" fill-opacity="1" transform="matrix(1.00498 0 0 1 3070 1671)"/><path d="M97.4552 94.414C96.2122 95.1371 95.4389 96.48 95.4389 97.9215L95.4389 167.633 42.7093 138.148 42.7093 69.6154 101.9 35.323 154.481 61.3761 97.4552 94.414ZM160.6 61.3106C160.6 59.8669 159.829 58.5214 158.438 57.7252L103.883 30.6892C102.638 29.9711 101.091 29.9686 99.8481 30.6917L39.7038 65.5361C38.4609 66.2592 37.6875 67.6024 37.6875 69.0435L37.6875 138.73C37.6875 140.171 38.4609 141.514 39.7415 142.257L94.4042 172.823C95.0271 173.184 95.7275 173.363 96.4255 173.363 97.1212 173.363 97.8217 173.184 98.4418 172.823 99.6872 172.103 100.461 170.76 100.461 169.316L100.461 98.4933 158.584 64.818C159.829 64.0974 160.6 62.7545 160.6 61.3106ZM160.723 138.306 113.015 167.487 113.015 141.358 137.891 125.305 138.062 124.179C138.107 123.884 138.124 123.884 138.124 122.526L138.202 91.355 160.801 78.2604 160.723 138.306ZM163.806 73.0422C162.558 72.3141 161.012 72.3166 159.766 73.0422L135.709 86.9785C134.956 87.3891 133.183 88.3541 133.183 90.3448L133.103 122.403 110.175 137.198C108.807 138.014 107.993 139.307 107.993 140.672L107.993 169.112C107.993 170.536 108.759 171.833 110.042 172.576 110.713 172.962 111.459 173.159 112.202 173.159 112.932 173.159 113.663 172.972 114.324 172.589L163.733 142.368C164.976 141.645 165.745 140.302 165.745 138.868L165.825 76.5471C165.825 75.1059 165.052 73.7628 163.806 73.0422Z" fill="#FFFFFF" fill-rule="evenodd" fill-opacity="1" transform="matrix(1.00498 0 0 1 3070 1671)"/></g></g></g><text fill="#000000" fill-opacity="1" font-family="Arial,Arial_MSFontService,sans-serif" font-style="normal" font-variant="normal" font-weight="400" font-stretch="normal" font-size="55" text-anchor="start" direction="ltr" writing-mode="lr-tb" unicode-bidi="normal" text-decoration="none" transform="matrix(1 0 0 1 3313.79 1758)">Amazon Elastic Container </text><text fill="#000000" fill-opacity="1" font-family="Arial,Arial_MSFontService,sans-serif" font-style="normal" font-variant="normal" font-weight="400" font-stretch="normal" font-size="55" text-anchor="start" direction="ltr" writing-mode="lr-tb" unicode-bidi="normal" text-decoration="none" transform="matrix(1 0 0 1 3313.79 1824)">Registry (Amazon ECR)</text><g><g><g><path d="M0 0 201 0 201 201 0 201Z" fill="#ED7100" fill-rule="evenodd" fill-opacity="1" transform="matrix(1.00498 0 0 1 3070 302)"/><path d="M67.8374 133.162 130.65 133.162 130.65 70.3499 67.8374 70.3499 67.8374 133.162ZM135.675 70.3499 145.725 70.3499 145.725 75.3749 135.675 75.3749 135.675 85.4249 145.725 85.4249 145.725 90.4499 135.675 90.4499 135.675 97.9874 145.725 97.9874 145.725 103.012 135.675 103.012 135.675 113.062 145.725 113.062 145.725 118.087 135.675 118.087 135.675 128.137 145.725 128.137 145.725 133.162 135.675 133.162 135.675 133.504C135.675 136.087 133.574 138.187 130.992 138.187L130.65 138.187 130.65 148.237 125.625 148.237 125.625 138.187 115.575 138.187 115.575 148.237 110.55 148.237 110.55 138.187 103.012 138.187 103.012 148.237 97.9874 148.237 97.9874 138.187 87.9374 138.187 87.9374 148.237 82.9124 148.237 82.9124 138.187 72.8624 138.187 72.8624 148.237 67.8374 148.237 67.8374 138.187 67.4957 138.187C64.9129 138.187 62.8124 136.087 62.8124 133.504L62.8124 133.162 55.2749 133.162 55.2749 128.137 62.8124 128.137 62.8124 118.087 55.2749 118.087 55.2749 113.062 62.8124 113.062 62.8124 103.012 55.2749 103.012 55.2749 97.9874 62.8124 97.9874 62.8124 90.4499 55.2749 90.4499 55.2749 85.4249 62.8124 85.4249 62.8124 75.3749 55.2749 75.3749 55.2749 70.3499 62.8124 70.3499 62.8124 70.0082C62.8124 67.4254 64.9129 65.3249 67.4957 65.3249L67.8374 65.3249 67.8374 55.2749 72.8624 55.2749 72.8624 65.3249 82.9124 65.3249 82.9124 55.2749 87.9374 55.2749 87.9374 65.3249 97.9874 65.3249 97.9874 55.2749 103.012 55.2749 103.012 65.3249 110.55 65.3249 110.55 55.2749 115.575 55.2749 115.575 65.3249 125.625 65.3249 125.625 55.2749 130.65 55.2749 130.65 65.3249 130.992 65.3249C133.574 65.3249 135.675 67.4254 135.675 70.0082L135.675 70.3499ZM103.012 165.513C103.012 165.684 102.872 165.825 102.701 165.825L35.4865 165.825C35.3157 165.825 35.175 165.684 35.175 165.513L35.175 98.2989C35.175 98.1281 35.3157 97.9874 35.4865 97.9874L50.2499 97.9874 50.2499 92.9624 35.4865 92.9624C32.5444 92.9624 30.15 95.3568 30.15 98.2989L30.15 165.513C30.15 168.455 32.5444 170.85 35.4865 170.85L102.701 170.85C105.643 170.85 108.037 168.455 108.037 165.513L108.037 153.262 103.012 153.262 103.012 165.513ZM170.85 35.4865 170.85 102.701C170.85 105.643 168.455 108.037 165.513 108.037L150.75 108.037 150.75 103.012 165.513 103.012C165.684 103.012 165.825 102.872 165.825 102.701L165.825 35.4865C165.825 35.3157 165.684 35.175 165.513 35.175L98.2989 35.175C98.1281 35.175 97.9874 35.3157 97.9874 35.4865L97.9874 50.2499 92.9624 50.2499 92.9624 35.4865C92.9624 32.5444 95.3568 30.15 98.2989 30.15L165.513 30.15C168.455 30.15 170.85 32.5444 170.85 35.4865Z" fill="#FFFFFF" fill-rule="evenodd" fill-opacity="1" transform="matrix(1.00498 0 0 1 3070 302)"/></g></g></g><text fill="#000000" fill-opacity="1" font-family="Arial,Arial_MSFontService,sans-serif" font-style="normal" font-variant="normal" font-weight="400" font-stretch="normal" font-size="55" text-anchor="start" direction="ltr" writing-mode="lr-tb" unicode-bidi="normal" text-decoration="none" transform="matrix(1 0 0 1 3317.45 388)">Amazon Elastic Compute </text><text fill="#000000" fill-opacity="1" font-family="Arial,Arial_MSFontService,sans-serif" font-style="normal" font-variant="normal" font-weight="400" font-stretch="normal" font-size="55" text-anchor="start" direction="ltr" writing-mode="lr-tb" unicode-bidi="normal" text-decoration="none" transform="matrix(1 0 0 1 3317.45 454)">Cloud (Amazon EC2)</text><g><g><g><path d="M3069 538 3272 538 3272 741 3069 741Z" fill="#7AA116" fill-rule="evenodd" fill-opacity="1"/><path d="M3223.37 646.84 3224.35 639.979C3233.33 645.361 3233.45 647.583 3233.45 647.644 3233.43 647.657 3231.9 648.936 3223.37 646.84ZM3218.44 645.47C3202.91 640.77 3181.28 630.849 3172.53 626.713 3172.53 626.677 3172.54 626.644 3172.54 626.609 3172.54 623.246 3169.81 620.511 3166.44 620.511 3163.08 620.511 3160.35 623.246 3160.35 626.609 3160.35 629.971 3163.08 632.706 3166.44 632.706 3167.92 632.706 3169.26 632.156 3170.32 631.28 3180.61 636.155 3202.07 645.932 3217.72 650.55L3211.53 694.21C3211.51 694.329 3211.51 694.449 3211.51 694.568 3211.51 698.412 3194.49 705.474 3166.68 705.474 3138.58 705.474 3121.38 698.412 3121.38 694.568 3121.38 694.451 3121.37 694.337 3121.35 694.223L3108.43 599.81C3119.62 607.511 3143.68 611.586 3166.69 611.586 3189.67 611.586 3213.7 607.526 3224.91 599.848L3218.44 645.47ZM3107.06 589.962C3107.25 586.623 3126.43 573.524 3166.69 573.524 3206.95 573.524 3226.14 586.62 3226.32 589.962L3226.32 591.101C3224.12 598.589 3199.25 606.512 3166.69 606.512 3134.08 606.512 3109.2 598.564 3107.06 591.066L3107.06 589.962ZM3231.4 590.018C3231.4 581.225 3206.19 568.449 3166.69 568.449 3127.19 568.449 3101.99 581.225 3101.99 590.018L3102.23 591.931 3116.3 694.761C3116.64 706.261 3147.31 710.549 3166.68 710.549 3190.71 710.549 3216.25 705.022 3216.58 694.768L3222.66 651.892C3226.04 652.702 3228.82 653.115 3231.06 653.115 3234.06 653.115 3236.09 652.382 3237.32 650.915 3238.33 649.712 3238.72 648.256 3238.43 646.706 3237.77 643.194 3233.6 639.408 3225.11 634.564L3231.14 592.03 3231.4 590.018Z" fill="#FFFFFF" fill-rule="evenodd" fill-opacity="1"/></g></g></g><text fill="#000000" fill-opacity="1" font-family="Arial,Arial_MSFontService,sans-serif" font-style="normal" font-variant="normal" font-weight="400" font-stretch="normal" font-size="55" text-anchor="start" direction="ltr" writing-mode="lr-tb" unicode-bidi="normal" text-decoration="none" transform="matrix(1 0 0 1 3328.24 620)">Amazon Simple Storage </text><text fill="#000000" fill-opacity="1" font-family="Arial,Arial_MSFontService,sans-serif" font-style="normal" font-variant="normal" font-weight="400" font-stretch="normal" font-size="55" text-anchor="start" direction="ltr" writing-mode="lr-tb" unicode-bidi="normal" text-decoration="none" transform="matrix(1 0 0 1 3328.24 686)">Service (Amazon S3)</text><text fill="#000000" fill-opacity="1" font-family="Arial,Arial_MSFontService,sans-serif" font-style="normal" font-variant="normal" font-weight="400" font-stretch="normal" font-size="55" text-anchor="start" direction="ltr" writing-mode="lr-tb" unicode-bidi="normal" text-decoration="none" transform="matrix(1 0 0 1 1170.28 676)">IPv4 and IPv6 in </text><text fill="#000000" fill-opacity="1" font-family="Arial,Arial_MSFontService,sans-serif" font-style="normal" font-variant="normal" font-weight="400" font-stretch="normal" font-size="55" text-anchor="start" direction="ltr" writing-mode="lr-tb" unicode-bidi="normal" text-decoration="none" transform="matrix(1 0 0 1 1170.28 742)">to load balancer</text><text fill="#000000" fill-opacity="1" font-family="Arial,Arial_MSFontService,sans-serif" font-style="normal" font-variant="normal" font-weight="400" font-stretch="normal" font-size="55" text-anchor="start" direction="ltr" writing-mode="lr-tb" unicode-bidi="normal" text-decoration="none" transform="matrix(1 0 0 1 1697.6 1871)">IPv4 out from </text><text fill="#000000" fill-opacity="1" font-family="Arial,Arial_MSFontService,sans-serif" font-style="normal" font-variant="normal" font-weight="400" font-stretch="normal" font-size="55" text-anchor="start" direction="ltr" writing-mode="lr-tb" unicode-bidi="normal" text-decoration="none" transform="matrix(1 0 0 1 1697.6 1937)">task</text></g></g></svg>