<svg width="3314" height="1329" xmlns="http://www.w3.org/2000/svg" xmlns:xlink="http://www.w3.org/1999/xlink" xml:space="preserve" overflow="hidden"><g transform="translate(-128 -105)"><g><rect x="1733.5" y="321.5" width="761" height="467" stroke="#548235" stroke-width="4.58333" stroke-linecap="butt" stroke-linejoin="miter" stroke-miterlimit="8" stroke-dasharray="18.3333 13.75" stroke-opacity="0.2" fill="#E2F0D9" fill-opacity="0.2"/><rect x="905.5" y="941.5" width="761" height="426" stroke="#548235" stroke-width="4.58333" stroke-linecap="butt" stroke-linejoin="miter" stroke-miterlimit="8" stroke-dasharray="18.3333 13.75" stroke-opacity="0.2" fill="#E2F0D9" fill-opacity="0.2"/><g><g><g><path d="M0 0 137 0 137 137 0 137Z" fill="#6CAE3E" fill-rule="evenodd" fill-opacity="1" transform="matrix(1.0073 0 0 1 904 1232)"/><path d="M66.9109 75.5179C70.6989 75.5179 73.7814 78.597 73.7814 82.385 73.7814 86.1731 70.6989 89.2556 66.9109 89.2556 63.1228 89.2556 60.0403 86.1731 60.0403 82.385 60.0403 78.597 63.1228 75.5179 66.9109 75.5179L66.9109 75.5179ZM65.1162 92.4991 65.1162 104.466 68.5412 104.466 68.5412 92.5162C73.4389 91.7285 77.2064 87.5054 77.2064 82.385 77.2064 76.7098 72.5861 72.0929 66.9109 72.0929 61.2356 72.0929 56.6153 76.7098 56.6153 82.385 56.6153 87.4472 60.2938 91.6428 65.1162 92.4991ZM34.25 113.073 99.3662 113.073 99.3662 61.6501 34.25 61.6501 34.25 113.073ZM48.1076 42.7578C48.1076 32.4005 56.5331 23.975 66.8869 23.975 77.2441 23.975 85.6662 32.4005 85.6662 42.7578L85.6662 58.2251 48.1076 58.2251 48.1076 42.7578ZM101.079 58.2251 89.0912 58.2251 89.0912 42.7578C89.0912 30.5099 79.1279 20.55 66.8869 20.55 54.6425 20.55 44.6826 30.5099 44.6826 42.7578L44.6826 58.2251 32.5375 58.2251C31.5888 58.2251 30.825 58.9923 30.825 59.9376L30.825 114.786C30.825 115.731 31.5888 116.498 32.5375 116.498L101.079 116.498C102.024 116.498 102.791 115.731 102.791 114.786L102.791 59.9376C102.791 58.9923 102.024 58.2251 101.079 58.2251Z" fill="#232F3E" fill-rule="evenodd" fill-opacity="1" transform="matrix(1.0073 0 0 1 904 1232)"/></g></g></g><rect x="905.5" y="315.5" width="761" height="467" stroke="#548235" stroke-width="4.58333" stroke-linecap="butt" stroke-linejoin="miter" stroke-miterlimit="8" stroke-dasharray="18.3333 13.75" stroke-opacity="0.2" fill="#E2F0D9" fill-opacity="0.2"/><text fill="#6CAE3E" fill-opacity="1" font-family="Arial,Arial_MSFontService,sans-serif" font-style="normal" font-variant="normal" font-weight="400" font-stretch="normal" font-size="55" text-anchor="start" direction="ltr" writing-mode="lr-tb" unicode-bidi="normal" text-decoration="none" transform="matrix(1 0 0 1 1078.79 384)">Public subnet</text><g><g><g><path d="M0 0 137 0 137 137 0 137Z" fill="#6CAE3E" fill-rule="evenodd" fill-opacity="1" transform="matrix(1.0073 0 0 1 904 316)"/><path d="M66.9109 75.5179C70.6989 75.5179 73.7814 78.597 73.7814 82.385 73.7814 86.1731 70.6989 89.2556 66.9109 89.2556 63.1228 89.2556 60.0403 86.1731 60.0403 82.385 60.0403 78.597 63.1228 75.5179 66.9109 75.5179L66.9109 75.5179ZM65.1162 92.4991 65.1162 104.466 68.5412 104.466 68.5412 92.5162C73.4389 91.7285 77.2064 87.5054 77.2064 82.385 77.2064 76.7098 72.5861 72.0929 66.9109 72.0929 61.2356 72.0929 56.6153 76.7098 56.6153 82.385 56.6153 87.4472 60.2938 91.6428 65.1162 92.4991ZM34.25 113.073 99.3662 113.073 99.3662 61.6501 34.25 61.6501 34.25 113.073ZM48.1076 42.7578C48.1076 32.4005 56.5331 23.975 66.8869 23.975 77.2441 23.975 85.6662 32.4005 85.6662 42.7578L85.6662 58.2251 48.1076 58.2251 48.1076 42.7578ZM101.079 58.2251 89.0912 58.2251 89.0912 42.7578C89.0912 30.5099 79.1279 20.55 66.8869 20.55 54.6425 20.55 44.6826 30.5099 44.6826 42.7578L44.6826 58.2251 32.5375 58.2251C31.5888 58.2251 30.825 58.9923 30.825 59.9376L30.825 114.786C30.825 115.731 31.5888 116.498 32.5375 116.498L101.079 116.498C102.024 116.498 102.791 115.731 102.791 114.786L102.791 59.9376C102.791 58.9923 102.024 58.2251 101.079 58.2251Z" fill="#232F3E" fill-rule="evenodd" fill-opacity="1" transform="matrix(1.0073 0 0 1 904 316)"/></g></g></g><rect x="348.5" y="250.5" width="3027" height="1153" stroke="#70AD47" stroke-width="4.58333" stroke-linecap="butt" stroke-linejoin="miter" stroke-miterlimit="8" stroke-opacity="1" fill="none"/><text fill="#000000" fill-opacity="1" font-family="Arial,Arial_MSFontService,sans-serif" font-style="normal" font-variant="normal" font-weight="400" font-stretch="normal" font-size="55" text-anchor="start" direction="ltr" writing-mode="lr-tb" unicode-bidi="normal" text-decoration="none" transform="matrix(1 0 0 1 529.704 336)">VPC</text><rect x="891.5" y="111.5" width="789" height="1313" stroke="#00A0C8" stroke-width="4.58333" stroke-linecap="butt" stroke-linejoin="miter" stroke-miterlimit="8" stroke-dasharray="18.3333 13.75" stroke-opacity="1" fill="none"/><text fill="#000000" fill-opacity="1" font-family="Arial,Arial_MSFontService,sans-serif" font-style="normal" font-variant="normal" font-weight="400" font-stretch="normal" font-size="55" text-anchor="start" direction="ltr" writing-mode="lr-tb" unicode-bidi="normal" text-decoration="none" transform="matrix(1 0 0 1 1063.72 197)">Availability Zone 1</text><g><g><g><path d="M0 0 137 0 137 137 0 137Z" fill="#6CAE3E" fill-rule="evenodd" fill-opacity="1" transform="matrix(1.0073 0 0 1 348 250)"/><path d="M99.3011 95.883 39.343 95.8179C31.2395 95.8111 24.5025 89.4919 24.0161 81.4295 23.9887 81.0082 23.975 80.5766 23.975 80.1348 23.975 69.5242 31.1367 66.0581 35.4043 64.9346 36.2263 64.7189 36.7674 63.9311 36.6715 63.0852 36.5653 62.1604 36.5071 61.2219 36.5071 60.2664 36.5071 51.8272 42.1549 42.7509 49.3714 39.6033 52.6046 38.1888 55.5947 37.6271 58.3038 37.6271 66.0204 37.6271 71.4696 42.1789 73.8465 44.6381 76.4769 47.3541 78.5251 50.8202 79.9396 54.9439 80.1451 55.5501 80.676 55.9885 81.3096 56.081 81.9192 56.1735 82.5734 55.9063 82.9502 55.3857 84.9641 52.5738 88.2487 51.3134 91.3072 52.1936 95.1535 53.2931 97.6674 57.29 98.0236 62.7015 97.8798 63.6229 98.4997 64.4894 99.4176 64.6538 103.51 65.3799 113.025 68.3528 113.025 80.2821 113.025 94.4924 99.7156 95.8385 99.3011 95.883ZM101.36 61.561C100.623 55.0295 97.2701 50.3339 92.2491 48.9022 88.7042 47.8884 84.9778 48.7892 82.1624 51.2038 80.6691 47.7309 78.7032 44.7306 76.3091 42.2577 68.5789 34.2672 57.9956 32.0991 47.998 36.4626 39.4937 40.1753 33.0821 50.4092 33.0821 60.2664 33.0821 60.8623 33.1027 61.4548 33.1403 62.0405 28.4926 63.6126 20.55 68.072 20.55 80.1348 20.55 80.6554 20.5637 81.1589 20.598 81.6452 21.1939 91.5024 29.4311 99.2326 39.3396 99.2429L99.4416 99.3011C99.6128 99.2874 116.45 97.6777 116.45 80.2821 116.45 66.7944 106.185 62.7255 101.36 61.561ZM58.2251 85.608 75.3501 85.608 75.3501 71.908 58.2251 71.908 58.2251 85.608ZM61.6501 66.7705C61.6501 63.938 63.9551 61.6329 66.7876 61.6329 69.6201 61.6329 71.9251 63.938 71.9251 66.7705L71.9251 68.483 61.6501 68.483 61.6501 66.7705ZM77.0626 68.483 75.3501 68.483 75.3501 66.7705C75.3501 62.0508 71.5107 58.2079 66.7876 58.2079 62.0645 58.2079 58.2251 62.0508 58.2251 66.7705L58.2251 68.483 56.5126 68.483C55.5638 68.483 54.8001 69.2502 54.8001 70.1955L54.8001 87.3205C54.8001 88.2658 55.5638 89.033 56.5126 89.033L77.0626 89.033C78.0079 89.033 78.7751 88.2658 78.7751 87.3205L78.7751 70.1955C78.7751 69.2502 78.0079 68.483 77.0626 68.483Z" fill="#232F3E" fill-rule="evenodd" fill-opacity="1" transform="matrix(1.0073 0 0 1 348 250)"/></g></g></g><text fill="#6CAE3E" fill-opacity="1" font-family="Arial,Arial_MSFontService,sans-serif" font-style="normal" font-variant="normal" font-weight="400" font-stretch="normal" font-size="55" text-anchor="start" direction="ltr" writing-mode="lr-tb" unicode-bidi="normal" text-decoration="none" transform="matrix(1 0 0 1 1090.66 1321)">Private subnet</text><text fill="#000000" fill-opacity="1" font-family="Arial,Arial_MSFontService,sans-serif" font-style="normal" font-variant="normal" font-weight="400" font-stretch="normal" font-size="50" text-anchor="start" direction="ltr" writing-mode="lr-tb" unicode-bidi="normal" text-decoration="none" transform="matrix(1 0 0 1 388.368 747)">Internet gateway</text><g><g><g><path d="M113.527 119.458 108.44 119.458 108.44 59.4332C108.44 58.0986 107.655 56.8863 106.44 56.3396L106.127 56.1969C99.305 53.1169 92.2451 49.9282 82.0983 49.9282 71.4931 49.9282 63.7099 53.3546 56.0149 57.1749 54.8603 57.7488 54.1302 58.9272 54.1302 60.2176L54.1302 119.458 49.1621 119.458 49.1621 55.3921C57.4276 48.6718 69.3436 44.8413 82.1323 44.8413 94.0211 44.8413 105.356 48.2269 113.527 54.173L113.527 119.458ZM82.1323 38.0496C67.1057 38.0496 53.0334 42.8683 43.5183 51.2764 42.7882 51.9182 42.3705 52.8453 42.3705 53.8199L42.3705 122.854C42.3705 124.732 43.8884 126.25 45.7663 126.25L57.5261 126.25C59.404 126.25 60.9219 124.732 60.9219 122.854L60.9219 62.3332C67.4385 59.1853 73.7548 56.7199 82.0983 56.7199 90.0276 56.7199 95.7937 59.0121 101.648 61.6303L101.648 122.854C101.648 124.732 103.166 126.25 105.044 126.25L116.923 126.25C118.8 126.25 120.318 124.732 120.318 122.854L120.318 52.4921C120.318 51.4598 119.846 50.4818 119.035 49.8332 109.615 42.3453 96.1638 38.0496 82.1323 38.0496ZM81.3444 149.107C43.9835 149.107 13.5806 118.707 13.5806 81.3431 13.5806 43.9787 43.9835 13.5826 81.3444 13.5826 118.709 13.5826 149.108 43.9787 149.108 81.3431 149.108 118.707 118.709 149.107 81.3444 149.107ZM81.3444 6.79098C40.2345 6.79098 6.78895 40.2365 6.78895 81.3431 6.78895 122.456 40.2345 155.899 81.3444 155.899 122.454 155.899 155.9 122.456 155.9 81.3431 155.9 40.2365 122.454 6.79098 81.3444 6.79098Z" fill="#A166FF" fill-rule="evenodd" fill-opacity="1" transform="matrix(1 0 0 1.00614 489 511)"/></g></g></g><text fill="#000000" fill-opacity="1" font-family="Arial,Arial_MSFontService,sans-serif" font-style="normal" font-variant="normal" font-weight="400" font-stretch="normal" font-size="50" text-anchor="start" direction="ltr" writing-mode="lr-tb" unicode-bidi="normal" text-decoration="none" transform="matrix(1 0 0 1 1961.93 721)">NAT gateway</text><g><g><g><g><g><g><g><path d="M2115.22 665.716C2073.28 665.716 2039.28 631.719 2039.28 589.781 2039.28 547.844 2073.28 513.847 2115.22 513.847 2157.16 513.847 2191.15 547.844 2191.15 589.781 2191.12 631.705 2157.16 665.681 2115.22 665.716ZM2115.22 520.309C2076.86 520.309 2045.75 551.412 2045.75 589.781 2045.75 628.151 2076.86 659.253 2115.22 659.253 2153.58 659.253 2184.69 628.151 2184.69 589.781 2184.66 551.429 2153.58 520.344 2115.22 520.309Z" fill="#A166FF" fill-rule="nonzero" fill-opacity="1"/><path d="M2124.29 632.403 2097.69 632.403 2097.69 625.94 2121.06 625.94 2121.06 559.7 2097.69 559.7 2097.69 553.237 2124.29 553.237C2126.08 553.237 2127.52 554.681 2127.52 556.469L2127.52 629.172C2127.52 630.956 2126.08 632.403 2124.29 632.403Z" fill="#A166FF" fill-rule="nonzero" fill-opacity="1"/><path d="M2097.07 589.589 2154.61 589.589 2154.61 596.051 2097.07 596.051Z" fill="#A166FF" fill-rule="nonzero" fill-opacity="1"/><path d="M2075.82 571.817C2075.34 571.814 2074.86 571.703 2074.45 571.494 2073.32 570.958 2072.59 569.827 2072.59 568.586L2072.59 544.351C2072.59 543.107 2073.32 541.976 2074.45 541.443 2075.55 540.9 2076.89 541.051 2077.85 541.828L2092.98 553.945C2093.77 554.557 2094.22 555.485 2094.22 556.469 2094.22 557.452 2093.77 558.376 2092.98 558.988L2077.85 571.105C2077.3 571.569 2076.58 571.82 2075.82 571.817ZM2079.06 551.072 2079.06 561.862 2085.83 556.469Z" fill="#A166FF" fill-rule="nonzero" fill-opacity="1"/><path d="M2075.82 608.169C2075.34 608.165 2074.86 608.055 2074.45 607.845 2073.32 607.309 2072.59 606.178 2072.59 604.937L2072.59 580.703C2072.59 579.459 2073.32 578.328 2074.45 577.795 2075.55 577.252 2076.89 577.403 2077.85 578.18L2092.98 590.297C2093.77 590.909 2094.22 591.837 2094.22 592.82 2094.22 593.803 2093.77 594.728 2092.98 595.34L2077.85 607.457C2077.3 607.921 2076.58 608.172 2075.82 608.169ZM2079.06 587.423 2079.06 598.214 2085.83 592.82Z" fill="#A166FF" fill-rule="nonzero" fill-opacity="1"/><path d="M2157.6 611.173C2157.19 611.173 2156.78 611.097 2156.4 610.946 2155.16 610.448 2154.37 609.258 2154.37 607.942L2154.37 577.664C2154.37 575.88 2155.82 574.426 2157.6 574.416 2158.46 574.409 2159.29 574.753 2159.91 575.371L2175.07 590.524C2176.3 591.785 2176.3 593.82 2175.07 595.082L2159.91 610.234C2159.29 610.839 2158.46 611.176 2157.6 611.173ZM2160.83 585.323 2160.83 600.025 2168.23 592.69Z" fill="#A166FF" fill-rule="nonzero" fill-opacity="1"/><path d="M2075.82 641.481C2075.34 641.478 2074.86 641.368 2074.45 641.158 2073.32 640.625 2072.59 639.495 2072.59 638.25L2072.59 614.016C2072.59 612.232 2074.04 610.781 2075.82 610.774 2076.55 610.771 2077.3 611.025 2077.85 611.496L2092.98 623.613C2094.39 624.73 2094.59 626.762 2093.49 628.154 2093.32 628.34 2093.18 628.505 2092.98 628.653L2077.85 640.77C2077.3 641.234 2076.58 641.485 2075.82 641.481ZM2079.06 620.736 2079.06 631.53 2085.83 626.133Z" fill="#A166FF" fill-rule="nonzero" fill-opacity="1"/></g></g></g></g></g></g></g><path d="M0.00536355-5.72916 1349.89-4.46543 1349.88 6.9929-0.00536355 5.72916ZM1344.17-15.9291 1378.52 1.29055 1344.13 18.4459Z" fill="#BFBFBF" fill-rule="nonzero" fill-opacity="1" transform="matrix(-1 0 0 1 2031.02 592.5)"/><path d="M489.462 599.52 191.123 598.342 191.168 586.884 489.507 588.062ZM196.807 609.823 162.5 592.5 196.943 575.448Z" fill="#BFBFBF" fill-rule="nonzero" fill-opacity="1"/><rect x="1733.5" y="940.5" width="761" height="426" stroke="#548235" stroke-width="4.58333" stroke-linecap="butt" stroke-linejoin="miter" stroke-miterlimit="8" stroke-dasharray="18.3333 13.75" stroke-opacity="0.2" fill="#E2F0D9" fill-opacity="0.2"/><g><g><g><path d="M0 0 137 0 137 137 0 137Z" fill="#6CAE3E" fill-rule="evenodd" fill-opacity="1" transform="matrix(1 0 0 1 1732 1231)"/><path d="M66.9107 75.5177C70.6988 75.5177 73.7812 78.5968 73.7812 82.3848 73.7812 86.1729 70.6988 89.2554 66.9107 89.2554 63.1227 89.2554 60.0402 86.1729 60.0402 82.3848 60.0402 78.5968 63.1227 75.5177 66.9107 75.5177L66.9107 75.5177ZM65.116 92.4988 65.116 104.466 68.541 104.466 68.541 92.516C73.4387 91.7282 77.2062 87.5052 77.2062 82.3848 77.2062 76.7096 72.5859 72.0927 66.9107 72.0927 61.2355 72.0927 56.6152 76.7096 56.6152 82.3848 56.6152 87.447 60.2936 91.6426 65.116 92.4988ZM34.25 113.073 99.366 113.073 99.366 61.6499 34.25 61.6499 34.25 113.073ZM48.1075 42.7576C48.1075 32.4005 56.533 23.975 66.8867 23.975 77.2439 23.975 85.666 32.4005 85.666 42.7576L85.666 58.2249 48.1075 58.2249 48.1075 42.7576ZM101.078 58.2249 89.091 58.2249 89.091 42.7576C89.091 30.5099 79.1277 20.55 66.8867 20.55 54.6424 20.55 44.6825 30.5099 44.6825 42.7576L44.6825 58.2249 32.5375 58.2249C31.5887 58.2249 30.825 58.9921 30.825 59.9374L30.825 114.785C30.825 115.731 31.5887 116.498 32.5375 116.498L101.078 116.498C102.024 116.498 102.791 115.731 102.791 114.785L102.791 59.9374C102.791 58.9921 102.024 58.2249 101.078 58.2249Z" fill="#232F3E" fill-rule="evenodd" fill-opacity="1" transform="matrix(1 0 0 1 1732 1231)"/></g></g></g><text fill="#6CAE3E" fill-opacity="1" font-family="Arial,Arial_MSFontService,sans-serif" font-style="normal" font-variant="normal" font-weight="400" font-stretch="normal" font-size="55" text-anchor="start" direction="ltr" writing-mode="lr-tb" unicode-bidi="normal" text-decoration="none" transform="matrix(1 0 0 1 1906.7 390)">Public subnet</text><g><g><g><path d="M1732 322 1869 322 1869 459 1732 459Z" fill="#6CAE3E" fill-rule="evenodd" fill-opacity="1"/><path d="M1798.91 397.518C1802.7 397.518 1805.78 400.597 1805.78 404.385 1805.78 408.173 1802.7 411.255 1798.91 411.255 1795.12 411.255 1792.04 408.173 1792.04 404.385 1792.04 400.597 1795.12 397.518 1798.91 397.518L1798.91 397.518ZM1797.12 414.499 1797.12 426.466 1800.54 426.466 1800.54 414.516C1805.44 413.728 1809.21 409.505 1809.21 404.385 1809.21 398.71 1804.59 394.093 1798.91 394.093 1793.24 394.093 1788.62 398.71 1788.62 404.385 1788.62 409.447 1792.29 413.643 1797.12 414.499ZM1766.25 435.073 1831.37 435.073 1831.37 383.65 1766.25 383.65 1766.25 435.073ZM1780.11 364.758C1780.11 354.401 1788.53 345.975 1798.89 345.975 1809.24 345.975 1817.67 354.401 1817.67 364.758L1817.67 380.225 1780.11 380.225 1780.11 364.758ZM1833.08 380.225 1821.09 380.225 1821.09 364.758C1821.09 352.51 1811.13 342.55 1798.89 342.55 1786.64 342.55 1776.68 352.51 1776.68 364.758L1776.68 380.225 1764.54 380.225C1763.59 380.225 1762.83 380.992 1762.83 381.938L1762.83 436.785C1762.83 437.731 1763.59 438.498 1764.54 438.498L1833.08 438.498C1834.02 438.498 1834.79 437.731 1834.79 436.785L1834.79 381.938C1834.79 380.992 1834.02 380.225 1833.08 380.225Z" fill="#232F3E" fill-rule="evenodd" fill-opacity="1"/></g></g></g><rect x="1719.5" y="111.5" width="789" height="1313" stroke="#00A0C8" stroke-width="4.58333" stroke-linecap="butt" stroke-linejoin="miter" stroke-miterlimit="8" stroke-dasharray="18.3333 13.75" stroke-opacity="1" fill="none"/><text fill="#000000" fill-opacity="1" font-family="Arial,Arial_MSFontService,sans-serif" font-style="normal" font-variant="normal" font-weight="400" font-stretch="normal" font-size="55" text-anchor="start" direction="ltr" writing-mode="lr-tb" unicode-bidi="normal" text-decoration="none" transform="matrix(1 0 0 1 1891.63 197)">Availability Zone </text><text fill="#000000" fill-opacity="1" font-family="Arial,Arial_MSFontService,sans-serif" font-style="normal" font-variant="normal" font-weight="400" font-stretch="normal" font-size="55" text-anchor="start" direction="ltr" writing-mode="lr-tb" unicode-bidi="normal" text-decoration="none" transform="matrix(1 0 0 1 2304.86 197)">2</text><text fill="#6CAE3E" fill-opacity="1" font-family="Arial,Arial_MSFontService,sans-serif" font-style="normal" font-variant="normal" font-weight="400" font-stretch="normal" font-size="55" text-anchor="start" direction="ltr" writing-mode="lr-tb" unicode-bidi="normal" text-decoration="none" transform="matrix(1 0 0 1 1918.57 1320)">Private subnet</text><rect x="2561.5" y="940.5" width="761" height="426" stroke="#548235" stroke-width="4.58333" stroke-linecap="butt" stroke-linejoin="miter" stroke-miterlimit="8" stroke-dasharray="18.3333 13.75" stroke-opacity="0.2" fill="#E2F0D9" fill-opacity="0.2"/><g><g><g><path d="M2560 1231 2697 1231 2697 1368 2560 1368Z" fill="#6CAE3E" fill-rule="evenodd" fill-opacity="1"/><path d="M2626.91 1306.52C2630.7 1306.52 2633.78 1309.6 2633.78 1313.39 2633.78 1317.17 2630.7 1320.26 2626.91 1320.26 2623.12 1320.26 2620.04 1317.17 2620.04 1313.39 2620.04 1309.6 2623.12 1306.52 2626.91 1306.52L2626.91 1306.52ZM2625.12 1323.5 2625.12 1335.47 2628.54 1335.47 2628.54 1323.52C2633.44 1322.73 2637.21 1318.51 2637.21 1313.39 2637.21 1307.71 2632.59 1303.09 2626.91 1303.09 2621.24 1303.09 2616.62 1307.71 2616.62 1313.39 2616.62 1318.45 2620.29 1322.64 2625.12 1323.5ZM2594.25 1344.07 2659.37 1344.07 2659.37 1292.65 2594.25 1292.65 2594.25 1344.07ZM2608.11 1273.76C2608.11 1263.4 2616.53 1254.97 2626.89 1254.97 2637.24 1254.97 2645.67 1263.4 2645.67 1273.76L2645.67 1289.23 2608.11 1289.23 2608.11 1273.76ZM2661.08 1289.23 2649.09 1289.23 2649.09 1273.76C2649.09 1261.51 2639.13 1251.55 2626.89 1251.55 2614.64 1251.55 2604.68 1261.51 2604.68 1273.76L2604.68 1289.23 2592.54 1289.23C2591.59 1289.23 2590.82 1289.99 2590.82 1290.94L2590.82 1345.79C2590.82 1346.73 2591.59 1347.5 2592.54 1347.5L2661.08 1347.5C2662.02 1347.5 2662.79 1346.73 2662.79 1345.79L2662.79 1290.94C2662.79 1289.99 2662.02 1289.23 2661.08 1289.23Z" fill="#232F3E" fill-rule="evenodd" fill-opacity="1"/></g></g></g><rect x="2561.5" y="321.5" width="761" height="467" stroke="#548235" stroke-width="4.58333" stroke-linecap="butt" stroke-linejoin="miter" stroke-miterlimit="8" stroke-dasharray="18.3333 13.75" stroke-opacity="0.2" fill="#E2F0D9" fill-opacity="0.2"/><text fill="#6CAE3E" fill-opacity="1" font-family="Arial,Arial_MSFontService,sans-serif" font-style="normal" font-variant="normal" font-weight="400" font-stretch="normal" font-size="55" text-anchor="start" direction="ltr" writing-mode="lr-tb" unicode-bidi="normal" text-decoration="none" transform="matrix(1 0 0 1 2734.61 390)">Public subnet</text><g><g><g><path d="M0 0 137 0 137 137 0 137Z" fill="#6CAE3E" fill-rule="evenodd" fill-opacity="1" transform="matrix(1 0 0 1 2560 322)"/><path d="M66.9107 75.5177C70.6988 75.5177 73.7812 78.5968 73.7812 82.3848 73.7812 86.1729 70.6988 89.2554 66.9107 89.2554 63.1227 89.2554 60.0402 86.1729 60.0402 82.3848 60.0402 78.5968 63.1227 75.5177 66.9107 75.5177L66.9107 75.5177ZM65.116 92.4988 65.116 104.466 68.541 104.466 68.541 92.516C73.4387 91.7282 77.2062 87.5052 77.2062 82.3848 77.2062 76.7096 72.5859 72.0927 66.9107 72.0927 61.2355 72.0927 56.6152 76.7096 56.6152 82.3848 56.6152 87.447 60.2936 91.6426 65.116 92.4988ZM34.25 113.073 99.366 113.073 99.366 61.6499 34.25 61.6499 34.25 113.073ZM48.1075 42.7576C48.1075 32.4005 56.533 23.975 66.8867 23.975 77.2439 23.975 85.666 32.4005 85.666 42.7576L85.666 58.2249 48.1075 58.2249 48.1075 42.7576ZM101.078 58.2249 89.091 58.2249 89.091 42.7576C89.091 30.5099 79.1277 20.55 66.8867 20.55 54.6424 20.55 44.6825 30.5099 44.6825 42.7576L44.6825 58.2249 32.5375 58.2249C31.5887 58.2249 30.825 58.9921 30.825 59.9374L30.825 114.785C30.825 115.731 31.5887 116.498 32.5375 116.498L101.078 116.498C102.024 116.498 102.791 115.731 102.791 114.785L102.791 59.9374C102.791 58.9921 102.024 58.2249 101.078 58.2249Z" fill="#232F3E" fill-rule="evenodd" fill-opacity="1" transform="matrix(1 0 0 1 2560 322)"/></g></g></g><rect x="2547.5" y="111.5" width="789" height="1319" stroke="#00A0C8" stroke-width="4.58333" stroke-linecap="butt" stroke-linejoin="miter" stroke-miterlimit="8" stroke-dasharray="18.3333 13.75" stroke-opacity="1" fill="none"/><text fill="#000000" fill-opacity="1" font-family="Arial,Arial_MSFontService,sans-serif" font-style="normal" font-variant="normal" font-weight="400" font-stretch="normal" font-size="55" text-anchor="start" direction="ltr" writing-mode="lr-tb" unicode-bidi="normal" text-decoration="none" transform="matrix(1 0 0 1 2719.54 197)">Availability Zone </text><text fill="#000000" fill-opacity="1" font-family="Arial,Arial_MSFontService,sans-serif" font-style="normal" font-variant="normal" font-weight="400" font-stretch="normal" font-size="55" text-anchor="start" direction="ltr" writing-mode="lr-tb" unicode-bidi="normal" text-decoration="none" transform="matrix(1 0 0 1 3132.78 197)">3</text><text fill="#6CAE3E" fill-opacity="1" font-family="Arial,Arial_MSFontService,sans-serif" font-style="normal" font-variant="normal" font-weight="400" font-stretch="normal" font-size="55" text-anchor="start" direction="ltr" writing-mode="lr-tb" unicode-bidi="normal" text-decoration="none" transform="matrix(1 0 0 1 2746.48 1320)">Private subnet</text><path d="M1280.77 941.742 1280.77 840.391 2114.33 840.391 2108.6 846.12 2108.6 779.146 2120.06 779.146 2120.06 851.85 1286.5 851.85 1292.23 846.12 1292.23 941.742ZM2097.14 784.875 2114.33 750.5 2131.51 784.875Z" fill="#BFBFBF" fill-rule="nonzero" fill-opacity="1"/><path d="M2107.85 940.85 2107.78 779.148 2119.24 779.143 2119.31 940.845ZM2096.33 784.883 2113.5 750.5 2130.7 784.867Z" fill="#BFBFBF" fill-rule="nonzero" fill-opacity="1"/><path d="M0-5.72917 101.813-5.72917 101.813 827.995 96.0836 822.266 161.702 822.266 161.702 833.725 90.3544 833.725 90.3544 0 96.0836 5.72917 0 5.72917ZM155.973 810.808 190.348 827.995 155.973 845.183Z" fill="#BFBFBF" fill-rule="nonzero" fill-opacity="1" transform="matrix(-1.83697e-16 -1 -1 1.83697e-16 2941.5 940.848)"/><text fill="#000000" fill-opacity="1" font-family="Arial,Arial_MSFontService,sans-serif" font-style="normal" font-variant="normal" font-weight="400" font-stretch="normal" font-size="50" text-anchor="start" direction="ltr" writing-mode="lr-tb" unicode-bidi="normal" text-decoration="none" transform="matrix(1 0 0 1 1091.69 667)">Outbound internet</text></g></g></svg>